solid OpenSCAD_Model
  facet normal 0 0 -1
    outer loop
      vertex 40 0 0
      vertex 5.34 5 0
      vertex 40 5 0
    endloop
  endfacet
  facet normal -0 0 -1
    outer loop
      vertex 5.34 5 0
      vertex 0 0 0
      vertex 5.34 56 0
    endloop
  endfacet
  facet normal 0 0 -1
    outer loop
      vertex 0 0 0
      vertex 5.34 5 0
      vertex 40 0 0
    endloop
  endfacet
  facet normal 0 0 -1
    outer loop
      vertex 10 56 0
      vertex 5.34 56 0
      vertex 10 60 0
    endloop
  endfacet
  facet normal 0 0 -1
    outer loop
      vertex 90 0 0
      vertex 80 10 0
      vertex 90 70 0
    endloop
  endfacet
  facet normal 0 0 -1
    outer loop
      vertex 90 0 0
      vertex 75.34 5 0
      vertex 80 10 0
    endloop
  endfacet
  facet normal 0 0 -1
    outer loop
      vertex 60 0 0
      vertex 75.34 5 0
      vertex 90 0 0
    endloop
  endfacet
  facet normal -0 0 -1
    outer loop
      vertex 75.34 5 0
      vertex 60 0 0
      vertex 60 5 0
    endloop
  endfacet
  facet normal 0 0 -1
    outer loop
      vertex 80 60 0
      vertex 90 70 0
      vertex 80 10 0
    endloop
  endfacet
  facet normal 0 0 -1
    outer loop
      vertex 80 60 0
      vertex 55 70 0
      vertex 90 70 0
    endloop
  endfacet
  facet normal 0 0 -1
    outer loop
      vertex 55 70 0
      vertex 30 70 0
      vertex 55 85 0
    endloop
  endfacet
  facet normal 0 0 -1
    outer loop
      vertex 10 60 0
      vertex 55 70 0
      vertex 80 60 0
    endloop
  endfacet
  facet normal -0 0 -1
    outer loop
      vertex 55 70 0
      vertex 10 60 0
      vertex 30 70 0
    endloop
  endfacet
  facet normal 0 0 -1
    outer loop
      vertex 10 60 0
      vertex 0 70 0
      vertex 30 70 0
    endloop
  endfacet
  facet normal 0 0 -1
    outer loop
      vertex 5.34 56 0
      vertex 0 70 0
      vertex 10 60 0
    endloop
  endfacet
  facet normal 0 0 -1
    outer loop
      vertex 0 70 0
      vertex 5.34 56 0
      vertex 0 0 0
    endloop
  endfacet
  facet normal -0 0 -1
    outer loop
      vertex 80 10 0
      vertex 75.34 5 0
      vertex 75.34 10 0
    endloop
  endfacet
  facet normal -0 0 -1
    outer loop
      vertex 55 85 0
      vertex 30 70 0
      vertex 30 85 0
    endloop
  endfacet
  facet normal 0 0 1
    outer loop
      vertex 55 85 13
      vertex 30 85 13
      vertex 55 70 13
    endloop
  endfacet
  facet normal 0 0 1
    outer loop
      vertex 90 70 13
      vertex 89 56 13
      vertex 90 0 13
    endloop
  endfacet
  facet normal 0 0 1
    outer loop
      vertex 90 70 13
      vertex 80 60 13
      vertex 89 56 13
    endloop
  endfacet
  facet normal -0 0 1
    outer loop
      vertex 55 70 13
      vertex 80 60 13
      vertex 90 70 13
    endloop
  endfacet
  facet normal 0 0 1
    outer loop
      vertex 30 70 13
      vertex 55 70 13
      vertex 30 85 13
    endloop
  endfacet
  facet normal 0 0 1
    outer loop
      vertex 10 60 13
      vertex 55 70 13
      vertex 30 70 13
    endloop
  endfacet
  facet normal 0 0 1
    outer loop
      vertex 55 70 13
      vertex 10 60 13
      vertex 80 60 13
    endloop
  endfacet
  facet normal -0 0 1
    outer loop
      vertex 0 70 13
      vertex 10 60 13
      vertex 30 70 13
    endloop
  endfacet
  facet normal 0 0 1
    outer loop
      vertex 0 56 13
      vertex 10 60 13
      vertex 0 70 13
    endloop
  endfacet
  facet normal 0 0 1
    outer loop
      vertex 10 60 13
      vertex 0 56 13
      vertex 10 56 13
    endloop
  endfacet
  facet normal -0 0 1
    outer loop
      vertex 89 5 13
      vertex 90 0 13
      vertex 89 56 13
    endloop
  endfacet
  facet normal -0 0 1
    outer loop
      vertex 26.0918 5 13
      vertex 90 0 13
      vertex 89 5 13
    endloop
  endfacet
  facet normal 0 0 1
    outer loop
      vertex 8.69727 5 13
      vertex 26.0918 5 13
      vertex 17.3945 13.6973 13
    endloop
  endfacet
  facet normal 0 0 1
    outer loop
      vertex 0 0 13
      vertex 26.0918 5 13
      vertex 8.69727 5 13
    endloop
  endfacet
  facet normal 0 0 1
    outer loop
      vertex 26.0918 5 13
      vertex 0 0 13
      vertex 90 0 13
    endloop
  endfacet
  facet normal 0 0 1
    outer loop
      vertex 0 0 13
      vertex 8.69727 5 13
      vertex 0 13.6973 13
    endloop
  endfacet
  facet normal 0 0 1
    outer loop
      vertex 89 56 13
      vertex 80 60 13
      vertex 80 56 13
    endloop
  endfacet
  facet normal 0 0 1
    outer loop
      vertex 8.77344 22.3945 13
      vertex 0 31.0918 13
      vertex 0 13.6973 13
    endloop
  endfacet
  facet normal 0 -1 0
    outer loop
      vertex 0 0 13
      vertex 48.9547 0 9.94522
      vertex 90 0 13
    endloop
  endfacet
  facet normal 0 -1 0
    outer loop
      vertex 0 0 13
      vertex 46.9098 0 9.51056
      vertex 48.9547 0 9.94522
    endloop
  endfacet
  facet normal 0 -1 0
    outer loop
      vertex 0 0 13
      vertex 45 0 8.66025
      vertex 46.9098 0 9.51056
    endloop
  endfacet
  facet normal 0 -1 0
    outer loop
      vertex 0 0 13
      vertex 43.3087 0 7.43145
      vertex 45 0 8.66025
    endloop
  endfacet
  facet normal 0 -1 0
    outer loop
      vertex 0 0 13
      vertex 41.9098 0 5.87785
      vertex 43.3087 0 7.43145
    endloop
  endfacet
  facet normal 0 -1 0
    outer loop
      vertex 0 0 13
      vertex 40.8645 0 4.06737
      vertex 41.9098 0 5.87785
    endloop
  endfacet
  facet normal 0 -1 0
    outer loop
      vertex 0 0 13
      vertex 40.2185 0 2.07912
      vertex 40.8645 0 4.06737
    endloop
  endfacet
  facet normal 0 -1 0
    outer loop
      vertex 0 0 0
      vertex 40.2185 0 2.07912
      vertex 0 0 13
    endloop
  endfacet
  facet normal 0 -1 0
    outer loop
      vertex 40.2185 0 2.07912
      vertex 0 0 0
      vertex 40 0 0
    endloop
  endfacet
  facet normal 0 -1 0
    outer loop
      vertex 51.0453 0 9.94522
      vertex 90 0 13
      vertex 48.9547 0 9.94522
    endloop
  endfacet
  facet normal 0 -1 0
    outer loop
      vertex 53.0902 0 9.51056
      vertex 90 0 13
      vertex 51.0453 0 9.94522
    endloop
  endfacet
  facet normal 0 -1 0
    outer loop
      vertex 55 0 8.66025
      vertex 90 0 13
      vertex 53.0902 0 9.51056
    endloop
  endfacet
  facet normal 0 -1 0
    outer loop
      vertex 56.6913 0 7.43145
      vertex 90 0 13
      vertex 55 0 8.66025
    endloop
  endfacet
  facet normal 0 -1 0
    outer loop
      vertex 58.0902 0 5.87785
      vertex 90 0 13
      vertex 56.6913 0 7.43145
    endloop
  endfacet
  facet normal 0 -1 0
    outer loop
      vertex 59.1355 0 4.06737
      vertex 90 0 13
      vertex 58.0902 0 5.87785
    endloop
  endfacet
  facet normal 0 -1 0
    outer loop
      vertex 59.7815 0 2.07912
      vertex 90 0 13
      vertex 59.1355 0 4.06737
    endloop
  endfacet
  facet normal 0 -1 0
    outer loop
      vertex 90 0 0
      vertex 59.7815 0 2.07912
      vertex 60 0 0
    endloop
  endfacet
  facet normal 0 -1 0
    outer loop
      vertex 59.7815 0 2.07912
      vertex 90 0 0
      vertex 90 0 13
    endloop
  endfacet
  facet normal 1 -0 0
    outer loop
      vertex 90 0 13
      vertex 90 70 0
      vertex 90 70 13
    endloop
  endfacet
  facet normal 1 0 0
    outer loop
      vertex 90 70 0
      vertex 90 0 13
      vertex 90 0 0
    endloop
  endfacet
  facet normal 0 1 -0
    outer loop
      vertex 90 70 0
      vertex 55 70 13
      vertex 90 70 13
    endloop
  endfacet
  facet normal 0 1 0
    outer loop
      vertex 55 70 13
      vertex 90 70 0
      vertex 55 70 0
    endloop
  endfacet
  facet normal 1 -0 0
    outer loop
      vertex 55 70 13
      vertex 55 85 0
      vertex 55 85 13
    endloop
  endfacet
  facet normal 1 0 0
    outer loop
      vertex 55 85 0
      vertex 55 70 13
      vertex 55 70 0
    endloop
  endfacet
  facet normal 0 1 -0
    outer loop
      vertex 55 85 0
      vertex 30 85 13
      vertex 55 85 13
    endloop
  endfacet
  facet normal 0 1 0
    outer loop
      vertex 30 85 13
      vertex 55 85 0
      vertex 30 85 0
    endloop
  endfacet
  facet normal -1 0 0
    outer loop
      vertex 30 70 0
      vertex 30 85 13
      vertex 30 85 0
    endloop
  endfacet
  facet normal -1 -0 0
    outer loop
      vertex 30 85 13
      vertex 30 70 0
      vertex 30 70 13
    endloop
  endfacet
  facet normal 0 1 -0
    outer loop
      vertex 30 70 0
      vertex 0 70 13
      vertex 30 70 13
    endloop
  endfacet
  facet normal 0 1 0
    outer loop
      vertex 0 70 13
      vertex 30 70 0
      vertex 0 70 0
    endloop
  endfacet
  facet normal -1 0 0
    outer loop
      vertex 0 70 0
      vertex 0 56 10
      vertex 0 70 13
    endloop
  endfacet
  facet normal -1 0 0
    outer loop
      vertex 0 49.4134 8.3806
      vertex 0 56 10
      vertex 0 70 0
    endloop
  endfacet
  facet normal -1 -0 0
    outer loop
      vertex 0 56 10
      vertex 0 51.0355 9.46447
      vertex 0 51.3934 10
    endloop
  endfacet
  facet normal -1 0 0
    outer loop
      vertex 0 56 10
      vertex 0 49.4134 8.3806
      vertex 0 51.0355 9.46447
    endloop
  endfacet
  facet normal -1 0 0
    outer loop
      vertex 0 70 0
      vertex 0 47.5 8
      vertex 0 49.4134 8.3806
    endloop
  endfacet
  facet normal -1 0 0
    outer loop
      vertex 0 0 0
      vertex 0 47.5 8
      vertex 0 70 0
    endloop
  endfacet
  facet normal -1 0 0
    outer loop
      vertex 0 43.9645 9.46447
      vertex 0 31.0918 10
      vertex 0 43.6066 10
    endloop
  endfacet
  facet normal -1 0 0
    outer loop
      vertex 0 45.5866 8.3806
      vertex 0 31.0918 10
      vertex 0 43.9645 9.46447
    endloop
  endfacet
  facet normal -1 -0 0
    outer loop
      vertex 0 47.5 8
      vertex 0 0 0
      vertex 0 45.5866 8.3806
    endloop
  endfacet
  facet normal -1 0 0
    outer loop
      vertex 0 31.0918 10
      vertex 0 13.6973 13
      vertex 0 31.0918 13
    endloop
  endfacet
  facet normal -1 -0 0
    outer loop
      vertex 0 45.5866 8.3806
      vertex 0 0 0
      vertex 0 31.0918 10
    endloop
  endfacet
  facet normal -1 -0 0
    outer loop
      vertex 0 31.0918 10
      vertex 0 0 0
      vertex 0 13.6973 13
    endloop
  endfacet
  facet normal -1 -0 0
    outer loop
      vertex 0 13.6973 13
      vertex 0 0 0
      vertex 0 0 13
    endloop
  endfacet
  facet normal -1 -0 0
    outer loop
      vertex 0 70 13
      vertex 0 56 10
      vertex 0 56 13
    endloop
  endfacet
  facet normal 1 -0 0
    outer loop
      vertex 25.1 10 10
      vertex 25.1 35.1 1.2
      vertex 25.1 35.1 10
    endloop
  endfacet
  facet normal 1 0 0
    outer loop
      vertex 25.1 35.1 1.2
      vertex 25.1 10 10
      vertex 25.1 10 1.2
    endloop
  endfacet
  facet normal 0 1 -0
    outer loop
      vertex 25.1 35.1 1.2
      vertex 10 35.1 10
      vertex 25.1 35.1 10
    endloop
  endfacet
  facet normal 0 1 0
    outer loop
      vertex 10 35.1 10
      vertex 25.1 35.1 1.2
      vertex 10 35.1 1.2
    endloop
  endfacet
  facet normal 1 0 0
    outer loop
      vertex 10 51.0355 9.46447
      vertex 10 56 10
      vertex 10 51.3934 10
    endloop
  endfacet
  facet normal 1 0 0
    outer loop
      vertex 10 56 10
      vertex 10 51.0355 9.46447
      vertex 10 56 1.2
    endloop
  endfacet
  facet normal 1 -0 0
    outer loop
      vertex 10 49.4134 8.3806
      vertex 10 56 1.2
      vertex 10 51.0355 9.46447
    endloop
  endfacet
  facet normal 1 -0 0
    outer loop
      vertex 10 47.5 8
      vertex 10 56 1.2
      vertex 10 49.4134 8.3806
    endloop
  endfacet
  facet normal 1 0 0
    outer loop
      vertex 10 35.1 1.2
      vertex 10 47.5 8
      vertex 10 45.5866 8.3806
    endloop
  endfacet
  facet normal 1 0 0
    outer loop
      vertex 10 35.1 1.2
      vertex 10 45.5866 8.3806
      vertex 10 43.9645 9.46447
    endloop
  endfacet
  facet normal 1 -0 0
    outer loop
      vertex 10 35.1 10
      vertex 10 43.9645 9.46447
      vertex 10 43.6066 10
    endloop
  endfacet
  facet normal 1 0 0
    outer loop
      vertex 10 35.1 1.2
      vertex 10 43.9645 9.46447
      vertex 10 35.1 10
    endloop
  endfacet
  facet normal 1 0 0
    outer loop
      vertex 10 47.5 8
      vertex 10 35.1 1.2
      vertex 10 56 1.2
    endloop
  endfacet
  facet normal 1 0 0
    outer loop
      vertex 10 56 10
      vertex 10 60 13
      vertex 10 56 13
    endloop
  endfacet
  facet normal 1 0 0
    outer loop
      vertex 10 60 13
      vertex 10 56 10
      vertex 10 60 0
    endloop
  endfacet
  facet normal 1 -0 0
    outer loop
      vertex 10 56 1.2
      vertex 10 60 0
      vertex 10 56 10
    endloop
  endfacet
  facet normal 1 0 0
    outer loop
      vertex 10 60 0
      vertex 10 56 1.2
      vertex 10 56 0
    endloop
  endfacet
  facet normal 0 -1 0
    outer loop
      vertex 10 60 0
      vertex 80 60 13
      vertex 10 60 13
    endloop
  endfacet
  facet normal 0 -1 -0
    outer loop
      vertex 80 60 13
      vertex 10 60 0
      vertex 80 60 0
    endloop
  endfacet
  facet normal -1 0 0
    outer loop
      vertex 80 60 0
      vertex 80 56 10
      vertex 80 60 13
    endloop
  endfacet
  facet normal -1 0 0
    outer loop
      vertex 80 10 0
      vertex 80 56 10
      vertex 80 60 0
    endloop
  endfacet
  facet normal -1 -0 0
    outer loop
      vertex 80 56 10
      vertex 80 10 0
      vertex 80 10 10
    endloop
  endfacet
  facet normal -1 -0 0
    outer loop
      vertex 80 60 13
      vertex 80 56 10
      vertex 80 56 13
    endloop
  endfacet
  facet normal 0 1 0
    outer loop
      vertex 80 10 10
      vertex 51.0453 10 9.94522
      vertex 25.1 10 10
    endloop
  endfacet
  facet normal 0 1 0
    outer loop
      vertex 80 10 10
      vertex 53.0902 10 9.51056
      vertex 51.0453 10 9.94522
    endloop
  endfacet
  facet normal 0 1 0
    outer loop
      vertex 80 10 10
      vertex 55 10 8.66025
      vertex 53.0902 10 9.51056
    endloop
  endfacet
  facet normal 0 1 0
    outer loop
      vertex 80 10 10
      vertex 56.6913 10 7.43145
      vertex 55 10 8.66025
    endloop
  endfacet
  facet normal 0 1 0
    outer loop
      vertex 80 10 10
      vertex 58.0902 10 5.87785
      vertex 56.6913 10 7.43145
    endloop
  endfacet
  facet normal 0 1 0
    outer loop
      vertex 80 10 10
      vertex 59.1355 10 4.06737
      vertex 58.0902 10 5.87785
    endloop
  endfacet
  facet normal 0 1 -0
    outer loop
      vertex 75.34 10 1.2
      vertex 59.1355 10 4.06737
      vertex 80 10 10
    endloop
  endfacet
  facet normal 0 1 0
    outer loop
      vertex 59.1355 10 4.06737
      vertex 75.34 10 1.2
      vertex 59.7815 10 2.07912
    endloop
  endfacet
  facet normal 0 1 -0
    outer loop
      vertex 80 10 0
      vertex 75.34 10 1.2
      vertex 80 10 10
    endloop
  endfacet
  facet normal 0 1 0
    outer loop
      vertex 75.34 10 1.2
      vertex 80 10 0
      vertex 75.34 10 0
    endloop
  endfacet
  facet normal 0 1 -0
    outer loop
      vertex 48.9547 10 9.94522
      vertex 25.1 10 10
      vertex 51.0453 10 9.94522
    endloop
  endfacet
  facet normal 0 1 -0
    outer loop
      vertex 46.9098 10 9.51056
      vertex 25.1 10 10
      vertex 48.9547 10 9.94522
    endloop
  endfacet
  facet normal 0 1 -0
    outer loop
      vertex 45 10 8.66025
      vertex 25.1 10 10
      vertex 46.9098 10 9.51056
    endloop
  endfacet
  facet normal 0 1 -0
    outer loop
      vertex 43.3087 10 7.43145
      vertex 25.1 10 10
      vertex 45 10 8.66025
    endloop
  endfacet
  facet normal 0 1 -0
    outer loop
      vertex 41.9098 10 5.87785
      vertex 25.1 10 10
      vertex 43.3087 10 7.43145
    endloop
  endfacet
  facet normal 0 1 -0
    outer loop
      vertex 40.8645 10 4.06737
      vertex 25.1 10 10
      vertex 41.9098 10 5.87785
    endloop
  endfacet
  facet normal 0 1 -0
    outer loop
      vertex 40.2185 10 2.07912
      vertex 25.1 10 10
      vertex 40.8645 10 4.06737
    endloop
  endfacet
  facet normal 0 1 0
    outer loop
      vertex 25.1 10 1.2
      vertex 40.2185 10 2.07912
      vertex 40.1261 10 1.2
    endloop
  endfacet
  facet normal 0 1 0
    outer loop
      vertex 40.2185 10 2.07912
      vertex 25.1 10 1.2
      vertex 25.1 10 10
    endloop
  endfacet
  facet normal 0 1 0
    outer loop
      vertex 59.7815 10 2.07912
      vertex 75.34 10 1.2
      vertex 59.8739 10 1.2
    endloop
  endfacet
  facet normal -0 0 1
    outer loop
      vertex 0 43.6066 10
      vertex 10 35.1 10
      vertex 10 43.6066 10
    endloop
  endfacet
  facet normal 0 0 1
    outer loop
      vertex 10 35.1 10
      vertex 0 43.6066 10
      vertex 0 31.0918 10
    endloop
  endfacet
  facet normal 0 0 1
    outer loop
      vertex 10 35.1 10
      vertex 0 31.0918 10
      vertex 8.77344 22.3945 10
    endloop
  endfacet
  facet normal 0 0 1
    outer loop
      vertex 25.1 35.1 10
      vertex 17.3945 13.6973 10
      vertex 25.1 10 10
    endloop
  endfacet
  facet normal 0 0 1
    outer loop
      vertex 8.77344 22.3945 10
      vertex 25.1 35.1 10
      vertex 10 35.1 10
    endloop
  endfacet
  facet normal 0 0 1
    outer loop
      vertex 25.1 35.1 10
      vertex 8.77344 22.3945 10
      vertex 17.3945 13.6973 10
    endloop
  endfacet
  facet normal 0 0 1
    outer loop
      vertex 8.77344 22.3945 10
      vertex 8.69727 5 10
      vertex 17.3945 13.6973 10
    endloop
  endfacet
  facet normal 0 -0 1
    outer loop
      vertex 8.69727 5 10
      vertex 8.77344 22.3945 10
      vertex 0 13.6973 10
    endloop
  endfacet
  facet normal 0 0 1
    outer loop
      vertex 80 10 10
      vertex 89 56 10
      vertex 80 56 10
    endloop
  endfacet
  facet normal 0 0 1
    outer loop
      vertex 89 56 10
      vertex 80 10 10
      vertex 89 5 10
    endloop
  endfacet
  facet normal 0 0 1
    outer loop
      vertex 80 10 10
      vertex 26.0918 5 10
      vertex 89 5 10
    endloop
  endfacet
  facet normal -0 0 1
    outer loop
      vertex 25.1 10 10
      vertex 26.0918 5 10
      vertex 80 10 10
    endloop
  endfacet
  facet normal 0 0 1
    outer loop
      vertex 26.0918 5 10
      vertex 25.1 10 10
      vertex 17.3945 13.6973 10
    endloop
  endfacet
  facet normal -0 0 1
    outer loop
      vertex 0 56 10
      vertex 10 51.3934 10
      vertex 10 56 10
    endloop
  endfacet
  facet normal 0 0 1
    outer loop
      vertex 10 51.3934 10
      vertex 0 56 10
      vertex 0 51.3934 10
    endloop
  endfacet
  facet normal 0 -1 0
    outer loop
      vertex 0 56 10
      vertex 10 56 13
      vertex 0 56 13
    endloop
  endfacet
  facet normal 0 -1 -0
    outer loop
      vertex 10 56 13
      vertex 0 56 10
      vertex 10 56 10
    endloop
  endfacet
  facet normal 0 -1 0
    outer loop
      vertex 80 56 10
      vertex 89 56 13
      vertex 80 56 13
    endloop
  endfacet
  facet normal 0 -1 -0
    outer loop
      vertex 89 56 13
      vertex 80 56 10
      vertex 89 56 10
    endloop
  endfacet
  facet normal 0.704018 0.710182 -0
    outer loop
      vertex 8.77344 22.3945 10
      vertex 0 31.0918 13
      vertex 8.77344 22.3945 13
    endloop
  endfacet
  facet normal 0.704018 0.710182 0
    outer loop
      vertex 0 31.0918 13
      vertex 8.77344 22.3945 10
      vertex 0 31.0918 10
    endloop
  endfacet
  facet normal 0.704014 -0.710186 0
    outer loop
      vertex 0 13.6973 10
      vertex 8.77344 22.3945 13
      vertex 0 13.6973 13
    endloop
  endfacet
  facet normal 0.704014 -0.710186 0
    outer loop
      vertex 8.77344 22.3945 13
      vertex 0 13.6973 10
      vertex 8.77344 22.3945 10
    endloop
  endfacet
  facet normal 0.707108 0.707106 0
    outer loop
      vertex 8.69727 5 13
      vertex 0 13.6973 10
      vertex 0 13.6973 13
    endloop
  endfacet
  facet normal 0.707108 0.707106 0
    outer loop
      vertex 0 13.6973 10
      vertex 8.69727 5 13
      vertex 8.69727 5 10
    endloop
  endfacet
  facet normal -0.70711 0.707104 0
    outer loop
      vertex 8.69727 5 10
      vertex 17.3945 13.6973 13
      vertex 17.3945 13.6973 10
    endloop
  endfacet
  facet normal -0.70711 0.707104 0
    outer loop
      vertex 17.3945 13.6973 13
      vertex 8.69727 5 10
      vertex 8.69727 5 13
    endloop
  endfacet
  facet normal 0.707107 0.707107 0
    outer loop
      vertex 26.0918 5 13
      vertex 17.3945 13.6973 10
      vertex 17.3945 13.6973 13
    endloop
  endfacet
  facet normal 0.707107 0.707107 0
    outer loop
      vertex 17.3945 13.6973 10
      vertex 26.0918 5 13
      vertex 26.0918 5 10
    endloop
  endfacet
  facet normal 0 1 -0
    outer loop
      vertex 89 5 10
      vertex 26.0918 5 13
      vertex 89 5 13
    endloop
  endfacet
  facet normal 0 1 0
    outer loop
      vertex 26.0918 5 13
      vertex 89 5 10
      vertex 26.0918 5 10
    endloop
  endfacet
  facet normal -1 0 0
    outer loop
      vertex 89 5 10
      vertex 89 56 13
      vertex 89 56 10
    endloop
  endfacet
  facet normal -1 -0 0
    outer loop
      vertex 89 56 13
      vertex 89 5 10
      vertex 89 5 13
    endloop
  endfacet
  facet normal 0 0.831419 0.555646
    outer loop
      vertex 10 43.9645 9.46447
      vertex 0 43.6066 10
      vertex 10 43.6066 10
    endloop
  endfacet
  facet normal 0 0.831419 0.555646
    outer loop
      vertex 0 43.6066 10
      vertex 10 43.9645 9.46447
      vertex 0 43.9645 9.46447
    endloop
  endfacet
  facet normal -0 0.195091 0.980785
    outer loop
      vertex 0 47.5 8
      vertex 10 45.5866 8.3806
      vertex 10 47.5 8
    endloop
  endfacet
  facet normal 0 0.195091 0.980785
    outer loop
      vertex 10 45.5866 8.3806
      vertex 0 47.5 8
      vertex 0 45.5866 8.3806
    endloop
  endfacet
  facet normal 0 -0.195091 0.980785
    outer loop
      vertex 0 49.4134 8.3806
      vertex 10 47.5 8
      vertex 10 49.4134 8.3806
    endloop
  endfacet
  facet normal 0 -0.195091 0.980785
    outer loop
      vertex 10 47.5 8
      vertex 0 49.4134 8.3806
      vertex 0 47.5 8
    endloop
  endfacet
  facet normal 0 -0.555576 0.831465
    outer loop
      vertex 0 51.0355 9.46447
      vertex 10 49.4134 8.3806
      vertex 10 51.0355 9.46447
    endloop
  endfacet
  facet normal 0 -0.555576 0.831465
    outer loop
      vertex 10 49.4134 8.3806
      vertex 0 51.0355 9.46447
      vertex 0 49.4134 8.3806
    endloop
  endfacet
  facet normal -0 0.555576 0.831465
    outer loop
      vertex 0 45.5866 8.3806
      vertex 10 43.9645 9.46447
      vertex 10 45.5866 8.3806
    endloop
  endfacet
  facet normal 0 0.555576 0.831465
    outer loop
      vertex 10 43.9645 9.46447
      vertex 0 45.5866 8.3806
      vertex 0 43.9645 9.46447
    endloop
  endfacet
  facet normal 0 -0.831419 0.555646
    outer loop
      vertex 0 51.0355 9.46447
      vertex 10 51.3934 10
      vertex 0 51.3934 10
    endloop
  endfacet
  facet normal 0 -0.831419 0.555646
    outer loop
      vertex 10 51.3934 10
      vertex 0 51.0355 9.46447
      vertex 10 51.0355 9.46447
    endloop
  endfacet
  facet normal 0 0 -1
    outer loop
      vertex 48.9547 0 9.94522
      vertex 51.0453 10 9.94522
      vertex 51.0453 0 9.94522
    endloop
  endfacet
  facet normal -0 0 -1
    outer loop
      vertex 51.0453 10 9.94522
      vertex 48.9547 0 9.94522
      vertex 48.9547 10 9.94522
    endloop
  endfacet
  facet normal -0.406742 0 -0.913543
    outer loop
      vertex 53.0902 0 9.51056
      vertex 55 10 8.66025
      vertex 55 0 8.66025
    endloop
  endfacet
  facet normal -0.406742 0 -0.913543
    outer loop
      vertex 55 10 8.66025
      vertex 53.0902 0 9.51056
      vertex 53.0902 10 9.51056
    endloop
  endfacet
  facet normal 0.95106 0 -0.309008
    outer loop
      vertex 40.8645 0 4.06737
      vertex 40.2185 10 2.07912
      vertex 40.8645 10 4.06737
    endloop
  endfacet
  facet normal 0.95106 0 -0.309008
    outer loop
      vertex 40.2185 10 2.07912
      vertex 40.8645 0 4.06737
      vertex 40.2185 0 2.07912
    endloop
  endfacet
  facet normal -0.994524 -0 -0.104508
    outer loop
      vertex 60 5 0
      vertex 60 0 0
      vertex 59.8739 5 1.2
    endloop
  endfacet
  facet normal -0.994522 0 -0.104529
    outer loop
      vertex 59.8739 5 1.2
      vertex 59.7815 10 2.07912
      vertex 59.8739 10 1.2
    endloop
  endfacet
  facet normal -0.994522 0 -0.104529
    outer loop
      vertex 59.8739 5 1.2
      vertex 59.7815 0 2.07912
      vertex 59.7815 10 2.07912
    endloop
  endfacet
  facet normal -0.994523 2.1973e-06 -0.104517
    outer loop
      vertex 59.7815 0 2.07912
      vertex 59.8739 5 1.2
      vertex 60 0 0
    endloop
  endfacet
  facet normal 0.207913 0 -0.978147
    outer loop
      vertex 46.9098 0 9.51056
      vertex 48.9547 10 9.94522
      vertex 48.9547 0 9.94522
    endloop
  endfacet
  facet normal 0.207913 0 -0.978147
    outer loop
      vertex 48.9547 10 9.94522
      vertex 46.9098 0 9.51056
      vertex 46.9098 10 9.51056
    endloop
  endfacet
  facet normal -0.95106 0 -0.309008
    outer loop
      vertex 59.7815 0 2.07912
      vertex 59.1355 10 4.06737
      vertex 59.7815 10 2.07912
    endloop
  endfacet
  facet normal -0.95106 -0 -0.309008
    outer loop
      vertex 59.1355 10 4.06737
      vertex 59.7815 0 2.07912
      vertex 59.1355 0 4.06737
    endloop
  endfacet
  facet normal 0.406742 0 -0.913543
    outer loop
      vertex 45 0 8.66025
      vertex 46.9098 10 9.51056
      vertex 46.9098 0 9.51056
    endloop
  endfacet
  facet normal 0.406742 0 -0.913543
    outer loop
      vertex 46.9098 10 9.51056
      vertex 45 0 8.66025
      vertex 45 10 8.66025
    endloop
  endfacet
  facet normal -0.866021 0 -0.500007
    outer loop
      vertex 59.1355 0 4.06737
      vertex 58.0902 10 5.87785
      vertex 59.1355 10 4.06737
    endloop
  endfacet
  facet normal -0.866021 -0 -0.500007
    outer loop
      vertex 58.0902 10 5.87785
      vertex 59.1355 0 4.06737
      vertex 58.0902 0 5.87785
    endloop
  endfacet
  facet normal 0.587785 0 -0.809017
    outer loop
      vertex 43.3087 0 7.43145
      vertex 45 10 8.66025
      vertex 45 0 8.66025
    endloop
  endfacet
  facet normal 0.587785 0 -0.809017
    outer loop
      vertex 45 10 8.66025
      vertex 43.3087 0 7.43145
      vertex 43.3087 10 7.43145
    endloop
  endfacet
  facet normal -0.587785 0 -0.809017
    outer loop
      vertex 55 0 8.66025
      vertex 56.6913 10 7.43145
      vertex 56.6913 0 7.43145
    endloop
  endfacet
  facet normal -0.587785 0 -0.809017
    outer loop
      vertex 56.6913 10 7.43145
      vertex 55 0 8.66025
      vertex 55 10 8.66025
    endloop
  endfacet
  facet normal -0.743137 0 -0.669139
    outer loop
      vertex 58.0902 0 5.87785
      vertex 56.6913 10 7.43145
      vertex 58.0902 10 5.87785
    endloop
  endfacet
  facet normal -0.743137 -0 -0.669139
    outer loop
      vertex 56.6913 10 7.43145
      vertex 58.0902 0 5.87785
      vertex 56.6913 0 7.43145
    endloop
  endfacet
  facet normal -0.207913 0 -0.978147
    outer loop
      vertex 51.0453 0 9.94522
      vertex 53.0902 10 9.51056
      vertex 53.0902 0 9.51056
    endloop
  endfacet
  facet normal -0.207913 0 -0.978147
    outer loop
      vertex 53.0902 10 9.51056
      vertex 51.0453 0 9.94522
      vertex 51.0453 10 9.94522
    endloop
  endfacet
  facet normal 0.743137 0 -0.669139
    outer loop
      vertex 43.3087 0 7.43145
      vertex 41.9098 10 5.87785
      vertex 43.3087 10 7.43145
    endloop
  endfacet
  facet normal 0.743137 0 -0.669139
    outer loop
      vertex 41.9098 10 5.87785
      vertex 43.3087 0 7.43145
      vertex 41.9098 0 5.87785
    endloop
  endfacet
  facet normal 0.866021 0 -0.500007
    outer loop
      vertex 41.9098 0 5.87785
      vertex 40.8645 10 4.06737
      vertex 41.9098 10 5.87785
    endloop
  endfacet
  facet normal 0.866021 0 -0.500007
    outer loop
      vertex 40.8645 10 4.06737
      vertex 41.9098 0 5.87785
      vertex 40.8645 0 4.06737
    endloop
  endfacet
  facet normal 0.994522 0 -0.104529
    outer loop
      vertex 40.2185 10 2.07912
      vertex 40.1261 5 1.2
      vertex 40.1261 10 1.2
    endloop
  endfacet
  facet normal 0.994522 0 -0.104529
    outer loop
      vertex 40.2185 0 2.07912
      vertex 40.1261 5 1.2
      vertex 40.2185 10 2.07912
    endloop
  endfacet
  facet normal 0.994523 2.1973e-06 -0.104517
    outer loop
      vertex 40 0 0
      vertex 40.1261 5 1.2
      vertex 40.2185 0 2.07912
    endloop
  endfacet
  facet normal 0.994524 0 -0.104508
    outer loop
      vertex 40.1261 5 1.2
      vertex 40 0 0
      vertex 40 5 0
    endloop
  endfacet
  facet normal 1 -0 0
    outer loop
      vertex 5.34 5 1.2
      vertex 5.34 56 0
      vertex 5.34 56 1.2
    endloop
  endfacet
  facet normal 1 0 0
    outer loop
      vertex 5.34 56 0
      vertex 5.34 5 1.2
      vertex 5.34 5 0
    endloop
  endfacet
  facet normal 0 0 -1
    outer loop
      vertex 40.1261 5 1.2
      vertex 25.1 10 1.2
      vertex 40.1261 10 1.2
    endloop
  endfacet
  facet normal 0 0 -1
    outer loop
      vertex 25.1 10 1.2
      vertex 10 35.1 1.2
      vertex 25.1 35.1 1.2
    endloop
  endfacet
  facet normal 0 0 -1
    outer loop
      vertex 5.34 5 1.2
      vertex 25.1 10 1.2
      vertex 40.1261 5 1.2
    endloop
  endfacet
  facet normal 0 0 -1
    outer loop
      vertex 5.34 5 1.2
      vertex 10 35.1 1.2
      vertex 25.1 10 1.2
    endloop
  endfacet
  facet normal 0 0 -1
    outer loop
      vertex 5.34 56 1.2
      vertex 10 35.1 1.2
      vertex 5.34 5 1.2
    endloop
  endfacet
  facet normal 0 0 -1
    outer loop
      vertex 10 35.1 1.2
      vertex 5.34 56 1.2
      vertex 10 56 1.2
    endloop
  endfacet
  facet normal 0 0 -1
    outer loop
      vertex 59.8739 5 1.2
      vertex 75.34 10 1.2
      vertex 75.34 5 1.2
    endloop
  endfacet
  facet normal -0 0 -1
    outer loop
      vertex 75.34 10 1.2
      vertex 59.8739 5 1.2
      vertex 59.8739 10 1.2
    endloop
  endfacet
  facet normal 0 -1 0
    outer loop
      vertex 5.34 56 0
      vertex 10 56 1.2
      vertex 5.34 56 1.2
    endloop
  endfacet
  facet normal 0 -1 -0
    outer loop
      vertex 10 56 1.2
      vertex 5.34 56 0
      vertex 10 56 0
    endloop
  endfacet
  facet normal -1 0 0
    outer loop
      vertex 75.34 5 0
      vertex 75.34 10 1.2
      vertex 75.34 10 0
    endloop
  endfacet
  facet normal -1 -0 0
    outer loop
      vertex 75.34 10 1.2
      vertex 75.34 5 0
      vertex 75.34 5 1.2
    endloop
  endfacet
  facet normal 0 1 0
    outer loop
      vertex 60 5 0
      vertex 75.34 5 1.2
      vertex 75.34 5 0
    endloop
  endfacet
  facet normal 0 1 0
    outer loop
      vertex 75.34 5 1.2
      vertex 60 5 0
      vertex 59.8739 5 1.2
    endloop
  endfacet
  facet normal 0 1 -0
    outer loop
      vertex 40 5 0
      vertex 5.34 5 1.2
      vertex 40.1261 5 1.2
    endloop
  endfacet
  facet normal 0 1 0
    outer loop
      vertex 5.34 5 1.2
      vertex 40 5 0
      vertex 5.34 5 0
    endloop
  endfacet
endsolid OpenSCAD_Model
