G04 EAGLE Gerber RS-274X export*
G75*
%MOMM*%
%FSLAX34Y34*%
%LPD*%
%INTop Copper*%
%IPPOS*%
%AMOC8*
5,1,8,0,0,1.08239X$1,22.5*%
G01*
%ADD10R,1.300000X1.500000*%
%ADD11R,7.500000X1.500000*%
%ADD12R,6.500000X1.000000*%
%ADD13R,1.200000X1.200000*%
%ADD14R,1.500000X1.300000*%
%ADD15C,0.609600*%
%ADD16R,2.209800X0.609600*%
%ADD17C,1.879600*%
%ADD18R,1.000000X1.000000*%
%ADD19C,0.304800*%
%ADD20C,0.756400*%
%ADD21C,0.406400*%
%ADD22C,0.906400*%

G36*
X457276Y10167D02*
X457276Y10167D01*
X457352Y10165D01*
X457521Y10187D01*
X457692Y10201D01*
X457766Y10219D01*
X457841Y10229D01*
X458005Y10278D01*
X458171Y10319D01*
X458240Y10349D01*
X458314Y10371D01*
X458467Y10447D01*
X458624Y10514D01*
X458688Y10555D01*
X458757Y10588D01*
X458896Y10687D01*
X459040Y10779D01*
X459097Y10830D01*
X459159Y10874D01*
X459280Y10994D01*
X459408Y11108D01*
X459456Y11167D01*
X459510Y11221D01*
X459611Y11359D01*
X459718Y11492D01*
X459755Y11558D01*
X459800Y11619D01*
X459877Y11772D01*
X459962Y11920D01*
X459988Y11992D01*
X460023Y12060D01*
X460074Y12223D01*
X460133Y12383D01*
X460148Y12458D01*
X460171Y12530D01*
X460183Y12635D01*
X460228Y12867D01*
X460235Y13103D01*
X460247Y13208D01*
X460247Y19304D01*
X460241Y19380D01*
X460243Y19455D01*
X460243Y19456D01*
X460221Y19625D01*
X460207Y19796D01*
X460189Y19870D01*
X460179Y19945D01*
X460130Y20109D01*
X460089Y20275D01*
X460059Y20344D01*
X460037Y20418D01*
X459961Y20571D01*
X459894Y20728D01*
X459853Y20792D01*
X459820Y20861D01*
X459721Y21000D01*
X459629Y21144D01*
X459578Y21201D01*
X459534Y21263D01*
X459414Y21384D01*
X459300Y21512D01*
X459241Y21560D01*
X459187Y21614D01*
X459049Y21715D01*
X458916Y21822D01*
X458850Y21859D01*
X458789Y21904D01*
X458636Y21981D01*
X458488Y22066D01*
X458416Y22092D01*
X458348Y22127D01*
X458185Y22178D01*
X458025Y22237D01*
X457950Y22252D01*
X457878Y22275D01*
X457773Y22287D01*
X457541Y22332D01*
X457305Y22339D01*
X457200Y22351D01*
X348644Y22351D01*
X347523Y22815D01*
X346665Y23673D01*
X346201Y24794D01*
X346201Y40278D01*
X346195Y40354D01*
X346197Y40430D01*
X346175Y40599D01*
X346161Y40770D01*
X346143Y40844D01*
X346133Y40919D01*
X346084Y41083D01*
X346043Y41249D01*
X346013Y41318D01*
X345991Y41392D01*
X345915Y41545D01*
X345848Y41702D01*
X345807Y41766D01*
X345774Y41835D01*
X345675Y41974D01*
X345583Y42118D01*
X345532Y42175D01*
X345488Y42237D01*
X345368Y42358D01*
X345254Y42486D01*
X345195Y42534D01*
X345141Y42588D01*
X345003Y42689D01*
X344870Y42796D01*
X344804Y42833D01*
X344743Y42878D01*
X344590Y42955D01*
X344442Y43040D01*
X344370Y43066D01*
X344302Y43101D01*
X344139Y43152D01*
X343979Y43211D01*
X343904Y43226D01*
X343832Y43249D01*
X343727Y43261D01*
X343495Y43306D01*
X343259Y43313D01*
X343154Y43325D01*
X332568Y43325D01*
X332355Y43539D01*
X332297Y43588D01*
X332245Y43644D01*
X332109Y43748D01*
X331979Y43858D01*
X331914Y43898D01*
X331853Y43944D01*
X331703Y44025D01*
X331556Y44113D01*
X331485Y44141D01*
X331418Y44177D01*
X331257Y44233D01*
X331098Y44296D01*
X331024Y44313D01*
X330952Y44337D01*
X330783Y44366D01*
X330617Y44403D01*
X330540Y44407D01*
X330465Y44420D01*
X330295Y44421D01*
X330124Y44431D01*
X330048Y44422D01*
X329972Y44423D01*
X329803Y44396D01*
X329633Y44378D01*
X329560Y44358D01*
X329485Y44346D01*
X329322Y44293D01*
X329158Y44248D01*
X329089Y44216D01*
X329016Y44192D01*
X328864Y44113D01*
X328709Y44042D01*
X328646Y43999D01*
X328578Y43964D01*
X328496Y43899D01*
X328300Y43767D01*
X328128Y43605D01*
X328045Y43539D01*
X327832Y43325D01*
X316568Y43325D01*
X315675Y44218D01*
X315675Y55482D01*
X316568Y56375D01*
X327832Y56375D01*
X328045Y56161D01*
X328103Y56112D01*
X328156Y56056D01*
X328291Y55952D01*
X328421Y55842D01*
X328487Y55802D01*
X328547Y55756D01*
X328697Y55675D01*
X328844Y55587D01*
X328915Y55559D01*
X328982Y55523D01*
X329143Y55467D01*
X329302Y55404D01*
X329376Y55387D01*
X329448Y55363D01*
X329617Y55334D01*
X329784Y55297D01*
X329860Y55293D01*
X329935Y55280D01*
X330106Y55279D01*
X330276Y55269D01*
X330352Y55278D01*
X330428Y55277D01*
X330597Y55304D01*
X330767Y55322D01*
X330840Y55342D01*
X330915Y55354D01*
X331078Y55407D01*
X331242Y55452D01*
X331312Y55484D01*
X331384Y55508D01*
X331535Y55587D01*
X331691Y55658D01*
X331754Y55701D01*
X331822Y55736D01*
X331904Y55801D01*
X332100Y55933D01*
X332273Y56095D01*
X332355Y56161D01*
X332568Y56375D01*
X343154Y56375D01*
X343230Y56381D01*
X343306Y56379D01*
X343475Y56401D01*
X343646Y56415D01*
X343720Y56433D01*
X343795Y56443D01*
X343959Y56492D01*
X344125Y56533D01*
X344194Y56563D01*
X344268Y56585D01*
X344421Y56661D01*
X344578Y56728D01*
X344642Y56769D01*
X344711Y56802D01*
X344850Y56901D01*
X344994Y56993D01*
X345051Y57044D01*
X345113Y57088D01*
X345234Y57208D01*
X345362Y57322D01*
X345410Y57381D01*
X345464Y57435D01*
X345565Y57573D01*
X345672Y57706D01*
X345709Y57772D01*
X345754Y57833D01*
X345831Y57986D01*
X345916Y58134D01*
X345942Y58206D01*
X345977Y58274D01*
X346028Y58437D01*
X346087Y58597D01*
X346102Y58672D01*
X346125Y58744D01*
X346137Y58849D01*
X346182Y59081D01*
X346189Y59317D01*
X346201Y59422D01*
X346201Y64106D01*
X346665Y65227D01*
X347523Y66085D01*
X348644Y66549D01*
X359548Y66549D01*
X359662Y66558D01*
X359776Y66557D01*
X359908Y66578D01*
X360040Y66589D01*
X360151Y66616D01*
X360264Y66634D01*
X360390Y66675D01*
X360519Y66707D01*
X360624Y66752D01*
X360732Y66788D01*
X360850Y66850D01*
X360972Y66902D01*
X361068Y66963D01*
X361170Y67016D01*
X361243Y67075D01*
X361388Y67167D01*
X361630Y67383D01*
X361703Y67441D01*
X361957Y67695D01*
X362006Y67753D01*
X362062Y67806D01*
X362166Y67941D01*
X362276Y68071D01*
X362316Y68137D01*
X362362Y68197D01*
X362443Y68347D01*
X362531Y68494D01*
X362559Y68565D01*
X362595Y68632D01*
X362651Y68793D01*
X362714Y68952D01*
X362731Y69026D01*
X362755Y69098D01*
X362784Y69267D01*
X362821Y69434D01*
X362825Y69510D01*
X362838Y69585D01*
X362839Y69756D01*
X362849Y69926D01*
X362840Y70002D01*
X362841Y70078D01*
X362814Y70247D01*
X362796Y70417D01*
X362776Y70490D01*
X362764Y70565D01*
X362711Y70728D01*
X362666Y70892D01*
X362634Y70962D01*
X362610Y71034D01*
X362531Y71185D01*
X362460Y71341D01*
X362417Y71404D01*
X362382Y71472D01*
X362317Y71554D01*
X362185Y71750D01*
X362023Y71922D01*
X361957Y72005D01*
X361441Y72520D01*
X361441Y79880D01*
X361957Y80395D01*
X362006Y80453D01*
X362062Y80506D01*
X362166Y80641D01*
X362276Y80771D01*
X362316Y80837D01*
X362362Y80897D01*
X362443Y81047D01*
X362531Y81194D01*
X362559Y81265D01*
X362595Y81332D01*
X362651Y81493D01*
X362714Y81652D01*
X362731Y81726D01*
X362755Y81799D01*
X362784Y81967D01*
X362821Y82134D01*
X362825Y82210D01*
X362838Y82285D01*
X362839Y82455D01*
X362849Y82626D01*
X362840Y82702D01*
X362841Y82778D01*
X362814Y82947D01*
X362796Y83117D01*
X362776Y83190D01*
X362764Y83266D01*
X362711Y83428D01*
X362666Y83592D01*
X362634Y83662D01*
X362610Y83734D01*
X362531Y83886D01*
X362460Y84041D01*
X362417Y84104D01*
X362382Y84172D01*
X362316Y84254D01*
X362185Y84450D01*
X362023Y84622D01*
X361957Y84705D01*
X361703Y84959D01*
X361616Y85033D01*
X361536Y85114D01*
X361428Y85192D01*
X361327Y85278D01*
X361229Y85337D01*
X361137Y85404D01*
X361018Y85464D01*
X360904Y85533D01*
X360798Y85575D01*
X360696Y85627D01*
X360570Y85667D01*
X360446Y85716D01*
X360335Y85741D01*
X360226Y85775D01*
X360132Y85785D01*
X359965Y85823D01*
X359641Y85841D01*
X359548Y85851D01*
X347620Y85851D01*
X347506Y85842D01*
X347392Y85843D01*
X347260Y85822D01*
X347128Y85811D01*
X347017Y85784D01*
X346904Y85766D01*
X346778Y85725D01*
X346649Y85693D01*
X346544Y85648D01*
X346436Y85612D01*
X346318Y85550D01*
X346196Y85498D01*
X346100Y85437D01*
X345998Y85384D01*
X345925Y85325D01*
X345780Y85233D01*
X345538Y85017D01*
X345465Y84959D01*
X343832Y83325D01*
X332132Y83325D01*
X332126Y83327D01*
X332029Y83366D01*
X331889Y83397D01*
X331752Y83437D01*
X331649Y83450D01*
X331547Y83473D01*
X331404Y83481D01*
X331263Y83498D01*
X331159Y83494D01*
X331054Y83500D01*
X330912Y83485D01*
X330770Y83480D01*
X330668Y83459D01*
X330564Y83448D01*
X330426Y83410D01*
X330286Y83382D01*
X330189Y83345D01*
X330088Y83318D01*
X329958Y83258D01*
X329825Y83208D01*
X329735Y83155D01*
X329640Y83112D01*
X329521Y83032D01*
X329398Y82961D01*
X329317Y82895D01*
X329230Y82837D01*
X329126Y82739D01*
X329016Y82649D01*
X328947Y82570D01*
X328871Y82499D01*
X328784Y82386D01*
X328690Y82279D01*
X328634Y82190D01*
X328570Y82107D01*
X328503Y81982D01*
X328427Y81861D01*
X328387Y81765D01*
X328337Y81673D01*
X328291Y81538D01*
X328236Y81406D01*
X328211Y81305D01*
X328177Y81206D01*
X328153Y81065D01*
X328120Y80927D01*
X328112Y80823D01*
X328095Y80720D01*
X328094Y80577D01*
X328083Y80435D01*
X328092Y80331D01*
X328091Y80226D01*
X328114Y80085D01*
X328126Y79943D01*
X328148Y79868D01*
X328168Y79739D01*
X328304Y79326D01*
X328315Y79288D01*
X329157Y77256D01*
X329157Y75144D01*
X328349Y73194D01*
X326856Y71701D01*
X324906Y70893D01*
X322794Y70893D01*
X320844Y71701D01*
X319351Y73194D01*
X318543Y75144D01*
X318543Y77256D01*
X319312Y79112D01*
X319367Y79284D01*
X319430Y79453D01*
X319443Y79518D01*
X319463Y79581D01*
X319490Y79760D01*
X319525Y79937D01*
X319527Y80003D01*
X319537Y80069D01*
X319535Y80250D01*
X319540Y80430D01*
X319532Y80496D01*
X319531Y80563D01*
X319499Y80740D01*
X319476Y80919D01*
X319457Y80983D01*
X319445Y81048D01*
X319386Y81218D01*
X319333Y81392D01*
X319304Y81451D01*
X319282Y81514D01*
X319196Y81673D01*
X319117Y81835D01*
X319078Y81889D01*
X319046Y81947D01*
X318935Y82090D01*
X318831Y82237D01*
X318784Y82284D01*
X318743Y82337D01*
X318611Y82460D01*
X318484Y82588D01*
X318431Y82627D01*
X318382Y82672D01*
X318231Y82772D01*
X318086Y82878D01*
X318026Y82908D01*
X317971Y82945D01*
X317806Y83019D01*
X317645Y83101D01*
X317582Y83121D01*
X317521Y83148D01*
X317347Y83195D01*
X317175Y83249D01*
X317122Y83255D01*
X317045Y83276D01*
X316571Y83323D01*
X315675Y84218D01*
X315675Y95482D01*
X316568Y96375D01*
X327832Y96375D01*
X328045Y96161D01*
X328103Y96112D01*
X328155Y96056D01*
X328291Y95952D01*
X328421Y95842D01*
X328486Y95802D01*
X328547Y95756D01*
X328697Y95675D01*
X328844Y95587D01*
X328915Y95559D01*
X328982Y95523D01*
X329143Y95467D01*
X329302Y95404D01*
X329376Y95387D01*
X329448Y95363D01*
X329617Y95334D01*
X329783Y95297D01*
X329860Y95293D01*
X329935Y95280D01*
X330105Y95279D01*
X330276Y95269D01*
X330352Y95278D01*
X330428Y95277D01*
X330597Y95304D01*
X330767Y95322D01*
X330840Y95342D01*
X330915Y95354D01*
X331078Y95407D01*
X331242Y95452D01*
X331311Y95484D01*
X331384Y95508D01*
X331536Y95587D01*
X331691Y95658D01*
X331754Y95701D01*
X331822Y95736D01*
X331904Y95801D01*
X332100Y95933D01*
X332272Y96095D01*
X332355Y96161D01*
X332612Y96419D01*
X332670Y96433D01*
X332745Y96443D01*
X332909Y96492D01*
X333075Y96533D01*
X333144Y96563D01*
X333218Y96585D01*
X333371Y96661D01*
X333528Y96728D01*
X333592Y96769D01*
X333661Y96802D01*
X333800Y96901D01*
X333944Y96993D01*
X334001Y97044D01*
X334063Y97088D01*
X334184Y97208D01*
X334312Y97322D01*
X334360Y97381D01*
X334414Y97435D01*
X334515Y97573D01*
X334622Y97706D01*
X334659Y97772D01*
X334704Y97833D01*
X334781Y97986D01*
X334866Y98134D01*
X334892Y98206D01*
X334927Y98274D01*
X334978Y98437D01*
X335037Y98597D01*
X335052Y98672D01*
X335075Y98744D01*
X335087Y98849D01*
X335132Y99081D01*
X335139Y99317D01*
X335151Y99422D01*
X335151Y101480D01*
X335142Y101594D01*
X335143Y101708D01*
X335122Y101840D01*
X335111Y101972D01*
X335084Y102083D01*
X335066Y102196D01*
X335025Y102322D01*
X334993Y102451D01*
X334948Y102556D01*
X334912Y102664D01*
X334850Y102782D01*
X334798Y102904D01*
X334737Y103000D01*
X334684Y103102D01*
X334625Y103175D01*
X334533Y103320D01*
X334344Y103532D01*
X334340Y103537D01*
X334329Y103548D01*
X334317Y103562D01*
X334259Y103635D01*
X333885Y104009D01*
X333798Y104083D01*
X333718Y104164D01*
X333610Y104242D01*
X333509Y104328D01*
X333411Y104387D01*
X333319Y104454D01*
X333200Y104514D01*
X333086Y104583D01*
X332980Y104625D01*
X332878Y104677D01*
X332752Y104717D01*
X332628Y104766D01*
X332517Y104791D01*
X332408Y104825D01*
X332314Y104835D01*
X332147Y104873D01*
X331822Y104891D01*
X331730Y104901D01*
X304696Y104901D01*
X304478Y104884D01*
X304260Y104870D01*
X304233Y104864D01*
X304204Y104861D01*
X303992Y104809D01*
X303779Y104760D01*
X303753Y104749D01*
X303725Y104743D01*
X303525Y104657D01*
X303322Y104574D01*
X303298Y104559D01*
X303272Y104548D01*
X303088Y104431D01*
X302902Y104317D01*
X302880Y104298D01*
X302856Y104283D01*
X302693Y104137D01*
X302528Y103995D01*
X302509Y103973D01*
X302488Y103954D01*
X302351Y103784D01*
X302211Y103617D01*
X302199Y103597D01*
X302178Y103570D01*
X301934Y103142D01*
X301906Y103066D01*
X301881Y103020D01*
X301360Y101763D01*
X298287Y98690D01*
X296779Y98065D01*
X296745Y98048D01*
X296709Y98035D01*
X296526Y97936D01*
X296340Y97840D01*
X296309Y97818D01*
X296275Y97799D01*
X296110Y97671D01*
X295943Y97547D01*
X295916Y97520D01*
X295886Y97497D01*
X295744Y97343D01*
X295598Y97194D01*
X295576Y97163D01*
X295550Y97135D01*
X295435Y96961D01*
X295315Y96790D01*
X295299Y96756D01*
X295278Y96724D01*
X295192Y96533D01*
X295101Y96346D01*
X295090Y96309D01*
X295075Y96274D01*
X295021Y96073D01*
X294962Y95872D01*
X294957Y95834D01*
X294947Y95798D01*
X294926Y95590D01*
X294900Y95383D01*
X294902Y95345D01*
X294898Y95307D01*
X294911Y95098D01*
X294919Y94890D01*
X294926Y94852D01*
X294929Y94814D01*
X294975Y94611D01*
X295017Y94406D01*
X295030Y94371D01*
X295039Y94333D01*
X295117Y94140D01*
X295191Y93945D01*
X295210Y93912D01*
X295225Y93877D01*
X295334Y93698D01*
X295438Y93518D01*
X295462Y93488D01*
X295482Y93456D01*
X295618Y93297D01*
X295750Y93136D01*
X295779Y93111D01*
X295804Y93082D01*
X295963Y92948D01*
X296120Y92809D01*
X296153Y92789D01*
X296182Y92765D01*
X296263Y92720D01*
X296538Y92547D01*
X296697Y92480D01*
X296779Y92435D01*
X298287Y91810D01*
X301360Y88737D01*
X303023Y84723D01*
X303023Y80377D01*
X301360Y76363D01*
X298287Y73290D01*
X296779Y72665D01*
X296745Y72648D01*
X296709Y72635D01*
X296525Y72535D01*
X296340Y72440D01*
X296309Y72418D01*
X296275Y72399D01*
X296111Y72271D01*
X295943Y72147D01*
X295916Y72120D01*
X295886Y72097D01*
X295744Y71943D01*
X295598Y71794D01*
X295576Y71763D01*
X295550Y71735D01*
X295435Y71561D01*
X295315Y71390D01*
X295299Y71356D01*
X295278Y71324D01*
X295192Y71133D01*
X295101Y70945D01*
X295091Y70909D01*
X295075Y70874D01*
X295021Y70672D01*
X294962Y70472D01*
X294957Y70434D01*
X294947Y70398D01*
X294926Y70190D01*
X294900Y69983D01*
X294902Y69945D01*
X294898Y69907D01*
X294911Y69698D01*
X294919Y69490D01*
X294926Y69452D01*
X294929Y69414D01*
X294975Y69211D01*
X295017Y69006D01*
X295030Y68971D01*
X295039Y68933D01*
X295117Y68740D01*
X295191Y68545D01*
X295210Y68512D01*
X295225Y68476D01*
X295333Y68299D01*
X295438Y68118D01*
X295462Y68088D01*
X295482Y68056D01*
X295618Y67897D01*
X295750Y67736D01*
X295779Y67710D01*
X295804Y67682D01*
X295964Y67547D01*
X296120Y67409D01*
X296152Y67389D01*
X296182Y67365D01*
X296263Y67320D01*
X296538Y67147D01*
X296696Y67080D01*
X296779Y67035D01*
X298287Y66410D01*
X301360Y63337D01*
X303023Y59323D01*
X303023Y54977D01*
X301360Y50963D01*
X298287Y47890D01*
X296779Y47265D01*
X296745Y47248D01*
X296709Y47235D01*
X296526Y47136D01*
X296340Y47040D01*
X296309Y47018D01*
X296276Y46999D01*
X296111Y46871D01*
X295943Y46747D01*
X295916Y46720D01*
X295886Y46697D01*
X295744Y46544D01*
X295598Y46394D01*
X295576Y46363D01*
X295550Y46335D01*
X295435Y46161D01*
X295315Y45990D01*
X295299Y45956D01*
X295278Y45924D01*
X295192Y45734D01*
X295101Y45546D01*
X295090Y45509D01*
X295075Y45474D01*
X295021Y45273D01*
X294962Y45072D01*
X294957Y45034D01*
X294947Y44998D01*
X294926Y44790D01*
X294900Y44583D01*
X294902Y44545D01*
X294898Y44507D01*
X294911Y44298D01*
X294919Y44090D01*
X294926Y44053D01*
X294929Y44014D01*
X294975Y43811D01*
X295017Y43606D01*
X295030Y43570D01*
X295039Y43533D01*
X295117Y43340D01*
X295191Y43145D01*
X295210Y43112D01*
X295225Y43077D01*
X295333Y42899D01*
X295438Y42718D01*
X295462Y42688D01*
X295482Y42656D01*
X295618Y42498D01*
X295750Y42336D01*
X295779Y42311D01*
X295804Y42282D01*
X295964Y42147D01*
X296120Y42009D01*
X296152Y41989D01*
X296182Y41965D01*
X296263Y41920D01*
X296538Y41747D01*
X296696Y41680D01*
X296779Y41635D01*
X298287Y41010D01*
X301360Y37937D01*
X303023Y33923D01*
X303023Y29577D01*
X301360Y25563D01*
X298287Y22490D01*
X294273Y20827D01*
X289927Y20827D01*
X285913Y22490D01*
X282840Y25563D01*
X281177Y29577D01*
X281177Y33923D01*
X282840Y37937D01*
X285913Y41010D01*
X287421Y41635D01*
X287455Y41652D01*
X287491Y41665D01*
X287675Y41765D01*
X287860Y41860D01*
X287891Y41882D01*
X287925Y41901D01*
X288089Y42029D01*
X288257Y42153D01*
X288284Y42180D01*
X288314Y42203D01*
X288456Y42357D01*
X288602Y42506D01*
X288624Y42537D01*
X288650Y42565D01*
X288765Y42739D01*
X288885Y42910D01*
X288901Y42944D01*
X288922Y42976D01*
X289008Y43167D01*
X289099Y43355D01*
X289109Y43391D01*
X289125Y43426D01*
X289179Y43628D01*
X289238Y43828D01*
X289243Y43866D01*
X289253Y43902D01*
X289274Y44110D01*
X289300Y44317D01*
X289298Y44355D01*
X289302Y44393D01*
X289289Y44602D01*
X289281Y44810D01*
X289274Y44848D01*
X289271Y44886D01*
X289225Y45089D01*
X289183Y45294D01*
X289170Y45329D01*
X289161Y45367D01*
X289083Y45560D01*
X289009Y45755D01*
X288990Y45788D01*
X288975Y45824D01*
X288867Y46001D01*
X288762Y46182D01*
X288738Y46212D01*
X288718Y46244D01*
X288582Y46403D01*
X288450Y46564D01*
X288421Y46590D01*
X288396Y46618D01*
X288236Y46753D01*
X288080Y46891D01*
X288048Y46911D01*
X288018Y46935D01*
X287937Y46980D01*
X287662Y47153D01*
X287504Y47220D01*
X287421Y47265D01*
X285913Y47890D01*
X282840Y50963D01*
X281177Y54977D01*
X281177Y59323D01*
X282840Y63337D01*
X285913Y66410D01*
X287421Y67035D01*
X287455Y67052D01*
X287491Y67065D01*
X287674Y67164D01*
X287860Y67260D01*
X287891Y67282D01*
X287924Y67301D01*
X288089Y67429D01*
X288257Y67553D01*
X288284Y67580D01*
X288314Y67603D01*
X288456Y67756D01*
X288602Y67906D01*
X288624Y67937D01*
X288650Y67965D01*
X288765Y68139D01*
X288885Y68310D01*
X288901Y68344D01*
X288922Y68376D01*
X289008Y68566D01*
X289099Y68754D01*
X289110Y68791D01*
X289125Y68826D01*
X289179Y69027D01*
X289238Y69228D01*
X289243Y69266D01*
X289253Y69302D01*
X289274Y69510D01*
X289300Y69717D01*
X289298Y69755D01*
X289302Y69793D01*
X289289Y70002D01*
X289281Y70210D01*
X289274Y70247D01*
X289271Y70286D01*
X289225Y70489D01*
X289183Y70694D01*
X289170Y70730D01*
X289161Y70767D01*
X289083Y70959D01*
X289009Y71155D01*
X288990Y71188D01*
X288975Y71223D01*
X288867Y71401D01*
X288762Y71582D01*
X288738Y71612D01*
X288718Y71644D01*
X288582Y71802D01*
X288450Y71964D01*
X288421Y71989D01*
X288396Y72018D01*
X288236Y72153D01*
X288080Y72291D01*
X288048Y72311D01*
X288018Y72335D01*
X287937Y72380D01*
X287662Y72553D01*
X287504Y72620D01*
X287421Y72665D01*
X285913Y73290D01*
X282840Y76363D01*
X281177Y80377D01*
X281177Y84723D01*
X282840Y88737D01*
X285913Y91810D01*
X287421Y92435D01*
X287455Y92452D01*
X287491Y92465D01*
X287675Y92565D01*
X287860Y92660D01*
X287891Y92682D01*
X287925Y92701D01*
X288089Y92829D01*
X288257Y92953D01*
X288284Y92980D01*
X288314Y93003D01*
X288456Y93157D01*
X288602Y93306D01*
X288624Y93337D01*
X288650Y93365D01*
X288765Y93539D01*
X288885Y93710D01*
X288901Y93744D01*
X288922Y93776D01*
X289008Y93966D01*
X289099Y94155D01*
X289110Y94191D01*
X289125Y94226D01*
X289179Y94428D01*
X289238Y94628D01*
X289243Y94665D01*
X289253Y94702D01*
X289274Y94911D01*
X289300Y95117D01*
X289298Y95155D01*
X289302Y95193D01*
X289289Y95402D01*
X289281Y95610D01*
X289274Y95648D01*
X289271Y95686D01*
X289225Y95889D01*
X289183Y96094D01*
X289170Y96129D01*
X289161Y96167D01*
X289083Y96360D01*
X289009Y96555D01*
X288990Y96588D01*
X288975Y96624D01*
X288866Y96802D01*
X288762Y96982D01*
X288738Y97012D01*
X288718Y97044D01*
X288582Y97203D01*
X288450Y97364D01*
X288421Y97390D01*
X288396Y97418D01*
X288236Y97553D01*
X288080Y97691D01*
X288047Y97711D01*
X288018Y97735D01*
X287937Y97780D01*
X287662Y97953D01*
X287504Y98020D01*
X287421Y98065D01*
X285913Y98690D01*
X282840Y101763D01*
X281177Y105777D01*
X281177Y110123D01*
X282840Y114137D01*
X285913Y117210D01*
X287421Y117835D01*
X287455Y117852D01*
X287491Y117865D01*
X287674Y117964D01*
X287860Y118060D01*
X287891Y118082D01*
X287924Y118101D01*
X288089Y118229D01*
X288257Y118353D01*
X288284Y118380D01*
X288314Y118403D01*
X288456Y118556D01*
X288602Y118706D01*
X288624Y118737D01*
X288650Y118765D01*
X288765Y118939D01*
X288885Y119110D01*
X288901Y119144D01*
X288922Y119176D01*
X289008Y119366D01*
X289099Y119554D01*
X289110Y119591D01*
X289125Y119626D01*
X289179Y119827D01*
X289238Y120028D01*
X289243Y120066D01*
X289253Y120102D01*
X289274Y120310D01*
X289300Y120517D01*
X289298Y120555D01*
X289302Y120593D01*
X289289Y120802D01*
X289281Y121010D01*
X289274Y121047D01*
X289271Y121086D01*
X289225Y121289D01*
X289183Y121494D01*
X289170Y121530D01*
X289161Y121567D01*
X289083Y121759D01*
X289009Y121955D01*
X288990Y121988D01*
X288975Y122023D01*
X288867Y122201D01*
X288762Y122382D01*
X288738Y122412D01*
X288718Y122444D01*
X288582Y122602D01*
X288450Y122764D01*
X288421Y122789D01*
X288396Y122818D01*
X288236Y122953D01*
X288080Y123091D01*
X288048Y123111D01*
X288018Y123135D01*
X287937Y123180D01*
X287662Y123353D01*
X287504Y123420D01*
X287421Y123465D01*
X285913Y124090D01*
X282840Y127163D01*
X281177Y131177D01*
X281177Y135523D01*
X282840Y139537D01*
X285913Y142610D01*
X286186Y142723D01*
X286333Y142798D01*
X286484Y142866D01*
X286552Y142911D01*
X286625Y142948D01*
X286758Y143046D01*
X286896Y143137D01*
X286956Y143193D01*
X287022Y143241D01*
X287137Y143359D01*
X287259Y143471D01*
X287309Y143536D01*
X287366Y143594D01*
X287461Y143730D01*
X287563Y143860D01*
X287603Y143931D01*
X287649Y143998D01*
X287721Y144148D01*
X287801Y144292D01*
X287828Y144369D01*
X287863Y144443D01*
X287910Y144601D01*
X287965Y144757D01*
X287980Y144838D01*
X288003Y144916D01*
X288024Y145080D01*
X288053Y145243D01*
X288054Y145324D01*
X288064Y145406D01*
X288058Y145571D01*
X288061Y145736D01*
X288049Y145817D01*
X288046Y145899D01*
X288013Y146061D01*
X287989Y146224D01*
X287964Y146302D01*
X287948Y146382D01*
X287890Y146536D01*
X287839Y146694D01*
X287802Y146767D01*
X287774Y146844D01*
X287691Y146987D01*
X287616Y147134D01*
X287568Y147200D01*
X287527Y147271D01*
X287422Y147398D01*
X287324Y147532D01*
X287266Y147589D01*
X287214Y147653D01*
X287091Y147762D01*
X286972Y147878D01*
X286919Y147913D01*
X286844Y147979D01*
X286427Y148241D01*
X286413Y148247D01*
X286403Y148253D01*
X285843Y148539D01*
X284322Y149644D01*
X282994Y150972D01*
X281889Y152493D01*
X281036Y154167D01*
X280537Y155703D01*
X292100Y155703D01*
X303663Y155703D01*
X303164Y154167D01*
X302311Y152493D01*
X301206Y150972D01*
X299878Y149644D01*
X298357Y148539D01*
X297797Y148253D01*
X297656Y148167D01*
X297511Y148088D01*
X297446Y148038D01*
X297377Y147995D01*
X297251Y147886D01*
X297121Y147785D01*
X297066Y147725D01*
X297004Y147672D01*
X296898Y147544D01*
X296786Y147423D01*
X296741Y147355D01*
X296688Y147292D01*
X296604Y147150D01*
X296513Y147012D01*
X296479Y146938D01*
X296438Y146867D01*
X296378Y146713D01*
X296310Y146562D01*
X296289Y146484D01*
X296259Y146407D01*
X296225Y146245D01*
X296182Y146086D01*
X296174Y146005D01*
X296157Y145925D01*
X296150Y145759D01*
X296133Y145595D01*
X296138Y145514D01*
X296135Y145432D01*
X296154Y145267D01*
X296164Y145103D01*
X296182Y145023D01*
X296192Y144942D01*
X296237Y144783D01*
X296274Y144622D01*
X296305Y144546D01*
X296327Y144468D01*
X296398Y144318D01*
X296460Y144165D01*
X296503Y144095D01*
X296537Y144021D01*
X296631Y143885D01*
X296717Y143744D01*
X296770Y143682D01*
X296817Y143615D01*
X296931Y143495D01*
X297039Y143370D01*
X297102Y143317D01*
X297158Y143259D01*
X297290Y143159D01*
X297417Y143053D01*
X297473Y143022D01*
X297553Y142962D01*
X297990Y142733D01*
X298004Y142728D01*
X298014Y142723D01*
X298287Y142610D01*
X301360Y139537D01*
X303023Y135523D01*
X303023Y131177D01*
X301360Y127163D01*
X298287Y124090D01*
X296779Y123465D01*
X296745Y123448D01*
X296709Y123435D01*
X296525Y123335D01*
X296340Y123240D01*
X296309Y123218D01*
X296275Y123199D01*
X296111Y123071D01*
X295943Y122947D01*
X295916Y122920D01*
X295886Y122897D01*
X295744Y122743D01*
X295598Y122594D01*
X295576Y122563D01*
X295550Y122535D01*
X295435Y122361D01*
X295315Y122190D01*
X295299Y122156D01*
X295278Y122124D01*
X295192Y121933D01*
X295101Y121745D01*
X295091Y121709D01*
X295075Y121674D01*
X295021Y121472D01*
X294962Y121272D01*
X294957Y121234D01*
X294947Y121198D01*
X294926Y120990D01*
X294900Y120783D01*
X294902Y120745D01*
X294898Y120707D01*
X294911Y120498D01*
X294919Y120290D01*
X294926Y120252D01*
X294929Y120214D01*
X294975Y120011D01*
X295017Y119806D01*
X295030Y119771D01*
X295039Y119733D01*
X295117Y119540D01*
X295191Y119345D01*
X295210Y119312D01*
X295225Y119276D01*
X295333Y119099D01*
X295438Y118918D01*
X295462Y118888D01*
X295482Y118856D01*
X295618Y118697D01*
X295750Y118536D01*
X295779Y118510D01*
X295804Y118482D01*
X295964Y118347D01*
X296120Y118209D01*
X296152Y118189D01*
X296182Y118165D01*
X296263Y118120D01*
X296538Y117947D01*
X296696Y117880D01*
X296779Y117835D01*
X298287Y117210D01*
X301360Y114137D01*
X301881Y112880D01*
X301980Y112686D01*
X302076Y112489D01*
X302093Y112466D01*
X302106Y112441D01*
X302235Y112265D01*
X302362Y112087D01*
X302382Y112067D01*
X302399Y112044D01*
X302555Y111891D01*
X302708Y111736D01*
X302731Y111719D01*
X302752Y111699D01*
X302931Y111574D01*
X303107Y111446D01*
X303133Y111433D01*
X303156Y111416D01*
X303353Y111321D01*
X303548Y111223D01*
X303575Y111215D01*
X303600Y111202D01*
X303810Y111141D01*
X304018Y111075D01*
X304042Y111072D01*
X304074Y111063D01*
X304563Y111002D01*
X304643Y111005D01*
X304696Y110999D01*
X330828Y110999D01*
X330904Y111005D01*
X330980Y111003D01*
X331149Y111025D01*
X331320Y111039D01*
X331394Y111057D01*
X331469Y111067D01*
X331633Y111116D01*
X331799Y111157D01*
X331868Y111187D01*
X331942Y111209D01*
X332095Y111285D01*
X332252Y111352D01*
X332316Y111393D01*
X332385Y111426D01*
X332524Y111525D01*
X332668Y111617D01*
X332725Y111668D01*
X332787Y111712D01*
X332908Y111832D01*
X333036Y111946D01*
X333084Y112005D01*
X333138Y112059D01*
X333239Y112197D01*
X333346Y112330D01*
X333383Y112396D01*
X333428Y112457D01*
X333505Y112610D01*
X333590Y112758D01*
X333616Y112830D01*
X333651Y112898D01*
X333702Y113061D01*
X333761Y113221D01*
X333776Y113296D01*
X333799Y113368D01*
X333811Y113473D01*
X333856Y113705D01*
X333863Y113941D01*
X333875Y114046D01*
X333875Y118460D01*
X333945Y118575D01*
X333973Y118646D01*
X334009Y118713D01*
X334064Y118875D01*
X334128Y119033D01*
X334144Y119108D01*
X334169Y119180D01*
X334198Y119348D01*
X334234Y119515D01*
X334239Y119591D01*
X334252Y119666D01*
X334253Y119837D01*
X334262Y120008D01*
X334254Y120084D01*
X334255Y120160D01*
X334228Y120328D01*
X334210Y120498D01*
X334190Y120572D01*
X334178Y120647D01*
X334124Y120810D01*
X334079Y120974D01*
X334048Y121043D01*
X334024Y121116D01*
X333945Y121267D01*
X333874Y121422D01*
X333831Y121486D01*
X333796Y121553D01*
X333730Y121635D01*
X333598Y121832D01*
X333436Y122004D01*
X333370Y122086D01*
X333367Y122090D01*
X333032Y122669D01*
X332859Y123315D01*
X332859Y126901D01*
X342698Y126901D01*
X342774Y126907D01*
X342850Y126905D01*
X342927Y126915D01*
X342997Y126913D01*
X343102Y126901D01*
X352941Y126901D01*
X352941Y123315D01*
X352768Y122669D01*
X352433Y122090D01*
X352430Y122086D01*
X352380Y122028D01*
X352325Y121976D01*
X352221Y121841D01*
X352110Y121711D01*
X352071Y121645D01*
X352024Y121585D01*
X351944Y121434D01*
X351855Y121288D01*
X351827Y121217D01*
X351791Y121150D01*
X351736Y120988D01*
X351672Y120830D01*
X351656Y120755D01*
X351631Y120683D01*
X351602Y120515D01*
X351566Y120348D01*
X351561Y120272D01*
X351548Y120197D01*
X351547Y120026D01*
X351538Y119856D01*
X351546Y119780D01*
X351545Y119703D01*
X351572Y119535D01*
X351590Y119365D01*
X351610Y119292D01*
X351622Y119216D01*
X351675Y119054D01*
X351721Y118889D01*
X351753Y118820D01*
X351776Y118748D01*
X351855Y118596D01*
X351925Y118445D01*
X351925Y104018D01*
X351032Y103125D01*
X344296Y103125D01*
X344220Y103119D01*
X344144Y103121D01*
X343975Y103099D01*
X343804Y103085D01*
X343730Y103067D01*
X343655Y103057D01*
X343491Y103008D01*
X343325Y102967D01*
X343256Y102937D01*
X343182Y102915D01*
X343029Y102839D01*
X342872Y102772D01*
X342808Y102731D01*
X342739Y102698D01*
X342600Y102599D01*
X342456Y102507D01*
X342399Y102456D01*
X342337Y102412D01*
X342216Y102292D01*
X342088Y102178D01*
X342040Y102119D01*
X341986Y102065D01*
X341885Y101927D01*
X341778Y101794D01*
X341741Y101728D01*
X341696Y101667D01*
X341619Y101514D01*
X341534Y101366D01*
X341508Y101294D01*
X341473Y101226D01*
X341422Y101063D01*
X341363Y100903D01*
X341348Y100828D01*
X341325Y100756D01*
X341313Y100651D01*
X341268Y100419D01*
X341261Y100183D01*
X341249Y100078D01*
X341249Y99422D01*
X341255Y99346D01*
X341253Y99270D01*
X341275Y99101D01*
X341289Y98930D01*
X341307Y98856D01*
X341317Y98781D01*
X341366Y98617D01*
X341407Y98451D01*
X341437Y98382D01*
X341459Y98308D01*
X341535Y98155D01*
X341602Y97998D01*
X341643Y97934D01*
X341676Y97865D01*
X341775Y97726D01*
X341867Y97582D01*
X341918Y97525D01*
X341962Y97463D01*
X342082Y97342D01*
X342196Y97214D01*
X342255Y97166D01*
X342309Y97112D01*
X342447Y97011D01*
X342580Y96904D01*
X342646Y96867D01*
X342707Y96822D01*
X342860Y96745D01*
X343008Y96660D01*
X343080Y96634D01*
X343148Y96599D01*
X343311Y96548D01*
X343471Y96489D01*
X343546Y96474D01*
X343618Y96451D01*
X343723Y96439D01*
X343778Y96429D01*
X344725Y95482D01*
X344725Y94996D01*
X344731Y94920D01*
X344729Y94844D01*
X344751Y94675D01*
X344765Y94504D01*
X344783Y94430D01*
X344793Y94355D01*
X344842Y94191D01*
X344883Y94025D01*
X344913Y93956D01*
X344935Y93882D01*
X345011Y93729D01*
X345078Y93572D01*
X345119Y93508D01*
X345152Y93439D01*
X345251Y93300D01*
X345343Y93156D01*
X345394Y93099D01*
X345438Y93037D01*
X345558Y92916D01*
X345672Y92788D01*
X345731Y92740D01*
X345785Y92686D01*
X345923Y92585D01*
X346056Y92478D01*
X346122Y92441D01*
X346183Y92396D01*
X346336Y92319D01*
X346484Y92234D01*
X346556Y92208D01*
X346624Y92173D01*
X346787Y92122D01*
X346947Y92063D01*
X347022Y92048D01*
X347094Y92025D01*
X347199Y92013D01*
X347431Y91968D01*
X347667Y91961D01*
X347772Y91949D01*
X359548Y91949D01*
X359662Y91958D01*
X359776Y91957D01*
X359908Y91978D01*
X360040Y91989D01*
X360151Y92016D01*
X360264Y92034D01*
X360390Y92075D01*
X360519Y92107D01*
X360624Y92152D01*
X360732Y92188D01*
X360850Y92250D01*
X360972Y92302D01*
X361068Y92363D01*
X361170Y92416D01*
X361243Y92475D01*
X361388Y92567D01*
X361630Y92783D01*
X361703Y92841D01*
X361957Y93095D01*
X362006Y93153D01*
X362062Y93206D01*
X362166Y93341D01*
X362276Y93471D01*
X362316Y93537D01*
X362362Y93597D01*
X362443Y93747D01*
X362531Y93894D01*
X362559Y93965D01*
X362595Y94032D01*
X362651Y94193D01*
X362714Y94352D01*
X362731Y94426D01*
X362755Y94498D01*
X362784Y94667D01*
X362821Y94834D01*
X362825Y94910D01*
X362838Y94985D01*
X362839Y95156D01*
X362849Y95326D01*
X362840Y95402D01*
X362841Y95478D01*
X362814Y95647D01*
X362796Y95817D01*
X362776Y95890D01*
X362764Y95965D01*
X362711Y96128D01*
X362666Y96292D01*
X362634Y96362D01*
X362610Y96434D01*
X362531Y96585D01*
X362460Y96741D01*
X362417Y96804D01*
X362382Y96872D01*
X362317Y96954D01*
X362185Y97150D01*
X362023Y97322D01*
X361957Y97405D01*
X361441Y97920D01*
X361441Y105280D01*
X361957Y105795D01*
X362006Y105853D01*
X362062Y105906D01*
X362166Y106041D01*
X362276Y106171D01*
X362316Y106237D01*
X362362Y106297D01*
X362443Y106447D01*
X362531Y106594D01*
X362559Y106665D01*
X362595Y106732D01*
X362651Y106893D01*
X362714Y107052D01*
X362731Y107126D01*
X362755Y107198D01*
X362784Y107367D01*
X362821Y107534D01*
X362825Y107610D01*
X362838Y107685D01*
X362839Y107856D01*
X362849Y108026D01*
X362840Y108102D01*
X362841Y108178D01*
X362814Y108347D01*
X362796Y108517D01*
X362776Y108590D01*
X362764Y108665D01*
X362711Y108828D01*
X362666Y108992D01*
X362634Y109062D01*
X362610Y109134D01*
X362531Y109285D01*
X362460Y109441D01*
X362417Y109504D01*
X362382Y109572D01*
X362317Y109654D01*
X362185Y109850D01*
X362023Y110022D01*
X361957Y110105D01*
X361441Y110620D01*
X361441Y117980D01*
X362131Y118670D01*
X362181Y118728D01*
X362236Y118780D01*
X362340Y118915D01*
X362451Y119046D01*
X362490Y119111D01*
X362537Y119171D01*
X362617Y119322D01*
X362705Y119468D01*
X362734Y119539D01*
X362770Y119606D01*
X362825Y119768D01*
X362888Y119926D01*
X362905Y120001D01*
X362930Y120073D01*
X362958Y120241D01*
X362995Y120408D01*
X363000Y120484D01*
X363012Y120559D01*
X363013Y120730D01*
X363023Y120900D01*
X363015Y120976D01*
X363015Y121052D01*
X362989Y121221D01*
X362971Y121391D01*
X362950Y121465D01*
X362939Y121540D01*
X362885Y121702D01*
X362840Y121867D01*
X362808Y121936D01*
X362784Y122008D01*
X362705Y122160D01*
X362634Y122315D01*
X362592Y122378D01*
X362557Y122446D01*
X362491Y122528D01*
X362359Y122724D01*
X362197Y122897D01*
X362131Y122979D01*
X361673Y123437D01*
X361329Y123953D01*
X374015Y123953D01*
X386701Y123953D01*
X386357Y123437D01*
X385899Y122979D01*
X385849Y122921D01*
X385794Y122869D01*
X385690Y122734D01*
X385579Y122603D01*
X385540Y122538D01*
X385494Y122477D01*
X385413Y122327D01*
X385325Y122181D01*
X385296Y122110D01*
X385260Y122043D01*
X385205Y121881D01*
X385142Y121723D01*
X385125Y121648D01*
X385100Y121576D01*
X385072Y121408D01*
X385035Y121241D01*
X385030Y121165D01*
X385018Y121090D01*
X385017Y120919D01*
X385007Y120748D01*
X385015Y120673D01*
X385015Y120596D01*
X385041Y120428D01*
X385059Y120258D01*
X385079Y120184D01*
X385091Y120109D01*
X385145Y119947D01*
X385190Y119782D01*
X385222Y119713D01*
X385246Y119640D01*
X385324Y119489D01*
X385396Y119334D01*
X385438Y119270D01*
X385473Y119203D01*
X385539Y119120D01*
X385671Y118924D01*
X385833Y118752D01*
X385899Y118670D01*
X386589Y117980D01*
X386589Y110620D01*
X386073Y110105D01*
X386024Y110047D01*
X385968Y109995D01*
X385864Y109859D01*
X385754Y109729D01*
X385714Y109664D01*
X385668Y109603D01*
X385587Y109453D01*
X385499Y109306D01*
X385471Y109236D01*
X385435Y109168D01*
X385379Y109007D01*
X385316Y108848D01*
X385299Y108774D01*
X385275Y108702D01*
X385246Y108533D01*
X385209Y108367D01*
X385205Y108290D01*
X385192Y108215D01*
X385191Y108045D01*
X385181Y107874D01*
X385190Y107798D01*
X385189Y107722D01*
X385216Y107553D01*
X385234Y107383D01*
X385254Y107310D01*
X385266Y107235D01*
X385319Y107072D01*
X385364Y106908D01*
X385396Y106839D01*
X385420Y106766D01*
X385499Y106614D01*
X385570Y106459D01*
X385613Y106396D01*
X385648Y106328D01*
X385713Y106246D01*
X385845Y106050D01*
X386007Y105878D01*
X386073Y105795D01*
X386589Y105280D01*
X386589Y97920D01*
X386073Y97405D01*
X386024Y97347D01*
X385968Y97295D01*
X385864Y97159D01*
X385754Y97029D01*
X385714Y96964D01*
X385668Y96903D01*
X385587Y96753D01*
X385499Y96606D01*
X385471Y96536D01*
X385435Y96468D01*
X385379Y96307D01*
X385316Y96148D01*
X385299Y96074D01*
X385275Y96002D01*
X385246Y95833D01*
X385209Y95667D01*
X385205Y95590D01*
X385192Y95515D01*
X385191Y95345D01*
X385181Y95174D01*
X385190Y95098D01*
X385189Y95022D01*
X385216Y94853D01*
X385234Y94683D01*
X385254Y94610D01*
X385266Y94535D01*
X385319Y94372D01*
X385364Y94208D01*
X385396Y94139D01*
X385420Y94066D01*
X385499Y93914D01*
X385570Y93759D01*
X385613Y93696D01*
X385648Y93628D01*
X385713Y93546D01*
X385845Y93350D01*
X386007Y93178D01*
X386073Y93095D01*
X386589Y92580D01*
X386589Y85220D01*
X386073Y84705D01*
X386024Y84647D01*
X385968Y84595D01*
X385864Y84459D01*
X385754Y84329D01*
X385714Y84264D01*
X385668Y84203D01*
X385587Y84053D01*
X385499Y83906D01*
X385471Y83836D01*
X385435Y83768D01*
X385379Y83607D01*
X385316Y83448D01*
X385299Y83374D01*
X385275Y83302D01*
X385246Y83133D01*
X385209Y82967D01*
X385205Y82890D01*
X385192Y82815D01*
X385191Y82645D01*
X385181Y82474D01*
X385190Y82398D01*
X385189Y82322D01*
X385216Y82153D01*
X385234Y81983D01*
X385254Y81910D01*
X385266Y81835D01*
X385319Y81672D01*
X385364Y81508D01*
X385396Y81439D01*
X385420Y81366D01*
X385499Y81214D01*
X385570Y81059D01*
X385613Y80996D01*
X385648Y80928D01*
X385713Y80846D01*
X385845Y80650D01*
X386007Y80478D01*
X386073Y80395D01*
X386589Y79880D01*
X386589Y72520D01*
X386073Y72005D01*
X386024Y71947D01*
X385968Y71895D01*
X385864Y71759D01*
X385754Y71629D01*
X385714Y71564D01*
X385668Y71503D01*
X385587Y71353D01*
X385499Y71206D01*
X385471Y71136D01*
X385435Y71068D01*
X385379Y70907D01*
X385316Y70748D01*
X385299Y70674D01*
X385275Y70602D01*
X385246Y70433D01*
X385209Y70267D01*
X385205Y70190D01*
X385192Y70115D01*
X385191Y69945D01*
X385181Y69774D01*
X385190Y69698D01*
X385189Y69622D01*
X385216Y69453D01*
X385234Y69283D01*
X385254Y69210D01*
X385266Y69135D01*
X385319Y68972D01*
X385364Y68808D01*
X385396Y68739D01*
X385420Y68666D01*
X385499Y68514D01*
X385570Y68359D01*
X385613Y68296D01*
X385648Y68228D01*
X385713Y68146D01*
X385845Y67950D01*
X386007Y67778D01*
X386073Y67695D01*
X386589Y67180D01*
X386589Y59820D01*
X386073Y59305D01*
X386024Y59247D01*
X385968Y59195D01*
X385864Y59059D01*
X385754Y58929D01*
X385714Y58864D01*
X385668Y58803D01*
X385587Y58653D01*
X385499Y58506D01*
X385471Y58436D01*
X385435Y58368D01*
X385379Y58207D01*
X385316Y58048D01*
X385299Y57974D01*
X385275Y57902D01*
X385246Y57733D01*
X385209Y57567D01*
X385205Y57490D01*
X385192Y57415D01*
X385191Y57245D01*
X385181Y57074D01*
X385190Y56998D01*
X385189Y56922D01*
X385216Y56753D01*
X385234Y56583D01*
X385254Y56510D01*
X385266Y56435D01*
X385319Y56272D01*
X385364Y56108D01*
X385396Y56039D01*
X385420Y55966D01*
X385499Y55814D01*
X385570Y55659D01*
X385613Y55596D01*
X385648Y55528D01*
X385713Y55446D01*
X385845Y55250D01*
X386007Y55078D01*
X386073Y54995D01*
X386589Y54480D01*
X386589Y47120D01*
X385819Y46351D01*
X385794Y46322D01*
X385766Y46296D01*
X385635Y46134D01*
X385500Y45975D01*
X385480Y45942D01*
X385456Y45912D01*
X385353Y45731D01*
X385245Y45552D01*
X385231Y45517D01*
X385212Y45484D01*
X385139Y45288D01*
X385062Y45094D01*
X385054Y45057D01*
X385040Y45021D01*
X385000Y44817D01*
X384955Y44613D01*
X384953Y44574D01*
X384946Y44537D01*
X384939Y44329D01*
X384927Y44120D01*
X384931Y44082D01*
X384930Y44044D01*
X384958Y43837D01*
X384980Y43629D01*
X384990Y43593D01*
X384995Y43555D01*
X385055Y43354D01*
X385110Y43154D01*
X385126Y43119D01*
X385137Y43082D01*
X385229Y42895D01*
X385316Y42705D01*
X385337Y42674D01*
X385354Y42639D01*
X385475Y42469D01*
X385591Y42296D01*
X385618Y42268D01*
X385640Y42237D01*
X385786Y42089D01*
X385929Y41936D01*
X385959Y41913D01*
X385986Y41886D01*
X386155Y41763D01*
X386321Y41636D01*
X386354Y41618D01*
X386385Y41596D01*
X386571Y41502D01*
X386755Y41403D01*
X386791Y41391D01*
X386825Y41373D01*
X387025Y41310D01*
X387222Y41243D01*
X387259Y41237D01*
X387296Y41225D01*
X387389Y41215D01*
X387708Y41160D01*
X387880Y41159D01*
X387974Y41149D01*
X412126Y41149D01*
X412164Y41152D01*
X412202Y41150D01*
X412410Y41172D01*
X412618Y41189D01*
X412655Y41198D01*
X412693Y41202D01*
X412894Y41257D01*
X413097Y41307D01*
X413132Y41322D01*
X413169Y41333D01*
X413359Y41420D01*
X413550Y41502D01*
X413582Y41522D01*
X413617Y41538D01*
X413791Y41655D01*
X413966Y41767D01*
X413995Y41792D01*
X414026Y41814D01*
X414178Y41957D01*
X414334Y42096D01*
X414358Y42125D01*
X414386Y42152D01*
X414513Y42317D01*
X414644Y42480D01*
X414663Y42513D01*
X414686Y42543D01*
X414785Y42727D01*
X414888Y42908D01*
X414901Y42944D01*
X414919Y42978D01*
X414987Y43175D01*
X415060Y43371D01*
X415067Y43408D01*
X415079Y43444D01*
X415114Y43651D01*
X415154Y43855D01*
X415156Y43893D01*
X415162Y43931D01*
X415163Y44140D01*
X415170Y44348D01*
X415165Y44386D01*
X415165Y44424D01*
X415132Y44631D01*
X415105Y44837D01*
X415094Y44874D01*
X415088Y44911D01*
X415023Y45110D01*
X414963Y45309D01*
X414946Y45344D01*
X414934Y45380D01*
X414838Y45565D01*
X414746Y45753D01*
X414724Y45784D01*
X414706Y45818D01*
X414648Y45890D01*
X414460Y46155D01*
X414340Y46277D01*
X414281Y46351D01*
X413511Y47120D01*
X413511Y54480D01*
X414027Y54995D01*
X414076Y55053D01*
X414132Y55106D01*
X414236Y55241D01*
X414346Y55371D01*
X414386Y55437D01*
X414432Y55497D01*
X414513Y55647D01*
X414601Y55794D01*
X414629Y55865D01*
X414665Y55932D01*
X414721Y56093D01*
X414784Y56252D01*
X414801Y56326D01*
X414825Y56398D01*
X414854Y56567D01*
X414891Y56734D01*
X414895Y56810D01*
X414908Y56885D01*
X414909Y57056D01*
X414919Y57226D01*
X414910Y57302D01*
X414911Y57378D01*
X414884Y57547D01*
X414866Y57717D01*
X414846Y57790D01*
X414834Y57865D01*
X414781Y58028D01*
X414736Y58192D01*
X414704Y58262D01*
X414680Y58334D01*
X414601Y58485D01*
X414530Y58641D01*
X414487Y58704D01*
X414452Y58772D01*
X414387Y58854D01*
X414255Y59050D01*
X414093Y59222D01*
X414027Y59305D01*
X413511Y59820D01*
X413511Y67180D01*
X414027Y67695D01*
X414076Y67753D01*
X414132Y67806D01*
X414236Y67941D01*
X414346Y68071D01*
X414386Y68137D01*
X414432Y68197D01*
X414513Y68347D01*
X414601Y68494D01*
X414629Y68565D01*
X414665Y68632D01*
X414721Y68793D01*
X414784Y68952D01*
X414801Y69026D01*
X414825Y69098D01*
X414854Y69267D01*
X414891Y69434D01*
X414895Y69510D01*
X414908Y69585D01*
X414909Y69756D01*
X414919Y69926D01*
X414910Y70002D01*
X414911Y70078D01*
X414884Y70247D01*
X414866Y70417D01*
X414846Y70490D01*
X414834Y70565D01*
X414781Y70728D01*
X414736Y70892D01*
X414704Y70962D01*
X414680Y71034D01*
X414601Y71185D01*
X414530Y71341D01*
X414487Y71404D01*
X414452Y71472D01*
X414387Y71554D01*
X414255Y71750D01*
X414093Y71922D01*
X414027Y72005D01*
X413511Y72520D01*
X413511Y79880D01*
X414027Y80395D01*
X414076Y80453D01*
X414132Y80506D01*
X414236Y80641D01*
X414346Y80771D01*
X414386Y80837D01*
X414432Y80897D01*
X414513Y81047D01*
X414601Y81194D01*
X414629Y81265D01*
X414665Y81332D01*
X414721Y81493D01*
X414784Y81652D01*
X414801Y81726D01*
X414825Y81798D01*
X414854Y81967D01*
X414891Y82134D01*
X414895Y82210D01*
X414908Y82285D01*
X414909Y82456D01*
X414919Y82626D01*
X414910Y82702D01*
X414911Y82778D01*
X414884Y82947D01*
X414866Y83117D01*
X414846Y83190D01*
X414834Y83265D01*
X414781Y83428D01*
X414736Y83592D01*
X414704Y83662D01*
X414680Y83734D01*
X414601Y83885D01*
X414530Y84041D01*
X414487Y84104D01*
X414452Y84172D01*
X414387Y84254D01*
X414255Y84450D01*
X414093Y84622D01*
X414027Y84705D01*
X413511Y85220D01*
X413511Y92580D01*
X414027Y93095D01*
X414076Y93153D01*
X414132Y93206D01*
X414236Y93341D01*
X414346Y93471D01*
X414386Y93537D01*
X414432Y93597D01*
X414513Y93747D01*
X414601Y93894D01*
X414629Y93965D01*
X414665Y94032D01*
X414721Y94193D01*
X414784Y94352D01*
X414801Y94426D01*
X414825Y94498D01*
X414854Y94667D01*
X414891Y94834D01*
X414895Y94910D01*
X414908Y94985D01*
X414909Y95156D01*
X414919Y95326D01*
X414910Y95402D01*
X414911Y95478D01*
X414884Y95647D01*
X414866Y95817D01*
X414846Y95890D01*
X414834Y95965D01*
X414781Y96128D01*
X414736Y96292D01*
X414704Y96362D01*
X414680Y96434D01*
X414601Y96585D01*
X414530Y96741D01*
X414487Y96804D01*
X414452Y96872D01*
X414387Y96954D01*
X414255Y97150D01*
X414093Y97322D01*
X414027Y97405D01*
X413511Y97920D01*
X413511Y105280D01*
X414027Y105795D01*
X414076Y105853D01*
X414132Y105906D01*
X414236Y106041D01*
X414346Y106171D01*
X414386Y106237D01*
X414432Y106297D01*
X414513Y106447D01*
X414601Y106594D01*
X414629Y106665D01*
X414665Y106732D01*
X414721Y106893D01*
X414784Y107052D01*
X414801Y107126D01*
X414825Y107198D01*
X414854Y107367D01*
X414891Y107534D01*
X414895Y107610D01*
X414908Y107685D01*
X414909Y107856D01*
X414919Y108026D01*
X414910Y108102D01*
X414911Y108178D01*
X414884Y108347D01*
X414866Y108517D01*
X414846Y108590D01*
X414834Y108665D01*
X414781Y108828D01*
X414736Y108992D01*
X414704Y109062D01*
X414680Y109134D01*
X414601Y109285D01*
X414530Y109441D01*
X414487Y109504D01*
X414452Y109572D01*
X414387Y109654D01*
X414255Y109850D01*
X414093Y110022D01*
X414027Y110105D01*
X413511Y110620D01*
X413511Y117980D01*
X414027Y118495D01*
X414076Y118553D01*
X414132Y118606D01*
X414236Y118741D01*
X414346Y118871D01*
X414386Y118937D01*
X414432Y118997D01*
X414513Y119147D01*
X414601Y119294D01*
X414629Y119365D01*
X414665Y119432D01*
X414721Y119593D01*
X414784Y119752D01*
X414801Y119826D01*
X414825Y119898D01*
X414854Y120067D01*
X414891Y120234D01*
X414895Y120310D01*
X414908Y120385D01*
X414909Y120556D01*
X414919Y120726D01*
X414910Y120802D01*
X414911Y120878D01*
X414884Y121047D01*
X414866Y121217D01*
X414846Y121290D01*
X414834Y121365D01*
X414781Y121528D01*
X414736Y121692D01*
X414704Y121762D01*
X414680Y121834D01*
X414601Y121985D01*
X414530Y122141D01*
X414487Y122204D01*
X414452Y122272D01*
X414387Y122354D01*
X414255Y122550D01*
X414093Y122722D01*
X414027Y122805D01*
X413511Y123320D01*
X413511Y130680D01*
X414404Y131573D01*
X419481Y131573D01*
X419557Y131579D01*
X419633Y131577D01*
X419802Y131599D01*
X419973Y131613D01*
X420047Y131631D01*
X420122Y131641D01*
X420286Y131690D01*
X420452Y131731D01*
X420521Y131761D01*
X420595Y131783D01*
X420748Y131859D01*
X420905Y131926D01*
X420969Y131967D01*
X421038Y132000D01*
X421177Y132099D01*
X421321Y132191D01*
X421378Y132242D01*
X421440Y132286D01*
X421561Y132406D01*
X421689Y132520D01*
X421737Y132579D01*
X421791Y132633D01*
X421892Y132771D01*
X421999Y132904D01*
X422036Y132970D01*
X422081Y133031D01*
X422158Y133184D01*
X422243Y133332D01*
X422269Y133404D01*
X422304Y133472D01*
X422355Y133635D01*
X422414Y133795D01*
X422429Y133870D01*
X422452Y133942D01*
X422464Y134047D01*
X422509Y134279D01*
X422516Y134515D01*
X422528Y134620D01*
X422528Y141865D01*
X422525Y141903D01*
X422527Y141941D01*
X422505Y142149D01*
X422488Y142357D01*
X422479Y142394D01*
X422475Y142432D01*
X422420Y142633D01*
X422370Y142836D01*
X422355Y142871D01*
X422344Y142908D01*
X422258Y143097D01*
X422175Y143289D01*
X422155Y143321D01*
X422139Y143356D01*
X422022Y143530D01*
X421910Y143705D01*
X421885Y143734D01*
X421863Y143765D01*
X421720Y143917D01*
X421581Y144073D01*
X421552Y144097D01*
X421525Y144125D01*
X421360Y144252D01*
X421197Y144383D01*
X421164Y144402D01*
X421134Y144425D01*
X420950Y144524D01*
X420769Y144627D01*
X420733Y144640D01*
X420699Y144658D01*
X420502Y144726D01*
X420306Y144799D01*
X420269Y144806D01*
X420233Y144818D01*
X420026Y144853D01*
X419822Y144893D01*
X419784Y144895D01*
X419746Y144901D01*
X419537Y144902D01*
X419329Y144909D01*
X419291Y144904D01*
X419253Y144904D01*
X419046Y144871D01*
X418840Y144844D01*
X418803Y144833D01*
X418766Y144827D01*
X418568Y144762D01*
X418368Y144702D01*
X418333Y144685D01*
X418297Y144673D01*
X418112Y144577D01*
X417924Y144485D01*
X417893Y144463D01*
X417859Y144445D01*
X417787Y144387D01*
X417522Y144199D01*
X417400Y144079D01*
X417326Y144020D01*
X416682Y143375D01*
X402240Y143375D01*
X402125Y143445D01*
X402054Y143473D01*
X401987Y143509D01*
X401825Y143564D01*
X401667Y143628D01*
X401592Y143644D01*
X401520Y143669D01*
X401352Y143698D01*
X401185Y143734D01*
X401109Y143739D01*
X401034Y143752D01*
X400863Y143753D01*
X400692Y143762D01*
X400616Y143754D01*
X400540Y143755D01*
X400372Y143728D01*
X400202Y143710D01*
X400128Y143690D01*
X400053Y143678D01*
X399890Y143624D01*
X399726Y143579D01*
X399657Y143548D01*
X399584Y143524D01*
X399433Y143445D01*
X399278Y143374D01*
X399214Y143331D01*
X399147Y143296D01*
X399065Y143230D01*
X398868Y143098D01*
X398696Y142936D01*
X398614Y142870D01*
X398610Y142867D01*
X398031Y142532D01*
X397385Y142359D01*
X393799Y142359D01*
X393799Y152198D01*
X393793Y152274D01*
X393795Y152350D01*
X393785Y152427D01*
X393787Y152497D01*
X393799Y152602D01*
X393799Y162441D01*
X397385Y162441D01*
X398031Y162268D01*
X398610Y161933D01*
X398614Y161930D01*
X398672Y161880D01*
X398724Y161825D01*
X398859Y161721D01*
X398989Y161610D01*
X399055Y161571D01*
X399115Y161524D01*
X399266Y161444D01*
X399412Y161355D01*
X399483Y161327D01*
X399550Y161291D01*
X399712Y161236D01*
X399870Y161172D01*
X399945Y161156D01*
X400017Y161131D01*
X400185Y161102D01*
X400352Y161066D01*
X400428Y161061D01*
X400503Y161048D01*
X400674Y161047D01*
X400844Y161038D01*
X400920Y161046D01*
X400997Y161045D01*
X401165Y161072D01*
X401335Y161090D01*
X401408Y161110D01*
X401484Y161122D01*
X401646Y161175D01*
X401811Y161221D01*
X401880Y161253D01*
X401952Y161276D01*
X402104Y161355D01*
X402255Y161425D01*
X416682Y161425D01*
X417575Y160532D01*
X417575Y160254D01*
X417589Y160074D01*
X417596Y159894D01*
X417609Y159829D01*
X417615Y159763D01*
X417658Y159587D01*
X417694Y159410D01*
X417717Y159348D01*
X417733Y159284D01*
X417805Y159118D01*
X417868Y158949D01*
X417902Y158891D01*
X417928Y158830D01*
X418025Y158678D01*
X418115Y158522D01*
X418157Y158470D01*
X418193Y158414D01*
X418313Y158280D01*
X418428Y158140D01*
X418477Y158096D01*
X418522Y158046D01*
X418662Y157933D01*
X418797Y157814D01*
X418854Y157778D01*
X418906Y157736D01*
X419062Y157647D01*
X419215Y157551D01*
X419277Y157525D01*
X419334Y157492D01*
X419504Y157430D01*
X419670Y157360D01*
X419734Y157344D01*
X419797Y157321D01*
X419974Y157286D01*
X420149Y157244D01*
X420216Y157239D01*
X420281Y157226D01*
X420461Y157221D01*
X420641Y157207D01*
X420708Y157213D01*
X420774Y157211D01*
X420953Y157234D01*
X421133Y157250D01*
X421183Y157265D01*
X421263Y157275D01*
X421735Y157418D01*
X421766Y157432D01*
X421788Y157439D01*
X424245Y158457D01*
X426655Y158457D01*
X428881Y157535D01*
X430585Y155831D01*
X431507Y153605D01*
X431507Y151195D01*
X430585Y148969D01*
X430534Y148919D01*
X430460Y148832D01*
X430379Y148751D01*
X430301Y148644D01*
X430215Y148543D01*
X430156Y148445D01*
X430089Y148353D01*
X430029Y148234D01*
X429960Y148120D01*
X429918Y148014D01*
X429866Y147912D01*
X429826Y147785D01*
X429777Y147662D01*
X429752Y147551D01*
X429718Y147442D01*
X429708Y147348D01*
X429670Y147181D01*
X429652Y146856D01*
X429642Y146764D01*
X429642Y134620D01*
X429648Y134544D01*
X429646Y134468D01*
X429668Y134299D01*
X429682Y134128D01*
X429700Y134054D01*
X429710Y133979D01*
X429759Y133815D01*
X429800Y133649D01*
X429830Y133580D01*
X429852Y133506D01*
X429928Y133353D01*
X429995Y133196D01*
X430036Y133132D01*
X430069Y133063D01*
X430168Y132924D01*
X430260Y132780D01*
X430311Y132723D01*
X430355Y132661D01*
X430475Y132540D01*
X430589Y132412D01*
X430648Y132364D01*
X430702Y132310D01*
X430840Y132209D01*
X430973Y132102D01*
X431039Y132065D01*
X431100Y132020D01*
X431253Y131943D01*
X431401Y131858D01*
X431473Y131832D01*
X431541Y131797D01*
X431704Y131746D01*
X431864Y131687D01*
X431939Y131672D01*
X432011Y131649D01*
X432116Y131637D01*
X432348Y131592D01*
X432584Y131585D01*
X432689Y131573D01*
X437766Y131573D01*
X438659Y130680D01*
X438659Y123320D01*
X438143Y122805D01*
X438094Y122747D01*
X438038Y122695D01*
X437934Y122559D01*
X437824Y122429D01*
X437784Y122364D01*
X437738Y122303D01*
X437657Y122153D01*
X437569Y122006D01*
X437541Y121936D01*
X437505Y121868D01*
X437449Y121707D01*
X437386Y121548D01*
X437369Y121474D01*
X437345Y121402D01*
X437316Y121233D01*
X437279Y121067D01*
X437275Y120990D01*
X437262Y120915D01*
X437261Y120745D01*
X437251Y120574D01*
X437260Y120498D01*
X437259Y120422D01*
X437286Y120253D01*
X437304Y120083D01*
X437324Y120010D01*
X437336Y119935D01*
X437389Y119772D01*
X437434Y119608D01*
X437466Y119539D01*
X437490Y119466D01*
X437569Y119314D01*
X437640Y119159D01*
X437683Y119096D01*
X437718Y119028D01*
X437783Y118946D01*
X437915Y118750D01*
X438077Y118578D01*
X438143Y118495D01*
X438397Y118241D01*
X438484Y118167D01*
X438564Y118086D01*
X438672Y118008D01*
X438773Y117922D01*
X438871Y117863D01*
X438963Y117796D01*
X439082Y117736D01*
X439196Y117667D01*
X439302Y117625D01*
X439404Y117573D01*
X439530Y117533D01*
X439654Y117484D01*
X439765Y117459D01*
X439874Y117425D01*
X439968Y117415D01*
X440135Y117377D01*
X440460Y117359D01*
X440552Y117349D01*
X457200Y117349D01*
X457276Y117355D01*
X457352Y117353D01*
X457521Y117375D01*
X457692Y117389D01*
X457766Y117407D01*
X457841Y117417D01*
X458005Y117466D01*
X458171Y117507D01*
X458240Y117537D01*
X458314Y117559D01*
X458467Y117635D01*
X458624Y117702D01*
X458688Y117743D01*
X458757Y117776D01*
X458896Y117875D01*
X459040Y117967D01*
X459097Y118018D01*
X459159Y118062D01*
X459280Y118182D01*
X459408Y118296D01*
X459456Y118355D01*
X459510Y118409D01*
X459611Y118547D01*
X459718Y118680D01*
X459755Y118746D01*
X459800Y118807D01*
X459877Y118960D01*
X459962Y119108D01*
X459988Y119180D01*
X460023Y119248D01*
X460074Y119411D01*
X460133Y119571D01*
X460148Y119646D01*
X460171Y119718D01*
X460183Y119823D01*
X460228Y120055D01*
X460235Y120291D01*
X460247Y120396D01*
X460247Y254000D01*
X460242Y254060D01*
X460243Y254093D01*
X460242Y254104D01*
X460243Y254152D01*
X460221Y254321D01*
X460207Y254492D01*
X460189Y254566D01*
X460179Y254641D01*
X460130Y254805D01*
X460089Y254971D01*
X460059Y255040D01*
X460037Y255114D01*
X459961Y255267D01*
X459894Y255424D01*
X459853Y255488D01*
X459820Y255557D01*
X459721Y255696D01*
X459629Y255840D01*
X459578Y255897D01*
X459534Y255959D01*
X459414Y256080D01*
X459300Y256208D01*
X459241Y256256D01*
X459187Y256310D01*
X459049Y256411D01*
X458916Y256518D01*
X458850Y256555D01*
X458789Y256600D01*
X458636Y256677D01*
X458488Y256762D01*
X458416Y256788D01*
X458348Y256823D01*
X458185Y256874D01*
X458025Y256933D01*
X457950Y256948D01*
X457878Y256971D01*
X457773Y256983D01*
X457541Y257028D01*
X457305Y257035D01*
X457200Y257047D01*
X25744Y257047D01*
X25700Y257044D01*
X25655Y257046D01*
X25454Y257024D01*
X25253Y257007D01*
X25209Y256997D01*
X25165Y256992D01*
X24970Y256937D01*
X24774Y256889D01*
X24733Y256871D01*
X24690Y256859D01*
X24506Y256774D01*
X24320Y256694D01*
X24283Y256670D01*
X24242Y256651D01*
X24075Y256538D01*
X23904Y256429D01*
X23871Y256399D01*
X23834Y256374D01*
X23687Y256235D01*
X23537Y256100D01*
X23508Y256065D01*
X23476Y256035D01*
X23354Y255874D01*
X23227Y255716D01*
X23204Y255678D01*
X23177Y255642D01*
X23082Y255463D01*
X22983Y255288D01*
X22967Y255246D01*
X22946Y255206D01*
X22881Y255015D01*
X22811Y254825D01*
X22802Y254781D01*
X22788Y254739D01*
X22755Y254539D01*
X22716Y254341D01*
X22715Y254296D01*
X22708Y254252D01*
X22707Y254049D01*
X22701Y253848D01*
X22707Y253804D01*
X22707Y253759D01*
X22739Y253559D01*
X22765Y253359D01*
X22778Y253316D01*
X22785Y253272D01*
X22849Y253080D01*
X22908Y252887D01*
X22928Y252846D01*
X22942Y252804D01*
X23036Y252625D01*
X23125Y252443D01*
X23151Y252407D01*
X23172Y252367D01*
X23233Y252291D01*
X23410Y252041D01*
X23538Y251911D01*
X23599Y251836D01*
X93064Y182976D01*
X93065Y182976D01*
X93069Y182972D01*
X93254Y182816D01*
X93264Y182807D01*
X94914Y181142D01*
X94926Y181132D01*
X94933Y181123D01*
X96360Y179709D01*
X97121Y177849D01*
X97128Y177835D01*
X97131Y177824D01*
X97908Y175971D01*
X97899Y173962D01*
X97901Y173946D01*
X97899Y173935D01*
X97908Y171925D01*
X97131Y170073D01*
X97126Y170058D01*
X97121Y170048D01*
X96360Y168188D01*
X94933Y166773D01*
X94923Y166761D01*
X94914Y166754D01*
X93287Y165113D01*
X93203Y165050D01*
X93124Y164969D01*
X93069Y164925D01*
X84695Y156624D01*
X84641Y156561D01*
X84580Y156504D01*
X84480Y156374D01*
X84374Y156250D01*
X84331Y156179D01*
X84280Y156113D01*
X84203Y155968D01*
X84117Y155828D01*
X84086Y155751D01*
X84047Y155678D01*
X83994Y155523D01*
X83932Y155371D01*
X83914Y155290D01*
X83887Y155212D01*
X83859Y155050D01*
X83823Y154890D01*
X83818Y154807D01*
X83804Y154725D01*
X83803Y154561D01*
X83793Y154397D01*
X83802Y154315D01*
X83801Y154232D01*
X83827Y154070D01*
X83844Y153906D01*
X83865Y153826D01*
X83878Y153745D01*
X83929Y153589D01*
X83972Y153430D01*
X84006Y153355D01*
X84032Y153276D01*
X84108Y153130D01*
X84176Y152981D01*
X84222Y152912D01*
X84260Y152838D01*
X84325Y152757D01*
X84449Y152570D01*
X84620Y152387D01*
X84685Y152305D01*
X86658Y150333D01*
X86716Y150284D01*
X86768Y150228D01*
X86904Y150124D01*
X87034Y150013D01*
X87099Y149974D01*
X87159Y149928D01*
X87310Y149847D01*
X87456Y149759D01*
X87527Y149730D01*
X87594Y149694D01*
X87756Y149639D01*
X87914Y149576D01*
X87989Y149559D01*
X88061Y149534D01*
X88229Y149506D01*
X88396Y149469D01*
X88472Y149465D01*
X88547Y149452D01*
X88718Y149451D01*
X88889Y149441D01*
X88964Y149449D01*
X89041Y149449D01*
X89209Y149475D01*
X89379Y149493D01*
X89452Y149514D01*
X89528Y149525D01*
X89690Y149579D01*
X89855Y149624D01*
X89924Y149656D01*
X89996Y149680D01*
X90148Y149759D01*
X90303Y149830D01*
X90366Y149872D01*
X90434Y149907D01*
X90516Y149973D01*
X90713Y150105D01*
X90885Y150267D01*
X90967Y150333D01*
X91819Y151185D01*
X94045Y152107D01*
X96455Y152107D01*
X98681Y151185D01*
X100385Y149481D01*
X101307Y147255D01*
X101307Y144845D01*
X100385Y142619D01*
X99533Y141767D01*
X99484Y141709D01*
X99428Y141657D01*
X99324Y141521D01*
X99213Y141391D01*
X99174Y141326D01*
X99128Y141266D01*
X99047Y141115D01*
X98959Y140969D01*
X98930Y140898D01*
X98894Y140831D01*
X98839Y140669D01*
X98776Y140511D01*
X98759Y140436D01*
X98734Y140364D01*
X98706Y140196D01*
X98669Y140029D01*
X98665Y139953D01*
X98652Y139878D01*
X98651Y139707D01*
X98641Y139536D01*
X98649Y139461D01*
X98649Y139385D01*
X98675Y139216D01*
X98693Y139046D01*
X98714Y138973D01*
X98725Y138897D01*
X98779Y138735D01*
X98824Y138570D01*
X98856Y138501D01*
X98880Y138429D01*
X98959Y138277D01*
X99030Y138122D01*
X99072Y138059D01*
X99107Y137991D01*
X99173Y137909D01*
X99305Y137712D01*
X99467Y137540D01*
X99533Y137458D01*
X152643Y84348D01*
X152701Y84298D01*
X152753Y84243D01*
X152889Y84139D01*
X153019Y84028D01*
X153084Y83989D01*
X153145Y83943D01*
X153295Y83862D01*
X153441Y83774D01*
X153512Y83745D01*
X153579Y83709D01*
X153741Y83654D01*
X153899Y83591D01*
X153974Y83574D01*
X154046Y83549D01*
X154215Y83521D01*
X154381Y83484D01*
X154457Y83479D01*
X154532Y83467D01*
X154703Y83466D01*
X154874Y83456D01*
X154949Y83464D01*
X155026Y83464D01*
X155195Y83490D01*
X155364Y83508D01*
X155438Y83528D01*
X155513Y83540D01*
X155675Y83594D01*
X155840Y83639D01*
X155909Y83671D01*
X155982Y83695D01*
X156133Y83773D01*
X156288Y83845D01*
X156352Y83887D01*
X156419Y83922D01*
X156502Y83988D01*
X156698Y84120D01*
X156870Y84282D01*
X156952Y84348D01*
X167224Y94619D01*
X168193Y95588D01*
X171927Y97135D01*
X175969Y97135D01*
X179704Y95588D01*
X264239Y11053D01*
X264326Y10979D01*
X264406Y10898D01*
X264513Y10820D01*
X264615Y10734D01*
X264712Y10675D01*
X264805Y10608D01*
X264923Y10548D01*
X265037Y10479D01*
X265143Y10437D01*
X265245Y10385D01*
X265372Y10345D01*
X265495Y10296D01*
X265607Y10271D01*
X265716Y10237D01*
X265809Y10227D01*
X265977Y10189D01*
X266301Y10171D01*
X266393Y10161D01*
X457200Y10161D01*
X457276Y10167D01*
G37*
G36*
X35177Y435922D02*
X35177Y435922D01*
X35231Y435918D01*
X35334Y435936D01*
X35438Y435946D01*
X35490Y435965D01*
X35544Y435975D01*
X35639Y436018D01*
X35738Y436054D01*
X35783Y436085D01*
X35833Y436108D01*
X35964Y436201D01*
X41704Y440882D01*
X43536Y439938D01*
X43547Y439933D01*
X43558Y439927D01*
X43697Y439879D01*
X43834Y439829D01*
X43847Y439827D01*
X43859Y439823D01*
X44005Y439812D01*
X44151Y439797D01*
X44163Y439799D01*
X44176Y439798D01*
X44320Y439823D01*
X44465Y439845D01*
X44477Y439850D01*
X44489Y439853D01*
X44622Y439912D01*
X44758Y439970D01*
X44768Y439978D01*
X44779Y439983D01*
X44894Y440075D01*
X45010Y440164D01*
X45018Y440174D01*
X45027Y440182D01*
X45116Y440299D01*
X45206Y440414D01*
X45211Y440426D01*
X45219Y440436D01*
X45290Y440580D01*
X48935Y449380D01*
X48950Y449435D01*
X48973Y449487D01*
X48992Y449588D01*
X49019Y449687D01*
X49019Y449744D01*
X49030Y449800D01*
X49022Y449902D01*
X49024Y450005D01*
X49010Y450061D01*
X49006Y450117D01*
X48973Y450215D01*
X48949Y450314D01*
X48923Y450365D01*
X48905Y450419D01*
X48849Y450505D01*
X48801Y450595D01*
X48762Y450638D01*
X48731Y450685D01*
X48656Y450755D01*
X48587Y450831D01*
X48539Y450862D01*
X48497Y450901D01*
X48360Y450985D01*
X47098Y451660D01*
X46088Y452489D01*
X45485Y453224D01*
X45260Y453498D01*
X44644Y454650D01*
X44265Y455900D01*
X44138Y457197D01*
X44279Y458560D01*
X44694Y459864D01*
X45367Y461054D01*
X46269Y462083D01*
X47362Y462905D01*
X48600Y463487D01*
X49930Y463804D01*
X51298Y463842D01*
X52644Y463600D01*
X53912Y463089D01*
X55050Y462329D01*
X56008Y461352D01*
X56746Y460201D01*
X57234Y458923D01*
X57451Y457573D01*
X57387Y456206D01*
X57045Y454882D01*
X56440Y453655D01*
X55598Y452578D01*
X54553Y451695D01*
X53234Y450983D01*
X53190Y450951D01*
X53142Y450927D01*
X53062Y450859D01*
X52976Y450797D01*
X52941Y450756D01*
X52900Y450721D01*
X52839Y450635D01*
X52771Y450554D01*
X52748Y450505D01*
X52717Y450461D01*
X52679Y450362D01*
X52634Y450267D01*
X52623Y450214D01*
X52604Y450164D01*
X52592Y450059D01*
X52572Y449955D01*
X52575Y449901D01*
X52569Y449848D01*
X52584Y449743D01*
X52589Y449638D01*
X52606Y449586D01*
X52613Y449533D01*
X52665Y449380D01*
X56310Y440580D01*
X56317Y440569D01*
X56320Y440557D01*
X56395Y440431D01*
X56468Y440304D01*
X56477Y440295D01*
X56483Y440284D01*
X56587Y440181D01*
X56689Y440076D01*
X56700Y440069D01*
X56709Y440060D01*
X56835Y439986D01*
X56960Y439909D01*
X56972Y439906D01*
X56983Y439899D01*
X57124Y439859D01*
X57264Y439816D01*
X57277Y439815D01*
X57289Y439812D01*
X57436Y439808D01*
X57582Y439801D01*
X57594Y439803D01*
X57607Y439803D01*
X57749Y439835D01*
X57893Y439865D01*
X57905Y439871D01*
X57917Y439873D01*
X58064Y439938D01*
X59896Y440882D01*
X65636Y436201D01*
X65683Y436172D01*
X65724Y436136D01*
X65817Y436088D01*
X65906Y436033D01*
X65958Y436016D01*
X66007Y435991D01*
X66109Y435968D01*
X66209Y435937D01*
X66264Y435934D01*
X66317Y435922D01*
X66422Y435925D01*
X66526Y435919D01*
X66580Y435930D01*
X66635Y435931D01*
X66736Y435960D01*
X66838Y435981D01*
X66888Y436004D01*
X66941Y436020D01*
X67031Y436073D01*
X67125Y436118D01*
X67167Y436153D01*
X67215Y436181D01*
X67336Y436288D01*
X71713Y440665D01*
X71746Y440708D01*
X71787Y440745D01*
X71843Y440833D01*
X71907Y440916D01*
X71929Y440966D01*
X71959Y441013D01*
X71992Y441112D01*
X72034Y441208D01*
X72042Y441262D01*
X72060Y441314D01*
X72067Y441418D01*
X72084Y441522D01*
X72078Y441577D01*
X72082Y441631D01*
X72064Y441734D01*
X72054Y441838D01*
X72035Y441890D01*
X72025Y441944D01*
X71982Y442039D01*
X71946Y442138D01*
X71915Y442183D01*
X71892Y442233D01*
X71799Y442364D01*
X67118Y448104D01*
X68062Y449936D01*
X68070Y449959D01*
X68083Y449981D01*
X68142Y450130D01*
X68770Y452093D01*
X76139Y452842D01*
X76193Y452855D01*
X76248Y452858D01*
X76347Y452890D01*
X76449Y452914D01*
X76498Y452939D01*
X76550Y452956D01*
X76639Y453012D01*
X76732Y453060D01*
X76773Y453097D01*
X76819Y453126D01*
X76891Y453203D01*
X76969Y453272D01*
X76999Y453318D01*
X77037Y453358D01*
X77088Y453450D01*
X77146Y453536D01*
X77164Y453588D01*
X77191Y453636D01*
X77217Y453738D01*
X77251Y453836D01*
X77256Y453891D01*
X77270Y453944D01*
X77280Y454105D01*
X77280Y460295D01*
X77273Y460350D01*
X77276Y460405D01*
X77254Y460507D01*
X77240Y460611D01*
X77220Y460662D01*
X77209Y460716D01*
X77162Y460809D01*
X77123Y460906D01*
X77091Y460951D01*
X77066Y461000D01*
X76998Y461079D01*
X76937Y461164D01*
X76894Y461199D01*
X76858Y461240D01*
X76772Y461300D01*
X76692Y461366D01*
X76642Y461390D01*
X76597Y461421D01*
X76498Y461457D01*
X76404Y461502D01*
X76350Y461512D01*
X76298Y461531D01*
X76139Y461558D01*
X68770Y462307D01*
X68142Y464270D01*
X68132Y464292D01*
X68126Y464316D01*
X68062Y464464D01*
X67118Y466296D01*
X71799Y472036D01*
X71828Y472083D01*
X71864Y472124D01*
X71912Y472217D01*
X71967Y472306D01*
X71984Y472358D01*
X72009Y472407D01*
X72032Y472509D01*
X72063Y472609D01*
X72066Y472664D01*
X72079Y472717D01*
X72075Y472822D01*
X72081Y472926D01*
X72071Y472980D01*
X72069Y473035D01*
X72040Y473136D01*
X72020Y473238D01*
X71996Y473288D01*
X71980Y473341D01*
X71927Y473431D01*
X71882Y473525D01*
X71847Y473567D01*
X71819Y473615D01*
X71713Y473736D01*
X67336Y478113D01*
X67292Y478146D01*
X67255Y478187D01*
X67167Y478243D01*
X67084Y478307D01*
X67034Y478329D01*
X66987Y478359D01*
X66888Y478392D01*
X66792Y478434D01*
X66738Y478442D01*
X66686Y478460D01*
X66582Y478467D01*
X66478Y478484D01*
X66423Y478478D01*
X66369Y478482D01*
X66266Y478464D01*
X66162Y478454D01*
X66110Y478435D01*
X66056Y478425D01*
X65961Y478382D01*
X65862Y478346D01*
X65817Y478315D01*
X65767Y478292D01*
X65636Y478199D01*
X59896Y473518D01*
X58064Y474462D01*
X58041Y474470D01*
X58020Y474483D01*
X57870Y474542D01*
X55907Y475170D01*
X55158Y482539D01*
X55145Y482593D01*
X55142Y482648D01*
X55110Y482747D01*
X55086Y482849D01*
X55061Y482898D01*
X55044Y482950D01*
X54988Y483039D01*
X54940Y483132D01*
X54903Y483173D01*
X54874Y483219D01*
X54797Y483291D01*
X54728Y483369D01*
X54682Y483399D01*
X54642Y483437D01*
X54550Y483488D01*
X54464Y483546D01*
X54412Y483564D01*
X54364Y483591D01*
X54263Y483617D01*
X54164Y483651D01*
X54109Y483656D01*
X54056Y483670D01*
X53895Y483680D01*
X47705Y483680D01*
X47650Y483673D01*
X47595Y483676D01*
X47493Y483654D01*
X47389Y483640D01*
X47338Y483620D01*
X47285Y483609D01*
X47191Y483562D01*
X47094Y483523D01*
X47049Y483491D01*
X47000Y483466D01*
X46921Y483398D01*
X46836Y483337D01*
X46801Y483294D01*
X46760Y483258D01*
X46700Y483172D01*
X46634Y483092D01*
X46610Y483042D01*
X46579Y482997D01*
X46543Y482898D01*
X46498Y482804D01*
X46488Y482750D01*
X46469Y482698D01*
X46442Y482539D01*
X45693Y475170D01*
X43730Y474542D01*
X43708Y474532D01*
X43684Y474526D01*
X43536Y474462D01*
X41704Y473518D01*
X35964Y478199D01*
X35917Y478228D01*
X35876Y478264D01*
X35783Y478312D01*
X35694Y478367D01*
X35642Y478384D01*
X35593Y478409D01*
X35491Y478432D01*
X35391Y478463D01*
X35336Y478466D01*
X35283Y478479D01*
X35178Y478475D01*
X35074Y478481D01*
X35020Y478471D01*
X34965Y478469D01*
X34864Y478440D01*
X34762Y478420D01*
X34712Y478396D01*
X34659Y478380D01*
X34569Y478327D01*
X34475Y478282D01*
X34433Y478247D01*
X34385Y478219D01*
X34265Y478113D01*
X29888Y473736D01*
X29854Y473692D01*
X29813Y473655D01*
X29757Y473567D01*
X29693Y473484D01*
X29671Y473434D01*
X29641Y473387D01*
X29608Y473288D01*
X29566Y473192D01*
X29558Y473138D01*
X29540Y473086D01*
X29533Y472982D01*
X29516Y472878D01*
X29522Y472823D01*
X29518Y472769D01*
X29536Y472666D01*
X29546Y472562D01*
X29565Y472510D01*
X29575Y472456D01*
X29618Y472361D01*
X29654Y472262D01*
X29685Y472217D01*
X29708Y472167D01*
X29801Y472036D01*
X34482Y466296D01*
X33538Y464464D01*
X33530Y464441D01*
X33517Y464420D01*
X33458Y464270D01*
X32830Y462307D01*
X25461Y461558D01*
X25407Y461545D01*
X25352Y461542D01*
X25253Y461510D01*
X25151Y461486D01*
X25102Y461461D01*
X25050Y461444D01*
X24961Y461388D01*
X24868Y461340D01*
X24827Y461303D01*
X24781Y461274D01*
X24709Y461197D01*
X24631Y461128D01*
X24601Y461082D01*
X24563Y461042D01*
X24512Y460950D01*
X24454Y460864D01*
X24436Y460812D01*
X24409Y460764D01*
X24383Y460663D01*
X24349Y460564D01*
X24344Y460509D01*
X24330Y460456D01*
X24320Y460295D01*
X24320Y454105D01*
X24327Y454050D01*
X24325Y453995D01*
X24347Y453893D01*
X24360Y453789D01*
X24380Y453738D01*
X24391Y453685D01*
X24438Y453591D01*
X24477Y453494D01*
X24509Y453449D01*
X24534Y453400D01*
X24602Y453321D01*
X24663Y453236D01*
X24706Y453201D01*
X24742Y453160D01*
X24828Y453100D01*
X24908Y453034D01*
X24958Y453010D01*
X25004Y452979D01*
X25102Y452943D01*
X25196Y452898D01*
X25250Y452888D01*
X25302Y452869D01*
X25461Y452842D01*
X32830Y452093D01*
X33458Y450130D01*
X33468Y450108D01*
X33474Y450084D01*
X33538Y449936D01*
X34482Y448104D01*
X29801Y442364D01*
X29772Y442317D01*
X29736Y442276D01*
X29688Y442183D01*
X29633Y442094D01*
X29616Y442042D01*
X29591Y441993D01*
X29568Y441891D01*
X29537Y441791D01*
X29534Y441736D01*
X29522Y441683D01*
X29525Y441578D01*
X29519Y441474D01*
X29530Y441420D01*
X29531Y441365D01*
X29560Y441264D01*
X29581Y441162D01*
X29604Y441112D01*
X29620Y441059D01*
X29673Y440969D01*
X29718Y440875D01*
X29753Y440833D01*
X29781Y440785D01*
X29888Y440665D01*
X34265Y436288D01*
X34308Y436254D01*
X34345Y436213D01*
X34433Y436157D01*
X34516Y436093D01*
X34566Y436071D01*
X34613Y436041D01*
X34712Y436008D01*
X34808Y435966D01*
X34862Y435958D01*
X34914Y435940D01*
X35018Y435933D01*
X35122Y435916D01*
X35177Y435922D01*
G37*
%LPC*%
G36*
X295147Y161797D02*
X295147Y161797D01*
X295147Y170313D01*
X296683Y169814D01*
X298357Y168961D01*
X299878Y167856D01*
X301206Y166528D01*
X302311Y165007D01*
X303164Y163333D01*
X303663Y161797D01*
X295147Y161797D01*
G37*
%LPD*%
%LPC*%
G36*
X280537Y161797D02*
X280537Y161797D01*
X281036Y163333D01*
X281889Y165007D01*
X282994Y166528D01*
X284322Y167856D01*
X285843Y168961D01*
X287517Y169814D01*
X289053Y170313D01*
X289053Y161797D01*
X280537Y161797D01*
G37*
%LPD*%
%LPC*%
G36*
X346149Y133399D02*
X346149Y133399D01*
X346149Y139191D01*
X350735Y139191D01*
X351381Y139018D01*
X351960Y138683D01*
X352433Y138210D01*
X352768Y137631D01*
X352941Y136985D01*
X352941Y133399D01*
X346149Y133399D01*
G37*
%LPD*%
%LPC*%
G36*
X332859Y133399D02*
X332859Y133399D01*
X332859Y136985D01*
X333032Y137631D01*
X333367Y138210D01*
X333840Y138683D01*
X334419Y139018D01*
X335065Y139191D01*
X339651Y139191D01*
X339651Y133399D01*
X332859Y133399D01*
G37*
%LPD*%
%LPC*%
G36*
X381509Y155649D02*
X381509Y155649D01*
X381509Y160235D01*
X381682Y160881D01*
X382017Y161460D01*
X382490Y161933D01*
X383069Y162268D01*
X383715Y162441D01*
X387301Y162441D01*
X387301Y155649D01*
X381509Y155649D01*
G37*
%LPD*%
%LPC*%
G36*
X383715Y142359D02*
X383715Y142359D01*
X383069Y142532D01*
X382490Y142867D01*
X382017Y143340D01*
X381682Y143919D01*
X381509Y144565D01*
X381509Y149151D01*
X387301Y149151D01*
X387301Y142359D01*
X383715Y142359D01*
G37*
%LPD*%
%LPC*%
G36*
X377062Y130047D02*
X377062Y130047D01*
X377062Y132589D01*
X382567Y132589D01*
X383646Y132374D01*
X384663Y131953D01*
X385579Y131341D01*
X386357Y130563D01*
X386701Y130047D01*
X377062Y130047D01*
G37*
%LPD*%
%LPC*%
G36*
X361329Y130047D02*
X361329Y130047D01*
X361673Y130563D01*
X362451Y131341D01*
X363367Y131953D01*
X364384Y132374D01*
X365463Y132589D01*
X370968Y132589D01*
X370968Y130047D01*
X361329Y130047D01*
G37*
%LPD*%
D10*
X390550Y152400D03*
X409550Y152400D03*
D11*
G36*
X134654Y74550D02*
X81622Y21518D01*
X71016Y32124D01*
X124048Y85156D01*
X134654Y74550D01*
G37*
D12*
G36*
X115208Y93995D02*
X69247Y48034D01*
X62176Y55105D01*
X108137Y101066D01*
X115208Y93995D01*
G37*
G36*
X101066Y108137D02*
X55105Y62176D01*
X48034Y69247D01*
X93995Y115208D01*
X101066Y108137D01*
G37*
D11*
G36*
X85156Y124048D02*
X32124Y71016D01*
X21518Y81622D01*
X74550Y134654D01*
X85156Y124048D01*
G37*
D13*
X556600Y419100D03*
X535600Y419100D03*
X607400Y419100D03*
X586400Y419100D03*
X658200Y419100D03*
X637200Y419100D03*
X709000Y419100D03*
X688000Y419100D03*
X759800Y419100D03*
X738800Y419100D03*
X810600Y419100D03*
X789600Y419100D03*
X861400Y419100D03*
X840400Y419100D03*
X505800Y368300D03*
X484800Y368300D03*
X556600Y368300D03*
X535600Y368300D03*
X607400Y368300D03*
X586400Y368300D03*
X556600Y469900D03*
X535600Y469900D03*
X658200Y368300D03*
X637200Y368300D03*
X709000Y368300D03*
X688000Y368300D03*
X759800Y368300D03*
X738800Y368300D03*
X810600Y368300D03*
X789600Y368300D03*
X861400Y368300D03*
X840400Y368300D03*
X505800Y317500D03*
X484800Y317500D03*
X556600Y317500D03*
X535600Y317500D03*
X607400Y317500D03*
X586400Y317500D03*
X658200Y317500D03*
X637200Y317500D03*
X709000Y317500D03*
X688000Y317500D03*
X607400Y469900D03*
X586400Y469900D03*
X759800Y317500D03*
X738800Y317500D03*
X810600Y317500D03*
X789600Y317500D03*
X861400Y317500D03*
X840400Y317500D03*
X505800Y266700D03*
X484800Y266700D03*
X556600Y266700D03*
X535600Y266700D03*
X607400Y266700D03*
X586400Y266700D03*
X658200Y266700D03*
X637200Y266700D03*
X709000Y266700D03*
X688000Y266700D03*
X759800Y266700D03*
X738800Y266700D03*
X810600Y266700D03*
X789600Y266700D03*
X658200Y469900D03*
X637200Y469900D03*
X861400Y266700D03*
X840400Y266700D03*
X505800Y215900D03*
X484800Y215900D03*
X556600Y215900D03*
X535600Y215900D03*
X607400Y215900D03*
X586400Y215900D03*
X658200Y215900D03*
X637200Y215900D03*
X709000Y215900D03*
X688000Y215900D03*
X759800Y215900D03*
X738800Y215900D03*
X810600Y215900D03*
X789600Y215900D03*
X861400Y215900D03*
X840400Y215900D03*
X505800Y165100D03*
X484800Y165100D03*
X709000Y469900D03*
X688000Y469900D03*
X556600Y165100D03*
X535600Y165100D03*
X607400Y165100D03*
X586400Y165100D03*
X658200Y165100D03*
X637200Y165100D03*
X709000Y165100D03*
X688000Y165100D03*
X759800Y165100D03*
X738800Y165100D03*
X810600Y165100D03*
X789600Y165100D03*
X861400Y165100D03*
X840400Y165100D03*
X759800Y469900D03*
X738800Y469900D03*
X810600Y469900D03*
X789600Y469900D03*
X861400Y469900D03*
X840400Y469900D03*
X505800Y419100D03*
X484800Y419100D03*
D14*
X342900Y111150D03*
X342900Y130150D03*
X488950Y117500D03*
X488950Y136500D03*
X539750Y117500D03*
X539750Y136500D03*
X590550Y117500D03*
X590550Y136500D03*
X641350Y117500D03*
X641350Y136500D03*
X692150Y117500D03*
X692150Y136500D03*
X742950Y117500D03*
X742950Y136500D03*
X793750Y117500D03*
X793750Y136500D03*
X844550Y117500D03*
X844550Y136500D03*
D15*
X382016Y127000D02*
X366014Y127000D01*
D16*
X426085Y127000D03*
X374015Y114300D03*
X374015Y101600D03*
X426085Y114300D03*
X426085Y101600D03*
X374015Y88900D03*
X426085Y88900D03*
X374015Y76200D03*
X374015Y63500D03*
X426085Y76200D03*
X426085Y63500D03*
X374015Y50800D03*
X426085Y50800D03*
D17*
X292100Y107950D03*
X292100Y57150D03*
X292100Y158750D03*
X292100Y82550D03*
X292100Y133350D03*
D13*
X505800Y469900D03*
X484800Y469900D03*
D18*
X338200Y49850D03*
X322200Y49850D03*
X322200Y89850D03*
X338200Y89850D03*
D17*
X292100Y31750D03*
D19*
X425450Y127000D02*
X426085Y127000D01*
D20*
X323850Y76200D03*
D19*
X323850Y88200D02*
X322200Y89850D01*
X323850Y88200D02*
X323850Y76200D01*
D21*
X95250Y144747D02*
X53337Y102835D01*
X95250Y144747D02*
X95250Y146050D01*
D22*
X95250Y146050D03*
D21*
X409550Y152400D02*
X425450Y152400D01*
D22*
X425450Y152400D03*
D21*
X426085Y151765D01*
X426085Y127000D01*
D15*
X158750Y107950D02*
X157447Y107950D01*
X158750Y107950D02*
X158750Y101600D01*
D21*
X144747Y95250D02*
X102835Y53337D01*
X144747Y95250D02*
X152400Y95250D01*
X158750Y101600D01*
D19*
X339150Y88900D02*
X374015Y88900D01*
X339150Y88900D02*
X338200Y89850D01*
X339700Y107950D02*
X292100Y107950D01*
X339700Y107950D02*
X342900Y111150D01*
X338200Y106450D02*
X338200Y89850D01*
X338200Y106450D02*
X342900Y111150D01*
X426085Y114300D02*
X488950Y114300D01*
X488950Y117500D01*
X484800Y165100D02*
X484800Y215900D01*
X484800Y317500D01*
X484800Y165100D02*
X484800Y152400D01*
X482600Y152400D01*
D20*
X482600Y152400D03*
X863600Y152400D03*
D19*
X571500Y165100D02*
X556600Y165100D01*
X571500Y165100D02*
X571500Y152400D01*
D20*
X571500Y152400D03*
D19*
X607400Y165100D02*
X622300Y165100D01*
X622300Y152400D01*
D20*
X622300Y152400D03*
D19*
X658200Y165100D02*
X673100Y165100D01*
X673100Y152400D01*
D20*
X673100Y152400D03*
D19*
X709000Y165100D02*
X723900Y165100D01*
X723900Y152400D01*
D20*
X723900Y152400D03*
D19*
X759800Y165100D02*
X774700Y165100D01*
X774700Y152400D01*
D20*
X774700Y152400D03*
D19*
X810600Y165100D02*
X825500Y165100D01*
X825500Y152400D01*
D20*
X825500Y152400D03*
D19*
X488950Y136500D02*
X484800Y135500D01*
X484800Y152400D01*
X484800Y215900D02*
X484800Y266700D01*
X484800Y317500D02*
X484800Y368300D01*
X484800Y317500D02*
X484800Y419100D01*
X861400Y165100D02*
X863600Y162900D01*
X863600Y152400D01*
D21*
X484800Y419100D02*
X484800Y469900D01*
D20*
X863600Y190500D03*
D19*
X535600Y190500D02*
X535600Y165100D01*
X863600Y190500D02*
X863600Y215900D01*
X861400Y215900D01*
X535600Y165100D02*
X505800Y165100D01*
X535600Y190500D02*
X535600Y215900D01*
D20*
X535600Y190500D03*
D19*
X607400Y215900D02*
X622300Y215900D01*
X622300Y190500D01*
D20*
X622300Y190500D03*
D19*
X658200Y215900D02*
X673100Y215900D01*
X673100Y190500D01*
D20*
X673100Y190500D03*
D19*
X709000Y215900D02*
X723900Y215900D01*
X723900Y190500D01*
D20*
X723900Y190500D03*
D19*
X759800Y215900D02*
X774700Y215900D01*
X774700Y190500D01*
D20*
X774700Y190500D03*
D19*
X810600Y215900D02*
X825500Y215900D01*
X825500Y190500D01*
D20*
X825500Y190500D03*
D19*
X535600Y165100D02*
X535600Y135500D01*
X539750Y136500D01*
X535600Y419100D02*
X535600Y469900D01*
X535600Y419100D02*
X535600Y368300D01*
X535600Y317500D01*
X535600Y215900D01*
X535600Y266700D02*
X535600Y317500D01*
X586400Y215900D02*
X586400Y165100D01*
X586400Y241300D02*
X586400Y266700D01*
X586400Y368300D01*
X586400Y469900D01*
X520700Y215900D02*
X505800Y215900D01*
X520700Y215900D02*
X520700Y241300D01*
D20*
X520700Y241300D03*
X863600Y241300D03*
D19*
X863600Y266700D01*
X861400Y266700D01*
X673100Y266700D02*
X658200Y266700D01*
X673100Y266700D02*
X673100Y241300D01*
D20*
X673100Y241300D03*
D19*
X709000Y266700D02*
X723900Y266700D01*
X723900Y241300D01*
D20*
X723900Y241300D03*
D19*
X759800Y266700D02*
X774700Y266700D01*
X774700Y241300D01*
D20*
X774700Y241300D03*
D19*
X810600Y266700D02*
X825500Y266700D01*
X825500Y241300D01*
D20*
X825500Y241300D03*
D19*
X586400Y165100D02*
X586400Y135500D01*
X590550Y136500D01*
X586400Y215900D02*
X556600Y215900D01*
X586400Y215900D02*
X586400Y241300D01*
D20*
X586400Y241300D03*
D19*
X586400Y368300D02*
X586400Y419100D01*
X586400Y266700D02*
X586400Y215900D01*
X586400Y266700D02*
X586400Y317500D01*
X637200Y368300D02*
X637200Y469900D01*
X637200Y368300D02*
X637200Y292100D01*
X637200Y266700D02*
X637200Y165100D01*
X520700Y266700D02*
X505800Y266700D01*
X520700Y266700D02*
X520700Y292100D01*
D20*
X520700Y292100D03*
X863600Y292100D03*
D19*
X863600Y317500D01*
X861400Y317500D01*
X825500Y317500D02*
X810600Y317500D01*
X825500Y317500D02*
X825500Y292100D01*
D20*
X825500Y292100D03*
D19*
X774700Y317500D02*
X759800Y317500D01*
X774700Y317500D02*
X774700Y292100D01*
D20*
X774700Y292100D03*
D19*
X723900Y317500D02*
X709000Y317500D01*
X723900Y317500D02*
X723900Y292100D01*
D20*
X723900Y292100D03*
D19*
X637200Y165100D02*
X637200Y135500D01*
X641350Y136500D01*
X571500Y266700D02*
X556600Y266700D01*
X571500Y266700D02*
X571500Y292100D01*
D20*
X571500Y292100D03*
D19*
X607400Y266700D02*
X637200Y266700D01*
X637200Y292100D01*
D20*
X637200Y292100D03*
D19*
X637200Y317500D02*
X637200Y266700D01*
X637200Y368300D02*
X637200Y419100D01*
X637200Y215900D02*
X637200Y165100D01*
X840400Y165100D02*
X840400Y266700D01*
X840400Y469900D02*
X840400Y482600D01*
X825500Y482600D01*
X774700Y482600D01*
X723900Y482600D01*
X673100Y482600D01*
X622300Y482600D01*
X571500Y482600D01*
X571500Y469900D02*
X556600Y469900D01*
X571500Y469900D02*
X571500Y482600D01*
X607400Y469900D02*
X622300Y469900D01*
X622300Y482600D01*
X658200Y469900D02*
X673100Y469900D01*
X673100Y482600D01*
X709000Y469900D02*
X723900Y469900D01*
X723900Y482600D01*
X759800Y469900D02*
X774700Y469900D01*
X774700Y482600D01*
X810600Y469900D02*
X825500Y469900D01*
X825500Y482600D01*
X840400Y165100D02*
X840400Y135500D01*
X844550Y136500D01*
X840400Y419100D02*
X840400Y469900D01*
X840400Y419100D02*
X840400Y368300D01*
X840400Y317500D01*
X840400Y266700D01*
X840400Y215900D02*
X840400Y165100D01*
D21*
X520700Y469900D02*
X505800Y469900D01*
X520700Y482600D02*
X571500Y482600D01*
X520700Y482600D02*
X520700Y469900D01*
D19*
X789600Y215900D02*
X789600Y165100D01*
X789600Y317500D02*
X789600Y419100D01*
X789600Y444500D02*
X789600Y469900D01*
X520700Y419100D02*
X505800Y419100D01*
X520700Y419100D02*
X520700Y444500D01*
D20*
X520700Y444500D03*
X863600Y444500D03*
D19*
X863600Y469900D01*
X861400Y469900D01*
X571500Y419100D02*
X556600Y419100D01*
X571500Y419100D02*
X571500Y444500D01*
D20*
X571500Y444500D03*
D19*
X607400Y419100D02*
X622300Y419100D01*
X622300Y444500D01*
D20*
X622300Y444500D03*
D19*
X658200Y419100D02*
X673100Y419100D01*
X673100Y444500D01*
D20*
X673100Y444500D03*
D19*
X709000Y419100D02*
X723900Y419100D01*
X723900Y444500D01*
D20*
X723900Y444500D03*
D19*
X759800Y419100D02*
X789600Y419100D01*
X789600Y165100D02*
X789600Y135500D01*
X793750Y136500D01*
X789600Y419100D02*
X789600Y444500D01*
D20*
X789600Y444500D03*
D19*
X789600Y266700D02*
X789600Y215900D01*
X789600Y266700D02*
X789600Y317500D01*
X789600Y368300D01*
X738800Y266700D02*
X738800Y165100D01*
X520700Y368300D02*
X505800Y368300D01*
X520700Y368300D02*
X520700Y393700D01*
D20*
X520700Y393700D03*
X863600Y393700D03*
D19*
X863600Y419100D01*
X861400Y419100D01*
X825500Y419100D02*
X810600Y419100D01*
X825500Y419100D02*
X825500Y393700D01*
D20*
X825500Y393700D03*
D19*
X571500Y368300D02*
X556600Y368300D01*
X571500Y368300D02*
X571500Y393700D01*
D20*
X571500Y393700D03*
D19*
X607400Y368300D02*
X622300Y368300D01*
X622300Y393700D01*
D20*
X622300Y393700D03*
D19*
X658200Y368300D02*
X673100Y368300D01*
X673100Y393700D01*
D20*
X673100Y393700D03*
D19*
X709000Y368300D02*
X738800Y368300D01*
X738800Y165100D02*
X738800Y135500D01*
X742950Y136500D01*
X738800Y393700D02*
X738800Y469900D01*
X738800Y393700D02*
X738800Y368300D01*
D20*
X738800Y393700D03*
D19*
X738800Y419100D02*
X738800Y368300D01*
X738800Y317500D01*
X738800Y266700D01*
X738800Y215900D02*
X738800Y165100D01*
X688000Y165100D02*
X688000Y266700D01*
X688000Y342900D02*
X688000Y368300D01*
X688000Y469900D01*
X520700Y317500D02*
X505800Y317500D01*
X520700Y317500D02*
X520700Y342900D01*
D20*
X520700Y342900D03*
X863600Y342900D03*
D19*
X863600Y368300D01*
X861400Y368300D01*
X825500Y368300D02*
X810600Y368300D01*
X825500Y368300D02*
X825500Y342900D01*
D20*
X825500Y342900D03*
D19*
X774700Y368300D02*
X759800Y368300D01*
X774700Y368300D02*
X774700Y342900D01*
D20*
X774700Y342900D03*
D19*
X688000Y165100D02*
X688000Y135500D01*
X692150Y136500D01*
X622300Y317500D02*
X607400Y317500D01*
X622300Y317500D02*
X622300Y342900D01*
D20*
X622300Y342900D03*
D19*
X658200Y317500D02*
X688000Y317500D01*
D20*
X688000Y342900D03*
D19*
X688000Y317500D01*
X571500Y317500D02*
X556600Y317500D01*
X571500Y317500D02*
X571500Y342900D01*
D20*
X571500Y342900D03*
D19*
X688000Y368300D02*
X688000Y317500D01*
X688000Y266700D01*
X688000Y215900D02*
X688000Y165100D01*
X688000Y368300D02*
X688000Y419100D01*
X539750Y101600D02*
X426085Y101600D01*
X539750Y101600D02*
X539750Y117500D01*
X577850Y88900D02*
X426085Y88900D01*
X577850Y88900D02*
X590550Y101600D01*
X590550Y117500D01*
X615950Y76200D02*
X426085Y76200D01*
X615950Y76200D02*
X641350Y101600D01*
X641350Y117500D01*
X374015Y63500D02*
X349250Y63500D01*
X349250Y25400D01*
X768350Y25400D01*
X844550Y101600D01*
X844550Y117500D01*
D20*
X444500Y50800D03*
D19*
X692150Y50800D02*
X742950Y101600D01*
X742950Y117500D01*
X692150Y50800D02*
X444500Y50800D01*
X426085Y50800D01*
X374015Y38100D02*
X730250Y38100D01*
X793750Y101600D01*
X793750Y117500D01*
D20*
X356080Y50800D03*
D19*
X374015Y50800D01*
X374650Y50165D01*
X374015Y50800D02*
X374015Y38100D01*
X457200Y63500D02*
X654050Y63500D01*
X692150Y101600D01*
X692150Y117500D01*
D20*
X457200Y63500D03*
D19*
X426085Y63500D01*
M02*
