G04 EAGLE Gerber RS-274X export*
G75*
%MOMM*%
%FSLAX34Y34*%
%LPD*%
%INBottom Copper*%
%IPPOS*%
%AMOC8*
5,1,8,0,0,1.08239X$1,22.5*%
G01*
%ADD10C,1.879600*%
%ADD11C,0.756400*%
%ADD12C,0.906400*%
%ADD13C,0.304800*%

G36*
X457276Y10167D02*
X457276Y10167D01*
X457352Y10165D01*
X457521Y10187D01*
X457692Y10201D01*
X457766Y10219D01*
X457841Y10229D01*
X458005Y10278D01*
X458171Y10319D01*
X458240Y10349D01*
X458314Y10371D01*
X458467Y10447D01*
X458624Y10514D01*
X458688Y10555D01*
X458757Y10588D01*
X458896Y10687D01*
X459040Y10779D01*
X459097Y10830D01*
X459159Y10874D01*
X459280Y10994D01*
X459408Y11108D01*
X459456Y11167D01*
X459510Y11221D01*
X459611Y11359D01*
X459718Y11492D01*
X459755Y11558D01*
X459800Y11619D01*
X459877Y11772D01*
X459962Y11920D01*
X459988Y11992D01*
X460023Y12060D01*
X460074Y12223D01*
X460133Y12383D01*
X460148Y12458D01*
X460171Y12530D01*
X460183Y12635D01*
X460228Y12867D01*
X460235Y13103D01*
X460247Y13208D01*
X460247Y19304D01*
X460241Y19380D01*
X460243Y19455D01*
X460243Y19456D01*
X460221Y19625D01*
X460207Y19796D01*
X460189Y19870D01*
X460179Y19945D01*
X460130Y20109D01*
X460089Y20275D01*
X460059Y20344D01*
X460037Y20418D01*
X459961Y20571D01*
X459894Y20728D01*
X459853Y20792D01*
X459820Y20861D01*
X459721Y21000D01*
X459629Y21144D01*
X459578Y21201D01*
X459534Y21263D01*
X459414Y21384D01*
X459300Y21512D01*
X459241Y21560D01*
X459187Y21614D01*
X459049Y21715D01*
X458916Y21822D01*
X458850Y21859D01*
X458789Y21904D01*
X458636Y21981D01*
X458488Y22066D01*
X458416Y22092D01*
X458348Y22127D01*
X458185Y22178D01*
X458025Y22237D01*
X457950Y22252D01*
X457878Y22275D01*
X457773Y22287D01*
X457541Y22332D01*
X457305Y22339D01*
X457200Y22351D01*
X298558Y22351D01*
X298548Y22350D01*
X298539Y22351D01*
X298303Y22331D01*
X298066Y22311D01*
X298057Y22309D01*
X298047Y22308D01*
X298009Y22297D01*
X297588Y22193D01*
X297584Y22191D01*
X297467Y22141D01*
X297392Y22119D01*
X294273Y20827D01*
X289927Y20827D01*
X285913Y22490D01*
X282840Y25563D01*
X281177Y29577D01*
X281177Y33923D01*
X282840Y37937D01*
X285913Y41010D01*
X287421Y41635D01*
X287455Y41652D01*
X287491Y41665D01*
X287675Y41765D01*
X287860Y41860D01*
X287891Y41882D01*
X287925Y41901D01*
X288089Y42029D01*
X288257Y42153D01*
X288284Y42180D01*
X288314Y42203D01*
X288456Y42357D01*
X288602Y42506D01*
X288624Y42537D01*
X288650Y42565D01*
X288765Y42739D01*
X288885Y42910D01*
X288901Y42944D01*
X288922Y42976D01*
X289008Y43166D01*
X289099Y43355D01*
X289110Y43391D01*
X289125Y43426D01*
X289179Y43628D01*
X289238Y43828D01*
X289243Y43865D01*
X289253Y43902D01*
X289274Y44111D01*
X289300Y44317D01*
X289298Y44355D01*
X289302Y44393D01*
X289289Y44602D01*
X289281Y44810D01*
X289274Y44848D01*
X289271Y44886D01*
X289225Y45089D01*
X289183Y45294D01*
X289170Y45329D01*
X289161Y45367D01*
X289083Y45560D01*
X289009Y45755D01*
X288990Y45788D01*
X288975Y45824D01*
X288866Y46002D01*
X288762Y46182D01*
X288738Y46212D01*
X288718Y46244D01*
X288582Y46403D01*
X288450Y46564D01*
X288421Y46590D01*
X288396Y46618D01*
X288236Y46753D01*
X288080Y46891D01*
X288047Y46911D01*
X288018Y46935D01*
X287937Y46980D01*
X287662Y47153D01*
X287504Y47220D01*
X287421Y47265D01*
X285913Y47890D01*
X282840Y50963D01*
X281177Y54977D01*
X281177Y59323D01*
X282840Y63337D01*
X285913Y66410D01*
X287421Y67035D01*
X287455Y67052D01*
X287491Y67065D01*
X287674Y67164D01*
X287860Y67260D01*
X287891Y67282D01*
X287925Y67301D01*
X288090Y67429D01*
X288257Y67553D01*
X288284Y67580D01*
X288314Y67603D01*
X288456Y67757D01*
X288602Y67906D01*
X288624Y67937D01*
X288650Y67965D01*
X288765Y68139D01*
X288885Y68310D01*
X288901Y68344D01*
X288922Y68376D01*
X289008Y68566D01*
X289099Y68754D01*
X289110Y68791D01*
X289125Y68826D01*
X289179Y69027D01*
X289238Y69228D01*
X289243Y69266D01*
X289253Y69302D01*
X289274Y69510D01*
X289300Y69717D01*
X289298Y69755D01*
X289302Y69793D01*
X289289Y70002D01*
X289281Y70210D01*
X289274Y70248D01*
X289271Y70286D01*
X289225Y70489D01*
X289183Y70694D01*
X289170Y70729D01*
X289161Y70767D01*
X289083Y70960D01*
X289009Y71155D01*
X288990Y71188D01*
X288975Y71223D01*
X288866Y71402D01*
X288762Y71582D01*
X288738Y71612D01*
X288718Y71644D01*
X288582Y71803D01*
X288450Y71964D01*
X288421Y71989D01*
X288396Y72018D01*
X288237Y72152D01*
X288080Y72291D01*
X288047Y72311D01*
X288018Y72335D01*
X287937Y72380D01*
X287662Y72553D01*
X287503Y72620D01*
X287421Y72665D01*
X285913Y73290D01*
X282840Y76363D01*
X281177Y80377D01*
X281177Y84723D01*
X282840Y88737D01*
X285913Y91810D01*
X287421Y92435D01*
X287455Y92452D01*
X287491Y92465D01*
X287675Y92565D01*
X287860Y92660D01*
X287891Y92682D01*
X287925Y92701D01*
X288089Y92829D01*
X288257Y92953D01*
X288284Y92980D01*
X288314Y93003D01*
X288456Y93157D01*
X288602Y93306D01*
X288624Y93337D01*
X288650Y93365D01*
X288765Y93539D01*
X288885Y93710D01*
X288901Y93744D01*
X288922Y93776D01*
X289008Y93966D01*
X289099Y94155D01*
X289110Y94191D01*
X289125Y94226D01*
X289179Y94428D01*
X289238Y94628D01*
X289243Y94665D01*
X289253Y94702D01*
X289274Y94911D01*
X289300Y95117D01*
X289298Y95155D01*
X289302Y95193D01*
X289289Y95402D01*
X289281Y95610D01*
X289274Y95648D01*
X289271Y95686D01*
X289225Y95889D01*
X289183Y96094D01*
X289170Y96129D01*
X289161Y96167D01*
X289083Y96360D01*
X289009Y96555D01*
X288990Y96588D01*
X288975Y96624D01*
X288866Y96802D01*
X288762Y96982D01*
X288738Y97012D01*
X288718Y97044D01*
X288582Y97203D01*
X288450Y97364D01*
X288421Y97390D01*
X288396Y97418D01*
X288236Y97553D01*
X288080Y97691D01*
X288047Y97711D01*
X288018Y97735D01*
X287937Y97780D01*
X287662Y97953D01*
X287504Y98020D01*
X287421Y98065D01*
X285913Y98690D01*
X282840Y101763D01*
X281177Y105777D01*
X281177Y110123D01*
X282840Y114137D01*
X285913Y117210D01*
X286186Y117323D01*
X286333Y117398D01*
X286484Y117466D01*
X286552Y117511D01*
X286625Y117548D01*
X286758Y117646D01*
X286896Y117737D01*
X286956Y117793D01*
X287022Y117841D01*
X287137Y117959D01*
X287259Y118071D01*
X287309Y118136D01*
X287366Y118194D01*
X287461Y118330D01*
X287563Y118460D01*
X287603Y118531D01*
X287649Y118598D01*
X287721Y118748D01*
X287801Y118892D01*
X287828Y118969D01*
X287863Y119043D01*
X287910Y119201D01*
X287965Y119357D01*
X287980Y119438D01*
X288003Y119516D01*
X288024Y119680D01*
X288053Y119843D01*
X288054Y119924D01*
X288064Y120006D01*
X288058Y120171D01*
X288061Y120336D01*
X288049Y120417D01*
X288046Y120499D01*
X288013Y120661D01*
X287989Y120824D01*
X287964Y120902D01*
X287948Y120982D01*
X287890Y121136D01*
X287839Y121294D01*
X287802Y121367D01*
X287774Y121444D01*
X287691Y121587D01*
X287616Y121734D01*
X287568Y121800D01*
X287527Y121871D01*
X287422Y121998D01*
X287324Y122132D01*
X287266Y122189D01*
X287214Y122253D01*
X287091Y122362D01*
X286972Y122478D01*
X286919Y122513D01*
X286844Y122579D01*
X286427Y122841D01*
X286413Y122847D01*
X286403Y122853D01*
X285843Y123139D01*
X284322Y124244D01*
X282994Y125572D01*
X281889Y127093D01*
X281036Y128767D01*
X280537Y130303D01*
X292100Y130303D01*
X303663Y130303D01*
X303164Y128767D01*
X302311Y127093D01*
X301206Y125572D01*
X299878Y124244D01*
X298357Y123139D01*
X297797Y122853D01*
X297656Y122767D01*
X297511Y122688D01*
X297446Y122638D01*
X297377Y122595D01*
X297251Y122486D01*
X297121Y122385D01*
X297066Y122325D01*
X297004Y122272D01*
X296898Y122144D01*
X296786Y122023D01*
X296741Y121955D01*
X296688Y121892D01*
X296604Y121750D01*
X296513Y121612D01*
X296479Y121538D01*
X296438Y121467D01*
X296378Y121313D01*
X296310Y121162D01*
X296289Y121084D01*
X296259Y121007D01*
X296225Y120845D01*
X296182Y120686D01*
X296174Y120605D01*
X296157Y120525D01*
X296150Y120359D01*
X296133Y120195D01*
X296138Y120114D01*
X296135Y120032D01*
X296154Y119867D01*
X296164Y119703D01*
X296182Y119623D01*
X296192Y119542D01*
X296237Y119383D01*
X296274Y119222D01*
X296305Y119146D01*
X296327Y119068D01*
X296398Y118918D01*
X296460Y118765D01*
X296503Y118695D01*
X296537Y118621D01*
X296631Y118485D01*
X296717Y118344D01*
X296770Y118282D01*
X296817Y118215D01*
X296931Y118095D01*
X297039Y117970D01*
X297102Y117917D01*
X297158Y117859D01*
X297290Y117759D01*
X297417Y117653D01*
X297473Y117622D01*
X297553Y117562D01*
X297990Y117333D01*
X298004Y117328D01*
X298014Y117323D01*
X298287Y117210D01*
X301360Y114137D01*
X303023Y110123D01*
X303023Y105777D01*
X301360Y101763D01*
X298287Y98690D01*
X296779Y98065D01*
X296745Y98048D01*
X296709Y98035D01*
X296526Y97936D01*
X296340Y97840D01*
X296309Y97818D01*
X296275Y97799D01*
X296110Y97671D01*
X295943Y97547D01*
X295916Y97520D01*
X295886Y97497D01*
X295744Y97343D01*
X295598Y97194D01*
X295576Y97163D01*
X295550Y97135D01*
X295435Y96961D01*
X295315Y96790D01*
X295299Y96756D01*
X295278Y96724D01*
X295192Y96534D01*
X295101Y96346D01*
X295090Y96309D01*
X295075Y96274D01*
X295021Y96073D01*
X294962Y95872D01*
X294957Y95834D01*
X294947Y95798D01*
X294926Y95590D01*
X294900Y95383D01*
X294902Y95345D01*
X294898Y95307D01*
X294911Y95098D01*
X294919Y94890D01*
X294926Y94852D01*
X294929Y94814D01*
X294975Y94611D01*
X295017Y94406D01*
X295030Y94371D01*
X295039Y94333D01*
X295117Y94140D01*
X295191Y93945D01*
X295210Y93912D01*
X295225Y93877D01*
X295334Y93698D01*
X295438Y93518D01*
X295462Y93488D01*
X295482Y93456D01*
X295618Y93297D01*
X295750Y93136D01*
X295779Y93111D01*
X295804Y93082D01*
X295963Y92948D01*
X296120Y92809D01*
X296153Y92789D01*
X296182Y92765D01*
X296263Y92720D01*
X296538Y92547D01*
X296697Y92480D01*
X296779Y92435D01*
X298287Y91810D01*
X301360Y88737D01*
X303023Y84723D01*
X303023Y80377D01*
X302502Y79120D01*
X302435Y78912D01*
X302364Y78706D01*
X302359Y78677D01*
X302351Y78650D01*
X302318Y78435D01*
X302281Y78219D01*
X302281Y78191D01*
X302277Y78163D01*
X302280Y77945D01*
X302278Y77726D01*
X302283Y77698D01*
X302283Y77669D01*
X302321Y77454D01*
X302355Y77238D01*
X302364Y77211D01*
X302369Y77183D01*
X302441Y76977D01*
X302509Y76770D01*
X302522Y76745D01*
X302532Y76718D01*
X302636Y76526D01*
X302737Y76332D01*
X302752Y76314D01*
X302768Y76285D01*
X303071Y75895D01*
X303130Y75840D01*
X303162Y75799D01*
X324220Y54741D01*
X324307Y54667D01*
X324388Y54586D01*
X324495Y54508D01*
X324596Y54422D01*
X324694Y54363D01*
X324786Y54296D01*
X324905Y54236D01*
X325019Y54167D01*
X325125Y54125D01*
X325227Y54073D01*
X325354Y54033D01*
X325477Y53984D01*
X325588Y53959D01*
X325697Y53925D01*
X325791Y53915D01*
X325959Y53877D01*
X326283Y53859D01*
X326375Y53849D01*
X350362Y53849D01*
X350475Y53858D01*
X350590Y53857D01*
X350721Y53878D01*
X350853Y53889D01*
X350964Y53916D01*
X351077Y53934D01*
X351203Y53975D01*
X351332Y54007D01*
X351437Y54052D01*
X351546Y54088D01*
X351664Y54150D01*
X351786Y54202D01*
X351882Y54263D01*
X351983Y54316D01*
X352057Y54375D01*
X352202Y54467D01*
X352444Y54683D01*
X352516Y54741D01*
X353074Y55299D01*
X355024Y56107D01*
X357136Y56107D01*
X359086Y55299D01*
X360579Y53806D01*
X361387Y51856D01*
X361387Y49744D01*
X360579Y47794D01*
X359136Y46351D01*
X359111Y46322D01*
X359082Y46296D01*
X358952Y46134D01*
X358816Y45975D01*
X358796Y45942D01*
X358772Y45912D01*
X358669Y45731D01*
X358562Y45552D01*
X358547Y45517D01*
X358528Y45484D01*
X358456Y45288D01*
X358378Y45094D01*
X358370Y45057D01*
X358357Y45021D01*
X358317Y44816D01*
X358272Y44613D01*
X358269Y44574D01*
X358262Y44537D01*
X358256Y44329D01*
X358244Y44120D01*
X358248Y44082D01*
X358247Y44044D01*
X358274Y43837D01*
X358296Y43629D01*
X358306Y43593D01*
X358311Y43555D01*
X358372Y43354D01*
X358427Y43154D01*
X358443Y43119D01*
X358454Y43082D01*
X358546Y42895D01*
X358633Y42705D01*
X358654Y42674D01*
X358671Y42639D01*
X358791Y42469D01*
X358908Y42296D01*
X358934Y42268D01*
X358956Y42237D01*
X359103Y42089D01*
X359246Y41936D01*
X359276Y41913D01*
X359303Y41886D01*
X359471Y41763D01*
X359637Y41636D01*
X359671Y41618D01*
X359702Y41596D01*
X359888Y41502D01*
X360072Y41403D01*
X360108Y41391D01*
X360142Y41373D01*
X360342Y41310D01*
X360539Y41243D01*
X360576Y41237D01*
X360613Y41225D01*
X360705Y41215D01*
X361025Y41160D01*
X361197Y41159D01*
X361290Y41149D01*
X438404Y41149D01*
X438480Y41155D01*
X438556Y41153D01*
X438725Y41175D01*
X438896Y41189D01*
X438970Y41207D01*
X439045Y41217D01*
X439209Y41266D01*
X439375Y41307D01*
X439444Y41337D01*
X439518Y41359D01*
X439671Y41435D01*
X439828Y41502D01*
X439892Y41543D01*
X439961Y41576D01*
X440100Y41675D01*
X440244Y41767D01*
X440301Y41818D01*
X440363Y41862D01*
X440484Y41982D01*
X440612Y42096D01*
X440660Y42155D01*
X440714Y42209D01*
X440815Y42347D01*
X440922Y42480D01*
X440959Y42546D01*
X441004Y42607D01*
X441081Y42760D01*
X441166Y42908D01*
X441192Y42980D01*
X441227Y43048D01*
X441278Y43211D01*
X441337Y43371D01*
X441352Y43446D01*
X441375Y43518D01*
X441387Y43623D01*
X441432Y43855D01*
X441439Y44091D01*
X441451Y44196D01*
X441451Y45082D01*
X441442Y45195D01*
X441443Y45310D01*
X441422Y45441D01*
X441411Y45573D01*
X441384Y45684D01*
X441366Y45797D01*
X441325Y45923D01*
X441293Y46052D01*
X441248Y46157D01*
X441212Y46266D01*
X441150Y46384D01*
X441098Y46506D01*
X441037Y46602D01*
X440984Y46703D01*
X440925Y46777D01*
X440833Y46922D01*
X440617Y47164D01*
X440559Y47236D01*
X440001Y47794D01*
X439193Y49744D01*
X439193Y51856D01*
X440001Y53806D01*
X441494Y55299D01*
X443444Y56107D01*
X445556Y56107D01*
X447506Y55299D01*
X448949Y53856D01*
X448978Y53831D01*
X449004Y53802D01*
X449166Y53672D01*
X449325Y53536D01*
X449358Y53516D01*
X449388Y53492D01*
X449569Y53389D01*
X449748Y53282D01*
X449783Y53267D01*
X449816Y53248D01*
X450012Y53176D01*
X450206Y53098D01*
X450243Y53090D01*
X450279Y53077D01*
X450483Y53037D01*
X450687Y52992D01*
X450726Y52989D01*
X450763Y52982D01*
X450971Y52976D01*
X451180Y52964D01*
X451218Y52968D01*
X451256Y52967D01*
X451463Y52994D01*
X451671Y53016D01*
X451707Y53026D01*
X451745Y53031D01*
X451946Y53092D01*
X452146Y53147D01*
X452181Y53163D01*
X452218Y53174D01*
X452405Y53266D01*
X452595Y53353D01*
X452626Y53374D01*
X452661Y53391D01*
X452831Y53511D01*
X453004Y53628D01*
X453032Y53654D01*
X453063Y53676D01*
X453211Y53823D01*
X453364Y53966D01*
X453387Y53996D01*
X453414Y54023D01*
X453537Y54191D01*
X453664Y54357D01*
X453682Y54391D01*
X453704Y54422D01*
X453798Y54608D01*
X453897Y54792D01*
X453909Y54828D01*
X453927Y54862D01*
X453990Y55062D01*
X454057Y55259D01*
X454063Y55296D01*
X454075Y55333D01*
X454085Y55425D01*
X454140Y55745D01*
X454141Y55917D01*
X454151Y56010D01*
X454151Y57782D01*
X454142Y57895D01*
X454143Y58010D01*
X454122Y58141D01*
X454111Y58273D01*
X454084Y58384D01*
X454066Y58497D01*
X454025Y58623D01*
X453993Y58752D01*
X453948Y58857D01*
X453912Y58966D01*
X453850Y59084D01*
X453798Y59206D01*
X453737Y59302D01*
X453684Y59403D01*
X453625Y59477D01*
X453533Y59622D01*
X453317Y59864D01*
X453259Y59936D01*
X452701Y60494D01*
X451893Y62444D01*
X451893Y64556D01*
X452701Y66506D01*
X454194Y67999D01*
X456144Y68807D01*
X457200Y68807D01*
X457276Y68813D01*
X457352Y68811D01*
X457521Y68833D01*
X457692Y68847D01*
X457766Y68865D01*
X457841Y68875D01*
X458005Y68924D01*
X458171Y68965D01*
X458240Y68995D01*
X458314Y69017D01*
X458467Y69093D01*
X458624Y69160D01*
X458688Y69201D01*
X458757Y69234D01*
X458896Y69333D01*
X459040Y69425D01*
X459097Y69476D01*
X459159Y69520D01*
X459280Y69640D01*
X459408Y69754D01*
X459456Y69813D01*
X459510Y69867D01*
X459611Y70005D01*
X459718Y70138D01*
X459755Y70204D01*
X459800Y70265D01*
X459877Y70418D01*
X459962Y70566D01*
X459988Y70638D01*
X460023Y70706D01*
X460074Y70869D01*
X460133Y71029D01*
X460148Y71104D01*
X460171Y71176D01*
X460183Y71281D01*
X460228Y71513D01*
X460235Y71749D01*
X460247Y71854D01*
X460247Y254000D01*
X460242Y254060D01*
X460243Y254093D01*
X460242Y254104D01*
X460243Y254152D01*
X460221Y254321D01*
X460207Y254492D01*
X460189Y254566D01*
X460179Y254641D01*
X460130Y254805D01*
X460089Y254971D01*
X460059Y255040D01*
X460037Y255114D01*
X459961Y255267D01*
X459894Y255424D01*
X459853Y255488D01*
X459820Y255557D01*
X459721Y255696D01*
X459629Y255840D01*
X459578Y255897D01*
X459534Y255959D01*
X459414Y256080D01*
X459300Y256208D01*
X459241Y256256D01*
X459187Y256310D01*
X459049Y256411D01*
X458916Y256518D01*
X458850Y256555D01*
X458789Y256600D01*
X458636Y256677D01*
X458488Y256762D01*
X458416Y256788D01*
X458348Y256823D01*
X458185Y256874D01*
X458025Y256933D01*
X457950Y256948D01*
X457878Y256971D01*
X457773Y256983D01*
X457541Y257028D01*
X457305Y257035D01*
X457200Y257047D01*
X25744Y257047D01*
X25700Y257044D01*
X25655Y257046D01*
X25454Y257024D01*
X25253Y257007D01*
X25209Y256997D01*
X25165Y256992D01*
X24970Y256937D01*
X24774Y256889D01*
X24733Y256871D01*
X24690Y256859D01*
X24506Y256774D01*
X24320Y256694D01*
X24283Y256670D01*
X24242Y256651D01*
X24075Y256538D01*
X23904Y256429D01*
X23871Y256399D01*
X23834Y256374D01*
X23687Y256235D01*
X23537Y256100D01*
X23508Y256065D01*
X23476Y256035D01*
X23354Y255874D01*
X23227Y255716D01*
X23204Y255678D01*
X23177Y255642D01*
X23082Y255463D01*
X22983Y255288D01*
X22967Y255246D01*
X22946Y255206D01*
X22881Y255015D01*
X22811Y254825D01*
X22802Y254781D01*
X22788Y254739D01*
X22755Y254539D01*
X22716Y254341D01*
X22715Y254296D01*
X22708Y254252D01*
X22707Y254049D01*
X22701Y253848D01*
X22707Y253804D01*
X22707Y253759D01*
X22739Y253559D01*
X22765Y253359D01*
X22778Y253316D01*
X22785Y253272D01*
X22849Y253080D01*
X22908Y252887D01*
X22928Y252846D01*
X22942Y252804D01*
X23036Y252625D01*
X23125Y252443D01*
X23151Y252407D01*
X23172Y252367D01*
X23233Y252291D01*
X23410Y252041D01*
X23538Y251911D01*
X23599Y251836D01*
X93064Y182976D01*
X93065Y182976D01*
X93069Y182972D01*
X93254Y182816D01*
X93264Y182807D01*
X94914Y181142D01*
X94926Y181132D01*
X94933Y181123D01*
X96360Y179709D01*
X97121Y177849D01*
X97128Y177835D01*
X97131Y177824D01*
X97908Y175971D01*
X97899Y173962D01*
X97901Y173946D01*
X97899Y173935D01*
X97908Y171925D01*
X97131Y170073D01*
X97126Y170058D01*
X97121Y170048D01*
X96360Y168188D01*
X94933Y166773D01*
X94923Y166761D01*
X94914Y166754D01*
X93287Y165113D01*
X93203Y165050D01*
X93124Y164969D01*
X93069Y164925D01*
X84695Y156624D01*
X84641Y156561D01*
X84580Y156504D01*
X84480Y156374D01*
X84374Y156250D01*
X84331Y156179D01*
X84280Y156113D01*
X84203Y155968D01*
X84117Y155828D01*
X84086Y155751D01*
X84047Y155678D01*
X83994Y155523D01*
X83932Y155371D01*
X83914Y155290D01*
X83887Y155212D01*
X83859Y155050D01*
X83823Y154890D01*
X83818Y154807D01*
X83804Y154725D01*
X83803Y154561D01*
X83793Y154397D01*
X83802Y154315D01*
X83801Y154232D01*
X83827Y154070D01*
X83844Y153906D01*
X83865Y153826D01*
X83878Y153745D01*
X83929Y153589D01*
X83972Y153430D01*
X84006Y153355D01*
X84032Y153276D01*
X84108Y153130D01*
X84176Y152981D01*
X84222Y152912D01*
X84260Y152838D01*
X84325Y152757D01*
X84449Y152570D01*
X84620Y152387D01*
X84685Y152305D01*
X152643Y84348D01*
X152701Y84298D01*
X152753Y84243D01*
X152889Y84139D01*
X153019Y84028D01*
X153084Y83989D01*
X153145Y83943D01*
X153295Y83862D01*
X153441Y83774D01*
X153512Y83745D01*
X153579Y83709D01*
X153741Y83654D01*
X153899Y83591D01*
X153974Y83574D01*
X154046Y83549D01*
X154215Y83521D01*
X154381Y83484D01*
X154457Y83479D01*
X154532Y83467D01*
X154703Y83466D01*
X154874Y83456D01*
X154949Y83464D01*
X155026Y83464D01*
X155195Y83490D01*
X155364Y83508D01*
X155438Y83528D01*
X155513Y83540D01*
X155675Y83594D01*
X155840Y83639D01*
X155909Y83671D01*
X155982Y83695D01*
X156133Y83773D01*
X156288Y83845D01*
X156352Y83887D01*
X156419Y83922D01*
X156502Y83988D01*
X156698Y84120D01*
X156870Y84282D01*
X156952Y84348D01*
X167224Y94619D01*
X168193Y95588D01*
X171927Y97135D01*
X175969Y97135D01*
X179704Y95588D01*
X264239Y11053D01*
X264326Y10979D01*
X264406Y10898D01*
X264513Y10820D01*
X264615Y10734D01*
X264712Y10675D01*
X264805Y10608D01*
X264923Y10548D01*
X265037Y10479D01*
X265143Y10437D01*
X265245Y10385D01*
X265372Y10345D01*
X265495Y10296D01*
X265607Y10271D01*
X265716Y10237D01*
X265809Y10227D01*
X265977Y10189D01*
X266301Y10171D01*
X266393Y10161D01*
X457200Y10161D01*
X457276Y10167D01*
G37*
%LPC*%
G36*
X292100Y136397D02*
X292100Y136397D01*
X280537Y136397D01*
X281036Y137933D01*
X281889Y139607D01*
X282994Y141128D01*
X284322Y142456D01*
X285843Y143561D01*
X286403Y143847D01*
X286544Y143933D01*
X286689Y144012D01*
X286754Y144062D01*
X286823Y144105D01*
X286949Y144214D01*
X287079Y144315D01*
X287134Y144375D01*
X287196Y144428D01*
X287302Y144556D01*
X287414Y144677D01*
X287459Y144745D01*
X287512Y144808D01*
X287596Y144950D01*
X287687Y145088D01*
X287721Y145162D01*
X287762Y145233D01*
X287822Y145387D01*
X287890Y145538D01*
X287911Y145616D01*
X287941Y145693D01*
X287975Y145855D01*
X288018Y146014D01*
X288026Y146095D01*
X288043Y146175D01*
X288050Y146341D01*
X288067Y146505D01*
X288062Y146586D01*
X288065Y146668D01*
X288046Y146833D01*
X288036Y146997D01*
X288018Y147077D01*
X288008Y147158D01*
X287963Y147317D01*
X287926Y147478D01*
X287895Y147554D01*
X287873Y147632D01*
X287802Y147782D01*
X287740Y147935D01*
X287697Y148005D01*
X287663Y148079D01*
X287569Y148215D01*
X287483Y148356D01*
X287430Y148418D01*
X287383Y148485D01*
X287269Y148605D01*
X287161Y148730D01*
X287098Y148783D01*
X287042Y148841D01*
X286910Y148941D01*
X286783Y149047D01*
X286727Y149078D01*
X286647Y149138D01*
X286210Y149367D01*
X286196Y149372D01*
X286186Y149377D01*
X285913Y149490D01*
X282840Y152563D01*
X281177Y156577D01*
X281177Y160923D01*
X282840Y164937D01*
X285913Y168010D01*
X289927Y169673D01*
X294273Y169673D01*
X298287Y168010D01*
X301360Y164937D01*
X303023Y160923D01*
X303023Y156577D01*
X301360Y152563D01*
X298287Y149490D01*
X298014Y149377D01*
X297867Y149302D01*
X297716Y149234D01*
X297648Y149189D01*
X297575Y149152D01*
X297442Y149054D01*
X297304Y148963D01*
X297244Y148907D01*
X297178Y148859D01*
X297063Y148741D01*
X296941Y148629D01*
X296891Y148564D01*
X296834Y148506D01*
X296739Y148370D01*
X296637Y148240D01*
X296597Y148169D01*
X296551Y148102D01*
X296479Y147952D01*
X296399Y147808D01*
X296372Y147731D01*
X296337Y147657D01*
X296290Y147499D01*
X296235Y147343D01*
X296220Y147262D01*
X296197Y147184D01*
X296176Y147020D01*
X296147Y146857D01*
X296146Y146776D01*
X296136Y146694D01*
X296142Y146529D01*
X296139Y146364D01*
X296151Y146283D01*
X296154Y146201D01*
X296187Y146039D01*
X296211Y145876D01*
X296236Y145798D01*
X296252Y145718D01*
X296310Y145564D01*
X296361Y145406D01*
X296398Y145333D01*
X296426Y145256D01*
X296509Y145113D01*
X296584Y144966D01*
X296632Y144900D01*
X296673Y144829D01*
X296778Y144702D01*
X296876Y144568D01*
X296934Y144511D01*
X296986Y144447D01*
X297109Y144338D01*
X297228Y144222D01*
X297281Y144187D01*
X297356Y144121D01*
X297773Y143859D01*
X297787Y143853D01*
X297797Y143847D01*
X298357Y143561D01*
X299878Y142456D01*
X301206Y141128D01*
X302311Y139607D01*
X303164Y137933D01*
X303663Y136397D01*
X292100Y136397D01*
X292100Y136397D01*
G37*
%LPD*%
D10*
X292100Y107950D03*
X292100Y57150D03*
X292100Y158750D03*
X292100Y82550D03*
X292100Y133350D03*
X292100Y31750D03*
D11*
X323850Y76200D03*
D12*
X95250Y146050D03*
X425450Y152400D03*
D11*
X482600Y152400D03*
D13*
X825500Y152400D02*
X863600Y152400D01*
X825500Y152400D02*
X774700Y152400D01*
X723900Y152400D01*
X673100Y152400D01*
X622300Y152400D01*
X571500Y152400D02*
X482600Y152400D01*
D11*
X863600Y152400D03*
X571500Y152400D03*
D13*
X622300Y152400D01*
D11*
X622300Y152400D03*
X673100Y152400D03*
X723900Y152400D03*
X774700Y152400D03*
X825500Y152400D03*
X863600Y190500D03*
X535600Y190500D03*
D13*
X622300Y190500D01*
X673100Y190500D01*
X723900Y190500D01*
X774700Y190500D01*
X825500Y190500D01*
X863600Y190500D01*
D11*
X622300Y190500D03*
X673100Y190500D03*
X723900Y190500D03*
X774700Y190500D03*
X825500Y190500D03*
X520700Y241300D03*
D13*
X586400Y241300D01*
D11*
X863600Y241300D03*
D13*
X673100Y241300D02*
X586400Y241300D01*
X774700Y241300D02*
X825500Y241300D01*
X863600Y241300D01*
D11*
X673100Y241300D03*
D13*
X723900Y241300D01*
D11*
X723900Y241300D03*
D13*
X774700Y241300D01*
D11*
X774700Y241300D03*
X825500Y241300D03*
X586400Y241300D03*
X520700Y292100D03*
D13*
X571500Y292100D01*
D11*
X863600Y292100D03*
D13*
X637200Y292100D02*
X571500Y292100D01*
X637200Y292100D02*
X723900Y292100D01*
X774700Y292100D01*
X825500Y292100D01*
X863600Y292100D01*
D11*
X825500Y292100D03*
X774700Y292100D03*
X723900Y292100D03*
X571500Y292100D03*
X637200Y292100D03*
X520700Y444500D03*
D13*
X571500Y444500D01*
D11*
X863600Y444500D03*
D13*
X673100Y444500D02*
X622300Y444500D01*
X673100Y444500D02*
X723900Y444500D01*
X789600Y444500D01*
X863600Y444500D01*
D11*
X571500Y444500D03*
D13*
X622300Y444500D01*
D11*
X622300Y444500D03*
X673100Y444500D03*
X723900Y444500D03*
X789600Y444500D03*
X520700Y393700D03*
D13*
X571500Y393700D01*
D11*
X863600Y393700D03*
D13*
X622300Y393700D02*
X571500Y393700D01*
X622300Y393700D02*
X673100Y393700D01*
X738800Y393700D01*
X825500Y393700D01*
X863600Y393700D01*
D11*
X825500Y393700D03*
X571500Y393700D03*
X622300Y393700D03*
X673100Y393700D03*
X738800Y393700D03*
X520700Y342900D03*
X863600Y342900D03*
D13*
X571500Y342900D02*
X520700Y342900D01*
X571500Y342900D02*
X622300Y342900D01*
X688000Y342900D01*
X774700Y342900D01*
X825500Y342900D01*
X863600Y342900D01*
D11*
X825500Y342900D03*
X774700Y342900D03*
X622300Y342900D03*
X688000Y342900D03*
X571500Y342900D03*
D13*
X292100Y57150D02*
X311150Y38100D01*
X444500Y38100D01*
X444500Y50800D01*
D11*
X444500Y50800D03*
D13*
X323850Y50800D02*
X292100Y82550D01*
D11*
X356080Y50800D03*
D13*
X323850Y50800D01*
D11*
X457200Y63500D03*
D13*
X457200Y25400D02*
X298450Y25400D01*
X457200Y25400D02*
X457200Y63500D01*
X298450Y25400D02*
X292100Y31750D01*
M02*
