G04 #@! TF.GenerationSoftware,KiCad,Pcbnew,(5.1.6-0-10_14)*
G04 #@! TF.CreationDate,2020-08-08T16:53:34-04:00*
G04 #@! TF.ProjectId,business-card-v4-programmer-board-pcb,62757369-6e65-4737-932d-636172642d76,rev?*
G04 #@! TF.SameCoordinates,Original*
G04 #@! TF.FileFunction,Soldermask,Top*
G04 #@! TF.FilePolarity,Negative*
%FSLAX46Y46*%
G04 Gerber Fmt 4.6, Leading zero omitted, Abs format (unit mm)*
G04 Created by KiCad (PCBNEW (5.1.6-0-10_14)) date 2020-08-08 16:53:34*
%MOMM*%
%LPD*%
G01*
G04 APERTURE LIST*
%ADD10C,0.100000*%
G04 APERTURE END LIST*
D10*
G36*
X193535787Y-151585462D02*
G01*
X193535790Y-151585463D01*
X193535789Y-151585463D01*
X194182029Y-151853144D01*
X194763631Y-152241758D01*
X195258242Y-152736369D01*
X195646856Y-153317971D01*
X195754552Y-153577973D01*
X195914538Y-153964213D01*
X196051000Y-154650256D01*
X196051000Y-155349744D01*
X195914538Y-156035787D01*
X195914537Y-156035789D01*
X195646856Y-156682029D01*
X195258242Y-157263631D01*
X194763631Y-157758242D01*
X194182029Y-158146856D01*
X193994905Y-158224365D01*
X193535787Y-158414538D01*
X192849744Y-158551000D01*
X192150256Y-158551000D01*
X191464213Y-158414538D01*
X191005095Y-158224365D01*
X190817971Y-158146856D01*
X190236369Y-157758242D01*
X189741758Y-157263631D01*
X189353144Y-156682029D01*
X189085463Y-156035789D01*
X189085462Y-156035787D01*
X188949000Y-155349744D01*
X188949000Y-154650256D01*
X189085462Y-153964213D01*
X189245448Y-153577973D01*
X189353144Y-153317971D01*
X189741758Y-152736369D01*
X190236369Y-152241758D01*
X190817971Y-151853144D01*
X191464211Y-151585463D01*
X191464210Y-151585463D01*
X191464213Y-151585462D01*
X192150256Y-151449000D01*
X192849744Y-151449000D01*
X193535787Y-151585462D01*
G37*
G36*
X166651000Y-158551000D02*
G01*
X165349000Y-158551000D01*
X165349000Y-155949000D01*
X166651000Y-155949000D01*
X166651000Y-158551000D01*
G37*
G36*
X164151000Y-158551000D02*
G01*
X162849000Y-158551000D01*
X162849000Y-155949000D01*
X164151000Y-155949000D01*
X164151000Y-158551000D01*
G37*
G36*
X161651000Y-158551000D02*
G01*
X160349000Y-158551000D01*
X160349000Y-155949000D01*
X161651000Y-155949000D01*
X161651000Y-158551000D01*
G37*
G36*
X103535787Y-151585462D02*
G01*
X103535790Y-151585463D01*
X103535789Y-151585463D01*
X104182029Y-151853144D01*
X104763631Y-152241758D01*
X105258242Y-152736369D01*
X105646856Y-153317971D01*
X105754552Y-153577973D01*
X105914538Y-153964213D01*
X106051000Y-154650256D01*
X106051000Y-155349744D01*
X105914538Y-156035787D01*
X105914537Y-156035789D01*
X105646856Y-156682029D01*
X105258242Y-157263631D01*
X104763631Y-157758242D01*
X104182029Y-158146856D01*
X103994905Y-158224365D01*
X103535787Y-158414538D01*
X102849744Y-158551000D01*
X102150256Y-158551000D01*
X101464213Y-158414538D01*
X101005095Y-158224365D01*
X100817971Y-158146856D01*
X100236369Y-157758242D01*
X99741758Y-157263631D01*
X99353144Y-156682029D01*
X99085463Y-156035789D01*
X99085462Y-156035787D01*
X98949000Y-155349744D01*
X98949000Y-154650256D01*
X99085462Y-153964213D01*
X99245448Y-153577973D01*
X99353144Y-153317971D01*
X99741758Y-152736369D01*
X100236369Y-152241758D01*
X100817971Y-151853144D01*
X101464211Y-151585463D01*
X101464210Y-151585463D01*
X101464213Y-151585462D01*
X102150256Y-151449000D01*
X102849744Y-151449000D01*
X103535787Y-151585462D01*
G37*
G36*
X150806564Y-156397389D02*
G01*
X150949232Y-156456484D01*
X150997835Y-156476616D01*
X151041573Y-156505841D01*
X151169973Y-156591635D01*
X151316365Y-156738027D01*
X151431385Y-156910167D01*
X151510611Y-157101436D01*
X151551000Y-157304484D01*
X151551000Y-157511516D01*
X151510611Y-157714564D01*
X151431385Y-157905833D01*
X151431384Y-157905835D01*
X151316365Y-158077973D01*
X151169973Y-158224365D01*
X150997835Y-158339384D01*
X150997834Y-158339385D01*
X150997833Y-158339385D01*
X150806564Y-158418611D01*
X150603516Y-158459000D01*
X150396484Y-158459000D01*
X150193436Y-158418611D01*
X150002167Y-158339385D01*
X150002166Y-158339385D01*
X150002165Y-158339384D01*
X149830027Y-158224365D01*
X149683635Y-158077973D01*
X149568616Y-157905835D01*
X149568615Y-157905833D01*
X149489389Y-157714564D01*
X149449000Y-157511516D01*
X149449000Y-157304484D01*
X149489389Y-157101436D01*
X149568615Y-156910167D01*
X149683635Y-156738027D01*
X149830027Y-156591635D01*
X149958427Y-156505841D01*
X150002165Y-156476616D01*
X150050768Y-156456484D01*
X150193436Y-156397389D01*
X150396484Y-156357000D01*
X150603516Y-156357000D01*
X150806564Y-156397389D01*
G37*
G36*
X144306564Y-156397389D02*
G01*
X144449232Y-156456484D01*
X144497835Y-156476616D01*
X144541573Y-156505841D01*
X144669973Y-156591635D01*
X144816365Y-156738027D01*
X144931385Y-156910167D01*
X145010611Y-157101436D01*
X145051000Y-157304484D01*
X145051000Y-157511516D01*
X145010611Y-157714564D01*
X144931385Y-157905833D01*
X144931384Y-157905835D01*
X144816365Y-158077973D01*
X144669973Y-158224365D01*
X144497835Y-158339384D01*
X144497834Y-158339385D01*
X144497833Y-158339385D01*
X144306564Y-158418611D01*
X144103516Y-158459000D01*
X143896484Y-158459000D01*
X143693436Y-158418611D01*
X143502167Y-158339385D01*
X143502166Y-158339385D01*
X143502165Y-158339384D01*
X143330027Y-158224365D01*
X143183635Y-158077973D01*
X143068616Y-157905835D01*
X143068615Y-157905833D01*
X142989389Y-157714564D01*
X142949000Y-157511516D01*
X142949000Y-157304484D01*
X142989389Y-157101436D01*
X143068615Y-156910167D01*
X143183635Y-156738027D01*
X143330027Y-156591635D01*
X143458427Y-156505841D01*
X143502165Y-156476616D01*
X143550768Y-156456484D01*
X143693436Y-156397389D01*
X143896484Y-156357000D01*
X144103516Y-156357000D01*
X144306564Y-156397389D01*
G37*
G36*
X157309468Y-155753565D02*
G01*
X157348138Y-155765296D01*
X157383777Y-155784346D01*
X157415017Y-155809983D01*
X157440654Y-155841223D01*
X157459704Y-155876862D01*
X157471435Y-155915532D01*
X157476000Y-155961888D01*
X157476000Y-157038112D01*
X157471435Y-157084468D01*
X157459704Y-157123138D01*
X157440654Y-157158777D01*
X157415017Y-157190017D01*
X157383777Y-157215654D01*
X157348138Y-157234704D01*
X157309468Y-157246435D01*
X157263112Y-157251000D01*
X156611888Y-157251000D01*
X156565532Y-157246435D01*
X156526862Y-157234704D01*
X156491223Y-157215654D01*
X156459983Y-157190017D01*
X156434346Y-157158777D01*
X156415296Y-157123138D01*
X156403565Y-157084468D01*
X156399000Y-157038112D01*
X156399000Y-155961888D01*
X156403565Y-155915532D01*
X156415296Y-155876862D01*
X156434346Y-155841223D01*
X156459983Y-155809983D01*
X156491223Y-155784346D01*
X156526862Y-155765296D01*
X156565532Y-155753565D01*
X156611888Y-155749000D01*
X157263112Y-155749000D01*
X157309468Y-155753565D01*
G37*
G36*
X155434468Y-155753565D02*
G01*
X155473138Y-155765296D01*
X155508777Y-155784346D01*
X155540017Y-155809983D01*
X155565654Y-155841223D01*
X155584704Y-155876862D01*
X155596435Y-155915532D01*
X155601000Y-155961888D01*
X155601000Y-157038112D01*
X155596435Y-157084468D01*
X155584704Y-157123138D01*
X155565654Y-157158777D01*
X155540017Y-157190017D01*
X155508777Y-157215654D01*
X155473138Y-157234704D01*
X155434468Y-157246435D01*
X155388112Y-157251000D01*
X154736888Y-157251000D01*
X154690532Y-157246435D01*
X154651862Y-157234704D01*
X154616223Y-157215654D01*
X154584983Y-157190017D01*
X154559346Y-157158777D01*
X154540296Y-157123138D01*
X154528565Y-157084468D01*
X154524000Y-157038112D01*
X154524000Y-155961888D01*
X154528565Y-155915532D01*
X154540296Y-155876862D01*
X154559346Y-155841223D01*
X154584983Y-155809983D01*
X154616223Y-155784346D01*
X154651862Y-155765296D01*
X154690532Y-155753565D01*
X154736888Y-155749000D01*
X155388112Y-155749000D01*
X155434468Y-155753565D01*
G37*
G36*
X155434468Y-152753565D02*
G01*
X155473138Y-152765296D01*
X155508777Y-152784346D01*
X155540017Y-152809983D01*
X155565654Y-152841223D01*
X155584704Y-152876862D01*
X155596435Y-152915532D01*
X155601000Y-152961888D01*
X155601000Y-154038112D01*
X155596435Y-154084468D01*
X155584704Y-154123138D01*
X155565654Y-154158777D01*
X155540017Y-154190017D01*
X155508777Y-154215654D01*
X155473138Y-154234704D01*
X155434468Y-154246435D01*
X155388112Y-154251000D01*
X154736888Y-154251000D01*
X154690532Y-154246435D01*
X154651862Y-154234704D01*
X154616223Y-154215654D01*
X154584983Y-154190017D01*
X154559346Y-154158777D01*
X154540296Y-154123138D01*
X154528565Y-154084468D01*
X154524000Y-154038112D01*
X154524000Y-152961888D01*
X154528565Y-152915532D01*
X154540296Y-152876862D01*
X154559346Y-152841223D01*
X154584983Y-152809983D01*
X154616223Y-152784346D01*
X154651862Y-152765296D01*
X154690532Y-152753565D01*
X154736888Y-152749000D01*
X155388112Y-152749000D01*
X155434468Y-152753565D01*
G37*
G36*
X157309468Y-152753565D02*
G01*
X157348138Y-152765296D01*
X157383777Y-152784346D01*
X157415017Y-152809983D01*
X157440654Y-152841223D01*
X157459704Y-152876862D01*
X157471435Y-152915532D01*
X157476000Y-152961888D01*
X157476000Y-154038112D01*
X157471435Y-154084468D01*
X157459704Y-154123138D01*
X157440654Y-154158777D01*
X157415017Y-154190017D01*
X157383777Y-154215654D01*
X157348138Y-154234704D01*
X157309468Y-154246435D01*
X157263112Y-154251000D01*
X156611888Y-154251000D01*
X156565532Y-154246435D01*
X156526862Y-154234704D01*
X156491223Y-154215654D01*
X156459983Y-154190017D01*
X156434346Y-154158777D01*
X156415296Y-154123138D01*
X156403565Y-154084468D01*
X156399000Y-154038112D01*
X156399000Y-152961888D01*
X156403565Y-152915532D01*
X156415296Y-152876862D01*
X156434346Y-152841223D01*
X156459983Y-152809983D01*
X156491223Y-152784346D01*
X156526862Y-152765296D01*
X156565532Y-152753565D01*
X156611888Y-152749000D01*
X157263112Y-152749000D01*
X157309468Y-152753565D01*
G37*
G36*
X150806564Y-151897389D02*
G01*
X150994728Y-151975329D01*
X150997835Y-151976616D01*
X151069777Y-152024686D01*
X151169973Y-152091635D01*
X151316365Y-152238027D01*
X151431385Y-152410167D01*
X151510611Y-152601436D01*
X151551000Y-152804484D01*
X151551000Y-153011516D01*
X151510611Y-153214564D01*
X151467778Y-153317972D01*
X151431384Y-153405835D01*
X151316365Y-153577973D01*
X151169973Y-153724365D01*
X150997835Y-153839384D01*
X150997834Y-153839385D01*
X150997833Y-153839385D01*
X150806564Y-153918611D01*
X150603516Y-153959000D01*
X150396484Y-153959000D01*
X150193436Y-153918611D01*
X150002167Y-153839385D01*
X150002166Y-153839385D01*
X150002165Y-153839384D01*
X149830027Y-153724365D01*
X149683635Y-153577973D01*
X149568616Y-153405835D01*
X149532222Y-153317972D01*
X149489389Y-153214564D01*
X149449000Y-153011516D01*
X149449000Y-152804484D01*
X149489389Y-152601436D01*
X149568615Y-152410167D01*
X149683635Y-152238027D01*
X149830027Y-152091635D01*
X149930223Y-152024686D01*
X150002165Y-151976616D01*
X150005272Y-151975329D01*
X150193436Y-151897389D01*
X150396484Y-151857000D01*
X150603516Y-151857000D01*
X150806564Y-151897389D01*
G37*
G36*
X144306564Y-151897389D02*
G01*
X144494728Y-151975329D01*
X144497835Y-151976616D01*
X144569777Y-152024686D01*
X144669973Y-152091635D01*
X144816365Y-152238027D01*
X144931385Y-152410167D01*
X145010611Y-152601436D01*
X145051000Y-152804484D01*
X145051000Y-153011516D01*
X145010611Y-153214564D01*
X144967778Y-153317972D01*
X144931384Y-153405835D01*
X144816365Y-153577973D01*
X144669973Y-153724365D01*
X144497835Y-153839384D01*
X144497834Y-153839385D01*
X144497833Y-153839385D01*
X144306564Y-153918611D01*
X144103516Y-153959000D01*
X143896484Y-153959000D01*
X143693436Y-153918611D01*
X143502167Y-153839385D01*
X143502166Y-153839385D01*
X143502165Y-153839384D01*
X143330027Y-153724365D01*
X143183635Y-153577973D01*
X143068616Y-153405835D01*
X143032222Y-153317972D01*
X142989389Y-153214564D01*
X142949000Y-153011516D01*
X142949000Y-152804484D01*
X142989389Y-152601436D01*
X143068615Y-152410167D01*
X143183635Y-152238027D01*
X143330027Y-152091635D01*
X143430223Y-152024686D01*
X143502165Y-151976616D01*
X143505272Y-151975329D01*
X143693436Y-151897389D01*
X143896484Y-151857000D01*
X144103516Y-151857000D01*
X144306564Y-151897389D01*
G37*
G36*
X164151000Y-153051000D02*
G01*
X162849000Y-153051000D01*
X162849000Y-150449000D01*
X164151000Y-150449000D01*
X164151000Y-153051000D01*
G37*
G36*
X161651000Y-153051000D02*
G01*
X160349000Y-153051000D01*
X160349000Y-150449000D01*
X161651000Y-150449000D01*
X161651000Y-153051000D01*
G37*
G36*
X166651000Y-153051000D02*
G01*
X165349000Y-153051000D01*
X165349000Y-150449000D01*
X166651000Y-150449000D01*
X166651000Y-153051000D01*
G37*
G36*
X135263512Y-125813927D02*
G01*
X135412812Y-125843624D01*
X135576784Y-125911544D01*
X135724354Y-126010147D01*
X135849853Y-126135646D01*
X135948456Y-126283216D01*
X136016376Y-126447188D01*
X136051000Y-126621259D01*
X136051000Y-126798741D01*
X136016376Y-126972812D01*
X135948456Y-127136784D01*
X135849853Y-127284354D01*
X135724354Y-127409853D01*
X135576784Y-127508456D01*
X135412812Y-127576376D01*
X135263512Y-127606073D01*
X135238742Y-127611000D01*
X135061258Y-127611000D01*
X135036488Y-127606073D01*
X134887188Y-127576376D01*
X134723216Y-127508456D01*
X134575646Y-127409853D01*
X134450147Y-127284354D01*
X134351544Y-127136784D01*
X134283624Y-126972812D01*
X134249000Y-126798741D01*
X134249000Y-126621259D01*
X134283624Y-126447188D01*
X134351544Y-126283216D01*
X134450147Y-126135646D01*
X134575646Y-126010147D01*
X134723216Y-125911544D01*
X134887188Y-125843624D01*
X135036488Y-125813927D01*
X135061258Y-125809000D01*
X135238742Y-125809000D01*
X135263512Y-125813927D01*
G37*
G36*
X135263512Y-123273927D02*
G01*
X135412812Y-123303624D01*
X135576784Y-123371544D01*
X135724354Y-123470147D01*
X135849853Y-123595646D01*
X135948456Y-123743216D01*
X136016376Y-123907188D01*
X136051000Y-124081259D01*
X136051000Y-124258741D01*
X136016376Y-124432812D01*
X135948456Y-124596784D01*
X135849853Y-124744354D01*
X135724354Y-124869853D01*
X135576784Y-124968456D01*
X135412812Y-125036376D01*
X135263512Y-125066073D01*
X135238742Y-125071000D01*
X135061258Y-125071000D01*
X135036488Y-125066073D01*
X134887188Y-125036376D01*
X134723216Y-124968456D01*
X134575646Y-124869853D01*
X134450147Y-124744354D01*
X134351544Y-124596784D01*
X134283624Y-124432812D01*
X134249000Y-124258741D01*
X134249000Y-124081259D01*
X134283624Y-123907188D01*
X134351544Y-123743216D01*
X134450147Y-123595646D01*
X134575646Y-123470147D01*
X134723216Y-123371544D01*
X134887188Y-123303624D01*
X135036488Y-123273927D01*
X135061258Y-123269000D01*
X135238742Y-123269000D01*
X135263512Y-123273927D01*
G37*
G36*
X135263512Y-120733927D02*
G01*
X135412812Y-120763624D01*
X135576784Y-120831544D01*
X135724354Y-120930147D01*
X135849853Y-121055646D01*
X135948456Y-121203216D01*
X136016376Y-121367188D01*
X136051000Y-121541259D01*
X136051000Y-121718741D01*
X136016376Y-121892812D01*
X135948456Y-122056784D01*
X135849853Y-122204354D01*
X135724354Y-122329853D01*
X135576784Y-122428456D01*
X135412812Y-122496376D01*
X135263512Y-122526073D01*
X135238742Y-122531000D01*
X135061258Y-122531000D01*
X135036488Y-122526073D01*
X134887188Y-122496376D01*
X134723216Y-122428456D01*
X134575646Y-122329853D01*
X134450147Y-122204354D01*
X134351544Y-122056784D01*
X134283624Y-121892812D01*
X134249000Y-121718741D01*
X134249000Y-121541259D01*
X134283624Y-121367188D01*
X134351544Y-121203216D01*
X134450147Y-121055646D01*
X134575646Y-120930147D01*
X134723216Y-120831544D01*
X134887188Y-120763624D01*
X135036488Y-120733927D01*
X135061258Y-120729000D01*
X135238742Y-120729000D01*
X135263512Y-120733927D01*
G37*
G36*
X135263512Y-118193927D02*
G01*
X135412812Y-118223624D01*
X135576784Y-118291544D01*
X135724354Y-118390147D01*
X135849853Y-118515646D01*
X135948456Y-118663216D01*
X136016376Y-118827188D01*
X136051000Y-119001259D01*
X136051000Y-119178741D01*
X136016376Y-119352812D01*
X135948456Y-119516784D01*
X135849853Y-119664354D01*
X135724354Y-119789853D01*
X135576784Y-119888456D01*
X135412812Y-119956376D01*
X135263512Y-119986073D01*
X135238742Y-119991000D01*
X135061258Y-119991000D01*
X135036488Y-119986073D01*
X134887188Y-119956376D01*
X134723216Y-119888456D01*
X134575646Y-119789853D01*
X134450147Y-119664354D01*
X134351544Y-119516784D01*
X134283624Y-119352812D01*
X134249000Y-119178741D01*
X134249000Y-119001259D01*
X134283624Y-118827188D01*
X134351544Y-118663216D01*
X134450147Y-118515646D01*
X134575646Y-118390147D01*
X134723216Y-118291544D01*
X134887188Y-118223624D01*
X135036488Y-118193927D01*
X135061258Y-118189000D01*
X135238742Y-118189000D01*
X135263512Y-118193927D01*
G37*
G36*
X125891000Y-117451000D02*
G01*
X124089000Y-117451000D01*
X124089000Y-115649000D01*
X125891000Y-115649000D01*
X125891000Y-117451000D01*
G37*
G36*
X136051000Y-117451000D02*
G01*
X134249000Y-117451000D01*
X134249000Y-115649000D01*
X136051000Y-115649000D01*
X136051000Y-117451000D01*
G37*
G36*
X158879591Y-81303085D02*
G01*
X158913569Y-81313393D01*
X158944890Y-81330134D01*
X158972339Y-81352661D01*
X158994866Y-81380110D01*
X159011607Y-81411431D01*
X159021915Y-81445409D01*
X159026000Y-81486890D01*
X159026000Y-82088110D01*
X159021915Y-82129591D01*
X159011607Y-82163569D01*
X158994866Y-82194890D01*
X158972339Y-82222339D01*
X158944890Y-82244866D01*
X158913569Y-82261607D01*
X158879591Y-82271915D01*
X158838110Y-82276000D01*
X158161890Y-82276000D01*
X158120409Y-82271915D01*
X158086431Y-82261607D01*
X158055110Y-82244866D01*
X158027661Y-82222339D01*
X158005134Y-82194890D01*
X157988393Y-82163569D01*
X157978085Y-82129591D01*
X157974000Y-82088110D01*
X157974000Y-81486890D01*
X157978085Y-81445409D01*
X157988393Y-81411431D01*
X158005134Y-81380110D01*
X158027661Y-81352661D01*
X158055110Y-81330134D01*
X158086431Y-81313393D01*
X158120409Y-81303085D01*
X158161890Y-81299000D01*
X158838110Y-81299000D01*
X158879591Y-81303085D01*
G37*
G36*
X149230997Y-80153051D02*
G01*
X149264652Y-80163261D01*
X149295665Y-80179838D01*
X149322851Y-80202149D01*
X149345162Y-80229335D01*
X149361739Y-80260348D01*
X149371949Y-80294003D01*
X149376000Y-80335138D01*
X149376000Y-81664862D01*
X149371949Y-81705997D01*
X149361739Y-81739652D01*
X149345162Y-81770665D01*
X149322851Y-81797851D01*
X149295665Y-81820162D01*
X149264652Y-81836739D01*
X149230997Y-81846949D01*
X149189862Y-81851000D01*
X146685138Y-81851000D01*
X146644003Y-81846949D01*
X146610348Y-81836739D01*
X146579335Y-81820162D01*
X146552149Y-81797851D01*
X146529838Y-81770665D01*
X146513261Y-81739652D01*
X146503051Y-81705997D01*
X146499000Y-81664862D01*
X146499000Y-80335138D01*
X146503051Y-80294003D01*
X146513261Y-80260348D01*
X146529838Y-80229335D01*
X146552149Y-80202149D01*
X146579335Y-80179838D01*
X146610348Y-80163261D01*
X146644003Y-80153051D01*
X146685138Y-80149000D01*
X149189862Y-80149000D01*
X149230997Y-80153051D01*
G37*
G36*
X153355997Y-80153051D02*
G01*
X153389652Y-80163261D01*
X153420665Y-80179838D01*
X153447851Y-80202149D01*
X153470162Y-80229335D01*
X153486739Y-80260348D01*
X153496949Y-80294003D01*
X153501000Y-80335138D01*
X153501000Y-81664862D01*
X153496949Y-81705997D01*
X153486739Y-81739652D01*
X153470162Y-81770665D01*
X153447851Y-81797851D01*
X153420665Y-81820162D01*
X153389652Y-81836739D01*
X153355997Y-81846949D01*
X153314862Y-81851000D01*
X150810138Y-81851000D01*
X150769003Y-81846949D01*
X150735348Y-81836739D01*
X150704335Y-81820162D01*
X150677149Y-81797851D01*
X150654838Y-81770665D01*
X150638261Y-81739652D01*
X150628051Y-81705997D01*
X150624000Y-81664862D01*
X150624000Y-80335138D01*
X150628051Y-80294003D01*
X150638261Y-80260348D01*
X150654838Y-80229335D01*
X150677149Y-80202149D01*
X150704335Y-80179838D01*
X150735348Y-80163261D01*
X150769003Y-80153051D01*
X150810138Y-80149000D01*
X153314862Y-80149000D01*
X153355997Y-80153051D01*
G37*
G36*
X158879591Y-79728085D02*
G01*
X158913569Y-79738393D01*
X158944890Y-79755134D01*
X158972339Y-79777661D01*
X158994866Y-79805110D01*
X159011607Y-79836431D01*
X159021915Y-79870409D01*
X159026000Y-79911890D01*
X159026000Y-80513110D01*
X159021915Y-80554591D01*
X159011607Y-80588569D01*
X158994866Y-80619890D01*
X158972339Y-80647339D01*
X158944890Y-80669866D01*
X158913569Y-80686607D01*
X158879591Y-80696915D01*
X158838110Y-80701000D01*
X158161890Y-80701000D01*
X158120409Y-80696915D01*
X158086431Y-80686607D01*
X158055110Y-80669866D01*
X158027661Y-80647339D01*
X158005134Y-80619890D01*
X157988393Y-80588569D01*
X157978085Y-80554591D01*
X157974000Y-80513110D01*
X157974000Y-79911890D01*
X157978085Y-79870409D01*
X157988393Y-79836431D01*
X158005134Y-79805110D01*
X158027661Y-79777661D01*
X158055110Y-79755134D01*
X158086431Y-79738393D01*
X158120409Y-79728085D01*
X158161890Y-79724000D01*
X158838110Y-79724000D01*
X158879591Y-79728085D01*
G37*
G36*
X149801000Y-75801000D02*
G01*
X146199000Y-75801000D01*
X146199000Y-72199000D01*
X149801000Y-72199000D01*
X149801000Y-75801000D01*
G37*
G36*
X158806564Y-73069389D02*
G01*
X158997833Y-73148615D01*
X158997835Y-73148616D01*
X159169973Y-73263635D01*
X159316365Y-73410027D01*
X159431385Y-73582167D01*
X159510611Y-73773436D01*
X159551000Y-73976484D01*
X159551000Y-74183516D01*
X159510611Y-74386564D01*
X159431385Y-74577833D01*
X159431384Y-74577835D01*
X159316365Y-74749973D01*
X159169973Y-74896365D01*
X158997835Y-75011384D01*
X158997834Y-75011385D01*
X158997833Y-75011385D01*
X158806564Y-75090611D01*
X158603516Y-75131000D01*
X158396484Y-75131000D01*
X158193436Y-75090611D01*
X158002167Y-75011385D01*
X158002166Y-75011385D01*
X158002165Y-75011384D01*
X157830027Y-74896365D01*
X157683635Y-74749973D01*
X157568616Y-74577835D01*
X157568615Y-74577833D01*
X157489389Y-74386564D01*
X157449000Y-74183516D01*
X157449000Y-73976484D01*
X157489389Y-73773436D01*
X157568615Y-73582167D01*
X157683635Y-73410027D01*
X157830027Y-73263635D01*
X158002165Y-73148616D01*
X158002167Y-73148615D01*
X158193436Y-73069389D01*
X158396484Y-73029000D01*
X158603516Y-73029000D01*
X158806564Y-73069389D01*
G37*
G36*
X144426366Y-69215695D02*
G01*
X144583460Y-69263349D01*
X144728231Y-69340731D01*
X144855128Y-69444872D01*
X144959269Y-69571769D01*
X145036651Y-69716540D01*
X145084305Y-69873634D01*
X145101000Y-70043140D01*
X145101000Y-71956860D01*
X145084305Y-72126366D01*
X145036651Y-72283460D01*
X144959269Y-72428231D01*
X144855128Y-72555128D01*
X144728231Y-72659269D01*
X144583460Y-72736651D01*
X144426366Y-72784305D01*
X144256860Y-72801000D01*
X142343140Y-72801000D01*
X142173634Y-72784305D01*
X142016540Y-72736651D01*
X141871769Y-72659269D01*
X141744872Y-72555128D01*
X141640731Y-72428231D01*
X141563349Y-72283460D01*
X141515695Y-72126366D01*
X141499000Y-71956860D01*
X141499000Y-70043140D01*
X141515695Y-69873634D01*
X141563349Y-69716540D01*
X141640731Y-69571769D01*
X141744872Y-69444872D01*
X141871769Y-69340731D01*
X142016540Y-69263349D01*
X142173634Y-69215695D01*
X142343140Y-69199000D01*
X144256860Y-69199000D01*
X144426366Y-69215695D01*
G37*
G36*
X158806564Y-70529389D02*
G01*
X158997833Y-70608615D01*
X158997835Y-70608616D01*
X159169973Y-70723635D01*
X159316365Y-70870027D01*
X159431385Y-71042167D01*
X159510611Y-71233436D01*
X159551000Y-71436484D01*
X159551000Y-71643516D01*
X159510611Y-71846564D01*
X159488270Y-71900500D01*
X159431384Y-72037835D01*
X159316365Y-72209973D01*
X159169973Y-72356365D01*
X158997835Y-72471384D01*
X158997834Y-72471385D01*
X158997833Y-72471385D01*
X158806564Y-72550611D01*
X158603516Y-72591000D01*
X158396484Y-72591000D01*
X158193436Y-72550611D01*
X158002167Y-72471385D01*
X158002166Y-72471385D01*
X158002165Y-72471384D01*
X157830027Y-72356365D01*
X157683635Y-72209973D01*
X157568616Y-72037835D01*
X157511730Y-71900500D01*
X157489389Y-71846564D01*
X157449000Y-71643516D01*
X157449000Y-71436484D01*
X157489389Y-71233436D01*
X157568615Y-71042167D01*
X157683635Y-70870027D01*
X157830027Y-70723635D01*
X158002165Y-70608616D01*
X158002167Y-70608615D01*
X158193436Y-70529389D01*
X158396484Y-70489000D01*
X158603516Y-70489000D01*
X158806564Y-70529389D01*
G37*
G36*
X137051000Y-72051000D02*
G01*
X135949000Y-72051000D01*
X135949000Y-69199000D01*
X137051000Y-69199000D01*
X137051000Y-72051000D01*
G37*
G36*
X135051000Y-72051000D02*
G01*
X133949000Y-72051000D01*
X133949000Y-69199000D01*
X135051000Y-69199000D01*
X135051000Y-72051000D01*
G37*
G36*
X133051000Y-72051000D02*
G01*
X131949000Y-72051000D01*
X131949000Y-69199000D01*
X133051000Y-69199000D01*
X133051000Y-72051000D01*
G37*
G36*
X131051000Y-72051000D02*
G01*
X129949000Y-72051000D01*
X129949000Y-69199000D01*
X131051000Y-69199000D01*
X131051000Y-72051000D01*
G37*
G36*
X129051000Y-72051000D02*
G01*
X127949000Y-72051000D01*
X127949000Y-69199000D01*
X129051000Y-69199000D01*
X129051000Y-72051000D01*
G37*
G36*
X159551000Y-70051000D02*
G01*
X157449000Y-70051000D01*
X157449000Y-67949000D01*
X159551000Y-67949000D01*
X159551000Y-70051000D01*
G37*
G36*
X149226979Y-66463293D02*
G01*
X149360625Y-66503834D01*
X149483784Y-66569664D01*
X149591740Y-66658260D01*
X149680336Y-66766216D01*
X149746166Y-66889375D01*
X149786707Y-67023021D01*
X149801000Y-67168140D01*
X149801000Y-68831860D01*
X149786707Y-68976979D01*
X149746166Y-69110625D01*
X149680336Y-69233784D01*
X149591740Y-69341740D01*
X149483784Y-69430336D01*
X149360625Y-69496166D01*
X149226979Y-69536707D01*
X149081860Y-69551000D01*
X146918140Y-69551000D01*
X146773021Y-69536707D01*
X146639375Y-69496166D01*
X146516216Y-69430336D01*
X146408260Y-69341740D01*
X146319664Y-69233784D01*
X146253834Y-69110625D01*
X146213293Y-68976979D01*
X146199000Y-68831860D01*
X146199000Y-67168140D01*
X146213293Y-67023021D01*
X146253834Y-66889375D01*
X146319664Y-66766216D01*
X146408260Y-66658260D01*
X146516216Y-66569664D01*
X146639375Y-66503834D01*
X146773021Y-66463293D01*
X146918140Y-66449000D01*
X149081860Y-66449000D01*
X149226979Y-66463293D01*
G37*
G36*
X193535787Y-61585462D02*
G01*
X193535790Y-61585463D01*
X193535789Y-61585463D01*
X194182029Y-61853144D01*
X194763631Y-62241758D01*
X195258242Y-62736369D01*
X195646856Y-63317971D01*
X195761541Y-63594845D01*
X195914538Y-63964213D01*
X196051000Y-64650256D01*
X196051000Y-65349744D01*
X195914538Y-66035787D01*
X195914537Y-66035789D01*
X195646856Y-66682029D01*
X195258242Y-67263631D01*
X194763631Y-67758242D01*
X194182029Y-68146856D01*
X193725068Y-68336135D01*
X193535787Y-68414538D01*
X192849744Y-68551000D01*
X192150256Y-68551000D01*
X191464213Y-68414538D01*
X191274932Y-68336135D01*
X190817971Y-68146856D01*
X190236369Y-67758242D01*
X189741758Y-67263631D01*
X189353144Y-66682029D01*
X189085463Y-66035789D01*
X189085462Y-66035787D01*
X188949000Y-65349744D01*
X188949000Y-64650256D01*
X189085462Y-63964213D01*
X189238459Y-63594845D01*
X189353144Y-63317971D01*
X189741758Y-62736369D01*
X190236369Y-62241758D01*
X190817971Y-61853144D01*
X191464211Y-61585463D01*
X191464210Y-61585463D01*
X191464213Y-61585462D01*
X192150256Y-61449000D01*
X192849744Y-61449000D01*
X193535787Y-61585462D01*
G37*
G36*
X103535787Y-61585462D02*
G01*
X103535790Y-61585463D01*
X103535789Y-61585463D01*
X104182029Y-61853144D01*
X104763631Y-62241758D01*
X105258242Y-62736369D01*
X105646856Y-63317971D01*
X105761541Y-63594845D01*
X105914538Y-63964213D01*
X106051000Y-64650256D01*
X106051000Y-65349744D01*
X105914538Y-66035787D01*
X105914537Y-66035789D01*
X105646856Y-66682029D01*
X105258242Y-67263631D01*
X104763631Y-67758242D01*
X104182029Y-68146856D01*
X103725068Y-68336135D01*
X103535787Y-68414538D01*
X102849744Y-68551000D01*
X102150256Y-68551000D01*
X101464213Y-68414538D01*
X101274932Y-68336135D01*
X100817971Y-68146856D01*
X100236369Y-67758242D01*
X99741758Y-67263631D01*
X99353144Y-66682029D01*
X99085463Y-66035789D01*
X99085462Y-66035787D01*
X98949000Y-65349744D01*
X98949000Y-64650256D01*
X99085462Y-63964213D01*
X99238459Y-63594845D01*
X99353144Y-63317971D01*
X99741758Y-62736369D01*
X100236369Y-62241758D01*
X100817971Y-61853144D01*
X101464211Y-61585463D01*
X101464210Y-61585463D01*
X101464213Y-61585462D01*
X102150256Y-61449000D01*
X102849744Y-61449000D01*
X103535787Y-61585462D01*
G37*
G36*
X129051000Y-65801000D02*
G01*
X127949000Y-65801000D01*
X127949000Y-62949000D01*
X129051000Y-62949000D01*
X129051000Y-65801000D01*
G37*
G36*
X133051000Y-65801000D02*
G01*
X131949000Y-65801000D01*
X131949000Y-62949000D01*
X133051000Y-62949000D01*
X133051000Y-65801000D01*
G37*
G36*
X135051000Y-65801000D02*
G01*
X133949000Y-65801000D01*
X133949000Y-62949000D01*
X135051000Y-62949000D01*
X135051000Y-65801000D01*
G37*
G36*
X137051000Y-65801000D02*
G01*
X135949000Y-65801000D01*
X135949000Y-62949000D01*
X137051000Y-62949000D01*
X137051000Y-65801000D01*
G37*
G36*
X131051000Y-65801000D02*
G01*
X129949000Y-65801000D01*
X129949000Y-62949000D01*
X131051000Y-62949000D01*
X131051000Y-65801000D01*
G37*
M02*
