G04 #@! TF.GenerationSoftware,KiCad,Pcbnew,(5.1.6-0-10_14)*
G04 #@! TF.CreationDate,2020-08-08T16:49:36-04:00*
G04 #@! TF.ProjectId,business-card-v4-programmer-board-pcb,62757369-6e65-4737-932d-636172642d76,rev?*
G04 #@! TF.SameCoordinates,Original*
G04 #@! TF.FileFunction,Copper,L2,Bot*
G04 #@! TF.FilePolarity,Positive*
%FSLAX46Y46*%
G04 Gerber Fmt 4.6, Leading zero omitted, Abs format (unit mm)*
G04 Created by KiCad (PCBNEW (5.1.6-0-10_14)) date 2020-08-08 16:49:36*
%MOMM*%
%LPD*%
G01*
G04 APERTURE LIST*
G04 #@! TA.AperFunction,ComponentPad*
%ADD10R,3.500000X3.500000*%
G04 #@! TD*
G04 #@! TA.AperFunction,ComponentPad*
%ADD11R,1.700000X1.700000*%
G04 #@! TD*
G04 #@! TA.AperFunction,ComponentPad*
%ADD12O,1.700000X1.700000*%
G04 #@! TD*
G04 #@! TA.AperFunction,ComponentPad*
%ADD13C,2.000000*%
G04 #@! TD*
G04 #@! TA.AperFunction,ComponentPad*
%ADD14R,2.000000X2.000000*%
G04 #@! TD*
G04 #@! TA.AperFunction,ComponentPad*
%ADD15C,0.800000*%
G04 #@! TD*
G04 #@! TA.AperFunction,ComponentPad*
%ADD16C,7.000000*%
G04 #@! TD*
G04 #@! TA.AperFunction,ViaPad*
%ADD17C,0.800000*%
G04 #@! TD*
G04 #@! TA.AperFunction,ViaPad*
%ADD18C,1.600000*%
G04 #@! TD*
G04 #@! TA.AperFunction,Conductor*
%ADD19C,0.254000*%
G04 #@! TD*
G04 APERTURE END LIST*
G04 #@! TA.AperFunction,ComponentPad*
G36*
G01*
X142425000Y-69250000D02*
X144175000Y-69250000D01*
G75*
G02*
X145050000Y-70125000I0J-875000D01*
G01*
X145050000Y-71875000D01*
G75*
G02*
X144175000Y-72750000I-875000J0D01*
G01*
X142425000Y-72750000D01*
G75*
G02*
X141550000Y-71875000I0J875000D01*
G01*
X141550000Y-70125000D01*
G75*
G02*
X142425000Y-69250000I875000J0D01*
G01*
G37*
G04 #@! TD.AperFunction*
G04 #@! TA.AperFunction,ComponentPad*
G36*
G01*
X147000000Y-66500000D02*
X149000000Y-66500000D01*
G75*
G02*
X149750000Y-67250000I0J-750000D01*
G01*
X149750000Y-68750000D01*
G75*
G02*
X149000000Y-69500000I-750000J0D01*
G01*
X147000000Y-69500000D01*
G75*
G02*
X146250000Y-68750000I0J750000D01*
G01*
X146250000Y-67250000D01*
G75*
G02*
X147000000Y-66500000I750000J0D01*
G01*
G37*
G04 #@! TD.AperFunction*
D10*
X148000000Y-74000000D03*
D11*
X124990000Y-116550000D03*
D12*
X135150000Y-126710000D03*
X135150000Y-124170000D03*
X135150000Y-121630000D03*
X135150000Y-119090000D03*
D11*
X135150000Y-116550000D03*
D13*
X158500000Y-74080000D03*
X158500000Y-71540000D03*
D14*
X158500000Y-69000000D03*
D13*
X150500000Y-152908000D03*
X150500000Y-157408000D03*
X144000000Y-152908000D03*
X144000000Y-157408000D03*
D15*
X104356155Y-153143845D03*
X102500000Y-152375000D03*
X100643845Y-153143845D03*
X99875000Y-155000000D03*
X100643845Y-156856155D03*
X102500000Y-157625000D03*
X104356155Y-156856155D03*
X105125000Y-155000000D03*
D16*
X102500000Y-155000000D03*
D15*
X190643845Y-66856155D03*
X192500000Y-67625000D03*
X194356155Y-66856155D03*
X195125000Y-65000000D03*
X194356155Y-63143845D03*
X192500000Y-62375000D03*
X190643845Y-63143845D03*
X189875000Y-65000000D03*
D16*
X192500000Y-65000000D03*
D15*
X194356155Y-153143845D03*
X192500000Y-152375000D03*
X190643845Y-153143845D03*
X189875000Y-155000000D03*
X190643845Y-156856155D03*
X192500000Y-157625000D03*
X194356155Y-156856155D03*
X195125000Y-155000000D03*
D16*
X192500000Y-155000000D03*
D15*
X100643845Y-66856155D03*
X102500000Y-67625000D03*
X104356155Y-66856155D03*
X105125000Y-65000000D03*
X104356155Y-63143845D03*
X102500000Y-62375000D03*
X100643845Y-63143845D03*
X99875000Y-65000000D03*
D16*
X102500000Y-65000000D03*
D17*
X158496000Y-83058000D03*
D18*
X153924000Y-78740000D03*
D17*
X157988000Y-153424000D03*
X136500000Y-73000000D03*
D19*
G36*
X196840001Y-159340000D02*
G01*
X98160000Y-159340000D01*
X98160000Y-157914155D01*
X99765450Y-157914155D01*
X100161634Y-158434550D01*
X100876612Y-158824748D01*
X101653976Y-159067964D01*
X102463853Y-159154851D01*
X103275118Y-159082069D01*
X104056597Y-158852415D01*
X104646996Y-158543413D01*
X143044192Y-158543413D01*
X143139956Y-158807814D01*
X143429571Y-158948704D01*
X143741108Y-159030384D01*
X144062595Y-159049718D01*
X144381675Y-159005961D01*
X144686088Y-158900795D01*
X144860044Y-158807814D01*
X144955808Y-158543413D01*
X149544192Y-158543413D01*
X149639956Y-158807814D01*
X149929571Y-158948704D01*
X150241108Y-159030384D01*
X150562595Y-159049718D01*
X150881675Y-159005961D01*
X151186088Y-158900795D01*
X151360044Y-158807814D01*
X151455808Y-158543413D01*
X150500000Y-157587605D01*
X149544192Y-158543413D01*
X144955808Y-158543413D01*
X144000000Y-157587605D01*
X143044192Y-158543413D01*
X104646996Y-158543413D01*
X104778256Y-158474715D01*
X104838366Y-158434550D01*
X105234550Y-157914155D01*
X102500000Y-155179605D01*
X99765450Y-157914155D01*
X98160000Y-157914155D01*
X98160000Y-154963853D01*
X98345149Y-154963853D01*
X98417931Y-155775118D01*
X98647585Y-156556597D01*
X99025285Y-157278256D01*
X99065450Y-157338366D01*
X99585845Y-157734550D01*
X102320395Y-155000000D01*
X102679605Y-155000000D01*
X105414155Y-157734550D01*
X105760864Y-157470595D01*
X142358282Y-157470595D01*
X142402039Y-157789675D01*
X142507205Y-158094088D01*
X142600186Y-158268044D01*
X142864587Y-158363808D01*
X143820395Y-157408000D01*
X144179605Y-157408000D01*
X145135413Y-158363808D01*
X145399814Y-158268044D01*
X145540704Y-157978429D01*
X145622384Y-157666892D01*
X145634189Y-157470595D01*
X148858282Y-157470595D01*
X148902039Y-157789675D01*
X149007205Y-158094088D01*
X149100186Y-158268044D01*
X149364587Y-158363808D01*
X150320395Y-157408000D01*
X150679605Y-157408000D01*
X151635413Y-158363808D01*
X151899814Y-158268044D01*
X152040704Y-157978429D01*
X152057555Y-157914155D01*
X189765450Y-157914155D01*
X190161634Y-158434550D01*
X190876612Y-158824748D01*
X191653976Y-159067964D01*
X192463853Y-159154851D01*
X193275118Y-159082069D01*
X194056597Y-158852415D01*
X194778256Y-158474715D01*
X194838366Y-158434550D01*
X195234550Y-157914155D01*
X192500000Y-155179605D01*
X189765450Y-157914155D01*
X152057555Y-157914155D01*
X152122384Y-157666892D01*
X152141718Y-157345405D01*
X152097961Y-157026325D01*
X151992795Y-156721912D01*
X151899814Y-156547956D01*
X151635413Y-156452192D01*
X150679605Y-157408000D01*
X150320395Y-157408000D01*
X149364587Y-156452192D01*
X149100186Y-156547956D01*
X148959296Y-156837571D01*
X148877616Y-157149108D01*
X148858282Y-157470595D01*
X145634189Y-157470595D01*
X145641718Y-157345405D01*
X145597961Y-157026325D01*
X145492795Y-156721912D01*
X145399814Y-156547956D01*
X145135413Y-156452192D01*
X144179605Y-157408000D01*
X143820395Y-157408000D01*
X142864587Y-156452192D01*
X142600186Y-156547956D01*
X142459296Y-156837571D01*
X142377616Y-157149108D01*
X142358282Y-157470595D01*
X105760864Y-157470595D01*
X105934550Y-157338366D01*
X106324748Y-156623388D01*
X106434504Y-156272587D01*
X143044192Y-156272587D01*
X144000000Y-157228395D01*
X144955808Y-156272587D01*
X149544192Y-156272587D01*
X150500000Y-157228395D01*
X151455808Y-156272587D01*
X151360044Y-156008186D01*
X151070429Y-155867296D01*
X150758892Y-155785616D01*
X150437405Y-155766282D01*
X150118325Y-155810039D01*
X149813912Y-155915205D01*
X149639956Y-156008186D01*
X149544192Y-156272587D01*
X144955808Y-156272587D01*
X144860044Y-156008186D01*
X144570429Y-155867296D01*
X144258892Y-155785616D01*
X143937405Y-155766282D01*
X143618325Y-155810039D01*
X143313912Y-155915205D01*
X143139956Y-156008186D01*
X143044192Y-156272587D01*
X106434504Y-156272587D01*
X106567964Y-155846024D01*
X106654851Y-155036147D01*
X106648366Y-154963853D01*
X188345149Y-154963853D01*
X188417931Y-155775118D01*
X188647585Y-156556597D01*
X189025285Y-157278256D01*
X189065450Y-157338366D01*
X189585845Y-157734550D01*
X192320395Y-155000000D01*
X192679605Y-155000000D01*
X195414155Y-157734550D01*
X195934550Y-157338366D01*
X196324748Y-156623388D01*
X196567964Y-155846024D01*
X196654851Y-155036147D01*
X196582069Y-154224882D01*
X196352415Y-153443403D01*
X195974715Y-152721744D01*
X195934550Y-152661634D01*
X195414155Y-152265450D01*
X192679605Y-155000000D01*
X192320395Y-155000000D01*
X189585845Y-152265450D01*
X189065450Y-152661634D01*
X188675252Y-153376612D01*
X188432036Y-154153976D01*
X188345149Y-154963853D01*
X106648366Y-154963853D01*
X106582069Y-154224882D01*
X106352415Y-153443403D01*
X105987917Y-152746967D01*
X142365000Y-152746967D01*
X142365000Y-153069033D01*
X142427832Y-153384912D01*
X142551082Y-153682463D01*
X142730013Y-153950252D01*
X142957748Y-154177987D01*
X143225537Y-154356918D01*
X143523088Y-154480168D01*
X143838967Y-154543000D01*
X144161033Y-154543000D01*
X144476912Y-154480168D01*
X144774463Y-154356918D01*
X145042252Y-154177987D01*
X145269987Y-153950252D01*
X145448918Y-153682463D01*
X145572168Y-153384912D01*
X145635000Y-153069033D01*
X145635000Y-152746967D01*
X148865000Y-152746967D01*
X148865000Y-153069033D01*
X148927832Y-153384912D01*
X149051082Y-153682463D01*
X149230013Y-153950252D01*
X149457748Y-154177987D01*
X149725537Y-154356918D01*
X150023088Y-154480168D01*
X150338967Y-154543000D01*
X150661033Y-154543000D01*
X150976912Y-154480168D01*
X151274463Y-154356918D01*
X151542252Y-154177987D01*
X151769987Y-153950252D01*
X151948918Y-153682463D01*
X152072168Y-153384912D01*
X152135000Y-153069033D01*
X152135000Y-152746967D01*
X152072168Y-152431088D01*
X151948918Y-152133537D01*
X151917052Y-152085845D01*
X189765450Y-152085845D01*
X192500000Y-154820395D01*
X195234550Y-152085845D01*
X194838366Y-151565450D01*
X194123388Y-151175252D01*
X193346024Y-150932036D01*
X192536147Y-150845149D01*
X191724882Y-150917931D01*
X190943403Y-151147585D01*
X190221744Y-151525285D01*
X190161634Y-151565450D01*
X189765450Y-152085845D01*
X151917052Y-152085845D01*
X151769987Y-151865748D01*
X151542252Y-151638013D01*
X151274463Y-151459082D01*
X150976912Y-151335832D01*
X150661033Y-151273000D01*
X150338967Y-151273000D01*
X150023088Y-151335832D01*
X149725537Y-151459082D01*
X149457748Y-151638013D01*
X149230013Y-151865748D01*
X149051082Y-152133537D01*
X148927832Y-152431088D01*
X148865000Y-152746967D01*
X145635000Y-152746967D01*
X145572168Y-152431088D01*
X145448918Y-152133537D01*
X145269987Y-151865748D01*
X145042252Y-151638013D01*
X144774463Y-151459082D01*
X144476912Y-151335832D01*
X144161033Y-151273000D01*
X143838967Y-151273000D01*
X143523088Y-151335832D01*
X143225537Y-151459082D01*
X142957748Y-151638013D01*
X142730013Y-151865748D01*
X142551082Y-152133537D01*
X142427832Y-152431088D01*
X142365000Y-152746967D01*
X105987917Y-152746967D01*
X105974715Y-152721744D01*
X105934550Y-152661634D01*
X105414155Y-152265450D01*
X102679605Y-155000000D01*
X102320395Y-155000000D01*
X99585845Y-152265450D01*
X99065450Y-152661634D01*
X98675252Y-153376612D01*
X98432036Y-154153976D01*
X98345149Y-154963853D01*
X98160000Y-154963853D01*
X98160000Y-152085845D01*
X99765450Y-152085845D01*
X102500000Y-154820395D01*
X105234550Y-152085845D01*
X104838366Y-151565450D01*
X104123388Y-151175252D01*
X103346024Y-150932036D01*
X102536147Y-150845149D01*
X101724882Y-150917931D01*
X100943403Y-151147585D01*
X100221744Y-151525285D01*
X100161634Y-151565450D01*
X99765450Y-152085845D01*
X98160000Y-152085845D01*
X98160000Y-115700000D01*
X123501928Y-115700000D01*
X123501928Y-117400000D01*
X123514188Y-117524482D01*
X123550498Y-117644180D01*
X123609463Y-117754494D01*
X123688815Y-117851185D01*
X123785506Y-117930537D01*
X123895820Y-117989502D01*
X124015518Y-118025812D01*
X124140000Y-118038072D01*
X125840000Y-118038072D01*
X125964482Y-118025812D01*
X126084180Y-117989502D01*
X126194494Y-117930537D01*
X126291185Y-117851185D01*
X126370537Y-117754494D01*
X126429502Y-117644180D01*
X126465812Y-117524482D01*
X126478072Y-117400000D01*
X133661928Y-117400000D01*
X133674188Y-117524482D01*
X133710498Y-117644180D01*
X133769463Y-117754494D01*
X133848815Y-117851185D01*
X133945506Y-117930537D01*
X134055820Y-117989502D01*
X134128380Y-118011513D01*
X133996525Y-118143368D01*
X133834010Y-118386589D01*
X133722068Y-118656842D01*
X133665000Y-118943740D01*
X133665000Y-119236260D01*
X133722068Y-119523158D01*
X133834010Y-119793411D01*
X133996525Y-120036632D01*
X134203368Y-120243475D01*
X134377760Y-120360000D01*
X134203368Y-120476525D01*
X133996525Y-120683368D01*
X133834010Y-120926589D01*
X133722068Y-121196842D01*
X133665000Y-121483740D01*
X133665000Y-121776260D01*
X133722068Y-122063158D01*
X133834010Y-122333411D01*
X133996525Y-122576632D01*
X134203368Y-122783475D01*
X134377760Y-122900000D01*
X134203368Y-123016525D01*
X133996525Y-123223368D01*
X133834010Y-123466589D01*
X133722068Y-123736842D01*
X133665000Y-124023740D01*
X133665000Y-124316260D01*
X133722068Y-124603158D01*
X133834010Y-124873411D01*
X133996525Y-125116632D01*
X134203368Y-125323475D01*
X134377760Y-125440000D01*
X134203368Y-125556525D01*
X133996525Y-125763368D01*
X133834010Y-126006589D01*
X133722068Y-126276842D01*
X133665000Y-126563740D01*
X133665000Y-126856260D01*
X133722068Y-127143158D01*
X133834010Y-127413411D01*
X133996525Y-127656632D01*
X134203368Y-127863475D01*
X134446589Y-128025990D01*
X134716842Y-128137932D01*
X135003740Y-128195000D01*
X135296260Y-128195000D01*
X135583158Y-128137932D01*
X135853411Y-128025990D01*
X136096632Y-127863475D01*
X136303475Y-127656632D01*
X136465990Y-127413411D01*
X136577932Y-127143158D01*
X136635000Y-126856260D01*
X136635000Y-126563740D01*
X136577932Y-126276842D01*
X136465990Y-126006589D01*
X136303475Y-125763368D01*
X136096632Y-125556525D01*
X135922240Y-125440000D01*
X136096632Y-125323475D01*
X136303475Y-125116632D01*
X136465990Y-124873411D01*
X136577932Y-124603158D01*
X136635000Y-124316260D01*
X136635000Y-124023740D01*
X136577932Y-123736842D01*
X136465990Y-123466589D01*
X136303475Y-123223368D01*
X136096632Y-123016525D01*
X135922240Y-122900000D01*
X136096632Y-122783475D01*
X136303475Y-122576632D01*
X136465990Y-122333411D01*
X136577932Y-122063158D01*
X136635000Y-121776260D01*
X136635000Y-121483740D01*
X136577932Y-121196842D01*
X136465990Y-120926589D01*
X136303475Y-120683368D01*
X136096632Y-120476525D01*
X135922240Y-120360000D01*
X136096632Y-120243475D01*
X136303475Y-120036632D01*
X136465990Y-119793411D01*
X136577932Y-119523158D01*
X136635000Y-119236260D01*
X136635000Y-118943740D01*
X136577932Y-118656842D01*
X136465990Y-118386589D01*
X136303475Y-118143368D01*
X136171620Y-118011513D01*
X136244180Y-117989502D01*
X136354494Y-117930537D01*
X136451185Y-117851185D01*
X136530537Y-117754494D01*
X136589502Y-117644180D01*
X136625812Y-117524482D01*
X136638072Y-117400000D01*
X136635000Y-116835750D01*
X136476250Y-116677000D01*
X135277000Y-116677000D01*
X135277000Y-116697000D01*
X135023000Y-116697000D01*
X135023000Y-116677000D01*
X133823750Y-116677000D01*
X133665000Y-116835750D01*
X133661928Y-117400000D01*
X126478072Y-117400000D01*
X126478072Y-115700000D01*
X133661928Y-115700000D01*
X133665000Y-116264250D01*
X133823750Y-116423000D01*
X135023000Y-116423000D01*
X135023000Y-115223750D01*
X135277000Y-115223750D01*
X135277000Y-116423000D01*
X136476250Y-116423000D01*
X136635000Y-116264250D01*
X136638072Y-115700000D01*
X136625812Y-115575518D01*
X136589502Y-115455820D01*
X136530537Y-115345506D01*
X136451185Y-115248815D01*
X136354494Y-115169463D01*
X136244180Y-115110498D01*
X136124482Y-115074188D01*
X136000000Y-115061928D01*
X135435750Y-115065000D01*
X135277000Y-115223750D01*
X135023000Y-115223750D01*
X134864250Y-115065000D01*
X134300000Y-115061928D01*
X134175518Y-115074188D01*
X134055820Y-115110498D01*
X133945506Y-115169463D01*
X133848815Y-115248815D01*
X133769463Y-115345506D01*
X133710498Y-115455820D01*
X133674188Y-115575518D01*
X133661928Y-115700000D01*
X126478072Y-115700000D01*
X126465812Y-115575518D01*
X126429502Y-115455820D01*
X126370537Y-115345506D01*
X126291185Y-115248815D01*
X126194494Y-115169463D01*
X126084180Y-115110498D01*
X125964482Y-115074188D01*
X125840000Y-115061928D01*
X124140000Y-115061928D01*
X124015518Y-115074188D01*
X123895820Y-115110498D01*
X123785506Y-115169463D01*
X123688815Y-115248815D01*
X123609463Y-115345506D01*
X123550498Y-115455820D01*
X123514188Y-115575518D01*
X123501928Y-115700000D01*
X98160000Y-115700000D01*
X98160000Y-70125000D01*
X140911928Y-70125000D01*
X140911928Y-71875000D01*
X140941001Y-72170186D01*
X141027104Y-72454028D01*
X141166927Y-72715618D01*
X141355097Y-72944903D01*
X141584382Y-73133073D01*
X141845972Y-73272896D01*
X142129814Y-73358999D01*
X142425000Y-73388072D01*
X144175000Y-73388072D01*
X144470186Y-73358999D01*
X144754028Y-73272896D01*
X145015618Y-73133073D01*
X145244903Y-72944903D01*
X145433073Y-72715618D01*
X145572896Y-72454028D01*
X145611928Y-72325357D01*
X145611928Y-75750000D01*
X145624188Y-75874482D01*
X145660498Y-75994180D01*
X145719463Y-76104494D01*
X145798815Y-76201185D01*
X145895506Y-76280537D01*
X146005820Y-76339502D01*
X146125518Y-76375812D01*
X146250000Y-76388072D01*
X149750000Y-76388072D01*
X149874482Y-76375812D01*
X149994180Y-76339502D01*
X150104494Y-76280537D01*
X150201185Y-76201185D01*
X150280537Y-76104494D01*
X150339502Y-75994180D01*
X150375812Y-75874482D01*
X150388072Y-75750000D01*
X150388072Y-73918967D01*
X156865000Y-73918967D01*
X156865000Y-74241033D01*
X156927832Y-74556912D01*
X157051082Y-74854463D01*
X157230013Y-75122252D01*
X157457748Y-75349987D01*
X157725537Y-75528918D01*
X158023088Y-75652168D01*
X158338967Y-75715000D01*
X158661033Y-75715000D01*
X158976912Y-75652168D01*
X159274463Y-75528918D01*
X159542252Y-75349987D01*
X159769987Y-75122252D01*
X159948918Y-74854463D01*
X160072168Y-74556912D01*
X160135000Y-74241033D01*
X160135000Y-73918967D01*
X160072168Y-73603088D01*
X159948918Y-73305537D01*
X159769987Y-73037748D01*
X159542252Y-72810013D01*
X159433400Y-72737280D01*
X159455808Y-72675413D01*
X158500000Y-71719605D01*
X157544192Y-72675413D01*
X157566600Y-72737280D01*
X157457748Y-72810013D01*
X157230013Y-73037748D01*
X157051082Y-73305537D01*
X156927832Y-73603088D01*
X156865000Y-73918967D01*
X150388072Y-73918967D01*
X150388072Y-72250000D01*
X150375812Y-72125518D01*
X150339502Y-72005820D01*
X150280537Y-71895506D01*
X150201185Y-71798815D01*
X150104494Y-71719463D01*
X149994180Y-71660498D01*
X149874482Y-71624188D01*
X149750000Y-71611928D01*
X146250000Y-71611928D01*
X146125518Y-71624188D01*
X146005820Y-71660498D01*
X145895506Y-71719463D01*
X145798815Y-71798815D01*
X145719463Y-71895506D01*
X145678506Y-71972131D01*
X145688072Y-71875000D01*
X145688072Y-71602595D01*
X156858282Y-71602595D01*
X156902039Y-71921675D01*
X157007205Y-72226088D01*
X157100186Y-72400044D01*
X157364587Y-72495808D01*
X158320395Y-71540000D01*
X158306253Y-71525858D01*
X158485858Y-71346253D01*
X158500000Y-71360395D01*
X158514143Y-71346253D01*
X158693748Y-71525858D01*
X158679605Y-71540000D01*
X159635413Y-72495808D01*
X159899814Y-72400044D01*
X160040704Y-72110429D01*
X160122384Y-71798892D01*
X160141718Y-71477405D01*
X160097961Y-71158325D01*
X159992795Y-70853912D01*
X159899814Y-70679956D01*
X159692967Y-70605037D01*
X159744180Y-70589502D01*
X159854494Y-70530537D01*
X159951185Y-70451185D01*
X160030537Y-70354494D01*
X160089502Y-70244180D01*
X160125812Y-70124482D01*
X160138072Y-70000000D01*
X160138072Y-68000000D01*
X160129618Y-67914155D01*
X189765450Y-67914155D01*
X190161634Y-68434550D01*
X190876612Y-68824748D01*
X191653976Y-69067964D01*
X192463853Y-69154851D01*
X193275118Y-69082069D01*
X194056597Y-68852415D01*
X194778256Y-68474715D01*
X194838366Y-68434550D01*
X195234550Y-67914155D01*
X192500000Y-65179605D01*
X189765450Y-67914155D01*
X160129618Y-67914155D01*
X160125812Y-67875518D01*
X160089502Y-67755820D01*
X160030537Y-67645506D01*
X159951185Y-67548815D01*
X159854494Y-67469463D01*
X159744180Y-67410498D01*
X159624482Y-67374188D01*
X159500000Y-67361928D01*
X157500000Y-67361928D01*
X157375518Y-67374188D01*
X157255820Y-67410498D01*
X157145506Y-67469463D01*
X157048815Y-67548815D01*
X156969463Y-67645506D01*
X156910498Y-67755820D01*
X156874188Y-67875518D01*
X156861928Y-68000000D01*
X156861928Y-70000000D01*
X156874188Y-70124482D01*
X156910498Y-70244180D01*
X156969463Y-70354494D01*
X157048815Y-70451185D01*
X157145506Y-70530537D01*
X157255820Y-70589502D01*
X157307033Y-70605037D01*
X157100186Y-70679956D01*
X156959296Y-70969571D01*
X156877616Y-71281108D01*
X156858282Y-71602595D01*
X145688072Y-71602595D01*
X145688072Y-70125000D01*
X145658999Y-69829814D01*
X145572896Y-69545972D01*
X145548324Y-69500000D01*
X145611928Y-69500000D01*
X145624188Y-69624482D01*
X145660498Y-69744180D01*
X145719463Y-69854494D01*
X145798815Y-69951185D01*
X145895506Y-70030537D01*
X146005820Y-70089502D01*
X146125518Y-70125812D01*
X146250000Y-70138072D01*
X147714250Y-70135000D01*
X147873000Y-69976250D01*
X147873000Y-68127000D01*
X148127000Y-68127000D01*
X148127000Y-69976250D01*
X148285750Y-70135000D01*
X149750000Y-70138072D01*
X149874482Y-70125812D01*
X149994180Y-70089502D01*
X150104494Y-70030537D01*
X150201185Y-69951185D01*
X150280537Y-69854494D01*
X150339502Y-69744180D01*
X150375812Y-69624482D01*
X150388072Y-69500000D01*
X150385000Y-68285750D01*
X150226250Y-68127000D01*
X148127000Y-68127000D01*
X147873000Y-68127000D01*
X145773750Y-68127000D01*
X145615000Y-68285750D01*
X145611928Y-69500000D01*
X145548324Y-69500000D01*
X145433073Y-69284382D01*
X145244903Y-69055097D01*
X145015618Y-68866927D01*
X144754028Y-68727104D01*
X144470186Y-68641001D01*
X144175000Y-68611928D01*
X142425000Y-68611928D01*
X142129814Y-68641001D01*
X141845972Y-68727104D01*
X141584382Y-68866927D01*
X141355097Y-69055097D01*
X141166927Y-69284382D01*
X141027104Y-69545972D01*
X140941001Y-69829814D01*
X140911928Y-70125000D01*
X98160000Y-70125000D01*
X98160000Y-67914155D01*
X99765450Y-67914155D01*
X100161634Y-68434550D01*
X100876612Y-68824748D01*
X101653976Y-69067964D01*
X102463853Y-69154851D01*
X103275118Y-69082069D01*
X104056597Y-68852415D01*
X104778256Y-68474715D01*
X104838366Y-68434550D01*
X105234550Y-67914155D01*
X102500000Y-65179605D01*
X99765450Y-67914155D01*
X98160000Y-67914155D01*
X98160000Y-64963853D01*
X98345149Y-64963853D01*
X98417931Y-65775118D01*
X98647585Y-66556597D01*
X99025285Y-67278256D01*
X99065450Y-67338366D01*
X99585845Y-67734550D01*
X102320395Y-65000000D01*
X102679605Y-65000000D01*
X105414155Y-67734550D01*
X105934550Y-67338366D01*
X106324748Y-66623388D01*
X106363352Y-66500000D01*
X145611928Y-66500000D01*
X145615000Y-67714250D01*
X145773750Y-67873000D01*
X147873000Y-67873000D01*
X147873000Y-66023750D01*
X148127000Y-66023750D01*
X148127000Y-67873000D01*
X150226250Y-67873000D01*
X150385000Y-67714250D01*
X150388072Y-66500000D01*
X150375812Y-66375518D01*
X150339502Y-66255820D01*
X150280537Y-66145506D01*
X150201185Y-66048815D01*
X150104494Y-65969463D01*
X149994180Y-65910498D01*
X149874482Y-65874188D01*
X149750000Y-65861928D01*
X148285750Y-65865000D01*
X148127000Y-66023750D01*
X147873000Y-66023750D01*
X147714250Y-65865000D01*
X146250000Y-65861928D01*
X146125518Y-65874188D01*
X146005820Y-65910498D01*
X145895506Y-65969463D01*
X145798815Y-66048815D01*
X145719463Y-66145506D01*
X145660498Y-66255820D01*
X145624188Y-66375518D01*
X145611928Y-66500000D01*
X106363352Y-66500000D01*
X106567964Y-65846024D01*
X106654851Y-65036147D01*
X106648366Y-64963853D01*
X188345149Y-64963853D01*
X188417931Y-65775118D01*
X188647585Y-66556597D01*
X189025285Y-67278256D01*
X189065450Y-67338366D01*
X189585845Y-67734550D01*
X192320395Y-65000000D01*
X192679605Y-65000000D01*
X195414155Y-67734550D01*
X195934550Y-67338366D01*
X196324748Y-66623388D01*
X196567964Y-65846024D01*
X196654851Y-65036147D01*
X196582069Y-64224882D01*
X196352415Y-63443403D01*
X195974715Y-62721744D01*
X195934550Y-62661634D01*
X195414155Y-62265450D01*
X192679605Y-65000000D01*
X192320395Y-65000000D01*
X189585845Y-62265450D01*
X189065450Y-62661634D01*
X188675252Y-63376612D01*
X188432036Y-64153976D01*
X188345149Y-64963853D01*
X106648366Y-64963853D01*
X106582069Y-64224882D01*
X106352415Y-63443403D01*
X105974715Y-62721744D01*
X105934550Y-62661634D01*
X105414155Y-62265450D01*
X102679605Y-65000000D01*
X102320395Y-65000000D01*
X99585845Y-62265450D01*
X99065450Y-62661634D01*
X98675252Y-63376612D01*
X98432036Y-64153976D01*
X98345149Y-64963853D01*
X98160000Y-64963853D01*
X98160000Y-62085845D01*
X99765450Y-62085845D01*
X102500000Y-64820395D01*
X105234550Y-62085845D01*
X189765450Y-62085845D01*
X192500000Y-64820395D01*
X195234550Y-62085845D01*
X194838366Y-61565450D01*
X194123388Y-61175252D01*
X193346024Y-60932036D01*
X192536147Y-60845149D01*
X191724882Y-60917931D01*
X190943403Y-61147585D01*
X190221744Y-61525285D01*
X190161634Y-61565450D01*
X189765450Y-62085845D01*
X105234550Y-62085845D01*
X104838366Y-61565450D01*
X104123388Y-61175252D01*
X103346024Y-60932036D01*
X102536147Y-60845149D01*
X101724882Y-60917931D01*
X100943403Y-61147585D01*
X100221744Y-61525285D01*
X100161634Y-61565450D01*
X99765450Y-62085845D01*
X98160000Y-62085845D01*
X98160000Y-60660000D01*
X196840000Y-60660000D01*
X196840001Y-159340000D01*
G37*
X196840001Y-159340000D02*
X98160000Y-159340000D01*
X98160000Y-157914155D01*
X99765450Y-157914155D01*
X100161634Y-158434550D01*
X100876612Y-158824748D01*
X101653976Y-159067964D01*
X102463853Y-159154851D01*
X103275118Y-159082069D01*
X104056597Y-158852415D01*
X104646996Y-158543413D01*
X143044192Y-158543413D01*
X143139956Y-158807814D01*
X143429571Y-158948704D01*
X143741108Y-159030384D01*
X144062595Y-159049718D01*
X144381675Y-159005961D01*
X144686088Y-158900795D01*
X144860044Y-158807814D01*
X144955808Y-158543413D01*
X149544192Y-158543413D01*
X149639956Y-158807814D01*
X149929571Y-158948704D01*
X150241108Y-159030384D01*
X150562595Y-159049718D01*
X150881675Y-159005961D01*
X151186088Y-158900795D01*
X151360044Y-158807814D01*
X151455808Y-158543413D01*
X150500000Y-157587605D01*
X149544192Y-158543413D01*
X144955808Y-158543413D01*
X144000000Y-157587605D01*
X143044192Y-158543413D01*
X104646996Y-158543413D01*
X104778256Y-158474715D01*
X104838366Y-158434550D01*
X105234550Y-157914155D01*
X102500000Y-155179605D01*
X99765450Y-157914155D01*
X98160000Y-157914155D01*
X98160000Y-154963853D01*
X98345149Y-154963853D01*
X98417931Y-155775118D01*
X98647585Y-156556597D01*
X99025285Y-157278256D01*
X99065450Y-157338366D01*
X99585845Y-157734550D01*
X102320395Y-155000000D01*
X102679605Y-155000000D01*
X105414155Y-157734550D01*
X105760864Y-157470595D01*
X142358282Y-157470595D01*
X142402039Y-157789675D01*
X142507205Y-158094088D01*
X142600186Y-158268044D01*
X142864587Y-158363808D01*
X143820395Y-157408000D01*
X144179605Y-157408000D01*
X145135413Y-158363808D01*
X145399814Y-158268044D01*
X145540704Y-157978429D01*
X145622384Y-157666892D01*
X145634189Y-157470595D01*
X148858282Y-157470595D01*
X148902039Y-157789675D01*
X149007205Y-158094088D01*
X149100186Y-158268044D01*
X149364587Y-158363808D01*
X150320395Y-157408000D01*
X150679605Y-157408000D01*
X151635413Y-158363808D01*
X151899814Y-158268044D01*
X152040704Y-157978429D01*
X152057555Y-157914155D01*
X189765450Y-157914155D01*
X190161634Y-158434550D01*
X190876612Y-158824748D01*
X191653976Y-159067964D01*
X192463853Y-159154851D01*
X193275118Y-159082069D01*
X194056597Y-158852415D01*
X194778256Y-158474715D01*
X194838366Y-158434550D01*
X195234550Y-157914155D01*
X192500000Y-155179605D01*
X189765450Y-157914155D01*
X152057555Y-157914155D01*
X152122384Y-157666892D01*
X152141718Y-157345405D01*
X152097961Y-157026325D01*
X151992795Y-156721912D01*
X151899814Y-156547956D01*
X151635413Y-156452192D01*
X150679605Y-157408000D01*
X150320395Y-157408000D01*
X149364587Y-156452192D01*
X149100186Y-156547956D01*
X148959296Y-156837571D01*
X148877616Y-157149108D01*
X148858282Y-157470595D01*
X145634189Y-157470595D01*
X145641718Y-157345405D01*
X145597961Y-157026325D01*
X145492795Y-156721912D01*
X145399814Y-156547956D01*
X145135413Y-156452192D01*
X144179605Y-157408000D01*
X143820395Y-157408000D01*
X142864587Y-156452192D01*
X142600186Y-156547956D01*
X142459296Y-156837571D01*
X142377616Y-157149108D01*
X142358282Y-157470595D01*
X105760864Y-157470595D01*
X105934550Y-157338366D01*
X106324748Y-156623388D01*
X106434504Y-156272587D01*
X143044192Y-156272587D01*
X144000000Y-157228395D01*
X144955808Y-156272587D01*
X149544192Y-156272587D01*
X150500000Y-157228395D01*
X151455808Y-156272587D01*
X151360044Y-156008186D01*
X151070429Y-155867296D01*
X150758892Y-155785616D01*
X150437405Y-155766282D01*
X150118325Y-155810039D01*
X149813912Y-155915205D01*
X149639956Y-156008186D01*
X149544192Y-156272587D01*
X144955808Y-156272587D01*
X144860044Y-156008186D01*
X144570429Y-155867296D01*
X144258892Y-155785616D01*
X143937405Y-155766282D01*
X143618325Y-155810039D01*
X143313912Y-155915205D01*
X143139956Y-156008186D01*
X143044192Y-156272587D01*
X106434504Y-156272587D01*
X106567964Y-155846024D01*
X106654851Y-155036147D01*
X106648366Y-154963853D01*
X188345149Y-154963853D01*
X188417931Y-155775118D01*
X188647585Y-156556597D01*
X189025285Y-157278256D01*
X189065450Y-157338366D01*
X189585845Y-157734550D01*
X192320395Y-155000000D01*
X192679605Y-155000000D01*
X195414155Y-157734550D01*
X195934550Y-157338366D01*
X196324748Y-156623388D01*
X196567964Y-155846024D01*
X196654851Y-155036147D01*
X196582069Y-154224882D01*
X196352415Y-153443403D01*
X195974715Y-152721744D01*
X195934550Y-152661634D01*
X195414155Y-152265450D01*
X192679605Y-155000000D01*
X192320395Y-155000000D01*
X189585845Y-152265450D01*
X189065450Y-152661634D01*
X188675252Y-153376612D01*
X188432036Y-154153976D01*
X188345149Y-154963853D01*
X106648366Y-154963853D01*
X106582069Y-154224882D01*
X106352415Y-153443403D01*
X105987917Y-152746967D01*
X142365000Y-152746967D01*
X142365000Y-153069033D01*
X142427832Y-153384912D01*
X142551082Y-153682463D01*
X142730013Y-153950252D01*
X142957748Y-154177987D01*
X143225537Y-154356918D01*
X143523088Y-154480168D01*
X143838967Y-154543000D01*
X144161033Y-154543000D01*
X144476912Y-154480168D01*
X144774463Y-154356918D01*
X145042252Y-154177987D01*
X145269987Y-153950252D01*
X145448918Y-153682463D01*
X145572168Y-153384912D01*
X145635000Y-153069033D01*
X145635000Y-152746967D01*
X148865000Y-152746967D01*
X148865000Y-153069033D01*
X148927832Y-153384912D01*
X149051082Y-153682463D01*
X149230013Y-153950252D01*
X149457748Y-154177987D01*
X149725537Y-154356918D01*
X150023088Y-154480168D01*
X150338967Y-154543000D01*
X150661033Y-154543000D01*
X150976912Y-154480168D01*
X151274463Y-154356918D01*
X151542252Y-154177987D01*
X151769987Y-153950252D01*
X151948918Y-153682463D01*
X152072168Y-153384912D01*
X152135000Y-153069033D01*
X152135000Y-152746967D01*
X152072168Y-152431088D01*
X151948918Y-152133537D01*
X151917052Y-152085845D01*
X189765450Y-152085845D01*
X192500000Y-154820395D01*
X195234550Y-152085845D01*
X194838366Y-151565450D01*
X194123388Y-151175252D01*
X193346024Y-150932036D01*
X192536147Y-150845149D01*
X191724882Y-150917931D01*
X190943403Y-151147585D01*
X190221744Y-151525285D01*
X190161634Y-151565450D01*
X189765450Y-152085845D01*
X151917052Y-152085845D01*
X151769987Y-151865748D01*
X151542252Y-151638013D01*
X151274463Y-151459082D01*
X150976912Y-151335832D01*
X150661033Y-151273000D01*
X150338967Y-151273000D01*
X150023088Y-151335832D01*
X149725537Y-151459082D01*
X149457748Y-151638013D01*
X149230013Y-151865748D01*
X149051082Y-152133537D01*
X148927832Y-152431088D01*
X148865000Y-152746967D01*
X145635000Y-152746967D01*
X145572168Y-152431088D01*
X145448918Y-152133537D01*
X145269987Y-151865748D01*
X145042252Y-151638013D01*
X144774463Y-151459082D01*
X144476912Y-151335832D01*
X144161033Y-151273000D01*
X143838967Y-151273000D01*
X143523088Y-151335832D01*
X143225537Y-151459082D01*
X142957748Y-151638013D01*
X142730013Y-151865748D01*
X142551082Y-152133537D01*
X142427832Y-152431088D01*
X142365000Y-152746967D01*
X105987917Y-152746967D01*
X105974715Y-152721744D01*
X105934550Y-152661634D01*
X105414155Y-152265450D01*
X102679605Y-155000000D01*
X102320395Y-155000000D01*
X99585845Y-152265450D01*
X99065450Y-152661634D01*
X98675252Y-153376612D01*
X98432036Y-154153976D01*
X98345149Y-154963853D01*
X98160000Y-154963853D01*
X98160000Y-152085845D01*
X99765450Y-152085845D01*
X102500000Y-154820395D01*
X105234550Y-152085845D01*
X104838366Y-151565450D01*
X104123388Y-151175252D01*
X103346024Y-150932036D01*
X102536147Y-150845149D01*
X101724882Y-150917931D01*
X100943403Y-151147585D01*
X100221744Y-151525285D01*
X100161634Y-151565450D01*
X99765450Y-152085845D01*
X98160000Y-152085845D01*
X98160000Y-115700000D01*
X123501928Y-115700000D01*
X123501928Y-117400000D01*
X123514188Y-117524482D01*
X123550498Y-117644180D01*
X123609463Y-117754494D01*
X123688815Y-117851185D01*
X123785506Y-117930537D01*
X123895820Y-117989502D01*
X124015518Y-118025812D01*
X124140000Y-118038072D01*
X125840000Y-118038072D01*
X125964482Y-118025812D01*
X126084180Y-117989502D01*
X126194494Y-117930537D01*
X126291185Y-117851185D01*
X126370537Y-117754494D01*
X126429502Y-117644180D01*
X126465812Y-117524482D01*
X126478072Y-117400000D01*
X133661928Y-117400000D01*
X133674188Y-117524482D01*
X133710498Y-117644180D01*
X133769463Y-117754494D01*
X133848815Y-117851185D01*
X133945506Y-117930537D01*
X134055820Y-117989502D01*
X134128380Y-118011513D01*
X133996525Y-118143368D01*
X133834010Y-118386589D01*
X133722068Y-118656842D01*
X133665000Y-118943740D01*
X133665000Y-119236260D01*
X133722068Y-119523158D01*
X133834010Y-119793411D01*
X133996525Y-120036632D01*
X134203368Y-120243475D01*
X134377760Y-120360000D01*
X134203368Y-120476525D01*
X133996525Y-120683368D01*
X133834010Y-120926589D01*
X133722068Y-121196842D01*
X133665000Y-121483740D01*
X133665000Y-121776260D01*
X133722068Y-122063158D01*
X133834010Y-122333411D01*
X133996525Y-122576632D01*
X134203368Y-122783475D01*
X134377760Y-122900000D01*
X134203368Y-123016525D01*
X133996525Y-123223368D01*
X133834010Y-123466589D01*
X133722068Y-123736842D01*
X133665000Y-124023740D01*
X133665000Y-124316260D01*
X133722068Y-124603158D01*
X133834010Y-124873411D01*
X133996525Y-125116632D01*
X134203368Y-125323475D01*
X134377760Y-125440000D01*
X134203368Y-125556525D01*
X133996525Y-125763368D01*
X133834010Y-126006589D01*
X133722068Y-126276842D01*
X133665000Y-126563740D01*
X133665000Y-126856260D01*
X133722068Y-127143158D01*
X133834010Y-127413411D01*
X133996525Y-127656632D01*
X134203368Y-127863475D01*
X134446589Y-128025990D01*
X134716842Y-128137932D01*
X135003740Y-128195000D01*
X135296260Y-128195000D01*
X135583158Y-128137932D01*
X135853411Y-128025990D01*
X136096632Y-127863475D01*
X136303475Y-127656632D01*
X136465990Y-127413411D01*
X136577932Y-127143158D01*
X136635000Y-126856260D01*
X136635000Y-126563740D01*
X136577932Y-126276842D01*
X136465990Y-126006589D01*
X136303475Y-125763368D01*
X136096632Y-125556525D01*
X135922240Y-125440000D01*
X136096632Y-125323475D01*
X136303475Y-125116632D01*
X136465990Y-124873411D01*
X136577932Y-124603158D01*
X136635000Y-124316260D01*
X136635000Y-124023740D01*
X136577932Y-123736842D01*
X136465990Y-123466589D01*
X136303475Y-123223368D01*
X136096632Y-123016525D01*
X135922240Y-122900000D01*
X136096632Y-122783475D01*
X136303475Y-122576632D01*
X136465990Y-122333411D01*
X136577932Y-122063158D01*
X136635000Y-121776260D01*
X136635000Y-121483740D01*
X136577932Y-121196842D01*
X136465990Y-120926589D01*
X136303475Y-120683368D01*
X136096632Y-120476525D01*
X135922240Y-120360000D01*
X136096632Y-120243475D01*
X136303475Y-120036632D01*
X136465990Y-119793411D01*
X136577932Y-119523158D01*
X136635000Y-119236260D01*
X136635000Y-118943740D01*
X136577932Y-118656842D01*
X136465990Y-118386589D01*
X136303475Y-118143368D01*
X136171620Y-118011513D01*
X136244180Y-117989502D01*
X136354494Y-117930537D01*
X136451185Y-117851185D01*
X136530537Y-117754494D01*
X136589502Y-117644180D01*
X136625812Y-117524482D01*
X136638072Y-117400000D01*
X136635000Y-116835750D01*
X136476250Y-116677000D01*
X135277000Y-116677000D01*
X135277000Y-116697000D01*
X135023000Y-116697000D01*
X135023000Y-116677000D01*
X133823750Y-116677000D01*
X133665000Y-116835750D01*
X133661928Y-117400000D01*
X126478072Y-117400000D01*
X126478072Y-115700000D01*
X133661928Y-115700000D01*
X133665000Y-116264250D01*
X133823750Y-116423000D01*
X135023000Y-116423000D01*
X135023000Y-115223750D01*
X135277000Y-115223750D01*
X135277000Y-116423000D01*
X136476250Y-116423000D01*
X136635000Y-116264250D01*
X136638072Y-115700000D01*
X136625812Y-115575518D01*
X136589502Y-115455820D01*
X136530537Y-115345506D01*
X136451185Y-115248815D01*
X136354494Y-115169463D01*
X136244180Y-115110498D01*
X136124482Y-115074188D01*
X136000000Y-115061928D01*
X135435750Y-115065000D01*
X135277000Y-115223750D01*
X135023000Y-115223750D01*
X134864250Y-115065000D01*
X134300000Y-115061928D01*
X134175518Y-115074188D01*
X134055820Y-115110498D01*
X133945506Y-115169463D01*
X133848815Y-115248815D01*
X133769463Y-115345506D01*
X133710498Y-115455820D01*
X133674188Y-115575518D01*
X133661928Y-115700000D01*
X126478072Y-115700000D01*
X126465812Y-115575518D01*
X126429502Y-115455820D01*
X126370537Y-115345506D01*
X126291185Y-115248815D01*
X126194494Y-115169463D01*
X126084180Y-115110498D01*
X125964482Y-115074188D01*
X125840000Y-115061928D01*
X124140000Y-115061928D01*
X124015518Y-115074188D01*
X123895820Y-115110498D01*
X123785506Y-115169463D01*
X123688815Y-115248815D01*
X123609463Y-115345506D01*
X123550498Y-115455820D01*
X123514188Y-115575518D01*
X123501928Y-115700000D01*
X98160000Y-115700000D01*
X98160000Y-70125000D01*
X140911928Y-70125000D01*
X140911928Y-71875000D01*
X140941001Y-72170186D01*
X141027104Y-72454028D01*
X141166927Y-72715618D01*
X141355097Y-72944903D01*
X141584382Y-73133073D01*
X141845972Y-73272896D01*
X142129814Y-73358999D01*
X142425000Y-73388072D01*
X144175000Y-73388072D01*
X144470186Y-73358999D01*
X144754028Y-73272896D01*
X145015618Y-73133073D01*
X145244903Y-72944903D01*
X145433073Y-72715618D01*
X145572896Y-72454028D01*
X145611928Y-72325357D01*
X145611928Y-75750000D01*
X145624188Y-75874482D01*
X145660498Y-75994180D01*
X145719463Y-76104494D01*
X145798815Y-76201185D01*
X145895506Y-76280537D01*
X146005820Y-76339502D01*
X146125518Y-76375812D01*
X146250000Y-76388072D01*
X149750000Y-76388072D01*
X149874482Y-76375812D01*
X149994180Y-76339502D01*
X150104494Y-76280537D01*
X150201185Y-76201185D01*
X150280537Y-76104494D01*
X150339502Y-75994180D01*
X150375812Y-75874482D01*
X150388072Y-75750000D01*
X150388072Y-73918967D01*
X156865000Y-73918967D01*
X156865000Y-74241033D01*
X156927832Y-74556912D01*
X157051082Y-74854463D01*
X157230013Y-75122252D01*
X157457748Y-75349987D01*
X157725537Y-75528918D01*
X158023088Y-75652168D01*
X158338967Y-75715000D01*
X158661033Y-75715000D01*
X158976912Y-75652168D01*
X159274463Y-75528918D01*
X159542252Y-75349987D01*
X159769987Y-75122252D01*
X159948918Y-74854463D01*
X160072168Y-74556912D01*
X160135000Y-74241033D01*
X160135000Y-73918967D01*
X160072168Y-73603088D01*
X159948918Y-73305537D01*
X159769987Y-73037748D01*
X159542252Y-72810013D01*
X159433400Y-72737280D01*
X159455808Y-72675413D01*
X158500000Y-71719605D01*
X157544192Y-72675413D01*
X157566600Y-72737280D01*
X157457748Y-72810013D01*
X157230013Y-73037748D01*
X157051082Y-73305537D01*
X156927832Y-73603088D01*
X156865000Y-73918967D01*
X150388072Y-73918967D01*
X150388072Y-72250000D01*
X150375812Y-72125518D01*
X150339502Y-72005820D01*
X150280537Y-71895506D01*
X150201185Y-71798815D01*
X150104494Y-71719463D01*
X149994180Y-71660498D01*
X149874482Y-71624188D01*
X149750000Y-71611928D01*
X146250000Y-71611928D01*
X146125518Y-71624188D01*
X146005820Y-71660498D01*
X145895506Y-71719463D01*
X145798815Y-71798815D01*
X145719463Y-71895506D01*
X145678506Y-71972131D01*
X145688072Y-71875000D01*
X145688072Y-71602595D01*
X156858282Y-71602595D01*
X156902039Y-71921675D01*
X157007205Y-72226088D01*
X157100186Y-72400044D01*
X157364587Y-72495808D01*
X158320395Y-71540000D01*
X158306253Y-71525858D01*
X158485858Y-71346253D01*
X158500000Y-71360395D01*
X158514143Y-71346253D01*
X158693748Y-71525858D01*
X158679605Y-71540000D01*
X159635413Y-72495808D01*
X159899814Y-72400044D01*
X160040704Y-72110429D01*
X160122384Y-71798892D01*
X160141718Y-71477405D01*
X160097961Y-71158325D01*
X159992795Y-70853912D01*
X159899814Y-70679956D01*
X159692967Y-70605037D01*
X159744180Y-70589502D01*
X159854494Y-70530537D01*
X159951185Y-70451185D01*
X160030537Y-70354494D01*
X160089502Y-70244180D01*
X160125812Y-70124482D01*
X160138072Y-70000000D01*
X160138072Y-68000000D01*
X160129618Y-67914155D01*
X189765450Y-67914155D01*
X190161634Y-68434550D01*
X190876612Y-68824748D01*
X191653976Y-69067964D01*
X192463853Y-69154851D01*
X193275118Y-69082069D01*
X194056597Y-68852415D01*
X194778256Y-68474715D01*
X194838366Y-68434550D01*
X195234550Y-67914155D01*
X192500000Y-65179605D01*
X189765450Y-67914155D01*
X160129618Y-67914155D01*
X160125812Y-67875518D01*
X160089502Y-67755820D01*
X160030537Y-67645506D01*
X159951185Y-67548815D01*
X159854494Y-67469463D01*
X159744180Y-67410498D01*
X159624482Y-67374188D01*
X159500000Y-67361928D01*
X157500000Y-67361928D01*
X157375518Y-67374188D01*
X157255820Y-67410498D01*
X157145506Y-67469463D01*
X157048815Y-67548815D01*
X156969463Y-67645506D01*
X156910498Y-67755820D01*
X156874188Y-67875518D01*
X156861928Y-68000000D01*
X156861928Y-70000000D01*
X156874188Y-70124482D01*
X156910498Y-70244180D01*
X156969463Y-70354494D01*
X157048815Y-70451185D01*
X157145506Y-70530537D01*
X157255820Y-70589502D01*
X157307033Y-70605037D01*
X157100186Y-70679956D01*
X156959296Y-70969571D01*
X156877616Y-71281108D01*
X156858282Y-71602595D01*
X145688072Y-71602595D01*
X145688072Y-70125000D01*
X145658999Y-69829814D01*
X145572896Y-69545972D01*
X145548324Y-69500000D01*
X145611928Y-69500000D01*
X145624188Y-69624482D01*
X145660498Y-69744180D01*
X145719463Y-69854494D01*
X145798815Y-69951185D01*
X145895506Y-70030537D01*
X146005820Y-70089502D01*
X146125518Y-70125812D01*
X146250000Y-70138072D01*
X147714250Y-70135000D01*
X147873000Y-69976250D01*
X147873000Y-68127000D01*
X148127000Y-68127000D01*
X148127000Y-69976250D01*
X148285750Y-70135000D01*
X149750000Y-70138072D01*
X149874482Y-70125812D01*
X149994180Y-70089502D01*
X150104494Y-70030537D01*
X150201185Y-69951185D01*
X150280537Y-69854494D01*
X150339502Y-69744180D01*
X150375812Y-69624482D01*
X150388072Y-69500000D01*
X150385000Y-68285750D01*
X150226250Y-68127000D01*
X148127000Y-68127000D01*
X147873000Y-68127000D01*
X145773750Y-68127000D01*
X145615000Y-68285750D01*
X145611928Y-69500000D01*
X145548324Y-69500000D01*
X145433073Y-69284382D01*
X145244903Y-69055097D01*
X145015618Y-68866927D01*
X144754028Y-68727104D01*
X144470186Y-68641001D01*
X144175000Y-68611928D01*
X142425000Y-68611928D01*
X142129814Y-68641001D01*
X141845972Y-68727104D01*
X141584382Y-68866927D01*
X141355097Y-69055097D01*
X141166927Y-69284382D01*
X141027104Y-69545972D01*
X140941001Y-69829814D01*
X140911928Y-70125000D01*
X98160000Y-70125000D01*
X98160000Y-67914155D01*
X99765450Y-67914155D01*
X100161634Y-68434550D01*
X100876612Y-68824748D01*
X101653976Y-69067964D01*
X102463853Y-69154851D01*
X103275118Y-69082069D01*
X104056597Y-68852415D01*
X104778256Y-68474715D01*
X104838366Y-68434550D01*
X105234550Y-67914155D01*
X102500000Y-65179605D01*
X99765450Y-67914155D01*
X98160000Y-67914155D01*
X98160000Y-64963853D01*
X98345149Y-64963853D01*
X98417931Y-65775118D01*
X98647585Y-66556597D01*
X99025285Y-67278256D01*
X99065450Y-67338366D01*
X99585845Y-67734550D01*
X102320395Y-65000000D01*
X102679605Y-65000000D01*
X105414155Y-67734550D01*
X105934550Y-67338366D01*
X106324748Y-66623388D01*
X106363352Y-66500000D01*
X145611928Y-66500000D01*
X145615000Y-67714250D01*
X145773750Y-67873000D01*
X147873000Y-67873000D01*
X147873000Y-66023750D01*
X148127000Y-66023750D01*
X148127000Y-67873000D01*
X150226250Y-67873000D01*
X150385000Y-67714250D01*
X150388072Y-66500000D01*
X150375812Y-66375518D01*
X150339502Y-66255820D01*
X150280537Y-66145506D01*
X150201185Y-66048815D01*
X150104494Y-65969463D01*
X149994180Y-65910498D01*
X149874482Y-65874188D01*
X149750000Y-65861928D01*
X148285750Y-65865000D01*
X148127000Y-66023750D01*
X147873000Y-66023750D01*
X147714250Y-65865000D01*
X146250000Y-65861928D01*
X146125518Y-65874188D01*
X146005820Y-65910498D01*
X145895506Y-65969463D01*
X145798815Y-66048815D01*
X145719463Y-66145506D01*
X145660498Y-66255820D01*
X145624188Y-66375518D01*
X145611928Y-66500000D01*
X106363352Y-66500000D01*
X106567964Y-65846024D01*
X106654851Y-65036147D01*
X106648366Y-64963853D01*
X188345149Y-64963853D01*
X188417931Y-65775118D01*
X188647585Y-66556597D01*
X189025285Y-67278256D01*
X189065450Y-67338366D01*
X189585845Y-67734550D01*
X192320395Y-65000000D01*
X192679605Y-65000000D01*
X195414155Y-67734550D01*
X195934550Y-67338366D01*
X196324748Y-66623388D01*
X196567964Y-65846024D01*
X196654851Y-65036147D01*
X196582069Y-64224882D01*
X196352415Y-63443403D01*
X195974715Y-62721744D01*
X195934550Y-62661634D01*
X195414155Y-62265450D01*
X192679605Y-65000000D01*
X192320395Y-65000000D01*
X189585845Y-62265450D01*
X189065450Y-62661634D01*
X188675252Y-63376612D01*
X188432036Y-64153976D01*
X188345149Y-64963853D01*
X106648366Y-64963853D01*
X106582069Y-64224882D01*
X106352415Y-63443403D01*
X105974715Y-62721744D01*
X105934550Y-62661634D01*
X105414155Y-62265450D01*
X102679605Y-65000000D01*
X102320395Y-65000000D01*
X99585845Y-62265450D01*
X99065450Y-62661634D01*
X98675252Y-63376612D01*
X98432036Y-64153976D01*
X98345149Y-64963853D01*
X98160000Y-64963853D01*
X98160000Y-62085845D01*
X99765450Y-62085845D01*
X102500000Y-64820395D01*
X105234550Y-62085845D01*
X189765450Y-62085845D01*
X192500000Y-64820395D01*
X195234550Y-62085845D01*
X194838366Y-61565450D01*
X194123388Y-61175252D01*
X193346024Y-60932036D01*
X192536147Y-60845149D01*
X191724882Y-60917931D01*
X190943403Y-61147585D01*
X190221744Y-61525285D01*
X190161634Y-61565450D01*
X189765450Y-62085845D01*
X105234550Y-62085845D01*
X104838366Y-61565450D01*
X104123388Y-61175252D01*
X103346024Y-60932036D01*
X102536147Y-60845149D01*
X101724882Y-60917931D01*
X100943403Y-61147585D01*
X100221744Y-61525285D01*
X100161634Y-61565450D01*
X99765450Y-62085845D01*
X98160000Y-62085845D01*
X98160000Y-60660000D01*
X196840000Y-60660000D01*
X196840001Y-159340000D01*
M02*
