M48
; DRILL file {KiCad (5.1.6-0-10_14)} date Saturday, August 08, 2020 at 04:53:36 PM
; FORMAT={-:-/ absolute / inch / decimal}
; #@! TF.CreationDate,2020-08-08T16:53:36-04:00
; #@! TF.GenerationSoftware,Kicad,Pcbnew,(5.1.6-0-10_14)
; #@! TF.FileFunction,Plated,1,2,PTH
FMAT,2
INCH
T1C0.0157
T2C0.0197
T3C0.0315
T4C0.0394
T5C0.0433
T6C0.1378
%
G90
G05
T1
X5.374Y-2.874
X6.22Y-6.0403
X6.24Y-3.27
T2
X7.4754Y-6.1024
X7.5057Y-6.0293
X7.5057Y-6.1754
X7.5787Y-5.999
X7.5787Y-6.2057
X7.6518Y-6.0293
X7.6518Y-6.1754
X7.6821Y-6.1024
X3.9321Y-6.1024
X3.9624Y-6.0293
X3.9624Y-6.1754
X4.0354Y-5.999
X4.0354Y-6.2057
X4.1085Y-6.0293
X4.1085Y-6.1754
X4.1388Y-6.1024
X3.9321Y-2.5591
X3.9624Y-2.486
X3.9624Y-2.6321
X4.0354Y-2.4557
X4.0354Y-2.6624
X4.1085Y-2.486
X4.1085Y-2.6321
X4.1388Y-2.5591
X7.4754Y-2.5591
X7.5057Y-2.486
X7.5057Y-2.6321
X7.5787Y-2.4557
X7.5787Y-2.6624
X7.6518Y-2.486
X7.6518Y-2.6321
X7.6821Y-2.5591
T3
X6.06Y-3.1
T4
X5.3209Y-4.5886
X5.3209Y-4.6886
X5.3209Y-4.7886
X5.3209Y-4.8886
X5.3209Y-4.9886
X4.9209Y-4.5886
X6.2402Y-2.7165
X6.2402Y-2.8165
X6.2402Y-2.9165
T5
X5.6693Y-6.02
X5.6693Y-6.1972
X5.9252Y-6.02
X5.9252Y-6.1972
T6
X7.5787Y-6.1024
X4.0354Y-6.1024
X4.0354Y-2.5591
X7.5787Y-2.5591
T4
G00X5.6417Y-2.7559
M15
G01X5.6417Y-2.8346
M16
G05
G00X5.8661Y-2.6772
M15
G01X5.7874Y-2.6772
M16
G05
G00X5.8661Y-2.9134
M15
G01X5.7874Y-2.9134
M16
G05
T0
M30
