G04 #@! TF.GenerationSoftware,KiCad,Pcbnew,(5.1.6-0-10_14)*
G04 #@! TF.CreationDate,2020-08-08T16:53:34-04:00*
G04 #@! TF.ProjectId,business-card-v4-programmer-board-pcb,62757369-6e65-4737-932d-636172642d76,rev?*
G04 #@! TF.SameCoordinates,Original*
G04 #@! TF.FileFunction,Copper,L1,Top*
G04 #@! TF.FilePolarity,Positive*
%FSLAX46Y46*%
G04 Gerber Fmt 4.6, Leading zero omitted, Abs format (unit mm)*
G04 Created by KiCad (PCBNEW (5.1.6-0-10_14)) date 2020-08-08 16:53:34*
%MOMM*%
%LPD*%
G01*
G04 APERTURE LIST*
G04 #@! TA.AperFunction,SMDPad,CuDef*
%ADD10R,1.200000X2.500000*%
G04 #@! TD*
G04 #@! TA.AperFunction,SMDPad,CuDef*
%ADD11R,1.000000X2.750000*%
G04 #@! TD*
G04 #@! TA.AperFunction,ComponentPad*
%ADD12R,3.500000X3.500000*%
G04 #@! TD*
G04 #@! TA.AperFunction,ComponentPad*
%ADD13R,1.700000X1.700000*%
G04 #@! TD*
G04 #@! TA.AperFunction,ComponentPad*
%ADD14O,1.700000X1.700000*%
G04 #@! TD*
G04 #@! TA.AperFunction,ComponentPad*
%ADD15C,2.000000*%
G04 #@! TD*
G04 #@! TA.AperFunction,ComponentPad*
%ADD16R,2.000000X2.000000*%
G04 #@! TD*
G04 #@! TA.AperFunction,ComponentPad*
%ADD17C,0.800000*%
G04 #@! TD*
G04 #@! TA.AperFunction,ComponentPad*
%ADD18C,7.000000*%
G04 #@! TD*
G04 #@! TA.AperFunction,ViaPad*
%ADD19C,0.800000*%
G04 #@! TD*
G04 #@! TA.AperFunction,ViaPad*
%ADD20C,1.600000*%
G04 #@! TD*
G04 #@! TA.AperFunction,Conductor*
%ADD21C,0.250000*%
G04 #@! TD*
G04 #@! TA.AperFunction,Conductor*
%ADD22C,1.200000*%
G04 #@! TD*
G04 #@! TA.AperFunction,Conductor*
%ADD23C,0.400000*%
G04 #@! TD*
G04 #@! TA.AperFunction,Conductor*
%ADD24C,0.254000*%
G04 #@! TD*
G04 APERTURE END LIST*
D10*
X166000000Y-151750000D03*
X163500000Y-151750000D03*
X161000000Y-151750000D03*
X161000000Y-157250000D03*
X163500000Y-157250000D03*
X166000000Y-157250000D03*
D11*
X128500000Y-64375000D03*
X128500000Y-70625000D03*
X130500000Y-64375000D03*
X130500000Y-70625000D03*
X132500000Y-64375000D03*
X132500000Y-70625000D03*
X134500000Y-64375000D03*
X134500000Y-70625000D03*
X136500000Y-64375000D03*
X136500000Y-70625000D03*
G04 #@! TA.AperFunction,SMDPad,CuDef*
G36*
G01*
X155550000Y-153043750D02*
X155550000Y-153956250D01*
G75*
G02*
X155306250Y-154200000I-243750J0D01*
G01*
X154818750Y-154200000D01*
G75*
G02*
X154575000Y-153956250I0J243750D01*
G01*
X154575000Y-153043750D01*
G75*
G02*
X154818750Y-152800000I243750J0D01*
G01*
X155306250Y-152800000D01*
G75*
G02*
X155550000Y-153043750I0J-243750D01*
G01*
G37*
G04 #@! TD.AperFunction*
G04 #@! TA.AperFunction,SMDPad,CuDef*
G36*
G01*
X157425000Y-153043750D02*
X157425000Y-153956250D01*
G75*
G02*
X157181250Y-154200000I-243750J0D01*
G01*
X156693750Y-154200000D01*
G75*
G02*
X156450000Y-153956250I0J243750D01*
G01*
X156450000Y-153043750D01*
G75*
G02*
X156693750Y-152800000I243750J0D01*
G01*
X157181250Y-152800000D01*
G75*
G02*
X157425000Y-153043750I0J-243750D01*
G01*
G37*
G04 #@! TD.AperFunction*
G04 #@! TA.AperFunction,ComponentPad*
G36*
G01*
X142425000Y-69250000D02*
X144175000Y-69250000D01*
G75*
G02*
X145050000Y-70125000I0J-875000D01*
G01*
X145050000Y-71875000D01*
G75*
G02*
X144175000Y-72750000I-875000J0D01*
G01*
X142425000Y-72750000D01*
G75*
G02*
X141550000Y-71875000I0J875000D01*
G01*
X141550000Y-70125000D01*
G75*
G02*
X142425000Y-69250000I875000J0D01*
G01*
G37*
G04 #@! TD.AperFunction*
G04 #@! TA.AperFunction,ComponentPad*
G36*
G01*
X147000000Y-66500000D02*
X149000000Y-66500000D01*
G75*
G02*
X149750000Y-67250000I0J-750000D01*
G01*
X149750000Y-68750000D01*
G75*
G02*
X149000000Y-69500000I-750000J0D01*
G01*
X147000000Y-69500000D01*
G75*
G02*
X146250000Y-68750000I0J750000D01*
G01*
X146250000Y-67250000D01*
G75*
G02*
X147000000Y-66500000I750000J0D01*
G01*
G37*
G04 #@! TD.AperFunction*
D12*
X148000000Y-74000000D03*
G04 #@! TA.AperFunction,SMDPad,CuDef*
G36*
G01*
X156450000Y-156956250D02*
X156450000Y-156043750D01*
G75*
G02*
X156693750Y-155800000I243750J0D01*
G01*
X157181250Y-155800000D01*
G75*
G02*
X157425000Y-156043750I0J-243750D01*
G01*
X157425000Y-156956250D01*
G75*
G02*
X157181250Y-157200000I-243750J0D01*
G01*
X156693750Y-157200000D01*
G75*
G02*
X156450000Y-156956250I0J243750D01*
G01*
G37*
G04 #@! TD.AperFunction*
G04 #@! TA.AperFunction,SMDPad,CuDef*
G36*
G01*
X154575000Y-156956250D02*
X154575000Y-156043750D01*
G75*
G02*
X154818750Y-155800000I243750J0D01*
G01*
X155306250Y-155800000D01*
G75*
G02*
X155550000Y-156043750I0J-243750D01*
G01*
X155550000Y-156956250D01*
G75*
G02*
X155306250Y-157200000I-243750J0D01*
G01*
X154818750Y-157200000D01*
G75*
G02*
X154575000Y-156956250I0J243750D01*
G01*
G37*
G04 #@! TD.AperFunction*
D13*
X124990000Y-116550000D03*
D14*
X135150000Y-126710000D03*
X135150000Y-124170000D03*
X135150000Y-121630000D03*
X135150000Y-119090000D03*
D13*
X135150000Y-116550000D03*
D15*
X158500000Y-74080000D03*
X158500000Y-71540000D03*
D16*
X158500000Y-69000000D03*
D15*
X150500000Y-152908000D03*
X150500000Y-157408000D03*
X144000000Y-152908000D03*
X144000000Y-157408000D03*
D17*
X104356155Y-153143845D03*
X102500000Y-152375000D03*
X100643845Y-153143845D03*
X99875000Y-155000000D03*
X100643845Y-156856155D03*
X102500000Y-157625000D03*
X104356155Y-156856155D03*
X105125000Y-155000000D03*
D18*
X102500000Y-155000000D03*
D17*
X190643845Y-66856155D03*
X192500000Y-67625000D03*
X194356155Y-66856155D03*
X195125000Y-65000000D03*
X194356155Y-63143845D03*
X192500000Y-62375000D03*
X190643845Y-63143845D03*
X189875000Y-65000000D03*
D18*
X192500000Y-65000000D03*
D17*
X194356155Y-153143845D03*
X192500000Y-152375000D03*
X190643845Y-153143845D03*
X189875000Y-155000000D03*
X190643845Y-156856155D03*
X192500000Y-157625000D03*
X194356155Y-156856155D03*
X195125000Y-155000000D03*
D18*
X192500000Y-155000000D03*
D17*
X100643845Y-66856155D03*
X102500000Y-67625000D03*
X104356155Y-66856155D03*
X105125000Y-65000000D03*
X104356155Y-63143845D03*
X102500000Y-62375000D03*
X100643845Y-63143845D03*
X99875000Y-65000000D03*
D18*
X102500000Y-65000000D03*
G04 #@! TA.AperFunction,SMDPad,CuDef*
G36*
G01*
X158243750Y-81350000D02*
X158756250Y-81350000D01*
G75*
G02*
X158975000Y-81568750I0J-218750D01*
G01*
X158975000Y-82006250D01*
G75*
G02*
X158756250Y-82225000I-218750J0D01*
G01*
X158243750Y-82225000D01*
G75*
G02*
X158025000Y-82006250I0J218750D01*
G01*
X158025000Y-81568750D01*
G75*
G02*
X158243750Y-81350000I218750J0D01*
G01*
G37*
G04 #@! TD.AperFunction*
G04 #@! TA.AperFunction,SMDPad,CuDef*
G36*
G01*
X158243750Y-79775000D02*
X158756250Y-79775000D01*
G75*
G02*
X158975000Y-79993750I0J-218750D01*
G01*
X158975000Y-80431250D01*
G75*
G02*
X158756250Y-80650000I-218750J0D01*
G01*
X158243750Y-80650000D01*
G75*
G02*
X158025000Y-80431250I0J218750D01*
G01*
X158025000Y-79993750D01*
G75*
G02*
X158243750Y-79775000I218750J0D01*
G01*
G37*
G04 #@! TD.AperFunction*
G04 #@! TA.AperFunction,SMDPad,CuDef*
G36*
G01*
X150675000Y-81550000D02*
X150675000Y-80450000D01*
G75*
G02*
X150925000Y-80200000I250000J0D01*
G01*
X153200000Y-80200000D01*
G75*
G02*
X153450000Y-80450000I0J-250000D01*
G01*
X153450000Y-81550000D01*
G75*
G02*
X153200000Y-81800000I-250000J0D01*
G01*
X150925000Y-81800000D01*
G75*
G02*
X150675000Y-81550000I0J250000D01*
G01*
G37*
G04 #@! TD.AperFunction*
G04 #@! TA.AperFunction,SMDPad,CuDef*
G36*
G01*
X146550000Y-81550000D02*
X146550000Y-80450000D01*
G75*
G02*
X146800000Y-80200000I250000J0D01*
G01*
X149075000Y-80200000D01*
G75*
G02*
X149325000Y-80450000I0J-250000D01*
G01*
X149325000Y-81550000D01*
G75*
G02*
X149075000Y-81800000I-250000J0D01*
G01*
X146800000Y-81800000D01*
G75*
G02*
X146550000Y-81550000I0J250000D01*
G01*
G37*
G04 #@! TD.AperFunction*
D19*
X158496000Y-83058000D03*
D20*
X153924000Y-78740000D03*
D19*
X157988000Y-153424000D03*
X136500000Y-73000000D03*
D21*
X157912000Y-153500000D02*
X157988000Y-153424000D01*
X156937500Y-153500000D02*
X157912000Y-153500000D01*
D22*
X152062500Y-80601500D02*
X153924000Y-78740000D01*
X152062500Y-81000000D02*
X152062500Y-80601500D01*
D21*
X136500000Y-73000000D02*
X136500000Y-70625000D01*
X136500000Y-70625000D02*
X130500000Y-70625000D01*
D23*
X158500000Y-83054000D02*
X158496000Y-83058000D01*
X158500000Y-81787500D02*
X158500000Y-83054000D01*
D22*
X148000000Y-80937500D02*
X147937500Y-81000000D01*
X148000000Y-74000000D02*
X148000000Y-80937500D01*
X155950000Y-69000000D02*
X158500000Y-69000000D01*
X150950000Y-74000000D02*
X155950000Y-69000000D01*
X148000000Y-74000000D02*
X150950000Y-74000000D01*
D21*
X150500000Y-152908000D02*
X144000000Y-152908000D01*
X144000000Y-130480000D02*
X135150000Y-121630000D01*
X144000000Y-152908000D02*
X144000000Y-130480000D01*
X135150000Y-121630000D02*
X137325001Y-119454999D01*
X136500000Y-68164998D02*
X136500000Y-64375000D01*
X137325001Y-68989999D02*
X136500000Y-68164998D01*
X137325001Y-119454999D02*
X137325001Y-68989999D01*
X128500000Y-120060000D02*
X135150000Y-126710000D01*
X128500000Y-70625000D02*
X128500000Y-120060000D01*
X155062500Y-153500000D02*
X155062500Y-156500000D01*
X136325001Y-127274001D02*
X136325001Y-125345001D01*
X134585999Y-127885001D02*
X135714001Y-127885001D01*
X127674999Y-120974001D02*
X134585999Y-127885001D01*
X136325001Y-125345001D02*
X135150000Y-124170000D01*
X135714001Y-127885001D02*
X136325001Y-127274001D01*
X127674999Y-65200001D02*
X127674999Y-120974001D01*
X128500000Y-64375000D02*
X127674999Y-65200001D01*
X129325001Y-65549999D02*
X130500000Y-64375000D01*
X129325001Y-113265001D02*
X129325001Y-65549999D01*
X135150000Y-119090000D02*
X129325001Y-113265001D01*
D23*
X158500000Y-74080000D02*
X158500000Y-80212500D01*
X159375010Y-147625010D02*
X163500000Y-151750000D01*
X159375010Y-81087510D02*
X159375010Y-147625010D01*
X158500000Y-80212500D02*
X159375010Y-81087510D01*
X163500000Y-151750000D02*
X163500000Y-157250000D01*
D24*
G36*
X196840001Y-159340000D02*
G01*
X98160000Y-159340000D01*
X98160000Y-154592738D01*
X98365000Y-154592738D01*
X98365000Y-155407262D01*
X98523906Y-156206135D01*
X98835611Y-156958657D01*
X99288136Y-157635909D01*
X99864091Y-158211864D01*
X100541343Y-158664389D01*
X101293865Y-158976094D01*
X102092738Y-159135000D01*
X102907262Y-159135000D01*
X103706135Y-158976094D01*
X104458657Y-158664389D01*
X105135909Y-158211864D01*
X105711864Y-157635909D01*
X105971746Y-157246967D01*
X142365000Y-157246967D01*
X142365000Y-157569033D01*
X142427832Y-157884912D01*
X142551082Y-158182463D01*
X142730013Y-158450252D01*
X142957748Y-158677987D01*
X143225537Y-158856918D01*
X143523088Y-158980168D01*
X143838967Y-159043000D01*
X144161033Y-159043000D01*
X144476912Y-158980168D01*
X144774463Y-158856918D01*
X145042252Y-158677987D01*
X145269987Y-158450252D01*
X145448918Y-158182463D01*
X145572168Y-157884912D01*
X145635000Y-157569033D01*
X145635000Y-157246967D01*
X148865000Y-157246967D01*
X148865000Y-157569033D01*
X148927832Y-157884912D01*
X149051082Y-158182463D01*
X149230013Y-158450252D01*
X149457748Y-158677987D01*
X149725537Y-158856918D01*
X150023088Y-158980168D01*
X150338967Y-159043000D01*
X150661033Y-159043000D01*
X150976912Y-158980168D01*
X151274463Y-158856918D01*
X151542252Y-158677987D01*
X151720239Y-158500000D01*
X159761928Y-158500000D01*
X159774188Y-158624482D01*
X159810498Y-158744180D01*
X159869463Y-158854494D01*
X159948815Y-158951185D01*
X160045506Y-159030537D01*
X160155820Y-159089502D01*
X160275518Y-159125812D01*
X160400000Y-159138072D01*
X160714250Y-159135000D01*
X160873000Y-158976250D01*
X160873000Y-157377000D01*
X161127000Y-157377000D01*
X161127000Y-158976250D01*
X161285750Y-159135000D01*
X161600000Y-159138072D01*
X161724482Y-159125812D01*
X161844180Y-159089502D01*
X161954494Y-159030537D01*
X162051185Y-158951185D01*
X162130537Y-158854494D01*
X162189502Y-158744180D01*
X162225812Y-158624482D01*
X162238072Y-158500000D01*
X162235000Y-157535750D01*
X162076250Y-157377000D01*
X161127000Y-157377000D01*
X160873000Y-157377000D01*
X159923750Y-157377000D01*
X159765000Y-157535750D01*
X159761928Y-158500000D01*
X151720239Y-158500000D01*
X151769987Y-158450252D01*
X151948918Y-158182463D01*
X152072168Y-157884912D01*
X152135000Y-157569033D01*
X152135000Y-157246967D01*
X152072168Y-156931088D01*
X151948918Y-156633537D01*
X151769987Y-156365748D01*
X151542252Y-156138013D01*
X151274463Y-155959082D01*
X150976912Y-155835832D01*
X150661033Y-155773000D01*
X150338967Y-155773000D01*
X150023088Y-155835832D01*
X149725537Y-155959082D01*
X149457748Y-156138013D01*
X149230013Y-156365748D01*
X149051082Y-156633537D01*
X148927832Y-156931088D01*
X148865000Y-157246967D01*
X145635000Y-157246967D01*
X145572168Y-156931088D01*
X145448918Y-156633537D01*
X145269987Y-156365748D01*
X145042252Y-156138013D01*
X144774463Y-155959082D01*
X144476912Y-155835832D01*
X144161033Y-155773000D01*
X143838967Y-155773000D01*
X143523088Y-155835832D01*
X143225537Y-155959082D01*
X142957748Y-156138013D01*
X142730013Y-156365748D01*
X142551082Y-156633537D01*
X142427832Y-156931088D01*
X142365000Y-157246967D01*
X105971746Y-157246967D01*
X106164389Y-156958657D01*
X106476094Y-156206135D01*
X106635000Y-155407262D01*
X106635000Y-154592738D01*
X106476094Y-153793865D01*
X106164389Y-153041343D01*
X105711864Y-152364091D01*
X105135909Y-151788136D01*
X104458657Y-151335611D01*
X103706135Y-151023906D01*
X102907262Y-150865000D01*
X102092738Y-150865000D01*
X101293865Y-151023906D01*
X100541343Y-151335611D01*
X99864091Y-151788136D01*
X99288136Y-152364091D01*
X98835611Y-153041343D01*
X98523906Y-153793865D01*
X98365000Y-154592738D01*
X98160000Y-154592738D01*
X98160000Y-117400000D01*
X123501928Y-117400000D01*
X123514188Y-117524482D01*
X123550498Y-117644180D01*
X123609463Y-117754494D01*
X123688815Y-117851185D01*
X123785506Y-117930537D01*
X123895820Y-117989502D01*
X124015518Y-118025812D01*
X124140000Y-118038072D01*
X124704250Y-118035000D01*
X124863000Y-117876250D01*
X124863000Y-116677000D01*
X125117000Y-116677000D01*
X125117000Y-117876250D01*
X125275750Y-118035000D01*
X125840000Y-118038072D01*
X125964482Y-118025812D01*
X126084180Y-117989502D01*
X126194494Y-117930537D01*
X126291185Y-117851185D01*
X126370537Y-117754494D01*
X126429502Y-117644180D01*
X126465812Y-117524482D01*
X126478072Y-117400000D01*
X126475000Y-116835750D01*
X126316250Y-116677000D01*
X125117000Y-116677000D01*
X124863000Y-116677000D01*
X123663750Y-116677000D01*
X123505000Y-116835750D01*
X123501928Y-117400000D01*
X98160000Y-117400000D01*
X98160000Y-115700000D01*
X123501928Y-115700000D01*
X123505000Y-116264250D01*
X123663750Y-116423000D01*
X124863000Y-116423000D01*
X124863000Y-115223750D01*
X125117000Y-115223750D01*
X125117000Y-116423000D01*
X126316250Y-116423000D01*
X126475000Y-116264250D01*
X126478072Y-115700000D01*
X126465812Y-115575518D01*
X126429502Y-115455820D01*
X126370537Y-115345506D01*
X126291185Y-115248815D01*
X126194494Y-115169463D01*
X126084180Y-115110498D01*
X125964482Y-115074188D01*
X125840000Y-115061928D01*
X125275750Y-115065000D01*
X125117000Y-115223750D01*
X124863000Y-115223750D01*
X124704250Y-115065000D01*
X124140000Y-115061928D01*
X124015518Y-115074188D01*
X123895820Y-115110498D01*
X123785506Y-115169463D01*
X123688815Y-115248815D01*
X123609463Y-115345506D01*
X123550498Y-115455820D01*
X123514188Y-115575518D01*
X123501928Y-115700000D01*
X98160000Y-115700000D01*
X98160000Y-64592738D01*
X98365000Y-64592738D01*
X98365000Y-65407262D01*
X98523906Y-66206135D01*
X98835611Y-66958657D01*
X99288136Y-67635909D01*
X99864091Y-68211864D01*
X100541343Y-68664389D01*
X101293865Y-68976094D01*
X102092738Y-69135000D01*
X102907262Y-69135000D01*
X103706135Y-68976094D01*
X104458657Y-68664389D01*
X105135909Y-68211864D01*
X105711864Y-67635909D01*
X106164389Y-66958657D01*
X106476094Y-66206135D01*
X106635000Y-65407262D01*
X106635000Y-65200001D01*
X126911323Y-65200001D01*
X126914999Y-65237323D01*
X126915000Y-120936668D01*
X126911323Y-120974001D01*
X126925997Y-121122986D01*
X126969453Y-121266247D01*
X127040025Y-121398277D01*
X127111200Y-121485003D01*
X127134999Y-121514002D01*
X127163997Y-121537800D01*
X134022200Y-128396004D01*
X134045998Y-128425002D01*
X134074996Y-128448800D01*
X134161722Y-128519975D01*
X134293752Y-128590547D01*
X134437013Y-128634004D01*
X134548666Y-128645001D01*
X134548676Y-128645001D01*
X134585999Y-128648677D01*
X134623322Y-128645001D01*
X135676679Y-128645001D01*
X135714001Y-128648677D01*
X135751323Y-128645001D01*
X135751334Y-128645001D01*
X135862987Y-128634004D01*
X136006248Y-128590547D01*
X136138277Y-128519975D01*
X136254002Y-128425002D01*
X136277804Y-128395999D01*
X136836010Y-127837795D01*
X136865002Y-127814002D01*
X136888796Y-127785009D01*
X136888800Y-127785005D01*
X136959974Y-127698278D01*
X136959975Y-127698277D01*
X137030547Y-127566248D01*
X137074004Y-127422987D01*
X137085001Y-127311334D01*
X137085001Y-127311325D01*
X137088677Y-127274002D01*
X137085001Y-127236679D01*
X137085001Y-125382323D01*
X137088677Y-125345000D01*
X137085001Y-125307677D01*
X137085001Y-125307668D01*
X137074004Y-125196015D01*
X137030547Y-125052754D01*
X136959975Y-124920725D01*
X136865002Y-124805000D01*
X136836004Y-124781202D01*
X136591210Y-124536408D01*
X136635000Y-124316260D01*
X136635000Y-124189801D01*
X143240001Y-130794803D01*
X143240000Y-151453091D01*
X143225537Y-151459082D01*
X142957748Y-151638013D01*
X142730013Y-151865748D01*
X142551082Y-152133537D01*
X142427832Y-152431088D01*
X142365000Y-152746967D01*
X142365000Y-153069033D01*
X142427832Y-153384912D01*
X142551082Y-153682463D01*
X142730013Y-153950252D01*
X142957748Y-154177987D01*
X143225537Y-154356918D01*
X143523088Y-154480168D01*
X143838967Y-154543000D01*
X144161033Y-154543000D01*
X144476912Y-154480168D01*
X144774463Y-154356918D01*
X145042252Y-154177987D01*
X145269987Y-153950252D01*
X145448918Y-153682463D01*
X145454909Y-153668000D01*
X149045091Y-153668000D01*
X149051082Y-153682463D01*
X149230013Y-153950252D01*
X149457748Y-154177987D01*
X149725537Y-154356918D01*
X150023088Y-154480168D01*
X150338967Y-154543000D01*
X150661033Y-154543000D01*
X150976912Y-154480168D01*
X151274463Y-154356918D01*
X151542252Y-154177987D01*
X151769987Y-153950252D01*
X151948918Y-153682463D01*
X152072168Y-153384912D01*
X152135000Y-153069033D01*
X152135000Y-153043750D01*
X153936928Y-153043750D01*
X153936928Y-153956250D01*
X153953872Y-154128285D01*
X154004053Y-154293709D01*
X154085542Y-154446164D01*
X154195208Y-154579792D01*
X154302500Y-154667845D01*
X154302501Y-155332155D01*
X154195208Y-155420208D01*
X154085542Y-155553836D01*
X154004053Y-155706291D01*
X153953872Y-155871715D01*
X153936928Y-156043750D01*
X153936928Y-156956250D01*
X153953872Y-157128285D01*
X154004053Y-157293709D01*
X154085542Y-157446164D01*
X154195208Y-157579792D01*
X154328836Y-157689458D01*
X154481291Y-157770947D01*
X154646715Y-157821128D01*
X154818750Y-157838072D01*
X155306250Y-157838072D01*
X155478285Y-157821128D01*
X155643709Y-157770947D01*
X155796164Y-157689458D01*
X155929792Y-157579792D01*
X155935008Y-157573436D01*
X155998815Y-157651185D01*
X156095506Y-157730537D01*
X156205820Y-157789502D01*
X156325518Y-157825812D01*
X156450000Y-157838072D01*
X156651750Y-157835000D01*
X156810500Y-157676250D01*
X156810500Y-156627000D01*
X157064500Y-156627000D01*
X157064500Y-157676250D01*
X157223250Y-157835000D01*
X157425000Y-157838072D01*
X157549482Y-157825812D01*
X157669180Y-157789502D01*
X157779494Y-157730537D01*
X157876185Y-157651185D01*
X157955537Y-157554494D01*
X158014502Y-157444180D01*
X158050812Y-157324482D01*
X158063072Y-157200000D01*
X158060000Y-156785750D01*
X157901250Y-156627000D01*
X157064500Y-156627000D01*
X156810500Y-156627000D01*
X156790500Y-156627000D01*
X156790500Y-156373000D01*
X156810500Y-156373000D01*
X156810500Y-155323750D01*
X157064500Y-155323750D01*
X157064500Y-156373000D01*
X157901250Y-156373000D01*
X158060000Y-156214250D01*
X158061588Y-156000000D01*
X159761928Y-156000000D01*
X159765000Y-156964250D01*
X159923750Y-157123000D01*
X160873000Y-157123000D01*
X160873000Y-155523750D01*
X161127000Y-155523750D01*
X161127000Y-157123000D01*
X162076250Y-157123000D01*
X162235000Y-156964250D01*
X162238072Y-156000000D01*
X162225812Y-155875518D01*
X162189502Y-155755820D01*
X162130537Y-155645506D01*
X162051185Y-155548815D01*
X161954494Y-155469463D01*
X161844180Y-155410498D01*
X161724482Y-155374188D01*
X161600000Y-155361928D01*
X161285750Y-155365000D01*
X161127000Y-155523750D01*
X160873000Y-155523750D01*
X160714250Y-155365000D01*
X160400000Y-155361928D01*
X160275518Y-155374188D01*
X160155820Y-155410498D01*
X160045506Y-155469463D01*
X159948815Y-155548815D01*
X159869463Y-155645506D01*
X159810498Y-155755820D01*
X159774188Y-155875518D01*
X159761928Y-156000000D01*
X158061588Y-156000000D01*
X158063072Y-155800000D01*
X158050812Y-155675518D01*
X158014502Y-155555820D01*
X157955537Y-155445506D01*
X157876185Y-155348815D01*
X157779494Y-155269463D01*
X157669180Y-155210498D01*
X157549482Y-155174188D01*
X157425000Y-155161928D01*
X157223250Y-155165000D01*
X157064500Y-155323750D01*
X156810500Y-155323750D01*
X156651750Y-155165000D01*
X156450000Y-155161928D01*
X156325518Y-155174188D01*
X156205820Y-155210498D01*
X156095506Y-155269463D01*
X155998815Y-155348815D01*
X155935008Y-155426564D01*
X155929792Y-155420208D01*
X155822500Y-155332155D01*
X155822500Y-154667845D01*
X155929792Y-154579792D01*
X156000000Y-154494244D01*
X156070208Y-154579792D01*
X156203836Y-154689458D01*
X156356291Y-154770947D01*
X156521715Y-154821128D01*
X156693750Y-154838072D01*
X157181250Y-154838072D01*
X157353285Y-154821128D01*
X157518709Y-154770947D01*
X157671164Y-154689458D01*
X157804792Y-154579792D01*
X157903924Y-154459000D01*
X158089939Y-154459000D01*
X158289898Y-154419226D01*
X158478256Y-154341205D01*
X158647774Y-154227937D01*
X158791937Y-154083774D01*
X158905205Y-153914256D01*
X158983226Y-153725898D01*
X159023000Y-153525939D01*
X159023000Y-153322061D01*
X158983226Y-153122102D01*
X158932650Y-153000000D01*
X159761928Y-153000000D01*
X159774188Y-153124482D01*
X159810498Y-153244180D01*
X159869463Y-153354494D01*
X159948815Y-153451185D01*
X160045506Y-153530537D01*
X160155820Y-153589502D01*
X160275518Y-153625812D01*
X160400000Y-153638072D01*
X160714250Y-153635000D01*
X160873000Y-153476250D01*
X160873000Y-151877000D01*
X161127000Y-151877000D01*
X161127000Y-153476250D01*
X161285750Y-153635000D01*
X161600000Y-153638072D01*
X161724482Y-153625812D01*
X161844180Y-153589502D01*
X161954494Y-153530537D01*
X162051185Y-153451185D01*
X162130537Y-153354494D01*
X162189502Y-153244180D01*
X162225812Y-153124482D01*
X162238072Y-153000000D01*
X162235000Y-152035750D01*
X162076250Y-151877000D01*
X161127000Y-151877000D01*
X160873000Y-151877000D01*
X159923750Y-151877000D01*
X159765000Y-152035750D01*
X159761928Y-153000000D01*
X158932650Y-153000000D01*
X158905205Y-152933744D01*
X158791937Y-152764226D01*
X158647774Y-152620063D01*
X158478256Y-152506795D01*
X158289898Y-152428774D01*
X158089939Y-152389000D01*
X157886061Y-152389000D01*
X157790038Y-152408100D01*
X157671164Y-152310542D01*
X157518709Y-152229053D01*
X157353285Y-152178872D01*
X157181250Y-152161928D01*
X156693750Y-152161928D01*
X156521715Y-152178872D01*
X156356291Y-152229053D01*
X156203836Y-152310542D01*
X156070208Y-152420208D01*
X156000000Y-152505756D01*
X155929792Y-152420208D01*
X155796164Y-152310542D01*
X155643709Y-152229053D01*
X155478285Y-152178872D01*
X155306250Y-152161928D01*
X154818750Y-152161928D01*
X154646715Y-152178872D01*
X154481291Y-152229053D01*
X154328836Y-152310542D01*
X154195208Y-152420208D01*
X154085542Y-152553836D01*
X154004053Y-152706291D01*
X153953872Y-152871715D01*
X153936928Y-153043750D01*
X152135000Y-153043750D01*
X152135000Y-152746967D01*
X152072168Y-152431088D01*
X151948918Y-152133537D01*
X151769987Y-151865748D01*
X151542252Y-151638013D01*
X151274463Y-151459082D01*
X150976912Y-151335832D01*
X150661033Y-151273000D01*
X150338967Y-151273000D01*
X150023088Y-151335832D01*
X149725537Y-151459082D01*
X149457748Y-151638013D01*
X149230013Y-151865748D01*
X149051082Y-152133537D01*
X149045091Y-152148000D01*
X145454909Y-152148000D01*
X145448918Y-152133537D01*
X145269987Y-151865748D01*
X145042252Y-151638013D01*
X144774463Y-151459082D01*
X144760000Y-151453091D01*
X144760000Y-130517322D01*
X144763676Y-130479999D01*
X144760000Y-130442676D01*
X144760000Y-130442667D01*
X144749003Y-130331014D01*
X144705546Y-130187753D01*
X144634974Y-130055723D01*
X144563799Y-129968997D01*
X144540001Y-129939999D01*
X144511003Y-129916201D01*
X136591209Y-121996408D01*
X136635000Y-121776260D01*
X136635000Y-121483740D01*
X136591209Y-121263592D01*
X137836005Y-120018797D01*
X137865002Y-119995000D01*
X137933927Y-119911015D01*
X137959975Y-119879276D01*
X138030547Y-119747246D01*
X138058893Y-119653799D01*
X138074004Y-119603985D01*
X138085001Y-119492332D01*
X138085001Y-119492322D01*
X138088677Y-119454999D01*
X138085001Y-119417676D01*
X138085001Y-70125000D01*
X140911928Y-70125000D01*
X140911928Y-71875000D01*
X140941001Y-72170186D01*
X141027104Y-72454028D01*
X141166927Y-72715618D01*
X141355097Y-72944903D01*
X141584382Y-73133073D01*
X141845972Y-73272896D01*
X142129814Y-73358999D01*
X142425000Y-73388072D01*
X144175000Y-73388072D01*
X144470186Y-73358999D01*
X144754028Y-73272896D01*
X145015618Y-73133073D01*
X145244903Y-72944903D01*
X145433073Y-72715618D01*
X145572896Y-72454028D01*
X145611928Y-72325357D01*
X145611928Y-75750000D01*
X145624188Y-75874482D01*
X145660498Y-75994180D01*
X145719463Y-76104494D01*
X145798815Y-76201185D01*
X145895506Y-76280537D01*
X146005820Y-76339502D01*
X146125518Y-76375812D01*
X146250000Y-76388072D01*
X146765000Y-76388072D01*
X146765001Y-79565375D01*
X146626746Y-79578992D01*
X146460150Y-79629528D01*
X146306614Y-79711595D01*
X146172038Y-79822038D01*
X146061595Y-79956614D01*
X145979528Y-80110150D01*
X145928992Y-80276746D01*
X145911928Y-80450000D01*
X145911928Y-81550000D01*
X145928992Y-81723254D01*
X145979528Y-81889850D01*
X146061595Y-82043386D01*
X146172038Y-82177962D01*
X146306614Y-82288405D01*
X146460150Y-82370472D01*
X146626746Y-82421008D01*
X146800000Y-82438072D01*
X149075000Y-82438072D01*
X149248254Y-82421008D01*
X149414850Y-82370472D01*
X149568386Y-82288405D01*
X149702962Y-82177962D01*
X149813405Y-82043386D01*
X149895472Y-81889850D01*
X149946008Y-81723254D01*
X149963072Y-81550000D01*
X149963072Y-80450000D01*
X150036928Y-80450000D01*
X150036928Y-81550000D01*
X150053992Y-81723254D01*
X150104528Y-81889850D01*
X150186595Y-82043386D01*
X150297038Y-82177962D01*
X150431614Y-82288405D01*
X150585150Y-82370472D01*
X150751746Y-82421008D01*
X150925000Y-82438072D01*
X153200000Y-82438072D01*
X153373254Y-82421008D01*
X153539850Y-82370472D01*
X153693386Y-82288405D01*
X153827962Y-82177962D01*
X153938405Y-82043386D01*
X154020472Y-81889850D01*
X154071008Y-81723254D01*
X154088072Y-81550000D01*
X154088072Y-80450000D01*
X154076639Y-80333914D01*
X154277819Y-80132734D01*
X154342574Y-80119853D01*
X154603727Y-80011680D01*
X154838759Y-79854637D01*
X155038637Y-79654759D01*
X155195680Y-79419727D01*
X155303853Y-79158574D01*
X155359000Y-78881335D01*
X155359000Y-78598665D01*
X155303853Y-78321426D01*
X155195680Y-78060273D01*
X155038637Y-77825241D01*
X154838759Y-77625363D01*
X154603727Y-77468320D01*
X154342574Y-77360147D01*
X154065335Y-77305000D01*
X153782665Y-77305000D01*
X153505426Y-77360147D01*
X153244273Y-77468320D01*
X153009241Y-77625363D01*
X152809363Y-77825241D01*
X152652320Y-78060273D01*
X152544147Y-78321426D01*
X152531266Y-78386181D01*
X151355519Y-79561928D01*
X150925000Y-79561928D01*
X150751746Y-79578992D01*
X150585150Y-79629528D01*
X150431614Y-79711595D01*
X150297038Y-79822038D01*
X150186595Y-79956614D01*
X150104528Y-80110150D01*
X150053992Y-80276746D01*
X150036928Y-80450000D01*
X149963072Y-80450000D01*
X149946008Y-80276746D01*
X149895472Y-80110150D01*
X149813405Y-79956614D01*
X149702962Y-79822038D01*
X149568386Y-79711595D01*
X149414850Y-79629528D01*
X149248254Y-79578992D01*
X149235000Y-79577687D01*
X149235000Y-76388072D01*
X149750000Y-76388072D01*
X149874482Y-76375812D01*
X149994180Y-76339502D01*
X150104494Y-76280537D01*
X150201185Y-76201185D01*
X150280537Y-76104494D01*
X150339502Y-75994180D01*
X150375812Y-75874482D01*
X150388072Y-75750000D01*
X150388072Y-75235000D01*
X150889335Y-75235000D01*
X150950000Y-75240975D01*
X151010665Y-75235000D01*
X151192102Y-75217130D01*
X151424901Y-75146511D01*
X151639449Y-75031833D01*
X151827502Y-74877502D01*
X151866178Y-74830375D01*
X156461554Y-70235000D01*
X156907713Y-70235000D01*
X156910498Y-70244180D01*
X156969463Y-70354494D01*
X157048815Y-70451185D01*
X157145506Y-70530537D01*
X157191630Y-70555191D01*
X157051082Y-70765537D01*
X156927832Y-71063088D01*
X156865000Y-71378967D01*
X156865000Y-71701033D01*
X156927832Y-72016912D01*
X157051082Y-72314463D01*
X157230013Y-72582252D01*
X157457748Y-72809987D01*
X157457767Y-72810000D01*
X157457748Y-72810013D01*
X157230013Y-73037748D01*
X157051082Y-73305537D01*
X156927832Y-73603088D01*
X156865000Y-73918967D01*
X156865000Y-74241033D01*
X156927832Y-74556912D01*
X157051082Y-74854463D01*
X157230013Y-75122252D01*
X157457748Y-75349987D01*
X157665000Y-75488469D01*
X157665001Y-79365632D01*
X157637885Y-79387885D01*
X157531329Y-79517725D01*
X157452150Y-79665858D01*
X157403392Y-79826592D01*
X157386928Y-79993750D01*
X157386928Y-80431250D01*
X157403392Y-80598408D01*
X157452150Y-80759142D01*
X157531329Y-80907275D01*
X157607426Y-81000000D01*
X157531329Y-81092725D01*
X157452150Y-81240858D01*
X157403392Y-81401592D01*
X157386928Y-81568750D01*
X157386928Y-82006250D01*
X157403392Y-82173408D01*
X157452150Y-82334142D01*
X157531329Y-82482275D01*
X157588972Y-82552513D01*
X157578795Y-82567744D01*
X157500774Y-82756102D01*
X157461000Y-82956061D01*
X157461000Y-83159939D01*
X157500774Y-83359898D01*
X157578795Y-83548256D01*
X157692063Y-83717774D01*
X157836226Y-83861937D01*
X158005744Y-83975205D01*
X158194102Y-84053226D01*
X158394061Y-84093000D01*
X158540010Y-84093000D01*
X158540011Y-147583981D01*
X158535970Y-147625010D01*
X158552092Y-147788698D01*
X158599838Y-147946096D01*
X158599839Y-147946097D01*
X158677375Y-148091156D01*
X158781720Y-148218301D01*
X158813584Y-148244451D01*
X160431367Y-149862235D01*
X160400000Y-149861928D01*
X160275518Y-149874188D01*
X160155820Y-149910498D01*
X160045506Y-149969463D01*
X159948815Y-150048815D01*
X159869463Y-150145506D01*
X159810498Y-150255820D01*
X159774188Y-150375518D01*
X159761928Y-150500000D01*
X159765000Y-151464250D01*
X159923750Y-151623000D01*
X160873000Y-151623000D01*
X160873000Y-151603000D01*
X161127000Y-151603000D01*
X161127000Y-151623000D01*
X162076250Y-151623000D01*
X162134191Y-151565059D01*
X162261928Y-151692797D01*
X162261928Y-153000000D01*
X162274188Y-153124482D01*
X162310498Y-153244180D01*
X162369463Y-153354494D01*
X162448815Y-153451185D01*
X162545506Y-153530537D01*
X162655820Y-153589502D01*
X162665000Y-153592287D01*
X162665001Y-155407713D01*
X162655820Y-155410498D01*
X162545506Y-155469463D01*
X162448815Y-155548815D01*
X162369463Y-155645506D01*
X162310498Y-155755820D01*
X162274188Y-155875518D01*
X162261928Y-156000000D01*
X162261928Y-158500000D01*
X162274188Y-158624482D01*
X162310498Y-158744180D01*
X162369463Y-158854494D01*
X162448815Y-158951185D01*
X162545506Y-159030537D01*
X162655820Y-159089502D01*
X162775518Y-159125812D01*
X162900000Y-159138072D01*
X164100000Y-159138072D01*
X164224482Y-159125812D01*
X164344180Y-159089502D01*
X164454494Y-159030537D01*
X164551185Y-158951185D01*
X164630537Y-158854494D01*
X164689502Y-158744180D01*
X164725812Y-158624482D01*
X164738072Y-158500000D01*
X164738072Y-156000000D01*
X164761928Y-156000000D01*
X164761928Y-158500000D01*
X164774188Y-158624482D01*
X164810498Y-158744180D01*
X164869463Y-158854494D01*
X164948815Y-158951185D01*
X165045506Y-159030537D01*
X165155820Y-159089502D01*
X165275518Y-159125812D01*
X165400000Y-159138072D01*
X166600000Y-159138072D01*
X166724482Y-159125812D01*
X166844180Y-159089502D01*
X166954494Y-159030537D01*
X167051185Y-158951185D01*
X167130537Y-158854494D01*
X167189502Y-158744180D01*
X167225812Y-158624482D01*
X167238072Y-158500000D01*
X167238072Y-156000000D01*
X167225812Y-155875518D01*
X167189502Y-155755820D01*
X167130537Y-155645506D01*
X167051185Y-155548815D01*
X166954494Y-155469463D01*
X166844180Y-155410498D01*
X166724482Y-155374188D01*
X166600000Y-155361928D01*
X165400000Y-155361928D01*
X165275518Y-155374188D01*
X165155820Y-155410498D01*
X165045506Y-155469463D01*
X164948815Y-155548815D01*
X164869463Y-155645506D01*
X164810498Y-155755820D01*
X164774188Y-155875518D01*
X164761928Y-156000000D01*
X164738072Y-156000000D01*
X164725812Y-155875518D01*
X164689502Y-155755820D01*
X164630537Y-155645506D01*
X164551185Y-155548815D01*
X164454494Y-155469463D01*
X164344180Y-155410498D01*
X164335000Y-155407713D01*
X164335000Y-154592738D01*
X188365000Y-154592738D01*
X188365000Y-155407262D01*
X188523906Y-156206135D01*
X188835611Y-156958657D01*
X189288136Y-157635909D01*
X189864091Y-158211864D01*
X190541343Y-158664389D01*
X191293865Y-158976094D01*
X192092738Y-159135000D01*
X192907262Y-159135000D01*
X193706135Y-158976094D01*
X194458657Y-158664389D01*
X195135909Y-158211864D01*
X195711864Y-157635909D01*
X196164389Y-156958657D01*
X196476094Y-156206135D01*
X196635000Y-155407262D01*
X196635000Y-154592738D01*
X196476094Y-153793865D01*
X196164389Y-153041343D01*
X195711864Y-152364091D01*
X195135909Y-151788136D01*
X194458657Y-151335611D01*
X193706135Y-151023906D01*
X192907262Y-150865000D01*
X192092738Y-150865000D01*
X191293865Y-151023906D01*
X190541343Y-151335611D01*
X189864091Y-151788136D01*
X189288136Y-152364091D01*
X188835611Y-153041343D01*
X188523906Y-153793865D01*
X188365000Y-154592738D01*
X164335000Y-154592738D01*
X164335000Y-153592287D01*
X164344180Y-153589502D01*
X164454494Y-153530537D01*
X164551185Y-153451185D01*
X164630537Y-153354494D01*
X164689502Y-153244180D01*
X164725812Y-153124482D01*
X164738072Y-153000000D01*
X164738072Y-150500000D01*
X164761928Y-150500000D01*
X164761928Y-153000000D01*
X164774188Y-153124482D01*
X164810498Y-153244180D01*
X164869463Y-153354494D01*
X164948815Y-153451185D01*
X165045506Y-153530537D01*
X165155820Y-153589502D01*
X165275518Y-153625812D01*
X165400000Y-153638072D01*
X166600000Y-153638072D01*
X166724482Y-153625812D01*
X166844180Y-153589502D01*
X166954494Y-153530537D01*
X167051185Y-153451185D01*
X167130537Y-153354494D01*
X167189502Y-153244180D01*
X167225812Y-153124482D01*
X167238072Y-153000000D01*
X167238072Y-150500000D01*
X167225812Y-150375518D01*
X167189502Y-150255820D01*
X167130537Y-150145506D01*
X167051185Y-150048815D01*
X166954494Y-149969463D01*
X166844180Y-149910498D01*
X166724482Y-149874188D01*
X166600000Y-149861928D01*
X165400000Y-149861928D01*
X165275518Y-149874188D01*
X165155820Y-149910498D01*
X165045506Y-149969463D01*
X164948815Y-150048815D01*
X164869463Y-150145506D01*
X164810498Y-150255820D01*
X164774188Y-150375518D01*
X164761928Y-150500000D01*
X164738072Y-150500000D01*
X164725812Y-150375518D01*
X164689502Y-150255820D01*
X164630537Y-150145506D01*
X164551185Y-150048815D01*
X164454494Y-149969463D01*
X164344180Y-149910498D01*
X164224482Y-149874188D01*
X164100000Y-149861928D01*
X162900000Y-149861928D01*
X162802408Y-149871540D01*
X160210010Y-147279143D01*
X160210010Y-81128528D01*
X160214050Y-81087509D01*
X160197928Y-80923821D01*
X160150182Y-80766423D01*
X160072646Y-80621364D01*
X160056344Y-80601500D01*
X159968301Y-80494219D01*
X159936437Y-80468070D01*
X159613072Y-80144704D01*
X159613072Y-79993750D01*
X159596608Y-79826592D01*
X159547850Y-79665858D01*
X159468671Y-79517725D01*
X159362115Y-79387885D01*
X159335000Y-79365632D01*
X159335000Y-75488468D01*
X159542252Y-75349987D01*
X159769987Y-75122252D01*
X159948918Y-74854463D01*
X160072168Y-74556912D01*
X160135000Y-74241033D01*
X160135000Y-73918967D01*
X160072168Y-73603088D01*
X159948918Y-73305537D01*
X159769987Y-73037748D01*
X159542252Y-72810013D01*
X159542233Y-72810000D01*
X159542252Y-72809987D01*
X159769987Y-72582252D01*
X159948918Y-72314463D01*
X160072168Y-72016912D01*
X160135000Y-71701033D01*
X160135000Y-71378967D01*
X160072168Y-71063088D01*
X159948918Y-70765537D01*
X159808370Y-70555191D01*
X159854494Y-70530537D01*
X159951185Y-70451185D01*
X160030537Y-70354494D01*
X160089502Y-70244180D01*
X160125812Y-70124482D01*
X160138072Y-70000000D01*
X160138072Y-68000000D01*
X160125812Y-67875518D01*
X160089502Y-67755820D01*
X160030537Y-67645506D01*
X159951185Y-67548815D01*
X159854494Y-67469463D01*
X159744180Y-67410498D01*
X159624482Y-67374188D01*
X159500000Y-67361928D01*
X157500000Y-67361928D01*
X157375518Y-67374188D01*
X157255820Y-67410498D01*
X157145506Y-67469463D01*
X157048815Y-67548815D01*
X156969463Y-67645506D01*
X156910498Y-67755820D01*
X156907713Y-67765000D01*
X156010665Y-67765000D01*
X155950000Y-67759025D01*
X155889335Y-67765000D01*
X155707898Y-67782870D01*
X155475099Y-67853489D01*
X155260551Y-67968167D01*
X155072498Y-68122498D01*
X155033826Y-68169620D01*
X150438447Y-72765000D01*
X150388072Y-72765000D01*
X150388072Y-72250000D01*
X150375812Y-72125518D01*
X150339502Y-72005820D01*
X150280537Y-71895506D01*
X150201185Y-71798815D01*
X150104494Y-71719463D01*
X149994180Y-71660498D01*
X149874482Y-71624188D01*
X149750000Y-71611928D01*
X146250000Y-71611928D01*
X146125518Y-71624188D01*
X146005820Y-71660498D01*
X145895506Y-71719463D01*
X145798815Y-71798815D01*
X145719463Y-71895506D01*
X145678506Y-71972131D01*
X145688072Y-71875000D01*
X145688072Y-70125000D01*
X145658999Y-69829814D01*
X145572896Y-69545972D01*
X145433073Y-69284382D01*
X145244903Y-69055097D01*
X145015618Y-68866927D01*
X144754028Y-68727104D01*
X144470186Y-68641001D01*
X144175000Y-68611928D01*
X142425000Y-68611928D01*
X142129814Y-68641001D01*
X141845972Y-68727104D01*
X141584382Y-68866927D01*
X141355097Y-69055097D01*
X141166927Y-69284382D01*
X141027104Y-69545972D01*
X140941001Y-69829814D01*
X140911928Y-70125000D01*
X138085001Y-70125000D01*
X138085001Y-69027332D01*
X138088678Y-68989999D01*
X138074004Y-68841013D01*
X138030547Y-68697752D01*
X137959975Y-68565723D01*
X137888800Y-68478996D01*
X137865002Y-68449998D01*
X137836003Y-68426200D01*
X137260000Y-67850197D01*
X137260000Y-67250000D01*
X145611928Y-67250000D01*
X145611928Y-68750000D01*
X145638599Y-69020799D01*
X145717589Y-69281192D01*
X145845860Y-69521171D01*
X146018485Y-69731515D01*
X146228829Y-69904140D01*
X146468808Y-70032411D01*
X146729201Y-70111401D01*
X147000000Y-70138072D01*
X149000000Y-70138072D01*
X149270799Y-70111401D01*
X149531192Y-70032411D01*
X149771171Y-69904140D01*
X149981515Y-69731515D01*
X150154140Y-69521171D01*
X150282411Y-69281192D01*
X150361401Y-69020799D01*
X150388072Y-68750000D01*
X150388072Y-67250000D01*
X150361401Y-66979201D01*
X150282411Y-66718808D01*
X150154140Y-66478829D01*
X149981515Y-66268485D01*
X149771171Y-66095860D01*
X149531192Y-65967589D01*
X149270799Y-65888599D01*
X149000000Y-65861928D01*
X147000000Y-65861928D01*
X146729201Y-65888599D01*
X146468808Y-65967589D01*
X146228829Y-66095860D01*
X146018485Y-66268485D01*
X145845860Y-66478829D01*
X145717589Y-66718808D01*
X145638599Y-66979201D01*
X145611928Y-67250000D01*
X137260000Y-67250000D01*
X137260000Y-66331046D01*
X137354494Y-66280537D01*
X137451185Y-66201185D01*
X137530537Y-66104494D01*
X137589502Y-65994180D01*
X137625812Y-65874482D01*
X137638072Y-65750000D01*
X137638072Y-64592738D01*
X188365000Y-64592738D01*
X188365000Y-65407262D01*
X188523906Y-66206135D01*
X188835611Y-66958657D01*
X189288136Y-67635909D01*
X189864091Y-68211864D01*
X190541343Y-68664389D01*
X191293865Y-68976094D01*
X192092738Y-69135000D01*
X192907262Y-69135000D01*
X193706135Y-68976094D01*
X194458657Y-68664389D01*
X195135909Y-68211864D01*
X195711864Y-67635909D01*
X196164389Y-66958657D01*
X196476094Y-66206135D01*
X196635000Y-65407262D01*
X196635000Y-64592738D01*
X196476094Y-63793865D01*
X196164389Y-63041343D01*
X195711864Y-62364091D01*
X195135909Y-61788136D01*
X194458657Y-61335611D01*
X193706135Y-61023906D01*
X192907262Y-60865000D01*
X192092738Y-60865000D01*
X191293865Y-61023906D01*
X190541343Y-61335611D01*
X189864091Y-61788136D01*
X189288136Y-62364091D01*
X188835611Y-63041343D01*
X188523906Y-63793865D01*
X188365000Y-64592738D01*
X137638072Y-64592738D01*
X137638072Y-63000000D01*
X137625812Y-62875518D01*
X137589502Y-62755820D01*
X137530537Y-62645506D01*
X137451185Y-62548815D01*
X137354494Y-62469463D01*
X137244180Y-62410498D01*
X137124482Y-62374188D01*
X137000000Y-62361928D01*
X136000000Y-62361928D01*
X135875518Y-62374188D01*
X135755820Y-62410498D01*
X135645506Y-62469463D01*
X135548815Y-62548815D01*
X135500000Y-62608296D01*
X135451185Y-62548815D01*
X135354494Y-62469463D01*
X135244180Y-62410498D01*
X135124482Y-62374188D01*
X135000000Y-62361928D01*
X134000000Y-62361928D01*
X133875518Y-62374188D01*
X133755820Y-62410498D01*
X133645506Y-62469463D01*
X133548815Y-62548815D01*
X133500000Y-62608296D01*
X133451185Y-62548815D01*
X133354494Y-62469463D01*
X133244180Y-62410498D01*
X133124482Y-62374188D01*
X133000000Y-62361928D01*
X132000000Y-62361928D01*
X131875518Y-62374188D01*
X131755820Y-62410498D01*
X131645506Y-62469463D01*
X131548815Y-62548815D01*
X131500000Y-62608296D01*
X131451185Y-62548815D01*
X131354494Y-62469463D01*
X131244180Y-62410498D01*
X131124482Y-62374188D01*
X131000000Y-62361928D01*
X130000000Y-62361928D01*
X129875518Y-62374188D01*
X129755820Y-62410498D01*
X129645506Y-62469463D01*
X129548815Y-62548815D01*
X129500000Y-62608296D01*
X129451185Y-62548815D01*
X129354494Y-62469463D01*
X129244180Y-62410498D01*
X129124482Y-62374188D01*
X129000000Y-62361928D01*
X128000000Y-62361928D01*
X127875518Y-62374188D01*
X127755820Y-62410498D01*
X127645506Y-62469463D01*
X127548815Y-62548815D01*
X127469463Y-62645506D01*
X127410498Y-62755820D01*
X127374188Y-62875518D01*
X127361928Y-63000000D01*
X127361928Y-64438271D01*
X127164001Y-64636198D01*
X127134998Y-64660000D01*
X127103729Y-64698102D01*
X127040025Y-64775725D01*
X127003289Y-64844453D01*
X126969453Y-64907755D01*
X126925996Y-65051016D01*
X126914999Y-65162669D01*
X126914999Y-65162679D01*
X126911323Y-65200001D01*
X106635000Y-65200001D01*
X106635000Y-64592738D01*
X106476094Y-63793865D01*
X106164389Y-63041343D01*
X105711864Y-62364091D01*
X105135909Y-61788136D01*
X104458657Y-61335611D01*
X103706135Y-61023906D01*
X102907262Y-60865000D01*
X102092738Y-60865000D01*
X101293865Y-61023906D01*
X100541343Y-61335611D01*
X99864091Y-61788136D01*
X99288136Y-62364091D01*
X98835611Y-63041343D01*
X98523906Y-63793865D01*
X98365000Y-64592738D01*
X98160000Y-64592738D01*
X98160000Y-60660000D01*
X196840000Y-60660000D01*
X196840001Y-159340000D01*
G37*
X196840001Y-159340000D02*
X98160000Y-159340000D01*
X98160000Y-154592738D01*
X98365000Y-154592738D01*
X98365000Y-155407262D01*
X98523906Y-156206135D01*
X98835611Y-156958657D01*
X99288136Y-157635909D01*
X99864091Y-158211864D01*
X100541343Y-158664389D01*
X101293865Y-158976094D01*
X102092738Y-159135000D01*
X102907262Y-159135000D01*
X103706135Y-158976094D01*
X104458657Y-158664389D01*
X105135909Y-158211864D01*
X105711864Y-157635909D01*
X105971746Y-157246967D01*
X142365000Y-157246967D01*
X142365000Y-157569033D01*
X142427832Y-157884912D01*
X142551082Y-158182463D01*
X142730013Y-158450252D01*
X142957748Y-158677987D01*
X143225537Y-158856918D01*
X143523088Y-158980168D01*
X143838967Y-159043000D01*
X144161033Y-159043000D01*
X144476912Y-158980168D01*
X144774463Y-158856918D01*
X145042252Y-158677987D01*
X145269987Y-158450252D01*
X145448918Y-158182463D01*
X145572168Y-157884912D01*
X145635000Y-157569033D01*
X145635000Y-157246967D01*
X148865000Y-157246967D01*
X148865000Y-157569033D01*
X148927832Y-157884912D01*
X149051082Y-158182463D01*
X149230013Y-158450252D01*
X149457748Y-158677987D01*
X149725537Y-158856918D01*
X150023088Y-158980168D01*
X150338967Y-159043000D01*
X150661033Y-159043000D01*
X150976912Y-158980168D01*
X151274463Y-158856918D01*
X151542252Y-158677987D01*
X151720239Y-158500000D01*
X159761928Y-158500000D01*
X159774188Y-158624482D01*
X159810498Y-158744180D01*
X159869463Y-158854494D01*
X159948815Y-158951185D01*
X160045506Y-159030537D01*
X160155820Y-159089502D01*
X160275518Y-159125812D01*
X160400000Y-159138072D01*
X160714250Y-159135000D01*
X160873000Y-158976250D01*
X160873000Y-157377000D01*
X161127000Y-157377000D01*
X161127000Y-158976250D01*
X161285750Y-159135000D01*
X161600000Y-159138072D01*
X161724482Y-159125812D01*
X161844180Y-159089502D01*
X161954494Y-159030537D01*
X162051185Y-158951185D01*
X162130537Y-158854494D01*
X162189502Y-158744180D01*
X162225812Y-158624482D01*
X162238072Y-158500000D01*
X162235000Y-157535750D01*
X162076250Y-157377000D01*
X161127000Y-157377000D01*
X160873000Y-157377000D01*
X159923750Y-157377000D01*
X159765000Y-157535750D01*
X159761928Y-158500000D01*
X151720239Y-158500000D01*
X151769987Y-158450252D01*
X151948918Y-158182463D01*
X152072168Y-157884912D01*
X152135000Y-157569033D01*
X152135000Y-157246967D01*
X152072168Y-156931088D01*
X151948918Y-156633537D01*
X151769987Y-156365748D01*
X151542252Y-156138013D01*
X151274463Y-155959082D01*
X150976912Y-155835832D01*
X150661033Y-155773000D01*
X150338967Y-155773000D01*
X150023088Y-155835832D01*
X149725537Y-155959082D01*
X149457748Y-156138013D01*
X149230013Y-156365748D01*
X149051082Y-156633537D01*
X148927832Y-156931088D01*
X148865000Y-157246967D01*
X145635000Y-157246967D01*
X145572168Y-156931088D01*
X145448918Y-156633537D01*
X145269987Y-156365748D01*
X145042252Y-156138013D01*
X144774463Y-155959082D01*
X144476912Y-155835832D01*
X144161033Y-155773000D01*
X143838967Y-155773000D01*
X143523088Y-155835832D01*
X143225537Y-155959082D01*
X142957748Y-156138013D01*
X142730013Y-156365748D01*
X142551082Y-156633537D01*
X142427832Y-156931088D01*
X142365000Y-157246967D01*
X105971746Y-157246967D01*
X106164389Y-156958657D01*
X106476094Y-156206135D01*
X106635000Y-155407262D01*
X106635000Y-154592738D01*
X106476094Y-153793865D01*
X106164389Y-153041343D01*
X105711864Y-152364091D01*
X105135909Y-151788136D01*
X104458657Y-151335611D01*
X103706135Y-151023906D01*
X102907262Y-150865000D01*
X102092738Y-150865000D01*
X101293865Y-151023906D01*
X100541343Y-151335611D01*
X99864091Y-151788136D01*
X99288136Y-152364091D01*
X98835611Y-153041343D01*
X98523906Y-153793865D01*
X98365000Y-154592738D01*
X98160000Y-154592738D01*
X98160000Y-117400000D01*
X123501928Y-117400000D01*
X123514188Y-117524482D01*
X123550498Y-117644180D01*
X123609463Y-117754494D01*
X123688815Y-117851185D01*
X123785506Y-117930537D01*
X123895820Y-117989502D01*
X124015518Y-118025812D01*
X124140000Y-118038072D01*
X124704250Y-118035000D01*
X124863000Y-117876250D01*
X124863000Y-116677000D01*
X125117000Y-116677000D01*
X125117000Y-117876250D01*
X125275750Y-118035000D01*
X125840000Y-118038072D01*
X125964482Y-118025812D01*
X126084180Y-117989502D01*
X126194494Y-117930537D01*
X126291185Y-117851185D01*
X126370537Y-117754494D01*
X126429502Y-117644180D01*
X126465812Y-117524482D01*
X126478072Y-117400000D01*
X126475000Y-116835750D01*
X126316250Y-116677000D01*
X125117000Y-116677000D01*
X124863000Y-116677000D01*
X123663750Y-116677000D01*
X123505000Y-116835750D01*
X123501928Y-117400000D01*
X98160000Y-117400000D01*
X98160000Y-115700000D01*
X123501928Y-115700000D01*
X123505000Y-116264250D01*
X123663750Y-116423000D01*
X124863000Y-116423000D01*
X124863000Y-115223750D01*
X125117000Y-115223750D01*
X125117000Y-116423000D01*
X126316250Y-116423000D01*
X126475000Y-116264250D01*
X126478072Y-115700000D01*
X126465812Y-115575518D01*
X126429502Y-115455820D01*
X126370537Y-115345506D01*
X126291185Y-115248815D01*
X126194494Y-115169463D01*
X126084180Y-115110498D01*
X125964482Y-115074188D01*
X125840000Y-115061928D01*
X125275750Y-115065000D01*
X125117000Y-115223750D01*
X124863000Y-115223750D01*
X124704250Y-115065000D01*
X124140000Y-115061928D01*
X124015518Y-115074188D01*
X123895820Y-115110498D01*
X123785506Y-115169463D01*
X123688815Y-115248815D01*
X123609463Y-115345506D01*
X123550498Y-115455820D01*
X123514188Y-115575518D01*
X123501928Y-115700000D01*
X98160000Y-115700000D01*
X98160000Y-64592738D01*
X98365000Y-64592738D01*
X98365000Y-65407262D01*
X98523906Y-66206135D01*
X98835611Y-66958657D01*
X99288136Y-67635909D01*
X99864091Y-68211864D01*
X100541343Y-68664389D01*
X101293865Y-68976094D01*
X102092738Y-69135000D01*
X102907262Y-69135000D01*
X103706135Y-68976094D01*
X104458657Y-68664389D01*
X105135909Y-68211864D01*
X105711864Y-67635909D01*
X106164389Y-66958657D01*
X106476094Y-66206135D01*
X106635000Y-65407262D01*
X106635000Y-65200001D01*
X126911323Y-65200001D01*
X126914999Y-65237323D01*
X126915000Y-120936668D01*
X126911323Y-120974001D01*
X126925997Y-121122986D01*
X126969453Y-121266247D01*
X127040025Y-121398277D01*
X127111200Y-121485003D01*
X127134999Y-121514002D01*
X127163997Y-121537800D01*
X134022200Y-128396004D01*
X134045998Y-128425002D01*
X134074996Y-128448800D01*
X134161722Y-128519975D01*
X134293752Y-128590547D01*
X134437013Y-128634004D01*
X134548666Y-128645001D01*
X134548676Y-128645001D01*
X134585999Y-128648677D01*
X134623322Y-128645001D01*
X135676679Y-128645001D01*
X135714001Y-128648677D01*
X135751323Y-128645001D01*
X135751334Y-128645001D01*
X135862987Y-128634004D01*
X136006248Y-128590547D01*
X136138277Y-128519975D01*
X136254002Y-128425002D01*
X136277804Y-128395999D01*
X136836010Y-127837795D01*
X136865002Y-127814002D01*
X136888796Y-127785009D01*
X136888800Y-127785005D01*
X136959974Y-127698278D01*
X136959975Y-127698277D01*
X137030547Y-127566248D01*
X137074004Y-127422987D01*
X137085001Y-127311334D01*
X137085001Y-127311325D01*
X137088677Y-127274002D01*
X137085001Y-127236679D01*
X137085001Y-125382323D01*
X137088677Y-125345000D01*
X137085001Y-125307677D01*
X137085001Y-125307668D01*
X137074004Y-125196015D01*
X137030547Y-125052754D01*
X136959975Y-124920725D01*
X136865002Y-124805000D01*
X136836004Y-124781202D01*
X136591210Y-124536408D01*
X136635000Y-124316260D01*
X136635000Y-124189801D01*
X143240001Y-130794803D01*
X143240000Y-151453091D01*
X143225537Y-151459082D01*
X142957748Y-151638013D01*
X142730013Y-151865748D01*
X142551082Y-152133537D01*
X142427832Y-152431088D01*
X142365000Y-152746967D01*
X142365000Y-153069033D01*
X142427832Y-153384912D01*
X142551082Y-153682463D01*
X142730013Y-153950252D01*
X142957748Y-154177987D01*
X143225537Y-154356918D01*
X143523088Y-154480168D01*
X143838967Y-154543000D01*
X144161033Y-154543000D01*
X144476912Y-154480168D01*
X144774463Y-154356918D01*
X145042252Y-154177987D01*
X145269987Y-153950252D01*
X145448918Y-153682463D01*
X145454909Y-153668000D01*
X149045091Y-153668000D01*
X149051082Y-153682463D01*
X149230013Y-153950252D01*
X149457748Y-154177987D01*
X149725537Y-154356918D01*
X150023088Y-154480168D01*
X150338967Y-154543000D01*
X150661033Y-154543000D01*
X150976912Y-154480168D01*
X151274463Y-154356918D01*
X151542252Y-154177987D01*
X151769987Y-153950252D01*
X151948918Y-153682463D01*
X152072168Y-153384912D01*
X152135000Y-153069033D01*
X152135000Y-153043750D01*
X153936928Y-153043750D01*
X153936928Y-153956250D01*
X153953872Y-154128285D01*
X154004053Y-154293709D01*
X154085542Y-154446164D01*
X154195208Y-154579792D01*
X154302500Y-154667845D01*
X154302501Y-155332155D01*
X154195208Y-155420208D01*
X154085542Y-155553836D01*
X154004053Y-155706291D01*
X153953872Y-155871715D01*
X153936928Y-156043750D01*
X153936928Y-156956250D01*
X153953872Y-157128285D01*
X154004053Y-157293709D01*
X154085542Y-157446164D01*
X154195208Y-157579792D01*
X154328836Y-157689458D01*
X154481291Y-157770947D01*
X154646715Y-157821128D01*
X154818750Y-157838072D01*
X155306250Y-157838072D01*
X155478285Y-157821128D01*
X155643709Y-157770947D01*
X155796164Y-157689458D01*
X155929792Y-157579792D01*
X155935008Y-157573436D01*
X155998815Y-157651185D01*
X156095506Y-157730537D01*
X156205820Y-157789502D01*
X156325518Y-157825812D01*
X156450000Y-157838072D01*
X156651750Y-157835000D01*
X156810500Y-157676250D01*
X156810500Y-156627000D01*
X157064500Y-156627000D01*
X157064500Y-157676250D01*
X157223250Y-157835000D01*
X157425000Y-157838072D01*
X157549482Y-157825812D01*
X157669180Y-157789502D01*
X157779494Y-157730537D01*
X157876185Y-157651185D01*
X157955537Y-157554494D01*
X158014502Y-157444180D01*
X158050812Y-157324482D01*
X158063072Y-157200000D01*
X158060000Y-156785750D01*
X157901250Y-156627000D01*
X157064500Y-156627000D01*
X156810500Y-156627000D01*
X156790500Y-156627000D01*
X156790500Y-156373000D01*
X156810500Y-156373000D01*
X156810500Y-155323750D01*
X157064500Y-155323750D01*
X157064500Y-156373000D01*
X157901250Y-156373000D01*
X158060000Y-156214250D01*
X158061588Y-156000000D01*
X159761928Y-156000000D01*
X159765000Y-156964250D01*
X159923750Y-157123000D01*
X160873000Y-157123000D01*
X160873000Y-155523750D01*
X161127000Y-155523750D01*
X161127000Y-157123000D01*
X162076250Y-157123000D01*
X162235000Y-156964250D01*
X162238072Y-156000000D01*
X162225812Y-155875518D01*
X162189502Y-155755820D01*
X162130537Y-155645506D01*
X162051185Y-155548815D01*
X161954494Y-155469463D01*
X161844180Y-155410498D01*
X161724482Y-155374188D01*
X161600000Y-155361928D01*
X161285750Y-155365000D01*
X161127000Y-155523750D01*
X160873000Y-155523750D01*
X160714250Y-155365000D01*
X160400000Y-155361928D01*
X160275518Y-155374188D01*
X160155820Y-155410498D01*
X160045506Y-155469463D01*
X159948815Y-155548815D01*
X159869463Y-155645506D01*
X159810498Y-155755820D01*
X159774188Y-155875518D01*
X159761928Y-156000000D01*
X158061588Y-156000000D01*
X158063072Y-155800000D01*
X158050812Y-155675518D01*
X158014502Y-155555820D01*
X157955537Y-155445506D01*
X157876185Y-155348815D01*
X157779494Y-155269463D01*
X157669180Y-155210498D01*
X157549482Y-155174188D01*
X157425000Y-155161928D01*
X157223250Y-155165000D01*
X157064500Y-155323750D01*
X156810500Y-155323750D01*
X156651750Y-155165000D01*
X156450000Y-155161928D01*
X156325518Y-155174188D01*
X156205820Y-155210498D01*
X156095506Y-155269463D01*
X155998815Y-155348815D01*
X155935008Y-155426564D01*
X155929792Y-155420208D01*
X155822500Y-155332155D01*
X155822500Y-154667845D01*
X155929792Y-154579792D01*
X156000000Y-154494244D01*
X156070208Y-154579792D01*
X156203836Y-154689458D01*
X156356291Y-154770947D01*
X156521715Y-154821128D01*
X156693750Y-154838072D01*
X157181250Y-154838072D01*
X157353285Y-154821128D01*
X157518709Y-154770947D01*
X157671164Y-154689458D01*
X157804792Y-154579792D01*
X157903924Y-154459000D01*
X158089939Y-154459000D01*
X158289898Y-154419226D01*
X158478256Y-154341205D01*
X158647774Y-154227937D01*
X158791937Y-154083774D01*
X158905205Y-153914256D01*
X158983226Y-153725898D01*
X159023000Y-153525939D01*
X159023000Y-153322061D01*
X158983226Y-153122102D01*
X158932650Y-153000000D01*
X159761928Y-153000000D01*
X159774188Y-153124482D01*
X159810498Y-153244180D01*
X159869463Y-153354494D01*
X159948815Y-153451185D01*
X160045506Y-153530537D01*
X160155820Y-153589502D01*
X160275518Y-153625812D01*
X160400000Y-153638072D01*
X160714250Y-153635000D01*
X160873000Y-153476250D01*
X160873000Y-151877000D01*
X161127000Y-151877000D01*
X161127000Y-153476250D01*
X161285750Y-153635000D01*
X161600000Y-153638072D01*
X161724482Y-153625812D01*
X161844180Y-153589502D01*
X161954494Y-153530537D01*
X162051185Y-153451185D01*
X162130537Y-153354494D01*
X162189502Y-153244180D01*
X162225812Y-153124482D01*
X162238072Y-153000000D01*
X162235000Y-152035750D01*
X162076250Y-151877000D01*
X161127000Y-151877000D01*
X160873000Y-151877000D01*
X159923750Y-151877000D01*
X159765000Y-152035750D01*
X159761928Y-153000000D01*
X158932650Y-153000000D01*
X158905205Y-152933744D01*
X158791937Y-152764226D01*
X158647774Y-152620063D01*
X158478256Y-152506795D01*
X158289898Y-152428774D01*
X158089939Y-152389000D01*
X157886061Y-152389000D01*
X157790038Y-152408100D01*
X157671164Y-152310542D01*
X157518709Y-152229053D01*
X157353285Y-152178872D01*
X157181250Y-152161928D01*
X156693750Y-152161928D01*
X156521715Y-152178872D01*
X156356291Y-152229053D01*
X156203836Y-152310542D01*
X156070208Y-152420208D01*
X156000000Y-152505756D01*
X155929792Y-152420208D01*
X155796164Y-152310542D01*
X155643709Y-152229053D01*
X155478285Y-152178872D01*
X155306250Y-152161928D01*
X154818750Y-152161928D01*
X154646715Y-152178872D01*
X154481291Y-152229053D01*
X154328836Y-152310542D01*
X154195208Y-152420208D01*
X154085542Y-152553836D01*
X154004053Y-152706291D01*
X153953872Y-152871715D01*
X153936928Y-153043750D01*
X152135000Y-153043750D01*
X152135000Y-152746967D01*
X152072168Y-152431088D01*
X151948918Y-152133537D01*
X151769987Y-151865748D01*
X151542252Y-151638013D01*
X151274463Y-151459082D01*
X150976912Y-151335832D01*
X150661033Y-151273000D01*
X150338967Y-151273000D01*
X150023088Y-151335832D01*
X149725537Y-151459082D01*
X149457748Y-151638013D01*
X149230013Y-151865748D01*
X149051082Y-152133537D01*
X149045091Y-152148000D01*
X145454909Y-152148000D01*
X145448918Y-152133537D01*
X145269987Y-151865748D01*
X145042252Y-151638013D01*
X144774463Y-151459082D01*
X144760000Y-151453091D01*
X144760000Y-130517322D01*
X144763676Y-130479999D01*
X144760000Y-130442676D01*
X144760000Y-130442667D01*
X144749003Y-130331014D01*
X144705546Y-130187753D01*
X144634974Y-130055723D01*
X144563799Y-129968997D01*
X144540001Y-129939999D01*
X144511003Y-129916201D01*
X136591209Y-121996408D01*
X136635000Y-121776260D01*
X136635000Y-121483740D01*
X136591209Y-121263592D01*
X137836005Y-120018797D01*
X137865002Y-119995000D01*
X137933927Y-119911015D01*
X137959975Y-119879276D01*
X138030547Y-119747246D01*
X138058893Y-119653799D01*
X138074004Y-119603985D01*
X138085001Y-119492332D01*
X138085001Y-119492322D01*
X138088677Y-119454999D01*
X138085001Y-119417676D01*
X138085001Y-70125000D01*
X140911928Y-70125000D01*
X140911928Y-71875000D01*
X140941001Y-72170186D01*
X141027104Y-72454028D01*
X141166927Y-72715618D01*
X141355097Y-72944903D01*
X141584382Y-73133073D01*
X141845972Y-73272896D01*
X142129814Y-73358999D01*
X142425000Y-73388072D01*
X144175000Y-73388072D01*
X144470186Y-73358999D01*
X144754028Y-73272896D01*
X145015618Y-73133073D01*
X145244903Y-72944903D01*
X145433073Y-72715618D01*
X145572896Y-72454028D01*
X145611928Y-72325357D01*
X145611928Y-75750000D01*
X145624188Y-75874482D01*
X145660498Y-75994180D01*
X145719463Y-76104494D01*
X145798815Y-76201185D01*
X145895506Y-76280537D01*
X146005820Y-76339502D01*
X146125518Y-76375812D01*
X146250000Y-76388072D01*
X146765000Y-76388072D01*
X146765001Y-79565375D01*
X146626746Y-79578992D01*
X146460150Y-79629528D01*
X146306614Y-79711595D01*
X146172038Y-79822038D01*
X146061595Y-79956614D01*
X145979528Y-80110150D01*
X145928992Y-80276746D01*
X145911928Y-80450000D01*
X145911928Y-81550000D01*
X145928992Y-81723254D01*
X145979528Y-81889850D01*
X146061595Y-82043386D01*
X146172038Y-82177962D01*
X146306614Y-82288405D01*
X146460150Y-82370472D01*
X146626746Y-82421008D01*
X146800000Y-82438072D01*
X149075000Y-82438072D01*
X149248254Y-82421008D01*
X149414850Y-82370472D01*
X149568386Y-82288405D01*
X149702962Y-82177962D01*
X149813405Y-82043386D01*
X149895472Y-81889850D01*
X149946008Y-81723254D01*
X149963072Y-81550000D01*
X149963072Y-80450000D01*
X150036928Y-80450000D01*
X150036928Y-81550000D01*
X150053992Y-81723254D01*
X150104528Y-81889850D01*
X150186595Y-82043386D01*
X150297038Y-82177962D01*
X150431614Y-82288405D01*
X150585150Y-82370472D01*
X150751746Y-82421008D01*
X150925000Y-82438072D01*
X153200000Y-82438072D01*
X153373254Y-82421008D01*
X153539850Y-82370472D01*
X153693386Y-82288405D01*
X153827962Y-82177962D01*
X153938405Y-82043386D01*
X154020472Y-81889850D01*
X154071008Y-81723254D01*
X154088072Y-81550000D01*
X154088072Y-80450000D01*
X154076639Y-80333914D01*
X154277819Y-80132734D01*
X154342574Y-80119853D01*
X154603727Y-80011680D01*
X154838759Y-79854637D01*
X155038637Y-79654759D01*
X155195680Y-79419727D01*
X155303853Y-79158574D01*
X155359000Y-78881335D01*
X155359000Y-78598665D01*
X155303853Y-78321426D01*
X155195680Y-78060273D01*
X155038637Y-77825241D01*
X154838759Y-77625363D01*
X154603727Y-77468320D01*
X154342574Y-77360147D01*
X154065335Y-77305000D01*
X153782665Y-77305000D01*
X153505426Y-77360147D01*
X153244273Y-77468320D01*
X153009241Y-77625363D01*
X152809363Y-77825241D01*
X152652320Y-78060273D01*
X152544147Y-78321426D01*
X152531266Y-78386181D01*
X151355519Y-79561928D01*
X150925000Y-79561928D01*
X150751746Y-79578992D01*
X150585150Y-79629528D01*
X150431614Y-79711595D01*
X150297038Y-79822038D01*
X150186595Y-79956614D01*
X150104528Y-80110150D01*
X150053992Y-80276746D01*
X150036928Y-80450000D01*
X149963072Y-80450000D01*
X149946008Y-80276746D01*
X149895472Y-80110150D01*
X149813405Y-79956614D01*
X149702962Y-79822038D01*
X149568386Y-79711595D01*
X149414850Y-79629528D01*
X149248254Y-79578992D01*
X149235000Y-79577687D01*
X149235000Y-76388072D01*
X149750000Y-76388072D01*
X149874482Y-76375812D01*
X149994180Y-76339502D01*
X150104494Y-76280537D01*
X150201185Y-76201185D01*
X150280537Y-76104494D01*
X150339502Y-75994180D01*
X150375812Y-75874482D01*
X150388072Y-75750000D01*
X150388072Y-75235000D01*
X150889335Y-75235000D01*
X150950000Y-75240975D01*
X151010665Y-75235000D01*
X151192102Y-75217130D01*
X151424901Y-75146511D01*
X151639449Y-75031833D01*
X151827502Y-74877502D01*
X151866178Y-74830375D01*
X156461554Y-70235000D01*
X156907713Y-70235000D01*
X156910498Y-70244180D01*
X156969463Y-70354494D01*
X157048815Y-70451185D01*
X157145506Y-70530537D01*
X157191630Y-70555191D01*
X157051082Y-70765537D01*
X156927832Y-71063088D01*
X156865000Y-71378967D01*
X156865000Y-71701033D01*
X156927832Y-72016912D01*
X157051082Y-72314463D01*
X157230013Y-72582252D01*
X157457748Y-72809987D01*
X157457767Y-72810000D01*
X157457748Y-72810013D01*
X157230013Y-73037748D01*
X157051082Y-73305537D01*
X156927832Y-73603088D01*
X156865000Y-73918967D01*
X156865000Y-74241033D01*
X156927832Y-74556912D01*
X157051082Y-74854463D01*
X157230013Y-75122252D01*
X157457748Y-75349987D01*
X157665000Y-75488469D01*
X157665001Y-79365632D01*
X157637885Y-79387885D01*
X157531329Y-79517725D01*
X157452150Y-79665858D01*
X157403392Y-79826592D01*
X157386928Y-79993750D01*
X157386928Y-80431250D01*
X157403392Y-80598408D01*
X157452150Y-80759142D01*
X157531329Y-80907275D01*
X157607426Y-81000000D01*
X157531329Y-81092725D01*
X157452150Y-81240858D01*
X157403392Y-81401592D01*
X157386928Y-81568750D01*
X157386928Y-82006250D01*
X157403392Y-82173408D01*
X157452150Y-82334142D01*
X157531329Y-82482275D01*
X157588972Y-82552513D01*
X157578795Y-82567744D01*
X157500774Y-82756102D01*
X157461000Y-82956061D01*
X157461000Y-83159939D01*
X157500774Y-83359898D01*
X157578795Y-83548256D01*
X157692063Y-83717774D01*
X157836226Y-83861937D01*
X158005744Y-83975205D01*
X158194102Y-84053226D01*
X158394061Y-84093000D01*
X158540010Y-84093000D01*
X158540011Y-147583981D01*
X158535970Y-147625010D01*
X158552092Y-147788698D01*
X158599838Y-147946096D01*
X158599839Y-147946097D01*
X158677375Y-148091156D01*
X158781720Y-148218301D01*
X158813584Y-148244451D01*
X160431367Y-149862235D01*
X160400000Y-149861928D01*
X160275518Y-149874188D01*
X160155820Y-149910498D01*
X160045506Y-149969463D01*
X159948815Y-150048815D01*
X159869463Y-150145506D01*
X159810498Y-150255820D01*
X159774188Y-150375518D01*
X159761928Y-150500000D01*
X159765000Y-151464250D01*
X159923750Y-151623000D01*
X160873000Y-151623000D01*
X160873000Y-151603000D01*
X161127000Y-151603000D01*
X161127000Y-151623000D01*
X162076250Y-151623000D01*
X162134191Y-151565059D01*
X162261928Y-151692797D01*
X162261928Y-153000000D01*
X162274188Y-153124482D01*
X162310498Y-153244180D01*
X162369463Y-153354494D01*
X162448815Y-153451185D01*
X162545506Y-153530537D01*
X162655820Y-153589502D01*
X162665000Y-153592287D01*
X162665001Y-155407713D01*
X162655820Y-155410498D01*
X162545506Y-155469463D01*
X162448815Y-155548815D01*
X162369463Y-155645506D01*
X162310498Y-155755820D01*
X162274188Y-155875518D01*
X162261928Y-156000000D01*
X162261928Y-158500000D01*
X162274188Y-158624482D01*
X162310498Y-158744180D01*
X162369463Y-158854494D01*
X162448815Y-158951185D01*
X162545506Y-159030537D01*
X162655820Y-159089502D01*
X162775518Y-159125812D01*
X162900000Y-159138072D01*
X164100000Y-159138072D01*
X164224482Y-159125812D01*
X164344180Y-159089502D01*
X164454494Y-159030537D01*
X164551185Y-158951185D01*
X164630537Y-158854494D01*
X164689502Y-158744180D01*
X164725812Y-158624482D01*
X164738072Y-158500000D01*
X164738072Y-156000000D01*
X164761928Y-156000000D01*
X164761928Y-158500000D01*
X164774188Y-158624482D01*
X164810498Y-158744180D01*
X164869463Y-158854494D01*
X164948815Y-158951185D01*
X165045506Y-159030537D01*
X165155820Y-159089502D01*
X165275518Y-159125812D01*
X165400000Y-159138072D01*
X166600000Y-159138072D01*
X166724482Y-159125812D01*
X166844180Y-159089502D01*
X166954494Y-159030537D01*
X167051185Y-158951185D01*
X167130537Y-158854494D01*
X167189502Y-158744180D01*
X167225812Y-158624482D01*
X167238072Y-158500000D01*
X167238072Y-156000000D01*
X167225812Y-155875518D01*
X167189502Y-155755820D01*
X167130537Y-155645506D01*
X167051185Y-155548815D01*
X166954494Y-155469463D01*
X166844180Y-155410498D01*
X166724482Y-155374188D01*
X166600000Y-155361928D01*
X165400000Y-155361928D01*
X165275518Y-155374188D01*
X165155820Y-155410498D01*
X165045506Y-155469463D01*
X164948815Y-155548815D01*
X164869463Y-155645506D01*
X164810498Y-155755820D01*
X164774188Y-155875518D01*
X164761928Y-156000000D01*
X164738072Y-156000000D01*
X164725812Y-155875518D01*
X164689502Y-155755820D01*
X164630537Y-155645506D01*
X164551185Y-155548815D01*
X164454494Y-155469463D01*
X164344180Y-155410498D01*
X164335000Y-155407713D01*
X164335000Y-154592738D01*
X188365000Y-154592738D01*
X188365000Y-155407262D01*
X188523906Y-156206135D01*
X188835611Y-156958657D01*
X189288136Y-157635909D01*
X189864091Y-158211864D01*
X190541343Y-158664389D01*
X191293865Y-158976094D01*
X192092738Y-159135000D01*
X192907262Y-159135000D01*
X193706135Y-158976094D01*
X194458657Y-158664389D01*
X195135909Y-158211864D01*
X195711864Y-157635909D01*
X196164389Y-156958657D01*
X196476094Y-156206135D01*
X196635000Y-155407262D01*
X196635000Y-154592738D01*
X196476094Y-153793865D01*
X196164389Y-153041343D01*
X195711864Y-152364091D01*
X195135909Y-151788136D01*
X194458657Y-151335611D01*
X193706135Y-151023906D01*
X192907262Y-150865000D01*
X192092738Y-150865000D01*
X191293865Y-151023906D01*
X190541343Y-151335611D01*
X189864091Y-151788136D01*
X189288136Y-152364091D01*
X188835611Y-153041343D01*
X188523906Y-153793865D01*
X188365000Y-154592738D01*
X164335000Y-154592738D01*
X164335000Y-153592287D01*
X164344180Y-153589502D01*
X164454494Y-153530537D01*
X164551185Y-153451185D01*
X164630537Y-153354494D01*
X164689502Y-153244180D01*
X164725812Y-153124482D01*
X164738072Y-153000000D01*
X164738072Y-150500000D01*
X164761928Y-150500000D01*
X164761928Y-153000000D01*
X164774188Y-153124482D01*
X164810498Y-153244180D01*
X164869463Y-153354494D01*
X164948815Y-153451185D01*
X165045506Y-153530537D01*
X165155820Y-153589502D01*
X165275518Y-153625812D01*
X165400000Y-153638072D01*
X166600000Y-153638072D01*
X166724482Y-153625812D01*
X166844180Y-153589502D01*
X166954494Y-153530537D01*
X167051185Y-153451185D01*
X167130537Y-153354494D01*
X167189502Y-153244180D01*
X167225812Y-153124482D01*
X167238072Y-153000000D01*
X167238072Y-150500000D01*
X167225812Y-150375518D01*
X167189502Y-150255820D01*
X167130537Y-150145506D01*
X167051185Y-150048815D01*
X166954494Y-149969463D01*
X166844180Y-149910498D01*
X166724482Y-149874188D01*
X166600000Y-149861928D01*
X165400000Y-149861928D01*
X165275518Y-149874188D01*
X165155820Y-149910498D01*
X165045506Y-149969463D01*
X164948815Y-150048815D01*
X164869463Y-150145506D01*
X164810498Y-150255820D01*
X164774188Y-150375518D01*
X164761928Y-150500000D01*
X164738072Y-150500000D01*
X164725812Y-150375518D01*
X164689502Y-150255820D01*
X164630537Y-150145506D01*
X164551185Y-150048815D01*
X164454494Y-149969463D01*
X164344180Y-149910498D01*
X164224482Y-149874188D01*
X164100000Y-149861928D01*
X162900000Y-149861928D01*
X162802408Y-149871540D01*
X160210010Y-147279143D01*
X160210010Y-81128528D01*
X160214050Y-81087509D01*
X160197928Y-80923821D01*
X160150182Y-80766423D01*
X160072646Y-80621364D01*
X160056344Y-80601500D01*
X159968301Y-80494219D01*
X159936437Y-80468070D01*
X159613072Y-80144704D01*
X159613072Y-79993750D01*
X159596608Y-79826592D01*
X159547850Y-79665858D01*
X159468671Y-79517725D01*
X159362115Y-79387885D01*
X159335000Y-79365632D01*
X159335000Y-75488468D01*
X159542252Y-75349987D01*
X159769987Y-75122252D01*
X159948918Y-74854463D01*
X160072168Y-74556912D01*
X160135000Y-74241033D01*
X160135000Y-73918967D01*
X160072168Y-73603088D01*
X159948918Y-73305537D01*
X159769987Y-73037748D01*
X159542252Y-72810013D01*
X159542233Y-72810000D01*
X159542252Y-72809987D01*
X159769987Y-72582252D01*
X159948918Y-72314463D01*
X160072168Y-72016912D01*
X160135000Y-71701033D01*
X160135000Y-71378967D01*
X160072168Y-71063088D01*
X159948918Y-70765537D01*
X159808370Y-70555191D01*
X159854494Y-70530537D01*
X159951185Y-70451185D01*
X160030537Y-70354494D01*
X160089502Y-70244180D01*
X160125812Y-70124482D01*
X160138072Y-70000000D01*
X160138072Y-68000000D01*
X160125812Y-67875518D01*
X160089502Y-67755820D01*
X160030537Y-67645506D01*
X159951185Y-67548815D01*
X159854494Y-67469463D01*
X159744180Y-67410498D01*
X159624482Y-67374188D01*
X159500000Y-67361928D01*
X157500000Y-67361928D01*
X157375518Y-67374188D01*
X157255820Y-67410498D01*
X157145506Y-67469463D01*
X157048815Y-67548815D01*
X156969463Y-67645506D01*
X156910498Y-67755820D01*
X156907713Y-67765000D01*
X156010665Y-67765000D01*
X155950000Y-67759025D01*
X155889335Y-67765000D01*
X155707898Y-67782870D01*
X155475099Y-67853489D01*
X155260551Y-67968167D01*
X155072498Y-68122498D01*
X155033826Y-68169620D01*
X150438447Y-72765000D01*
X150388072Y-72765000D01*
X150388072Y-72250000D01*
X150375812Y-72125518D01*
X150339502Y-72005820D01*
X150280537Y-71895506D01*
X150201185Y-71798815D01*
X150104494Y-71719463D01*
X149994180Y-71660498D01*
X149874482Y-71624188D01*
X149750000Y-71611928D01*
X146250000Y-71611928D01*
X146125518Y-71624188D01*
X146005820Y-71660498D01*
X145895506Y-71719463D01*
X145798815Y-71798815D01*
X145719463Y-71895506D01*
X145678506Y-71972131D01*
X145688072Y-71875000D01*
X145688072Y-70125000D01*
X145658999Y-69829814D01*
X145572896Y-69545972D01*
X145433073Y-69284382D01*
X145244903Y-69055097D01*
X145015618Y-68866927D01*
X144754028Y-68727104D01*
X144470186Y-68641001D01*
X144175000Y-68611928D01*
X142425000Y-68611928D01*
X142129814Y-68641001D01*
X141845972Y-68727104D01*
X141584382Y-68866927D01*
X141355097Y-69055097D01*
X141166927Y-69284382D01*
X141027104Y-69545972D01*
X140941001Y-69829814D01*
X140911928Y-70125000D01*
X138085001Y-70125000D01*
X138085001Y-69027332D01*
X138088678Y-68989999D01*
X138074004Y-68841013D01*
X138030547Y-68697752D01*
X137959975Y-68565723D01*
X137888800Y-68478996D01*
X137865002Y-68449998D01*
X137836003Y-68426200D01*
X137260000Y-67850197D01*
X137260000Y-67250000D01*
X145611928Y-67250000D01*
X145611928Y-68750000D01*
X145638599Y-69020799D01*
X145717589Y-69281192D01*
X145845860Y-69521171D01*
X146018485Y-69731515D01*
X146228829Y-69904140D01*
X146468808Y-70032411D01*
X146729201Y-70111401D01*
X147000000Y-70138072D01*
X149000000Y-70138072D01*
X149270799Y-70111401D01*
X149531192Y-70032411D01*
X149771171Y-69904140D01*
X149981515Y-69731515D01*
X150154140Y-69521171D01*
X150282411Y-69281192D01*
X150361401Y-69020799D01*
X150388072Y-68750000D01*
X150388072Y-67250000D01*
X150361401Y-66979201D01*
X150282411Y-66718808D01*
X150154140Y-66478829D01*
X149981515Y-66268485D01*
X149771171Y-66095860D01*
X149531192Y-65967589D01*
X149270799Y-65888599D01*
X149000000Y-65861928D01*
X147000000Y-65861928D01*
X146729201Y-65888599D01*
X146468808Y-65967589D01*
X146228829Y-66095860D01*
X146018485Y-66268485D01*
X145845860Y-66478829D01*
X145717589Y-66718808D01*
X145638599Y-66979201D01*
X145611928Y-67250000D01*
X137260000Y-67250000D01*
X137260000Y-66331046D01*
X137354494Y-66280537D01*
X137451185Y-66201185D01*
X137530537Y-66104494D01*
X137589502Y-65994180D01*
X137625812Y-65874482D01*
X137638072Y-65750000D01*
X137638072Y-64592738D01*
X188365000Y-64592738D01*
X188365000Y-65407262D01*
X188523906Y-66206135D01*
X188835611Y-66958657D01*
X189288136Y-67635909D01*
X189864091Y-68211864D01*
X190541343Y-68664389D01*
X191293865Y-68976094D01*
X192092738Y-69135000D01*
X192907262Y-69135000D01*
X193706135Y-68976094D01*
X194458657Y-68664389D01*
X195135909Y-68211864D01*
X195711864Y-67635909D01*
X196164389Y-66958657D01*
X196476094Y-66206135D01*
X196635000Y-65407262D01*
X196635000Y-64592738D01*
X196476094Y-63793865D01*
X196164389Y-63041343D01*
X195711864Y-62364091D01*
X195135909Y-61788136D01*
X194458657Y-61335611D01*
X193706135Y-61023906D01*
X192907262Y-60865000D01*
X192092738Y-60865000D01*
X191293865Y-61023906D01*
X190541343Y-61335611D01*
X189864091Y-61788136D01*
X189288136Y-62364091D01*
X188835611Y-63041343D01*
X188523906Y-63793865D01*
X188365000Y-64592738D01*
X137638072Y-64592738D01*
X137638072Y-63000000D01*
X137625812Y-62875518D01*
X137589502Y-62755820D01*
X137530537Y-62645506D01*
X137451185Y-62548815D01*
X137354494Y-62469463D01*
X137244180Y-62410498D01*
X137124482Y-62374188D01*
X137000000Y-62361928D01*
X136000000Y-62361928D01*
X135875518Y-62374188D01*
X135755820Y-62410498D01*
X135645506Y-62469463D01*
X135548815Y-62548815D01*
X135500000Y-62608296D01*
X135451185Y-62548815D01*
X135354494Y-62469463D01*
X135244180Y-62410498D01*
X135124482Y-62374188D01*
X135000000Y-62361928D01*
X134000000Y-62361928D01*
X133875518Y-62374188D01*
X133755820Y-62410498D01*
X133645506Y-62469463D01*
X133548815Y-62548815D01*
X133500000Y-62608296D01*
X133451185Y-62548815D01*
X133354494Y-62469463D01*
X133244180Y-62410498D01*
X133124482Y-62374188D01*
X133000000Y-62361928D01*
X132000000Y-62361928D01*
X131875518Y-62374188D01*
X131755820Y-62410498D01*
X131645506Y-62469463D01*
X131548815Y-62548815D01*
X131500000Y-62608296D01*
X131451185Y-62548815D01*
X131354494Y-62469463D01*
X131244180Y-62410498D01*
X131124482Y-62374188D01*
X131000000Y-62361928D01*
X130000000Y-62361928D01*
X129875518Y-62374188D01*
X129755820Y-62410498D01*
X129645506Y-62469463D01*
X129548815Y-62548815D01*
X129500000Y-62608296D01*
X129451185Y-62548815D01*
X129354494Y-62469463D01*
X129244180Y-62410498D01*
X129124482Y-62374188D01*
X129000000Y-62361928D01*
X128000000Y-62361928D01*
X127875518Y-62374188D01*
X127755820Y-62410498D01*
X127645506Y-62469463D01*
X127548815Y-62548815D01*
X127469463Y-62645506D01*
X127410498Y-62755820D01*
X127374188Y-62875518D01*
X127361928Y-63000000D01*
X127361928Y-64438271D01*
X127164001Y-64636198D01*
X127134998Y-64660000D01*
X127103729Y-64698102D01*
X127040025Y-64775725D01*
X127003289Y-64844453D01*
X126969453Y-64907755D01*
X126925996Y-65051016D01*
X126914999Y-65162669D01*
X126914999Y-65162679D01*
X126911323Y-65200001D01*
X106635000Y-65200001D01*
X106635000Y-64592738D01*
X106476094Y-63793865D01*
X106164389Y-63041343D01*
X105711864Y-62364091D01*
X105135909Y-61788136D01*
X104458657Y-61335611D01*
X103706135Y-61023906D01*
X102907262Y-60865000D01*
X102092738Y-60865000D01*
X101293865Y-61023906D01*
X100541343Y-61335611D01*
X99864091Y-61788136D01*
X99288136Y-62364091D01*
X98835611Y-63041343D01*
X98523906Y-63793865D01*
X98365000Y-64592738D01*
X98160000Y-64592738D01*
X98160000Y-60660000D01*
X196840000Y-60660000D01*
X196840001Y-159340000D01*
M02*
