G04 #@! TF.GenerationSoftware,KiCad,Pcbnew,(5.1.5-0-10_14)*
G04 #@! TF.CreationDate,2020-05-09T18:17:43-06:00*
G04 #@! TF.ProjectId,business_card_v1,62757369-6e65-4737-935f-636172645f76,rev?*
G04 #@! TF.SameCoordinates,Original*
G04 #@! TF.FileFunction,Copper,L16,Bot*
G04 #@! TF.FilePolarity,Positive*
%FSLAX46Y46*%
G04 Gerber Fmt 4.6, Leading zero omitted, Abs format (unit mm)*
G04 Created by KiCad (PCBNEW (5.1.5-0-10_14)) date 2020-05-09 18:17:43*
%MOMM*%
%LPD*%
G04 APERTURE LIST*
%ADD10R,1.700000X1.700000*%
%ADD11O,1.700000X1.700000*%
%ADD12C,0.800000*%
%ADD13C,0.756400*%
%ADD14C,0.304800*%
%ADD15C,0.250000*%
%ADD16C,0.254000*%
G04 APERTURE END LIST*
D10*
X122504200Y-116522500D03*
D11*
X132080000Y-126682500D03*
X132080000Y-124142500D03*
X132080000Y-121602500D03*
X132080000Y-119062500D03*
D10*
X132080000Y-116522500D03*
D12*
X142405000Y-117246500D03*
X126365000Y-113728500D03*
X128270000Y-113728500D03*
X135890000Y-115633500D03*
X139065000Y-123126500D03*
X124587000Y-120015000D03*
X112585500Y-117030500D03*
D13*
X152261100Y-115263600D03*
X190361100Y-115263600D03*
X161151100Y-115263600D03*
X166231100Y-115263600D03*
X171311100Y-115263600D03*
X176391100Y-115263600D03*
X181471100Y-115263600D03*
X186551100Y-115263600D03*
X190361100Y-111453600D03*
X157561100Y-111453600D03*
X166231100Y-111453600D03*
X171311100Y-111453600D03*
X176391100Y-111453600D03*
X181471100Y-111453600D03*
X186551100Y-111453600D03*
X156071100Y-106373600D03*
X190361100Y-106373600D03*
X171311100Y-106373600D03*
X176391100Y-106373600D03*
X181471100Y-106373600D03*
X186551100Y-106373600D03*
X162641100Y-106373600D03*
X156071100Y-101293600D03*
X190361100Y-101293600D03*
X186551100Y-101293600D03*
X181471100Y-101293600D03*
X176391100Y-101293600D03*
X161151100Y-101293600D03*
X167721100Y-101293600D03*
X156071100Y-96213600D03*
X190361100Y-96213600D03*
X186551100Y-96213600D03*
X181471100Y-96213600D03*
X166231100Y-96213600D03*
X172801100Y-96213600D03*
X161151100Y-96213600D03*
X156071100Y-91133600D03*
X190361100Y-91133600D03*
X186551100Y-91133600D03*
X161151100Y-91133600D03*
X166231100Y-91133600D03*
X171311100Y-91133600D03*
X177881100Y-91133600D03*
X156071100Y-86053600D03*
X190361100Y-86053600D03*
X161151100Y-86053600D03*
X166231100Y-86053600D03*
X171311100Y-86053600D03*
X176391100Y-86053600D03*
X182961100Y-86053600D03*
D12*
X137795000Y-123126500D03*
X138849000Y-118262500D03*
X140017500Y-126238000D03*
X135890000Y-119253000D03*
X141351000Y-126238000D03*
D14*
X190361100Y-115263600D02*
X186551100Y-115263600D01*
X186551100Y-115263600D02*
X181471100Y-115263600D01*
X181471100Y-115263600D02*
X176391100Y-115263600D01*
X176391100Y-115263600D02*
X171311100Y-115263600D01*
X171311100Y-115263600D02*
X166231100Y-115263600D01*
X161151100Y-115263600D02*
X152261100Y-115263600D01*
X161151100Y-115263600D02*
X166231100Y-115263600D01*
X157561100Y-111453600D02*
X166231100Y-111453600D01*
X166231100Y-111453600D02*
X171311100Y-111453600D01*
X171311100Y-111453600D02*
X176391100Y-111453600D01*
X176391100Y-111453600D02*
X181471100Y-111453600D01*
X181471100Y-111453600D02*
X186551100Y-111453600D01*
X186551100Y-111453600D02*
X190361100Y-111453600D01*
X156071100Y-106373600D02*
X162641100Y-106373600D01*
X162641100Y-106373600D02*
X171311100Y-106373600D01*
X181471100Y-106373600D02*
X186551100Y-106373600D01*
X186551100Y-106373600D02*
X190361100Y-106373600D01*
X171311100Y-106373600D02*
X176391100Y-106373600D01*
X176391100Y-106373600D02*
X181471100Y-106373600D01*
X156071100Y-101293600D02*
X161151100Y-101293600D01*
X161151100Y-101293600D02*
X167721100Y-101293600D01*
X167721100Y-101293600D02*
X176391100Y-101293600D01*
X176391100Y-101293600D02*
X181471100Y-101293600D01*
X181471100Y-101293600D02*
X186551100Y-101293600D01*
X186551100Y-101293600D02*
X190361100Y-101293600D01*
X156071100Y-96213600D02*
X161151100Y-96213600D01*
X161151100Y-96213600D02*
X166231100Y-96213600D01*
X166231100Y-96213600D02*
X172801100Y-96213600D01*
X172801100Y-96213600D02*
X181471100Y-96213600D01*
X181471100Y-96213600D02*
X186551100Y-96213600D01*
X186551100Y-96213600D02*
X190361100Y-96213600D01*
X156071100Y-91133600D02*
X161151100Y-91133600D01*
X161151100Y-91133600D02*
X166231100Y-91133600D01*
X166231100Y-91133600D02*
X171311100Y-91133600D01*
X171311100Y-91133600D02*
X177881100Y-91133600D01*
X177881100Y-91133600D02*
X186551100Y-91133600D01*
X186551100Y-91133600D02*
X190361100Y-91133600D01*
X156071100Y-86053600D02*
X161151100Y-86053600D01*
X166231100Y-86053600D02*
X171311100Y-86053600D01*
X171311100Y-86053600D02*
X176391100Y-86053600D01*
X176391100Y-86053600D02*
X182961100Y-86053600D01*
X182961100Y-86053600D02*
X190361100Y-86053600D01*
X161151100Y-86053600D02*
X166231100Y-86053600D01*
D15*
X138849000Y-121767500D02*
X138849000Y-118262500D01*
X138811000Y-121793000D02*
X138849000Y-121767500D01*
X137795000Y-123126500D02*
X138811000Y-121793000D01*
X134112000Y-126238000D02*
X140017500Y-126238000D01*
X132080000Y-124206000D02*
X134112000Y-126238000D01*
X137752599Y-125560599D02*
X140673599Y-125560599D01*
X136289999Y-124097999D02*
X137752599Y-125560599D01*
X140673599Y-125560599D02*
X141351000Y-126238000D01*
X136289999Y-119652999D02*
X136289999Y-124097999D01*
X135890000Y-119253000D02*
X136289999Y-119652999D01*
D16*
G36*
X148463000Y-129843600D02*
G01*
X130366721Y-129843600D01*
X121885543Y-121362423D01*
X121864876Y-121337240D01*
X121764378Y-121254763D01*
X121649720Y-121193478D01*
X121525311Y-121155739D01*
X121395928Y-121142996D01*
X121266545Y-121155739D01*
X121142135Y-121193478D01*
X121080488Y-121226429D01*
X121027478Y-121254763D01*
X120926980Y-121337240D01*
X120906316Y-121362419D01*
X112698513Y-129570220D01*
X104936526Y-121808234D01*
X111126185Y-115672500D01*
X121016128Y-115672500D01*
X121016128Y-117372500D01*
X121028388Y-117496982D01*
X121064698Y-117616680D01*
X121123663Y-117726994D01*
X121203015Y-117823685D01*
X121299706Y-117903037D01*
X121410020Y-117962002D01*
X121529718Y-117998312D01*
X121654200Y-118010572D01*
X123354200Y-118010572D01*
X123478682Y-117998312D01*
X123598380Y-117962002D01*
X123708694Y-117903037D01*
X123805385Y-117823685D01*
X123884737Y-117726994D01*
X123943702Y-117616680D01*
X123980012Y-117496982D01*
X123992272Y-117372500D01*
X130591928Y-117372500D01*
X130604188Y-117496982D01*
X130640498Y-117616680D01*
X130699463Y-117726994D01*
X130778815Y-117823685D01*
X130875506Y-117903037D01*
X130985820Y-117962002D01*
X131058380Y-117984013D01*
X130926525Y-118115868D01*
X130764010Y-118359089D01*
X130652068Y-118629342D01*
X130595000Y-118916240D01*
X130595000Y-119208760D01*
X130652068Y-119495658D01*
X130764010Y-119765911D01*
X130926525Y-120009132D01*
X131133368Y-120215975D01*
X131307760Y-120332500D01*
X131133368Y-120449025D01*
X130926525Y-120655868D01*
X130764010Y-120899089D01*
X130652068Y-121169342D01*
X130595000Y-121456240D01*
X130595000Y-121748760D01*
X130652068Y-122035658D01*
X130764010Y-122305911D01*
X130926525Y-122549132D01*
X131133368Y-122755975D01*
X131307760Y-122872500D01*
X131133368Y-122989025D01*
X130926525Y-123195868D01*
X130764010Y-123439089D01*
X130652068Y-123709342D01*
X130595000Y-123996240D01*
X130595000Y-124288760D01*
X130652068Y-124575658D01*
X130764010Y-124845911D01*
X130926525Y-125089132D01*
X131133368Y-125295975D01*
X131307760Y-125412500D01*
X131133368Y-125529025D01*
X130926525Y-125735868D01*
X130764010Y-125979089D01*
X130652068Y-126249342D01*
X130595000Y-126536240D01*
X130595000Y-126828760D01*
X130652068Y-127115658D01*
X130764010Y-127385911D01*
X130926525Y-127629132D01*
X131133368Y-127835975D01*
X131376589Y-127998490D01*
X131646842Y-128110432D01*
X131933740Y-128167500D01*
X132226260Y-128167500D01*
X132513158Y-128110432D01*
X132783411Y-127998490D01*
X133026632Y-127835975D01*
X133233475Y-127629132D01*
X133395990Y-127385911D01*
X133507932Y-127115658D01*
X133565000Y-126828760D01*
X133565000Y-126769473D01*
X133571999Y-126778001D01*
X133600997Y-126801799D01*
X133687723Y-126872974D01*
X133819753Y-126943546D01*
X133963014Y-126987003D01*
X134074667Y-126998000D01*
X134074677Y-126998000D01*
X134112000Y-127001676D01*
X134149323Y-126998000D01*
X139313789Y-126998000D01*
X139357726Y-127041937D01*
X139527244Y-127155205D01*
X139715602Y-127233226D01*
X139915561Y-127273000D01*
X140119439Y-127273000D01*
X140319398Y-127233226D01*
X140507756Y-127155205D01*
X140677274Y-127041937D01*
X140684250Y-127034961D01*
X140691226Y-127041937D01*
X140860744Y-127155205D01*
X141049102Y-127233226D01*
X141249061Y-127273000D01*
X141452939Y-127273000D01*
X141652898Y-127233226D01*
X141841256Y-127155205D01*
X142010774Y-127041937D01*
X142154937Y-126897774D01*
X142268205Y-126728256D01*
X142346226Y-126539898D01*
X142386000Y-126339939D01*
X142386000Y-126136061D01*
X142346226Y-125936102D01*
X142268205Y-125747744D01*
X142154937Y-125578226D01*
X142010774Y-125434063D01*
X141841256Y-125320795D01*
X141652898Y-125242774D01*
X141452939Y-125203000D01*
X141390801Y-125203000D01*
X141237402Y-125049601D01*
X141213600Y-125020598D01*
X141097875Y-124925625D01*
X140965846Y-124855053D01*
X140822585Y-124811596D01*
X140710932Y-124800599D01*
X140710921Y-124800599D01*
X140673599Y-124796923D01*
X140636277Y-124800599D01*
X138067401Y-124800599D01*
X137314581Y-124047780D01*
X137493102Y-124121726D01*
X137693061Y-124161500D01*
X137896939Y-124161500D01*
X138096898Y-124121726D01*
X138285256Y-124043705D01*
X138454774Y-123930437D01*
X138598937Y-123786274D01*
X138712205Y-123616756D01*
X138790226Y-123428398D01*
X138830000Y-123228439D01*
X138830000Y-123024561D01*
X138829611Y-123022608D01*
X139350184Y-122339357D01*
X139389001Y-122307501D01*
X139389486Y-122306910D01*
X139390071Y-122306428D01*
X139436891Y-122249146D01*
X139483974Y-122191776D01*
X139484332Y-122191105D01*
X139484815Y-122190515D01*
X139519407Y-122125486D01*
X139554546Y-122059747D01*
X139554770Y-122059009D01*
X139555123Y-122058345D01*
X139576336Y-121987915D01*
X139598003Y-121916486D01*
X139598078Y-121915727D01*
X139598297Y-121914999D01*
X139605397Y-121841415D01*
X139609000Y-121804833D01*
X139609000Y-121804073D01*
X139612675Y-121765985D01*
X139609000Y-121729415D01*
X139609000Y-118966211D01*
X139652937Y-118922274D01*
X139766205Y-118752756D01*
X139844226Y-118564398D01*
X139884000Y-118364439D01*
X139884000Y-118160561D01*
X139844226Y-117960602D01*
X139766205Y-117772244D01*
X139652937Y-117602726D01*
X139508774Y-117458563D01*
X139339256Y-117345295D01*
X139150898Y-117267274D01*
X138950939Y-117227500D01*
X138747061Y-117227500D01*
X138547102Y-117267274D01*
X138358744Y-117345295D01*
X138189226Y-117458563D01*
X138045063Y-117602726D01*
X137931795Y-117772244D01*
X137853774Y-117960602D01*
X137814000Y-118160561D01*
X137814000Y-118364439D01*
X137853774Y-118564398D01*
X137931795Y-118752756D01*
X138045063Y-118922274D01*
X138089001Y-118966212D01*
X138089000Y-121486589D01*
X137616516Y-122106726D01*
X137493102Y-122131274D01*
X137304744Y-122209295D01*
X137135226Y-122322563D01*
X137049999Y-122407790D01*
X137049999Y-119690321D01*
X137053675Y-119652998D01*
X137049999Y-119615676D01*
X137049999Y-119615666D01*
X137039002Y-119504013D01*
X136995545Y-119360752D01*
X136925000Y-119228774D01*
X136925000Y-119151061D01*
X136885226Y-118951102D01*
X136807205Y-118762744D01*
X136693937Y-118593226D01*
X136549774Y-118449063D01*
X136380256Y-118335795D01*
X136191898Y-118257774D01*
X135991939Y-118218000D01*
X135788061Y-118218000D01*
X135588102Y-118257774D01*
X135399744Y-118335795D01*
X135230226Y-118449063D01*
X135086063Y-118593226D01*
X134972795Y-118762744D01*
X134894774Y-118951102D01*
X134855000Y-119151061D01*
X134855000Y-119354939D01*
X134894774Y-119554898D01*
X134972795Y-119743256D01*
X135086063Y-119912774D01*
X135230226Y-120056937D01*
X135399744Y-120170205D01*
X135529999Y-120224159D01*
X135530000Y-124060667D01*
X135526323Y-124097999D01*
X135540997Y-124246984D01*
X135584453Y-124390245D01*
X135655025Y-124522275D01*
X135698836Y-124575658D01*
X135749999Y-124638000D01*
X135778997Y-124661798D01*
X136595198Y-125478000D01*
X134426802Y-125478000D01*
X133510674Y-124561873D01*
X133565000Y-124288760D01*
X133565000Y-123996240D01*
X133507932Y-123709342D01*
X133395990Y-123439089D01*
X133233475Y-123195868D01*
X133026632Y-122989025D01*
X132852240Y-122872500D01*
X133026632Y-122755975D01*
X133233475Y-122549132D01*
X133395990Y-122305911D01*
X133507932Y-122035658D01*
X133565000Y-121748760D01*
X133565000Y-121456240D01*
X133507932Y-121169342D01*
X133395990Y-120899089D01*
X133233475Y-120655868D01*
X133026632Y-120449025D01*
X132852240Y-120332500D01*
X133026632Y-120215975D01*
X133233475Y-120009132D01*
X133395990Y-119765911D01*
X133507932Y-119495658D01*
X133565000Y-119208760D01*
X133565000Y-118916240D01*
X133507932Y-118629342D01*
X133395990Y-118359089D01*
X133233475Y-118115868D01*
X133101620Y-117984013D01*
X133174180Y-117962002D01*
X133284494Y-117903037D01*
X133381185Y-117823685D01*
X133460537Y-117726994D01*
X133519502Y-117616680D01*
X133555812Y-117496982D01*
X133568072Y-117372500D01*
X133565000Y-116808250D01*
X133406250Y-116649500D01*
X132207000Y-116649500D01*
X132207000Y-116669500D01*
X131953000Y-116669500D01*
X131953000Y-116649500D01*
X130753750Y-116649500D01*
X130595000Y-116808250D01*
X130591928Y-117372500D01*
X123992272Y-117372500D01*
X123992272Y-115672500D01*
X130591928Y-115672500D01*
X130595000Y-116236750D01*
X130753750Y-116395500D01*
X131953000Y-116395500D01*
X131953000Y-115196250D01*
X132207000Y-115196250D01*
X132207000Y-116395500D01*
X133406250Y-116395500D01*
X133565000Y-116236750D01*
X133568072Y-115672500D01*
X133555812Y-115548018D01*
X133519502Y-115428320D01*
X133460537Y-115318006D01*
X133381185Y-115221315D01*
X133284494Y-115141963D01*
X133174180Y-115082998D01*
X133054482Y-115046688D01*
X132930000Y-115034428D01*
X132365750Y-115037500D01*
X132207000Y-115196250D01*
X131953000Y-115196250D01*
X131794250Y-115037500D01*
X131230000Y-115034428D01*
X131105518Y-115046688D01*
X130985820Y-115082998D01*
X130875506Y-115141963D01*
X130778815Y-115221315D01*
X130699463Y-115318006D01*
X130640498Y-115428320D01*
X130604188Y-115548018D01*
X130591928Y-115672500D01*
X123992272Y-115672500D01*
X123980012Y-115548018D01*
X123943702Y-115428320D01*
X123884737Y-115318006D01*
X123805385Y-115221315D01*
X123708694Y-115141963D01*
X123598380Y-115082998D01*
X123478682Y-115046688D01*
X123354200Y-115034428D01*
X121654200Y-115034428D01*
X121529718Y-115046688D01*
X121410020Y-115082998D01*
X121299706Y-115141963D01*
X121203015Y-115221315D01*
X121123663Y-115318006D01*
X121064698Y-115428320D01*
X121028388Y-115548018D01*
X121016128Y-115672500D01*
X111126185Y-115672500D01*
X113218641Y-113598274D01*
X113245948Y-113575663D01*
X113285067Y-113527569D01*
X113324760Y-113479631D01*
X113326147Y-113477064D01*
X113327984Y-113474805D01*
X113357012Y-113419921D01*
X113386546Y-113365243D01*
X113387404Y-113362457D01*
X113388767Y-113359881D01*
X113406530Y-113300390D01*
X113424830Y-113241000D01*
X113425129Y-113238098D01*
X113425962Y-113235307D01*
X113431778Y-113173484D01*
X113438139Y-113111674D01*
X113437866Y-113108772D01*
X113438139Y-113105870D01*
X113431778Y-113044060D01*
X113425962Y-112982237D01*
X113425129Y-112979446D01*
X113424830Y-112976544D01*
X113406525Y-112917138D01*
X113388767Y-112857663D01*
X113387405Y-112855088D01*
X113386546Y-112852300D01*
X113357000Y-112797600D01*
X113327984Y-112742738D01*
X113326147Y-112740479D01*
X113324760Y-112737912D01*
X113285132Y-112690054D01*
X113245948Y-112641880D01*
X113218630Y-112619260D01*
X104792963Y-104267000D01*
X148463000Y-104267000D01*
X148463000Y-129843600D01*
G37*
X148463000Y-129843600D02*
X130366721Y-129843600D01*
X121885543Y-121362423D01*
X121864876Y-121337240D01*
X121764378Y-121254763D01*
X121649720Y-121193478D01*
X121525311Y-121155739D01*
X121395928Y-121142996D01*
X121266545Y-121155739D01*
X121142135Y-121193478D01*
X121080488Y-121226429D01*
X121027478Y-121254763D01*
X120926980Y-121337240D01*
X120906316Y-121362419D01*
X112698513Y-129570220D01*
X104936526Y-121808234D01*
X111126185Y-115672500D01*
X121016128Y-115672500D01*
X121016128Y-117372500D01*
X121028388Y-117496982D01*
X121064698Y-117616680D01*
X121123663Y-117726994D01*
X121203015Y-117823685D01*
X121299706Y-117903037D01*
X121410020Y-117962002D01*
X121529718Y-117998312D01*
X121654200Y-118010572D01*
X123354200Y-118010572D01*
X123478682Y-117998312D01*
X123598380Y-117962002D01*
X123708694Y-117903037D01*
X123805385Y-117823685D01*
X123884737Y-117726994D01*
X123943702Y-117616680D01*
X123980012Y-117496982D01*
X123992272Y-117372500D01*
X130591928Y-117372500D01*
X130604188Y-117496982D01*
X130640498Y-117616680D01*
X130699463Y-117726994D01*
X130778815Y-117823685D01*
X130875506Y-117903037D01*
X130985820Y-117962002D01*
X131058380Y-117984013D01*
X130926525Y-118115868D01*
X130764010Y-118359089D01*
X130652068Y-118629342D01*
X130595000Y-118916240D01*
X130595000Y-119208760D01*
X130652068Y-119495658D01*
X130764010Y-119765911D01*
X130926525Y-120009132D01*
X131133368Y-120215975D01*
X131307760Y-120332500D01*
X131133368Y-120449025D01*
X130926525Y-120655868D01*
X130764010Y-120899089D01*
X130652068Y-121169342D01*
X130595000Y-121456240D01*
X130595000Y-121748760D01*
X130652068Y-122035658D01*
X130764010Y-122305911D01*
X130926525Y-122549132D01*
X131133368Y-122755975D01*
X131307760Y-122872500D01*
X131133368Y-122989025D01*
X130926525Y-123195868D01*
X130764010Y-123439089D01*
X130652068Y-123709342D01*
X130595000Y-123996240D01*
X130595000Y-124288760D01*
X130652068Y-124575658D01*
X130764010Y-124845911D01*
X130926525Y-125089132D01*
X131133368Y-125295975D01*
X131307760Y-125412500D01*
X131133368Y-125529025D01*
X130926525Y-125735868D01*
X130764010Y-125979089D01*
X130652068Y-126249342D01*
X130595000Y-126536240D01*
X130595000Y-126828760D01*
X130652068Y-127115658D01*
X130764010Y-127385911D01*
X130926525Y-127629132D01*
X131133368Y-127835975D01*
X131376589Y-127998490D01*
X131646842Y-128110432D01*
X131933740Y-128167500D01*
X132226260Y-128167500D01*
X132513158Y-128110432D01*
X132783411Y-127998490D01*
X133026632Y-127835975D01*
X133233475Y-127629132D01*
X133395990Y-127385911D01*
X133507932Y-127115658D01*
X133565000Y-126828760D01*
X133565000Y-126769473D01*
X133571999Y-126778001D01*
X133600997Y-126801799D01*
X133687723Y-126872974D01*
X133819753Y-126943546D01*
X133963014Y-126987003D01*
X134074667Y-126998000D01*
X134074677Y-126998000D01*
X134112000Y-127001676D01*
X134149323Y-126998000D01*
X139313789Y-126998000D01*
X139357726Y-127041937D01*
X139527244Y-127155205D01*
X139715602Y-127233226D01*
X139915561Y-127273000D01*
X140119439Y-127273000D01*
X140319398Y-127233226D01*
X140507756Y-127155205D01*
X140677274Y-127041937D01*
X140684250Y-127034961D01*
X140691226Y-127041937D01*
X140860744Y-127155205D01*
X141049102Y-127233226D01*
X141249061Y-127273000D01*
X141452939Y-127273000D01*
X141652898Y-127233226D01*
X141841256Y-127155205D01*
X142010774Y-127041937D01*
X142154937Y-126897774D01*
X142268205Y-126728256D01*
X142346226Y-126539898D01*
X142386000Y-126339939D01*
X142386000Y-126136061D01*
X142346226Y-125936102D01*
X142268205Y-125747744D01*
X142154937Y-125578226D01*
X142010774Y-125434063D01*
X141841256Y-125320795D01*
X141652898Y-125242774D01*
X141452939Y-125203000D01*
X141390801Y-125203000D01*
X141237402Y-125049601D01*
X141213600Y-125020598D01*
X141097875Y-124925625D01*
X140965846Y-124855053D01*
X140822585Y-124811596D01*
X140710932Y-124800599D01*
X140710921Y-124800599D01*
X140673599Y-124796923D01*
X140636277Y-124800599D01*
X138067401Y-124800599D01*
X137314581Y-124047780D01*
X137493102Y-124121726D01*
X137693061Y-124161500D01*
X137896939Y-124161500D01*
X138096898Y-124121726D01*
X138285256Y-124043705D01*
X138454774Y-123930437D01*
X138598937Y-123786274D01*
X138712205Y-123616756D01*
X138790226Y-123428398D01*
X138830000Y-123228439D01*
X138830000Y-123024561D01*
X138829611Y-123022608D01*
X139350184Y-122339357D01*
X139389001Y-122307501D01*
X139389486Y-122306910D01*
X139390071Y-122306428D01*
X139436891Y-122249146D01*
X139483974Y-122191776D01*
X139484332Y-122191105D01*
X139484815Y-122190515D01*
X139519407Y-122125486D01*
X139554546Y-122059747D01*
X139554770Y-122059009D01*
X139555123Y-122058345D01*
X139576336Y-121987915D01*
X139598003Y-121916486D01*
X139598078Y-121915727D01*
X139598297Y-121914999D01*
X139605397Y-121841415D01*
X139609000Y-121804833D01*
X139609000Y-121804073D01*
X139612675Y-121765985D01*
X139609000Y-121729415D01*
X139609000Y-118966211D01*
X139652937Y-118922274D01*
X139766205Y-118752756D01*
X139844226Y-118564398D01*
X139884000Y-118364439D01*
X139884000Y-118160561D01*
X139844226Y-117960602D01*
X139766205Y-117772244D01*
X139652937Y-117602726D01*
X139508774Y-117458563D01*
X139339256Y-117345295D01*
X139150898Y-117267274D01*
X138950939Y-117227500D01*
X138747061Y-117227500D01*
X138547102Y-117267274D01*
X138358744Y-117345295D01*
X138189226Y-117458563D01*
X138045063Y-117602726D01*
X137931795Y-117772244D01*
X137853774Y-117960602D01*
X137814000Y-118160561D01*
X137814000Y-118364439D01*
X137853774Y-118564398D01*
X137931795Y-118752756D01*
X138045063Y-118922274D01*
X138089001Y-118966212D01*
X138089000Y-121486589D01*
X137616516Y-122106726D01*
X137493102Y-122131274D01*
X137304744Y-122209295D01*
X137135226Y-122322563D01*
X137049999Y-122407790D01*
X137049999Y-119690321D01*
X137053675Y-119652998D01*
X137049999Y-119615676D01*
X137049999Y-119615666D01*
X137039002Y-119504013D01*
X136995545Y-119360752D01*
X136925000Y-119228774D01*
X136925000Y-119151061D01*
X136885226Y-118951102D01*
X136807205Y-118762744D01*
X136693937Y-118593226D01*
X136549774Y-118449063D01*
X136380256Y-118335795D01*
X136191898Y-118257774D01*
X135991939Y-118218000D01*
X135788061Y-118218000D01*
X135588102Y-118257774D01*
X135399744Y-118335795D01*
X135230226Y-118449063D01*
X135086063Y-118593226D01*
X134972795Y-118762744D01*
X134894774Y-118951102D01*
X134855000Y-119151061D01*
X134855000Y-119354939D01*
X134894774Y-119554898D01*
X134972795Y-119743256D01*
X135086063Y-119912774D01*
X135230226Y-120056937D01*
X135399744Y-120170205D01*
X135529999Y-120224159D01*
X135530000Y-124060667D01*
X135526323Y-124097999D01*
X135540997Y-124246984D01*
X135584453Y-124390245D01*
X135655025Y-124522275D01*
X135698836Y-124575658D01*
X135749999Y-124638000D01*
X135778997Y-124661798D01*
X136595198Y-125478000D01*
X134426802Y-125478000D01*
X133510674Y-124561873D01*
X133565000Y-124288760D01*
X133565000Y-123996240D01*
X133507932Y-123709342D01*
X133395990Y-123439089D01*
X133233475Y-123195868D01*
X133026632Y-122989025D01*
X132852240Y-122872500D01*
X133026632Y-122755975D01*
X133233475Y-122549132D01*
X133395990Y-122305911D01*
X133507932Y-122035658D01*
X133565000Y-121748760D01*
X133565000Y-121456240D01*
X133507932Y-121169342D01*
X133395990Y-120899089D01*
X133233475Y-120655868D01*
X133026632Y-120449025D01*
X132852240Y-120332500D01*
X133026632Y-120215975D01*
X133233475Y-120009132D01*
X133395990Y-119765911D01*
X133507932Y-119495658D01*
X133565000Y-119208760D01*
X133565000Y-118916240D01*
X133507932Y-118629342D01*
X133395990Y-118359089D01*
X133233475Y-118115868D01*
X133101620Y-117984013D01*
X133174180Y-117962002D01*
X133284494Y-117903037D01*
X133381185Y-117823685D01*
X133460537Y-117726994D01*
X133519502Y-117616680D01*
X133555812Y-117496982D01*
X133568072Y-117372500D01*
X133565000Y-116808250D01*
X133406250Y-116649500D01*
X132207000Y-116649500D01*
X132207000Y-116669500D01*
X131953000Y-116669500D01*
X131953000Y-116649500D01*
X130753750Y-116649500D01*
X130595000Y-116808250D01*
X130591928Y-117372500D01*
X123992272Y-117372500D01*
X123992272Y-115672500D01*
X130591928Y-115672500D01*
X130595000Y-116236750D01*
X130753750Y-116395500D01*
X131953000Y-116395500D01*
X131953000Y-115196250D01*
X132207000Y-115196250D01*
X132207000Y-116395500D01*
X133406250Y-116395500D01*
X133565000Y-116236750D01*
X133568072Y-115672500D01*
X133555812Y-115548018D01*
X133519502Y-115428320D01*
X133460537Y-115318006D01*
X133381185Y-115221315D01*
X133284494Y-115141963D01*
X133174180Y-115082998D01*
X133054482Y-115046688D01*
X132930000Y-115034428D01*
X132365750Y-115037500D01*
X132207000Y-115196250D01*
X131953000Y-115196250D01*
X131794250Y-115037500D01*
X131230000Y-115034428D01*
X131105518Y-115046688D01*
X130985820Y-115082998D01*
X130875506Y-115141963D01*
X130778815Y-115221315D01*
X130699463Y-115318006D01*
X130640498Y-115428320D01*
X130604188Y-115548018D01*
X130591928Y-115672500D01*
X123992272Y-115672500D01*
X123980012Y-115548018D01*
X123943702Y-115428320D01*
X123884737Y-115318006D01*
X123805385Y-115221315D01*
X123708694Y-115141963D01*
X123598380Y-115082998D01*
X123478682Y-115046688D01*
X123354200Y-115034428D01*
X121654200Y-115034428D01*
X121529718Y-115046688D01*
X121410020Y-115082998D01*
X121299706Y-115141963D01*
X121203015Y-115221315D01*
X121123663Y-115318006D01*
X121064698Y-115428320D01*
X121028388Y-115548018D01*
X121016128Y-115672500D01*
X111126185Y-115672500D01*
X113218641Y-113598274D01*
X113245948Y-113575663D01*
X113285067Y-113527569D01*
X113324760Y-113479631D01*
X113326147Y-113477064D01*
X113327984Y-113474805D01*
X113357012Y-113419921D01*
X113386546Y-113365243D01*
X113387404Y-113362457D01*
X113388767Y-113359881D01*
X113406530Y-113300390D01*
X113424830Y-113241000D01*
X113425129Y-113238098D01*
X113425962Y-113235307D01*
X113431778Y-113173484D01*
X113438139Y-113111674D01*
X113437866Y-113108772D01*
X113438139Y-113105870D01*
X113431778Y-113044060D01*
X113425962Y-112982237D01*
X113425129Y-112979446D01*
X113424830Y-112976544D01*
X113406525Y-112917138D01*
X113388767Y-112857663D01*
X113387405Y-112855088D01*
X113386546Y-112852300D01*
X113357000Y-112797600D01*
X113327984Y-112742738D01*
X113326147Y-112740479D01*
X113324760Y-112737912D01*
X113285132Y-112690054D01*
X113245948Y-112641880D01*
X113218630Y-112619260D01*
X104792963Y-104267000D01*
X148463000Y-104267000D01*
X148463000Y-129843600D01*
M02*
