G04 #@! TF.GenerationSoftware,KiCad,Pcbnew,(5.1.5-0-10_14)*
G04 #@! TF.CreationDate,2020-05-08T01:23:42-06:00*
G04 #@! TF.ProjectId,business_card_v1,62757369-6e65-4737-935f-636172645f76,rev?*
G04 #@! TF.SameCoordinates,Original*
G04 #@! TF.FileFunction,Legend,Bot*
G04 #@! TF.FilePolarity,Positive*
%FSLAX46Y46*%
G04 Gerber Fmt 4.6, Leading zero omitted, Abs format (unit mm)*
G04 Created by KiCad (PCBNEW (5.1.5-0-10_14)) date 2020-05-08 01:23:42*
%MOMM*%
%LPD*%
G04 APERTURE LIST*
%ADD10C,0.142240*%
%ADD11C,0.150000*%
%ADD12C,0.010000*%
%ADD13C,0.120000*%
G04 APERTURE END LIST*
D10*
X129261904Y-116292380D02*
X129738095Y-116292380D01*
X129785714Y-116768571D01*
X129738095Y-116720952D01*
X129642857Y-116673333D01*
X129404761Y-116673333D01*
X129309523Y-116720952D01*
X129261904Y-116768571D01*
X129214285Y-116863809D01*
X129214285Y-117101904D01*
X129261904Y-117197142D01*
X129309523Y-117244761D01*
X129404761Y-117292380D01*
X129642857Y-117292380D01*
X129738095Y-117244761D01*
X129785714Y-117197142D01*
X128880952Y-116625714D02*
X128642857Y-117292380D01*
X128404761Y-116625714D01*
X128023809Y-116911428D02*
X127261904Y-116911428D01*
X126833333Y-117244761D02*
X126690476Y-117292380D01*
X126452380Y-117292380D01*
X126357142Y-117244761D01*
X126309523Y-117197142D01*
X126261904Y-117101904D01*
X126261904Y-117006666D01*
X126309523Y-116911428D01*
X126357142Y-116863809D01*
X126452380Y-116816190D01*
X126642857Y-116768571D01*
X126738095Y-116720952D01*
X126785714Y-116673333D01*
X126833333Y-116578095D01*
X126833333Y-116482857D01*
X126785714Y-116387619D01*
X126738095Y-116340000D01*
X126642857Y-116292380D01*
X126404761Y-116292380D01*
X126261904Y-116340000D01*
X125833333Y-116292380D02*
X125833333Y-117101904D01*
X125785714Y-117197142D01*
X125738095Y-117244761D01*
X125642857Y-117292380D01*
X125452380Y-117292380D01*
X125357142Y-117244761D01*
X125309523Y-117197142D01*
X125261904Y-117101904D01*
X125261904Y-116292380D01*
X124785714Y-117292380D02*
X124785714Y-116292380D01*
X124404761Y-116292380D01*
X124309523Y-116340000D01*
X124261904Y-116387619D01*
X124214285Y-116482857D01*
X124214285Y-116625714D01*
X124261904Y-116720952D01*
X124309523Y-116768571D01*
X124404761Y-116816190D01*
X124785714Y-116816190D01*
D11*
X140636190Y-126452380D02*
X140017142Y-126452380D01*
X140350476Y-126833333D01*
X140207619Y-126833333D01*
X140112380Y-126880952D01*
X140064761Y-126928571D01*
X140017142Y-127023809D01*
X140017142Y-127261904D01*
X140064761Y-127357142D01*
X140112380Y-127404761D01*
X140207619Y-127452380D01*
X140493333Y-127452380D01*
X140588571Y-127404761D01*
X140636190Y-127357142D01*
X139588571Y-127357142D02*
X139540952Y-127404761D01*
X139588571Y-127452380D01*
X139636190Y-127404761D01*
X139588571Y-127357142D01*
X139588571Y-127452380D01*
X139207619Y-126452380D02*
X138588571Y-126452380D01*
X138921904Y-126833333D01*
X138779047Y-126833333D01*
X138683809Y-126880952D01*
X138636190Y-126928571D01*
X138588571Y-127023809D01*
X138588571Y-127261904D01*
X138636190Y-127357142D01*
X138683809Y-127404761D01*
X138779047Y-127452380D01*
X139064761Y-127452380D01*
X139160000Y-127404761D01*
X139207619Y-127357142D01*
X138302857Y-126452380D02*
X137969523Y-127452380D01*
X137636190Y-126452380D01*
X137302857Y-127071428D02*
X136540952Y-127071428D01*
X135493333Y-127452380D02*
X135826666Y-126976190D01*
X136064761Y-127452380D02*
X136064761Y-126452380D01*
X135683809Y-126452380D01*
X135588571Y-126500000D01*
X135540952Y-126547619D01*
X135493333Y-126642857D01*
X135493333Y-126785714D01*
X135540952Y-126880952D01*
X135588571Y-126928571D01*
X135683809Y-126976190D01*
X136064761Y-126976190D01*
X135064761Y-126928571D02*
X134731428Y-126928571D01*
X134588571Y-127452380D02*
X135064761Y-127452380D01*
X135064761Y-126452380D01*
X134588571Y-126452380D01*
X133826666Y-126928571D02*
X134160000Y-126928571D01*
X134160000Y-127452380D02*
X134160000Y-126452380D01*
X133683809Y-126452380D01*
D10*
X139279047Y-124864761D02*
X139136190Y-124912380D01*
X138898095Y-124912380D01*
X138802857Y-124864761D01*
X138755238Y-124817142D01*
X138707619Y-124721904D01*
X138707619Y-124626666D01*
X138755238Y-124531428D01*
X138802857Y-124483809D01*
X138898095Y-124436190D01*
X139088571Y-124388571D01*
X139183809Y-124340952D01*
X139231428Y-124293333D01*
X139279047Y-124198095D01*
X139279047Y-124102857D01*
X139231428Y-124007619D01*
X139183809Y-123960000D01*
X139088571Y-123912380D01*
X138850476Y-123912380D01*
X138707619Y-123960000D01*
X138374285Y-123912380D02*
X138136190Y-124912380D01*
X137945714Y-124198095D01*
X137755238Y-124912380D01*
X137517142Y-123912380D01*
X137136190Y-124912380D02*
X137136190Y-123912380D01*
X136898095Y-123912380D01*
X136755238Y-123960000D01*
X136660000Y-124055238D01*
X136612380Y-124150476D01*
X136564761Y-124340952D01*
X136564761Y-124483809D01*
X136612380Y-124674285D01*
X136660000Y-124769523D01*
X136755238Y-124864761D01*
X136898095Y-124912380D01*
X137136190Y-124912380D01*
X136136190Y-124912380D02*
X136136190Y-123912380D01*
X135469523Y-123912380D02*
X135279047Y-123912380D01*
X135183809Y-123960000D01*
X135088571Y-124055238D01*
X135040952Y-124245714D01*
X135040952Y-124579047D01*
X135088571Y-124769523D01*
X135183809Y-124864761D01*
X135279047Y-124912380D01*
X135469523Y-124912380D01*
X135564761Y-124864761D01*
X135660000Y-124769523D01*
X135707619Y-124579047D01*
X135707619Y-124245714D01*
X135660000Y-124055238D01*
X135564761Y-123960000D01*
X135469523Y-123912380D01*
X137707619Y-122372380D02*
X138040952Y-121896190D01*
X138279047Y-122372380D02*
X138279047Y-121372380D01*
X137898095Y-121372380D01*
X137802857Y-121420000D01*
X137755238Y-121467619D01*
X137707619Y-121562857D01*
X137707619Y-121705714D01*
X137755238Y-121800952D01*
X137802857Y-121848571D01*
X137898095Y-121896190D01*
X138279047Y-121896190D01*
X137326666Y-122324761D02*
X137183809Y-122372380D01*
X136945714Y-122372380D01*
X136850476Y-122324761D01*
X136802857Y-122277142D01*
X136755238Y-122181904D01*
X136755238Y-122086666D01*
X136802857Y-121991428D01*
X136850476Y-121943809D01*
X136945714Y-121896190D01*
X137136190Y-121848571D01*
X137231428Y-121800952D01*
X137279047Y-121753333D01*
X137326666Y-121658095D01*
X137326666Y-121562857D01*
X137279047Y-121467619D01*
X137231428Y-121420000D01*
X137136190Y-121372380D01*
X136898095Y-121372380D01*
X136755238Y-121420000D01*
X136469523Y-121372380D02*
X135898095Y-121372380D01*
X136183809Y-122372380D02*
X136183809Y-121372380D01*
X139921904Y-119784761D02*
X139779047Y-119832380D01*
X139540952Y-119832380D01*
X139445714Y-119784761D01*
X139398095Y-119737142D01*
X139350476Y-119641904D01*
X139350476Y-119546666D01*
X139398095Y-119451428D01*
X139445714Y-119403809D01*
X139540952Y-119356190D01*
X139731428Y-119308571D01*
X139826666Y-119260952D01*
X139874285Y-119213333D01*
X139921904Y-119118095D01*
X139921904Y-119022857D01*
X139874285Y-118927619D01*
X139826666Y-118880000D01*
X139731428Y-118832380D01*
X139493333Y-118832380D01*
X139350476Y-118880000D01*
X139017142Y-118832380D02*
X138779047Y-119832380D01*
X138588571Y-119118095D01*
X138398095Y-119832380D01*
X138160000Y-118832380D01*
X137779047Y-119832380D02*
X137779047Y-118832380D01*
X137540952Y-118832380D01*
X137398095Y-118880000D01*
X137302857Y-118975238D01*
X137255238Y-119070476D01*
X137207619Y-119260952D01*
X137207619Y-119403809D01*
X137255238Y-119594285D01*
X137302857Y-119689523D01*
X137398095Y-119784761D01*
X137540952Y-119832380D01*
X137779047Y-119832380D01*
X136207619Y-119737142D02*
X136255238Y-119784761D01*
X136398095Y-119832380D01*
X136493333Y-119832380D01*
X136636190Y-119784761D01*
X136731428Y-119689523D01*
X136779047Y-119594285D01*
X136826666Y-119403809D01*
X136826666Y-119260952D01*
X136779047Y-119070476D01*
X136731428Y-118975238D01*
X136636190Y-118880000D01*
X136493333Y-118832380D01*
X136398095Y-118832380D01*
X136255238Y-118880000D01*
X136207619Y-118927619D01*
X135302857Y-119832380D02*
X135779047Y-119832380D01*
X135779047Y-118832380D01*
X134969523Y-119832380D02*
X134969523Y-118832380D01*
X134398095Y-119832380D02*
X134826666Y-119260952D01*
X134398095Y-118832380D02*
X134969523Y-119403809D01*
X137921904Y-116340000D02*
X138017142Y-116292380D01*
X138160000Y-116292380D01*
X138302857Y-116340000D01*
X138398095Y-116435238D01*
X138445714Y-116530476D01*
X138493333Y-116720952D01*
X138493333Y-116863809D01*
X138445714Y-117054285D01*
X138398095Y-117149523D01*
X138302857Y-117244761D01*
X138160000Y-117292380D01*
X138064761Y-117292380D01*
X137921904Y-117244761D01*
X137874285Y-117197142D01*
X137874285Y-116863809D01*
X138064761Y-116863809D01*
X137445714Y-117292380D02*
X137445714Y-116292380D01*
X136874285Y-117292380D01*
X136874285Y-116292380D01*
X136398095Y-117292380D02*
X136398095Y-116292380D01*
X136160000Y-116292380D01*
X136017142Y-116340000D01*
X135921904Y-116435238D01*
X135874285Y-116530476D01*
X135826666Y-116720952D01*
X135826666Y-116863809D01*
X135874285Y-117054285D01*
X135921904Y-117149523D01*
X136017142Y-117244761D01*
X136160000Y-117292380D01*
X136398095Y-117292380D01*
X144203714Y-81474571D02*
X143918000Y-81474571D01*
X143775142Y-81546000D01*
X143632285Y-81688857D01*
X143560857Y-81974571D01*
X143560857Y-82474571D01*
X143632285Y-82760285D01*
X143775142Y-82903142D01*
X143918000Y-82974571D01*
X144203714Y-82974571D01*
X144346571Y-82903142D01*
X144489428Y-82760285D01*
X144560857Y-82474571D01*
X144560857Y-81974571D01*
X144489428Y-81688857D01*
X144346571Y-81546000D01*
X144203714Y-81474571D01*
X142918000Y-81974571D02*
X142918000Y-83474571D01*
X142918000Y-82046000D02*
X142775142Y-81974571D01*
X142489428Y-81974571D01*
X142346571Y-82046000D01*
X142275142Y-82117428D01*
X142203714Y-82260285D01*
X142203714Y-82688857D01*
X142275142Y-82831714D01*
X142346571Y-82903142D01*
X142489428Y-82974571D01*
X142775142Y-82974571D01*
X142918000Y-82903142D01*
X140989428Y-82903142D02*
X141132285Y-82974571D01*
X141418000Y-82974571D01*
X141560857Y-82903142D01*
X141632285Y-82760285D01*
X141632285Y-82188857D01*
X141560857Y-82046000D01*
X141418000Y-81974571D01*
X141132285Y-81974571D01*
X140989428Y-82046000D01*
X140918000Y-82188857D01*
X140918000Y-82331714D01*
X141632285Y-82474571D01*
X140275142Y-81974571D02*
X140275142Y-82974571D01*
X140275142Y-82117428D02*
X140203714Y-82046000D01*
X140060857Y-81974571D01*
X139846571Y-81974571D01*
X139703714Y-82046000D01*
X139632285Y-82188857D01*
X139632285Y-82974571D01*
X137846571Y-82903142D02*
X137632285Y-82974571D01*
X137275142Y-82974571D01*
X137132285Y-82903142D01*
X137060857Y-82831714D01*
X136989428Y-82688857D01*
X136989428Y-82546000D01*
X137060857Y-82403142D01*
X137132285Y-82331714D01*
X137275142Y-82260285D01*
X137560857Y-82188857D01*
X137703714Y-82117428D01*
X137775142Y-82046000D01*
X137846571Y-81903142D01*
X137846571Y-81760285D01*
X137775142Y-81617428D01*
X137703714Y-81546000D01*
X137560857Y-81474571D01*
X137203714Y-81474571D01*
X136989428Y-81546000D01*
X136132285Y-82974571D02*
X136275142Y-82903142D01*
X136346571Y-82831714D01*
X136418000Y-82688857D01*
X136418000Y-82260285D01*
X136346571Y-82117428D01*
X136275142Y-82046000D01*
X136132285Y-81974571D01*
X135918000Y-81974571D01*
X135775142Y-82046000D01*
X135703714Y-82117428D01*
X135632285Y-82260285D01*
X135632285Y-82688857D01*
X135703714Y-82831714D01*
X135775142Y-82903142D01*
X135918000Y-82974571D01*
X136132285Y-82974571D01*
X134346571Y-81974571D02*
X134346571Y-82974571D01*
X134989428Y-81974571D02*
X134989428Y-82760285D01*
X134918000Y-82903142D01*
X134775142Y-82974571D01*
X134560857Y-82974571D01*
X134418000Y-82903142D01*
X134346571Y-82831714D01*
X133632285Y-82974571D02*
X133632285Y-81974571D01*
X133632285Y-82260285D02*
X133560857Y-82117428D01*
X133489428Y-82046000D01*
X133346571Y-81974571D01*
X133203714Y-81974571D01*
X132060857Y-82903142D02*
X132203714Y-82974571D01*
X132489428Y-82974571D01*
X132632285Y-82903142D01*
X132703714Y-82831714D01*
X132775142Y-82688857D01*
X132775142Y-82260285D01*
X132703714Y-82117428D01*
X132632285Y-82046000D01*
X132489428Y-81974571D01*
X132203714Y-81974571D01*
X132060857Y-82046000D01*
X130846571Y-82903142D02*
X130989428Y-82974571D01*
X131275142Y-82974571D01*
X131418000Y-82903142D01*
X131489428Y-82760285D01*
X131489428Y-82188857D01*
X131418000Y-82046000D01*
X131275142Y-81974571D01*
X130989428Y-81974571D01*
X130846571Y-82046000D01*
X130775142Y-82188857D01*
X130775142Y-82331714D01*
X131489428Y-82474571D01*
X121593714Y-82974571D02*
X121593714Y-81474571D01*
X121593714Y-82903142D02*
X121736571Y-82974571D01*
X122022285Y-82974571D01*
X122165142Y-82903142D01*
X122236571Y-82831714D01*
X122308000Y-82688857D01*
X122308000Y-82260285D01*
X122236571Y-82117428D01*
X122165142Y-82046000D01*
X122022285Y-81974571D01*
X121736571Y-81974571D01*
X121593714Y-82046000D01*
X120308000Y-82903142D02*
X120450857Y-82974571D01*
X120736571Y-82974571D01*
X120879428Y-82903142D01*
X120950857Y-82760285D01*
X120950857Y-82188857D01*
X120879428Y-82046000D01*
X120736571Y-81974571D01*
X120450857Y-81974571D01*
X120308000Y-82046000D01*
X120236571Y-82188857D01*
X120236571Y-82331714D01*
X120950857Y-82474571D01*
X119665142Y-82903142D02*
X119522285Y-82974571D01*
X119236571Y-82974571D01*
X119093714Y-82903142D01*
X119022285Y-82760285D01*
X119022285Y-82688857D01*
X119093714Y-82546000D01*
X119236571Y-82474571D01*
X119450857Y-82474571D01*
X119593714Y-82403142D01*
X119665142Y-82260285D01*
X119665142Y-82188857D01*
X119593714Y-82046000D01*
X119450857Y-81974571D01*
X119236571Y-81974571D01*
X119093714Y-82046000D01*
X118379428Y-82974571D02*
X118379428Y-81974571D01*
X118379428Y-81474571D02*
X118450857Y-81546000D01*
X118379428Y-81617428D01*
X118308000Y-81546000D01*
X118379428Y-81474571D01*
X118379428Y-81617428D01*
X117022285Y-81974571D02*
X117022285Y-83188857D01*
X117093714Y-83331714D01*
X117165142Y-83403142D01*
X117308000Y-83474571D01*
X117522285Y-83474571D01*
X117665142Y-83403142D01*
X117022285Y-82903142D02*
X117165142Y-82974571D01*
X117450857Y-82974571D01*
X117593714Y-82903142D01*
X117665142Y-82831714D01*
X117736571Y-82688857D01*
X117736571Y-82260285D01*
X117665142Y-82117428D01*
X117593714Y-82046000D01*
X117450857Y-81974571D01*
X117165142Y-81974571D01*
X117022285Y-82046000D01*
X116308000Y-81974571D02*
X116308000Y-82974571D01*
X116308000Y-82117428D02*
X116236571Y-82046000D01*
X116093714Y-81974571D01*
X115879428Y-81974571D01*
X115736571Y-82046000D01*
X115665142Y-82188857D01*
X115665142Y-82974571D01*
X114379428Y-82903142D02*
X114522285Y-82974571D01*
X114808000Y-82974571D01*
X114950857Y-82903142D01*
X115022285Y-82760285D01*
X115022285Y-82188857D01*
X114950857Y-82046000D01*
X114808000Y-81974571D01*
X114522285Y-81974571D01*
X114379428Y-82046000D01*
X114308000Y-82188857D01*
X114308000Y-82331714D01*
X115022285Y-82474571D01*
X113022285Y-82974571D02*
X113022285Y-81474571D01*
X113022285Y-82903142D02*
X113165142Y-82974571D01*
X113450857Y-82974571D01*
X113593714Y-82903142D01*
X113665142Y-82831714D01*
X113736571Y-82688857D01*
X113736571Y-82260285D01*
X113665142Y-82117428D01*
X113593714Y-82046000D01*
X113450857Y-81974571D01*
X113165142Y-81974571D01*
X113022285Y-82046000D01*
X111308000Y-81974571D02*
X111022285Y-82974571D01*
X110736571Y-82260285D01*
X110450857Y-82974571D01*
X110165142Y-81974571D01*
X109593714Y-82974571D02*
X109593714Y-81974571D01*
X109593714Y-81474571D02*
X109665142Y-81546000D01*
X109593714Y-81617428D01*
X109522285Y-81546000D01*
X109593714Y-81474571D01*
X109593714Y-81617428D01*
X109093714Y-81974571D02*
X108522285Y-81974571D01*
X108879428Y-81474571D02*
X108879428Y-82760285D01*
X108808000Y-82903142D01*
X108665142Y-82974571D01*
X108522285Y-82974571D01*
X108022285Y-82974571D02*
X108022285Y-81474571D01*
X107379428Y-82974571D02*
X107379428Y-82188857D01*
X107450857Y-82046000D01*
X107593714Y-81974571D01*
X107808000Y-81974571D01*
X107950857Y-82046000D01*
X108022285Y-82117428D01*
X137723428Y-84514571D02*
X137366285Y-85514571D01*
X137009142Y-84514571D01*
X136580571Y-84014571D02*
X135652000Y-84014571D01*
X136152000Y-84586000D01*
X135937714Y-84586000D01*
X135794857Y-84657428D01*
X135723428Y-84728857D01*
X135652000Y-84871714D01*
X135652000Y-85228857D01*
X135723428Y-85371714D01*
X135794857Y-85443142D01*
X135937714Y-85514571D01*
X136366285Y-85514571D01*
X136509142Y-85443142D01*
X136580571Y-85371714D01*
X149918401Y-94859851D02*
X149918401Y-93359851D01*
X149346972Y-93359851D01*
X149204115Y-93431280D01*
X149132686Y-93502708D01*
X149061258Y-93645565D01*
X149061258Y-93859851D01*
X149132686Y-94002708D01*
X149204115Y-94074137D01*
X149346972Y-94145565D01*
X149918401Y-94145565D01*
X148204115Y-94859851D02*
X148346972Y-94788422D01*
X148418401Y-94645565D01*
X148418401Y-93359851D01*
X146989829Y-93859851D02*
X146989829Y-94859851D01*
X147632686Y-93859851D02*
X147632686Y-94645565D01*
X147561258Y-94788422D01*
X147418401Y-94859851D01*
X147204115Y-94859851D01*
X147061258Y-94788422D01*
X146989829Y-94716994D01*
X145632686Y-93859851D02*
X145632686Y-95074137D01*
X145704115Y-95216994D01*
X145775544Y-95288422D01*
X145918401Y-95359851D01*
X146132686Y-95359851D01*
X146275544Y-95288422D01*
X145632686Y-94788422D02*
X145775544Y-94859851D01*
X146061258Y-94859851D01*
X146204115Y-94788422D01*
X146275544Y-94716994D01*
X146346972Y-94574137D01*
X146346972Y-94145565D01*
X146275544Y-94002708D01*
X146204115Y-93931280D01*
X146061258Y-93859851D01*
X145775544Y-93859851D01*
X145632686Y-93931280D01*
X143989829Y-93859851D02*
X143418401Y-93859851D01*
X143775544Y-93359851D02*
X143775544Y-94645565D01*
X143704115Y-94788422D01*
X143561258Y-94859851D01*
X143418401Y-94859851D01*
X142918401Y-94859851D02*
X142918401Y-93359851D01*
X142275544Y-94859851D02*
X142275544Y-94074137D01*
X142346972Y-93931280D01*
X142489829Y-93859851D01*
X142704115Y-93859851D01*
X142846972Y-93931280D01*
X142918401Y-94002708D01*
X140989829Y-94788422D02*
X141132686Y-94859851D01*
X141418401Y-94859851D01*
X141561258Y-94788422D01*
X141632686Y-94645565D01*
X141632686Y-94074137D01*
X141561258Y-93931280D01*
X141418401Y-93859851D01*
X141132686Y-93859851D01*
X140989829Y-93931280D01*
X140918401Y-94074137D01*
X140918401Y-94216994D01*
X141632686Y-94359851D01*
X139132686Y-93359851D02*
X139132686Y-94574137D01*
X139061258Y-94716994D01*
X138989829Y-94788422D01*
X138846972Y-94859851D01*
X138561258Y-94859851D01*
X138418401Y-94788422D01*
X138346972Y-94716994D01*
X138275544Y-94574137D01*
X138275544Y-93359851D01*
X137632686Y-94788422D02*
X137418401Y-94859851D01*
X137061258Y-94859851D01*
X136918401Y-94788422D01*
X136846972Y-94716994D01*
X136775544Y-94574137D01*
X136775544Y-94431280D01*
X136846972Y-94288422D01*
X136918401Y-94216994D01*
X137061258Y-94145565D01*
X137346972Y-94074137D01*
X137489829Y-94002708D01*
X137561258Y-93931280D01*
X137632686Y-93788422D01*
X137632686Y-93645565D01*
X137561258Y-93502708D01*
X137489829Y-93431280D01*
X137346972Y-93359851D01*
X136989829Y-93359851D01*
X136775544Y-93431280D01*
X135632686Y-94074137D02*
X135418401Y-94145565D01*
X135346972Y-94216994D01*
X135275544Y-94359851D01*
X135275544Y-94574137D01*
X135346972Y-94716994D01*
X135418401Y-94788422D01*
X135561258Y-94859851D01*
X136132686Y-94859851D01*
X136132686Y-93359851D01*
X135632686Y-93359851D01*
X135489829Y-93431280D01*
X135418401Y-93502708D01*
X135346972Y-93645565D01*
X135346972Y-93788422D01*
X135418401Y-93931280D01*
X135489829Y-94002708D01*
X135632686Y-94074137D01*
X136132686Y-94074137D01*
X132846972Y-94788422D02*
X132989829Y-94859851D01*
X133275544Y-94859851D01*
X133418401Y-94788422D01*
X133489829Y-94716994D01*
X133561258Y-94574137D01*
X133561258Y-94145565D01*
X133489829Y-94002708D01*
X133418401Y-93931280D01*
X133275544Y-93859851D01*
X132989829Y-93859851D01*
X132846972Y-93931280D01*
X131989829Y-94859851D02*
X132132686Y-94788422D01*
X132204115Y-94716994D01*
X132275544Y-94574137D01*
X132275544Y-94145565D01*
X132204115Y-94002708D01*
X132132686Y-93931280D01*
X131989829Y-93859851D01*
X131775544Y-93859851D01*
X131632686Y-93931280D01*
X131561258Y-94002708D01*
X131489829Y-94145565D01*
X131489829Y-94574137D01*
X131561258Y-94716994D01*
X131632686Y-94788422D01*
X131775544Y-94859851D01*
X131989829Y-94859851D01*
X130846972Y-93859851D02*
X130846972Y-94859851D01*
X130846972Y-94002708D02*
X130775544Y-93931280D01*
X130632686Y-93859851D01*
X130418401Y-93859851D01*
X130275544Y-93931280D01*
X130204115Y-94074137D01*
X130204115Y-94859851D01*
X129489829Y-93859851D02*
X129489829Y-94859851D01*
X129489829Y-94002708D02*
X129418401Y-93931280D01*
X129275544Y-93859851D01*
X129061258Y-93859851D01*
X128918401Y-93931280D01*
X128846972Y-94074137D01*
X128846972Y-94859851D01*
X127561258Y-94788422D02*
X127704115Y-94859851D01*
X127989829Y-94859851D01*
X128132686Y-94788422D01*
X128204115Y-94645565D01*
X128204115Y-94074137D01*
X128132686Y-93931280D01*
X127989829Y-93859851D01*
X127704115Y-93859851D01*
X127561258Y-93931280D01*
X127489829Y-94074137D01*
X127489829Y-94216994D01*
X128204115Y-94359851D01*
X126204115Y-94788422D02*
X126346972Y-94859851D01*
X126632686Y-94859851D01*
X126775543Y-94788422D01*
X126846972Y-94716994D01*
X126918401Y-94574137D01*
X126918401Y-94145565D01*
X126846972Y-94002708D01*
X126775543Y-93931280D01*
X126632686Y-93859851D01*
X126346972Y-93859851D01*
X126204115Y-93931280D01*
X125775543Y-93859851D02*
X125204115Y-93859851D01*
X125561258Y-93359851D02*
X125561258Y-94645565D01*
X125489829Y-94788422D01*
X125346972Y-94859851D01*
X125204115Y-94859851D01*
X124489829Y-94859851D02*
X124632686Y-94788422D01*
X124704115Y-94716994D01*
X124775543Y-94574137D01*
X124775543Y-94145565D01*
X124704115Y-94002708D01*
X124632686Y-93931280D01*
X124489829Y-93859851D01*
X124275543Y-93859851D01*
X124132686Y-93931280D01*
X124061258Y-94002708D01*
X123989829Y-94145565D01*
X123989829Y-94574137D01*
X124061258Y-94716994D01*
X124132686Y-94788422D01*
X124275543Y-94859851D01*
X124489829Y-94859851D01*
X123346972Y-94859851D02*
X123346972Y-93859851D01*
X123346972Y-94145565D02*
X123275543Y-94002708D01*
X123204115Y-93931280D01*
X123061258Y-93859851D01*
X122918401Y-93859851D01*
X121275543Y-94859851D02*
X121275543Y-93859851D01*
X121275543Y-93359851D02*
X121346972Y-93431280D01*
X121275543Y-93502708D01*
X121204115Y-93431280D01*
X121275543Y-93359851D01*
X121275543Y-93502708D01*
X120561258Y-93859851D02*
X120561258Y-94859851D01*
X120561258Y-94002708D02*
X120489829Y-93931280D01*
X120346972Y-93859851D01*
X120132686Y-93859851D01*
X119989829Y-93931280D01*
X119918401Y-94074137D01*
X119918401Y-94859851D01*
X119418401Y-93859851D02*
X118846972Y-93859851D01*
X119204115Y-93359851D02*
X119204115Y-94645565D01*
X119132686Y-94788422D01*
X118989829Y-94859851D01*
X118846972Y-94859851D01*
X118132686Y-94859851D02*
X118275543Y-94788422D01*
X118346972Y-94716994D01*
X118418401Y-94574137D01*
X118418401Y-94145565D01*
X118346972Y-94002708D01*
X118275543Y-93931280D01*
X118132686Y-93859851D01*
X117918401Y-93859851D01*
X117775543Y-93931280D01*
X117704115Y-94002708D01*
X117632686Y-94145565D01*
X117632686Y-94574137D01*
X117704115Y-94716994D01*
X117775543Y-94788422D01*
X117918401Y-94859851D01*
X118132686Y-94859851D01*
X115204115Y-94859851D02*
X115204115Y-94074137D01*
X115275543Y-93931280D01*
X115418401Y-93859851D01*
X115704115Y-93859851D01*
X115846972Y-93931280D01*
X115204115Y-94788422D02*
X115346972Y-94859851D01*
X115704115Y-94859851D01*
X115846972Y-94788422D01*
X115918401Y-94645565D01*
X115918401Y-94502708D01*
X115846972Y-94359851D01*
X115704115Y-94288422D01*
X115346972Y-94288422D01*
X115204115Y-94216994D01*
X114489829Y-93859851D02*
X114489829Y-94859851D01*
X114489829Y-94002708D02*
X114418401Y-93931280D01*
X114275543Y-93859851D01*
X114061258Y-93859851D01*
X113918401Y-93931280D01*
X113846972Y-94074137D01*
X113846972Y-94859851D01*
X113275543Y-93859851D02*
X112918401Y-94859851D01*
X112561258Y-93859851D02*
X112918401Y-94859851D01*
X113061258Y-95216994D01*
X113132686Y-95288422D01*
X113275543Y-95359851D01*
X110846972Y-93359851D02*
X110846972Y-94574137D01*
X110775543Y-94716994D01*
X110704115Y-94788422D01*
X110561258Y-94859851D01*
X110275543Y-94859851D01*
X110132686Y-94788422D01*
X110061258Y-94716994D01*
X109989829Y-94574137D01*
X109989829Y-93359851D01*
X109346972Y-94788422D02*
X109132686Y-94859851D01*
X108775543Y-94859851D01*
X108632686Y-94788422D01*
X108561258Y-94716994D01*
X108489829Y-94574137D01*
X108489829Y-94431280D01*
X108561258Y-94288422D01*
X108632686Y-94216994D01*
X108775543Y-94145565D01*
X109061258Y-94074137D01*
X109204115Y-94002708D01*
X109275543Y-93931280D01*
X109346972Y-93788422D01*
X109346972Y-93645565D01*
X109275543Y-93502708D01*
X109204115Y-93431280D01*
X109061258Y-93359851D01*
X108704115Y-93359851D01*
X108489829Y-93431280D01*
X107346972Y-94074137D02*
X107132686Y-94145565D01*
X107061258Y-94216994D01*
X106989829Y-94359851D01*
X106989829Y-94574137D01*
X107061258Y-94716994D01*
X107132686Y-94788422D01*
X107275543Y-94859851D01*
X107846972Y-94859851D01*
X107846972Y-93359851D01*
X107346972Y-93359851D01*
X107204115Y-93431280D01*
X107132686Y-93502708D01*
X107061258Y-93645565D01*
X107061258Y-93788422D01*
X107132686Y-93931280D01*
X107204115Y-94002708D01*
X107346972Y-94074137D01*
X107846972Y-94074137D01*
X149918401Y-96252091D02*
X149918401Y-97752091D01*
X149918401Y-96323520D02*
X149775544Y-96252091D01*
X149489829Y-96252091D01*
X149346972Y-96323520D01*
X149275544Y-96394948D01*
X149204115Y-96537805D01*
X149204115Y-96966377D01*
X149275544Y-97109234D01*
X149346972Y-97180662D01*
X149489829Y-97252091D01*
X149775544Y-97252091D01*
X149918401Y-97180662D01*
X148346972Y-97252091D02*
X148489829Y-97180662D01*
X148561258Y-97109234D01*
X148632686Y-96966377D01*
X148632686Y-96537805D01*
X148561258Y-96394948D01*
X148489829Y-96323520D01*
X148346972Y-96252091D01*
X148132686Y-96252091D01*
X147989829Y-96323520D01*
X147918401Y-96394948D01*
X147846972Y-96537805D01*
X147846972Y-96966377D01*
X147918401Y-97109234D01*
X147989829Y-97180662D01*
X148132686Y-97252091D01*
X148346972Y-97252091D01*
X147204115Y-97252091D02*
X147204115Y-96252091D01*
X147204115Y-96537805D02*
X147132686Y-96394948D01*
X147061258Y-96323520D01*
X146918401Y-96252091D01*
X146775544Y-96252091D01*
X146489829Y-96252091D02*
X145918401Y-96252091D01*
X146275544Y-95752091D02*
X146275544Y-97037805D01*
X146204115Y-97180662D01*
X146061258Y-97252091D01*
X145918401Y-97252091D01*
X145346972Y-97180662D02*
X145346972Y-97252091D01*
X145418401Y-97394948D01*
X145489829Y-97466377D01*
X142918401Y-97252091D02*
X142918401Y-96466377D01*
X142989829Y-96323520D01*
X143132686Y-96252091D01*
X143418401Y-96252091D01*
X143561258Y-96323520D01*
X142918401Y-97180662D02*
X143061258Y-97252091D01*
X143418401Y-97252091D01*
X143561258Y-97180662D01*
X143632686Y-97037805D01*
X143632686Y-96894948D01*
X143561258Y-96752091D01*
X143418401Y-96680662D01*
X143061258Y-96680662D01*
X142918401Y-96609234D01*
X142204115Y-96252091D02*
X142204115Y-97252091D01*
X142204115Y-96394948D02*
X142132686Y-96323520D01*
X141989829Y-96252091D01*
X141775544Y-96252091D01*
X141632686Y-96323520D01*
X141561258Y-96466377D01*
X141561258Y-97252091D01*
X140204115Y-97252091D02*
X140204115Y-95752091D01*
X140204115Y-97180662D02*
X140346972Y-97252091D01*
X140632686Y-97252091D01*
X140775544Y-97180662D01*
X140846972Y-97109234D01*
X140918401Y-96966377D01*
X140918401Y-96537805D01*
X140846972Y-96394948D01*
X140775544Y-96323520D01*
X140632686Y-96252091D01*
X140346972Y-96252091D01*
X140204115Y-96323520D01*
X138489829Y-96252091D02*
X138204115Y-97252091D01*
X137918401Y-96537805D01*
X137632686Y-97252091D01*
X137346972Y-96252091D01*
X136132686Y-97252091D02*
X136132686Y-96466377D01*
X136204115Y-96323520D01*
X136346972Y-96252091D01*
X136632686Y-96252091D01*
X136775544Y-96323520D01*
X136132686Y-97180662D02*
X136275544Y-97252091D01*
X136632686Y-97252091D01*
X136775544Y-97180662D01*
X136846972Y-97037805D01*
X136846972Y-96894948D01*
X136775544Y-96752091D01*
X136632686Y-96680662D01*
X136275544Y-96680662D01*
X136132686Y-96609234D01*
X135632686Y-96252091D02*
X135061258Y-96252091D01*
X135418401Y-95752091D02*
X135418401Y-97037805D01*
X135346972Y-97180662D01*
X135204115Y-97252091D01*
X135061258Y-97252091D01*
X133918401Y-97180662D02*
X134061258Y-97252091D01*
X134346972Y-97252091D01*
X134489829Y-97180662D01*
X134561258Y-97109234D01*
X134632686Y-96966377D01*
X134632686Y-96537805D01*
X134561258Y-96394948D01*
X134489829Y-96323520D01*
X134346972Y-96252091D01*
X134061258Y-96252091D01*
X133918401Y-96323520D01*
X133275544Y-97252091D02*
X133275544Y-95752091D01*
X132632686Y-97252091D02*
X132632686Y-96466377D01*
X132704115Y-96323520D01*
X132846972Y-96252091D01*
X133061258Y-96252091D01*
X133204115Y-96323520D01*
X133275544Y-96394948D01*
X130989829Y-96252091D02*
X130418401Y-96252091D01*
X130775544Y-95752091D02*
X130775544Y-97037805D01*
X130704115Y-97180662D01*
X130561258Y-97252091D01*
X130418401Y-97252091D01*
X129918401Y-97252091D02*
X129918401Y-95752091D01*
X129275544Y-97252091D02*
X129275544Y-96466377D01*
X129346972Y-96323520D01*
X129489829Y-96252091D01*
X129704115Y-96252091D01*
X129846972Y-96323520D01*
X129918401Y-96394948D01*
X127989829Y-97180662D02*
X128132686Y-97252091D01*
X128418401Y-97252091D01*
X128561258Y-97180662D01*
X128632686Y-97037805D01*
X128632686Y-96466377D01*
X128561258Y-96323520D01*
X128418401Y-96252091D01*
X128132686Y-96252091D01*
X127989829Y-96323520D01*
X127918401Y-96466377D01*
X127918401Y-96609234D01*
X128632686Y-96752091D01*
X125418401Y-97252091D02*
X126132686Y-97252091D01*
X126132686Y-95752091D01*
X124918401Y-96466377D02*
X124418401Y-96466377D01*
X124204115Y-97252091D02*
X124918401Y-97252091D01*
X124918401Y-95752091D01*
X124204115Y-95752091D01*
X123561258Y-97252091D02*
X123561258Y-95752091D01*
X123204115Y-95752091D01*
X122989829Y-95823520D01*
X122846972Y-95966377D01*
X122775544Y-96109234D01*
X122704115Y-96394948D01*
X122704115Y-96609234D01*
X122775544Y-96894948D01*
X122846972Y-97037805D01*
X122989829Y-97180662D01*
X123204115Y-97252091D01*
X123561258Y-97252091D01*
X120275544Y-97252091D02*
X120275544Y-95752091D01*
X120275544Y-97180662D02*
X120418401Y-97252091D01*
X120704115Y-97252091D01*
X120846972Y-97180662D01*
X120918401Y-97109234D01*
X120989829Y-96966377D01*
X120989829Y-96537805D01*
X120918401Y-96394948D01*
X120846972Y-96323520D01*
X120704115Y-96252091D01*
X120418401Y-96252091D01*
X120275544Y-96323520D01*
X119561258Y-97252091D02*
X119561258Y-96252091D01*
X119561258Y-95752091D02*
X119632686Y-95823520D01*
X119561258Y-95894948D01*
X119489829Y-95823520D01*
X119561258Y-95752091D01*
X119561258Y-95894948D01*
X118918401Y-97180662D02*
X118775544Y-97252091D01*
X118489829Y-97252091D01*
X118346972Y-97180662D01*
X118275544Y-97037805D01*
X118275544Y-96966377D01*
X118346972Y-96823520D01*
X118489829Y-96752091D01*
X118704115Y-96752091D01*
X118846972Y-96680662D01*
X118918401Y-96537805D01*
X118918401Y-96466377D01*
X118846972Y-96323520D01*
X118704115Y-96252091D01*
X118489829Y-96252091D01*
X118346972Y-96323520D01*
X117632686Y-96252091D02*
X117632686Y-97752091D01*
X117632686Y-96323520D02*
X117489829Y-96252091D01*
X117204115Y-96252091D01*
X117061258Y-96323520D01*
X116989829Y-96394948D01*
X116918401Y-96537805D01*
X116918401Y-96966377D01*
X116989829Y-97109234D01*
X117061258Y-97180662D01*
X117204115Y-97252091D01*
X117489829Y-97252091D01*
X117632686Y-97180662D01*
X116061258Y-97252091D02*
X116204115Y-97180662D01*
X116275544Y-97037805D01*
X116275544Y-95752091D01*
X114846972Y-97252091D02*
X114846972Y-96466377D01*
X114918401Y-96323520D01*
X115061258Y-96252091D01*
X115346972Y-96252091D01*
X115489829Y-96323520D01*
X114846972Y-97180662D02*
X114989829Y-97252091D01*
X115346972Y-97252091D01*
X115489829Y-97180662D01*
X115561258Y-97037805D01*
X115561258Y-96894948D01*
X115489829Y-96752091D01*
X115346972Y-96680662D01*
X114989829Y-96680662D01*
X114846972Y-96609234D01*
X114275544Y-96252091D02*
X113918401Y-97252091D01*
X113561258Y-96252091D02*
X113918401Y-97252091D01*
X114061258Y-97609234D01*
X114132686Y-97680662D01*
X114275544Y-97752091D01*
X112989829Y-97109234D02*
X112918401Y-97180662D01*
X112989829Y-97252091D01*
X113061258Y-97180662D01*
X112989829Y-97109234D01*
X112989829Y-97252091D01*
X149918401Y-99644331D02*
X149918401Y-98144331D01*
X149346972Y-98144331D01*
X149204115Y-98215760D01*
X149132686Y-98287188D01*
X149061258Y-98430045D01*
X149061258Y-98644331D01*
X149132686Y-98787188D01*
X149204115Y-98858617D01*
X149346972Y-98930045D01*
X149918401Y-98930045D01*
X148418401Y-99644331D02*
X148418401Y-98644331D01*
X148418401Y-98930045D02*
X148346972Y-98787188D01*
X148275544Y-98715760D01*
X148132686Y-98644331D01*
X147989829Y-98644331D01*
X147275544Y-99644331D02*
X147418401Y-99572902D01*
X147489829Y-99501474D01*
X147561258Y-99358617D01*
X147561258Y-98930045D01*
X147489829Y-98787188D01*
X147418401Y-98715760D01*
X147275544Y-98644331D01*
X147061258Y-98644331D01*
X146918401Y-98715760D01*
X146846972Y-98787188D01*
X146775544Y-98930045D01*
X146775544Y-99358617D01*
X146846972Y-99501474D01*
X146918401Y-99572902D01*
X147061258Y-99644331D01*
X147275544Y-99644331D01*
X146132686Y-98644331D02*
X146132686Y-99930045D01*
X146204115Y-100072902D01*
X146346972Y-100144331D01*
X146418401Y-100144331D01*
X146132686Y-98144331D02*
X146204115Y-98215760D01*
X146132686Y-98287188D01*
X146061258Y-98215760D01*
X146132686Y-98144331D01*
X146132686Y-98287188D01*
X144846972Y-99572902D02*
X144989829Y-99644331D01*
X145275544Y-99644331D01*
X145418401Y-99572902D01*
X145489829Y-99430045D01*
X145489829Y-98858617D01*
X145418401Y-98715760D01*
X145275544Y-98644331D01*
X144989829Y-98644331D01*
X144846972Y-98715760D01*
X144775544Y-98858617D01*
X144775544Y-99001474D01*
X145489829Y-99144331D01*
X143489829Y-99572902D02*
X143632686Y-99644331D01*
X143918401Y-99644331D01*
X144061258Y-99572902D01*
X144132686Y-99501474D01*
X144204115Y-99358617D01*
X144204115Y-98930045D01*
X144132686Y-98787188D01*
X144061258Y-98715760D01*
X143918401Y-98644331D01*
X143632686Y-98644331D01*
X143489829Y-98715760D01*
X143061258Y-98644331D02*
X142489829Y-98644331D01*
X142846972Y-98144331D02*
X142846972Y-99430045D01*
X142775544Y-99572902D01*
X142632686Y-99644331D01*
X142489829Y-99644331D01*
X140204115Y-99644331D02*
X140204115Y-98144331D01*
X140204115Y-99572902D02*
X140346972Y-99644331D01*
X140632686Y-99644331D01*
X140775544Y-99572902D01*
X140846972Y-99501474D01*
X140918401Y-99358617D01*
X140918401Y-98930045D01*
X140846972Y-98787188D01*
X140775544Y-98715760D01*
X140632686Y-98644331D01*
X140346972Y-98644331D01*
X140204115Y-98715760D01*
X138918401Y-99572902D02*
X139061258Y-99644331D01*
X139346972Y-99644331D01*
X139489829Y-99572902D01*
X139561258Y-99430045D01*
X139561258Y-98858617D01*
X139489829Y-98715760D01*
X139346972Y-98644331D01*
X139061258Y-98644331D01*
X138918401Y-98715760D01*
X138846972Y-98858617D01*
X138846972Y-99001474D01*
X139561258Y-99144331D01*
X138418401Y-98644331D02*
X137846972Y-98644331D01*
X138204115Y-98144331D02*
X138204115Y-99430045D01*
X138132686Y-99572902D01*
X137989829Y-99644331D01*
X137846972Y-99644331D01*
X136704115Y-99644331D02*
X136704115Y-98858617D01*
X136775544Y-98715760D01*
X136918401Y-98644331D01*
X137204115Y-98644331D01*
X137346972Y-98715760D01*
X136704115Y-99572902D02*
X136846972Y-99644331D01*
X137204115Y-99644331D01*
X137346972Y-99572902D01*
X137418401Y-99430045D01*
X137418401Y-99287188D01*
X137346972Y-99144331D01*
X137204115Y-99072902D01*
X136846972Y-99072902D01*
X136704115Y-99001474D01*
X135989829Y-99644331D02*
X135989829Y-98644331D01*
X135989829Y-98144331D02*
X136061258Y-98215760D01*
X135989829Y-98287188D01*
X135918401Y-98215760D01*
X135989829Y-98144331D01*
X135989829Y-98287188D01*
X135061258Y-99644331D02*
X135204115Y-99572902D01*
X135275544Y-99430045D01*
X135275544Y-98144331D01*
X134561258Y-99572902D02*
X134418401Y-99644331D01*
X134132686Y-99644331D01*
X133989829Y-99572902D01*
X133918401Y-99430045D01*
X133918401Y-99358617D01*
X133989829Y-99215760D01*
X134132686Y-99144331D01*
X134346972Y-99144331D01*
X134489829Y-99072902D01*
X134561258Y-98930045D01*
X134561258Y-98858617D01*
X134489829Y-98715760D01*
X134346972Y-98644331D01*
X134132686Y-98644331D01*
X133989829Y-98715760D01*
X131489829Y-99572902D02*
X131632686Y-99644331D01*
X131918401Y-99644331D01*
X132061258Y-99572902D01*
X132132686Y-99501474D01*
X132204115Y-99358617D01*
X132204115Y-98930045D01*
X132132686Y-98787188D01*
X132061258Y-98715760D01*
X131918401Y-98644331D01*
X131632686Y-98644331D01*
X131489829Y-98715760D01*
X130204115Y-99644331D02*
X130204115Y-98858617D01*
X130275544Y-98715760D01*
X130418401Y-98644331D01*
X130704115Y-98644331D01*
X130846972Y-98715760D01*
X130204115Y-99572902D02*
X130346972Y-99644331D01*
X130704115Y-99644331D01*
X130846972Y-99572902D01*
X130918401Y-99430045D01*
X130918401Y-99287188D01*
X130846972Y-99144331D01*
X130704115Y-99072902D01*
X130346972Y-99072902D01*
X130204115Y-99001474D01*
X129489829Y-98644331D02*
X129489829Y-99644331D01*
X129489829Y-98787188D02*
X129418401Y-98715760D01*
X129275544Y-98644331D01*
X129061258Y-98644331D01*
X128918401Y-98715760D01*
X128846972Y-98858617D01*
X128846972Y-99644331D01*
X126989829Y-99644331D02*
X126989829Y-98144331D01*
X126989829Y-98715760D02*
X126846972Y-98644331D01*
X126561258Y-98644331D01*
X126418401Y-98715760D01*
X126346972Y-98787188D01*
X126275544Y-98930045D01*
X126275544Y-99358617D01*
X126346972Y-99501474D01*
X126418401Y-99572902D01*
X126561258Y-99644331D01*
X126846972Y-99644331D01*
X126989829Y-99572902D01*
X125061258Y-99572902D02*
X125204115Y-99644331D01*
X125489829Y-99644331D01*
X125632686Y-99572902D01*
X125704115Y-99430045D01*
X125704115Y-98858617D01*
X125632686Y-98715760D01*
X125489829Y-98644331D01*
X125204115Y-98644331D01*
X125061258Y-98715760D01*
X124989829Y-98858617D01*
X124989829Y-99001474D01*
X125704115Y-99144331D01*
X123418401Y-98644331D02*
X122846972Y-98644331D01*
X123204115Y-99644331D02*
X123204115Y-98358617D01*
X123132686Y-98215760D01*
X122989829Y-98144331D01*
X122846972Y-98144331D01*
X122132686Y-99644331D02*
X122275544Y-99572902D01*
X122346972Y-99501474D01*
X122418401Y-99358617D01*
X122418401Y-98930045D01*
X122346972Y-98787188D01*
X122275544Y-98715760D01*
X122132686Y-98644331D01*
X121918401Y-98644331D01*
X121775544Y-98715760D01*
X121704115Y-98787188D01*
X121632686Y-98930045D01*
X121632686Y-99358617D01*
X121704115Y-99501474D01*
X121775544Y-99572902D01*
X121918401Y-99644331D01*
X122132686Y-99644331D01*
X120346972Y-98644331D02*
X120346972Y-99644331D01*
X120989829Y-98644331D02*
X120989829Y-99430045D01*
X120918401Y-99572902D01*
X120775544Y-99644331D01*
X120561258Y-99644331D01*
X120418401Y-99572902D01*
X120346972Y-99501474D01*
X119632686Y-98644331D02*
X119632686Y-99644331D01*
X119632686Y-98787188D02*
X119561258Y-98715760D01*
X119418401Y-98644331D01*
X119204115Y-98644331D01*
X119061258Y-98715760D01*
X118989829Y-98858617D01*
X118989829Y-99644331D01*
X117632686Y-99644331D02*
X117632686Y-98144331D01*
X117632686Y-99572902D02*
X117775544Y-99644331D01*
X118061258Y-99644331D01*
X118204115Y-99572902D01*
X118275544Y-99501474D01*
X118346972Y-99358617D01*
X118346972Y-98930045D01*
X118275544Y-98787188D01*
X118204115Y-98715760D01*
X118061258Y-98644331D01*
X117775544Y-98644331D01*
X117632686Y-98715760D01*
X115132686Y-99644331D02*
X115132686Y-98858617D01*
X115204115Y-98715760D01*
X115346972Y-98644331D01*
X115632686Y-98644331D01*
X115775544Y-98715760D01*
X115132686Y-99572902D02*
X115275544Y-99644331D01*
X115632686Y-99644331D01*
X115775544Y-99572902D01*
X115846972Y-99430045D01*
X115846972Y-99287188D01*
X115775544Y-99144331D01*
X115632686Y-99072902D01*
X115275544Y-99072902D01*
X115132686Y-99001474D01*
X114632686Y-98644331D02*
X114061258Y-98644331D01*
X114418401Y-98144331D02*
X114418401Y-99430045D01*
X114346972Y-99572902D01*
X114204115Y-99644331D01*
X114061258Y-99644331D01*
X149275544Y-101036571D02*
X149275544Y-102250857D01*
X149346972Y-102393714D01*
X149418401Y-102465142D01*
X149561258Y-102536571D01*
X149775544Y-102536571D01*
X149918401Y-102465142D01*
X149275544Y-101965142D02*
X149418401Y-102036571D01*
X149704115Y-102036571D01*
X149846972Y-101965142D01*
X149918401Y-101893714D01*
X149989829Y-101750857D01*
X149989829Y-101322285D01*
X149918401Y-101179428D01*
X149846972Y-101108000D01*
X149704115Y-101036571D01*
X149418401Y-101036571D01*
X149275544Y-101108000D01*
X148561258Y-102036571D02*
X148561258Y-101036571D01*
X148561258Y-100536571D02*
X148632686Y-100608000D01*
X148561258Y-100679428D01*
X148489829Y-100608000D01*
X148561258Y-100536571D01*
X148561258Y-100679428D01*
X148061258Y-101036571D02*
X147489829Y-101036571D01*
X147846972Y-100536571D02*
X147846972Y-101822285D01*
X147775544Y-101965142D01*
X147632686Y-102036571D01*
X147489829Y-102036571D01*
X146989829Y-102036571D02*
X146989829Y-100536571D01*
X146346972Y-102036571D02*
X146346972Y-101250857D01*
X146418401Y-101108000D01*
X146561258Y-101036571D01*
X146775544Y-101036571D01*
X146918401Y-101108000D01*
X146989829Y-101179428D01*
X144989829Y-101036571D02*
X144989829Y-102036571D01*
X145632686Y-101036571D02*
X145632686Y-101822285D01*
X145561258Y-101965142D01*
X145418401Y-102036571D01*
X145204115Y-102036571D01*
X145061258Y-101965142D01*
X144989829Y-101893714D01*
X144275544Y-102036571D02*
X144275544Y-100536571D01*
X144275544Y-101108000D02*
X144132686Y-101036571D01*
X143846972Y-101036571D01*
X143704115Y-101108000D01*
X143632686Y-101179428D01*
X143561258Y-101322285D01*
X143561258Y-101750857D01*
X143632686Y-101893714D01*
X143704115Y-101965142D01*
X143846972Y-102036571D01*
X144132686Y-102036571D01*
X144275544Y-101965142D01*
X142918401Y-101893714D02*
X142846972Y-101965142D01*
X142918401Y-102036571D01*
X142989829Y-101965142D01*
X142918401Y-101893714D01*
X142918401Y-102036571D01*
X141561258Y-101965142D02*
X141704115Y-102036571D01*
X141989829Y-102036571D01*
X142132686Y-101965142D01*
X142204115Y-101893714D01*
X142275544Y-101750857D01*
X142275544Y-101322285D01*
X142204115Y-101179428D01*
X142132686Y-101108000D01*
X141989829Y-101036571D01*
X141704115Y-101036571D01*
X141561258Y-101108000D01*
X140704115Y-102036571D02*
X140846972Y-101965142D01*
X140918401Y-101893714D01*
X140989829Y-101750857D01*
X140989829Y-101322285D01*
X140918401Y-101179428D01*
X140846972Y-101108000D01*
X140704115Y-101036571D01*
X140489829Y-101036571D01*
X140346972Y-101108000D01*
X140275544Y-101179428D01*
X140204115Y-101322285D01*
X140204115Y-101750857D01*
X140275544Y-101893714D01*
X140346972Y-101965142D01*
X140489829Y-102036571D01*
X140704115Y-102036571D01*
X139561258Y-102036571D02*
X139561258Y-101036571D01*
X139561258Y-101179428D02*
X139489829Y-101108000D01*
X139346972Y-101036571D01*
X139132686Y-101036571D01*
X138989829Y-101108000D01*
X138918401Y-101250857D01*
X138918401Y-102036571D01*
X138918401Y-101250857D02*
X138846972Y-101108000D01*
X138704115Y-101036571D01*
X138489829Y-101036571D01*
X138346972Y-101108000D01*
X138275544Y-101250857D01*
X138275544Y-102036571D01*
X136489829Y-100465142D02*
X137775544Y-102393714D01*
X135989829Y-102036571D02*
X135989829Y-100536571D01*
X135846972Y-101465142D02*
X135418401Y-102036571D01*
X135418401Y-101036571D02*
X135989829Y-101608000D01*
X134204115Y-101965142D02*
X134346972Y-102036571D01*
X134632686Y-102036571D01*
X134775544Y-101965142D01*
X134846972Y-101822285D01*
X134846972Y-101250857D01*
X134775544Y-101108000D01*
X134632686Y-101036571D01*
X134346972Y-101036571D01*
X134204115Y-101108000D01*
X134132686Y-101250857D01*
X134132686Y-101393714D01*
X134846972Y-101536571D01*
X133632686Y-101036571D02*
X133275544Y-102036571D01*
X132918401Y-101036571D01*
X132346972Y-102036571D02*
X132346972Y-101036571D01*
X132346972Y-100536571D02*
X132418401Y-100608000D01*
X132346972Y-100679428D01*
X132275544Y-100608000D01*
X132346972Y-100536571D01*
X132346972Y-100679428D01*
X131632686Y-101036571D02*
X131632686Y-102036571D01*
X131632686Y-101179428D02*
X131561258Y-101108000D01*
X131418401Y-101036571D01*
X131204115Y-101036571D01*
X131061258Y-101108000D01*
X130989829Y-101250857D01*
X130989829Y-102036571D01*
X130061258Y-102036571D02*
X130204115Y-101965142D01*
X130275544Y-101822285D01*
X130275544Y-100536571D01*
X128846972Y-101036571D02*
X128846972Y-102036571D01*
X129489829Y-101036571D02*
X129489829Y-101822285D01*
X129418401Y-101965142D01*
X129275544Y-102036571D01*
X129061258Y-102036571D01*
X128918401Y-101965142D01*
X128846972Y-101893714D01*
X128346972Y-101036571D02*
X127775544Y-101036571D01*
X128132686Y-100536571D02*
X128132686Y-101822285D01*
X128061258Y-101965142D01*
X127918401Y-102036571D01*
X127775544Y-102036571D01*
X127418401Y-101036571D02*
X126632686Y-101036571D01*
X127418401Y-102036571D01*
X126632686Y-102036571D01*
X125489829Y-101965142D02*
X125632686Y-102036571D01*
X125918401Y-102036571D01*
X126061258Y-101965142D01*
X126132686Y-101822285D01*
X126132686Y-101250857D01*
X126061258Y-101108000D01*
X125918401Y-101036571D01*
X125632686Y-101036571D01*
X125489829Y-101108000D01*
X125418401Y-101250857D01*
X125418401Y-101393714D01*
X126132686Y-101536571D01*
X124775543Y-102036571D02*
X124775543Y-101036571D01*
X124775543Y-101322285D02*
X124704115Y-101179428D01*
X124632686Y-101108000D01*
X124489829Y-101036571D01*
X124346972Y-101036571D01*
X122775543Y-100465142D02*
X124061258Y-102393714D01*
X122275543Y-102036571D02*
X122275543Y-100536571D01*
X122275543Y-101108000D02*
X122132686Y-101036571D01*
X121846972Y-101036571D01*
X121704115Y-101108000D01*
X121632686Y-101179428D01*
X121561258Y-101322285D01*
X121561258Y-101750857D01*
X121632686Y-101893714D01*
X121704115Y-101965142D01*
X121846972Y-102036571D01*
X122132686Y-102036571D01*
X122275543Y-101965142D01*
X120275543Y-101036571D02*
X120275543Y-102036571D01*
X120918401Y-101036571D02*
X120918401Y-101822285D01*
X120846972Y-101965142D01*
X120704115Y-102036571D01*
X120489829Y-102036571D01*
X120346972Y-101965142D01*
X120275543Y-101893714D01*
X119632686Y-101965142D02*
X119489829Y-102036571D01*
X119204115Y-102036571D01*
X119061258Y-101965142D01*
X118989829Y-101822285D01*
X118989829Y-101750857D01*
X119061258Y-101608000D01*
X119204115Y-101536571D01*
X119418401Y-101536571D01*
X119561258Y-101465142D01*
X119632686Y-101322285D01*
X119632686Y-101250857D01*
X119561258Y-101108000D01*
X119418401Y-101036571D01*
X119204115Y-101036571D01*
X119061258Y-101108000D01*
X118346972Y-102036571D02*
X118346972Y-101036571D01*
X118346972Y-100536571D02*
X118418401Y-100608000D01*
X118346972Y-100679428D01*
X118275543Y-100608000D01*
X118346972Y-100536571D01*
X118346972Y-100679428D01*
X117632686Y-101036571D02*
X117632686Y-102036571D01*
X117632686Y-101179428D02*
X117561258Y-101108000D01*
X117418401Y-101036571D01*
X117204115Y-101036571D01*
X117061258Y-101108000D01*
X116989829Y-101250857D01*
X116989829Y-102036571D01*
X115704115Y-101965142D02*
X115846972Y-102036571D01*
X116132686Y-102036571D01*
X116275544Y-101965142D01*
X116346972Y-101822285D01*
X116346972Y-101250857D01*
X116275544Y-101108000D01*
X116132686Y-101036571D01*
X115846972Y-101036571D01*
X115704115Y-101108000D01*
X115632686Y-101250857D01*
X115632686Y-101393714D01*
X116346972Y-101536571D01*
X115061258Y-101965142D02*
X114918401Y-102036571D01*
X114632686Y-102036571D01*
X114489829Y-101965142D01*
X114418401Y-101822285D01*
X114418401Y-101750857D01*
X114489829Y-101608000D01*
X114632686Y-101536571D01*
X114846972Y-101536571D01*
X114989829Y-101465142D01*
X115061258Y-101322285D01*
X115061258Y-101250857D01*
X114989829Y-101108000D01*
X114846972Y-101036571D01*
X114632686Y-101036571D01*
X114489829Y-101108000D01*
X113846972Y-101965142D02*
X113704115Y-102036571D01*
X113418401Y-102036571D01*
X113275543Y-101965142D01*
X113204115Y-101822285D01*
X113204115Y-101750857D01*
X113275543Y-101608000D01*
X113418401Y-101536571D01*
X113632686Y-101536571D01*
X113775543Y-101465142D01*
X113846972Y-101322285D01*
X113846972Y-101250857D01*
X113775543Y-101108000D01*
X113632686Y-101036571D01*
X113418401Y-101036571D01*
X113275543Y-101108000D01*
X112561258Y-101465142D02*
X111418401Y-101465142D01*
X110061258Y-101965142D02*
X110204115Y-102036571D01*
X110489829Y-102036571D01*
X110632686Y-101965142D01*
X110704115Y-101893714D01*
X110775543Y-101750857D01*
X110775543Y-101322285D01*
X110704115Y-101179428D01*
X110632686Y-101108000D01*
X110489829Y-101036571D01*
X110204115Y-101036571D01*
X110061258Y-101108000D01*
X108775543Y-102036571D02*
X108775543Y-101250857D01*
X108846972Y-101108000D01*
X108989829Y-101036571D01*
X109275543Y-101036571D01*
X109418401Y-101108000D01*
X108775543Y-101965142D02*
X108918401Y-102036571D01*
X109275543Y-102036571D01*
X109418401Y-101965142D01*
X109489829Y-101822285D01*
X109489829Y-101679428D01*
X109418401Y-101536571D01*
X109275543Y-101465142D01*
X108918401Y-101465142D01*
X108775543Y-101393714D01*
X108061258Y-102036571D02*
X108061258Y-101036571D01*
X108061258Y-101322285D02*
X107989829Y-101179428D01*
X107918401Y-101108000D01*
X107775543Y-101036571D01*
X107632686Y-101036571D01*
X106489829Y-102036571D02*
X106489829Y-100536571D01*
X106489829Y-101965142D02*
X106632686Y-102036571D01*
X106918401Y-102036571D01*
X107061258Y-101965142D01*
X107132686Y-101893714D01*
X107204115Y-101750857D01*
X107204115Y-101322285D01*
X107132686Y-101179428D01*
X107061258Y-101108000D01*
X106918401Y-101036571D01*
X106632686Y-101036571D01*
X106489829Y-101108000D01*
D12*
G36*
X140668186Y-84082931D02*
G01*
X140584365Y-84527555D01*
X140275080Y-84655053D01*
X139965794Y-84782551D01*
X139594754Y-84530246D01*
X139490843Y-84459996D01*
X139396913Y-84397272D01*
X139317348Y-84344938D01*
X139256530Y-84305857D01*
X139218843Y-84282893D01*
X139208579Y-84277942D01*
X139190090Y-84290676D01*
X139150580Y-84325882D01*
X139094478Y-84379062D01*
X139026213Y-84445718D01*
X138950214Y-84521354D01*
X138870908Y-84601472D01*
X138792725Y-84681574D01*
X138720093Y-84757164D01*
X138657441Y-84823745D01*
X138609197Y-84876818D01*
X138579790Y-84911887D01*
X138572759Y-84923623D01*
X138582877Y-84945260D01*
X138611241Y-84992662D01*
X138654871Y-85061193D01*
X138710782Y-85146215D01*
X138775994Y-85243093D01*
X138813781Y-85298350D01*
X138882657Y-85399248D01*
X138943860Y-85490299D01*
X138994422Y-85566970D01*
X139031372Y-85624728D01*
X139051742Y-85659043D01*
X139054803Y-85666254D01*
X139047864Y-85686748D01*
X139028949Y-85734513D01*
X139000913Y-85802832D01*
X138966609Y-85884989D01*
X138928891Y-85974270D01*
X138890613Y-86063958D01*
X138854630Y-86147338D01*
X138823794Y-86217694D01*
X138800961Y-86268310D01*
X138788983Y-86292471D01*
X138788276Y-86293422D01*
X138769469Y-86298036D01*
X138719382Y-86308328D01*
X138643207Y-86323287D01*
X138546135Y-86341901D01*
X138433357Y-86363159D01*
X138367558Y-86375418D01*
X138247050Y-86398362D01*
X138138203Y-86420195D01*
X138046524Y-86439722D01*
X137977519Y-86455748D01*
X137936696Y-86467079D01*
X137928489Y-86470674D01*
X137920452Y-86495006D01*
X137913967Y-86549959D01*
X137909030Y-86629108D01*
X137905636Y-86726026D01*
X137903782Y-86834287D01*
X137903462Y-86947465D01*
X137904673Y-87059135D01*
X137907410Y-87162868D01*
X137911669Y-87252241D01*
X137917445Y-87320826D01*
X137924733Y-87362197D01*
X137929105Y-87370810D01*
X137955236Y-87381133D01*
X138010607Y-87395892D01*
X138087893Y-87413352D01*
X138179770Y-87431780D01*
X138211842Y-87437741D01*
X138366476Y-87466066D01*
X138488625Y-87488876D01*
X138582327Y-87507080D01*
X138651616Y-87521583D01*
X138700529Y-87533292D01*
X138733103Y-87543115D01*
X138753372Y-87551956D01*
X138765374Y-87560724D01*
X138767053Y-87562457D01*
X138783816Y-87590371D01*
X138809386Y-87644695D01*
X138841212Y-87718777D01*
X138876740Y-87805965D01*
X138913417Y-87899608D01*
X138948689Y-87993052D01*
X138980004Y-88079647D01*
X139004807Y-88152740D01*
X139020546Y-88205678D01*
X139024668Y-88231811D01*
X139024324Y-88232726D01*
X139010359Y-88254086D01*
X138978678Y-88301084D01*
X138932609Y-88368827D01*
X138875482Y-88452423D01*
X138810627Y-88546982D01*
X138792157Y-88573854D01*
X138726301Y-88671275D01*
X138668350Y-88760163D01*
X138621462Y-88835412D01*
X138588793Y-88891920D01*
X138573500Y-88924581D01*
X138572759Y-88928593D01*
X138585608Y-88949684D01*
X138621112Y-88991464D01*
X138674707Y-89049445D01*
X138741829Y-89119135D01*
X138817913Y-89196045D01*
X138898396Y-89275683D01*
X138978713Y-89353561D01*
X139054301Y-89425186D01*
X139120595Y-89486070D01*
X139173031Y-89531721D01*
X139207045Y-89557650D01*
X139216455Y-89561883D01*
X139238357Y-89551912D01*
X139283200Y-89525020D01*
X139343679Y-89485736D01*
X139390211Y-89454117D01*
X139474525Y-89396098D01*
X139574374Y-89327784D01*
X139674527Y-89259579D01*
X139728373Y-89223075D01*
X139910629Y-89099800D01*
X140063619Y-89182520D01*
X140133318Y-89218759D01*
X140192586Y-89246926D01*
X140232689Y-89262991D01*
X140242897Y-89265226D01*
X140255171Y-89248722D01*
X140279387Y-89202082D01*
X140313737Y-89129609D01*
X140356412Y-89035606D01*
X140405606Y-88924374D01*
X140459510Y-88800215D01*
X140516316Y-88667432D01*
X140574218Y-88530327D01*
X140631407Y-88393202D01*
X140686076Y-88260358D01*
X140736416Y-88136098D01*
X140780620Y-88024725D01*
X140816881Y-87930539D01*
X140843391Y-87857844D01*
X140858342Y-87810941D01*
X140860746Y-87794833D01*
X140841689Y-87774286D01*
X140799964Y-87740933D01*
X140744294Y-87701702D01*
X140739622Y-87698599D01*
X140595736Y-87583423D01*
X140479717Y-87449053D01*
X140392570Y-87299784D01*
X140335301Y-87139913D01*
X140308914Y-86973737D01*
X140314415Y-86805552D01*
X140352810Y-86639655D01*
X140425105Y-86480342D01*
X140446374Y-86445487D01*
X140557004Y-86304737D01*
X140687698Y-86191714D01*
X140833936Y-86107003D01*
X140991192Y-86051194D01*
X141154943Y-86024874D01*
X141320667Y-86028630D01*
X141483838Y-86063050D01*
X141639935Y-86128723D01*
X141784433Y-86226235D01*
X141829131Y-86265813D01*
X141942888Y-86389703D01*
X142025782Y-86520124D01*
X142082644Y-86666315D01*
X142114313Y-86811088D01*
X142122131Y-86973860D01*
X142096062Y-87137440D01*
X142038755Y-87296298D01*
X141952856Y-87444906D01*
X141841014Y-87577735D01*
X141705877Y-87689256D01*
X141688117Y-87701011D01*
X141631850Y-87739508D01*
X141589077Y-87772863D01*
X141568628Y-87794160D01*
X141568331Y-87794833D01*
X141572721Y-87817871D01*
X141590124Y-87870157D01*
X141618732Y-87947390D01*
X141656735Y-88045268D01*
X141702326Y-88159491D01*
X141753697Y-88285758D01*
X141809038Y-88419767D01*
X141866542Y-88557218D01*
X141924399Y-88693808D01*
X141980802Y-88825237D01*
X142033942Y-88947205D01*
X142082010Y-89055409D01*
X142123199Y-89145549D01*
X142155699Y-89213323D01*
X142177703Y-89254430D01*
X142186564Y-89265226D01*
X142213640Y-89256819D01*
X142264303Y-89234272D01*
X142329817Y-89201613D01*
X142365841Y-89182520D01*
X142518832Y-89099800D01*
X142701088Y-89223075D01*
X142794125Y-89286228D01*
X142895985Y-89355727D01*
X142991438Y-89421165D01*
X143039250Y-89454117D01*
X143106495Y-89499273D01*
X143163436Y-89535057D01*
X143202646Y-89556938D01*
X143215381Y-89561563D01*
X143233917Y-89549085D01*
X143274941Y-89514252D01*
X143334475Y-89460678D01*
X143408542Y-89391983D01*
X143493165Y-89311781D01*
X143546685Y-89260286D01*
X143640319Y-89168286D01*
X143721241Y-89085999D01*
X143786177Y-89016945D01*
X143831858Y-88964644D01*
X143855011Y-88932616D01*
X143857232Y-88926116D01*
X143846924Y-88901394D01*
X143818439Y-88851405D01*
X143774937Y-88781212D01*
X143719577Y-88695875D01*
X143655520Y-88600456D01*
X143637303Y-88573854D01*
X143570927Y-88477167D01*
X143511378Y-88390117D01*
X143461984Y-88317595D01*
X143426075Y-88264493D01*
X143406981Y-88235703D01*
X143405136Y-88232726D01*
X143407895Y-88209782D01*
X143422538Y-88159336D01*
X143446513Y-88088041D01*
X143477266Y-88002547D01*
X143512244Y-87909507D01*
X143548893Y-87815574D01*
X143584661Y-87727399D01*
X143616994Y-87651634D01*
X143643338Y-87594931D01*
X143661142Y-87563943D01*
X143662407Y-87562457D01*
X143673294Y-87553601D01*
X143691682Y-87544843D01*
X143721606Y-87535277D01*
X143767103Y-87523996D01*
X143832209Y-87510093D01*
X143920961Y-87492663D01*
X144037393Y-87470798D01*
X144185542Y-87443591D01*
X144217618Y-87437741D01*
X144312686Y-87419374D01*
X144395565Y-87401405D01*
X144458930Y-87385569D01*
X144495458Y-87373600D01*
X144500356Y-87370810D01*
X144508427Y-87346072D01*
X144514987Y-87290790D01*
X144520033Y-87211389D01*
X144523559Y-87114296D01*
X144525561Y-87005938D01*
X144526036Y-86892740D01*
X144524977Y-86781128D01*
X144522382Y-86677529D01*
X144518246Y-86588368D01*
X144512563Y-86520072D01*
X144505331Y-86479066D01*
X144500971Y-86470674D01*
X144476698Y-86462208D01*
X144421426Y-86448435D01*
X144340662Y-86430550D01*
X144239912Y-86409748D01*
X144124683Y-86387223D01*
X144061902Y-86375418D01*
X143942787Y-86353151D01*
X143836565Y-86332979D01*
X143748427Y-86315915D01*
X143683566Y-86302969D01*
X143647174Y-86295155D01*
X143641184Y-86293422D01*
X143631061Y-86273890D01*
X143609662Y-86226843D01*
X143579839Y-86159003D01*
X143544445Y-86077091D01*
X143506332Y-85987828D01*
X143468353Y-85897935D01*
X143433360Y-85814135D01*
X143404206Y-85743147D01*
X143383743Y-85691694D01*
X143374823Y-85666497D01*
X143374657Y-85665396D01*
X143384769Y-85645519D01*
X143413117Y-85599777D01*
X143456723Y-85532717D01*
X143512606Y-85448884D01*
X143577787Y-85352826D01*
X143615679Y-85297650D01*
X143684725Y-85196481D01*
X143746050Y-85104630D01*
X143796663Y-85026744D01*
X143833571Y-84967469D01*
X143853782Y-84931451D01*
X143856701Y-84923377D01*
X143844153Y-84904584D01*
X143809463Y-84864457D01*
X143757063Y-84807493D01*
X143691384Y-84738185D01*
X143616856Y-84661031D01*
X143537913Y-84580525D01*
X143458983Y-84501163D01*
X143384500Y-84427440D01*
X143318894Y-84363852D01*
X143266596Y-84314894D01*
X143232039Y-84285061D01*
X143220478Y-84277942D01*
X143201654Y-84287953D01*
X143156631Y-84316078D01*
X143089787Y-84359454D01*
X143005499Y-84415218D01*
X142908144Y-84480506D01*
X142834707Y-84530246D01*
X142463667Y-84782551D01*
X141845095Y-84527555D01*
X141761275Y-84082931D01*
X141677454Y-83638307D01*
X140752006Y-83638307D01*
X140668186Y-84082931D01*
G37*
X140668186Y-84082931D02*
X140584365Y-84527555D01*
X140275080Y-84655053D01*
X139965794Y-84782551D01*
X139594754Y-84530246D01*
X139490843Y-84459996D01*
X139396913Y-84397272D01*
X139317348Y-84344938D01*
X139256530Y-84305857D01*
X139218843Y-84282893D01*
X139208579Y-84277942D01*
X139190090Y-84290676D01*
X139150580Y-84325882D01*
X139094478Y-84379062D01*
X139026213Y-84445718D01*
X138950214Y-84521354D01*
X138870908Y-84601472D01*
X138792725Y-84681574D01*
X138720093Y-84757164D01*
X138657441Y-84823745D01*
X138609197Y-84876818D01*
X138579790Y-84911887D01*
X138572759Y-84923623D01*
X138582877Y-84945260D01*
X138611241Y-84992662D01*
X138654871Y-85061193D01*
X138710782Y-85146215D01*
X138775994Y-85243093D01*
X138813781Y-85298350D01*
X138882657Y-85399248D01*
X138943860Y-85490299D01*
X138994422Y-85566970D01*
X139031372Y-85624728D01*
X139051742Y-85659043D01*
X139054803Y-85666254D01*
X139047864Y-85686748D01*
X139028949Y-85734513D01*
X139000913Y-85802832D01*
X138966609Y-85884989D01*
X138928891Y-85974270D01*
X138890613Y-86063958D01*
X138854630Y-86147338D01*
X138823794Y-86217694D01*
X138800961Y-86268310D01*
X138788983Y-86292471D01*
X138788276Y-86293422D01*
X138769469Y-86298036D01*
X138719382Y-86308328D01*
X138643207Y-86323287D01*
X138546135Y-86341901D01*
X138433357Y-86363159D01*
X138367558Y-86375418D01*
X138247050Y-86398362D01*
X138138203Y-86420195D01*
X138046524Y-86439722D01*
X137977519Y-86455748D01*
X137936696Y-86467079D01*
X137928489Y-86470674D01*
X137920452Y-86495006D01*
X137913967Y-86549959D01*
X137909030Y-86629108D01*
X137905636Y-86726026D01*
X137903782Y-86834287D01*
X137903462Y-86947465D01*
X137904673Y-87059135D01*
X137907410Y-87162868D01*
X137911669Y-87252241D01*
X137917445Y-87320826D01*
X137924733Y-87362197D01*
X137929105Y-87370810D01*
X137955236Y-87381133D01*
X138010607Y-87395892D01*
X138087893Y-87413352D01*
X138179770Y-87431780D01*
X138211842Y-87437741D01*
X138366476Y-87466066D01*
X138488625Y-87488876D01*
X138582327Y-87507080D01*
X138651616Y-87521583D01*
X138700529Y-87533292D01*
X138733103Y-87543115D01*
X138753372Y-87551956D01*
X138765374Y-87560724D01*
X138767053Y-87562457D01*
X138783816Y-87590371D01*
X138809386Y-87644695D01*
X138841212Y-87718777D01*
X138876740Y-87805965D01*
X138913417Y-87899608D01*
X138948689Y-87993052D01*
X138980004Y-88079647D01*
X139004807Y-88152740D01*
X139020546Y-88205678D01*
X139024668Y-88231811D01*
X139024324Y-88232726D01*
X139010359Y-88254086D01*
X138978678Y-88301084D01*
X138932609Y-88368827D01*
X138875482Y-88452423D01*
X138810627Y-88546982D01*
X138792157Y-88573854D01*
X138726301Y-88671275D01*
X138668350Y-88760163D01*
X138621462Y-88835412D01*
X138588793Y-88891920D01*
X138573500Y-88924581D01*
X138572759Y-88928593D01*
X138585608Y-88949684D01*
X138621112Y-88991464D01*
X138674707Y-89049445D01*
X138741829Y-89119135D01*
X138817913Y-89196045D01*
X138898396Y-89275683D01*
X138978713Y-89353561D01*
X139054301Y-89425186D01*
X139120595Y-89486070D01*
X139173031Y-89531721D01*
X139207045Y-89557650D01*
X139216455Y-89561883D01*
X139238357Y-89551912D01*
X139283200Y-89525020D01*
X139343679Y-89485736D01*
X139390211Y-89454117D01*
X139474525Y-89396098D01*
X139574374Y-89327784D01*
X139674527Y-89259579D01*
X139728373Y-89223075D01*
X139910629Y-89099800D01*
X140063619Y-89182520D01*
X140133318Y-89218759D01*
X140192586Y-89246926D01*
X140232689Y-89262991D01*
X140242897Y-89265226D01*
X140255171Y-89248722D01*
X140279387Y-89202082D01*
X140313737Y-89129609D01*
X140356412Y-89035606D01*
X140405606Y-88924374D01*
X140459510Y-88800215D01*
X140516316Y-88667432D01*
X140574218Y-88530327D01*
X140631407Y-88393202D01*
X140686076Y-88260358D01*
X140736416Y-88136098D01*
X140780620Y-88024725D01*
X140816881Y-87930539D01*
X140843391Y-87857844D01*
X140858342Y-87810941D01*
X140860746Y-87794833D01*
X140841689Y-87774286D01*
X140799964Y-87740933D01*
X140744294Y-87701702D01*
X140739622Y-87698599D01*
X140595736Y-87583423D01*
X140479717Y-87449053D01*
X140392570Y-87299784D01*
X140335301Y-87139913D01*
X140308914Y-86973737D01*
X140314415Y-86805552D01*
X140352810Y-86639655D01*
X140425105Y-86480342D01*
X140446374Y-86445487D01*
X140557004Y-86304737D01*
X140687698Y-86191714D01*
X140833936Y-86107003D01*
X140991192Y-86051194D01*
X141154943Y-86024874D01*
X141320667Y-86028630D01*
X141483838Y-86063050D01*
X141639935Y-86128723D01*
X141784433Y-86226235D01*
X141829131Y-86265813D01*
X141942888Y-86389703D01*
X142025782Y-86520124D01*
X142082644Y-86666315D01*
X142114313Y-86811088D01*
X142122131Y-86973860D01*
X142096062Y-87137440D01*
X142038755Y-87296298D01*
X141952856Y-87444906D01*
X141841014Y-87577735D01*
X141705877Y-87689256D01*
X141688117Y-87701011D01*
X141631850Y-87739508D01*
X141589077Y-87772863D01*
X141568628Y-87794160D01*
X141568331Y-87794833D01*
X141572721Y-87817871D01*
X141590124Y-87870157D01*
X141618732Y-87947390D01*
X141656735Y-88045268D01*
X141702326Y-88159491D01*
X141753697Y-88285758D01*
X141809038Y-88419767D01*
X141866542Y-88557218D01*
X141924399Y-88693808D01*
X141980802Y-88825237D01*
X142033942Y-88947205D01*
X142082010Y-89055409D01*
X142123199Y-89145549D01*
X142155699Y-89213323D01*
X142177703Y-89254430D01*
X142186564Y-89265226D01*
X142213640Y-89256819D01*
X142264303Y-89234272D01*
X142329817Y-89201613D01*
X142365841Y-89182520D01*
X142518832Y-89099800D01*
X142701088Y-89223075D01*
X142794125Y-89286228D01*
X142895985Y-89355727D01*
X142991438Y-89421165D01*
X143039250Y-89454117D01*
X143106495Y-89499273D01*
X143163436Y-89535057D01*
X143202646Y-89556938D01*
X143215381Y-89561563D01*
X143233917Y-89549085D01*
X143274941Y-89514252D01*
X143334475Y-89460678D01*
X143408542Y-89391983D01*
X143493165Y-89311781D01*
X143546685Y-89260286D01*
X143640319Y-89168286D01*
X143721241Y-89085999D01*
X143786177Y-89016945D01*
X143831858Y-88964644D01*
X143855011Y-88932616D01*
X143857232Y-88926116D01*
X143846924Y-88901394D01*
X143818439Y-88851405D01*
X143774937Y-88781212D01*
X143719577Y-88695875D01*
X143655520Y-88600456D01*
X143637303Y-88573854D01*
X143570927Y-88477167D01*
X143511378Y-88390117D01*
X143461984Y-88317595D01*
X143426075Y-88264493D01*
X143406981Y-88235703D01*
X143405136Y-88232726D01*
X143407895Y-88209782D01*
X143422538Y-88159336D01*
X143446513Y-88088041D01*
X143477266Y-88002547D01*
X143512244Y-87909507D01*
X143548893Y-87815574D01*
X143584661Y-87727399D01*
X143616994Y-87651634D01*
X143643338Y-87594931D01*
X143661142Y-87563943D01*
X143662407Y-87562457D01*
X143673294Y-87553601D01*
X143691682Y-87544843D01*
X143721606Y-87535277D01*
X143767103Y-87523996D01*
X143832209Y-87510093D01*
X143920961Y-87492663D01*
X144037393Y-87470798D01*
X144185542Y-87443591D01*
X144217618Y-87437741D01*
X144312686Y-87419374D01*
X144395565Y-87401405D01*
X144458930Y-87385569D01*
X144495458Y-87373600D01*
X144500356Y-87370810D01*
X144508427Y-87346072D01*
X144514987Y-87290790D01*
X144520033Y-87211389D01*
X144523559Y-87114296D01*
X144525561Y-87005938D01*
X144526036Y-86892740D01*
X144524977Y-86781128D01*
X144522382Y-86677529D01*
X144518246Y-86588368D01*
X144512563Y-86520072D01*
X144505331Y-86479066D01*
X144500971Y-86470674D01*
X144476698Y-86462208D01*
X144421426Y-86448435D01*
X144340662Y-86430550D01*
X144239912Y-86409748D01*
X144124683Y-86387223D01*
X144061902Y-86375418D01*
X143942787Y-86353151D01*
X143836565Y-86332979D01*
X143748427Y-86315915D01*
X143683566Y-86302969D01*
X143647174Y-86295155D01*
X143641184Y-86293422D01*
X143631061Y-86273890D01*
X143609662Y-86226843D01*
X143579839Y-86159003D01*
X143544445Y-86077091D01*
X143506332Y-85987828D01*
X143468353Y-85897935D01*
X143433360Y-85814135D01*
X143404206Y-85743147D01*
X143383743Y-85691694D01*
X143374823Y-85666497D01*
X143374657Y-85665396D01*
X143384769Y-85645519D01*
X143413117Y-85599777D01*
X143456723Y-85532717D01*
X143512606Y-85448884D01*
X143577787Y-85352826D01*
X143615679Y-85297650D01*
X143684725Y-85196481D01*
X143746050Y-85104630D01*
X143796663Y-85026744D01*
X143833571Y-84967469D01*
X143853782Y-84931451D01*
X143856701Y-84923377D01*
X143844153Y-84904584D01*
X143809463Y-84864457D01*
X143757063Y-84807493D01*
X143691384Y-84738185D01*
X143616856Y-84661031D01*
X143537913Y-84580525D01*
X143458983Y-84501163D01*
X143384500Y-84427440D01*
X143318894Y-84363852D01*
X143266596Y-84314894D01*
X143232039Y-84285061D01*
X143220478Y-84277942D01*
X143201654Y-84287953D01*
X143156631Y-84316078D01*
X143089787Y-84359454D01*
X143005499Y-84415218D01*
X142908144Y-84480506D01*
X142834707Y-84530246D01*
X142463667Y-84782551D01*
X141845095Y-84527555D01*
X141761275Y-84082931D01*
X141677454Y-83638307D01*
X140752006Y-83638307D01*
X140668186Y-84082931D01*
G36*
X117534079Y-82888490D02*
G01*
X117430973Y-82924238D01*
X117334978Y-82980507D01*
X117249247Y-83057288D01*
X117176930Y-83154573D01*
X117144445Y-83215892D01*
X117116332Y-83301660D01*
X117102705Y-83400677D01*
X117104214Y-83502471D01*
X117120969Y-83594714D01*
X117166763Y-83707432D01*
X117233168Y-83805207D01*
X117316809Y-83886115D01*
X117414312Y-83948232D01*
X117522300Y-83989634D01*
X117637399Y-84008397D01*
X117756234Y-84002598D01*
X117814811Y-83990206D01*
X117928972Y-83945797D01*
X118030365Y-83878033D01*
X118116545Y-83789001D01*
X118185066Y-83680791D01*
X118190864Y-83668973D01*
X118210904Y-83624628D01*
X118223487Y-83587280D01*
X118230319Y-83547880D01*
X118233105Y-83497381D01*
X118233568Y-83442433D01*
X118232803Y-83376415D01*
X118229352Y-83328689D01*
X118221477Y-83290103D01*
X118207443Y-83251506D01*
X118190120Y-83213426D01*
X118125505Y-83105328D01*
X118045934Y-83017803D01*
X117954560Y-82950841D01*
X117854536Y-82904436D01*
X117749012Y-82878581D01*
X117641142Y-82873268D01*
X117534079Y-82888490D01*
G37*
X117534079Y-82888490D02*
X117430973Y-82924238D01*
X117334978Y-82980507D01*
X117249247Y-83057288D01*
X117176930Y-83154573D01*
X117144445Y-83215892D01*
X117116332Y-83301660D01*
X117102705Y-83400677D01*
X117104214Y-83502471D01*
X117120969Y-83594714D01*
X117166763Y-83707432D01*
X117233168Y-83805207D01*
X117316809Y-83886115D01*
X117414312Y-83948232D01*
X117522300Y-83989634D01*
X117637399Y-84008397D01*
X117756234Y-84002598D01*
X117814811Y-83990206D01*
X117928972Y-83945797D01*
X118030365Y-83878033D01*
X118116545Y-83789001D01*
X118185066Y-83680791D01*
X118190864Y-83668973D01*
X118210904Y-83624628D01*
X118223487Y-83587280D01*
X118230319Y-83547880D01*
X118233105Y-83497381D01*
X118233568Y-83442433D01*
X118232803Y-83376415D01*
X118229352Y-83328689D01*
X118221477Y-83290103D01*
X118207443Y-83251506D01*
X118190120Y-83213426D01*
X118125505Y-83105328D01*
X118045934Y-83017803D01*
X117954560Y-82950841D01*
X117854536Y-82904436D01*
X117749012Y-82878581D01*
X117641142Y-82873268D01*
X117534079Y-82888490D01*
G36*
X107965730Y-83808825D02*
G01*
X107848959Y-83809304D01*
X107809271Y-83809545D01*
X107263514Y-83813135D01*
X107256649Y-85906919D01*
X107255742Y-86190842D01*
X107254938Y-86448640D01*
X107254185Y-86681646D01*
X107253431Y-86891194D01*
X107252625Y-87078618D01*
X107251715Y-87245250D01*
X107250649Y-87392425D01*
X107249376Y-87521477D01*
X107247844Y-87633739D01*
X107246002Y-87730544D01*
X107243797Y-87813226D01*
X107241178Y-87883119D01*
X107238094Y-87941557D01*
X107234492Y-87989872D01*
X107230322Y-88029400D01*
X107225531Y-88061473D01*
X107220069Y-88087424D01*
X107213882Y-88108589D01*
X107206920Y-88126299D01*
X107199131Y-88141889D01*
X107190463Y-88156693D01*
X107180865Y-88172044D01*
X107170285Y-88189276D01*
X107168116Y-88192946D01*
X107131732Y-88255031D01*
X107657569Y-88251434D01*
X108183406Y-88247838D01*
X108190271Y-88132331D01*
X108194008Y-88076899D01*
X108197903Y-88044851D01*
X108203189Y-88032135D01*
X108211097Y-88034696D01*
X108217730Y-88042024D01*
X108246626Y-88068714D01*
X108293721Y-88103021D01*
X108352380Y-88140846D01*
X108415969Y-88178090D01*
X108477851Y-88210653D01*
X108525366Y-88232077D01*
X108636684Y-88267283D01*
X108764404Y-88292222D01*
X108899099Y-88305941D01*
X109031337Y-88307486D01*
X109151692Y-88295906D01*
X109153674Y-88295574D01*
X109318359Y-88254250D01*
X109472521Y-88188412D01*
X109614672Y-88099474D01*
X109743325Y-87988852D01*
X109856993Y-87857961D01*
X109954190Y-87708216D01*
X110033428Y-87541033D01*
X110076570Y-87417190D01*
X110105021Y-87313581D01*
X110126120Y-87213252D01*
X110140512Y-87110109D01*
X110148842Y-86998057D01*
X110151755Y-86871001D01*
X110150465Y-86767252D01*
X109137350Y-86767252D01*
X109132556Y-86941222D01*
X109117432Y-87090895D01*
X109091515Y-87217597D01*
X109054337Y-87322658D01*
X109005435Y-87407406D01*
X108944342Y-87473169D01*
X108873823Y-87519659D01*
X108837129Y-87537014D01*
X108805304Y-87547419D01*
X108769823Y-87552179D01*
X108722159Y-87552601D01*
X108670811Y-87550748D01*
X108569831Y-87541841D01*
X108489965Y-87524398D01*
X108464865Y-87515661D01*
X108407552Y-87489857D01*
X108347103Y-87457453D01*
X108320703Y-87441233D01*
X108252054Y-87396205D01*
X108252054Y-85968982D01*
X108327568Y-85923718D01*
X108432879Y-85872572D01*
X108540475Y-85842324D01*
X108646419Y-85832795D01*
X108746776Y-85843807D01*
X108837613Y-85875181D01*
X108914993Y-85926740D01*
X108939961Y-85951488D01*
X109000144Y-86032577D01*
X109048855Y-86130734D01*
X109086501Y-86247643D01*
X109113488Y-86384985D01*
X109130225Y-86544444D01*
X109137117Y-86727700D01*
X109137350Y-86767252D01*
X110150465Y-86767252D01*
X110149927Y-86724067D01*
X110138353Y-86498053D01*
X110115080Y-86294192D01*
X110079496Y-86109513D01*
X110030987Y-85941048D01*
X109968940Y-85785826D01*
X109946799Y-85739808D01*
X109857615Y-85589739D01*
X109749841Y-85456377D01*
X109626010Y-85341877D01*
X109488658Y-85248389D01*
X109340317Y-85178068D01*
X109251396Y-85149060D01*
X109164067Y-85131840D01*
X109058989Y-85121594D01*
X108944971Y-85118318D01*
X108830823Y-85122009D01*
X108725352Y-85132660D01*
X108640666Y-85149370D01*
X108539872Y-85182140D01*
X108442178Y-85224279D01*
X108356704Y-85271519D01*
X108311211Y-85303581D01*
X108279831Y-85327422D01*
X108257858Y-85341939D01*
X108252859Y-85344000D01*
X108251310Y-85330718D01*
X108249865Y-85292663D01*
X108248557Y-85232519D01*
X108247417Y-85152973D01*
X108246479Y-85056711D01*
X108245774Y-84946419D01*
X108245333Y-84824781D01*
X108245189Y-84700885D01*
X108245270Y-84542196D01*
X108245665Y-84408408D01*
X108246605Y-84296960D01*
X108248320Y-84205295D01*
X108251043Y-84130853D01*
X108255003Y-84071075D01*
X108260431Y-84023402D01*
X108267559Y-83985274D01*
X108276616Y-83954134D01*
X108287833Y-83927421D01*
X108301442Y-83902577D01*
X108317672Y-83877043D01*
X108319760Y-83873881D01*
X108340694Y-83840810D01*
X108353333Y-83818069D01*
X108355027Y-83813272D01*
X108341784Y-83811759D01*
X108303998Y-83810528D01*
X108244584Y-83809599D01*
X108166458Y-83808992D01*
X108072535Y-83808727D01*
X107965730Y-83808825D01*
G37*
X107965730Y-83808825D02*
X107848959Y-83809304D01*
X107809271Y-83809545D01*
X107263514Y-83813135D01*
X107256649Y-85906919D01*
X107255742Y-86190842D01*
X107254938Y-86448640D01*
X107254185Y-86681646D01*
X107253431Y-86891194D01*
X107252625Y-87078618D01*
X107251715Y-87245250D01*
X107250649Y-87392425D01*
X107249376Y-87521477D01*
X107247844Y-87633739D01*
X107246002Y-87730544D01*
X107243797Y-87813226D01*
X107241178Y-87883119D01*
X107238094Y-87941557D01*
X107234492Y-87989872D01*
X107230322Y-88029400D01*
X107225531Y-88061473D01*
X107220069Y-88087424D01*
X107213882Y-88108589D01*
X107206920Y-88126299D01*
X107199131Y-88141889D01*
X107190463Y-88156693D01*
X107180865Y-88172044D01*
X107170285Y-88189276D01*
X107168116Y-88192946D01*
X107131732Y-88255031D01*
X107657569Y-88251434D01*
X108183406Y-88247838D01*
X108190271Y-88132331D01*
X108194008Y-88076899D01*
X108197903Y-88044851D01*
X108203189Y-88032135D01*
X108211097Y-88034696D01*
X108217730Y-88042024D01*
X108246626Y-88068714D01*
X108293721Y-88103021D01*
X108352380Y-88140846D01*
X108415969Y-88178090D01*
X108477851Y-88210653D01*
X108525366Y-88232077D01*
X108636684Y-88267283D01*
X108764404Y-88292222D01*
X108899099Y-88305941D01*
X109031337Y-88307486D01*
X109151692Y-88295906D01*
X109153674Y-88295574D01*
X109318359Y-88254250D01*
X109472521Y-88188412D01*
X109614672Y-88099474D01*
X109743325Y-87988852D01*
X109856993Y-87857961D01*
X109954190Y-87708216D01*
X110033428Y-87541033D01*
X110076570Y-87417190D01*
X110105021Y-87313581D01*
X110126120Y-87213252D01*
X110140512Y-87110109D01*
X110148842Y-86998057D01*
X110151755Y-86871001D01*
X110150465Y-86767252D01*
X109137350Y-86767252D01*
X109132556Y-86941222D01*
X109117432Y-87090895D01*
X109091515Y-87217597D01*
X109054337Y-87322658D01*
X109005435Y-87407406D01*
X108944342Y-87473169D01*
X108873823Y-87519659D01*
X108837129Y-87537014D01*
X108805304Y-87547419D01*
X108769823Y-87552179D01*
X108722159Y-87552601D01*
X108670811Y-87550748D01*
X108569831Y-87541841D01*
X108489965Y-87524398D01*
X108464865Y-87515661D01*
X108407552Y-87489857D01*
X108347103Y-87457453D01*
X108320703Y-87441233D01*
X108252054Y-87396205D01*
X108252054Y-85968982D01*
X108327568Y-85923718D01*
X108432879Y-85872572D01*
X108540475Y-85842324D01*
X108646419Y-85832795D01*
X108746776Y-85843807D01*
X108837613Y-85875181D01*
X108914993Y-85926740D01*
X108939961Y-85951488D01*
X109000144Y-86032577D01*
X109048855Y-86130734D01*
X109086501Y-86247643D01*
X109113488Y-86384985D01*
X109130225Y-86544444D01*
X109137117Y-86727700D01*
X109137350Y-86767252D01*
X110150465Y-86767252D01*
X110149927Y-86724067D01*
X110138353Y-86498053D01*
X110115080Y-86294192D01*
X110079496Y-86109513D01*
X110030987Y-85941048D01*
X109968940Y-85785826D01*
X109946799Y-85739808D01*
X109857615Y-85589739D01*
X109749841Y-85456377D01*
X109626010Y-85341877D01*
X109488658Y-85248389D01*
X109340317Y-85178068D01*
X109251396Y-85149060D01*
X109164067Y-85131840D01*
X109058989Y-85121594D01*
X108944971Y-85118318D01*
X108830823Y-85122009D01*
X108725352Y-85132660D01*
X108640666Y-85149370D01*
X108539872Y-85182140D01*
X108442178Y-85224279D01*
X108356704Y-85271519D01*
X108311211Y-85303581D01*
X108279831Y-85327422D01*
X108257858Y-85341939D01*
X108252859Y-85344000D01*
X108251310Y-85330718D01*
X108249865Y-85292663D01*
X108248557Y-85232519D01*
X108247417Y-85152973D01*
X108246479Y-85056711D01*
X108245774Y-84946419D01*
X108245333Y-84824781D01*
X108245189Y-84700885D01*
X108245270Y-84542196D01*
X108245665Y-84408408D01*
X108246605Y-84296960D01*
X108248320Y-84205295D01*
X108251043Y-84130853D01*
X108255003Y-84071075D01*
X108260431Y-84023402D01*
X108267559Y-83985274D01*
X108276616Y-83954134D01*
X108287833Y-83927421D01*
X108301442Y-83902577D01*
X108317672Y-83877043D01*
X108319760Y-83873881D01*
X108340694Y-83840810D01*
X108353333Y-83818069D01*
X108355027Y-83813272D01*
X108341784Y-83811759D01*
X108303998Y-83810528D01*
X108244584Y-83809599D01*
X108166458Y-83808992D01*
X108072535Y-83808727D01*
X107965730Y-83808825D01*
G36*
X111640495Y-85116229D02*
G01*
X111572469Y-85121378D01*
X111377837Y-85147273D01*
X111205471Y-85188575D01*
X111054530Y-85245853D01*
X110924175Y-85319674D01*
X110813566Y-85410608D01*
X110721865Y-85519222D01*
X110648230Y-85646085D01*
X110594461Y-85783352D01*
X110580813Y-85827137D01*
X110568927Y-85868141D01*
X110558666Y-85908569D01*
X110549887Y-85950630D01*
X110542452Y-85996531D01*
X110536220Y-86048480D01*
X110531050Y-86108685D01*
X110526804Y-86179352D01*
X110523340Y-86262689D01*
X110520519Y-86360905D01*
X110518200Y-86476205D01*
X110516243Y-86610799D01*
X110514509Y-86766893D01*
X110512857Y-86946695D01*
X110511676Y-87087676D01*
X110503730Y-88055622D01*
X110452244Y-88148770D01*
X110427863Y-88193645D01*
X110409720Y-88228501D01*
X110401065Y-88247054D01*
X110400757Y-88248311D01*
X110413986Y-88249749D01*
X110451674Y-88251074D01*
X110510817Y-88252249D01*
X110588414Y-88253237D01*
X110681464Y-88253999D01*
X110786965Y-88254500D01*
X110901916Y-88254701D01*
X110915622Y-88254703D01*
X111430487Y-88254703D01*
X111430487Y-88138000D01*
X111431365Y-88085260D01*
X111433708Y-88044926D01*
X111437079Y-88023300D01*
X111438569Y-88021298D01*
X111452196Y-88029683D01*
X111480243Y-88051692D01*
X111516697Y-88082601D01*
X111517515Y-88083316D01*
X111584038Y-88132843D01*
X111668052Y-88182575D01*
X111760063Y-88227626D01*
X111850579Y-88263110D01*
X111890433Y-88275236D01*
X111969745Y-88290637D01*
X112067065Y-88300465D01*
X112173484Y-88304580D01*
X112280093Y-88302841D01*
X112377983Y-88295108D01*
X112446487Y-88283981D01*
X112614480Y-88234648D01*
X112765719Y-88164342D01*
X112899218Y-88073933D01*
X113013994Y-87964295D01*
X113109063Y-87836299D01*
X113183440Y-87690818D01*
X113215526Y-87602541D01*
X113235635Y-87516739D01*
X113248962Y-87413736D01*
X113255128Y-87303034D01*
X113254926Y-87286925D01*
X112326352Y-87286925D01*
X112318652Y-87369184D01*
X112293011Y-87437546D01*
X112245622Y-87500970D01*
X112227421Y-87519567D01*
X112162718Y-87569846D01*
X112087934Y-87602056D01*
X111998338Y-87617648D01*
X111903988Y-87618796D01*
X111814499Y-87611216D01*
X111745982Y-87596389D01*
X111716225Y-87585253D01*
X111662592Y-87554904D01*
X111605765Y-87512221D01*
X111553918Y-87464317D01*
X111515222Y-87418301D01*
X111504946Y-87401421D01*
X111496958Y-87377782D01*
X111491279Y-87340168D01*
X111487644Y-87284985D01*
X111485789Y-87208640D01*
X111485406Y-87135981D01*
X111485665Y-87051270D01*
X111486713Y-86990018D01*
X111488955Y-86948227D01*
X111492794Y-86921899D01*
X111498635Y-86907035D01*
X111506882Y-86899639D01*
X111509433Y-86898461D01*
X111531600Y-86894833D01*
X111575320Y-86891866D01*
X111634689Y-86889827D01*
X111703804Y-86888983D01*
X111718811Y-86888982D01*
X111811195Y-86890457D01*
X111882568Y-86894842D01*
X111939281Y-86902738D01*
X111986128Y-86914270D01*
X112102331Y-86958215D01*
X112193457Y-87012243D01*
X112260295Y-87077219D01*
X112303635Y-87154005D01*
X112324266Y-87243467D01*
X112326352Y-87286925D01*
X113254926Y-87286925D01*
X113253756Y-87194133D01*
X113244468Y-87096536D01*
X113237223Y-87057105D01*
X113190961Y-86910701D01*
X113120616Y-86775995D01*
X113027516Y-86654280D01*
X112912988Y-86546847D01*
X112778360Y-86454988D01*
X112624960Y-86379996D01*
X112494541Y-86334458D01*
X112407377Y-86310533D01*
X112324004Y-86291943D01*
X112239024Y-86278084D01*
X112147035Y-86268351D01*
X112042638Y-86262141D01*
X111920432Y-86258851D01*
X111809945Y-86257924D01*
X111482323Y-86257027D01*
X111488599Y-86158547D01*
X111506421Y-86051695D01*
X111544333Y-85959852D01*
X111600720Y-85885310D01*
X111673969Y-85830364D01*
X111738465Y-85803552D01*
X111830877Y-85786654D01*
X111940889Y-85784227D01*
X112063344Y-85795378D01*
X112193086Y-85819210D01*
X112324958Y-85854830D01*
X112453802Y-85901343D01*
X112547434Y-85943883D01*
X112592483Y-85965728D01*
X112626844Y-85980984D01*
X112644319Y-85986937D01*
X112645267Y-85986746D01*
X112651297Y-85973412D01*
X112666355Y-85938068D01*
X112689023Y-85884101D01*
X112717885Y-85814896D01*
X112751523Y-85733840D01*
X112785716Y-85651118D01*
X112922414Y-85319803D01*
X112825180Y-85303833D01*
X112783036Y-85295820D01*
X112719681Y-85282361D01*
X112640543Y-85264679D01*
X112551049Y-85243996D01*
X112456627Y-85221532D01*
X112419027Y-85212403D01*
X112256363Y-85174674D01*
X112113950Y-85146388D01*
X111986473Y-85126972D01*
X111868616Y-85115854D01*
X111755062Y-85112464D01*
X111640495Y-85116229D01*
G37*
X111640495Y-85116229D02*
X111572469Y-85121378D01*
X111377837Y-85147273D01*
X111205471Y-85188575D01*
X111054530Y-85245853D01*
X110924175Y-85319674D01*
X110813566Y-85410608D01*
X110721865Y-85519222D01*
X110648230Y-85646085D01*
X110594461Y-85783352D01*
X110580813Y-85827137D01*
X110568927Y-85868141D01*
X110558666Y-85908569D01*
X110549887Y-85950630D01*
X110542452Y-85996531D01*
X110536220Y-86048480D01*
X110531050Y-86108685D01*
X110526804Y-86179352D01*
X110523340Y-86262689D01*
X110520519Y-86360905D01*
X110518200Y-86476205D01*
X110516243Y-86610799D01*
X110514509Y-86766893D01*
X110512857Y-86946695D01*
X110511676Y-87087676D01*
X110503730Y-88055622D01*
X110452244Y-88148770D01*
X110427863Y-88193645D01*
X110409720Y-88228501D01*
X110401065Y-88247054D01*
X110400757Y-88248311D01*
X110413986Y-88249749D01*
X110451674Y-88251074D01*
X110510817Y-88252249D01*
X110588414Y-88253237D01*
X110681464Y-88253999D01*
X110786965Y-88254500D01*
X110901916Y-88254701D01*
X110915622Y-88254703D01*
X111430487Y-88254703D01*
X111430487Y-88138000D01*
X111431365Y-88085260D01*
X111433708Y-88044926D01*
X111437079Y-88023300D01*
X111438569Y-88021298D01*
X111452196Y-88029683D01*
X111480243Y-88051692D01*
X111516697Y-88082601D01*
X111517515Y-88083316D01*
X111584038Y-88132843D01*
X111668052Y-88182575D01*
X111760063Y-88227626D01*
X111850579Y-88263110D01*
X111890433Y-88275236D01*
X111969745Y-88290637D01*
X112067065Y-88300465D01*
X112173484Y-88304580D01*
X112280093Y-88302841D01*
X112377983Y-88295108D01*
X112446487Y-88283981D01*
X112614480Y-88234648D01*
X112765719Y-88164342D01*
X112899218Y-88073933D01*
X113013994Y-87964295D01*
X113109063Y-87836299D01*
X113183440Y-87690818D01*
X113215526Y-87602541D01*
X113235635Y-87516739D01*
X113248962Y-87413736D01*
X113255128Y-87303034D01*
X113254926Y-87286925D01*
X112326352Y-87286925D01*
X112318652Y-87369184D01*
X112293011Y-87437546D01*
X112245622Y-87500970D01*
X112227421Y-87519567D01*
X112162718Y-87569846D01*
X112087934Y-87602056D01*
X111998338Y-87617648D01*
X111903988Y-87618796D01*
X111814499Y-87611216D01*
X111745982Y-87596389D01*
X111716225Y-87585253D01*
X111662592Y-87554904D01*
X111605765Y-87512221D01*
X111553918Y-87464317D01*
X111515222Y-87418301D01*
X111504946Y-87401421D01*
X111496958Y-87377782D01*
X111491279Y-87340168D01*
X111487644Y-87284985D01*
X111485789Y-87208640D01*
X111485406Y-87135981D01*
X111485665Y-87051270D01*
X111486713Y-86990018D01*
X111488955Y-86948227D01*
X111492794Y-86921899D01*
X111498635Y-86907035D01*
X111506882Y-86899639D01*
X111509433Y-86898461D01*
X111531600Y-86894833D01*
X111575320Y-86891866D01*
X111634689Y-86889827D01*
X111703804Y-86888983D01*
X111718811Y-86888982D01*
X111811195Y-86890457D01*
X111882568Y-86894842D01*
X111939281Y-86902738D01*
X111986128Y-86914270D01*
X112102331Y-86958215D01*
X112193457Y-87012243D01*
X112260295Y-87077219D01*
X112303635Y-87154005D01*
X112324266Y-87243467D01*
X112326352Y-87286925D01*
X113254926Y-87286925D01*
X113253756Y-87194133D01*
X113244468Y-87096536D01*
X113237223Y-87057105D01*
X113190961Y-86910701D01*
X113120616Y-86775995D01*
X113027516Y-86654280D01*
X112912988Y-86546847D01*
X112778360Y-86454988D01*
X112624960Y-86379996D01*
X112494541Y-86334458D01*
X112407377Y-86310533D01*
X112324004Y-86291943D01*
X112239024Y-86278084D01*
X112147035Y-86268351D01*
X112042638Y-86262141D01*
X111920432Y-86258851D01*
X111809945Y-86257924D01*
X111482323Y-86257027D01*
X111488599Y-86158547D01*
X111506421Y-86051695D01*
X111544333Y-85959852D01*
X111600720Y-85885310D01*
X111673969Y-85830364D01*
X111738465Y-85803552D01*
X111830877Y-85786654D01*
X111940889Y-85784227D01*
X112063344Y-85795378D01*
X112193086Y-85819210D01*
X112324958Y-85854830D01*
X112453802Y-85901343D01*
X112547434Y-85943883D01*
X112592483Y-85965728D01*
X112626844Y-85980984D01*
X112644319Y-85986937D01*
X112645267Y-85986746D01*
X112651297Y-85973412D01*
X112666355Y-85938068D01*
X112689023Y-85884101D01*
X112717885Y-85814896D01*
X112751523Y-85733840D01*
X112785716Y-85651118D01*
X112922414Y-85319803D01*
X112825180Y-85303833D01*
X112783036Y-85295820D01*
X112719681Y-85282361D01*
X112640543Y-85264679D01*
X112551049Y-85243996D01*
X112456627Y-85221532D01*
X112419027Y-85212403D01*
X112256363Y-85174674D01*
X112113950Y-85146388D01*
X111986473Y-85126972D01*
X111868616Y-85115854D01*
X111755062Y-85112464D01*
X111640495Y-85116229D01*
G36*
X114368038Y-84012499D02*
G01*
X114219986Y-84028707D01*
X114076548Y-84057718D01*
X113931890Y-84101045D01*
X113780176Y-84160201D01*
X113615572Y-84236700D01*
X113585929Y-84251517D01*
X113517902Y-84285031D01*
X113453744Y-84315208D01*
X113399785Y-84339166D01*
X113362360Y-84354024D01*
X113356611Y-84355895D01*
X113301514Y-84372402D01*
X113548149Y-84731201D01*
X113608448Y-84818893D01*
X113663578Y-84899012D01*
X113711664Y-84968836D01*
X113750832Y-85025647D01*
X113779206Y-85066723D01*
X113794913Y-85089346D01*
X113797464Y-85092928D01*
X113807829Y-85085438D01*
X113833340Y-85062918D01*
X113869437Y-85029461D01*
X113889358Y-85010550D01*
X114002227Y-84920778D01*
X114128986Y-84852561D01*
X114238217Y-84815195D01*
X114303786Y-84803460D01*
X114385884Y-84796308D01*
X114474856Y-84793874D01*
X114561044Y-84796288D01*
X114634795Y-84803683D01*
X114664224Y-84809347D01*
X114796867Y-84854982D01*
X114916394Y-84924663D01*
X115022717Y-85018260D01*
X115115747Y-85135649D01*
X115195395Y-85276700D01*
X115261574Y-85441286D01*
X115314194Y-85629280D01*
X115345467Y-85790217D01*
X115353626Y-85861263D01*
X115359185Y-85953046D01*
X115362198Y-86058968D01*
X115362719Y-86172434D01*
X115360800Y-86286849D01*
X115356497Y-86395617D01*
X115349863Y-86492143D01*
X115340951Y-86569831D01*
X115339021Y-86581817D01*
X115296501Y-86774892D01*
X115238567Y-86945773D01*
X115164867Y-87095224D01*
X115075049Y-87224011D01*
X115011293Y-87293639D01*
X114896714Y-87388173D01*
X114771058Y-87458246D01*
X114636443Y-87503477D01*
X114494989Y-87523484D01*
X114348817Y-87517885D01*
X114200045Y-87486300D01*
X114112089Y-87455394D01*
X113990371Y-87393506D01*
X113864920Y-87304729D01*
X113794647Y-87244694D01*
X113755189Y-87209947D01*
X113724188Y-87184454D01*
X113706542Y-87172170D01*
X113704352Y-87171795D01*
X113696476Y-87184347D01*
X113676068Y-87217516D01*
X113644868Y-87268458D01*
X113604614Y-87334331D01*
X113557043Y-87412289D01*
X113503896Y-87499490D01*
X113474313Y-87548067D01*
X113248352Y-87919215D01*
X113530473Y-88058639D01*
X113632478Y-88108719D01*
X113715111Y-88148210D01*
X113783422Y-88179073D01*
X113842463Y-88203268D01*
X113897286Y-88222758D01*
X113952940Y-88239503D01*
X114014477Y-88255465D01*
X114073460Y-88269482D01*
X114125885Y-88280329D01*
X114180712Y-88288526D01*
X114243428Y-88294528D01*
X114319523Y-88298790D01*
X114414484Y-88301767D01*
X114478487Y-88303052D01*
X114569808Y-88303930D01*
X114657373Y-88303487D01*
X114735388Y-88301852D01*
X114798058Y-88299149D01*
X114839587Y-88295505D01*
X114842048Y-88295142D01*
X115057697Y-88248487D01*
X115260207Y-88177729D01*
X115449505Y-88082914D01*
X115625521Y-87964089D01*
X115788184Y-87821300D01*
X115937422Y-87654594D01*
X116045504Y-87506433D01*
X116160566Y-87312502D01*
X116253577Y-87107699D01*
X116324987Y-86890383D01*
X116375244Y-86658912D01*
X116404799Y-86411643D01*
X116414111Y-86160559D01*
X116406452Y-85917670D01*
X116382387Y-85693570D01*
X116341148Y-85484477D01*
X116281973Y-85286613D01*
X116204096Y-85096196D01*
X116194797Y-85076468D01*
X116092352Y-84892059D01*
X115966528Y-84716576D01*
X115820888Y-84553650D01*
X115658999Y-84406914D01*
X115484424Y-84280001D01*
X115321756Y-84186905D01*
X115157427Y-84113991D01*
X114992749Y-84061174D01*
X114821348Y-84027015D01*
X114636847Y-84010078D01*
X114526541Y-84007580D01*
X114368038Y-84012499D01*
G37*
X114368038Y-84012499D02*
X114219986Y-84028707D01*
X114076548Y-84057718D01*
X113931890Y-84101045D01*
X113780176Y-84160201D01*
X113615572Y-84236700D01*
X113585929Y-84251517D01*
X113517902Y-84285031D01*
X113453744Y-84315208D01*
X113399785Y-84339166D01*
X113362360Y-84354024D01*
X113356611Y-84355895D01*
X113301514Y-84372402D01*
X113548149Y-84731201D01*
X113608448Y-84818893D01*
X113663578Y-84899012D01*
X113711664Y-84968836D01*
X113750832Y-85025647D01*
X113779206Y-85066723D01*
X113794913Y-85089346D01*
X113797464Y-85092928D01*
X113807829Y-85085438D01*
X113833340Y-85062918D01*
X113869437Y-85029461D01*
X113889358Y-85010550D01*
X114002227Y-84920778D01*
X114128986Y-84852561D01*
X114238217Y-84815195D01*
X114303786Y-84803460D01*
X114385884Y-84796308D01*
X114474856Y-84793874D01*
X114561044Y-84796288D01*
X114634795Y-84803683D01*
X114664224Y-84809347D01*
X114796867Y-84854982D01*
X114916394Y-84924663D01*
X115022717Y-85018260D01*
X115115747Y-85135649D01*
X115195395Y-85276700D01*
X115261574Y-85441286D01*
X115314194Y-85629280D01*
X115345467Y-85790217D01*
X115353626Y-85861263D01*
X115359185Y-85953046D01*
X115362198Y-86058968D01*
X115362719Y-86172434D01*
X115360800Y-86286849D01*
X115356497Y-86395617D01*
X115349863Y-86492143D01*
X115340951Y-86569831D01*
X115339021Y-86581817D01*
X115296501Y-86774892D01*
X115238567Y-86945773D01*
X115164867Y-87095224D01*
X115075049Y-87224011D01*
X115011293Y-87293639D01*
X114896714Y-87388173D01*
X114771058Y-87458246D01*
X114636443Y-87503477D01*
X114494989Y-87523484D01*
X114348817Y-87517885D01*
X114200045Y-87486300D01*
X114112089Y-87455394D01*
X113990371Y-87393506D01*
X113864920Y-87304729D01*
X113794647Y-87244694D01*
X113755189Y-87209947D01*
X113724188Y-87184454D01*
X113706542Y-87172170D01*
X113704352Y-87171795D01*
X113696476Y-87184347D01*
X113676068Y-87217516D01*
X113644868Y-87268458D01*
X113604614Y-87334331D01*
X113557043Y-87412289D01*
X113503896Y-87499490D01*
X113474313Y-87548067D01*
X113248352Y-87919215D01*
X113530473Y-88058639D01*
X113632478Y-88108719D01*
X113715111Y-88148210D01*
X113783422Y-88179073D01*
X113842463Y-88203268D01*
X113897286Y-88222758D01*
X113952940Y-88239503D01*
X114014477Y-88255465D01*
X114073460Y-88269482D01*
X114125885Y-88280329D01*
X114180712Y-88288526D01*
X114243428Y-88294528D01*
X114319523Y-88298790D01*
X114414484Y-88301767D01*
X114478487Y-88303052D01*
X114569808Y-88303930D01*
X114657373Y-88303487D01*
X114735388Y-88301852D01*
X114798058Y-88299149D01*
X114839587Y-88295505D01*
X114842048Y-88295142D01*
X115057697Y-88248487D01*
X115260207Y-88177729D01*
X115449505Y-88082914D01*
X115625521Y-87964089D01*
X115788184Y-87821300D01*
X115937422Y-87654594D01*
X116045504Y-87506433D01*
X116160566Y-87312502D01*
X116253577Y-87107699D01*
X116324987Y-86890383D01*
X116375244Y-86658912D01*
X116404799Y-86411643D01*
X116414111Y-86160559D01*
X116406452Y-85917670D01*
X116382387Y-85693570D01*
X116341148Y-85484477D01*
X116281973Y-85286613D01*
X116204096Y-85096196D01*
X116194797Y-85076468D01*
X116092352Y-84892059D01*
X115966528Y-84716576D01*
X115820888Y-84553650D01*
X115658999Y-84406914D01*
X115484424Y-84280001D01*
X115321756Y-84186905D01*
X115157427Y-84113991D01*
X114992749Y-84061174D01*
X114821348Y-84027015D01*
X114636847Y-84010078D01*
X114526541Y-84007580D01*
X114368038Y-84012499D01*
G36*
X120763743Y-83325689D02*
G01*
X120499220Y-83325725D01*
X120376088Y-83325730D01*
X118405189Y-83325730D01*
X118405189Y-83441910D01*
X118392789Y-83583291D01*
X118355364Y-83713684D01*
X118292577Y-83833862D01*
X118204094Y-83944602D01*
X118174157Y-83974511D01*
X118066466Y-84059348D01*
X117947725Y-84121221D01*
X117821460Y-84160159D01*
X117691197Y-84176190D01*
X117560465Y-84169342D01*
X117432788Y-84139643D01*
X117311695Y-84087120D01*
X117200712Y-84011803D01*
X117150868Y-83966363D01*
X117057983Y-83854952D01*
X116989873Y-83732435D01*
X116947129Y-83600215D01*
X116930347Y-83459692D01*
X116930124Y-83445867D01*
X116929244Y-83325734D01*
X116876443Y-83325732D01*
X116829604Y-83332089D01*
X116786817Y-83347556D01*
X116783989Y-83349154D01*
X116774325Y-83354168D01*
X116765451Y-83358073D01*
X116757335Y-83362007D01*
X116749943Y-83367106D01*
X116743245Y-83374508D01*
X116737208Y-83385351D01*
X116731801Y-83400772D01*
X116726990Y-83421909D01*
X116722745Y-83449899D01*
X116719032Y-83485879D01*
X116715821Y-83530987D01*
X116713078Y-83586360D01*
X116710772Y-83653137D01*
X116708871Y-83732453D01*
X116707342Y-83825447D01*
X116706154Y-83933257D01*
X116705274Y-84057019D01*
X116704670Y-84197871D01*
X116704311Y-84356950D01*
X116704165Y-84535395D01*
X116704198Y-84734342D01*
X116704380Y-84954929D01*
X116704677Y-85198293D01*
X116705059Y-85465572D01*
X116705492Y-85757903D01*
X116705945Y-86076424D01*
X116705998Y-86115230D01*
X116706404Y-86435782D01*
X116706749Y-86730012D01*
X116707069Y-86999056D01*
X116707400Y-87244052D01*
X116707779Y-87466137D01*
X116708243Y-87666447D01*
X116708828Y-87846119D01*
X116709570Y-88006290D01*
X116710506Y-88148098D01*
X116711673Y-88272679D01*
X116713107Y-88381170D01*
X116714844Y-88474707D01*
X116716922Y-88554429D01*
X116719376Y-88621472D01*
X116722244Y-88676973D01*
X116725561Y-88722068D01*
X116729364Y-88757895D01*
X116733690Y-88785591D01*
X116738575Y-88806293D01*
X116744055Y-88821137D01*
X116750168Y-88831260D01*
X116756950Y-88837800D01*
X116764437Y-88841893D01*
X116772666Y-88844676D01*
X116781673Y-88847287D01*
X116791495Y-88850862D01*
X116793894Y-88851950D01*
X116801435Y-88854396D01*
X116814056Y-88856642D01*
X116832859Y-88858698D01*
X116858947Y-88860572D01*
X116893422Y-88862271D01*
X116937385Y-88863803D01*
X116991939Y-88865177D01*
X117058185Y-88866400D01*
X117137226Y-88867481D01*
X117230163Y-88868427D01*
X117338099Y-88869247D01*
X117462136Y-88869947D01*
X117603376Y-88870538D01*
X117762921Y-88871025D01*
X117941872Y-88871419D01*
X118141332Y-88871725D01*
X118362404Y-88871953D01*
X118606188Y-88872110D01*
X118873787Y-88872205D01*
X119166303Y-88872245D01*
X119484839Y-88872238D01*
X119588021Y-88872228D01*
X119913623Y-88872176D01*
X120212881Y-88872091D01*
X120486909Y-88871963D01*
X120736824Y-88871785D01*
X120963740Y-88871548D01*
X121168773Y-88871242D01*
X121353038Y-88870860D01*
X121517650Y-88870392D01*
X121663725Y-88869830D01*
X121792376Y-88869165D01*
X121904721Y-88868388D01*
X122001874Y-88867491D01*
X122084950Y-88866465D01*
X122155064Y-88865301D01*
X122213332Y-88863991D01*
X122260869Y-88862525D01*
X122298790Y-88860896D01*
X122328210Y-88859093D01*
X122350245Y-88857110D01*
X122366010Y-88854936D01*
X122376620Y-88852563D01*
X122382404Y-88850391D01*
X122392684Y-88846056D01*
X122402122Y-88842859D01*
X122410755Y-88839665D01*
X122418619Y-88835338D01*
X122425748Y-88828744D01*
X122432179Y-88818747D01*
X122437947Y-88804212D01*
X122443089Y-88784003D01*
X122447640Y-88756985D01*
X122451635Y-88722023D01*
X122455111Y-88677981D01*
X122458102Y-88623724D01*
X122460646Y-88558117D01*
X122462777Y-88480024D01*
X122464532Y-88388310D01*
X122465945Y-88281840D01*
X122466315Y-88240973D01*
X122099884Y-88240973D01*
X120804734Y-88240973D01*
X120829655Y-88203217D01*
X120854447Y-88164417D01*
X120875440Y-88127469D01*
X120892935Y-88089788D01*
X120907230Y-88048788D01*
X120918623Y-88001883D01*
X120927413Y-87946487D01*
X120933898Y-87880016D01*
X120938377Y-87799883D01*
X120941150Y-87703502D01*
X120942513Y-87588289D01*
X120942767Y-87451657D01*
X120942209Y-87291020D01*
X120941893Y-87231382D01*
X120938325Y-86592041D01*
X120533298Y-87143449D01*
X120418554Y-87299876D01*
X120319143Y-87436088D01*
X120233990Y-87553890D01*
X120162022Y-87655084D01*
X120102166Y-87741477D01*
X120053348Y-87814874D01*
X120014495Y-87877077D01*
X119984534Y-87929893D01*
X119962391Y-87975125D01*
X119946993Y-88014578D01*
X119937266Y-88050058D01*
X119932137Y-88083368D01*
X119930532Y-88116313D01*
X119931379Y-88150697D01*
X119931595Y-88155019D01*
X119936054Y-88241031D01*
X118516692Y-88240973D01*
X118622265Y-88134522D01*
X118650913Y-88105406D01*
X118678090Y-88077076D01*
X118704989Y-88047968D01*
X118732803Y-88016520D01*
X118762725Y-87981169D01*
X118795946Y-87940354D01*
X118833661Y-87892511D01*
X118877060Y-87836079D01*
X118927338Y-87769494D01*
X118985688Y-87691195D01*
X119053300Y-87599619D01*
X119131369Y-87493204D01*
X119221088Y-87370387D01*
X119323648Y-87229605D01*
X119440242Y-87069297D01*
X119535809Y-86937798D01*
X119655749Y-86772596D01*
X119760380Y-86628152D01*
X119850648Y-86503094D01*
X119927503Y-86396052D01*
X119991891Y-86305654D01*
X120044761Y-86230529D01*
X120087060Y-86169304D01*
X120119736Y-86120610D01*
X120143738Y-86083074D01*
X120160013Y-86055325D01*
X120169508Y-86035992D01*
X120173173Y-86023703D01*
X120172071Y-86017242D01*
X120158724Y-86000048D01*
X120129866Y-85963655D01*
X120087240Y-85910224D01*
X120032585Y-85841919D01*
X119967644Y-85760903D01*
X119894158Y-85669340D01*
X119813868Y-85569392D01*
X119728515Y-85463224D01*
X119639840Y-85352997D01*
X119549586Y-85240876D01*
X119499944Y-85179244D01*
X118267373Y-85179244D01*
X118216146Y-85271919D01*
X118164919Y-85364595D01*
X118164919Y-88055622D01*
X118216146Y-88148298D01*
X118267373Y-88240973D01*
X117661396Y-88240973D01*
X117516734Y-88240931D01*
X117397244Y-88240741D01*
X117300642Y-88240308D01*
X117224642Y-88239536D01*
X117166957Y-88238330D01*
X117125301Y-88236594D01*
X117097389Y-88234232D01*
X117080935Y-88231150D01*
X117073652Y-88227251D01*
X117073255Y-88222440D01*
X117077458Y-88216622D01*
X117077501Y-88216574D01*
X117094813Y-88191532D01*
X117117736Y-88150815D01*
X117137981Y-88110168D01*
X117176379Y-88028162D01*
X117184211Y-85179244D01*
X118267373Y-85179244D01*
X119499944Y-85179244D01*
X119459493Y-85129024D01*
X119371302Y-85019604D01*
X119286754Y-84914778D01*
X119207592Y-84816711D01*
X119135556Y-84727566D01*
X119072387Y-84649505D01*
X119019827Y-84584692D01*
X118979617Y-84535290D01*
X118956000Y-84506487D01*
X118864290Y-84398778D01*
X118776060Y-84301580D01*
X118694403Y-84218076D01*
X118622410Y-84151448D01*
X118571319Y-84110599D01*
X118510907Y-84067135D01*
X119900298Y-84067135D01*
X119899908Y-84148666D01*
X119903791Y-84208606D01*
X119918390Y-84264177D01*
X119940988Y-84316855D01*
X119955678Y-84346615D01*
X119971472Y-84376103D01*
X119989814Y-84407276D01*
X120012145Y-84442093D01*
X120039909Y-84482510D01*
X120074549Y-84530486D01*
X120117507Y-84587978D01*
X120170227Y-84656943D01*
X120234151Y-84739339D01*
X120310721Y-84837124D01*
X120401381Y-84952255D01*
X120507574Y-85086690D01*
X120519568Y-85101859D01*
X120938325Y-85631412D01*
X120942378Y-85044922D01*
X120943195Y-84869251D01*
X120943021Y-84720532D01*
X120941849Y-84598275D01*
X120939669Y-84501989D01*
X120936474Y-84431183D01*
X120932256Y-84385369D01*
X120930838Y-84376679D01*
X120908591Y-84285135D01*
X120879443Y-84202608D01*
X120846182Y-84136253D01*
X120826200Y-84108110D01*
X120791722Y-84067135D01*
X121445914Y-84067135D01*
X121601969Y-84067269D01*
X121732467Y-84067703D01*
X121839310Y-84068489D01*
X121924398Y-84069676D01*
X121989635Y-84071317D01*
X122036921Y-84073461D01*
X122068157Y-84076159D01*
X122085246Y-84079462D01*
X122090088Y-84083421D01*
X122089753Y-84084298D01*
X122075885Y-84105231D01*
X122052732Y-84138412D01*
X122040754Y-84155193D01*
X122028369Y-84171940D01*
X122017237Y-84186915D01*
X122007288Y-84201594D01*
X121998451Y-84217449D01*
X121990657Y-84235955D01*
X121983835Y-84258585D01*
X121977916Y-84286813D01*
X121972829Y-84322113D01*
X121968504Y-84365958D01*
X121964871Y-84419822D01*
X121961860Y-84485180D01*
X121959401Y-84563504D01*
X121957423Y-84656268D01*
X121955858Y-84764947D01*
X121954634Y-84891013D01*
X121953681Y-85035942D01*
X121952930Y-85201206D01*
X121952311Y-85388279D01*
X121951752Y-85598635D01*
X121951185Y-85833748D01*
X121950655Y-86049741D01*
X121950155Y-86290535D01*
X121949895Y-86520274D01*
X121949868Y-86737493D01*
X121950067Y-86940722D01*
X121950486Y-87128496D01*
X121951118Y-87299345D01*
X121951956Y-87451803D01*
X121952992Y-87584403D01*
X121954220Y-87695676D01*
X121955633Y-87784156D01*
X121957225Y-87848375D01*
X121958987Y-87886865D01*
X121959321Y-87890933D01*
X121971466Y-87984248D01*
X121990427Y-88059190D01*
X122019302Y-88124594D01*
X122061190Y-88189293D01*
X122066429Y-88196352D01*
X122099884Y-88240973D01*
X122466315Y-88240973D01*
X122467054Y-88159479D01*
X122467893Y-88020090D01*
X122468498Y-87862539D01*
X122468905Y-87685691D01*
X122469150Y-87488410D01*
X122469267Y-87269560D01*
X122469295Y-87028007D01*
X122469267Y-86762615D01*
X122469220Y-86472249D01*
X122469190Y-86155773D01*
X122469189Y-86092946D01*
X122469172Y-85773137D01*
X122469112Y-85479661D01*
X122469002Y-85211390D01*
X122468833Y-84967198D01*
X122468597Y-84745957D01*
X122468284Y-84546540D01*
X122467885Y-84367820D01*
X122467393Y-84208671D01*
X122466797Y-84067966D01*
X122466090Y-83944576D01*
X122465263Y-83837376D01*
X122464307Y-83745238D01*
X122463213Y-83667035D01*
X122461973Y-83601641D01*
X122460578Y-83547928D01*
X122459018Y-83504769D01*
X122457286Y-83471037D01*
X122455372Y-83445605D01*
X122453268Y-83427347D01*
X122450966Y-83415134D01*
X122448455Y-83407841D01*
X122448363Y-83407659D01*
X122443192Y-83396518D01*
X122438885Y-83386431D01*
X122434121Y-83377346D01*
X122427578Y-83369212D01*
X122417935Y-83361976D01*
X122403871Y-83355586D01*
X122384063Y-83349989D01*
X122357191Y-83345133D01*
X122321933Y-83340966D01*
X122276968Y-83337436D01*
X122220974Y-83334491D01*
X122152629Y-83332077D01*
X122070614Y-83330144D01*
X121973605Y-83328638D01*
X121860282Y-83327508D01*
X121729323Y-83326702D01*
X121579407Y-83326166D01*
X121409213Y-83325849D01*
X121217418Y-83325699D01*
X121002702Y-83325663D01*
X120763743Y-83325689D01*
G37*
X120763743Y-83325689D02*
X120499220Y-83325725D01*
X120376088Y-83325730D01*
X118405189Y-83325730D01*
X118405189Y-83441910D01*
X118392789Y-83583291D01*
X118355364Y-83713684D01*
X118292577Y-83833862D01*
X118204094Y-83944602D01*
X118174157Y-83974511D01*
X118066466Y-84059348D01*
X117947725Y-84121221D01*
X117821460Y-84160159D01*
X117691197Y-84176190D01*
X117560465Y-84169342D01*
X117432788Y-84139643D01*
X117311695Y-84087120D01*
X117200712Y-84011803D01*
X117150868Y-83966363D01*
X117057983Y-83854952D01*
X116989873Y-83732435D01*
X116947129Y-83600215D01*
X116930347Y-83459692D01*
X116930124Y-83445867D01*
X116929244Y-83325734D01*
X116876443Y-83325732D01*
X116829604Y-83332089D01*
X116786817Y-83347556D01*
X116783989Y-83349154D01*
X116774325Y-83354168D01*
X116765451Y-83358073D01*
X116757335Y-83362007D01*
X116749943Y-83367106D01*
X116743245Y-83374508D01*
X116737208Y-83385351D01*
X116731801Y-83400772D01*
X116726990Y-83421909D01*
X116722745Y-83449899D01*
X116719032Y-83485879D01*
X116715821Y-83530987D01*
X116713078Y-83586360D01*
X116710772Y-83653137D01*
X116708871Y-83732453D01*
X116707342Y-83825447D01*
X116706154Y-83933257D01*
X116705274Y-84057019D01*
X116704670Y-84197871D01*
X116704311Y-84356950D01*
X116704165Y-84535395D01*
X116704198Y-84734342D01*
X116704380Y-84954929D01*
X116704677Y-85198293D01*
X116705059Y-85465572D01*
X116705492Y-85757903D01*
X116705945Y-86076424D01*
X116705998Y-86115230D01*
X116706404Y-86435782D01*
X116706749Y-86730012D01*
X116707069Y-86999056D01*
X116707400Y-87244052D01*
X116707779Y-87466137D01*
X116708243Y-87666447D01*
X116708828Y-87846119D01*
X116709570Y-88006290D01*
X116710506Y-88148098D01*
X116711673Y-88272679D01*
X116713107Y-88381170D01*
X116714844Y-88474707D01*
X116716922Y-88554429D01*
X116719376Y-88621472D01*
X116722244Y-88676973D01*
X116725561Y-88722068D01*
X116729364Y-88757895D01*
X116733690Y-88785591D01*
X116738575Y-88806293D01*
X116744055Y-88821137D01*
X116750168Y-88831260D01*
X116756950Y-88837800D01*
X116764437Y-88841893D01*
X116772666Y-88844676D01*
X116781673Y-88847287D01*
X116791495Y-88850862D01*
X116793894Y-88851950D01*
X116801435Y-88854396D01*
X116814056Y-88856642D01*
X116832859Y-88858698D01*
X116858947Y-88860572D01*
X116893422Y-88862271D01*
X116937385Y-88863803D01*
X116991939Y-88865177D01*
X117058185Y-88866400D01*
X117137226Y-88867481D01*
X117230163Y-88868427D01*
X117338099Y-88869247D01*
X117462136Y-88869947D01*
X117603376Y-88870538D01*
X117762921Y-88871025D01*
X117941872Y-88871419D01*
X118141332Y-88871725D01*
X118362404Y-88871953D01*
X118606188Y-88872110D01*
X118873787Y-88872205D01*
X119166303Y-88872245D01*
X119484839Y-88872238D01*
X119588021Y-88872228D01*
X119913623Y-88872176D01*
X120212881Y-88872091D01*
X120486909Y-88871963D01*
X120736824Y-88871785D01*
X120963740Y-88871548D01*
X121168773Y-88871242D01*
X121353038Y-88870860D01*
X121517650Y-88870392D01*
X121663725Y-88869830D01*
X121792376Y-88869165D01*
X121904721Y-88868388D01*
X122001874Y-88867491D01*
X122084950Y-88866465D01*
X122155064Y-88865301D01*
X122213332Y-88863991D01*
X122260869Y-88862525D01*
X122298790Y-88860896D01*
X122328210Y-88859093D01*
X122350245Y-88857110D01*
X122366010Y-88854936D01*
X122376620Y-88852563D01*
X122382404Y-88850391D01*
X122392684Y-88846056D01*
X122402122Y-88842859D01*
X122410755Y-88839665D01*
X122418619Y-88835338D01*
X122425748Y-88828744D01*
X122432179Y-88818747D01*
X122437947Y-88804212D01*
X122443089Y-88784003D01*
X122447640Y-88756985D01*
X122451635Y-88722023D01*
X122455111Y-88677981D01*
X122458102Y-88623724D01*
X122460646Y-88558117D01*
X122462777Y-88480024D01*
X122464532Y-88388310D01*
X122465945Y-88281840D01*
X122466315Y-88240973D01*
X122099884Y-88240973D01*
X120804734Y-88240973D01*
X120829655Y-88203217D01*
X120854447Y-88164417D01*
X120875440Y-88127469D01*
X120892935Y-88089788D01*
X120907230Y-88048788D01*
X120918623Y-88001883D01*
X120927413Y-87946487D01*
X120933898Y-87880016D01*
X120938377Y-87799883D01*
X120941150Y-87703502D01*
X120942513Y-87588289D01*
X120942767Y-87451657D01*
X120942209Y-87291020D01*
X120941893Y-87231382D01*
X120938325Y-86592041D01*
X120533298Y-87143449D01*
X120418554Y-87299876D01*
X120319143Y-87436088D01*
X120233990Y-87553890D01*
X120162022Y-87655084D01*
X120102166Y-87741477D01*
X120053348Y-87814874D01*
X120014495Y-87877077D01*
X119984534Y-87929893D01*
X119962391Y-87975125D01*
X119946993Y-88014578D01*
X119937266Y-88050058D01*
X119932137Y-88083368D01*
X119930532Y-88116313D01*
X119931379Y-88150697D01*
X119931595Y-88155019D01*
X119936054Y-88241031D01*
X118516692Y-88240973D01*
X118622265Y-88134522D01*
X118650913Y-88105406D01*
X118678090Y-88077076D01*
X118704989Y-88047968D01*
X118732803Y-88016520D01*
X118762725Y-87981169D01*
X118795946Y-87940354D01*
X118833661Y-87892511D01*
X118877060Y-87836079D01*
X118927338Y-87769494D01*
X118985688Y-87691195D01*
X119053300Y-87599619D01*
X119131369Y-87493204D01*
X119221088Y-87370387D01*
X119323648Y-87229605D01*
X119440242Y-87069297D01*
X119535809Y-86937798D01*
X119655749Y-86772596D01*
X119760380Y-86628152D01*
X119850648Y-86503094D01*
X119927503Y-86396052D01*
X119991891Y-86305654D01*
X120044761Y-86230529D01*
X120087060Y-86169304D01*
X120119736Y-86120610D01*
X120143738Y-86083074D01*
X120160013Y-86055325D01*
X120169508Y-86035992D01*
X120173173Y-86023703D01*
X120172071Y-86017242D01*
X120158724Y-86000048D01*
X120129866Y-85963655D01*
X120087240Y-85910224D01*
X120032585Y-85841919D01*
X119967644Y-85760903D01*
X119894158Y-85669340D01*
X119813868Y-85569392D01*
X119728515Y-85463224D01*
X119639840Y-85352997D01*
X119549586Y-85240876D01*
X119499944Y-85179244D01*
X118267373Y-85179244D01*
X118216146Y-85271919D01*
X118164919Y-85364595D01*
X118164919Y-88055622D01*
X118216146Y-88148298D01*
X118267373Y-88240973D01*
X117661396Y-88240973D01*
X117516734Y-88240931D01*
X117397244Y-88240741D01*
X117300642Y-88240308D01*
X117224642Y-88239536D01*
X117166957Y-88238330D01*
X117125301Y-88236594D01*
X117097389Y-88234232D01*
X117080935Y-88231150D01*
X117073652Y-88227251D01*
X117073255Y-88222440D01*
X117077458Y-88216622D01*
X117077501Y-88216574D01*
X117094813Y-88191532D01*
X117117736Y-88150815D01*
X117137981Y-88110168D01*
X117176379Y-88028162D01*
X117184211Y-85179244D01*
X118267373Y-85179244D01*
X119499944Y-85179244D01*
X119459493Y-85129024D01*
X119371302Y-85019604D01*
X119286754Y-84914778D01*
X119207592Y-84816711D01*
X119135556Y-84727566D01*
X119072387Y-84649505D01*
X119019827Y-84584692D01*
X118979617Y-84535290D01*
X118956000Y-84506487D01*
X118864290Y-84398778D01*
X118776060Y-84301580D01*
X118694403Y-84218076D01*
X118622410Y-84151448D01*
X118571319Y-84110599D01*
X118510907Y-84067135D01*
X119900298Y-84067135D01*
X119899908Y-84148666D01*
X119903791Y-84208606D01*
X119918390Y-84264177D01*
X119940988Y-84316855D01*
X119955678Y-84346615D01*
X119971472Y-84376103D01*
X119989814Y-84407276D01*
X120012145Y-84442093D01*
X120039909Y-84482510D01*
X120074549Y-84530486D01*
X120117507Y-84587978D01*
X120170227Y-84656943D01*
X120234151Y-84739339D01*
X120310721Y-84837124D01*
X120401381Y-84952255D01*
X120507574Y-85086690D01*
X120519568Y-85101859D01*
X120938325Y-85631412D01*
X120942378Y-85044922D01*
X120943195Y-84869251D01*
X120943021Y-84720532D01*
X120941849Y-84598275D01*
X120939669Y-84501989D01*
X120936474Y-84431183D01*
X120932256Y-84385369D01*
X120930838Y-84376679D01*
X120908591Y-84285135D01*
X120879443Y-84202608D01*
X120846182Y-84136253D01*
X120826200Y-84108110D01*
X120791722Y-84067135D01*
X121445914Y-84067135D01*
X121601969Y-84067269D01*
X121732467Y-84067703D01*
X121839310Y-84068489D01*
X121924398Y-84069676D01*
X121989635Y-84071317D01*
X122036921Y-84073461D01*
X122068157Y-84076159D01*
X122085246Y-84079462D01*
X122090088Y-84083421D01*
X122089753Y-84084298D01*
X122075885Y-84105231D01*
X122052732Y-84138412D01*
X122040754Y-84155193D01*
X122028369Y-84171940D01*
X122017237Y-84186915D01*
X122007288Y-84201594D01*
X121998451Y-84217449D01*
X121990657Y-84235955D01*
X121983835Y-84258585D01*
X121977916Y-84286813D01*
X121972829Y-84322113D01*
X121968504Y-84365958D01*
X121964871Y-84419822D01*
X121961860Y-84485180D01*
X121959401Y-84563504D01*
X121957423Y-84656268D01*
X121955858Y-84764947D01*
X121954634Y-84891013D01*
X121953681Y-85035942D01*
X121952930Y-85201206D01*
X121952311Y-85388279D01*
X121951752Y-85598635D01*
X121951185Y-85833748D01*
X121950655Y-86049741D01*
X121950155Y-86290535D01*
X121949895Y-86520274D01*
X121949868Y-86737493D01*
X121950067Y-86940722D01*
X121950486Y-87128496D01*
X121951118Y-87299345D01*
X121951956Y-87451803D01*
X121952992Y-87584403D01*
X121954220Y-87695676D01*
X121955633Y-87784156D01*
X121957225Y-87848375D01*
X121958987Y-87886865D01*
X121959321Y-87890933D01*
X121971466Y-87984248D01*
X121990427Y-88059190D01*
X122019302Y-88124594D01*
X122061190Y-88189293D01*
X122066429Y-88196352D01*
X122099884Y-88240973D01*
X122466315Y-88240973D01*
X122467054Y-88159479D01*
X122467893Y-88020090D01*
X122468498Y-87862539D01*
X122468905Y-87685691D01*
X122469150Y-87488410D01*
X122469267Y-87269560D01*
X122469295Y-87028007D01*
X122469267Y-86762615D01*
X122469220Y-86472249D01*
X122469190Y-86155773D01*
X122469189Y-86092946D01*
X122469172Y-85773137D01*
X122469112Y-85479661D01*
X122469002Y-85211390D01*
X122468833Y-84967198D01*
X122468597Y-84745957D01*
X122468284Y-84546540D01*
X122467885Y-84367820D01*
X122467393Y-84208671D01*
X122466797Y-84067966D01*
X122466090Y-83944576D01*
X122465263Y-83837376D01*
X122464307Y-83745238D01*
X122463213Y-83667035D01*
X122461973Y-83601641D01*
X122460578Y-83547928D01*
X122459018Y-83504769D01*
X122457286Y-83471037D01*
X122455372Y-83445605D01*
X122453268Y-83427347D01*
X122450966Y-83415134D01*
X122448455Y-83407841D01*
X122448363Y-83407659D01*
X122443192Y-83396518D01*
X122438885Y-83386431D01*
X122434121Y-83377346D01*
X122427578Y-83369212D01*
X122417935Y-83361976D01*
X122403871Y-83355586D01*
X122384063Y-83349989D01*
X122357191Y-83345133D01*
X122321933Y-83340966D01*
X122276968Y-83337436D01*
X122220974Y-83334491D01*
X122152629Y-83332077D01*
X122070614Y-83330144D01*
X121973605Y-83328638D01*
X121860282Y-83327508D01*
X121729323Y-83326702D01*
X121579407Y-83326166D01*
X121409213Y-83325849D01*
X121217418Y-83325699D01*
X121002702Y-83325663D01*
X120763743Y-83325689D01*
D13*
X122504200Y-117865200D02*
X123834200Y-117865200D01*
X123834200Y-117865200D02*
X123834200Y-116535200D01*
X123834200Y-115325200D02*
X123834200Y-115205200D01*
X121174200Y-115325200D02*
X121174200Y-115205200D01*
X121174200Y-115205200D02*
X123834200Y-115205200D01*
X133410000Y-115192500D02*
X132080000Y-115192500D01*
X133410000Y-116522500D02*
X133410000Y-115192500D01*
X133410000Y-117792500D02*
X130750000Y-117792500D01*
X130750000Y-117792500D02*
X130750000Y-128012500D01*
X133410000Y-117792500D02*
X133410000Y-128012500D01*
X133410000Y-128012500D02*
X130750000Y-128012500D01*
M02*
