M48
; DRILL file {KiCad (5.1.5-0-10_14)} date Saturday, May 09, 2020 at 10:30:34 pm
; FORMAT={-:-/ absolute / inch / decimal}
; #@! TF.CreationDate,2020-05-09T22:30:34-06:00
; #@! TF.GenerationSoftware,Kicad,Pcbnew,(5.1.5-0-10_14)
; #@! TF.FileFunction,Plated,1,16,PTH
FMAT,2
INCH
T1C0.0138
T2C0.0157
T3C0.0394
%
G90
G05
T1
X5.9945Y-4.5379
X6.1445Y-3.3879
X6.1445Y-3.5879
X6.1445Y-3.7879
X6.1445Y-3.9879
X6.1445Y-4.1879
X6.2032Y-4.3879
X6.3445Y-3.3879
X6.3445Y-3.5879
X6.3445Y-3.7879
X6.3445Y-3.9879
X6.3445Y-4.5379
X6.4032Y-4.1879
X6.5445Y-3.3879
X6.5445Y-3.5879
X6.5445Y-3.7879
X6.5445Y-4.3879
X6.5445Y-4.5379
X6.6032Y-3.9879
X6.7445Y-3.3879
X6.7445Y-3.5879
X6.7445Y-4.1879
X6.7445Y-4.3879
X6.7445Y-4.5379
X6.8032Y-3.7879
X6.9445Y-3.3879
X6.9445Y-3.9879
X6.9445Y-4.1879
X6.9445Y-4.3879
X6.9445Y-4.5379
X7.0032Y-3.5879
X7.1445Y-3.7879
X7.1445Y-3.9879
X7.1445Y-4.1879
X7.1445Y-4.3879
X7.1445Y-4.5379
X7.2032Y-3.3879
X7.3445Y-3.5879
X7.3445Y-3.7879
X7.3445Y-3.9879
X7.3445Y-4.1879
X7.3445Y-4.3879
X7.3445Y-4.5379
X7.4945Y-3.3879
X7.4945Y-3.5879
X7.4945Y-3.7879
X7.4945Y-3.9879
X7.4945Y-4.1879
X7.4945Y-4.3879
X7.4945Y-4.5379
T2
X4.4325Y-4.6075
X4.905Y-4.725
X4.975Y-4.4775
X5.05Y-4.4775
X5.35Y-4.5525
X5.35Y-4.695
X5.425Y-4.8475
X5.4665Y-4.656
X5.475Y-4.8475
X5.5125Y-4.97
X5.565Y-4.97
X5.6065Y-4.616
X5.6355Y-4.7375
X5.6925Y-4.6655
X5.6925Y-4.9655
X5.7325Y-5.0395
T3
X4.823Y-4.5875
X5.2Y-4.5875
X5.2Y-4.6875
X5.2Y-4.7875
X5.2Y-4.8875
X5.2Y-4.9875
T0
M30
