G04 EAGLE Gerber RS-274X export*
G75*
%MOMM*%
%FSLAX34Y34*%
%LPD*%
%INSilkscreen Top*%
%IPPOS*%
%AMOC8*
5,1,8,0,0,1.08239X$1,22.5*%
G01*
%ADD10C,0.076200*%
%ADD11C,0.101600*%
%ADD12C,0.203200*%
%ADD13C,0.650000*%
%ADD14C,0.127000*%
%ADD15C,0.025400*%
%ADD16R,0.200000X0.200000*%


D10*
X380381Y400381D02*
X380381Y405878D01*
X383129Y405878D02*
X380381Y403129D01*
X383129Y405878D02*
X384504Y405878D01*
X388661Y400381D02*
X391409Y400381D01*
X388661Y400381D02*
X387287Y401755D01*
X387287Y404504D01*
X388661Y405878D01*
X391409Y405878D01*
X392784Y404504D01*
X392784Y403129D01*
X387287Y403129D01*
X395574Y405878D02*
X398322Y400381D01*
X401071Y405878D01*
X412148Y405878D02*
X414896Y408626D01*
X414896Y400381D01*
X412148Y400381D02*
X417645Y400381D01*
X420435Y400381D02*
X420435Y401755D01*
X421809Y401755D01*
X421809Y400381D01*
X420435Y400381D01*
X424579Y401755D02*
X424579Y407252D01*
X425953Y408626D01*
X428701Y408626D01*
X430075Y407252D01*
X430075Y401755D01*
X428701Y400381D01*
X425953Y400381D01*
X424579Y401755D01*
X430075Y407252D01*
D11*
X350508Y382202D02*
X350508Y370508D01*
X350508Y374406D02*
X358304Y382202D01*
X352457Y376355D02*
X358304Y370508D01*
X364151Y370508D02*
X368049Y370508D01*
X364151Y370508D02*
X362202Y372457D01*
X362202Y376355D01*
X364151Y378304D01*
X368049Y378304D01*
X369998Y376355D01*
X369998Y374406D01*
X362202Y374406D01*
X373896Y378304D02*
X377794Y370508D01*
X381692Y378304D01*
X385590Y378304D02*
X387539Y378304D01*
X387539Y370508D01*
X385590Y370508D02*
X389488Y370508D01*
X387539Y382202D02*
X387539Y384151D01*
X393386Y378304D02*
X393386Y370508D01*
X393386Y378304D02*
X399233Y378304D01*
X401182Y376355D01*
X401182Y370508D01*
X416774Y370508D02*
X416774Y382202D01*
X416774Y370508D02*
X424570Y370508D01*
X428468Y372457D02*
X428468Y378304D01*
X428468Y372457D02*
X430417Y370508D01*
X436264Y370508D01*
X436264Y378304D01*
X442111Y380253D02*
X442111Y372457D01*
X444060Y370508D01*
X444060Y378304D02*
X440162Y378304D01*
X447958Y378304D02*
X455754Y378304D01*
X447958Y370508D01*
X455754Y370508D01*
X461601Y370508D02*
X465499Y370508D01*
X461601Y370508D02*
X459652Y372457D01*
X459652Y376355D01*
X461601Y378304D01*
X465499Y378304D01*
X467448Y376355D01*
X467448Y374406D01*
X459652Y374406D01*
X471346Y370508D02*
X471346Y378304D01*
X471346Y374406D02*
X475244Y378304D01*
X477193Y378304D01*
X389492Y20508D02*
X377798Y20508D01*
X385594Y20508D02*
X389492Y26355D01*
X385594Y20508D02*
X381696Y26355D01*
X381696Y30253D02*
X389492Y30253D01*
X381696Y30253D02*
X381696Y32202D01*
X383645Y34151D01*
X389492Y34151D01*
X383645Y34151D02*
X381696Y36100D01*
X383645Y38049D01*
X389492Y38049D01*
X377798Y41947D02*
X377798Y43896D01*
X389492Y43896D01*
X389492Y41947D02*
X389492Y45845D01*
X381696Y49743D02*
X377798Y53641D01*
X389492Y53641D01*
X389492Y49743D02*
X389492Y57539D01*
X379747Y61437D02*
X377798Y63386D01*
X377798Y67284D01*
X379747Y69233D01*
X381696Y69233D01*
X383645Y67284D01*
X385594Y69233D01*
X387543Y69233D01*
X389492Y67284D01*
X389492Y63386D01*
X387543Y61437D01*
X385594Y61437D01*
X383645Y63386D01*
X381696Y61437D01*
X379747Y61437D01*
X383645Y63386D02*
X383645Y67284D01*
X379747Y73131D02*
X377798Y75080D01*
X377798Y78978D01*
X379747Y80927D01*
X381696Y80927D01*
X383645Y78978D01*
X383645Y77029D01*
X383645Y78978D02*
X385594Y80927D01*
X387543Y80927D01*
X389492Y78978D01*
X389492Y75080D01*
X387543Y73131D01*
X389492Y90672D02*
X387543Y92621D01*
X389492Y90672D02*
X389492Y86774D01*
X387543Y84825D01*
X379747Y84825D01*
X377798Y86774D01*
X377798Y90672D01*
X379747Y92621D01*
X383645Y92621D01*
X385594Y90672D01*
X385594Y86774D01*
X381696Y86774D01*
X381696Y90672D01*
X385594Y90672D01*
X389492Y96519D02*
X381696Y96519D01*
X381696Y98468D01*
X383645Y100417D01*
X389492Y100417D01*
X383645Y100417D02*
X381696Y102366D01*
X383645Y104315D01*
X389492Y104315D01*
X381696Y110162D02*
X381696Y114060D01*
X383645Y116009D01*
X389492Y116009D01*
X389492Y110162D01*
X387543Y108213D01*
X385594Y110162D01*
X385594Y116009D01*
X381696Y119907D02*
X381696Y121856D01*
X389492Y121856D01*
X389492Y119907D02*
X389492Y123805D01*
X377798Y121856D02*
X375849Y121856D01*
X377798Y127703D02*
X377798Y129652D01*
X389492Y129652D01*
X389492Y127703D02*
X389492Y131601D01*
X389492Y135499D02*
X387543Y135499D01*
X387543Y137448D01*
X389492Y137448D01*
X389492Y135499D01*
X387543Y141346D02*
X381696Y141346D01*
X387543Y141346D02*
X389492Y143295D01*
X389492Y149142D01*
X381696Y149142D01*
X389492Y153040D02*
X389492Y158887D01*
X387543Y160836D01*
X385594Y158887D01*
X385594Y154989D01*
X383645Y153040D01*
X381696Y154989D01*
X381696Y160836D01*
X381696Y166683D02*
X381696Y170581D01*
X383645Y172530D01*
X389492Y172530D01*
X389492Y166683D01*
X387543Y164734D01*
X385594Y166683D01*
X385594Y172530D01*
X389492Y176428D02*
X389492Y182275D01*
X387543Y184224D01*
X385594Y182275D01*
X385594Y178377D01*
X383645Y176428D01*
X381696Y178377D01*
X381696Y184224D01*
X377798Y188122D02*
X389492Y188122D01*
X385594Y188122D02*
X389492Y193968D01*
X385594Y188122D02*
X381696Y193968D01*
X387543Y197866D02*
X389492Y197866D01*
X387543Y197866D02*
X387543Y199815D01*
X389492Y199815D01*
X389492Y197866D01*
X381696Y205662D02*
X381696Y211509D01*
X381696Y205662D02*
X383645Y203713D01*
X387543Y203713D01*
X389492Y205662D01*
X389492Y211509D01*
X381696Y217356D02*
X381696Y221254D01*
X383645Y223203D01*
X389492Y223203D01*
X389492Y217356D01*
X387543Y215407D01*
X385594Y217356D01*
X385594Y223203D01*
X428748Y28304D02*
X428748Y20508D01*
X440442Y20508D01*
X440442Y28304D01*
X434595Y24406D02*
X434595Y20508D01*
X428748Y32202D02*
X428748Y34151D01*
X440442Y34151D01*
X440442Y32202D02*
X440442Y36100D01*
X440442Y41947D02*
X440442Y45845D01*
X440442Y41947D02*
X438493Y39998D01*
X434595Y39998D01*
X432646Y41947D01*
X432646Y45845D01*
X434595Y47794D01*
X436544Y47794D01*
X436544Y39998D01*
X432646Y53641D02*
X432646Y59488D01*
X432646Y53641D02*
X434595Y51692D01*
X438493Y51692D01*
X440442Y53641D01*
X440442Y59488D01*
X438493Y65335D02*
X430697Y65335D01*
X438493Y65335D02*
X440442Y67284D01*
X432646Y67284D02*
X432646Y63386D01*
X432646Y71182D02*
X440442Y71182D01*
X436544Y71182D02*
X432646Y75080D01*
X432646Y77029D01*
X432646Y80927D02*
X432646Y82876D01*
X440442Y82876D01*
X440442Y80927D02*
X440442Y84825D01*
X428748Y82876D02*
X426799Y82876D01*
X432646Y90672D02*
X432646Y96519D01*
X432646Y90672D02*
X434595Y88723D01*
X438493Y88723D01*
X440442Y90672D01*
X440442Y96519D01*
X432646Y102366D02*
X432646Y106264D01*
X434595Y108213D01*
X440442Y108213D01*
X440442Y102366D01*
X438493Y100417D01*
X436544Y102366D01*
X436544Y108213D01*
X428748Y112111D02*
X428748Y114060D01*
X440442Y114060D01*
X440442Y112111D02*
X440442Y116009D01*
X428748Y131601D02*
X428748Y139397D01*
X428748Y131601D02*
X440442Y131601D01*
X440442Y139397D01*
X434595Y135499D02*
X434595Y131601D01*
X432646Y143295D02*
X440442Y143295D01*
X432646Y143295D02*
X432646Y149142D01*
X434595Y151091D01*
X440442Y151091D01*
X444340Y158887D02*
X444340Y160836D01*
X442391Y162785D01*
X432646Y162785D01*
X432646Y156938D01*
X434595Y154989D01*
X438493Y154989D01*
X440442Y156938D01*
X440442Y162785D01*
X432646Y166683D02*
X432646Y168632D01*
X440442Y168632D01*
X440442Y166683D02*
X440442Y170581D01*
X428748Y168632D02*
X426799Y168632D01*
X432646Y174479D02*
X440442Y174479D01*
X432646Y174479D02*
X432646Y180326D01*
X434595Y182275D01*
X440442Y182275D01*
X440442Y188121D02*
X440442Y192019D01*
X440442Y188121D02*
X438493Y186173D01*
X434595Y186173D01*
X432646Y188121D01*
X432646Y192019D01*
X434595Y193968D01*
X436544Y193968D01*
X436544Y186173D01*
X440442Y199815D02*
X440442Y203713D01*
X440442Y199815D02*
X438493Y197866D01*
X434595Y197866D01*
X432646Y199815D01*
X432646Y203713D01*
X434595Y205662D01*
X436544Y205662D01*
X436544Y197866D01*
X440442Y209560D02*
X432646Y209560D01*
X436544Y209560D02*
X432646Y213458D01*
X432646Y215407D01*
X432646Y219305D02*
X432646Y221254D01*
X440442Y221254D01*
X440442Y219305D02*
X440442Y223203D01*
X428748Y221254D02*
X426799Y221254D01*
X432646Y227101D02*
X440442Y227101D01*
X432646Y227101D02*
X432646Y232948D01*
X434595Y234897D01*
X440442Y234897D01*
X444340Y242693D02*
X444340Y244642D01*
X442391Y246591D01*
X432646Y246591D01*
X432646Y240744D01*
X434595Y238795D01*
X438493Y238795D01*
X440442Y240744D01*
X440442Y246591D01*
X432646Y264132D02*
X432646Y268030D01*
X434595Y269979D01*
X440442Y269979D01*
X440442Y264132D01*
X438493Y262183D01*
X436544Y264132D01*
X436544Y269979D01*
X440442Y273877D02*
X432646Y273877D01*
X432646Y279724D01*
X434595Y281673D01*
X440442Y281673D01*
X440442Y293367D02*
X428748Y293367D01*
X440442Y293367D02*
X440442Y287520D01*
X438493Y285571D01*
X434595Y285571D01*
X432646Y287520D01*
X432646Y293367D01*
X449747Y28304D02*
X447798Y26355D01*
X447798Y22457D01*
X449747Y20508D01*
X457543Y20508D01*
X459492Y22457D01*
X459492Y26355D01*
X457543Y28304D01*
X459492Y34151D02*
X459492Y38049D01*
X457543Y39998D01*
X453645Y39998D01*
X451696Y38049D01*
X451696Y34151D01*
X453645Y32202D01*
X457543Y32202D01*
X459492Y34151D01*
X459492Y43896D02*
X451696Y43896D01*
X451696Y45845D01*
X453645Y47794D01*
X459492Y47794D01*
X453645Y47794D02*
X451696Y49743D01*
X453645Y51692D01*
X459492Y51692D01*
X463390Y55590D02*
X451696Y55590D01*
X451696Y61437D01*
X453645Y63386D01*
X457543Y63386D01*
X459492Y61437D01*
X459492Y55590D01*
X457543Y67284D02*
X451696Y67284D01*
X457543Y67284D02*
X459492Y69233D01*
X459492Y75080D01*
X451696Y75080D01*
X449747Y80927D02*
X457543Y80927D01*
X459492Y82876D01*
X451696Y82876D02*
X451696Y78978D01*
X459492Y88723D02*
X459492Y92621D01*
X459492Y88723D02*
X457543Y86774D01*
X453645Y86774D01*
X451696Y88723D01*
X451696Y92621D01*
X453645Y94570D01*
X455594Y94570D01*
X455594Y86774D01*
X459492Y98468D02*
X451696Y98468D01*
X455594Y98468D02*
X451696Y102366D01*
X451696Y104315D01*
X447798Y125754D02*
X449747Y127703D01*
X447798Y125754D02*
X447798Y121856D01*
X449747Y119907D01*
X451696Y119907D01*
X453645Y121856D01*
X453645Y125754D01*
X455594Y127703D01*
X457543Y127703D01*
X459492Y125754D01*
X459492Y121856D01*
X457543Y119907D01*
X451696Y133550D02*
X451696Y139397D01*
X451696Y133550D02*
X453645Y131601D01*
X457543Y131601D01*
X459492Y133550D01*
X459492Y139397D01*
X451696Y143295D02*
X451696Y145244D01*
X459492Y145244D01*
X459492Y143295D02*
X459492Y147193D01*
X447798Y145244D02*
X445849Y145244D01*
X459492Y153040D02*
X459492Y156938D01*
X459492Y153040D02*
X457543Y151091D01*
X453645Y151091D01*
X451696Y153040D01*
X451696Y156938D01*
X453645Y158887D01*
X455594Y158887D01*
X455594Y151091D01*
X459492Y162785D02*
X451696Y162785D01*
X451696Y168632D01*
X453645Y170581D01*
X459492Y170581D01*
X451696Y176428D02*
X451696Y182275D01*
X451696Y176428D02*
X453645Y174479D01*
X457543Y174479D01*
X459492Y176428D01*
X459492Y182275D01*
X459492Y188122D02*
X459492Y192020D01*
X459492Y188122D02*
X457543Y186173D01*
X453645Y186173D01*
X451696Y188122D01*
X451696Y192020D01*
X453645Y193969D01*
X455594Y193969D01*
X455594Y186173D01*
X459492Y209560D02*
X447798Y209560D01*
X451696Y213458D01*
X447798Y217356D01*
X459492Y217356D01*
X451696Y223203D02*
X451696Y227101D01*
X453645Y229050D01*
X459492Y229050D01*
X459492Y223203D01*
X457543Y221254D01*
X455594Y223203D01*
X455594Y229050D01*
X463390Y232948D02*
X463390Y234897D01*
X461441Y236846D01*
X451696Y236846D01*
X447798Y236846D02*
X445849Y236846D01*
X459492Y242693D02*
X459492Y246591D01*
X457543Y248540D01*
X453645Y248540D01*
X451696Y246591D01*
X451696Y242693D01*
X453645Y240744D01*
X457543Y240744D01*
X459492Y242693D01*
X459492Y252438D02*
X451696Y252438D01*
X455594Y252438D02*
X451696Y256336D01*
X451696Y258285D01*
X337543Y20508D02*
X331696Y20508D01*
X337543Y20508D02*
X339492Y22457D01*
X337543Y24406D01*
X339492Y26355D01*
X337543Y28304D01*
X331696Y28304D01*
X331696Y32202D02*
X337543Y32202D01*
X339492Y34151D01*
X337543Y36100D01*
X339492Y38049D01*
X337543Y39998D01*
X331696Y39998D01*
X331696Y43896D02*
X337543Y43896D01*
X339492Y45845D01*
X337543Y47794D01*
X339492Y49743D01*
X337543Y51692D01*
X331696Y51692D01*
X337543Y55590D02*
X339492Y55590D01*
X337543Y55590D02*
X337543Y57539D01*
X339492Y57539D01*
X339492Y55590D01*
X339492Y61437D02*
X327798Y61437D01*
X335594Y61437D02*
X339492Y67284D01*
X335594Y61437D02*
X331696Y67284D01*
X339492Y73131D02*
X339492Y77029D01*
X339492Y73131D02*
X337543Y71182D01*
X333645Y71182D01*
X331696Y73131D01*
X331696Y77029D01*
X333645Y78978D01*
X335594Y78978D01*
X335594Y71182D01*
X331696Y82876D02*
X339492Y86774D01*
X331696Y90672D01*
X331696Y94570D02*
X331696Y96519D01*
X339492Y96519D01*
X339492Y94570D02*
X339492Y98468D01*
X327798Y96519D02*
X325849Y96519D01*
X331696Y102366D02*
X339492Y102366D01*
X331696Y102366D02*
X331696Y108213D01*
X333645Y110162D01*
X339492Y110162D01*
X327798Y114060D02*
X327798Y116009D01*
X339492Y116009D01*
X339492Y114060D02*
X339492Y117958D01*
X337543Y121856D02*
X331696Y121856D01*
X337543Y121856D02*
X339492Y123805D01*
X339492Y129652D01*
X331696Y129652D01*
X329747Y135499D02*
X337543Y135499D01*
X339492Y137448D01*
X331696Y137448D02*
X331696Y133550D01*
X331696Y141346D02*
X331696Y149142D01*
X339492Y141346D01*
X339492Y149142D01*
X339492Y154989D02*
X339492Y158887D01*
X339492Y154989D02*
X337543Y153040D01*
X333645Y153040D01*
X331696Y154989D01*
X331696Y158887D01*
X333645Y160836D01*
X335594Y160836D01*
X335594Y153040D01*
X339492Y164734D02*
X331696Y164734D01*
X335594Y164734D02*
X331696Y168632D01*
X331696Y170581D01*
X337543Y174479D02*
X339492Y174479D01*
X337543Y174479D02*
X337543Y176428D01*
X339492Y176428D01*
X339492Y174479D01*
X331696Y182274D02*
X331696Y188121D01*
X331696Y182274D02*
X333645Y180326D01*
X337543Y180326D01*
X339492Y182274D01*
X339492Y188121D01*
X331696Y193968D02*
X331696Y197866D01*
X333645Y199815D01*
X339492Y199815D01*
X339492Y193968D01*
X337543Y192019D01*
X335594Y193968D01*
X335594Y199815D01*
D12*
X181500Y264000D02*
X138500Y264000D01*
X138500Y236000D01*
X181500Y236000D01*
X181500Y264000D01*
D13*
X175250Y242500D03*
D14*
X216000Y241000D02*
X216000Y199000D01*
X216000Y241000D02*
X244000Y241000D01*
X244000Y199000D01*
X216000Y199000D01*
X232000Y209000D02*
X232152Y209002D01*
X232304Y209008D01*
X232456Y209017D01*
X232607Y209031D01*
X232758Y209048D01*
X232909Y209069D01*
X233059Y209094D01*
X233208Y209123D01*
X233356Y209155D01*
X233504Y209192D01*
X233651Y209231D01*
X233796Y209275D01*
X233941Y209323D01*
X234084Y209373D01*
X234226Y209428D01*
X234366Y209486D01*
X234505Y209548D01*
X234642Y209613D01*
X234778Y209682D01*
X234912Y209754D01*
X235044Y209829D01*
X235174Y209908D01*
X235302Y209990D01*
X235428Y210075D01*
X235551Y210164D01*
X235673Y210255D01*
X235792Y210350D01*
X235908Y210447D01*
X236022Y210548D01*
X236134Y210651D01*
X236243Y210757D01*
X236349Y210866D01*
X236452Y210978D01*
X236553Y211092D01*
X236650Y211208D01*
X236745Y211327D01*
X236836Y211449D01*
X236925Y211572D01*
X237010Y211698D01*
X237092Y211826D01*
X237171Y211956D01*
X237246Y212088D01*
X237318Y212222D01*
X237387Y212358D01*
X237452Y212495D01*
X237514Y212634D01*
X237572Y212774D01*
X237627Y212916D01*
X237677Y213059D01*
X237725Y213204D01*
X237769Y213349D01*
X237808Y213496D01*
X237845Y213644D01*
X237877Y213792D01*
X237906Y213941D01*
X237931Y214091D01*
X237952Y214242D01*
X237969Y214393D01*
X237983Y214544D01*
X237992Y214696D01*
X237998Y214848D01*
X238000Y215000D01*
X232000Y209000D02*
X228000Y209000D01*
X227848Y209002D01*
X227696Y209008D01*
X227544Y209017D01*
X227393Y209031D01*
X227242Y209048D01*
X227091Y209069D01*
X226941Y209094D01*
X226792Y209123D01*
X226644Y209155D01*
X226496Y209192D01*
X226349Y209231D01*
X226204Y209275D01*
X226059Y209323D01*
X225916Y209373D01*
X225774Y209428D01*
X225634Y209486D01*
X225495Y209548D01*
X225358Y209613D01*
X225222Y209682D01*
X225088Y209754D01*
X224956Y209829D01*
X224826Y209908D01*
X224698Y209990D01*
X224572Y210075D01*
X224449Y210164D01*
X224327Y210255D01*
X224208Y210350D01*
X224092Y210447D01*
X223978Y210548D01*
X223866Y210651D01*
X223757Y210757D01*
X223651Y210866D01*
X223548Y210978D01*
X223447Y211092D01*
X223350Y211208D01*
X223255Y211327D01*
X223164Y211449D01*
X223075Y211572D01*
X222990Y211698D01*
X222908Y211826D01*
X222829Y211956D01*
X222754Y212088D01*
X222682Y212222D01*
X222613Y212358D01*
X222548Y212495D01*
X222486Y212634D01*
X222428Y212774D01*
X222373Y212916D01*
X222323Y213059D01*
X222275Y213204D01*
X222231Y213349D01*
X222192Y213496D01*
X222155Y213644D01*
X222123Y213792D01*
X222094Y213941D01*
X222069Y214091D01*
X222048Y214242D01*
X222031Y214393D01*
X222017Y214544D01*
X222008Y214696D01*
X222002Y214848D01*
X222000Y215000D01*
X222000Y225000D01*
X222002Y225152D01*
X222008Y225304D01*
X222017Y225456D01*
X222031Y225607D01*
X222048Y225758D01*
X222069Y225909D01*
X222094Y226059D01*
X222123Y226208D01*
X222155Y226356D01*
X222192Y226504D01*
X222231Y226651D01*
X222275Y226796D01*
X222323Y226941D01*
X222373Y227084D01*
X222428Y227226D01*
X222486Y227366D01*
X222548Y227505D01*
X222613Y227642D01*
X222682Y227778D01*
X222754Y227912D01*
X222829Y228044D01*
X222908Y228174D01*
X222990Y228302D01*
X223075Y228428D01*
X223164Y228551D01*
X223255Y228673D01*
X223350Y228792D01*
X223447Y228908D01*
X223548Y229022D01*
X223651Y229134D01*
X223757Y229243D01*
X223866Y229349D01*
X223978Y229452D01*
X224092Y229553D01*
X224208Y229650D01*
X224327Y229745D01*
X224449Y229836D01*
X224572Y229925D01*
X224698Y230010D01*
X224826Y230092D01*
X224956Y230171D01*
X225088Y230246D01*
X225222Y230318D01*
X225358Y230387D01*
X225495Y230452D01*
X225634Y230514D01*
X225774Y230572D01*
X225916Y230627D01*
X226059Y230677D01*
X226204Y230725D01*
X226349Y230769D01*
X226496Y230808D01*
X226644Y230845D01*
X226792Y230877D01*
X226941Y230906D01*
X227091Y230931D01*
X227242Y230952D01*
X227393Y230969D01*
X227544Y230983D01*
X227696Y230992D01*
X227848Y230998D01*
X228000Y231000D01*
X232000Y231000D01*
X232152Y230998D01*
X232304Y230992D01*
X232456Y230983D01*
X232607Y230969D01*
X232758Y230952D01*
X232909Y230931D01*
X233059Y230906D01*
X233208Y230877D01*
X233356Y230845D01*
X233504Y230808D01*
X233651Y230769D01*
X233796Y230725D01*
X233941Y230677D01*
X234084Y230627D01*
X234226Y230572D01*
X234366Y230514D01*
X234505Y230452D01*
X234642Y230387D01*
X234778Y230318D01*
X234912Y230246D01*
X235044Y230171D01*
X235174Y230092D01*
X235302Y230010D01*
X235428Y229925D01*
X235551Y229836D01*
X235673Y229745D01*
X235792Y229650D01*
X235908Y229553D01*
X236022Y229452D01*
X236134Y229349D01*
X236243Y229243D01*
X236349Y229134D01*
X236452Y229022D01*
X236553Y228908D01*
X236650Y228792D01*
X236745Y228673D01*
X236836Y228551D01*
X236925Y228428D01*
X237010Y228302D01*
X237092Y228174D01*
X237171Y228044D01*
X237246Y227912D01*
X237318Y227778D01*
X237387Y227642D01*
X237452Y227505D01*
X237514Y227366D01*
X237572Y227226D01*
X237627Y227084D01*
X237677Y226941D01*
X237725Y226796D01*
X237769Y226651D01*
X237808Y226504D01*
X237845Y226356D01*
X237877Y226208D01*
X237906Y226059D01*
X237931Y225909D01*
X237952Y225758D01*
X237969Y225607D01*
X237983Y225456D01*
X237992Y225304D01*
X237998Y225152D01*
X238000Y225000D01*
X238000Y215000D01*
X198100Y207780D02*
X190480Y215400D01*
X198100Y207780D02*
X198100Y172220D01*
X190480Y164600D01*
X177780Y164600D01*
X172700Y169680D01*
X167620Y164600D01*
X152380Y164600D01*
X147300Y169680D01*
X142220Y164600D01*
X129520Y164600D01*
X121900Y172220D01*
X121900Y207780D01*
X129520Y215400D01*
X142220Y215400D01*
X147300Y210320D01*
X152380Y215400D01*
X167620Y215400D01*
X172700Y210320D01*
X177780Y215400D01*
X190480Y215400D01*
D10*
X195933Y214641D02*
X199068Y211506D01*
X195933Y214641D02*
X205339Y214641D01*
X205339Y211506D02*
X205339Y217777D01*
D15*
X35548Y107570D02*
X34649Y107570D01*
X35548Y107570D02*
X35997Y108019D01*
X35997Y108918D01*
X33751Y111165D01*
X34200Y111614D02*
X33301Y110715D01*
X35048Y112463D02*
X37745Y109766D01*
X35048Y112463D02*
X36397Y113811D01*
X37295Y113811D01*
X38194Y112912D01*
X38194Y112013D01*
X36846Y110665D01*
X38593Y114210D02*
X38593Y116008D01*
X41290Y113311D01*
X42188Y114210D02*
X40391Y112412D01*
D16*
X41000Y460000D03*
X101000Y460000D03*
X161000Y460000D03*
X221000Y460000D03*
X281000Y460000D03*
X41000Y420000D03*
X101000Y420000D03*
X161000Y420000D03*
X221000Y420000D03*
X281000Y420000D03*
X41000Y380000D03*
X101000Y380000D03*
X161000Y380000D03*
X221000Y380000D03*
X281000Y380000D03*
X41000Y340000D03*
X101000Y340000D03*
X161000Y340000D03*
X221000Y340000D03*
X281000Y340000D03*
M02*
