G04 EAGLE Gerber RS-274X export*
G75*
%MOMM*%
%FSLAX34Y34*%
%LPD*%
%INSoldermask Top*%
%IPPOS*%
%AMOC8*
5,1,8,0,0,1.08239X$1,22.5*%
G01*
%ADD10R,1.151600X1.181600*%
%ADD11R,1.301600X0.451600*%
%ADD12R,1.101600X1.101600*%
%ADD13R,1.101600X1.201600*%
%ADD14C,1.727200*%
%ADD15R,7.601600X1.601600*%
%ADD16R,6.601600X1.101600*%
%ADD17R,1.301600X1.301600*%
%ADD18R,1.201600X1.101600*%


D10*
X151250Y280000D03*
X168750Y280000D03*
D11*
X189250Y240250D03*
X189250Y246750D03*
X189250Y253250D03*
X189250Y259750D03*
X130750Y259750D03*
X130750Y253250D03*
X130750Y246750D03*
X130750Y240250D03*
D12*
X222000Y240000D03*
X238000Y240000D03*
X238000Y200000D03*
X222000Y200000D03*
D13*
X221500Y180000D03*
X238500Y180000D03*
D14*
X160000Y202700D03*
X160000Y177300D03*
X185400Y177300D03*
X185400Y202700D03*
X134600Y202700D03*
X134600Y177300D03*
D15*
G36*
X135873Y75050D02*
X82122Y21299D01*
X70797Y32624D01*
X124548Y86375D01*
X135873Y75050D01*
G37*
D16*
G36*
X116426Y94495D02*
X69747Y47816D01*
X61958Y55605D01*
X108637Y102284D01*
X116426Y94495D01*
G37*
G36*
X102284Y108637D02*
X55605Y61958D01*
X47816Y69747D01*
X94495Y116426D01*
X102284Y108637D01*
G37*
D15*
G36*
X86375Y124548D02*
X32624Y70797D01*
X21299Y82122D01*
X75050Y135873D01*
X86375Y124548D01*
G37*
D17*
X50500Y460000D03*
X29500Y460000D03*
X110500Y460000D03*
X89500Y460000D03*
X170500Y460000D03*
X149500Y460000D03*
X230500Y460000D03*
X209500Y460000D03*
X290500Y460000D03*
X269500Y460000D03*
X50500Y420000D03*
X29500Y420000D03*
X110500Y420000D03*
X89500Y420000D03*
X170500Y420000D03*
X149500Y420000D03*
X230500Y420000D03*
X209500Y420000D03*
X290500Y420000D03*
X269500Y420000D03*
X50500Y380000D03*
X29500Y380000D03*
X110500Y380000D03*
X89500Y380000D03*
X170500Y380000D03*
X149500Y380000D03*
X230500Y380000D03*
X209500Y380000D03*
X290500Y380000D03*
X269500Y380000D03*
X50500Y340000D03*
X29500Y340000D03*
X110500Y340000D03*
X89500Y340000D03*
X170500Y340000D03*
X149500Y340000D03*
X230500Y340000D03*
X209500Y340000D03*
X290500Y340000D03*
X269500Y340000D03*
D18*
X100000Y281500D03*
X100000Y298500D03*
X80000Y281500D03*
X80000Y298500D03*
X120000Y281500D03*
X120000Y298500D03*
X200000Y281500D03*
X200000Y298500D03*
X220000Y281500D03*
X220000Y298500D03*
M02*
