M48
;GenerationSoftware,Autodesk,EAGLE,9.5.2*%
;CreationDate,2020-05-14T22:27:31Z*%
FMAT,2
ICI,OFF
METRIC,TZ,000.000
T3C0.600
T2C0.900
T1C1.100
%
G90
M71
T1
X11000Y16000
T2
X16000Y20270
X16000Y17730
X18540Y17730
X18540Y20270
X13460Y20270
X13460Y17730
T3
X25500Y20000
X18000Y27000
X13000Y23000
X13000Y27000
X3000Y32000
X31000Y32000
X25000Y32000
X13000Y32000
X19000Y32000
X7000Y44000
X31000Y44000
X13000Y44000
X19000Y44000
X7000Y40000
X31000Y40000
X13000Y40000
X25000Y40000
X31000Y36000
X9000Y36000
X19000Y36000
X25000Y36000
X14800Y26000
X16800Y25200
M30