G04 EAGLE Gerber RS-274X export*
G75*
%MOMM*%
%FSLAX34Y34*%
%LPD*%
%INBottom Copper*%
%IPPOS*%
%AMOC8*
5,1,8,0,0,1.08239X$1,22.5*%
G01*
%ADD10C,1.879600*%
%ADD11C,0.756400*%
%ADD12C,0.304800*%

G36*
X457276Y10167D02*
X457276Y10167D01*
X457352Y10165D01*
X457521Y10187D01*
X457692Y10201D01*
X457766Y10219D01*
X457841Y10229D01*
X458005Y10278D01*
X458171Y10319D01*
X458240Y10349D01*
X458313Y10371D01*
X458467Y10447D01*
X458624Y10514D01*
X458688Y10555D01*
X458757Y10588D01*
X458896Y10687D01*
X459040Y10779D01*
X459097Y10830D01*
X459159Y10874D01*
X459280Y10994D01*
X459408Y11108D01*
X459456Y11167D01*
X459510Y11221D01*
X459611Y11359D01*
X459718Y11492D01*
X459755Y11558D01*
X459800Y11619D01*
X459877Y11772D01*
X459962Y11920D01*
X459988Y11992D01*
X460023Y12060D01*
X460074Y12223D01*
X460133Y12383D01*
X460148Y12458D01*
X460171Y12530D01*
X460183Y12635D01*
X460228Y12867D01*
X460235Y13103D01*
X460247Y13208D01*
X460247Y42179D01*
X460244Y42217D01*
X460246Y42255D01*
X460224Y42463D01*
X460207Y42671D01*
X460198Y42708D01*
X460194Y42746D01*
X460139Y42947D01*
X460089Y43150D01*
X460074Y43185D01*
X460063Y43221D01*
X459976Y43411D01*
X459894Y43603D01*
X459874Y43635D01*
X459858Y43670D01*
X459741Y43843D01*
X459629Y44019D01*
X459604Y44047D01*
X459582Y44079D01*
X459439Y44231D01*
X459300Y44387D01*
X459271Y44411D01*
X459244Y44439D01*
X459079Y44566D01*
X458916Y44697D01*
X458883Y44716D01*
X458853Y44739D01*
X458669Y44838D01*
X458488Y44941D01*
X458452Y44954D01*
X458418Y44972D01*
X458221Y45040D01*
X458025Y45112D01*
X457988Y45120D01*
X457952Y45132D01*
X457745Y45167D01*
X457541Y45207D01*
X457503Y45208D01*
X457465Y45215D01*
X457256Y45216D01*
X457048Y45222D01*
X457010Y45217D01*
X456972Y45218D01*
X456765Y45185D01*
X456559Y45158D01*
X456522Y45147D01*
X456485Y45141D01*
X456286Y45076D01*
X456086Y45016D01*
X456052Y44999D01*
X456016Y44987D01*
X455831Y44890D01*
X455643Y44799D01*
X455612Y44777D01*
X455578Y44759D01*
X455506Y44701D01*
X455241Y44513D01*
X455119Y44392D01*
X455045Y44334D01*
X433527Y22815D01*
X432406Y22351D01*
X298558Y22351D01*
X298548Y22350D01*
X298539Y22351D01*
X298303Y22331D01*
X298066Y22311D01*
X298057Y22309D01*
X298047Y22308D01*
X298009Y22297D01*
X297588Y22193D01*
X297584Y22191D01*
X297467Y22141D01*
X297392Y22119D01*
X294273Y20827D01*
X289927Y20827D01*
X285913Y22490D01*
X282840Y25563D01*
X281177Y29577D01*
X281177Y33923D01*
X282840Y37937D01*
X285913Y41010D01*
X287421Y41635D01*
X287455Y41652D01*
X287491Y41665D01*
X287674Y41764D01*
X287860Y41860D01*
X287891Y41882D01*
X287925Y41901D01*
X288090Y42029D01*
X288257Y42153D01*
X288284Y42180D01*
X288314Y42203D01*
X288456Y42357D01*
X288602Y42506D01*
X288624Y42537D01*
X288650Y42565D01*
X288765Y42739D01*
X288885Y42910D01*
X288901Y42944D01*
X288922Y42976D01*
X289008Y43166D01*
X289099Y43354D01*
X289110Y43391D01*
X289125Y43426D01*
X289179Y43627D01*
X289238Y43828D01*
X289243Y43866D01*
X289253Y43902D01*
X289274Y44110D01*
X289300Y44317D01*
X289298Y44355D01*
X289302Y44393D01*
X289289Y44602D01*
X289281Y44810D01*
X289274Y44848D01*
X289271Y44886D01*
X289225Y45089D01*
X289183Y45294D01*
X289170Y45329D01*
X289161Y45367D01*
X289083Y45560D01*
X289009Y45755D01*
X288990Y45788D01*
X288975Y45823D01*
X288866Y46002D01*
X288762Y46182D01*
X288738Y46212D01*
X288718Y46244D01*
X288582Y46403D01*
X288450Y46564D01*
X288421Y46589D01*
X288396Y46618D01*
X288237Y46752D01*
X288080Y46891D01*
X288047Y46911D01*
X288018Y46935D01*
X287937Y46980D01*
X287662Y47153D01*
X287503Y47220D01*
X287421Y47265D01*
X285913Y47890D01*
X282840Y50963D01*
X281177Y54977D01*
X281177Y59323D01*
X282840Y63337D01*
X285913Y66410D01*
X287421Y67035D01*
X287455Y67052D01*
X287491Y67065D01*
X287675Y67165D01*
X287860Y67260D01*
X287891Y67282D01*
X287925Y67301D01*
X288089Y67429D01*
X288257Y67553D01*
X288284Y67580D01*
X288314Y67603D01*
X288456Y67757D01*
X288602Y67906D01*
X288624Y67937D01*
X288650Y67965D01*
X288765Y68139D01*
X288885Y68310D01*
X288901Y68344D01*
X288922Y68376D01*
X289008Y68566D01*
X289099Y68755D01*
X289110Y68791D01*
X289125Y68826D01*
X289179Y69028D01*
X289238Y69228D01*
X289243Y69265D01*
X289253Y69302D01*
X289274Y69511D01*
X289300Y69717D01*
X289298Y69755D01*
X289302Y69793D01*
X289289Y70002D01*
X289281Y70210D01*
X289274Y70248D01*
X289271Y70286D01*
X289225Y70489D01*
X289183Y70694D01*
X289170Y70729D01*
X289161Y70767D01*
X289083Y70960D01*
X289009Y71155D01*
X288990Y71188D01*
X288975Y71224D01*
X288866Y71402D01*
X288762Y71582D01*
X288738Y71612D01*
X288718Y71644D01*
X288582Y71803D01*
X288450Y71964D01*
X288421Y71990D01*
X288396Y72018D01*
X288236Y72153D01*
X288080Y72291D01*
X288047Y72311D01*
X288018Y72335D01*
X287937Y72380D01*
X287662Y72553D01*
X287504Y72620D01*
X287421Y72665D01*
X285913Y73290D01*
X282840Y76363D01*
X281177Y80377D01*
X281177Y84723D01*
X282840Y88737D01*
X285913Y91810D01*
X286186Y91923D01*
X286333Y91998D01*
X286484Y92066D01*
X286552Y92111D01*
X286625Y92148D01*
X286758Y92246D01*
X286896Y92337D01*
X286956Y92393D01*
X287022Y92441D01*
X287137Y92559D01*
X287259Y92671D01*
X287309Y92736D01*
X287366Y92794D01*
X287461Y92930D01*
X287563Y93060D01*
X287603Y93131D01*
X287649Y93198D01*
X287721Y93348D01*
X287801Y93492D01*
X287828Y93569D01*
X287863Y93643D01*
X287910Y93801D01*
X287965Y93957D01*
X287980Y94038D01*
X288003Y94116D01*
X288024Y94280D01*
X288053Y94443D01*
X288054Y94524D01*
X288064Y94606D01*
X288058Y94771D01*
X288061Y94936D01*
X288049Y95017D01*
X288046Y95099D01*
X288013Y95261D01*
X287989Y95424D01*
X287964Y95502D01*
X287948Y95582D01*
X287890Y95736D01*
X287839Y95894D01*
X287802Y95967D01*
X287774Y96044D01*
X287691Y96187D01*
X287616Y96334D01*
X287568Y96400D01*
X287527Y96471D01*
X287422Y96598D01*
X287324Y96732D01*
X287266Y96789D01*
X287214Y96853D01*
X287091Y96962D01*
X286972Y97078D01*
X286919Y97113D01*
X286844Y97179D01*
X286427Y97441D01*
X286413Y97447D01*
X286403Y97453D01*
X285843Y97739D01*
X284322Y98844D01*
X282994Y100172D01*
X281889Y101693D01*
X281036Y103367D01*
X280537Y104903D01*
X292100Y104903D01*
X303663Y104903D01*
X303164Y103367D01*
X302311Y101693D01*
X301206Y100172D01*
X299878Y98844D01*
X298357Y97739D01*
X297797Y97453D01*
X297656Y97367D01*
X297511Y97288D01*
X297446Y97238D01*
X297377Y97195D01*
X297251Y97086D01*
X297121Y96985D01*
X297066Y96925D01*
X297004Y96872D01*
X296898Y96744D01*
X296786Y96623D01*
X296741Y96555D01*
X296688Y96492D01*
X296604Y96350D01*
X296513Y96212D01*
X296479Y96138D01*
X296438Y96067D01*
X296378Y95913D01*
X296310Y95762D01*
X296289Y95684D01*
X296259Y95607D01*
X296225Y95445D01*
X296182Y95286D01*
X296174Y95205D01*
X296157Y95125D01*
X296150Y94959D01*
X296133Y94795D01*
X296138Y94714D01*
X296135Y94632D01*
X296154Y94467D01*
X296164Y94303D01*
X296182Y94223D01*
X296192Y94142D01*
X296237Y93983D01*
X296274Y93822D01*
X296305Y93746D01*
X296327Y93668D01*
X296398Y93518D01*
X296460Y93365D01*
X296503Y93295D01*
X296537Y93221D01*
X296631Y93085D01*
X296717Y92944D01*
X296770Y92882D01*
X296817Y92815D01*
X296931Y92695D01*
X297039Y92570D01*
X297102Y92517D01*
X297158Y92459D01*
X297290Y92359D01*
X297417Y92253D01*
X297473Y92222D01*
X297553Y92162D01*
X297990Y91933D01*
X298004Y91928D01*
X298014Y91923D01*
X298287Y91810D01*
X301360Y88737D01*
X303023Y84723D01*
X303023Y82296D01*
X303029Y82220D01*
X303027Y82144D01*
X303049Y81975D01*
X303063Y81804D01*
X303081Y81730D01*
X303091Y81655D01*
X303140Y81491D01*
X303181Y81325D01*
X303211Y81256D01*
X303233Y81182D01*
X303309Y81029D01*
X303376Y80872D01*
X303417Y80808D01*
X303450Y80739D01*
X303549Y80600D01*
X303641Y80456D01*
X303692Y80399D01*
X303736Y80337D01*
X303856Y80216D01*
X303970Y80088D01*
X304029Y80040D01*
X304083Y79986D01*
X304221Y79885D01*
X304354Y79778D01*
X304420Y79741D01*
X304481Y79696D01*
X304634Y79619D01*
X304782Y79534D01*
X304854Y79508D01*
X304922Y79473D01*
X305085Y79422D01*
X305245Y79363D01*
X305320Y79348D01*
X305392Y79325D01*
X305497Y79313D01*
X305729Y79268D01*
X305965Y79261D01*
X306070Y79249D01*
X349504Y79249D01*
X349580Y79255D01*
X349656Y79253D01*
X349825Y79275D01*
X349996Y79289D01*
X350070Y79307D01*
X350145Y79317D01*
X350309Y79366D01*
X350475Y79407D01*
X350544Y79437D01*
X350618Y79459D01*
X350771Y79535D01*
X350928Y79602D01*
X350992Y79643D01*
X351061Y79676D01*
X351200Y79775D01*
X351344Y79867D01*
X351401Y79918D01*
X351463Y79962D01*
X351584Y80082D01*
X351712Y80196D01*
X351760Y80255D01*
X351814Y80309D01*
X351915Y80447D01*
X352022Y80580D01*
X352059Y80646D01*
X352104Y80707D01*
X352181Y80860D01*
X352266Y81008D01*
X352292Y81080D01*
X352327Y81148D01*
X352378Y81311D01*
X352437Y81471D01*
X352452Y81546D01*
X352475Y81618D01*
X352487Y81723D01*
X352532Y81955D01*
X352539Y82191D01*
X352551Y82296D01*
X352551Y83182D01*
X352542Y83295D01*
X352543Y83410D01*
X352522Y83541D01*
X352511Y83673D01*
X352484Y83784D01*
X352466Y83897D01*
X352425Y84023D01*
X352393Y84152D01*
X352348Y84257D01*
X352312Y84366D01*
X352250Y84484D01*
X352198Y84606D01*
X352137Y84702D01*
X352084Y84803D01*
X352025Y84877D01*
X351933Y85022D01*
X351717Y85264D01*
X351659Y85336D01*
X351101Y85894D01*
X350293Y87844D01*
X350293Y89956D01*
X351101Y91906D01*
X352594Y93399D01*
X354544Y94207D01*
X356656Y94207D01*
X358606Y93399D01*
X360099Y91906D01*
X360907Y89956D01*
X360907Y87844D01*
X360099Y85894D01*
X359541Y85336D01*
X359467Y85249D01*
X359386Y85169D01*
X359308Y85062D01*
X359222Y84960D01*
X359163Y84863D01*
X359096Y84770D01*
X359036Y84652D01*
X358967Y84538D01*
X358925Y84432D01*
X358873Y84330D01*
X358833Y84203D01*
X358784Y84080D01*
X358759Y83968D01*
X358725Y83859D01*
X358715Y83766D01*
X358677Y83598D01*
X358659Y83274D01*
X358649Y83182D01*
X358649Y75594D01*
X358185Y74473D01*
X357327Y73615D01*
X356206Y73151D01*
X298558Y73151D01*
X298548Y73150D01*
X298539Y73151D01*
X298302Y73130D01*
X298066Y73111D01*
X298057Y73109D01*
X298047Y73108D01*
X298009Y73097D01*
X297587Y72993D01*
X297467Y72941D01*
X297392Y72919D01*
X296779Y72665D01*
X296745Y72648D01*
X296709Y72635D01*
X296525Y72535D01*
X296340Y72440D01*
X296309Y72418D01*
X296275Y72399D01*
X296111Y72271D01*
X295943Y72147D01*
X295916Y72120D01*
X295886Y72097D01*
X295744Y71944D01*
X295598Y71794D01*
X295576Y71763D01*
X295550Y71735D01*
X295435Y71561D01*
X295315Y71390D01*
X295299Y71356D01*
X295278Y71324D01*
X295192Y71134D01*
X295101Y70946D01*
X295090Y70909D01*
X295075Y70874D01*
X295021Y70673D01*
X294962Y70472D01*
X294957Y70434D01*
X294947Y70398D01*
X294926Y70190D01*
X294900Y69983D01*
X294902Y69945D01*
X294898Y69907D01*
X294911Y69699D01*
X294919Y69490D01*
X294926Y69452D01*
X294929Y69414D01*
X294975Y69211D01*
X295017Y69006D01*
X295030Y68971D01*
X295039Y68933D01*
X295117Y68740D01*
X295191Y68545D01*
X295210Y68512D01*
X295225Y68477D01*
X295333Y68299D01*
X295438Y68118D01*
X295462Y68088D01*
X295482Y68056D01*
X295618Y67897D01*
X295750Y67736D01*
X295779Y67711D01*
X295804Y67682D01*
X295963Y67548D01*
X296120Y67409D01*
X296153Y67389D01*
X296182Y67365D01*
X296263Y67320D01*
X296538Y67147D01*
X296696Y67080D01*
X296779Y67035D01*
X298287Y66410D01*
X301360Y63337D01*
X303023Y59323D01*
X303023Y54977D01*
X302502Y53720D01*
X302435Y53512D01*
X302364Y53306D01*
X302359Y53277D01*
X302351Y53250D01*
X302318Y53035D01*
X302281Y52819D01*
X302281Y52791D01*
X302277Y52763D01*
X302280Y52545D01*
X302278Y52326D01*
X302283Y52298D01*
X302283Y52269D01*
X302321Y52055D01*
X302355Y51838D01*
X302364Y51811D01*
X302369Y51783D01*
X302441Y51577D01*
X302509Y51370D01*
X302522Y51345D01*
X302532Y51318D01*
X302636Y51126D01*
X302737Y50932D01*
X302752Y50914D01*
X302768Y50885D01*
X303071Y50495D01*
X303130Y50440D01*
X303162Y50399D01*
X311520Y42041D01*
X311607Y41967D01*
X311688Y41886D01*
X311795Y41808D01*
X311896Y41722D01*
X311994Y41663D01*
X312086Y41596D01*
X312205Y41536D01*
X312319Y41467D01*
X312425Y41425D01*
X312527Y41373D01*
X312654Y41333D01*
X312777Y41284D01*
X312888Y41259D01*
X312997Y41225D01*
X313091Y41215D01*
X313259Y41177D01*
X313583Y41159D01*
X313675Y41149D01*
X368297Y41149D01*
X368410Y41158D01*
X368525Y41157D01*
X368656Y41178D01*
X368788Y41189D01*
X368899Y41216D01*
X369012Y41234D01*
X369138Y41275D01*
X369267Y41307D01*
X369372Y41352D01*
X369481Y41388D01*
X369599Y41450D01*
X369721Y41502D01*
X369817Y41563D01*
X369918Y41616D01*
X369992Y41675D01*
X370137Y41767D01*
X370379Y41983D01*
X370451Y42041D01*
X371009Y42599D01*
X372959Y43407D01*
X375071Y43407D01*
X377021Y42599D01*
X378514Y41106D01*
X379322Y39156D01*
X379322Y37044D01*
X378514Y35094D01*
X377071Y33651D01*
X377046Y33622D01*
X377017Y33596D01*
X376887Y33434D01*
X376751Y33275D01*
X376731Y33242D01*
X376707Y33212D01*
X376604Y33031D01*
X376497Y32852D01*
X376482Y32817D01*
X376463Y32784D01*
X376391Y32588D01*
X376313Y32394D01*
X376305Y32357D01*
X376292Y32321D01*
X376252Y32117D01*
X376207Y31913D01*
X376204Y31874D01*
X376197Y31837D01*
X376191Y31629D01*
X376179Y31420D01*
X376183Y31382D01*
X376182Y31344D01*
X376209Y31137D01*
X376231Y30929D01*
X376241Y30893D01*
X376246Y30855D01*
X376307Y30654D01*
X376362Y30454D01*
X376378Y30419D01*
X376389Y30382D01*
X376481Y30195D01*
X376568Y30005D01*
X376589Y29974D01*
X376606Y29939D01*
X376726Y29769D01*
X376843Y29596D01*
X376869Y29568D01*
X376891Y29537D01*
X377038Y29389D01*
X377181Y29236D01*
X377211Y29213D01*
X377238Y29186D01*
X377406Y29063D01*
X377572Y28936D01*
X377606Y28918D01*
X377637Y28896D01*
X377823Y28802D01*
X378007Y28703D01*
X378043Y28691D01*
X378077Y28673D01*
X378277Y28610D01*
X378474Y28543D01*
X378511Y28537D01*
X378548Y28525D01*
X378640Y28515D01*
X378960Y28460D01*
X379132Y28459D01*
X379225Y28449D01*
X429275Y28449D01*
X429389Y28458D01*
X429503Y28457D01*
X429634Y28478D01*
X429767Y28489D01*
X429877Y28516D01*
X429990Y28534D01*
X430117Y28575D01*
X430245Y28607D01*
X430350Y28652D01*
X430459Y28688D01*
X430577Y28750D01*
X430699Y28802D01*
X430795Y28863D01*
X430896Y28916D01*
X430970Y28975D01*
X431115Y29067D01*
X431357Y29283D01*
X431430Y29341D01*
X451001Y48912D01*
X451075Y48999D01*
X451156Y49080D01*
X451234Y49187D01*
X451320Y49288D01*
X451379Y49386D01*
X451446Y49478D01*
X451506Y49597D01*
X451575Y49711D01*
X451617Y49817D01*
X451669Y49919D01*
X451709Y50046D01*
X451758Y50169D01*
X451783Y50280D01*
X451817Y50389D01*
X451827Y50483D01*
X451865Y50651D01*
X451883Y50975D01*
X451893Y51067D01*
X451893Y51856D01*
X452701Y53806D01*
X454194Y55299D01*
X456144Y56107D01*
X457200Y56107D01*
X457276Y56113D01*
X457352Y56111D01*
X457521Y56133D01*
X457692Y56147D01*
X457766Y56165D01*
X457841Y56175D01*
X458005Y56224D01*
X458171Y56265D01*
X458240Y56295D01*
X458313Y56317D01*
X458467Y56393D01*
X458624Y56460D01*
X458688Y56501D01*
X458757Y56534D01*
X458896Y56633D01*
X459040Y56725D01*
X459097Y56776D01*
X459159Y56820D01*
X459280Y56940D01*
X459408Y57054D01*
X459456Y57113D01*
X459510Y57167D01*
X459611Y57305D01*
X459718Y57438D01*
X459755Y57504D01*
X459800Y57565D01*
X459877Y57718D01*
X459962Y57866D01*
X459988Y57938D01*
X460023Y58006D01*
X460074Y58169D01*
X460133Y58329D01*
X460148Y58404D01*
X460171Y58476D01*
X460183Y58581D01*
X460228Y58813D01*
X460235Y59049D01*
X460247Y59154D01*
X460247Y241300D01*
X460241Y241376D01*
X460243Y241452D01*
X460221Y241621D01*
X460207Y241792D01*
X460189Y241866D01*
X460179Y241941D01*
X460130Y242105D01*
X460089Y242271D01*
X460059Y242340D01*
X460037Y242414D01*
X459961Y242567D01*
X459894Y242724D01*
X459853Y242788D01*
X459820Y242857D01*
X459721Y242996D01*
X459629Y243140D01*
X459578Y243197D01*
X459534Y243259D01*
X459414Y243380D01*
X459300Y243508D01*
X459241Y243556D01*
X459187Y243610D01*
X459049Y243711D01*
X458916Y243818D01*
X458850Y243855D01*
X458789Y243900D01*
X458636Y243977D01*
X458488Y244062D01*
X458416Y244088D01*
X458348Y244123D01*
X458185Y244174D01*
X458025Y244233D01*
X457950Y244248D01*
X457878Y244271D01*
X457773Y244283D01*
X457541Y244328D01*
X457305Y244335D01*
X457200Y244347D01*
X38556Y244347D01*
X38511Y244344D01*
X38467Y244346D01*
X38266Y244324D01*
X38064Y244307D01*
X38021Y244297D01*
X37976Y244292D01*
X37782Y244237D01*
X37585Y244189D01*
X37544Y244171D01*
X37501Y244159D01*
X37318Y244074D01*
X37132Y243994D01*
X37094Y243970D01*
X37054Y243951D01*
X36886Y243838D01*
X36716Y243729D01*
X36683Y243699D01*
X36646Y243674D01*
X36499Y243535D01*
X36348Y243400D01*
X36320Y243365D01*
X36288Y243335D01*
X36165Y243174D01*
X36038Y243016D01*
X36016Y242978D01*
X35989Y242942D01*
X35894Y242763D01*
X35794Y242588D01*
X35779Y242546D01*
X35758Y242506D01*
X35693Y242315D01*
X35623Y242125D01*
X35614Y242081D01*
X35600Y242039D01*
X35567Y241839D01*
X35528Y241641D01*
X35527Y241596D01*
X35519Y241552D01*
X35519Y241349D01*
X35513Y241148D01*
X35518Y241104D01*
X35518Y241059D01*
X35551Y240859D01*
X35577Y240659D01*
X35590Y240616D01*
X35597Y240572D01*
X35661Y240380D01*
X35719Y240187D01*
X35739Y240146D01*
X35753Y240104D01*
X35848Y239925D01*
X35936Y239743D01*
X35962Y239707D01*
X35983Y239667D01*
X36045Y239591D01*
X36222Y239341D01*
X36350Y239211D01*
X36411Y239136D01*
X93064Y182976D01*
X93065Y182976D01*
X93069Y182972D01*
X93254Y182816D01*
X93264Y182807D01*
X94914Y181142D01*
X94926Y181132D01*
X94933Y181123D01*
X96360Y179709D01*
X97121Y177849D01*
X97128Y177835D01*
X97131Y177824D01*
X97908Y175971D01*
X97899Y173962D01*
X97901Y173946D01*
X97899Y173935D01*
X97908Y171925D01*
X97131Y170073D01*
X97126Y170058D01*
X97121Y170048D01*
X96360Y168188D01*
X94933Y166773D01*
X94923Y166761D01*
X94914Y166754D01*
X93287Y165113D01*
X93203Y165050D01*
X93124Y164969D01*
X93069Y164925D01*
X84695Y156624D01*
X84641Y156561D01*
X84580Y156504D01*
X84480Y156374D01*
X84374Y156250D01*
X84331Y156179D01*
X84280Y156113D01*
X84203Y155968D01*
X84117Y155828D01*
X84086Y155751D01*
X84047Y155678D01*
X83994Y155523D01*
X83932Y155371D01*
X83914Y155290D01*
X83887Y155212D01*
X83859Y155050D01*
X83823Y154890D01*
X83818Y154807D01*
X83804Y154725D01*
X83803Y154561D01*
X83793Y154397D01*
X83802Y154315D01*
X83801Y154232D01*
X83827Y154070D01*
X83844Y153906D01*
X83865Y153826D01*
X83878Y153745D01*
X83929Y153589D01*
X83972Y153430D01*
X84006Y153355D01*
X84032Y153276D01*
X84108Y153130D01*
X84176Y152981D01*
X84222Y152912D01*
X84260Y152838D01*
X84325Y152757D01*
X84449Y152570D01*
X84620Y152387D01*
X84685Y152305D01*
X152643Y84348D01*
X152701Y84298D01*
X152753Y84243D01*
X152889Y84139D01*
X153019Y84028D01*
X153084Y83989D01*
X153145Y83943D01*
X153295Y83862D01*
X153441Y83774D01*
X153512Y83745D01*
X153579Y83709D01*
X153741Y83654D01*
X153899Y83591D01*
X153974Y83574D01*
X154046Y83549D01*
X154215Y83521D01*
X154381Y83484D01*
X154457Y83479D01*
X154532Y83467D01*
X154703Y83466D01*
X154874Y83456D01*
X154949Y83464D01*
X155026Y83464D01*
X155195Y83490D01*
X155364Y83508D01*
X155438Y83528D01*
X155513Y83540D01*
X155675Y83594D01*
X155840Y83639D01*
X155909Y83671D01*
X155982Y83695D01*
X156133Y83773D01*
X156288Y83845D01*
X156352Y83887D01*
X156419Y83922D01*
X156502Y83988D01*
X156698Y84120D01*
X156870Y84282D01*
X156952Y84348D01*
X167224Y94619D01*
X168193Y95588D01*
X171927Y97135D01*
X175969Y97135D01*
X179704Y95588D01*
X264239Y11053D01*
X264326Y10979D01*
X264406Y10898D01*
X264513Y10820D01*
X264615Y10734D01*
X264712Y10675D01*
X264805Y10608D01*
X264923Y10548D01*
X265037Y10479D01*
X265143Y10437D01*
X265245Y10385D01*
X265372Y10345D01*
X265495Y10296D01*
X265607Y10271D01*
X265716Y10237D01*
X265809Y10227D01*
X265977Y10189D01*
X266301Y10171D01*
X266393Y10161D01*
X457200Y10161D01*
X457276Y10167D01*
G37*
%LPC*%
G36*
X292100Y110997D02*
X292100Y110997D01*
X280537Y110997D01*
X281036Y112533D01*
X281889Y114207D01*
X282994Y115728D01*
X284322Y117056D01*
X285843Y118161D01*
X286403Y118447D01*
X286544Y118533D01*
X286689Y118612D01*
X286754Y118662D01*
X286823Y118705D01*
X286949Y118814D01*
X287079Y118915D01*
X287134Y118975D01*
X287196Y119028D01*
X287302Y119156D01*
X287414Y119277D01*
X287459Y119345D01*
X287512Y119408D01*
X287596Y119550D01*
X287687Y119688D01*
X287721Y119762D01*
X287762Y119833D01*
X287822Y119987D01*
X287890Y120138D01*
X287911Y120216D01*
X287941Y120293D01*
X287975Y120455D01*
X288018Y120614D01*
X288026Y120695D01*
X288043Y120775D01*
X288050Y120941D01*
X288067Y121105D01*
X288062Y121186D01*
X288065Y121268D01*
X288046Y121433D01*
X288036Y121597D01*
X288018Y121677D01*
X288008Y121758D01*
X287963Y121917D01*
X287926Y122078D01*
X287895Y122154D01*
X287873Y122232D01*
X287802Y122382D01*
X287740Y122535D01*
X287697Y122605D01*
X287663Y122679D01*
X287569Y122815D01*
X287483Y122956D01*
X287430Y123018D01*
X287383Y123085D01*
X287269Y123205D01*
X287161Y123330D01*
X287098Y123383D01*
X287042Y123441D01*
X286910Y123541D01*
X286783Y123647D01*
X286727Y123678D01*
X286647Y123738D01*
X286210Y123967D01*
X286196Y123972D01*
X286186Y123977D01*
X285913Y124090D01*
X282840Y127163D01*
X281177Y131177D01*
X281177Y135523D01*
X282840Y139537D01*
X285913Y142610D01*
X289927Y144273D01*
X294273Y144273D01*
X298287Y142610D01*
X301360Y139537D01*
X303023Y135523D01*
X303023Y131177D01*
X301360Y127163D01*
X298287Y124090D01*
X298014Y123977D01*
X297867Y123902D01*
X297716Y123834D01*
X297648Y123789D01*
X297575Y123752D01*
X297442Y123654D01*
X297304Y123563D01*
X297244Y123507D01*
X297178Y123459D01*
X297063Y123341D01*
X296941Y123229D01*
X296891Y123164D01*
X296834Y123106D01*
X296739Y122970D01*
X296637Y122840D01*
X296597Y122769D01*
X296551Y122702D01*
X296479Y122552D01*
X296399Y122408D01*
X296372Y122331D01*
X296337Y122257D01*
X296290Y122099D01*
X296235Y121943D01*
X296220Y121862D01*
X296197Y121784D01*
X296176Y121620D01*
X296147Y121457D01*
X296146Y121376D01*
X296136Y121294D01*
X296142Y121129D01*
X296139Y120964D01*
X296151Y120883D01*
X296154Y120801D01*
X296187Y120639D01*
X296211Y120476D01*
X296236Y120398D01*
X296252Y120318D01*
X296310Y120164D01*
X296361Y120006D01*
X296398Y119933D01*
X296426Y119856D01*
X296509Y119713D01*
X296584Y119566D01*
X296632Y119500D01*
X296673Y119429D01*
X296778Y119302D01*
X296876Y119168D01*
X296934Y119111D01*
X296986Y119047D01*
X297109Y118938D01*
X297228Y118822D01*
X297281Y118787D01*
X297356Y118721D01*
X297773Y118459D01*
X297787Y118453D01*
X297797Y118447D01*
X298357Y118161D01*
X299878Y117056D01*
X301206Y115728D01*
X302311Y114207D01*
X303164Y112533D01*
X303663Y110997D01*
X292100Y110997D01*
X292100Y110997D01*
G37*
%LPD*%
D10*
X292100Y82550D03*
X292100Y31750D03*
X292100Y133350D03*
X292100Y57150D03*
X292100Y107950D03*
D11*
X317500Y88900D03*
X425450Y152400D03*
X444500Y127000D03*
X88900Y139700D03*
D12*
X101600Y152400D01*
X298450Y76200D02*
X355600Y76200D01*
X355600Y88900D01*
D11*
X355600Y88900D03*
D12*
X298450Y76200D02*
X292100Y82550D01*
D11*
X482600Y152400D03*
D12*
X825500Y152400D02*
X863600Y152400D01*
X825500Y152400D02*
X774700Y152400D01*
X723900Y152400D01*
X673100Y152400D01*
X622300Y152400D01*
X571500Y152400D02*
X482600Y152400D01*
D11*
X863600Y152400D03*
X571500Y152400D03*
D12*
X622300Y152400D01*
D11*
X622300Y152400D03*
X673100Y152400D03*
X723900Y152400D03*
X774700Y152400D03*
X825500Y152400D03*
X863600Y190500D03*
X535600Y190500D03*
D12*
X622300Y190500D01*
X673100Y190500D01*
X723900Y190500D01*
X774700Y190500D01*
X825500Y190500D01*
X863600Y190500D01*
D11*
X622300Y190500D03*
X673100Y190500D03*
X723900Y190500D03*
X774700Y190500D03*
X825500Y190500D03*
X520700Y241300D03*
D12*
X586400Y241300D01*
D11*
X863600Y241300D03*
D12*
X673100Y241300D02*
X586400Y241300D01*
X774700Y241300D02*
X825500Y241300D01*
X863600Y241300D01*
D11*
X673100Y241300D03*
D12*
X723900Y241300D01*
D11*
X723900Y241300D03*
D12*
X774700Y241300D01*
D11*
X774700Y241300D03*
X825500Y241300D03*
X586400Y241300D03*
X520700Y292100D03*
D12*
X571500Y292100D01*
D11*
X863600Y292100D03*
D12*
X637200Y292100D02*
X571500Y292100D01*
X637200Y292100D02*
X723900Y292100D01*
X774700Y292100D01*
X825500Y292100D01*
X863600Y292100D01*
D11*
X825500Y292100D03*
X774700Y292100D03*
X723900Y292100D03*
X571500Y292100D03*
X637200Y292100D03*
X520700Y444500D03*
D12*
X571500Y444500D01*
D11*
X863600Y444500D03*
D12*
X673100Y444500D02*
X622300Y444500D01*
X673100Y444500D02*
X723900Y444500D01*
X789600Y444500D01*
X863600Y444500D01*
D11*
X571500Y444500D03*
D12*
X622300Y444500D01*
D11*
X622300Y444500D03*
X673100Y444500D03*
X723900Y444500D03*
X789600Y444500D03*
X520700Y393700D03*
D12*
X571500Y393700D01*
D11*
X863600Y393700D03*
D12*
X622300Y393700D02*
X571500Y393700D01*
X622300Y393700D02*
X673100Y393700D01*
X738800Y393700D01*
X825500Y393700D01*
X863600Y393700D01*
D11*
X825500Y393700D03*
X571500Y393700D03*
X622300Y393700D03*
X673100Y393700D03*
X738800Y393700D03*
X520700Y342900D03*
X863600Y342900D03*
D12*
X571500Y342900D02*
X520700Y342900D01*
X571500Y342900D02*
X622300Y342900D01*
X688000Y342900D01*
X774700Y342900D01*
X825500Y342900D01*
X863600Y342900D01*
D11*
X825500Y342900D03*
X774700Y342900D03*
X622300Y342900D03*
X688000Y342900D03*
X571500Y342900D03*
D12*
X431800Y25400D02*
X298450Y25400D01*
X431800Y25400D02*
X457200Y50800D01*
D11*
X457200Y50800D03*
D12*
X298450Y25400D02*
X292100Y31750D01*
X311150Y38100D02*
X374015Y38100D01*
D11*
X374015Y38100D03*
D12*
X311150Y38100D02*
X292100Y57150D01*
M02*
