G04 EAGLE Gerber RS-274X export*
G75*
%MOMM*%
%FSLAX34Y34*%
%LPD*%
%INSoldermask Top*%
%IPPOS*%
%AMOC8*
5,1,8,0,0,1.08239X$1,22.5*%
G01*
%ADD10R,1.253200X1.283200*%
%ADD11R,7.703200X1.703200*%
%ADD12R,6.703200X1.203200*%
%ADD13R,1.403200X1.403200*%
%ADD14R,1.303200X1.203200*%
%ADD15R,1.203200X1.203200*%
%ADD16C,0.812800*%
%ADD17R,2.413000X0.812800*%
%ADD18C,2.082800*%
%ADD19C,0.959600*%


D10*
X391300Y152400D03*
X408800Y152400D03*
D11*
G36*
X136091Y74550D02*
X81622Y20081D01*
X69579Y32124D01*
X124048Y86593D01*
X136091Y74550D01*
G37*
D12*
G36*
X116645Y93995D02*
X69247Y46597D01*
X60739Y55105D01*
X108137Y102503D01*
X116645Y93995D01*
G37*
G36*
X102503Y108137D02*
X55105Y60739D01*
X46597Y69247D01*
X93995Y116645D01*
X102503Y108137D01*
G37*
D11*
G36*
X86593Y124048D02*
X32124Y69579D01*
X20081Y81622D01*
X74550Y136091D01*
X86593Y124048D01*
G37*
D13*
X505800Y469900D03*
X484800Y469900D03*
X556600Y419100D03*
X535600Y419100D03*
X607400Y419100D03*
X586400Y419100D03*
X658200Y419100D03*
X637200Y419100D03*
X709000Y419100D03*
X688000Y419100D03*
X759800Y419100D03*
X738800Y419100D03*
X810600Y419100D03*
X789600Y419100D03*
X861400Y419100D03*
X840400Y419100D03*
X505800Y368300D03*
X484800Y368300D03*
X556600Y368300D03*
X535600Y368300D03*
X607400Y368300D03*
X586400Y368300D03*
X556600Y469900D03*
X535600Y469900D03*
X658200Y368300D03*
X637200Y368300D03*
X709000Y368300D03*
X688000Y368300D03*
X759800Y368300D03*
X738800Y368300D03*
X810600Y368300D03*
X789600Y368300D03*
X861400Y368300D03*
X840400Y368300D03*
X505800Y317500D03*
X484800Y317500D03*
X556600Y317500D03*
X535600Y317500D03*
X607400Y317500D03*
X586400Y317500D03*
X658200Y317500D03*
X637200Y317500D03*
X709000Y317500D03*
X688000Y317500D03*
X607400Y469900D03*
X586400Y469900D03*
X759800Y317500D03*
X738800Y317500D03*
X810600Y317500D03*
X789600Y317500D03*
X861400Y317500D03*
X840400Y317500D03*
X505800Y266700D03*
X484800Y266700D03*
X556600Y266700D03*
X535600Y266700D03*
X607400Y266700D03*
X586400Y266700D03*
X658200Y266700D03*
X637200Y266700D03*
X709000Y266700D03*
X688000Y266700D03*
X759800Y266700D03*
X738800Y266700D03*
X810600Y266700D03*
X789600Y266700D03*
X658200Y469900D03*
X637200Y469900D03*
X861400Y266700D03*
X840400Y266700D03*
X505800Y215900D03*
X484800Y215900D03*
X556600Y215900D03*
X535600Y215900D03*
X607400Y215900D03*
X586400Y215900D03*
X658200Y215900D03*
X637200Y215900D03*
X709000Y215900D03*
X688000Y215900D03*
X759800Y215900D03*
X738800Y215900D03*
X810600Y215900D03*
X789600Y215900D03*
X861400Y215900D03*
X840400Y215900D03*
X505800Y165100D03*
X484800Y165100D03*
X709000Y469900D03*
X688000Y469900D03*
X556600Y165100D03*
X535600Y165100D03*
X607400Y165100D03*
X586400Y165100D03*
X658200Y165100D03*
X637200Y165100D03*
X709000Y165100D03*
X688000Y165100D03*
X759800Y165100D03*
X738800Y165100D03*
X810600Y165100D03*
X789600Y165100D03*
X861400Y165100D03*
X840400Y165100D03*
X759800Y469900D03*
X738800Y469900D03*
X810600Y469900D03*
X789600Y469900D03*
X861400Y469900D03*
X840400Y469900D03*
X505800Y419100D03*
X484800Y419100D03*
D14*
X342900Y112150D03*
X342900Y129150D03*
X488950Y118500D03*
X488950Y135500D03*
X539750Y118500D03*
X539750Y135500D03*
X590550Y118500D03*
X590550Y135500D03*
X641350Y118500D03*
X641350Y135500D03*
X692150Y118500D03*
X692150Y135500D03*
X742950Y118500D03*
X742950Y135500D03*
X793750Y118500D03*
X793750Y135500D03*
X844550Y118500D03*
X844550Y135500D03*
D15*
X344550Y49850D03*
X328550Y49850D03*
X328550Y89850D03*
X344550Y89850D03*
D16*
X366014Y127000D02*
X382016Y127000D01*
D17*
X426085Y127000D03*
X374015Y114300D03*
X374015Y101600D03*
X426085Y114300D03*
X426085Y101600D03*
X374015Y88900D03*
X426085Y88900D03*
X374015Y76200D03*
X374015Y63500D03*
X426085Y76200D03*
X426085Y63500D03*
X374015Y50800D03*
X426085Y50800D03*
D18*
X292100Y82550D03*
X292100Y31750D03*
X292100Y133350D03*
X292100Y57150D03*
X292100Y107950D03*
D19*
X317500Y88900D03*
X425450Y152400D03*
X444500Y127000D03*
X88900Y139700D03*
X355600Y88900D03*
X482600Y152400D03*
X863600Y152400D03*
X571500Y152400D03*
X622300Y152400D03*
X673100Y152400D03*
X723900Y152400D03*
X774700Y152400D03*
X825500Y152400D03*
X863600Y190500D03*
X535600Y190500D03*
X622300Y190500D03*
X673100Y190500D03*
X723900Y190500D03*
X774700Y190500D03*
X825500Y190500D03*
X520700Y241300D03*
X863600Y241300D03*
X673100Y241300D03*
X723900Y241300D03*
X774700Y241300D03*
X825500Y241300D03*
X586400Y241300D03*
X520700Y292100D03*
X863600Y292100D03*
X825500Y292100D03*
X774700Y292100D03*
X723900Y292100D03*
X571500Y292100D03*
X637200Y292100D03*
X520700Y444500D03*
X863600Y444500D03*
X571500Y444500D03*
X622300Y444500D03*
X673100Y444500D03*
X723900Y444500D03*
X789600Y444500D03*
X520700Y393700D03*
X863600Y393700D03*
X825500Y393700D03*
X571500Y393700D03*
X622300Y393700D03*
X673100Y393700D03*
X738800Y393700D03*
X520700Y342900D03*
X863600Y342900D03*
X825500Y342900D03*
X774700Y342900D03*
X622300Y342900D03*
X688000Y342900D03*
X571500Y342900D03*
X457200Y50800D03*
X374015Y38100D03*
M02*
