  0
SECTION
  2
HEADER
  9
$ANGBASE
  50
0.0
  9
$ANGDIR
  70
1
  9
$MEASUREMENT
  70
0
  0
ENDSEC
  0
SECTION
  2
TABLES
  0
TABLE
  2
LTYPE
  70
4
  0
LTYPE
  5
40F
  2
CONTINUOUS
  70
0
  3
Solid line
  72
65
  73
0
  40
0.0
  0
LTYPE
  5
410
  2
DASHDOT
 70
0
  3
Dash Dot ____ _ ____ _
 72
65
 73
4
 40
2.0
 49
1.25
 49
-0.25
 49
0.25
 49
-0.25
  0
LTYPE
  5
411
  2
DASHED
 70
0
  3
Dashed __ __ __ __ __
 72
65
 73
2
 40
0.75
 49
0.5
 49
-0.25
  0
LTYPE
  5
43B
  2
DOTTED
 70
0
  3
Dotted .  .  .  .
 72
65
 73
2
 40
0.2
 49
0.0
 49
-0.2
  0
ENDTAB
  0
TABLE
  2
STYLE
  70
4
  0
STYLE
  2
KICAD
  70
0
  40
0
  41
1
  42
1
  50
0
  71
0
  3
isocp.shx
  0
STYLE
  2
KICADB
  70
0
  40
0
  41
1
  42
1
  50
0
  71
0
  3
isocp.shx
  0
STYLE
  2
KICADI
  70
0
  40
0
  41
1
  42
1
  50
15
  71
0
  3
isocp.shx
  0
STYLE
  2
KICADBI
  70
0
  40
0
  41
1
  42
1
  50
15
  71
0
  3
isocp.shx
  0
ENDTAB
  0
TABLE
  2
LAYER
  70
1
  0
LAYER
  2
BLACK
  70
0
  62
7
  6
CONTINUOUS
  0
ENDTAB
  0
ENDSEC
  0
SECTION
  2
ENTITIES
0
LINE
8
BLACK
6
CONTINUOUS
10
7.77564
20
-2.36122
11
7.77564
21
-2.36122
0
LINE
8
BLACK
6
CONTINUOUS
10
7.77564
20
-2.36122
11
7.77578
21
-2.36123
0
LINE
8
BLACK
6
CONTINUOUS
10
7.77578
20
-2.36123
11
7.77597
21
-2.36129
0
LINE
8
BLACK
6
CONTINUOUS
10
7.77597
20
-2.36129
11
7.77614
21
-2.36138
0
LINE
8
BLACK
6
CONTINUOUS
10
7.77614
20
-2.36138
11
7.77629
21
-2.36151
0
LINE
8
BLACK
6
CONTINUOUS
10
7.77629
20
-2.36151
11
7.77641
21
-2.36166
0
LINE
8
BLACK
6
CONTINUOUS
10
7.77641
20
-2.36166
11
7.7765
21
-2.36183
0
LINE
8
BLACK
6
CONTINUOUS
10
7.7765
20
-2.36183
11
7.77656
21
-2.36201
0
LINE
8
BLACK
6
CONTINUOUS
10
7.77656
20
-2.36201
11
7.77658
21
-2.3622
0
LINE
8
BLACK
6
CONTINUOUS
10
7.77658
20
-2.3622
11
7.77657
21
-2.36225
0
LINE
8
BLACK
6
CONTINUOUS
10
7.77657
20
-2.36225
11
7.77657
21
-6.29916
0
LINE
8
BLACK
6
CONTINUOUS
10
7.77657
20
-6.29916
11
7.77658
21
-6.29921
0
LINE
8
BLACK
6
CONTINUOUS
10
7.77658
20
-6.29921
11
7.77657
21
-6.29926
0
LINE
8
BLACK
6
CONTINUOUS
10
7.77657
20
-6.29926
11
7.77657
21
-6.29926
0
LINE
8
BLACK
6
CONTINUOUS
10
7.77657
20
-6.29926
11
7.77656
21
-6.29941
0
LINE
8
BLACK
6
CONTINUOUS
10
7.77656
20
-6.29941
11
7.7765
21
-6.29959
0
LINE
8
BLACK
6
CONTINUOUS
10
7.7765
20
-6.29959
11
7.77641
21
-6.29976
0
LINE
8
BLACK
6
CONTINUOUS
10
7.77641
20
-6.29976
11
7.77629
21
-6.29991
0
LINE
8
BLACK
6
CONTINUOUS
10
7.77629
20
-6.29991
11
7.77614
21
-6.30003
0
LINE
8
BLACK
6
CONTINUOUS
10
7.77614
20
-6.30003
11
7.77597
21
-6.30013
0
LINE
8
BLACK
6
CONTINUOUS
10
7.77597
20
-6.30013
11
7.77578
21
-6.30018
0
LINE
8
BLACK
6
CONTINUOUS
10
7.77578
20
-6.30018
11
7.77559
21
-6.3002
0
LINE
8
BLACK
6
CONTINUOUS
10
7.77559
20
-6.3002
11
7.77554
21
-6.3002
0
LINE
8
BLACK
6
CONTINUOUS
10
7.77554
20
-6.3002
11
3.83863
21
-6.3002
0
LINE
8
BLACK
6
CONTINUOUS
10
3.83863
20
-6.3002
11
3.83858
21
-6.3002
0
LINE
8
BLACK
6
CONTINUOUS
10
3.83858
20
-6.3002
11
3.83839
21
-6.30018
0
LINE
8
BLACK
6
CONTINUOUS
10
3.83839
20
-6.30018
11
3.8382
21
-6.30013
0
LINE
8
BLACK
6
CONTINUOUS
10
3.8382
20
-6.30013
11
3.83803
21
-6.30003
0
LINE
8
BLACK
6
CONTINUOUS
10
3.83803
20
-6.30003
11
3.83788
21
-6.29991
0
LINE
8
BLACK
6
CONTINUOUS
10
3.83788
20
-6.29991
11
3.83776
21
-6.29976
0
LINE
8
BLACK
6
CONTINUOUS
10
3.83776
20
-6.29976
11
3.83767
21
-6.29959
0
LINE
8
BLACK
6
CONTINUOUS
10
3.83767
20
-6.29959
11
3.83761
21
-6.29941
0
LINE
8
BLACK
6
CONTINUOUS
10
3.83761
20
-6.29941
11
3.83759
21
-6.29921
0
LINE
8
BLACK
6
CONTINUOUS
10
3.83759
20
-6.29921
11
3.8376
21
-6.29916
0
LINE
8
BLACK
6
CONTINUOUS
10
3.8376
20
-6.29916
11
3.8376
21
-2.36225
0
LINE
8
BLACK
6
CONTINUOUS
10
3.8376
20
-2.36225
11
3.83759
21
-2.3622
0
LINE
8
BLACK
6
CONTINUOUS
10
3.83759
20
-2.3622
11
3.83761
21
-2.36201
0
LINE
8
BLACK
6
CONTINUOUS
10
3.83761
20
-2.36201
11
3.83767
21
-2.36183
0
LINE
8
BLACK
6
CONTINUOUS
10
3.83767
20
-2.36183
11
3.83776
21
-2.36166
0
LINE
8
BLACK
6
CONTINUOUS
10
3.83776
20
-2.36166
11
3.83788
21
-2.36151
0
LINE
8
BLACK
6
CONTINUOUS
10
3.83788
20
-2.36151
11
3.83803
21
-2.36138
0
LINE
8
BLACK
6
CONTINUOUS
10
3.83803
20
-2.36138
11
3.8382
21
-2.36129
0
LINE
8
BLACK
6
CONTINUOUS
10
3.8382
20
-2.36129
11
3.83839
21
-2.36123
0
LINE
8
BLACK
6
CONTINUOUS
10
3.83839
20
-2.36123
11
3.83853
21
-2.36122
0
LINE
8
BLACK
6
CONTINUOUS
10
3.83853
20
-2.36122
11
3.83853
21
-2.36122
0
LINE
8
BLACK
6
CONTINUOUS
10
3.83853
20
-2.36122
11
3.83858
21
-2.36122
0
LINE
8
BLACK
6
CONTINUOUS
10
3.83858
20
-2.36122
11
3.83863
21
-2.36122
0
LINE
8
BLACK
6
CONTINUOUS
10
3.83863
20
-2.36122
11
7.77554
21
-2.36122
0
LINE
8
BLACK
6
CONTINUOUS
10
7.77554
20
-2.36122
11
7.77559
21
-2.36122
0
LINE
8
BLACK
6
CONTINUOUS
10
7.77559
20
-2.36122
11
7.77564
21
-2.36122
0
LINE
8
BLACK
6
CONTINUOUS
10
3.83957
20
-2.36319
11
3.83957
21
-6.29823
0
LINE
8
BLACK
6
CONTINUOUS
10
3.83957
20
-6.29823
11
7.77461
21
-6.29823
0
LINE
8
BLACK
6
CONTINUOUS
10
7.77461
20
-6.29823
11
7.77461
21
-2.36319
0
LINE
8
BLACK
6
CONTINUOUS
10
7.77461
20
-2.36319
11
3.83957
21
-2.36319
  0
ENDSEC
  0
EOF
