G04 #@! TF.GenerationSoftware,KiCad,Pcbnew,(5.1.5-0-10_14)*
G04 #@! TF.CreationDate,2020-05-09T22:19:51-06:00*
G04 #@! TF.ProjectId,business_card_v1,62757369-6e65-4737-935f-636172645f76,rev?*
G04 #@! TF.SameCoordinates,Original*
G04 #@! TF.FileFunction,Soldermask,Top*
G04 #@! TF.FilePolarity,Negative*
%FSLAX46Y46*%
G04 Gerber Fmt 4.6, Leading zero omitted, Abs format (unit mm)*
G04 Created by KiCad (PCBNEW (5.1.5-0-10_14)) date 2020-05-09 22:19:51*
%MOMM*%
%LPD*%
G04 APERTURE LIST*
%ADD10C,0.100000*%
G04 APERTURE END LIST*
D10*
G36*
X117627397Y-123037275D02*
G01*
X112180412Y-128484260D01*
X110976067Y-127279915D01*
X116423052Y-121832930D01*
X117627397Y-123037275D01*
G37*
G36*
X136022670Y-126726303D02*
G01*
X136034375Y-126729854D01*
X136045165Y-126735621D01*
X136059188Y-126747130D01*
X136068204Y-126756145D01*
X136088578Y-126769759D01*
X136111217Y-126779135D01*
X136135251Y-126783915D01*
X136159755Y-126783915D01*
X136183788Y-126779134D01*
X136206426Y-126769756D01*
X136226801Y-126756142D01*
X136235817Y-126747126D01*
X136249835Y-126735621D01*
X136260625Y-126729854D01*
X136272330Y-126726303D01*
X136290638Y-126724500D01*
X136654362Y-126724500D01*
X136672670Y-126726303D01*
X136684375Y-126729854D01*
X136695165Y-126735621D01*
X136709188Y-126747130D01*
X136718204Y-126756145D01*
X136738578Y-126769759D01*
X136761217Y-126779135D01*
X136785251Y-126783915D01*
X136809755Y-126783915D01*
X136833788Y-126779134D01*
X136856426Y-126769756D01*
X136876801Y-126756142D01*
X136885817Y-126747126D01*
X136899835Y-126735621D01*
X136910625Y-126729854D01*
X136922330Y-126726303D01*
X136940638Y-126724500D01*
X137304362Y-126724500D01*
X137322670Y-126726303D01*
X137334375Y-126729854D01*
X137345165Y-126735621D01*
X137359188Y-126747130D01*
X137368204Y-126756145D01*
X137388578Y-126769759D01*
X137411217Y-126779135D01*
X137435251Y-126783915D01*
X137459755Y-126783915D01*
X137483788Y-126779134D01*
X137506426Y-126769756D01*
X137526801Y-126756142D01*
X137535817Y-126747126D01*
X137549835Y-126735621D01*
X137560625Y-126729854D01*
X137572330Y-126726303D01*
X137590638Y-126724500D01*
X137954362Y-126724500D01*
X137972670Y-126726303D01*
X137984375Y-126729854D01*
X137995165Y-126735621D01*
X138009188Y-126747130D01*
X138018204Y-126756145D01*
X138038578Y-126769759D01*
X138061217Y-126779135D01*
X138085251Y-126783915D01*
X138109755Y-126783915D01*
X138133788Y-126779134D01*
X138156426Y-126769756D01*
X138176801Y-126756142D01*
X138185817Y-126747126D01*
X138199835Y-126735621D01*
X138210625Y-126729854D01*
X138222330Y-126726303D01*
X138240638Y-126724500D01*
X138604362Y-126724500D01*
X138622670Y-126726303D01*
X138634375Y-126729854D01*
X138645165Y-126735621D01*
X138659188Y-126747130D01*
X138668204Y-126756145D01*
X138688578Y-126769759D01*
X138711217Y-126779135D01*
X138735251Y-126783915D01*
X138759755Y-126783915D01*
X138783788Y-126779134D01*
X138806426Y-126769756D01*
X138826801Y-126756142D01*
X138835817Y-126747126D01*
X138849835Y-126735621D01*
X138860625Y-126729854D01*
X138872330Y-126726303D01*
X138890638Y-126724500D01*
X139254362Y-126724500D01*
X139272670Y-126726303D01*
X139284375Y-126729854D01*
X139295165Y-126735621D01*
X139309188Y-126747130D01*
X139318204Y-126756145D01*
X139338578Y-126769759D01*
X139361217Y-126779135D01*
X139385251Y-126783915D01*
X139409755Y-126783915D01*
X139433788Y-126779134D01*
X139456426Y-126769756D01*
X139476801Y-126756142D01*
X139485817Y-126747126D01*
X139499835Y-126735621D01*
X139510625Y-126729854D01*
X139522330Y-126726303D01*
X139540638Y-126724500D01*
X139904362Y-126724500D01*
X139922670Y-126726303D01*
X139934375Y-126729854D01*
X139945165Y-126735621D01*
X139959188Y-126747130D01*
X139968204Y-126756145D01*
X139988578Y-126769759D01*
X140011217Y-126779135D01*
X140035251Y-126783915D01*
X140059755Y-126783915D01*
X140083788Y-126779134D01*
X140106426Y-126769756D01*
X140126801Y-126756142D01*
X140135817Y-126747126D01*
X140149835Y-126735621D01*
X140160625Y-126729854D01*
X140172330Y-126726303D01*
X140190638Y-126724500D01*
X140554362Y-126724500D01*
X140572670Y-126726303D01*
X140584375Y-126729854D01*
X140595165Y-126735621D01*
X140609188Y-126747130D01*
X140618204Y-126756145D01*
X140638578Y-126769759D01*
X140661217Y-126779135D01*
X140685251Y-126783915D01*
X140709755Y-126783915D01*
X140733788Y-126779134D01*
X140756426Y-126769756D01*
X140776801Y-126756142D01*
X140785817Y-126747126D01*
X140799835Y-126735621D01*
X140810625Y-126729854D01*
X140822330Y-126726303D01*
X140840638Y-126724500D01*
X141204362Y-126724500D01*
X141222670Y-126726303D01*
X141234375Y-126729854D01*
X141245165Y-126735621D01*
X141259188Y-126747130D01*
X141268204Y-126756145D01*
X141288578Y-126769759D01*
X141311217Y-126779135D01*
X141335251Y-126783915D01*
X141359755Y-126783915D01*
X141383788Y-126779134D01*
X141406426Y-126769756D01*
X141426801Y-126756142D01*
X141435817Y-126747126D01*
X141449835Y-126735621D01*
X141460625Y-126729854D01*
X141472330Y-126726303D01*
X141490638Y-126724500D01*
X141854362Y-126724500D01*
X141872670Y-126726303D01*
X141884375Y-126729854D01*
X141895165Y-126735621D01*
X141904619Y-126743381D01*
X141912379Y-126752835D01*
X141918146Y-126763625D01*
X141921697Y-126775330D01*
X141923500Y-126793638D01*
X141923500Y-128232362D01*
X141921697Y-128250670D01*
X141918146Y-128262375D01*
X141912379Y-128273165D01*
X141904619Y-128282619D01*
X141895165Y-128290379D01*
X141884375Y-128296146D01*
X141872670Y-128299697D01*
X141854362Y-128301500D01*
X141490638Y-128301500D01*
X141472330Y-128299697D01*
X141460625Y-128296146D01*
X141449835Y-128290379D01*
X141435812Y-128278870D01*
X141426796Y-128269855D01*
X141406422Y-128256241D01*
X141383783Y-128246865D01*
X141359749Y-128242085D01*
X141335245Y-128242085D01*
X141311212Y-128246866D01*
X141288574Y-128256244D01*
X141268199Y-128269858D01*
X141259183Y-128278874D01*
X141245165Y-128290379D01*
X141234375Y-128296146D01*
X141222670Y-128299697D01*
X141204362Y-128301500D01*
X140840638Y-128301500D01*
X140822330Y-128299697D01*
X140810625Y-128296146D01*
X140799835Y-128290379D01*
X140785812Y-128278870D01*
X140776796Y-128269855D01*
X140756422Y-128256241D01*
X140733783Y-128246865D01*
X140709749Y-128242085D01*
X140685245Y-128242085D01*
X140661212Y-128246866D01*
X140638574Y-128256244D01*
X140618199Y-128269858D01*
X140609183Y-128278874D01*
X140595165Y-128290379D01*
X140584375Y-128296146D01*
X140572670Y-128299697D01*
X140554362Y-128301500D01*
X140190638Y-128301500D01*
X140172330Y-128299697D01*
X140160625Y-128296146D01*
X140149835Y-128290379D01*
X140135812Y-128278870D01*
X140126796Y-128269855D01*
X140106422Y-128256241D01*
X140083783Y-128246865D01*
X140059749Y-128242085D01*
X140035245Y-128242085D01*
X140011212Y-128246866D01*
X139988574Y-128256244D01*
X139968199Y-128269858D01*
X139959183Y-128278874D01*
X139945165Y-128290379D01*
X139934375Y-128296146D01*
X139922670Y-128299697D01*
X139904362Y-128301500D01*
X139540638Y-128301500D01*
X139522330Y-128299697D01*
X139510625Y-128296146D01*
X139499835Y-128290379D01*
X139485812Y-128278870D01*
X139476796Y-128269855D01*
X139456422Y-128256241D01*
X139433783Y-128246865D01*
X139409749Y-128242085D01*
X139385245Y-128242085D01*
X139361212Y-128246866D01*
X139338574Y-128256244D01*
X139318199Y-128269858D01*
X139309183Y-128278874D01*
X139295165Y-128290379D01*
X139284375Y-128296146D01*
X139272670Y-128299697D01*
X139254362Y-128301500D01*
X138890638Y-128301500D01*
X138872330Y-128299697D01*
X138860625Y-128296146D01*
X138849835Y-128290379D01*
X138835812Y-128278870D01*
X138826796Y-128269855D01*
X138806422Y-128256241D01*
X138783783Y-128246865D01*
X138759749Y-128242085D01*
X138735245Y-128242085D01*
X138711212Y-128246866D01*
X138688574Y-128256244D01*
X138668199Y-128269858D01*
X138659183Y-128278874D01*
X138645165Y-128290379D01*
X138634375Y-128296146D01*
X138622670Y-128299697D01*
X138604362Y-128301500D01*
X138240638Y-128301500D01*
X138222330Y-128299697D01*
X138210625Y-128296146D01*
X138199835Y-128290379D01*
X138185812Y-128278870D01*
X138176796Y-128269855D01*
X138156422Y-128256241D01*
X138133783Y-128246865D01*
X138109749Y-128242085D01*
X138085245Y-128242085D01*
X138061212Y-128246866D01*
X138038574Y-128256244D01*
X138018199Y-128269858D01*
X138009183Y-128278874D01*
X137995165Y-128290379D01*
X137984375Y-128296146D01*
X137972670Y-128299697D01*
X137954362Y-128301500D01*
X137590638Y-128301500D01*
X137572330Y-128299697D01*
X137560625Y-128296146D01*
X137549835Y-128290379D01*
X137535812Y-128278870D01*
X137526796Y-128269855D01*
X137506422Y-128256241D01*
X137483783Y-128246865D01*
X137459749Y-128242085D01*
X137435245Y-128242085D01*
X137411212Y-128246866D01*
X137388574Y-128256244D01*
X137368199Y-128269858D01*
X137359183Y-128278874D01*
X137345165Y-128290379D01*
X137334375Y-128296146D01*
X137322670Y-128299697D01*
X137304362Y-128301500D01*
X136940638Y-128301500D01*
X136922330Y-128299697D01*
X136910625Y-128296146D01*
X136899835Y-128290379D01*
X136885812Y-128278870D01*
X136876796Y-128269855D01*
X136856422Y-128256241D01*
X136833783Y-128246865D01*
X136809749Y-128242085D01*
X136785245Y-128242085D01*
X136761212Y-128246866D01*
X136738574Y-128256244D01*
X136718199Y-128269858D01*
X136709183Y-128278874D01*
X136695165Y-128290379D01*
X136684375Y-128296146D01*
X136672670Y-128299697D01*
X136654362Y-128301500D01*
X136290638Y-128301500D01*
X136272330Y-128299697D01*
X136260625Y-128296146D01*
X136249835Y-128290379D01*
X136235812Y-128278870D01*
X136226796Y-128269855D01*
X136206422Y-128256241D01*
X136183783Y-128246865D01*
X136159749Y-128242085D01*
X136135245Y-128242085D01*
X136111212Y-128246866D01*
X136088574Y-128256244D01*
X136068199Y-128269858D01*
X136059183Y-128278874D01*
X136045165Y-128290379D01*
X136034375Y-128296146D01*
X136022670Y-128299697D01*
X136004362Y-128301500D01*
X135640638Y-128301500D01*
X135622330Y-128299697D01*
X135610625Y-128296146D01*
X135599835Y-128290379D01*
X135590381Y-128282619D01*
X135582621Y-128273165D01*
X135576854Y-128262375D01*
X135573303Y-128250670D01*
X135571500Y-128232362D01*
X135571500Y-126793638D01*
X135573303Y-126775330D01*
X135576854Y-126763625D01*
X135582621Y-126752835D01*
X135590381Y-126743381D01*
X135599835Y-126735621D01*
X135610625Y-126729854D01*
X135622330Y-126726303D01*
X135640638Y-126724500D01*
X136004362Y-126724500D01*
X136022670Y-126726303D01*
G37*
G36*
X132193512Y-125786427D02*
G01*
X132342812Y-125816124D01*
X132506784Y-125884044D01*
X132654354Y-125982647D01*
X132779853Y-126108146D01*
X132878456Y-126255716D01*
X132946376Y-126419688D01*
X132981000Y-126593759D01*
X132981000Y-126771241D01*
X132946376Y-126945312D01*
X132878456Y-127109284D01*
X132779853Y-127256854D01*
X132654354Y-127382353D01*
X132506784Y-127480956D01*
X132342812Y-127548876D01*
X132193512Y-127578573D01*
X132168742Y-127583500D01*
X131991258Y-127583500D01*
X131966488Y-127578573D01*
X131817188Y-127548876D01*
X131653216Y-127480956D01*
X131505646Y-127382353D01*
X131380147Y-127256854D01*
X131281544Y-127109284D01*
X131213624Y-126945312D01*
X131179000Y-126771241D01*
X131179000Y-126593759D01*
X131213624Y-126419688D01*
X131281544Y-126255716D01*
X131380147Y-126108146D01*
X131505646Y-125982647D01*
X131653216Y-125884044D01*
X131817188Y-125816124D01*
X131966488Y-125786427D01*
X131991258Y-125781500D01*
X132168742Y-125781500D01*
X132193512Y-125786427D01*
G37*
G36*
X147909000Y-127231000D02*
G01*
X147007000Y-127231000D01*
X147007000Y-125879000D01*
X147909000Y-125879000D01*
X147909000Y-127231000D01*
G37*
G36*
X146109000Y-127231000D02*
G01*
X145207000Y-127231000D01*
X145207000Y-125879000D01*
X146109000Y-125879000D01*
X146109000Y-127231000D01*
G37*
G36*
X115682854Y-121092731D02*
G01*
X110942975Y-125832610D01*
X110092184Y-124981819D01*
X114832063Y-120241940D01*
X115682854Y-121092731D01*
G37*
G36*
X146109000Y-125581000D02*
G01*
X145207000Y-125581000D01*
X145207000Y-124229000D01*
X146109000Y-124229000D01*
X146109000Y-125581000D01*
G37*
G36*
X147909000Y-125581000D02*
G01*
X147007000Y-125581000D01*
X147007000Y-124229000D01*
X147909000Y-124229000D01*
X147909000Y-125581000D01*
G37*
G36*
X132193512Y-123246427D02*
G01*
X132342812Y-123276124D01*
X132506784Y-123344044D01*
X132654354Y-123442647D01*
X132779853Y-123568146D01*
X132878456Y-123715716D01*
X132946376Y-123879688D01*
X132981000Y-124053759D01*
X132981000Y-124231241D01*
X132946376Y-124405312D01*
X132878456Y-124569284D01*
X132779853Y-124716854D01*
X132654354Y-124842353D01*
X132506784Y-124940956D01*
X132342812Y-125008876D01*
X132193512Y-125038573D01*
X132168742Y-125043500D01*
X131991258Y-125043500D01*
X131966488Y-125038573D01*
X131817188Y-125008876D01*
X131653216Y-124940956D01*
X131505646Y-124842353D01*
X131380147Y-124716854D01*
X131281544Y-124569284D01*
X131213624Y-124405312D01*
X131179000Y-124231241D01*
X131179000Y-124053759D01*
X131213624Y-123879688D01*
X131281544Y-123715716D01*
X131380147Y-123568146D01*
X131505646Y-123442647D01*
X131653216Y-123344044D01*
X131817188Y-123276124D01*
X131966488Y-123246427D01*
X131991258Y-123241500D01*
X132168742Y-123241500D01*
X132193512Y-123246427D01*
G37*
G36*
X114268640Y-119678517D02*
G01*
X109528761Y-124418396D01*
X108677970Y-123567605D01*
X113417849Y-118827726D01*
X114268640Y-119678517D01*
G37*
G36*
X112677650Y-118087528D02*
G01*
X107230665Y-123534513D01*
X106026320Y-122330168D01*
X111473305Y-116883183D01*
X112677650Y-118087528D01*
G37*
G36*
X136022670Y-121001303D02*
G01*
X136034375Y-121004854D01*
X136045165Y-121010621D01*
X136059188Y-121022130D01*
X136068204Y-121031145D01*
X136088578Y-121044759D01*
X136111217Y-121054135D01*
X136135251Y-121058915D01*
X136159755Y-121058915D01*
X136183788Y-121054134D01*
X136206426Y-121044756D01*
X136226801Y-121031142D01*
X136235817Y-121022126D01*
X136249835Y-121010621D01*
X136260625Y-121004854D01*
X136272330Y-121001303D01*
X136290638Y-120999500D01*
X136654362Y-120999500D01*
X136672670Y-121001303D01*
X136684375Y-121004854D01*
X136695165Y-121010621D01*
X136709188Y-121022130D01*
X136718204Y-121031145D01*
X136738578Y-121044759D01*
X136761217Y-121054135D01*
X136785251Y-121058915D01*
X136809755Y-121058915D01*
X136833788Y-121054134D01*
X136856426Y-121044756D01*
X136876801Y-121031142D01*
X136885817Y-121022126D01*
X136899835Y-121010621D01*
X136910625Y-121004854D01*
X136922330Y-121001303D01*
X136940638Y-120999500D01*
X137304362Y-120999500D01*
X137322670Y-121001303D01*
X137334375Y-121004854D01*
X137345165Y-121010621D01*
X137359188Y-121022130D01*
X137368204Y-121031145D01*
X137388578Y-121044759D01*
X137411217Y-121054135D01*
X137435251Y-121058915D01*
X137459755Y-121058915D01*
X137483788Y-121054134D01*
X137506426Y-121044756D01*
X137526801Y-121031142D01*
X137535817Y-121022126D01*
X137549835Y-121010621D01*
X137560625Y-121004854D01*
X137572330Y-121001303D01*
X137590638Y-120999500D01*
X137954362Y-120999500D01*
X137972670Y-121001303D01*
X137984375Y-121004854D01*
X137995165Y-121010621D01*
X138009188Y-121022130D01*
X138018204Y-121031145D01*
X138038578Y-121044759D01*
X138061217Y-121054135D01*
X138085251Y-121058915D01*
X138109755Y-121058915D01*
X138133788Y-121054134D01*
X138156426Y-121044756D01*
X138176801Y-121031142D01*
X138185817Y-121022126D01*
X138199835Y-121010621D01*
X138210625Y-121004854D01*
X138222330Y-121001303D01*
X138240638Y-120999500D01*
X138604362Y-120999500D01*
X138622670Y-121001303D01*
X138634375Y-121004854D01*
X138645165Y-121010621D01*
X138659188Y-121022130D01*
X138668204Y-121031145D01*
X138688578Y-121044759D01*
X138711217Y-121054135D01*
X138735251Y-121058915D01*
X138759755Y-121058915D01*
X138783788Y-121054134D01*
X138806426Y-121044756D01*
X138826801Y-121031142D01*
X138835817Y-121022126D01*
X138849835Y-121010621D01*
X138860625Y-121004854D01*
X138872330Y-121001303D01*
X138890638Y-120999500D01*
X139254362Y-120999500D01*
X139272670Y-121001303D01*
X139284375Y-121004854D01*
X139295165Y-121010621D01*
X139309188Y-121022130D01*
X139318204Y-121031145D01*
X139338578Y-121044759D01*
X139361217Y-121054135D01*
X139385251Y-121058915D01*
X139409755Y-121058915D01*
X139433788Y-121054134D01*
X139456426Y-121044756D01*
X139476801Y-121031142D01*
X139485817Y-121022126D01*
X139499835Y-121010621D01*
X139510625Y-121004854D01*
X139522330Y-121001303D01*
X139540638Y-120999500D01*
X139904362Y-120999500D01*
X139922670Y-121001303D01*
X139934375Y-121004854D01*
X139945165Y-121010621D01*
X139959188Y-121022130D01*
X139968204Y-121031145D01*
X139988578Y-121044759D01*
X140011217Y-121054135D01*
X140035251Y-121058915D01*
X140059755Y-121058915D01*
X140083788Y-121054134D01*
X140106426Y-121044756D01*
X140126801Y-121031142D01*
X140135817Y-121022126D01*
X140149835Y-121010621D01*
X140160625Y-121004854D01*
X140172330Y-121001303D01*
X140190638Y-120999500D01*
X140554362Y-120999500D01*
X140572670Y-121001303D01*
X140584375Y-121004854D01*
X140595165Y-121010621D01*
X140609188Y-121022130D01*
X140618204Y-121031145D01*
X140638578Y-121044759D01*
X140661217Y-121054135D01*
X140685251Y-121058915D01*
X140709755Y-121058915D01*
X140733788Y-121054134D01*
X140756426Y-121044756D01*
X140776801Y-121031142D01*
X140785817Y-121022126D01*
X140799835Y-121010621D01*
X140810625Y-121004854D01*
X140822330Y-121001303D01*
X140840638Y-120999500D01*
X141204362Y-120999500D01*
X141222670Y-121001303D01*
X141234375Y-121004854D01*
X141245165Y-121010621D01*
X141259188Y-121022130D01*
X141268204Y-121031145D01*
X141288578Y-121044759D01*
X141311217Y-121054135D01*
X141335251Y-121058915D01*
X141359755Y-121058915D01*
X141383788Y-121054134D01*
X141406426Y-121044756D01*
X141426801Y-121031142D01*
X141435817Y-121022126D01*
X141449835Y-121010621D01*
X141460625Y-121004854D01*
X141472330Y-121001303D01*
X141490638Y-120999500D01*
X141854362Y-120999500D01*
X141872670Y-121001303D01*
X141884375Y-121004854D01*
X141895165Y-121010621D01*
X141904619Y-121018381D01*
X141912379Y-121027835D01*
X141918146Y-121038625D01*
X141921697Y-121050330D01*
X141923500Y-121068638D01*
X141923500Y-122507362D01*
X141921697Y-122525670D01*
X141918146Y-122537375D01*
X141912379Y-122548165D01*
X141904619Y-122557619D01*
X141895165Y-122565379D01*
X141884375Y-122571146D01*
X141872670Y-122574697D01*
X141854362Y-122576500D01*
X141490638Y-122576500D01*
X141472330Y-122574697D01*
X141460625Y-122571146D01*
X141449835Y-122565379D01*
X141435812Y-122553870D01*
X141426796Y-122544855D01*
X141406422Y-122531241D01*
X141383783Y-122521865D01*
X141359749Y-122517085D01*
X141335245Y-122517085D01*
X141311212Y-122521866D01*
X141288574Y-122531244D01*
X141268199Y-122544858D01*
X141259183Y-122553874D01*
X141245165Y-122565379D01*
X141234375Y-122571146D01*
X141222670Y-122574697D01*
X141204362Y-122576500D01*
X140840638Y-122576500D01*
X140822330Y-122574697D01*
X140810625Y-122571146D01*
X140799835Y-122565379D01*
X140785812Y-122553870D01*
X140776796Y-122544855D01*
X140756422Y-122531241D01*
X140733783Y-122521865D01*
X140709749Y-122517085D01*
X140685245Y-122517085D01*
X140661212Y-122521866D01*
X140638574Y-122531244D01*
X140618199Y-122544858D01*
X140609183Y-122553874D01*
X140595165Y-122565379D01*
X140584375Y-122571146D01*
X140572670Y-122574697D01*
X140554362Y-122576500D01*
X140190638Y-122576500D01*
X140172330Y-122574697D01*
X140160625Y-122571146D01*
X140149835Y-122565379D01*
X140135812Y-122553870D01*
X140126796Y-122544855D01*
X140106422Y-122531241D01*
X140083783Y-122521865D01*
X140059749Y-122517085D01*
X140035245Y-122517085D01*
X140011212Y-122521866D01*
X139988574Y-122531244D01*
X139968199Y-122544858D01*
X139959183Y-122553874D01*
X139945165Y-122565379D01*
X139934375Y-122571146D01*
X139922670Y-122574697D01*
X139904362Y-122576500D01*
X139540638Y-122576500D01*
X139522330Y-122574697D01*
X139510625Y-122571146D01*
X139499835Y-122565379D01*
X139485812Y-122553870D01*
X139476796Y-122544855D01*
X139456422Y-122531241D01*
X139433783Y-122521865D01*
X139409749Y-122517085D01*
X139385245Y-122517085D01*
X139361212Y-122521866D01*
X139338574Y-122531244D01*
X139318199Y-122544858D01*
X139309183Y-122553874D01*
X139295165Y-122565379D01*
X139284375Y-122571146D01*
X139272670Y-122574697D01*
X139254362Y-122576500D01*
X138890638Y-122576500D01*
X138872330Y-122574697D01*
X138860625Y-122571146D01*
X138849835Y-122565379D01*
X138835812Y-122553870D01*
X138826796Y-122544855D01*
X138806422Y-122531241D01*
X138783783Y-122521865D01*
X138759749Y-122517085D01*
X138735245Y-122517085D01*
X138711212Y-122521866D01*
X138688574Y-122531244D01*
X138668199Y-122544858D01*
X138659183Y-122553874D01*
X138645165Y-122565379D01*
X138634375Y-122571146D01*
X138622670Y-122574697D01*
X138604362Y-122576500D01*
X138240638Y-122576500D01*
X138222330Y-122574697D01*
X138210625Y-122571146D01*
X138199835Y-122565379D01*
X138185812Y-122553870D01*
X138176796Y-122544855D01*
X138156422Y-122531241D01*
X138133783Y-122521865D01*
X138109749Y-122517085D01*
X138085245Y-122517085D01*
X138061212Y-122521866D01*
X138038574Y-122531244D01*
X138018199Y-122544858D01*
X138009183Y-122553874D01*
X137995165Y-122565379D01*
X137984375Y-122571146D01*
X137972670Y-122574697D01*
X137954362Y-122576500D01*
X137590638Y-122576500D01*
X137572330Y-122574697D01*
X137560625Y-122571146D01*
X137549835Y-122565379D01*
X137535812Y-122553870D01*
X137526796Y-122544855D01*
X137506422Y-122531241D01*
X137483783Y-122521865D01*
X137459749Y-122517085D01*
X137435245Y-122517085D01*
X137411212Y-122521866D01*
X137388574Y-122531244D01*
X137368199Y-122544858D01*
X137359183Y-122553874D01*
X137345165Y-122565379D01*
X137334375Y-122571146D01*
X137322670Y-122574697D01*
X137304362Y-122576500D01*
X136940638Y-122576500D01*
X136922330Y-122574697D01*
X136910625Y-122571146D01*
X136899835Y-122565379D01*
X136885812Y-122553870D01*
X136876796Y-122544855D01*
X136856422Y-122531241D01*
X136833783Y-122521865D01*
X136809749Y-122517085D01*
X136785245Y-122517085D01*
X136761212Y-122521866D01*
X136738574Y-122531244D01*
X136718199Y-122544858D01*
X136709183Y-122553874D01*
X136695165Y-122565379D01*
X136684375Y-122571146D01*
X136672670Y-122574697D01*
X136654362Y-122576500D01*
X136290638Y-122576500D01*
X136272330Y-122574697D01*
X136260625Y-122571146D01*
X136249835Y-122565379D01*
X136235812Y-122553870D01*
X136226796Y-122544855D01*
X136206422Y-122531241D01*
X136183783Y-122521865D01*
X136159749Y-122517085D01*
X136135245Y-122517085D01*
X136111212Y-122521866D01*
X136088574Y-122531244D01*
X136068199Y-122544858D01*
X136059183Y-122553874D01*
X136045165Y-122565379D01*
X136034375Y-122571146D01*
X136022670Y-122574697D01*
X136004362Y-122576500D01*
X135640638Y-122576500D01*
X135622330Y-122574697D01*
X135610625Y-122571146D01*
X135599835Y-122565379D01*
X135590381Y-122557619D01*
X135582621Y-122548165D01*
X135576854Y-122537375D01*
X135573303Y-122525670D01*
X135571500Y-122507362D01*
X135571500Y-121068638D01*
X135573303Y-121050330D01*
X135576854Y-121038625D01*
X135582621Y-121027835D01*
X135590381Y-121018381D01*
X135599835Y-121010621D01*
X135610625Y-121004854D01*
X135622330Y-121001303D01*
X135640638Y-120999500D01*
X136004362Y-120999500D01*
X136022670Y-121001303D01*
G37*
G36*
X132193512Y-120706427D02*
G01*
X132342812Y-120736124D01*
X132506784Y-120804044D01*
X132654354Y-120902647D01*
X132779853Y-121028146D01*
X132878456Y-121175716D01*
X132946376Y-121339688D01*
X132981000Y-121513759D01*
X132981000Y-121691241D01*
X132946376Y-121865312D01*
X132878456Y-122029284D01*
X132779853Y-122176854D01*
X132654354Y-122302353D01*
X132506784Y-122400956D01*
X132342812Y-122468876D01*
X132193512Y-122498573D01*
X132168742Y-122503500D01*
X131991258Y-122503500D01*
X131966488Y-122498573D01*
X131817188Y-122468876D01*
X131653216Y-122400956D01*
X131505646Y-122302353D01*
X131380147Y-122176854D01*
X131281544Y-122029284D01*
X131213624Y-121865312D01*
X131179000Y-121691241D01*
X131179000Y-121513759D01*
X131213624Y-121339688D01*
X131281544Y-121175716D01*
X131380147Y-121028146D01*
X131505646Y-120902647D01*
X131653216Y-120804044D01*
X131817188Y-120736124D01*
X131966488Y-120706427D01*
X131991258Y-120701500D01*
X132168742Y-120701500D01*
X132193512Y-120706427D01*
G37*
G36*
X128681000Y-121341000D02*
G01*
X127519000Y-121341000D01*
X127519000Y-120589000D01*
X128681000Y-120589000D01*
X128681000Y-121341000D01*
G37*
G36*
X126481000Y-121341000D02*
G01*
X125319000Y-121341000D01*
X125319000Y-118689000D01*
X126481000Y-118689000D01*
X126481000Y-121341000D01*
G37*
G36*
X132193512Y-118166427D02*
G01*
X132342812Y-118196124D01*
X132506784Y-118264044D01*
X132654354Y-118362647D01*
X132779853Y-118488146D01*
X132878456Y-118635716D01*
X132946376Y-118799688D01*
X132981000Y-118973759D01*
X132981000Y-119151241D01*
X132946376Y-119325312D01*
X132878456Y-119489284D01*
X132779853Y-119636854D01*
X132654354Y-119762353D01*
X132506784Y-119860956D01*
X132342812Y-119928876D01*
X132193512Y-119958573D01*
X132168742Y-119963500D01*
X131991258Y-119963500D01*
X131966488Y-119958573D01*
X131817188Y-119928876D01*
X131653216Y-119860956D01*
X131505646Y-119762353D01*
X131380147Y-119636854D01*
X131281544Y-119489284D01*
X131213624Y-119325312D01*
X131179000Y-119151241D01*
X131179000Y-118973759D01*
X131213624Y-118799688D01*
X131281544Y-118635716D01*
X131380147Y-118488146D01*
X131505646Y-118362647D01*
X131653216Y-118264044D01*
X131817188Y-118196124D01*
X131966488Y-118166427D01*
X131991258Y-118161500D01*
X132168742Y-118161500D01*
X132193512Y-118166427D01*
G37*
G36*
X147909000Y-119611000D02*
G01*
X147007000Y-119611000D01*
X147007000Y-118259000D01*
X147909000Y-118259000D01*
X147909000Y-119611000D01*
G37*
G36*
X146109000Y-119611000D02*
G01*
X145207000Y-119611000D01*
X145207000Y-118259000D01*
X146109000Y-118259000D01*
X146109000Y-119611000D01*
G37*
G36*
X128681000Y-119441000D02*
G01*
X127519000Y-119441000D01*
X127519000Y-118689000D01*
X128681000Y-118689000D01*
X128681000Y-119441000D01*
G37*
G36*
X141356000Y-118756000D02*
G01*
X140254000Y-118756000D01*
X140254000Y-117754000D01*
X141356000Y-117754000D01*
X141356000Y-118756000D01*
G37*
G36*
X142956000Y-118756000D02*
G01*
X141854000Y-118756000D01*
X141854000Y-117754000D01*
X142956000Y-117754000D01*
X142956000Y-118756000D01*
G37*
G36*
X138174591Y-117778085D02*
G01*
X138208569Y-117788393D01*
X138239890Y-117805134D01*
X138267339Y-117827661D01*
X138289866Y-117855110D01*
X138306607Y-117886431D01*
X138316915Y-117920409D01*
X138321000Y-117961890D01*
X138321000Y-118563110D01*
X138316915Y-118604591D01*
X138306607Y-118638569D01*
X138289866Y-118669890D01*
X138267339Y-118697339D01*
X138239890Y-118719866D01*
X138208569Y-118736607D01*
X138174591Y-118746915D01*
X138133110Y-118751000D01*
X137456890Y-118751000D01*
X137415409Y-118746915D01*
X137381431Y-118736607D01*
X137350110Y-118719866D01*
X137322661Y-118697339D01*
X137300134Y-118669890D01*
X137283393Y-118638569D01*
X137273085Y-118604591D01*
X137269000Y-118563110D01*
X137269000Y-117961890D01*
X137273085Y-117920409D01*
X137283393Y-117886431D01*
X137300134Y-117855110D01*
X137322661Y-117827661D01*
X137350110Y-117805134D01*
X137381431Y-117788393D01*
X137415409Y-117778085D01*
X137456890Y-117774000D01*
X138133110Y-117774000D01*
X138174591Y-117778085D01*
G37*
G36*
X136269591Y-117778085D02*
G01*
X136303569Y-117788393D01*
X136334890Y-117805134D01*
X136362339Y-117827661D01*
X136384866Y-117855110D01*
X136401607Y-117886431D01*
X136411915Y-117920409D01*
X136416000Y-117961890D01*
X136416000Y-118563110D01*
X136411915Y-118604591D01*
X136401607Y-118638569D01*
X136384866Y-118669890D01*
X136362339Y-118697339D01*
X136334890Y-118719866D01*
X136303569Y-118736607D01*
X136269591Y-118746915D01*
X136228110Y-118751000D01*
X135551890Y-118751000D01*
X135510409Y-118746915D01*
X135476431Y-118736607D01*
X135445110Y-118719866D01*
X135417661Y-118697339D01*
X135395134Y-118669890D01*
X135378393Y-118638569D01*
X135368085Y-118604591D01*
X135364000Y-118563110D01*
X135364000Y-117961890D01*
X135368085Y-117920409D01*
X135378393Y-117886431D01*
X135395134Y-117855110D01*
X135417661Y-117827661D01*
X135445110Y-117805134D01*
X135476431Y-117788393D01*
X135510409Y-117778085D01*
X135551890Y-117774000D01*
X136228110Y-117774000D01*
X136269591Y-117778085D01*
G37*
G36*
X147909000Y-117961000D02*
G01*
X147007000Y-117961000D01*
X147007000Y-116609000D01*
X147909000Y-116609000D01*
X147909000Y-117961000D01*
G37*
G36*
X146109000Y-117961000D02*
G01*
X145207000Y-117961000D01*
X145207000Y-116609000D01*
X146109000Y-116609000D01*
X146109000Y-117961000D01*
G37*
G36*
X132981000Y-117423500D02*
G01*
X131179000Y-117423500D01*
X131179000Y-115621500D01*
X132981000Y-115621500D01*
X132981000Y-117423500D01*
G37*
G36*
X123405200Y-117423500D02*
G01*
X121603200Y-117423500D01*
X121603200Y-115621500D01*
X123405200Y-115621500D01*
X123405200Y-117423500D01*
G37*
G36*
X136269591Y-116203085D02*
G01*
X136303569Y-116213393D01*
X136334890Y-116230134D01*
X136362339Y-116252661D01*
X136384866Y-116280110D01*
X136401607Y-116311431D01*
X136411915Y-116345409D01*
X136416000Y-116386890D01*
X136416000Y-116988110D01*
X136411915Y-117029591D01*
X136401607Y-117063569D01*
X136384866Y-117094890D01*
X136362339Y-117122339D01*
X136334890Y-117144866D01*
X136303569Y-117161607D01*
X136269591Y-117171915D01*
X136228110Y-117176000D01*
X135551890Y-117176000D01*
X135510409Y-117171915D01*
X135476431Y-117161607D01*
X135445110Y-117144866D01*
X135417661Y-117122339D01*
X135395134Y-117094890D01*
X135378393Y-117063569D01*
X135368085Y-117029591D01*
X135364000Y-116988110D01*
X135364000Y-116386890D01*
X135368085Y-116345409D01*
X135378393Y-116311431D01*
X135395134Y-116280110D01*
X135417661Y-116252661D01*
X135445110Y-116230134D01*
X135476431Y-116213393D01*
X135510409Y-116203085D01*
X135551890Y-116199000D01*
X136228110Y-116199000D01*
X136269591Y-116203085D01*
G37*
G36*
X138174591Y-116203085D02*
G01*
X138208569Y-116213393D01*
X138239890Y-116230134D01*
X138267339Y-116252661D01*
X138289866Y-116280110D01*
X138306607Y-116311431D01*
X138316915Y-116345409D01*
X138321000Y-116386890D01*
X138321000Y-116988110D01*
X138316915Y-117029591D01*
X138306607Y-117063569D01*
X138289866Y-117094890D01*
X138267339Y-117122339D01*
X138239890Y-117144866D01*
X138208569Y-117161607D01*
X138174591Y-117171915D01*
X138133110Y-117176000D01*
X137456890Y-117176000D01*
X137415409Y-117171915D01*
X137381431Y-117161607D01*
X137350110Y-117144866D01*
X137322661Y-117122339D01*
X137300134Y-117094890D01*
X137283393Y-117063569D01*
X137273085Y-117029591D01*
X137269000Y-116988110D01*
X137269000Y-116386890D01*
X137273085Y-116345409D01*
X137283393Y-116311431D01*
X137300134Y-116280110D01*
X137322661Y-116252661D01*
X137350110Y-116230134D01*
X137381431Y-116213393D01*
X137415409Y-116203085D01*
X137456890Y-116199000D01*
X138133110Y-116199000D01*
X138174591Y-116203085D01*
G37*
G36*
X126744591Y-115873085D02*
G01*
X126778569Y-115883393D01*
X126809890Y-115900134D01*
X126837339Y-115922661D01*
X126859866Y-115950110D01*
X126876607Y-115981431D01*
X126886915Y-116015409D01*
X126891000Y-116056890D01*
X126891000Y-116658110D01*
X126886915Y-116699591D01*
X126876607Y-116733569D01*
X126859866Y-116764890D01*
X126837339Y-116792339D01*
X126809890Y-116814866D01*
X126778569Y-116831607D01*
X126744591Y-116841915D01*
X126703110Y-116846000D01*
X126026890Y-116846000D01*
X125985409Y-116841915D01*
X125951431Y-116831607D01*
X125920110Y-116814866D01*
X125892661Y-116792339D01*
X125870134Y-116764890D01*
X125853393Y-116733569D01*
X125843085Y-116699591D01*
X125839000Y-116658110D01*
X125839000Y-116056890D01*
X125843085Y-116015409D01*
X125853393Y-115981431D01*
X125870134Y-115950110D01*
X125892661Y-115922661D01*
X125920110Y-115900134D01*
X125951431Y-115883393D01*
X125985409Y-115873085D01*
X126026890Y-115869000D01*
X126703110Y-115869000D01*
X126744591Y-115873085D01*
G37*
G36*
X128649591Y-115873085D02*
G01*
X128683569Y-115883393D01*
X128714890Y-115900134D01*
X128742339Y-115922661D01*
X128764866Y-115950110D01*
X128781607Y-115981431D01*
X128791915Y-116015409D01*
X128796000Y-116056890D01*
X128796000Y-116658110D01*
X128791915Y-116699591D01*
X128781607Y-116733569D01*
X128764866Y-116764890D01*
X128742339Y-116792339D01*
X128714890Y-116814866D01*
X128683569Y-116831607D01*
X128649591Y-116841915D01*
X128608110Y-116846000D01*
X127931890Y-116846000D01*
X127890409Y-116841915D01*
X127856431Y-116831607D01*
X127825110Y-116814866D01*
X127797661Y-116792339D01*
X127775134Y-116764890D01*
X127758393Y-116733569D01*
X127748085Y-116699591D01*
X127744000Y-116658110D01*
X127744000Y-116056890D01*
X127748085Y-116015409D01*
X127758393Y-115981431D01*
X127775134Y-115950110D01*
X127797661Y-115922661D01*
X127825110Y-115900134D01*
X127856431Y-115883393D01*
X127890409Y-115873085D01*
X127931890Y-115869000D01*
X128608110Y-115869000D01*
X128649591Y-115873085D01*
G37*
G36*
X126744591Y-114298085D02*
G01*
X126778569Y-114308393D01*
X126809890Y-114325134D01*
X126837339Y-114347661D01*
X126859866Y-114375110D01*
X126876607Y-114406431D01*
X126886915Y-114440409D01*
X126891000Y-114481890D01*
X126891000Y-115083110D01*
X126886915Y-115124591D01*
X126876607Y-115158569D01*
X126859866Y-115189890D01*
X126837339Y-115217339D01*
X126809890Y-115239866D01*
X126778569Y-115256607D01*
X126744591Y-115266915D01*
X126703110Y-115271000D01*
X126026890Y-115271000D01*
X125985409Y-115266915D01*
X125951431Y-115256607D01*
X125920110Y-115239866D01*
X125892661Y-115217339D01*
X125870134Y-115189890D01*
X125853393Y-115158569D01*
X125843085Y-115124591D01*
X125839000Y-115083110D01*
X125839000Y-114481890D01*
X125843085Y-114440409D01*
X125853393Y-114406431D01*
X125870134Y-114375110D01*
X125892661Y-114347661D01*
X125920110Y-114325134D01*
X125951431Y-114308393D01*
X125985409Y-114298085D01*
X126026890Y-114294000D01*
X126703110Y-114294000D01*
X126744591Y-114298085D01*
G37*
G36*
X128649591Y-114298085D02*
G01*
X128683569Y-114308393D01*
X128714890Y-114325134D01*
X128742339Y-114347661D01*
X128764866Y-114375110D01*
X128781607Y-114406431D01*
X128791915Y-114440409D01*
X128796000Y-114481890D01*
X128796000Y-115083110D01*
X128791915Y-115124591D01*
X128781607Y-115158569D01*
X128764866Y-115189890D01*
X128742339Y-115217339D01*
X128714890Y-115239866D01*
X128683569Y-115256607D01*
X128649591Y-115266915D01*
X128608110Y-115271000D01*
X127931890Y-115271000D01*
X127890409Y-115266915D01*
X127856431Y-115256607D01*
X127825110Y-115239866D01*
X127797661Y-115217339D01*
X127775134Y-115189890D01*
X127758393Y-115158569D01*
X127748085Y-115124591D01*
X127744000Y-115083110D01*
X127744000Y-114481890D01*
X127748085Y-114440409D01*
X127758393Y-114406431D01*
X127775134Y-114375110D01*
X127797661Y-114347661D01*
X127825110Y-114325134D01*
X127856431Y-114308393D01*
X127890409Y-114298085D01*
X127931890Y-114294000D01*
X128608110Y-114294000D01*
X128649591Y-114298085D01*
G37*
G36*
X155282700Y-114695200D02*
G01*
X153879500Y-114695200D01*
X153879500Y-113292000D01*
X155282700Y-113292000D01*
X155282700Y-114695200D01*
G37*
G36*
X183662700Y-114695200D02*
G01*
X182259500Y-114695200D01*
X182259500Y-113292000D01*
X183662700Y-113292000D01*
X183662700Y-114695200D01*
G37*
G36*
X153182700Y-114695200D02*
G01*
X151779500Y-114695200D01*
X151779500Y-113292000D01*
X153182700Y-113292000D01*
X153182700Y-114695200D01*
G37*
G36*
X188742700Y-114695200D02*
G01*
X187339500Y-114695200D01*
X187339500Y-113292000D01*
X188742700Y-113292000D01*
X188742700Y-114695200D01*
G37*
G36*
X185762700Y-114695200D02*
G01*
X184359500Y-114695200D01*
X184359500Y-113292000D01*
X185762700Y-113292000D01*
X185762700Y-114695200D01*
G37*
G36*
X158262700Y-114695200D02*
G01*
X156859500Y-114695200D01*
X156859500Y-113292000D01*
X158262700Y-113292000D01*
X158262700Y-114695200D01*
G37*
G36*
X160362700Y-114695200D02*
G01*
X158959500Y-114695200D01*
X158959500Y-113292000D01*
X160362700Y-113292000D01*
X160362700Y-114695200D01*
G37*
G36*
X163342700Y-114695200D02*
G01*
X161939500Y-114695200D01*
X161939500Y-113292000D01*
X163342700Y-113292000D01*
X163342700Y-114695200D01*
G37*
G36*
X165442700Y-114695200D02*
G01*
X164039500Y-114695200D01*
X164039500Y-113292000D01*
X165442700Y-113292000D01*
X165442700Y-114695200D01*
G37*
G36*
X168422700Y-114695200D02*
G01*
X167019500Y-114695200D01*
X167019500Y-113292000D01*
X168422700Y-113292000D01*
X168422700Y-114695200D01*
G37*
G36*
X170522700Y-114695200D02*
G01*
X169119500Y-114695200D01*
X169119500Y-113292000D01*
X170522700Y-113292000D01*
X170522700Y-114695200D01*
G37*
G36*
X173502700Y-114695200D02*
G01*
X172099500Y-114695200D01*
X172099500Y-113292000D01*
X173502700Y-113292000D01*
X173502700Y-114695200D01*
G37*
G36*
X175602700Y-114695200D02*
G01*
X174199500Y-114695200D01*
X174199500Y-113292000D01*
X175602700Y-113292000D01*
X175602700Y-114695200D01*
G37*
G36*
X178582700Y-114695200D02*
G01*
X177179500Y-114695200D01*
X177179500Y-113292000D01*
X178582700Y-113292000D01*
X178582700Y-114695200D01*
G37*
G36*
X180682700Y-114695200D02*
G01*
X179279500Y-114695200D01*
X179279500Y-113292000D01*
X180682700Y-113292000D01*
X180682700Y-114695200D01*
G37*
G36*
X190842700Y-114695200D02*
G01*
X189439500Y-114695200D01*
X189439500Y-113292000D01*
X190842700Y-113292000D01*
X190842700Y-114695200D01*
G37*
G36*
X142956000Y-114656000D02*
G01*
X141854000Y-114656000D01*
X141854000Y-113654000D01*
X142956000Y-113654000D01*
X142956000Y-114656000D01*
G37*
G36*
X141356000Y-114656000D02*
G01*
X140254000Y-114656000D01*
X140254000Y-113654000D01*
X141356000Y-113654000D01*
X141356000Y-114656000D01*
G37*
G36*
X180682700Y-109615200D02*
G01*
X179279500Y-109615200D01*
X179279500Y-108212000D01*
X180682700Y-108212000D01*
X180682700Y-109615200D01*
G37*
G36*
X178582700Y-109615200D02*
G01*
X177179500Y-109615200D01*
X177179500Y-108212000D01*
X178582700Y-108212000D01*
X178582700Y-109615200D01*
G37*
G36*
X175602700Y-109615200D02*
G01*
X174199500Y-109615200D01*
X174199500Y-108212000D01*
X175602700Y-108212000D01*
X175602700Y-109615200D01*
G37*
G36*
X173502700Y-109615200D02*
G01*
X172099500Y-109615200D01*
X172099500Y-108212000D01*
X173502700Y-108212000D01*
X173502700Y-109615200D01*
G37*
G36*
X170522700Y-109615200D02*
G01*
X169119500Y-109615200D01*
X169119500Y-108212000D01*
X170522700Y-108212000D01*
X170522700Y-109615200D01*
G37*
G36*
X168422700Y-109615200D02*
G01*
X167019500Y-109615200D01*
X167019500Y-108212000D01*
X168422700Y-108212000D01*
X168422700Y-109615200D01*
G37*
G36*
X165442700Y-109615200D02*
G01*
X164039500Y-109615200D01*
X164039500Y-108212000D01*
X165442700Y-108212000D01*
X165442700Y-109615200D01*
G37*
G36*
X163342700Y-109615200D02*
G01*
X161939500Y-109615200D01*
X161939500Y-108212000D01*
X163342700Y-108212000D01*
X163342700Y-109615200D01*
G37*
G36*
X160362700Y-109615200D02*
G01*
X158959500Y-109615200D01*
X158959500Y-108212000D01*
X160362700Y-108212000D01*
X160362700Y-109615200D01*
G37*
G36*
X158262700Y-109615200D02*
G01*
X156859500Y-109615200D01*
X156859500Y-108212000D01*
X158262700Y-108212000D01*
X158262700Y-109615200D01*
G37*
G36*
X155282700Y-109615200D02*
G01*
X153879500Y-109615200D01*
X153879500Y-108212000D01*
X155282700Y-108212000D01*
X155282700Y-109615200D01*
G37*
G36*
X153182700Y-109615200D02*
G01*
X151779500Y-109615200D01*
X151779500Y-108212000D01*
X153182700Y-108212000D01*
X153182700Y-109615200D01*
G37*
G36*
X188742700Y-109615200D02*
G01*
X187339500Y-109615200D01*
X187339500Y-108212000D01*
X188742700Y-108212000D01*
X188742700Y-109615200D01*
G37*
G36*
X190842700Y-109615200D02*
G01*
X189439500Y-109615200D01*
X189439500Y-108212000D01*
X190842700Y-108212000D01*
X190842700Y-109615200D01*
G37*
G36*
X183662700Y-109615200D02*
G01*
X182259500Y-109615200D01*
X182259500Y-108212000D01*
X183662700Y-108212000D01*
X183662700Y-109615200D01*
G37*
G36*
X185762700Y-109615200D02*
G01*
X184359500Y-109615200D01*
X184359500Y-108212000D01*
X185762700Y-108212000D01*
X185762700Y-109615200D01*
G37*
G36*
X188742700Y-104535200D02*
G01*
X187339500Y-104535200D01*
X187339500Y-103132000D01*
X188742700Y-103132000D01*
X188742700Y-104535200D01*
G37*
G36*
X180682700Y-104535200D02*
G01*
X179279500Y-104535200D01*
X179279500Y-103132000D01*
X180682700Y-103132000D01*
X180682700Y-104535200D01*
G37*
G36*
X190842700Y-104535200D02*
G01*
X189439500Y-104535200D01*
X189439500Y-103132000D01*
X190842700Y-103132000D01*
X190842700Y-104535200D01*
G37*
G36*
X185762700Y-104535200D02*
G01*
X184359500Y-104535200D01*
X184359500Y-103132000D01*
X185762700Y-103132000D01*
X185762700Y-104535200D01*
G37*
G36*
X183662700Y-104535200D02*
G01*
X182259500Y-104535200D01*
X182259500Y-103132000D01*
X183662700Y-103132000D01*
X183662700Y-104535200D01*
G37*
G36*
X153182700Y-104535200D02*
G01*
X151779500Y-104535200D01*
X151779500Y-103132000D01*
X153182700Y-103132000D01*
X153182700Y-104535200D01*
G37*
G36*
X155282700Y-104535200D02*
G01*
X153879500Y-104535200D01*
X153879500Y-103132000D01*
X155282700Y-103132000D01*
X155282700Y-104535200D01*
G37*
G36*
X158262700Y-104535200D02*
G01*
X156859500Y-104535200D01*
X156859500Y-103132000D01*
X158262700Y-103132000D01*
X158262700Y-104535200D01*
G37*
G36*
X160362700Y-104535200D02*
G01*
X158959500Y-104535200D01*
X158959500Y-103132000D01*
X160362700Y-103132000D01*
X160362700Y-104535200D01*
G37*
G36*
X163342700Y-104535200D02*
G01*
X161939500Y-104535200D01*
X161939500Y-103132000D01*
X163342700Y-103132000D01*
X163342700Y-104535200D01*
G37*
G36*
X165442700Y-104535200D02*
G01*
X164039500Y-104535200D01*
X164039500Y-103132000D01*
X165442700Y-103132000D01*
X165442700Y-104535200D01*
G37*
G36*
X168422700Y-104535200D02*
G01*
X167019500Y-104535200D01*
X167019500Y-103132000D01*
X168422700Y-103132000D01*
X168422700Y-104535200D01*
G37*
G36*
X170522700Y-104535200D02*
G01*
X169119500Y-104535200D01*
X169119500Y-103132000D01*
X170522700Y-103132000D01*
X170522700Y-104535200D01*
G37*
G36*
X173502700Y-104535200D02*
G01*
X172099500Y-104535200D01*
X172099500Y-103132000D01*
X173502700Y-103132000D01*
X173502700Y-104535200D01*
G37*
G36*
X175602700Y-104535200D02*
G01*
X174199500Y-104535200D01*
X174199500Y-103132000D01*
X175602700Y-103132000D01*
X175602700Y-104535200D01*
G37*
G36*
X178582700Y-104535200D02*
G01*
X177179500Y-104535200D01*
X177179500Y-103132000D01*
X178582700Y-103132000D01*
X178582700Y-104535200D01*
G37*
G36*
X185762700Y-99455200D02*
G01*
X184359500Y-99455200D01*
X184359500Y-98052000D01*
X185762700Y-98052000D01*
X185762700Y-99455200D01*
G37*
G36*
X190842700Y-99455200D02*
G01*
X189439500Y-99455200D01*
X189439500Y-98052000D01*
X190842700Y-98052000D01*
X190842700Y-99455200D01*
G37*
G36*
X183662700Y-99455200D02*
G01*
X182259500Y-99455200D01*
X182259500Y-98052000D01*
X183662700Y-98052000D01*
X183662700Y-99455200D01*
G37*
G36*
X180682700Y-99455200D02*
G01*
X179279500Y-99455200D01*
X179279500Y-98052000D01*
X180682700Y-98052000D01*
X180682700Y-99455200D01*
G37*
G36*
X178582700Y-99455200D02*
G01*
X177179500Y-99455200D01*
X177179500Y-98052000D01*
X178582700Y-98052000D01*
X178582700Y-99455200D01*
G37*
G36*
X153182700Y-99455200D02*
G01*
X151779500Y-99455200D01*
X151779500Y-98052000D01*
X153182700Y-98052000D01*
X153182700Y-99455200D01*
G37*
G36*
X155282700Y-99455200D02*
G01*
X153879500Y-99455200D01*
X153879500Y-98052000D01*
X155282700Y-98052000D01*
X155282700Y-99455200D01*
G37*
G36*
X175602700Y-99455200D02*
G01*
X174199500Y-99455200D01*
X174199500Y-98052000D01*
X175602700Y-98052000D01*
X175602700Y-99455200D01*
G37*
G36*
X173502700Y-99455200D02*
G01*
X172099500Y-99455200D01*
X172099500Y-98052000D01*
X173502700Y-98052000D01*
X173502700Y-99455200D01*
G37*
G36*
X170522700Y-99455200D02*
G01*
X169119500Y-99455200D01*
X169119500Y-98052000D01*
X170522700Y-98052000D01*
X170522700Y-99455200D01*
G37*
G36*
X168422700Y-99455200D02*
G01*
X167019500Y-99455200D01*
X167019500Y-98052000D01*
X168422700Y-98052000D01*
X168422700Y-99455200D01*
G37*
G36*
X165442700Y-99455200D02*
G01*
X164039500Y-99455200D01*
X164039500Y-98052000D01*
X165442700Y-98052000D01*
X165442700Y-99455200D01*
G37*
G36*
X163342700Y-99455200D02*
G01*
X161939500Y-99455200D01*
X161939500Y-98052000D01*
X163342700Y-98052000D01*
X163342700Y-99455200D01*
G37*
G36*
X160362700Y-99455200D02*
G01*
X158959500Y-99455200D01*
X158959500Y-98052000D01*
X160362700Y-98052000D01*
X160362700Y-99455200D01*
G37*
G36*
X158262700Y-99455200D02*
G01*
X156859500Y-99455200D01*
X156859500Y-98052000D01*
X158262700Y-98052000D01*
X158262700Y-99455200D01*
G37*
G36*
X188742700Y-99455200D02*
G01*
X187339500Y-99455200D01*
X187339500Y-98052000D01*
X188742700Y-98052000D01*
X188742700Y-99455200D01*
G37*
G36*
X158262700Y-94375200D02*
G01*
X156859500Y-94375200D01*
X156859500Y-92972000D01*
X158262700Y-92972000D01*
X158262700Y-94375200D01*
G37*
G36*
X160362700Y-94375200D02*
G01*
X158959500Y-94375200D01*
X158959500Y-92972000D01*
X160362700Y-92972000D01*
X160362700Y-94375200D01*
G37*
G36*
X163342700Y-94375200D02*
G01*
X161939500Y-94375200D01*
X161939500Y-92972000D01*
X163342700Y-92972000D01*
X163342700Y-94375200D01*
G37*
G36*
X165442700Y-94375200D02*
G01*
X164039500Y-94375200D01*
X164039500Y-92972000D01*
X165442700Y-92972000D01*
X165442700Y-94375200D01*
G37*
G36*
X155282700Y-94375200D02*
G01*
X153879500Y-94375200D01*
X153879500Y-92972000D01*
X155282700Y-92972000D01*
X155282700Y-94375200D01*
G37*
G36*
X153182700Y-94375200D02*
G01*
X151779500Y-94375200D01*
X151779500Y-92972000D01*
X153182700Y-92972000D01*
X153182700Y-94375200D01*
G37*
G36*
X168422700Y-94375200D02*
G01*
X167019500Y-94375200D01*
X167019500Y-92972000D01*
X168422700Y-92972000D01*
X168422700Y-94375200D01*
G37*
G36*
X170522700Y-94375200D02*
G01*
X169119500Y-94375200D01*
X169119500Y-92972000D01*
X170522700Y-92972000D01*
X170522700Y-94375200D01*
G37*
G36*
X173502700Y-94375200D02*
G01*
X172099500Y-94375200D01*
X172099500Y-92972000D01*
X173502700Y-92972000D01*
X173502700Y-94375200D01*
G37*
G36*
X175602700Y-94375200D02*
G01*
X174199500Y-94375200D01*
X174199500Y-92972000D01*
X175602700Y-92972000D01*
X175602700Y-94375200D01*
G37*
G36*
X178582700Y-94375200D02*
G01*
X177179500Y-94375200D01*
X177179500Y-92972000D01*
X178582700Y-92972000D01*
X178582700Y-94375200D01*
G37*
G36*
X180682700Y-94375200D02*
G01*
X179279500Y-94375200D01*
X179279500Y-92972000D01*
X180682700Y-92972000D01*
X180682700Y-94375200D01*
G37*
G36*
X183662700Y-94375200D02*
G01*
X182259500Y-94375200D01*
X182259500Y-92972000D01*
X183662700Y-92972000D01*
X183662700Y-94375200D01*
G37*
G36*
X185762700Y-94375200D02*
G01*
X184359500Y-94375200D01*
X184359500Y-92972000D01*
X185762700Y-92972000D01*
X185762700Y-94375200D01*
G37*
G36*
X188742700Y-94375200D02*
G01*
X187339500Y-94375200D01*
X187339500Y-92972000D01*
X188742700Y-92972000D01*
X188742700Y-94375200D01*
G37*
G36*
X190842700Y-94375200D02*
G01*
X189439500Y-94375200D01*
X189439500Y-92972000D01*
X190842700Y-92972000D01*
X190842700Y-94375200D01*
G37*
G36*
X190842700Y-89295200D02*
G01*
X189439500Y-89295200D01*
X189439500Y-87892000D01*
X190842700Y-87892000D01*
X190842700Y-89295200D01*
G37*
G36*
X188742700Y-89295200D02*
G01*
X187339500Y-89295200D01*
X187339500Y-87892000D01*
X188742700Y-87892000D01*
X188742700Y-89295200D01*
G37*
G36*
X185762700Y-89295200D02*
G01*
X184359500Y-89295200D01*
X184359500Y-87892000D01*
X185762700Y-87892000D01*
X185762700Y-89295200D01*
G37*
G36*
X183662700Y-89295200D02*
G01*
X182259500Y-89295200D01*
X182259500Y-87892000D01*
X183662700Y-87892000D01*
X183662700Y-89295200D01*
G37*
G36*
X180682700Y-89295200D02*
G01*
X179279500Y-89295200D01*
X179279500Y-87892000D01*
X180682700Y-87892000D01*
X180682700Y-89295200D01*
G37*
G36*
X178582700Y-89295200D02*
G01*
X177179500Y-89295200D01*
X177179500Y-87892000D01*
X178582700Y-87892000D01*
X178582700Y-89295200D01*
G37*
G36*
X175602700Y-89295200D02*
G01*
X174199500Y-89295200D01*
X174199500Y-87892000D01*
X175602700Y-87892000D01*
X175602700Y-89295200D01*
G37*
G36*
X173502700Y-89295200D02*
G01*
X172099500Y-89295200D01*
X172099500Y-87892000D01*
X173502700Y-87892000D01*
X173502700Y-89295200D01*
G37*
G36*
X170522700Y-89295200D02*
G01*
X169119500Y-89295200D01*
X169119500Y-87892000D01*
X170522700Y-87892000D01*
X170522700Y-89295200D01*
G37*
G36*
X168422700Y-89295200D02*
G01*
X167019500Y-89295200D01*
X167019500Y-87892000D01*
X168422700Y-87892000D01*
X168422700Y-89295200D01*
G37*
G36*
X165442700Y-89295200D02*
G01*
X164039500Y-89295200D01*
X164039500Y-87892000D01*
X165442700Y-87892000D01*
X165442700Y-89295200D01*
G37*
G36*
X163342700Y-89295200D02*
G01*
X161939500Y-89295200D01*
X161939500Y-87892000D01*
X163342700Y-87892000D01*
X163342700Y-89295200D01*
G37*
G36*
X160362700Y-89295200D02*
G01*
X158959500Y-89295200D01*
X158959500Y-87892000D01*
X160362700Y-87892000D01*
X160362700Y-89295200D01*
G37*
G36*
X158262700Y-89295200D02*
G01*
X156859500Y-89295200D01*
X156859500Y-87892000D01*
X158262700Y-87892000D01*
X158262700Y-89295200D01*
G37*
G36*
X153182700Y-89295200D02*
G01*
X151779500Y-89295200D01*
X151779500Y-87892000D01*
X153182700Y-87892000D01*
X153182700Y-89295200D01*
G37*
G36*
X155282700Y-89295200D02*
G01*
X153879500Y-89295200D01*
X153879500Y-87892000D01*
X155282700Y-87892000D01*
X155282700Y-89295200D01*
G37*
G36*
X170522700Y-84215200D02*
G01*
X169119500Y-84215200D01*
X169119500Y-82812000D01*
X170522700Y-82812000D01*
X170522700Y-84215200D01*
G37*
G36*
X168422700Y-84215200D02*
G01*
X167019500Y-84215200D01*
X167019500Y-82812000D01*
X168422700Y-82812000D01*
X168422700Y-84215200D01*
G37*
G36*
X165442700Y-84215200D02*
G01*
X164039500Y-84215200D01*
X164039500Y-82812000D01*
X165442700Y-82812000D01*
X165442700Y-84215200D01*
G37*
G36*
X163342700Y-84215200D02*
G01*
X161939500Y-84215200D01*
X161939500Y-82812000D01*
X163342700Y-82812000D01*
X163342700Y-84215200D01*
G37*
G36*
X160362700Y-84215200D02*
G01*
X158959500Y-84215200D01*
X158959500Y-82812000D01*
X160362700Y-82812000D01*
X160362700Y-84215200D01*
G37*
G36*
X158262700Y-84215200D02*
G01*
X156859500Y-84215200D01*
X156859500Y-82812000D01*
X158262700Y-82812000D01*
X158262700Y-84215200D01*
G37*
G36*
X173502700Y-84215200D02*
G01*
X172099500Y-84215200D01*
X172099500Y-82812000D01*
X173502700Y-82812000D01*
X173502700Y-84215200D01*
G37*
G36*
X175602700Y-84215200D02*
G01*
X174199500Y-84215200D01*
X174199500Y-82812000D01*
X175602700Y-82812000D01*
X175602700Y-84215200D01*
G37*
G36*
X153182700Y-84215200D02*
G01*
X151779500Y-84215200D01*
X151779500Y-82812000D01*
X153182700Y-82812000D01*
X153182700Y-84215200D01*
G37*
G36*
X155282700Y-84215200D02*
G01*
X153879500Y-84215200D01*
X153879500Y-82812000D01*
X155282700Y-82812000D01*
X155282700Y-84215200D01*
G37*
G36*
X178582700Y-84215200D02*
G01*
X177179500Y-84215200D01*
X177179500Y-82812000D01*
X178582700Y-82812000D01*
X178582700Y-84215200D01*
G37*
G36*
X180682700Y-84215200D02*
G01*
X179279500Y-84215200D01*
X179279500Y-82812000D01*
X180682700Y-82812000D01*
X180682700Y-84215200D01*
G37*
G36*
X183662700Y-84215200D02*
G01*
X182259500Y-84215200D01*
X182259500Y-82812000D01*
X183662700Y-82812000D01*
X183662700Y-84215200D01*
G37*
G36*
X185762700Y-84215200D02*
G01*
X184359500Y-84215200D01*
X184359500Y-82812000D01*
X185762700Y-82812000D01*
X185762700Y-84215200D01*
G37*
G36*
X188742700Y-84215200D02*
G01*
X187339500Y-84215200D01*
X187339500Y-82812000D01*
X188742700Y-82812000D01*
X188742700Y-84215200D01*
G37*
G36*
X190842700Y-84215200D02*
G01*
X189439500Y-84215200D01*
X189439500Y-82812000D01*
X190842700Y-82812000D01*
X190842700Y-84215200D01*
G37*
M02*
