G04 #@! TF.GenerationSoftware,KiCad,Pcbnew,(5.1.5-0-10_14)*
G04 #@! TF.CreationDate,2020-05-09T22:30:08-06:00*
G04 #@! TF.ProjectId,business_card_v1,62757369-6e65-4737-935f-636172645f76,rev?*
G04 #@! TF.SameCoordinates,Original*
G04 #@! TF.FileFunction,Copper,L11,Inr*
G04 #@! TF.FilePolarity,Positive*
%FSLAX46Y46*%
G04 Gerber Fmt 4.6, Leading zero omitted, Abs format (unit mm)*
G04 Created by KiCad (PCBNEW (5.1.5-0-10_14)) date 2020-05-09 22:30:08*
%MOMM*%
%LPD*%
G04 APERTURE LIST*
%ADD10R,1.700000X1.700000*%
%ADD11O,1.700000X1.700000*%
%ADD12C,0.800000*%
%ADD13C,0.756400*%
G04 APERTURE END LIST*
D10*
X122504200Y-116522500D03*
D11*
X132080000Y-126682500D03*
X132080000Y-124142500D03*
X132080000Y-121602500D03*
X132080000Y-119062500D03*
D10*
X132080000Y-116522500D03*
D12*
X142405000Y-117246500D03*
X126365000Y-113728500D03*
X128270000Y-113728500D03*
X135890000Y-115633500D03*
X139065000Y-123126500D03*
X124587000Y-120015000D03*
X112585500Y-117030500D03*
D13*
X152261100Y-115263600D03*
X190361100Y-115263600D03*
X161151100Y-115263600D03*
X166231100Y-115263600D03*
X171311100Y-115263600D03*
X176391100Y-115263600D03*
X181471100Y-115263600D03*
X186551100Y-115263600D03*
X190361100Y-111453600D03*
X157561100Y-111453600D03*
X166231100Y-111453600D03*
X171311100Y-111453600D03*
X176391100Y-111453600D03*
X181471100Y-111453600D03*
X186551100Y-111453600D03*
X156071100Y-106373600D03*
X190361100Y-106373600D03*
X171311100Y-106373600D03*
X176391100Y-106373600D03*
X181471100Y-106373600D03*
X186551100Y-106373600D03*
X162641100Y-106373600D03*
X156071100Y-101293600D03*
X190361100Y-101293600D03*
X186551100Y-101293600D03*
X181471100Y-101293600D03*
X176391100Y-101293600D03*
X161151100Y-101293600D03*
X167721100Y-101293600D03*
X156071100Y-96213600D03*
X190361100Y-96213600D03*
X186551100Y-96213600D03*
X181471100Y-96213600D03*
X166231100Y-96213600D03*
X172801100Y-96213600D03*
X161151100Y-96213600D03*
X156071100Y-91133600D03*
X190361100Y-91133600D03*
X186551100Y-91133600D03*
X161151100Y-91133600D03*
X166231100Y-91133600D03*
X171311100Y-91133600D03*
X177881100Y-91133600D03*
X156071100Y-86053600D03*
X190361100Y-86053600D03*
X161151100Y-86053600D03*
X166231100Y-86053600D03*
X171311100Y-86053600D03*
X176391100Y-86053600D03*
X182961100Y-86053600D03*
D12*
X137795000Y-123126500D03*
X138849000Y-118262500D03*
X140017500Y-126238000D03*
X144589500Y-126123700D03*
X145605500Y-128003300D03*
X143141700Y-120332500D03*
X144589500Y-118503700D03*
X135890000Y-119253000D03*
X141351000Y-126238000D03*
M02*
