G04 #@! TF.GenerationSoftware,KiCad,Pcbnew,(5.1.5-0-10_14)*
G04 #@! TF.CreationDate,2020-05-09T18:14:48-06:00*
G04 #@! TF.ProjectId,business-card-v3-programmer-board-pcb,62757369-6e65-4737-932d-636172642d76,rev?*
G04 #@! TF.SameCoordinates,Original*
G04 #@! TF.FileFunction,Soldermask,Top*
G04 #@! TF.FilePolarity,Negative*
%FSLAX46Y46*%
G04 Gerber Fmt 4.6, Leading zero omitted, Abs format (unit mm)*
G04 Created by KiCad (PCBNEW (5.1.5-0-10_14)) date 2020-05-09 18:14:48*
%MOMM*%
%LPD*%
G04 APERTURE LIST*
%ADD10C,0.100000*%
G04 APERTURE END LIST*
D10*
G36*
X193535787Y-151585462D02*
G01*
X193535790Y-151585463D01*
X193535789Y-151585463D01*
X194182029Y-151853144D01*
X194763631Y-152241758D01*
X195258242Y-152736369D01*
X195646856Y-153317971D01*
X195807353Y-153705445D01*
X195914538Y-153964213D01*
X196051000Y-154650256D01*
X196051000Y-155349744D01*
X195914538Y-156035787D01*
X195914537Y-156035789D01*
X195646856Y-156682029D01*
X195258242Y-157263631D01*
X194763631Y-157758242D01*
X194182029Y-158146856D01*
X193994905Y-158224365D01*
X193535787Y-158414538D01*
X192849744Y-158551000D01*
X192150256Y-158551000D01*
X191464213Y-158414538D01*
X191005095Y-158224365D01*
X190817971Y-158146856D01*
X190236369Y-157758242D01*
X189741758Y-157263631D01*
X189353144Y-156682029D01*
X189085463Y-156035789D01*
X189085462Y-156035787D01*
X188949000Y-155349744D01*
X188949000Y-154650256D01*
X189085462Y-153964213D01*
X189192647Y-153705445D01*
X189353144Y-153317971D01*
X189741758Y-152736369D01*
X190236369Y-152241758D01*
X190817971Y-151853144D01*
X191464211Y-151585463D01*
X191464210Y-151585463D01*
X191464213Y-151585462D01*
X192150256Y-151449000D01*
X192849744Y-151449000D01*
X193535787Y-151585462D01*
G37*
G36*
X103535787Y-151585462D02*
G01*
X103535790Y-151585463D01*
X103535789Y-151585463D01*
X104182029Y-151853144D01*
X104763631Y-152241758D01*
X105258242Y-152736369D01*
X105646856Y-153317971D01*
X105807353Y-153705445D01*
X105914538Y-153964213D01*
X106051000Y-154650256D01*
X106051000Y-155349744D01*
X105914538Y-156035787D01*
X105914537Y-156035789D01*
X105646856Y-156682029D01*
X105258242Y-157263631D01*
X104763631Y-157758242D01*
X104182029Y-158146856D01*
X103994905Y-158224365D01*
X103535787Y-158414538D01*
X102849744Y-158551000D01*
X102150256Y-158551000D01*
X101464213Y-158414538D01*
X101005095Y-158224365D01*
X100817971Y-158146856D01*
X100236369Y-157758242D01*
X99741758Y-157263631D01*
X99353144Y-156682029D01*
X99085463Y-156035789D01*
X99085462Y-156035787D01*
X98949000Y-155349744D01*
X98949000Y-154650256D01*
X99085462Y-153964213D01*
X99192647Y-153705445D01*
X99353144Y-153317971D01*
X99741758Y-152736369D01*
X100236369Y-152241758D01*
X100817971Y-151853144D01*
X101464211Y-151585463D01*
X101464210Y-151585463D01*
X101464213Y-151585462D01*
X102150256Y-151449000D01*
X102849744Y-151449000D01*
X103535787Y-151585462D01*
G37*
G36*
X150806564Y-156397389D02*
G01*
X150997833Y-156476615D01*
X150997835Y-156476616D01*
X151135587Y-156568659D01*
X151169973Y-156591635D01*
X151316365Y-156738027D01*
X151431385Y-156910167D01*
X151510611Y-157101436D01*
X151551000Y-157304484D01*
X151551000Y-157511516D01*
X151510611Y-157714564D01*
X151431385Y-157905833D01*
X151431384Y-157905835D01*
X151316365Y-158077973D01*
X151169973Y-158224365D01*
X150997835Y-158339384D01*
X150997834Y-158339385D01*
X150997833Y-158339385D01*
X150806564Y-158418611D01*
X150603516Y-158459000D01*
X150396484Y-158459000D01*
X150193436Y-158418611D01*
X150002167Y-158339385D01*
X150002166Y-158339385D01*
X150002165Y-158339384D01*
X149830027Y-158224365D01*
X149683635Y-158077973D01*
X149568616Y-157905835D01*
X149568615Y-157905833D01*
X149489389Y-157714564D01*
X149449000Y-157511516D01*
X149449000Y-157304484D01*
X149489389Y-157101436D01*
X149568615Y-156910167D01*
X149683635Y-156738027D01*
X149830027Y-156591635D01*
X149864413Y-156568659D01*
X150002165Y-156476616D01*
X150002167Y-156476615D01*
X150193436Y-156397389D01*
X150396484Y-156357000D01*
X150603516Y-156357000D01*
X150806564Y-156397389D01*
G37*
G36*
X144306564Y-156397389D02*
G01*
X144497833Y-156476615D01*
X144497835Y-156476616D01*
X144635587Y-156568659D01*
X144669973Y-156591635D01*
X144816365Y-156738027D01*
X144931385Y-156910167D01*
X145010611Y-157101436D01*
X145051000Y-157304484D01*
X145051000Y-157511516D01*
X145010611Y-157714564D01*
X144931385Y-157905833D01*
X144931384Y-157905835D01*
X144816365Y-158077973D01*
X144669973Y-158224365D01*
X144497835Y-158339384D01*
X144497834Y-158339385D01*
X144497833Y-158339385D01*
X144306564Y-158418611D01*
X144103516Y-158459000D01*
X143896484Y-158459000D01*
X143693436Y-158418611D01*
X143502167Y-158339385D01*
X143502166Y-158339385D01*
X143502165Y-158339384D01*
X143330027Y-158224365D01*
X143183635Y-158077973D01*
X143068616Y-157905835D01*
X143068615Y-157905833D01*
X142989389Y-157714564D01*
X142949000Y-157511516D01*
X142949000Y-157304484D01*
X142989389Y-157101436D01*
X143068615Y-156910167D01*
X143183635Y-156738027D01*
X143330027Y-156591635D01*
X143364413Y-156568659D01*
X143502165Y-156476616D01*
X143502167Y-156476615D01*
X143693436Y-156397389D01*
X143896484Y-156357000D01*
X144103516Y-156357000D01*
X144306564Y-156397389D01*
G37*
G36*
X157309468Y-156253565D02*
G01*
X157348138Y-156265296D01*
X157383777Y-156284346D01*
X157415017Y-156309983D01*
X157440654Y-156341223D01*
X157459704Y-156376862D01*
X157471435Y-156415532D01*
X157476000Y-156461888D01*
X157476000Y-157538112D01*
X157471435Y-157584468D01*
X157459704Y-157623138D01*
X157440654Y-157658777D01*
X157415017Y-157690017D01*
X157383777Y-157715654D01*
X157348138Y-157734704D01*
X157309468Y-157746435D01*
X157263112Y-157751000D01*
X156611888Y-157751000D01*
X156565532Y-157746435D01*
X156526862Y-157734704D01*
X156491223Y-157715654D01*
X156459983Y-157690017D01*
X156434346Y-157658777D01*
X156415296Y-157623138D01*
X156403565Y-157584468D01*
X156399000Y-157538112D01*
X156399000Y-156461888D01*
X156403565Y-156415532D01*
X156415296Y-156376862D01*
X156434346Y-156341223D01*
X156459983Y-156309983D01*
X156491223Y-156284346D01*
X156526862Y-156265296D01*
X156565532Y-156253565D01*
X156611888Y-156249000D01*
X157263112Y-156249000D01*
X157309468Y-156253565D01*
G37*
G36*
X155434468Y-156253565D02*
G01*
X155473138Y-156265296D01*
X155508777Y-156284346D01*
X155540017Y-156309983D01*
X155565654Y-156341223D01*
X155584704Y-156376862D01*
X155596435Y-156415532D01*
X155601000Y-156461888D01*
X155601000Y-157538112D01*
X155596435Y-157584468D01*
X155584704Y-157623138D01*
X155565654Y-157658777D01*
X155540017Y-157690017D01*
X155508777Y-157715654D01*
X155473138Y-157734704D01*
X155434468Y-157746435D01*
X155388112Y-157751000D01*
X154736888Y-157751000D01*
X154690532Y-157746435D01*
X154651862Y-157734704D01*
X154616223Y-157715654D01*
X154584983Y-157690017D01*
X154559346Y-157658777D01*
X154540296Y-157623138D01*
X154528565Y-157584468D01*
X154524000Y-157538112D01*
X154524000Y-156461888D01*
X154528565Y-156415532D01*
X154540296Y-156376862D01*
X154559346Y-156341223D01*
X154584983Y-156309983D01*
X154616223Y-156284346D01*
X154651862Y-156265296D01*
X154690532Y-156253565D01*
X154736888Y-156249000D01*
X155388112Y-156249000D01*
X155434468Y-156253565D01*
G37*
G36*
X139309468Y-156253565D02*
G01*
X139348138Y-156265296D01*
X139383777Y-156284346D01*
X139415017Y-156309983D01*
X139440654Y-156341223D01*
X139459704Y-156376862D01*
X139471435Y-156415532D01*
X139476000Y-156461888D01*
X139476000Y-157538112D01*
X139471435Y-157584468D01*
X139459704Y-157623138D01*
X139440654Y-157658777D01*
X139415017Y-157690017D01*
X139383777Y-157715654D01*
X139348138Y-157734704D01*
X139309468Y-157746435D01*
X139263112Y-157751000D01*
X138611888Y-157751000D01*
X138565532Y-157746435D01*
X138526862Y-157734704D01*
X138491223Y-157715654D01*
X138459983Y-157690017D01*
X138434346Y-157658777D01*
X138415296Y-157623138D01*
X138403565Y-157584468D01*
X138399000Y-157538112D01*
X138399000Y-156461888D01*
X138403565Y-156415532D01*
X138415296Y-156376862D01*
X138434346Y-156341223D01*
X138459983Y-156309983D01*
X138491223Y-156284346D01*
X138526862Y-156265296D01*
X138565532Y-156253565D01*
X138611888Y-156249000D01*
X139263112Y-156249000D01*
X139309468Y-156253565D01*
G37*
G36*
X137434468Y-156253565D02*
G01*
X137473138Y-156265296D01*
X137508777Y-156284346D01*
X137540017Y-156309983D01*
X137565654Y-156341223D01*
X137584704Y-156376862D01*
X137596435Y-156415532D01*
X137601000Y-156461888D01*
X137601000Y-157538112D01*
X137596435Y-157584468D01*
X137584704Y-157623138D01*
X137565654Y-157658777D01*
X137540017Y-157690017D01*
X137508777Y-157715654D01*
X137473138Y-157734704D01*
X137434468Y-157746435D01*
X137388112Y-157751000D01*
X136736888Y-157751000D01*
X136690532Y-157746435D01*
X136651862Y-157734704D01*
X136616223Y-157715654D01*
X136584983Y-157690017D01*
X136559346Y-157658777D01*
X136540296Y-157623138D01*
X136528565Y-157584468D01*
X136524000Y-157538112D01*
X136524000Y-156461888D01*
X136528565Y-156415532D01*
X136540296Y-156376862D01*
X136559346Y-156341223D01*
X136584983Y-156309983D01*
X136616223Y-156284346D01*
X136651862Y-156265296D01*
X136690532Y-156253565D01*
X136736888Y-156249000D01*
X137388112Y-156249000D01*
X137434468Y-156253565D01*
G37*
G36*
X134809468Y-156253565D02*
G01*
X134848138Y-156265296D01*
X134883777Y-156284346D01*
X134915017Y-156309983D01*
X134940654Y-156341223D01*
X134959704Y-156376862D01*
X134971435Y-156415532D01*
X134976000Y-156461888D01*
X134976000Y-157538112D01*
X134971435Y-157584468D01*
X134959704Y-157623138D01*
X134940654Y-157658777D01*
X134915017Y-157690017D01*
X134883777Y-157715654D01*
X134848138Y-157734704D01*
X134809468Y-157746435D01*
X134763112Y-157751000D01*
X134111888Y-157751000D01*
X134065532Y-157746435D01*
X134026862Y-157734704D01*
X133991223Y-157715654D01*
X133959983Y-157690017D01*
X133934346Y-157658777D01*
X133915296Y-157623138D01*
X133903565Y-157584468D01*
X133899000Y-157538112D01*
X133899000Y-156461888D01*
X133903565Y-156415532D01*
X133915296Y-156376862D01*
X133934346Y-156341223D01*
X133959983Y-156309983D01*
X133991223Y-156284346D01*
X134026862Y-156265296D01*
X134065532Y-156253565D01*
X134111888Y-156249000D01*
X134763112Y-156249000D01*
X134809468Y-156253565D01*
G37*
G36*
X132934468Y-156253565D02*
G01*
X132973138Y-156265296D01*
X133008777Y-156284346D01*
X133040017Y-156309983D01*
X133065654Y-156341223D01*
X133084704Y-156376862D01*
X133096435Y-156415532D01*
X133101000Y-156461888D01*
X133101000Y-157538112D01*
X133096435Y-157584468D01*
X133084704Y-157623138D01*
X133065654Y-157658777D01*
X133040017Y-157690017D01*
X133008777Y-157715654D01*
X132973138Y-157734704D01*
X132934468Y-157746435D01*
X132888112Y-157751000D01*
X132236888Y-157751000D01*
X132190532Y-157746435D01*
X132151862Y-157734704D01*
X132116223Y-157715654D01*
X132084983Y-157690017D01*
X132059346Y-157658777D01*
X132040296Y-157623138D01*
X132028565Y-157584468D01*
X132024000Y-157538112D01*
X132024000Y-156461888D01*
X132028565Y-156415532D01*
X132040296Y-156376862D01*
X132059346Y-156341223D01*
X132084983Y-156309983D01*
X132116223Y-156284346D01*
X132151862Y-156265296D01*
X132190532Y-156253565D01*
X132236888Y-156249000D01*
X132888112Y-156249000D01*
X132934468Y-156253565D01*
G37*
G36*
X157309468Y-153253565D02*
G01*
X157348138Y-153265296D01*
X157383777Y-153284346D01*
X157415017Y-153309983D01*
X157440654Y-153341223D01*
X157459704Y-153376862D01*
X157471435Y-153415532D01*
X157476000Y-153461888D01*
X157476000Y-154538112D01*
X157471435Y-154584468D01*
X157459704Y-154623138D01*
X157440654Y-154658777D01*
X157415017Y-154690017D01*
X157383777Y-154715654D01*
X157348138Y-154734704D01*
X157309468Y-154746435D01*
X157263112Y-154751000D01*
X156611888Y-154751000D01*
X156565532Y-154746435D01*
X156526862Y-154734704D01*
X156491223Y-154715654D01*
X156459983Y-154690017D01*
X156434346Y-154658777D01*
X156415296Y-154623138D01*
X156403565Y-154584468D01*
X156399000Y-154538112D01*
X156399000Y-153461888D01*
X156403565Y-153415532D01*
X156415296Y-153376862D01*
X156434346Y-153341223D01*
X156459983Y-153309983D01*
X156491223Y-153284346D01*
X156526862Y-153265296D01*
X156565532Y-153253565D01*
X156611888Y-153249000D01*
X157263112Y-153249000D01*
X157309468Y-153253565D01*
G37*
G36*
X155434468Y-153253565D02*
G01*
X155473138Y-153265296D01*
X155508777Y-153284346D01*
X155540017Y-153309983D01*
X155565654Y-153341223D01*
X155584704Y-153376862D01*
X155596435Y-153415532D01*
X155601000Y-153461888D01*
X155601000Y-154538112D01*
X155596435Y-154584468D01*
X155584704Y-154623138D01*
X155565654Y-154658777D01*
X155540017Y-154690017D01*
X155508777Y-154715654D01*
X155473138Y-154734704D01*
X155434468Y-154746435D01*
X155388112Y-154751000D01*
X154736888Y-154751000D01*
X154690532Y-154746435D01*
X154651862Y-154734704D01*
X154616223Y-154715654D01*
X154584983Y-154690017D01*
X154559346Y-154658777D01*
X154540296Y-154623138D01*
X154528565Y-154584468D01*
X154524000Y-154538112D01*
X154524000Y-153461888D01*
X154528565Y-153415532D01*
X154540296Y-153376862D01*
X154559346Y-153341223D01*
X154584983Y-153309983D01*
X154616223Y-153284346D01*
X154651862Y-153265296D01*
X154690532Y-153253565D01*
X154736888Y-153249000D01*
X155388112Y-153249000D01*
X155434468Y-153253565D01*
G37*
G36*
X150806564Y-151897389D02*
G01*
X150994728Y-151975329D01*
X150997835Y-151976616D01*
X151169973Y-152091635D01*
X151316365Y-152238027D01*
X151409666Y-152377661D01*
X151431385Y-152410167D01*
X151510611Y-152601436D01*
X151551000Y-152804484D01*
X151551000Y-153011516D01*
X151510611Y-153214564D01*
X151467778Y-153317972D01*
X151431384Y-153405835D01*
X151316365Y-153577973D01*
X151169973Y-153724365D01*
X150997835Y-153839384D01*
X150997834Y-153839385D01*
X150997833Y-153839385D01*
X150806564Y-153918611D01*
X150603516Y-153959000D01*
X150396484Y-153959000D01*
X150193436Y-153918611D01*
X150002167Y-153839385D01*
X150002166Y-153839385D01*
X150002165Y-153839384D01*
X149830027Y-153724365D01*
X149683635Y-153577973D01*
X149568616Y-153405835D01*
X149532222Y-153317972D01*
X149489389Y-153214564D01*
X149449000Y-153011516D01*
X149449000Y-152804484D01*
X149489389Y-152601436D01*
X149568615Y-152410167D01*
X149590335Y-152377661D01*
X149683635Y-152238027D01*
X149830027Y-152091635D01*
X150002165Y-151976616D01*
X150005272Y-151975329D01*
X150193436Y-151897389D01*
X150396484Y-151857000D01*
X150603516Y-151857000D01*
X150806564Y-151897389D01*
G37*
G36*
X144306564Y-151897389D02*
G01*
X144494728Y-151975329D01*
X144497835Y-151976616D01*
X144669973Y-152091635D01*
X144816365Y-152238027D01*
X144909666Y-152377661D01*
X144931385Y-152410167D01*
X145010611Y-152601436D01*
X145051000Y-152804484D01*
X145051000Y-153011516D01*
X145010611Y-153214564D01*
X144967778Y-153317972D01*
X144931384Y-153405835D01*
X144816365Y-153577973D01*
X144669973Y-153724365D01*
X144497835Y-153839384D01*
X144497834Y-153839385D01*
X144497833Y-153839385D01*
X144306564Y-153918611D01*
X144103516Y-153959000D01*
X143896484Y-153959000D01*
X143693436Y-153918611D01*
X143502167Y-153839385D01*
X143502166Y-153839385D01*
X143502165Y-153839384D01*
X143330027Y-153724365D01*
X143183635Y-153577973D01*
X143068616Y-153405835D01*
X143032222Y-153317972D01*
X142989389Y-153214564D01*
X142949000Y-153011516D01*
X142949000Y-152804484D01*
X142989389Y-152601436D01*
X143068615Y-152410167D01*
X143090335Y-152377661D01*
X143183635Y-152238027D01*
X143330027Y-152091635D01*
X143502165Y-151976616D01*
X143505272Y-151975329D01*
X143693436Y-151897389D01*
X143896484Y-151857000D01*
X144103516Y-151857000D01*
X144306564Y-151897389D01*
G37*
G36*
X133659928Y-153056764D02*
G01*
X133681009Y-153063160D01*
X133700445Y-153073548D01*
X133717476Y-153087524D01*
X133731452Y-153104555D01*
X133741840Y-153123991D01*
X133748236Y-153145072D01*
X133751000Y-153173140D01*
X133751000Y-153636860D01*
X133748236Y-153664928D01*
X133741840Y-153686009D01*
X133731452Y-153705445D01*
X133717476Y-153722476D01*
X133700445Y-153736452D01*
X133681009Y-153746840D01*
X133659928Y-153753236D01*
X133631860Y-153756000D01*
X132118140Y-153756000D01*
X132090072Y-153753236D01*
X132068991Y-153746840D01*
X132049555Y-153736452D01*
X132032524Y-153722476D01*
X132018548Y-153705445D01*
X132008160Y-153686009D01*
X132001764Y-153664928D01*
X131999000Y-153636860D01*
X131999000Y-153173140D01*
X132001764Y-153145072D01*
X132008160Y-153123991D01*
X132018548Y-153104555D01*
X132032524Y-153087524D01*
X132049555Y-153073548D01*
X132068991Y-153063160D01*
X132090072Y-153056764D01*
X132118140Y-153054000D01*
X133631860Y-153054000D01*
X133659928Y-153056764D01*
G37*
G36*
X138909928Y-153056764D02*
G01*
X138931009Y-153063160D01*
X138950445Y-153073548D01*
X138967476Y-153087524D01*
X138981452Y-153104555D01*
X138991840Y-153123991D01*
X138998236Y-153145072D01*
X139001000Y-153173140D01*
X139001000Y-153636860D01*
X138998236Y-153664928D01*
X138991840Y-153686009D01*
X138981452Y-153705445D01*
X138967476Y-153722476D01*
X138950445Y-153736452D01*
X138931009Y-153746840D01*
X138909928Y-153753236D01*
X138881860Y-153756000D01*
X137368140Y-153756000D01*
X137340072Y-153753236D01*
X137318991Y-153746840D01*
X137299555Y-153736452D01*
X137282524Y-153722476D01*
X137268548Y-153705445D01*
X137258160Y-153686009D01*
X137251764Y-153664928D01*
X137249000Y-153636860D01*
X137249000Y-153173140D01*
X137251764Y-153145072D01*
X137258160Y-153123991D01*
X137268548Y-153104555D01*
X137282524Y-153087524D01*
X137299555Y-153073548D01*
X137318991Y-153063160D01*
X137340072Y-153056764D01*
X137368140Y-153054000D01*
X138881860Y-153054000D01*
X138909928Y-153056764D01*
G37*
G36*
X133659928Y-151786764D02*
G01*
X133681009Y-151793160D01*
X133700445Y-151803548D01*
X133717476Y-151817524D01*
X133731452Y-151834555D01*
X133741840Y-151853991D01*
X133748236Y-151875072D01*
X133751000Y-151903140D01*
X133751000Y-152366860D01*
X133748236Y-152394928D01*
X133741840Y-152416009D01*
X133731452Y-152435445D01*
X133717476Y-152452476D01*
X133700445Y-152466452D01*
X133681009Y-152476840D01*
X133659928Y-152483236D01*
X133631860Y-152486000D01*
X132118140Y-152486000D01*
X132090072Y-152483236D01*
X132068991Y-152476840D01*
X132049555Y-152466452D01*
X132032524Y-152452476D01*
X132018548Y-152435445D01*
X132008160Y-152416009D01*
X132001764Y-152394928D01*
X131999000Y-152366860D01*
X131999000Y-151903140D01*
X132001764Y-151875072D01*
X132008160Y-151853991D01*
X132018548Y-151834555D01*
X132032524Y-151817524D01*
X132049555Y-151803548D01*
X132068991Y-151793160D01*
X132090072Y-151786764D01*
X132118140Y-151784000D01*
X133631860Y-151784000D01*
X133659928Y-151786764D01*
G37*
G36*
X138909928Y-151786764D02*
G01*
X138931009Y-151793160D01*
X138950445Y-151803548D01*
X138967476Y-151817524D01*
X138981452Y-151834555D01*
X138991840Y-151853991D01*
X138998236Y-151875072D01*
X139001000Y-151903140D01*
X139001000Y-152366860D01*
X138998236Y-152394928D01*
X138991840Y-152416009D01*
X138981452Y-152435445D01*
X138967476Y-152452476D01*
X138950445Y-152466452D01*
X138931009Y-152476840D01*
X138909928Y-152483236D01*
X138881860Y-152486000D01*
X137368140Y-152486000D01*
X137340072Y-152483236D01*
X137318991Y-152476840D01*
X137299555Y-152466452D01*
X137282524Y-152452476D01*
X137268548Y-152435445D01*
X137258160Y-152416009D01*
X137251764Y-152394928D01*
X137249000Y-152366860D01*
X137249000Y-151903140D01*
X137251764Y-151875072D01*
X137258160Y-151853991D01*
X137268548Y-151834555D01*
X137282524Y-151817524D01*
X137299555Y-151803548D01*
X137318991Y-151793160D01*
X137340072Y-151786764D01*
X137368140Y-151784000D01*
X138881860Y-151784000D01*
X138909928Y-151786764D01*
G37*
G36*
X133659928Y-150516764D02*
G01*
X133681009Y-150523160D01*
X133700445Y-150533548D01*
X133717476Y-150547524D01*
X133731452Y-150564555D01*
X133741840Y-150583991D01*
X133748236Y-150605072D01*
X133751000Y-150633140D01*
X133751000Y-151096860D01*
X133748236Y-151124928D01*
X133741840Y-151146009D01*
X133731452Y-151165445D01*
X133717476Y-151182476D01*
X133700445Y-151196452D01*
X133681009Y-151206840D01*
X133659928Y-151213236D01*
X133631860Y-151216000D01*
X132118140Y-151216000D01*
X132090072Y-151213236D01*
X132068991Y-151206840D01*
X132049555Y-151196452D01*
X132032524Y-151182476D01*
X132018548Y-151165445D01*
X132008160Y-151146009D01*
X132001764Y-151124928D01*
X131999000Y-151096860D01*
X131999000Y-150633140D01*
X132001764Y-150605072D01*
X132008160Y-150583991D01*
X132018548Y-150564555D01*
X132032524Y-150547524D01*
X132049555Y-150533548D01*
X132068991Y-150523160D01*
X132090072Y-150516764D01*
X132118140Y-150514000D01*
X133631860Y-150514000D01*
X133659928Y-150516764D01*
G37*
G36*
X138909928Y-150516764D02*
G01*
X138931009Y-150523160D01*
X138950445Y-150533548D01*
X138967476Y-150547524D01*
X138981452Y-150564555D01*
X138991840Y-150583991D01*
X138998236Y-150605072D01*
X139001000Y-150633140D01*
X139001000Y-151096860D01*
X138998236Y-151124928D01*
X138991840Y-151146009D01*
X138981452Y-151165445D01*
X138967476Y-151182476D01*
X138950445Y-151196452D01*
X138931009Y-151206840D01*
X138909928Y-151213236D01*
X138881860Y-151216000D01*
X137368140Y-151216000D01*
X137340072Y-151213236D01*
X137318991Y-151206840D01*
X137299555Y-151196452D01*
X137282524Y-151182476D01*
X137268548Y-151165445D01*
X137258160Y-151146009D01*
X137251764Y-151124928D01*
X137249000Y-151096860D01*
X137249000Y-150633140D01*
X137251764Y-150605072D01*
X137258160Y-150583991D01*
X137268548Y-150564555D01*
X137282524Y-150547524D01*
X137299555Y-150533548D01*
X137318991Y-150523160D01*
X137340072Y-150516764D01*
X137368140Y-150514000D01*
X138881860Y-150514000D01*
X138909928Y-150516764D01*
G37*
G36*
X133659928Y-149246764D02*
G01*
X133681009Y-149253160D01*
X133700445Y-149263548D01*
X133717476Y-149277524D01*
X133731452Y-149294555D01*
X133741840Y-149313991D01*
X133748236Y-149335072D01*
X133751000Y-149363140D01*
X133751000Y-149826860D01*
X133748236Y-149854928D01*
X133741840Y-149876009D01*
X133731452Y-149895445D01*
X133717476Y-149912476D01*
X133700445Y-149926452D01*
X133681009Y-149936840D01*
X133659928Y-149943236D01*
X133631860Y-149946000D01*
X132118140Y-149946000D01*
X132090072Y-149943236D01*
X132068991Y-149936840D01*
X132049555Y-149926452D01*
X132032524Y-149912476D01*
X132018548Y-149895445D01*
X132008160Y-149876009D01*
X132001764Y-149854928D01*
X131999000Y-149826860D01*
X131999000Y-149363140D01*
X132001764Y-149335072D01*
X132008160Y-149313991D01*
X132018548Y-149294555D01*
X132032524Y-149277524D01*
X132049555Y-149263548D01*
X132068991Y-149253160D01*
X132090072Y-149246764D01*
X132118140Y-149244000D01*
X133631860Y-149244000D01*
X133659928Y-149246764D01*
G37*
G36*
X138909928Y-149246764D02*
G01*
X138931009Y-149253160D01*
X138950445Y-149263548D01*
X138967476Y-149277524D01*
X138981452Y-149294555D01*
X138991840Y-149313991D01*
X138998236Y-149335072D01*
X139001000Y-149363140D01*
X139001000Y-149826860D01*
X138998236Y-149854928D01*
X138991840Y-149876009D01*
X138981452Y-149895445D01*
X138967476Y-149912476D01*
X138950445Y-149926452D01*
X138931009Y-149936840D01*
X138909928Y-149943236D01*
X138881860Y-149946000D01*
X137368140Y-149946000D01*
X137340072Y-149943236D01*
X137318991Y-149936840D01*
X137299555Y-149926452D01*
X137282524Y-149912476D01*
X137268548Y-149895445D01*
X137258160Y-149876009D01*
X137251764Y-149854928D01*
X137249000Y-149826860D01*
X137249000Y-149363140D01*
X137251764Y-149335072D01*
X137258160Y-149313991D01*
X137268548Y-149294555D01*
X137282524Y-149277524D01*
X137299555Y-149263548D01*
X137318991Y-149253160D01*
X137340072Y-149246764D01*
X137368140Y-149244000D01*
X138881860Y-149244000D01*
X138909928Y-149246764D01*
G37*
G36*
X134936591Y-145782085D02*
G01*
X134970569Y-145792393D01*
X135001890Y-145809134D01*
X135029339Y-145831661D01*
X135051866Y-145859110D01*
X135068607Y-145890431D01*
X135078915Y-145924409D01*
X135083000Y-145965890D01*
X135083000Y-146642110D01*
X135078915Y-146683591D01*
X135068607Y-146717569D01*
X135051866Y-146748890D01*
X135029339Y-146776339D01*
X135001890Y-146798866D01*
X134970569Y-146815607D01*
X134936591Y-146825915D01*
X134895110Y-146830000D01*
X134293890Y-146830000D01*
X134252409Y-146825915D01*
X134218431Y-146815607D01*
X134187110Y-146798866D01*
X134159661Y-146776339D01*
X134137134Y-146748890D01*
X134120393Y-146717569D01*
X134110085Y-146683591D01*
X134106000Y-146642110D01*
X134106000Y-145965890D01*
X134110085Y-145924409D01*
X134120393Y-145890431D01*
X134137134Y-145859110D01*
X134159661Y-145831661D01*
X134187110Y-145809134D01*
X134218431Y-145792393D01*
X134252409Y-145782085D01*
X134293890Y-145778000D01*
X134895110Y-145778000D01*
X134936591Y-145782085D01*
G37*
G36*
X136511591Y-145782085D02*
G01*
X136545569Y-145792393D01*
X136576890Y-145809134D01*
X136604339Y-145831661D01*
X136626866Y-145859110D01*
X136643607Y-145890431D01*
X136653915Y-145924409D01*
X136658000Y-145965890D01*
X136658000Y-146642110D01*
X136653915Y-146683591D01*
X136643607Y-146717569D01*
X136626866Y-146748890D01*
X136604339Y-146776339D01*
X136576890Y-146798866D01*
X136545569Y-146815607D01*
X136511591Y-146825915D01*
X136470110Y-146830000D01*
X135868890Y-146830000D01*
X135827409Y-146825915D01*
X135793431Y-146815607D01*
X135762110Y-146798866D01*
X135734661Y-146776339D01*
X135712134Y-146748890D01*
X135695393Y-146717569D01*
X135685085Y-146683591D01*
X135681000Y-146642110D01*
X135681000Y-145965890D01*
X135685085Y-145924409D01*
X135695393Y-145890431D01*
X135712134Y-145859110D01*
X135734661Y-145831661D01*
X135762110Y-145809134D01*
X135793431Y-145792393D01*
X135827409Y-145782085D01*
X135868890Y-145778000D01*
X136470110Y-145778000D01*
X136511591Y-145782085D01*
G37*
G36*
X130689512Y-131463927D02*
G01*
X130838812Y-131493624D01*
X131002784Y-131561544D01*
X131150354Y-131660147D01*
X131275853Y-131785646D01*
X131374456Y-131933216D01*
X131442376Y-132097188D01*
X131477000Y-132271259D01*
X131477000Y-132448741D01*
X131442376Y-132622812D01*
X131374456Y-132786784D01*
X131275853Y-132934354D01*
X131150354Y-133059853D01*
X131002784Y-133158456D01*
X130838812Y-133226376D01*
X130689512Y-133256073D01*
X130664742Y-133261000D01*
X130487258Y-133261000D01*
X130462488Y-133256073D01*
X130313188Y-133226376D01*
X130149216Y-133158456D01*
X130001646Y-133059853D01*
X129876147Y-132934354D01*
X129777544Y-132786784D01*
X129709624Y-132622812D01*
X129675000Y-132448741D01*
X129675000Y-132271259D01*
X129709624Y-132097188D01*
X129777544Y-131933216D01*
X129876147Y-131785646D01*
X130001646Y-131660147D01*
X130149216Y-131561544D01*
X130313188Y-131493624D01*
X130462488Y-131463927D01*
X130487258Y-131459000D01*
X130664742Y-131459000D01*
X130689512Y-131463927D01*
G37*
G36*
X130689512Y-128923927D02*
G01*
X130838812Y-128953624D01*
X131002784Y-129021544D01*
X131150354Y-129120147D01*
X131275853Y-129245646D01*
X131374456Y-129393216D01*
X131442376Y-129557188D01*
X131477000Y-129731259D01*
X131477000Y-129908741D01*
X131442376Y-130082812D01*
X131374456Y-130246784D01*
X131275853Y-130394354D01*
X131150354Y-130519853D01*
X131002784Y-130618456D01*
X130838812Y-130686376D01*
X130689512Y-130716073D01*
X130664742Y-130721000D01*
X130487258Y-130721000D01*
X130462488Y-130716073D01*
X130313188Y-130686376D01*
X130149216Y-130618456D01*
X130001646Y-130519853D01*
X129876147Y-130394354D01*
X129777544Y-130246784D01*
X129709624Y-130082812D01*
X129675000Y-129908741D01*
X129675000Y-129731259D01*
X129709624Y-129557188D01*
X129777544Y-129393216D01*
X129876147Y-129245646D01*
X130001646Y-129120147D01*
X130149216Y-129021544D01*
X130313188Y-128953624D01*
X130462488Y-128923927D01*
X130487258Y-128919000D01*
X130664742Y-128919000D01*
X130689512Y-128923927D01*
G37*
G36*
X130689512Y-126383927D02*
G01*
X130838812Y-126413624D01*
X131002784Y-126481544D01*
X131150354Y-126580147D01*
X131275853Y-126705646D01*
X131374456Y-126853216D01*
X131442376Y-127017188D01*
X131477000Y-127191259D01*
X131477000Y-127368741D01*
X131442376Y-127542812D01*
X131374456Y-127706784D01*
X131275853Y-127854354D01*
X131150354Y-127979853D01*
X131002784Y-128078456D01*
X130838812Y-128146376D01*
X130689512Y-128176073D01*
X130664742Y-128181000D01*
X130487258Y-128181000D01*
X130462488Y-128176073D01*
X130313188Y-128146376D01*
X130149216Y-128078456D01*
X130001646Y-127979853D01*
X129876147Y-127854354D01*
X129777544Y-127706784D01*
X129709624Y-127542812D01*
X129675000Y-127368741D01*
X129675000Y-127191259D01*
X129709624Y-127017188D01*
X129777544Y-126853216D01*
X129876147Y-126705646D01*
X130001646Y-126580147D01*
X130149216Y-126481544D01*
X130313188Y-126413624D01*
X130462488Y-126383927D01*
X130487258Y-126379000D01*
X130664742Y-126379000D01*
X130689512Y-126383927D01*
G37*
G36*
X130689512Y-123843927D02*
G01*
X130838812Y-123873624D01*
X131002784Y-123941544D01*
X131150354Y-124040147D01*
X131275853Y-124165646D01*
X131374456Y-124313216D01*
X131442376Y-124477188D01*
X131477000Y-124651259D01*
X131477000Y-124828741D01*
X131442376Y-125002812D01*
X131374456Y-125166784D01*
X131275853Y-125314354D01*
X131150354Y-125439853D01*
X131002784Y-125538456D01*
X130838812Y-125606376D01*
X130689512Y-125636073D01*
X130664742Y-125641000D01*
X130487258Y-125641000D01*
X130462488Y-125636073D01*
X130313188Y-125606376D01*
X130149216Y-125538456D01*
X130001646Y-125439853D01*
X129876147Y-125314354D01*
X129777544Y-125166784D01*
X129709624Y-125002812D01*
X129675000Y-124828741D01*
X129675000Y-124651259D01*
X129709624Y-124477188D01*
X129777544Y-124313216D01*
X129876147Y-124165646D01*
X130001646Y-124040147D01*
X130149216Y-123941544D01*
X130313188Y-123873624D01*
X130462488Y-123843927D01*
X130487258Y-123839000D01*
X130664742Y-123839000D01*
X130689512Y-123843927D01*
G37*
G36*
X131477000Y-123101000D02*
G01*
X129675000Y-123101000D01*
X129675000Y-121299000D01*
X131477000Y-121299000D01*
X131477000Y-123101000D01*
G37*
G36*
X121901000Y-123101000D02*
G01*
X120099000Y-123101000D01*
X120099000Y-121299000D01*
X121901000Y-121299000D01*
X121901000Y-123101000D01*
G37*
G36*
X158879591Y-81303085D02*
G01*
X158913569Y-81313393D01*
X158944890Y-81330134D01*
X158972339Y-81352661D01*
X158994866Y-81380110D01*
X159011607Y-81411431D01*
X159021915Y-81445409D01*
X159026000Y-81486890D01*
X159026000Y-82088110D01*
X159021915Y-82129591D01*
X159011607Y-82163569D01*
X158994866Y-82194890D01*
X158972339Y-82222339D01*
X158944890Y-82244866D01*
X158913569Y-82261607D01*
X158879591Y-82271915D01*
X158838110Y-82276000D01*
X158161890Y-82276000D01*
X158120409Y-82271915D01*
X158086431Y-82261607D01*
X158055110Y-82244866D01*
X158027661Y-82222339D01*
X158005134Y-82194890D01*
X157988393Y-82163569D01*
X157978085Y-82129591D01*
X157974000Y-82088110D01*
X157974000Y-81486890D01*
X157978085Y-81445409D01*
X157988393Y-81411431D01*
X158005134Y-81380110D01*
X158027661Y-81352661D01*
X158055110Y-81330134D01*
X158086431Y-81313393D01*
X158120409Y-81303085D01*
X158161890Y-81299000D01*
X158838110Y-81299000D01*
X158879591Y-81303085D01*
G37*
G36*
X149230997Y-80153051D02*
G01*
X149264652Y-80163261D01*
X149295665Y-80179838D01*
X149322851Y-80202149D01*
X149345162Y-80229335D01*
X149361739Y-80260348D01*
X149371949Y-80294003D01*
X149376000Y-80335138D01*
X149376000Y-81664862D01*
X149371949Y-81705997D01*
X149361739Y-81739652D01*
X149345162Y-81770665D01*
X149322851Y-81797851D01*
X149295665Y-81820162D01*
X149264652Y-81836739D01*
X149230997Y-81846949D01*
X149189862Y-81851000D01*
X146685138Y-81851000D01*
X146644003Y-81846949D01*
X146610348Y-81836739D01*
X146579335Y-81820162D01*
X146552149Y-81797851D01*
X146529838Y-81770665D01*
X146513261Y-81739652D01*
X146503051Y-81705997D01*
X146499000Y-81664862D01*
X146499000Y-80335138D01*
X146503051Y-80294003D01*
X146513261Y-80260348D01*
X146529838Y-80229335D01*
X146552149Y-80202149D01*
X146579335Y-80179838D01*
X146610348Y-80163261D01*
X146644003Y-80153051D01*
X146685138Y-80149000D01*
X149189862Y-80149000D01*
X149230997Y-80153051D01*
G37*
G36*
X153355997Y-80153051D02*
G01*
X153389652Y-80163261D01*
X153420665Y-80179838D01*
X153447851Y-80202149D01*
X153470162Y-80229335D01*
X153486739Y-80260348D01*
X153496949Y-80294003D01*
X153501000Y-80335138D01*
X153501000Y-81664862D01*
X153496949Y-81705997D01*
X153486739Y-81739652D01*
X153470162Y-81770665D01*
X153447851Y-81797851D01*
X153420665Y-81820162D01*
X153389652Y-81836739D01*
X153355997Y-81846949D01*
X153314862Y-81851000D01*
X150810138Y-81851000D01*
X150769003Y-81846949D01*
X150735348Y-81836739D01*
X150704335Y-81820162D01*
X150677149Y-81797851D01*
X150654838Y-81770665D01*
X150638261Y-81739652D01*
X150628051Y-81705997D01*
X150624000Y-81664862D01*
X150624000Y-80335138D01*
X150628051Y-80294003D01*
X150638261Y-80260348D01*
X150654838Y-80229335D01*
X150677149Y-80202149D01*
X150704335Y-80179838D01*
X150735348Y-80163261D01*
X150769003Y-80153051D01*
X150810138Y-80149000D01*
X153314862Y-80149000D01*
X153355997Y-80153051D01*
G37*
G36*
X158879591Y-79728085D02*
G01*
X158913569Y-79738393D01*
X158944890Y-79755134D01*
X158972339Y-79777661D01*
X158994866Y-79805110D01*
X159011607Y-79836431D01*
X159021915Y-79870409D01*
X159026000Y-79911890D01*
X159026000Y-80513110D01*
X159021915Y-80554591D01*
X159011607Y-80588569D01*
X158994866Y-80619890D01*
X158972339Y-80647339D01*
X158944890Y-80669866D01*
X158913569Y-80686607D01*
X158879591Y-80696915D01*
X158838110Y-80701000D01*
X158161890Y-80701000D01*
X158120409Y-80696915D01*
X158086431Y-80686607D01*
X158055110Y-80669866D01*
X158027661Y-80647339D01*
X158005134Y-80619890D01*
X157988393Y-80588569D01*
X157978085Y-80554591D01*
X157974000Y-80513110D01*
X157974000Y-79911890D01*
X157978085Y-79870409D01*
X157988393Y-79836431D01*
X158005134Y-79805110D01*
X158027661Y-79777661D01*
X158055110Y-79755134D01*
X158086431Y-79738393D01*
X158120409Y-79728085D01*
X158161890Y-79724000D01*
X158838110Y-79724000D01*
X158879591Y-79728085D01*
G37*
G36*
X149801000Y-75801000D02*
G01*
X146199000Y-75801000D01*
X146199000Y-72199000D01*
X149801000Y-72199000D01*
X149801000Y-75801000D01*
G37*
G36*
X158806564Y-73069389D02*
G01*
X158997833Y-73148615D01*
X158997835Y-73148616D01*
X159169973Y-73263635D01*
X159316365Y-73410027D01*
X159431385Y-73582167D01*
X159510611Y-73773436D01*
X159551000Y-73976484D01*
X159551000Y-74183516D01*
X159510611Y-74386564D01*
X159431385Y-74577833D01*
X159431384Y-74577835D01*
X159316365Y-74749973D01*
X159169973Y-74896365D01*
X158997835Y-75011384D01*
X158997834Y-75011385D01*
X158997833Y-75011385D01*
X158806564Y-75090611D01*
X158603516Y-75131000D01*
X158396484Y-75131000D01*
X158193436Y-75090611D01*
X158002167Y-75011385D01*
X158002166Y-75011385D01*
X158002165Y-75011384D01*
X157830027Y-74896365D01*
X157683635Y-74749973D01*
X157568616Y-74577835D01*
X157568615Y-74577833D01*
X157489389Y-74386564D01*
X157449000Y-74183516D01*
X157449000Y-73976484D01*
X157489389Y-73773436D01*
X157568615Y-73582167D01*
X157683635Y-73410027D01*
X157830027Y-73263635D01*
X158002165Y-73148616D01*
X158002167Y-73148615D01*
X158193436Y-73069389D01*
X158396484Y-73029000D01*
X158603516Y-73029000D01*
X158806564Y-73069389D01*
G37*
G36*
X144426366Y-69215695D02*
G01*
X144583460Y-69263349D01*
X144728231Y-69340731D01*
X144855128Y-69444872D01*
X144959269Y-69571769D01*
X145036651Y-69716540D01*
X145084305Y-69873634D01*
X145101000Y-70043140D01*
X145101000Y-71956860D01*
X145084305Y-72126366D01*
X145036651Y-72283460D01*
X144959269Y-72428231D01*
X144855128Y-72555128D01*
X144728231Y-72659269D01*
X144583460Y-72736651D01*
X144426366Y-72784305D01*
X144256860Y-72801000D01*
X142343140Y-72801000D01*
X142173634Y-72784305D01*
X142016540Y-72736651D01*
X141871769Y-72659269D01*
X141744872Y-72555128D01*
X141640731Y-72428231D01*
X141563349Y-72283460D01*
X141515695Y-72126366D01*
X141499000Y-71956860D01*
X141499000Y-70043140D01*
X141515695Y-69873634D01*
X141563349Y-69716540D01*
X141640731Y-69571769D01*
X141744872Y-69444872D01*
X141871769Y-69340731D01*
X142016540Y-69263349D01*
X142173634Y-69215695D01*
X142343140Y-69199000D01*
X144256860Y-69199000D01*
X144426366Y-69215695D01*
G37*
G36*
X158806564Y-70529389D02*
G01*
X158997833Y-70608615D01*
X158997835Y-70608616D01*
X159169973Y-70723635D01*
X159316365Y-70870027D01*
X159431385Y-71042167D01*
X159510611Y-71233436D01*
X159551000Y-71436484D01*
X159551000Y-71643516D01*
X159510611Y-71846564D01*
X159488270Y-71900500D01*
X159431384Y-72037835D01*
X159316365Y-72209973D01*
X159169973Y-72356365D01*
X158997835Y-72471384D01*
X158997834Y-72471385D01*
X158997833Y-72471385D01*
X158806564Y-72550611D01*
X158603516Y-72591000D01*
X158396484Y-72591000D01*
X158193436Y-72550611D01*
X158002167Y-72471385D01*
X158002166Y-72471385D01*
X158002165Y-72471384D01*
X157830027Y-72356365D01*
X157683635Y-72209973D01*
X157568616Y-72037835D01*
X157511730Y-71900500D01*
X157489389Y-71846564D01*
X157449000Y-71643516D01*
X157449000Y-71436484D01*
X157489389Y-71233436D01*
X157568615Y-71042167D01*
X157683635Y-70870027D01*
X157830027Y-70723635D01*
X158002165Y-70608616D01*
X158002167Y-70608615D01*
X158193436Y-70529389D01*
X158396484Y-70489000D01*
X158603516Y-70489000D01*
X158806564Y-70529389D01*
G37*
G36*
X159551000Y-70051000D02*
G01*
X157449000Y-70051000D01*
X157449000Y-67949000D01*
X159551000Y-67949000D01*
X159551000Y-70051000D01*
G37*
G36*
X149226979Y-66463293D02*
G01*
X149360625Y-66503834D01*
X149483784Y-66569664D01*
X149591740Y-66658260D01*
X149680336Y-66766216D01*
X149746166Y-66889375D01*
X149786707Y-67023021D01*
X149801000Y-67168140D01*
X149801000Y-68831860D01*
X149786707Y-68976979D01*
X149746166Y-69110625D01*
X149680336Y-69233784D01*
X149591740Y-69341740D01*
X149483784Y-69430336D01*
X149360625Y-69496166D01*
X149226979Y-69536707D01*
X149081860Y-69551000D01*
X146918140Y-69551000D01*
X146773021Y-69536707D01*
X146639375Y-69496166D01*
X146516216Y-69430336D01*
X146408260Y-69341740D01*
X146319664Y-69233784D01*
X146253834Y-69110625D01*
X146213293Y-68976979D01*
X146199000Y-68831860D01*
X146199000Y-67168140D01*
X146213293Y-67023021D01*
X146253834Y-66889375D01*
X146319664Y-66766216D01*
X146408260Y-66658260D01*
X146516216Y-66569664D01*
X146639375Y-66503834D01*
X146773021Y-66463293D01*
X146918140Y-66449000D01*
X149081860Y-66449000D01*
X149226979Y-66463293D01*
G37*
G36*
X103535787Y-61585462D02*
G01*
X103535790Y-61585463D01*
X103535789Y-61585463D01*
X104182029Y-61853144D01*
X104763631Y-62241758D01*
X105258242Y-62736369D01*
X105646856Y-63317971D01*
X105761541Y-63594845D01*
X105914538Y-63964213D01*
X106051000Y-64650256D01*
X106051000Y-65349744D01*
X105914538Y-66035787D01*
X105914537Y-66035789D01*
X105646856Y-66682029D01*
X105258242Y-67263631D01*
X104763631Y-67758242D01*
X104182029Y-68146856D01*
X103725068Y-68336135D01*
X103535787Y-68414538D01*
X102849744Y-68551000D01*
X102150256Y-68551000D01*
X101464213Y-68414538D01*
X101274932Y-68336135D01*
X100817971Y-68146856D01*
X100236369Y-67758242D01*
X99741758Y-67263631D01*
X99353144Y-66682029D01*
X99085463Y-66035789D01*
X99085462Y-66035787D01*
X98949000Y-65349744D01*
X98949000Y-64650256D01*
X99085462Y-63964213D01*
X99238459Y-63594845D01*
X99353144Y-63317971D01*
X99741758Y-62736369D01*
X100236369Y-62241758D01*
X100817971Y-61853144D01*
X101464211Y-61585463D01*
X101464210Y-61585463D01*
X101464213Y-61585462D01*
X102150256Y-61449000D01*
X102849744Y-61449000D01*
X103535787Y-61585462D01*
G37*
G36*
X193535787Y-61585462D02*
G01*
X193535790Y-61585463D01*
X193535789Y-61585463D01*
X194182029Y-61853144D01*
X194763631Y-62241758D01*
X195258242Y-62736369D01*
X195646856Y-63317971D01*
X195761541Y-63594845D01*
X195914538Y-63964213D01*
X196051000Y-64650256D01*
X196051000Y-65349744D01*
X195914538Y-66035787D01*
X195914537Y-66035789D01*
X195646856Y-66682029D01*
X195258242Y-67263631D01*
X194763631Y-67758242D01*
X194182029Y-68146856D01*
X193725068Y-68336135D01*
X193535787Y-68414538D01*
X192849744Y-68551000D01*
X192150256Y-68551000D01*
X191464213Y-68414538D01*
X191274932Y-68336135D01*
X190817971Y-68146856D01*
X190236369Y-67758242D01*
X189741758Y-67263631D01*
X189353144Y-66682029D01*
X189085463Y-66035789D01*
X189085462Y-66035787D01*
X188949000Y-65349744D01*
X188949000Y-64650256D01*
X189085462Y-63964213D01*
X189238459Y-63594845D01*
X189353144Y-63317971D01*
X189741758Y-62736369D01*
X190236369Y-62241758D01*
X190817971Y-61853144D01*
X191464211Y-61585463D01*
X191464210Y-61585463D01*
X191464213Y-61585462D01*
X192150256Y-61449000D01*
X192849744Y-61449000D01*
X193535787Y-61585462D01*
G37*
G36*
X126652721Y-62716174D02*
G01*
X126752995Y-62757709D01*
X126752996Y-62757710D01*
X126843242Y-62818010D01*
X126919990Y-62894758D01*
X126919991Y-62894760D01*
X126980291Y-62985005D01*
X127011516Y-63060389D01*
X127023067Y-63082000D01*
X127038612Y-63100941D01*
X127057554Y-63116487D01*
X127079165Y-63128038D01*
X127102614Y-63135151D01*
X127127000Y-63137553D01*
X127151386Y-63135151D01*
X127174835Y-63128038D01*
X127196446Y-63116487D01*
X127215387Y-63100942D01*
X127230933Y-63082000D01*
X127242484Y-63060389D01*
X127273709Y-62985005D01*
X127334009Y-62894760D01*
X127334010Y-62894758D01*
X127410758Y-62818010D01*
X127501004Y-62757710D01*
X127501005Y-62757709D01*
X127601279Y-62716174D01*
X127707730Y-62695000D01*
X127816270Y-62695000D01*
X127922721Y-62716174D01*
X128022995Y-62757709D01*
X128022996Y-62757710D01*
X128113242Y-62818010D01*
X128189990Y-62894758D01*
X128189991Y-62894760D01*
X128250291Y-62985005D01*
X128281516Y-63060389D01*
X128293067Y-63082000D01*
X128308612Y-63100941D01*
X128327554Y-63116487D01*
X128349165Y-63128038D01*
X128372614Y-63135151D01*
X128397000Y-63137553D01*
X128421386Y-63135151D01*
X128444835Y-63128038D01*
X128466446Y-63116487D01*
X128485387Y-63100942D01*
X128500933Y-63082000D01*
X128512484Y-63060389D01*
X128543709Y-62985005D01*
X128604009Y-62894760D01*
X128604010Y-62894758D01*
X128680758Y-62818010D01*
X128771004Y-62757710D01*
X128771005Y-62757709D01*
X128871279Y-62716174D01*
X128977730Y-62695000D01*
X129086270Y-62695000D01*
X129192721Y-62716174D01*
X129292995Y-62757709D01*
X129292996Y-62757710D01*
X129383242Y-62818010D01*
X129459990Y-62894758D01*
X129459991Y-62894760D01*
X129520291Y-62985005D01*
X129551516Y-63060389D01*
X129563067Y-63082000D01*
X129578612Y-63100941D01*
X129597554Y-63116487D01*
X129619165Y-63128038D01*
X129642614Y-63135151D01*
X129667000Y-63137553D01*
X129691386Y-63135151D01*
X129714835Y-63128038D01*
X129736446Y-63116487D01*
X129755387Y-63100942D01*
X129770933Y-63082000D01*
X129782484Y-63060389D01*
X129813709Y-62985005D01*
X129874009Y-62894760D01*
X129874010Y-62894758D01*
X129950758Y-62818010D01*
X130041004Y-62757710D01*
X130041005Y-62757709D01*
X130141279Y-62716174D01*
X130247730Y-62695000D01*
X130356270Y-62695000D01*
X130462721Y-62716174D01*
X130562995Y-62757709D01*
X130562996Y-62757710D01*
X130653242Y-62818010D01*
X130729990Y-62894758D01*
X130729991Y-62894760D01*
X130790291Y-62985005D01*
X130821516Y-63060389D01*
X130833067Y-63082000D01*
X130848612Y-63100941D01*
X130867554Y-63116487D01*
X130889165Y-63128038D01*
X130912614Y-63135151D01*
X130937000Y-63137553D01*
X130961386Y-63135151D01*
X130984835Y-63128038D01*
X131006446Y-63116487D01*
X131025387Y-63100942D01*
X131040933Y-63082000D01*
X131052484Y-63060389D01*
X131083709Y-62985005D01*
X131144009Y-62894760D01*
X131144010Y-62894758D01*
X131220758Y-62818010D01*
X131311004Y-62757710D01*
X131311005Y-62757709D01*
X131411279Y-62716174D01*
X131517730Y-62695000D01*
X131626270Y-62695000D01*
X131732721Y-62716174D01*
X131832995Y-62757709D01*
X131832996Y-62757710D01*
X131923242Y-62818010D01*
X131999990Y-62894758D01*
X131999991Y-62894760D01*
X132060291Y-62985005D01*
X132101826Y-63085279D01*
X132123000Y-63191730D01*
X132123000Y-63300270D01*
X132101826Y-63406721D01*
X132060291Y-63506995D01*
X132060290Y-63506996D01*
X131999990Y-63597242D01*
X131923242Y-63673990D01*
X131891816Y-63694988D01*
X131830336Y-63736068D01*
X131811394Y-63751614D01*
X131795849Y-63770556D01*
X131784298Y-63792167D01*
X131777185Y-63815615D01*
X131774783Y-63840002D01*
X131777185Y-63864388D01*
X131784298Y-63887837D01*
X131795849Y-63909447D01*
X131811395Y-63928389D01*
X131830337Y-63943934D01*
X131851948Y-63955485D01*
X131875396Y-63962598D01*
X131899782Y-63965000D01*
X132123000Y-63965000D01*
X132123000Y-65067000D01*
X131021000Y-65067000D01*
X131021000Y-64843782D01*
X131018598Y-64819396D01*
X131011485Y-64795947D01*
X130999934Y-64774336D01*
X130984389Y-64755394D01*
X130965447Y-64739849D01*
X130943836Y-64728298D01*
X130920387Y-64721185D01*
X130896001Y-64718783D01*
X130871615Y-64721185D01*
X130848166Y-64728298D01*
X130826555Y-64739849D01*
X130807613Y-64755394D01*
X130792068Y-64774336D01*
X130750988Y-64835816D01*
X130729990Y-64867242D01*
X130653242Y-64943990D01*
X130635896Y-64955580D01*
X130562995Y-65004291D01*
X130462721Y-65045826D01*
X130356270Y-65067000D01*
X130247730Y-65067000D01*
X130141279Y-65045826D01*
X130041005Y-65004291D01*
X129968104Y-64955580D01*
X129950758Y-64943990D01*
X129874010Y-64867242D01*
X129842041Y-64819396D01*
X129813709Y-64776995D01*
X129782484Y-64701611D01*
X129770933Y-64680000D01*
X129755388Y-64661059D01*
X129736446Y-64645513D01*
X129714835Y-64633962D01*
X129691386Y-64626849D01*
X129667000Y-64624447D01*
X129642614Y-64626849D01*
X129619165Y-64633962D01*
X129597554Y-64645513D01*
X129578613Y-64661058D01*
X129563067Y-64680000D01*
X129551516Y-64701611D01*
X129520291Y-64776995D01*
X129491959Y-64819396D01*
X129459990Y-64867242D01*
X129383242Y-64943990D01*
X129365896Y-64955580D01*
X129292995Y-65004291D01*
X129192721Y-65045826D01*
X129086270Y-65067000D01*
X128977730Y-65067000D01*
X128871279Y-65045826D01*
X128771005Y-65004291D01*
X128698104Y-64955580D01*
X128680758Y-64943990D01*
X128604010Y-64867242D01*
X128572041Y-64819396D01*
X128543709Y-64776995D01*
X128512484Y-64701611D01*
X128500933Y-64680000D01*
X128485388Y-64661059D01*
X128466446Y-64645513D01*
X128444835Y-64633962D01*
X128421386Y-64626849D01*
X128397000Y-64624447D01*
X128372614Y-64626849D01*
X128349165Y-64633962D01*
X128327554Y-64645513D01*
X128308613Y-64661058D01*
X128293067Y-64680000D01*
X128281516Y-64701611D01*
X128250291Y-64776995D01*
X128221959Y-64819396D01*
X128189990Y-64867242D01*
X128113242Y-64943990D01*
X128095896Y-64955580D01*
X128022995Y-65004291D01*
X127922721Y-65045826D01*
X127816270Y-65067000D01*
X127707730Y-65067000D01*
X127601279Y-65045826D01*
X127501005Y-65004291D01*
X127428104Y-64955580D01*
X127410758Y-64943990D01*
X127334010Y-64867242D01*
X127302041Y-64819396D01*
X127273709Y-64776995D01*
X127242484Y-64701611D01*
X127230933Y-64680000D01*
X127215388Y-64661059D01*
X127196446Y-64645513D01*
X127174835Y-64633962D01*
X127151386Y-64626849D01*
X127127000Y-64624447D01*
X127102614Y-64626849D01*
X127079165Y-64633962D01*
X127057554Y-64645513D01*
X127038613Y-64661058D01*
X127023067Y-64680000D01*
X127011516Y-64701611D01*
X126980291Y-64776995D01*
X126951959Y-64819396D01*
X126919990Y-64867242D01*
X126843242Y-64943990D01*
X126825896Y-64955580D01*
X126752995Y-65004291D01*
X126652721Y-65045826D01*
X126546270Y-65067000D01*
X126437730Y-65067000D01*
X126331279Y-65045826D01*
X126231005Y-65004291D01*
X126158104Y-64955580D01*
X126140758Y-64943990D01*
X126064010Y-64867242D01*
X126032041Y-64819396D01*
X126003709Y-64776995D01*
X125962174Y-64676721D01*
X125941000Y-64570270D01*
X125941000Y-64461730D01*
X125962174Y-64355279D01*
X126003709Y-64255005D01*
X126064009Y-64164760D01*
X126064010Y-64164758D01*
X126140758Y-64088010D01*
X126231004Y-64027710D01*
X126231005Y-64027709D01*
X126306389Y-63996484D01*
X126328000Y-63984933D01*
X126346941Y-63969388D01*
X126362487Y-63950446D01*
X126374038Y-63928835D01*
X126381151Y-63905386D01*
X126383553Y-63881000D01*
X126600447Y-63881000D01*
X126602849Y-63905386D01*
X126609962Y-63928835D01*
X126621513Y-63950446D01*
X126637058Y-63969387D01*
X126656000Y-63984933D01*
X126677611Y-63996484D01*
X126752995Y-64027709D01*
X126752996Y-64027710D01*
X126843242Y-64088010D01*
X126919990Y-64164758D01*
X126919991Y-64164760D01*
X126980291Y-64255005D01*
X127011516Y-64330389D01*
X127023067Y-64352000D01*
X127038612Y-64370941D01*
X127057554Y-64386487D01*
X127079165Y-64398038D01*
X127102614Y-64405151D01*
X127127000Y-64407553D01*
X127151386Y-64405151D01*
X127174835Y-64398038D01*
X127196446Y-64386487D01*
X127215387Y-64370942D01*
X127230933Y-64352000D01*
X127242484Y-64330389D01*
X127273709Y-64255005D01*
X127334009Y-64164760D01*
X127334010Y-64164758D01*
X127410758Y-64088010D01*
X127501004Y-64027710D01*
X127501005Y-64027709D01*
X127576389Y-63996484D01*
X127598000Y-63984933D01*
X127616941Y-63969388D01*
X127632487Y-63950446D01*
X127644038Y-63928835D01*
X127651151Y-63905386D01*
X127653553Y-63881000D01*
X127870447Y-63881000D01*
X127872849Y-63905386D01*
X127879962Y-63928835D01*
X127891513Y-63950446D01*
X127907058Y-63969387D01*
X127926000Y-63984933D01*
X127947611Y-63996484D01*
X128022995Y-64027709D01*
X128022996Y-64027710D01*
X128113242Y-64088010D01*
X128189990Y-64164758D01*
X128189991Y-64164760D01*
X128250291Y-64255005D01*
X128281516Y-64330389D01*
X128293067Y-64352000D01*
X128308612Y-64370941D01*
X128327554Y-64386487D01*
X128349165Y-64398038D01*
X128372614Y-64405151D01*
X128397000Y-64407553D01*
X128421386Y-64405151D01*
X128444835Y-64398038D01*
X128466446Y-64386487D01*
X128485387Y-64370942D01*
X128500933Y-64352000D01*
X128512484Y-64330389D01*
X128543709Y-64255005D01*
X128604009Y-64164760D01*
X128604010Y-64164758D01*
X128680758Y-64088010D01*
X128771004Y-64027710D01*
X128771005Y-64027709D01*
X128846389Y-63996484D01*
X128868000Y-63984933D01*
X128886941Y-63969388D01*
X128902487Y-63950446D01*
X128914038Y-63928835D01*
X128921151Y-63905386D01*
X128923553Y-63881000D01*
X129140447Y-63881000D01*
X129142849Y-63905386D01*
X129149962Y-63928835D01*
X129161513Y-63950446D01*
X129177058Y-63969387D01*
X129196000Y-63984933D01*
X129217611Y-63996484D01*
X129292995Y-64027709D01*
X129292996Y-64027710D01*
X129383242Y-64088010D01*
X129459990Y-64164758D01*
X129459991Y-64164760D01*
X129520291Y-64255005D01*
X129551516Y-64330389D01*
X129563067Y-64352000D01*
X129578612Y-64370941D01*
X129597554Y-64386487D01*
X129619165Y-64398038D01*
X129642614Y-64405151D01*
X129667000Y-64407553D01*
X129691386Y-64405151D01*
X129714835Y-64398038D01*
X129736446Y-64386487D01*
X129755387Y-64370942D01*
X129770933Y-64352000D01*
X129782484Y-64330389D01*
X129813709Y-64255005D01*
X129874009Y-64164760D01*
X129874010Y-64164758D01*
X129950758Y-64088010D01*
X130041004Y-64027710D01*
X130041005Y-64027709D01*
X130116389Y-63996484D01*
X130138000Y-63984933D01*
X130156941Y-63969388D01*
X130172487Y-63950446D01*
X130184038Y-63928835D01*
X130191151Y-63905386D01*
X130193553Y-63881000D01*
X130410447Y-63881000D01*
X130412849Y-63905386D01*
X130419962Y-63928835D01*
X130431513Y-63950446D01*
X130447058Y-63969387D01*
X130466000Y-63984933D01*
X130487611Y-63996484D01*
X130562995Y-64027709D01*
X130562996Y-64027710D01*
X130653242Y-64088010D01*
X130729990Y-64164758D01*
X130729991Y-64164760D01*
X130792068Y-64257664D01*
X130807614Y-64276606D01*
X130826556Y-64292151D01*
X130848167Y-64303702D01*
X130871615Y-64310815D01*
X130896002Y-64313217D01*
X130920388Y-64310815D01*
X130943837Y-64303702D01*
X130965447Y-64292151D01*
X130984389Y-64276605D01*
X130999934Y-64257663D01*
X131011485Y-64236052D01*
X131018598Y-64212604D01*
X131021000Y-64188218D01*
X131021000Y-63965000D01*
X131244218Y-63965000D01*
X131268604Y-63962598D01*
X131292053Y-63955485D01*
X131313664Y-63943934D01*
X131332606Y-63928389D01*
X131348151Y-63909447D01*
X131359702Y-63887836D01*
X131366815Y-63864387D01*
X131369217Y-63840001D01*
X131366815Y-63815615D01*
X131359702Y-63792166D01*
X131348151Y-63770555D01*
X131332606Y-63751613D01*
X131313664Y-63736068D01*
X131252184Y-63694988D01*
X131220758Y-63673990D01*
X131144010Y-63597242D01*
X131083710Y-63506996D01*
X131083709Y-63506995D01*
X131052484Y-63431611D01*
X131040933Y-63410000D01*
X131025388Y-63391059D01*
X131006446Y-63375513D01*
X130984835Y-63363962D01*
X130961386Y-63356849D01*
X130937000Y-63354447D01*
X130912614Y-63356849D01*
X130889165Y-63363962D01*
X130867554Y-63375513D01*
X130848613Y-63391058D01*
X130833067Y-63410000D01*
X130821516Y-63431611D01*
X130790291Y-63506995D01*
X130790290Y-63506996D01*
X130729990Y-63597242D01*
X130653242Y-63673990D01*
X130607812Y-63704345D01*
X130562995Y-63734291D01*
X130487611Y-63765516D01*
X130466000Y-63777067D01*
X130447059Y-63792612D01*
X130431513Y-63811554D01*
X130419962Y-63833165D01*
X130412849Y-63856614D01*
X130410447Y-63881000D01*
X130193553Y-63881000D01*
X130191151Y-63856614D01*
X130184038Y-63833165D01*
X130172487Y-63811554D01*
X130156942Y-63792613D01*
X130138000Y-63777067D01*
X130116389Y-63765516D01*
X130041005Y-63734291D01*
X129996188Y-63704345D01*
X129950758Y-63673990D01*
X129874010Y-63597242D01*
X129813710Y-63506996D01*
X129813709Y-63506995D01*
X129782484Y-63431611D01*
X129770933Y-63410000D01*
X129755388Y-63391059D01*
X129736446Y-63375513D01*
X129714835Y-63363962D01*
X129691386Y-63356849D01*
X129667000Y-63354447D01*
X129642614Y-63356849D01*
X129619165Y-63363962D01*
X129597554Y-63375513D01*
X129578613Y-63391058D01*
X129563067Y-63410000D01*
X129551516Y-63431611D01*
X129520291Y-63506995D01*
X129520290Y-63506996D01*
X129459990Y-63597242D01*
X129383242Y-63673990D01*
X129337812Y-63704345D01*
X129292995Y-63734291D01*
X129217611Y-63765516D01*
X129196000Y-63777067D01*
X129177059Y-63792612D01*
X129161513Y-63811554D01*
X129149962Y-63833165D01*
X129142849Y-63856614D01*
X129140447Y-63881000D01*
X128923553Y-63881000D01*
X128921151Y-63856614D01*
X128914038Y-63833165D01*
X128902487Y-63811554D01*
X128886942Y-63792613D01*
X128868000Y-63777067D01*
X128846389Y-63765516D01*
X128771005Y-63734291D01*
X128726188Y-63704345D01*
X128680758Y-63673990D01*
X128604010Y-63597242D01*
X128543710Y-63506996D01*
X128543709Y-63506995D01*
X128512484Y-63431611D01*
X128500933Y-63410000D01*
X128485388Y-63391059D01*
X128466446Y-63375513D01*
X128444835Y-63363962D01*
X128421386Y-63356849D01*
X128397000Y-63354447D01*
X128372614Y-63356849D01*
X128349165Y-63363962D01*
X128327554Y-63375513D01*
X128308613Y-63391058D01*
X128293067Y-63410000D01*
X128281516Y-63431611D01*
X128250291Y-63506995D01*
X128250290Y-63506996D01*
X128189990Y-63597242D01*
X128113242Y-63673990D01*
X128067812Y-63704345D01*
X128022995Y-63734291D01*
X127947611Y-63765516D01*
X127926000Y-63777067D01*
X127907059Y-63792612D01*
X127891513Y-63811554D01*
X127879962Y-63833165D01*
X127872849Y-63856614D01*
X127870447Y-63881000D01*
X127653553Y-63881000D01*
X127651151Y-63856614D01*
X127644038Y-63833165D01*
X127632487Y-63811554D01*
X127616942Y-63792613D01*
X127598000Y-63777067D01*
X127576389Y-63765516D01*
X127501005Y-63734291D01*
X127456188Y-63704345D01*
X127410758Y-63673990D01*
X127334010Y-63597242D01*
X127273710Y-63506996D01*
X127273709Y-63506995D01*
X127242484Y-63431611D01*
X127230933Y-63410000D01*
X127215388Y-63391059D01*
X127196446Y-63375513D01*
X127174835Y-63363962D01*
X127151386Y-63356849D01*
X127127000Y-63354447D01*
X127102614Y-63356849D01*
X127079165Y-63363962D01*
X127057554Y-63375513D01*
X127038613Y-63391058D01*
X127023067Y-63410000D01*
X127011516Y-63431611D01*
X126980291Y-63506995D01*
X126980290Y-63506996D01*
X126919990Y-63597242D01*
X126843242Y-63673990D01*
X126797812Y-63704345D01*
X126752995Y-63734291D01*
X126677611Y-63765516D01*
X126656000Y-63777067D01*
X126637059Y-63792612D01*
X126621513Y-63811554D01*
X126609962Y-63833165D01*
X126602849Y-63856614D01*
X126600447Y-63881000D01*
X126383553Y-63881000D01*
X126381151Y-63856614D01*
X126374038Y-63833165D01*
X126362487Y-63811554D01*
X126346942Y-63792613D01*
X126328000Y-63777067D01*
X126306389Y-63765516D01*
X126231005Y-63734291D01*
X126186188Y-63704345D01*
X126140758Y-63673990D01*
X126064010Y-63597242D01*
X126003710Y-63506996D01*
X126003709Y-63506995D01*
X125962174Y-63406721D01*
X125941000Y-63300270D01*
X125941000Y-63191730D01*
X125962174Y-63085279D01*
X126003709Y-62985005D01*
X126064009Y-62894760D01*
X126064010Y-62894758D01*
X126140758Y-62818010D01*
X126231004Y-62757710D01*
X126231005Y-62757709D01*
X126331279Y-62716174D01*
X126437730Y-62695000D01*
X126546270Y-62695000D01*
X126652721Y-62716174D01*
G37*
M02*
