G04 #@! TF.GenerationSoftware,KiCad,Pcbnew,(5.1.5-0-10_14)*
G04 #@! TF.CreationDate,2020-05-09T22:30:08-06:00*
G04 #@! TF.ProjectId,business_card_v1,62757369-6e65-4737-935f-636172645f76,rev?*
G04 #@! TF.SameCoordinates,Original*
G04 #@! TF.FileFunction,Copper,L1,Top*
G04 #@! TF.FilePolarity,Positive*
%FSLAX46Y46*%
G04 Gerber Fmt 4.6, Leading zero omitted, Abs format (unit mm)*
G04 Created by KiCad (PCBNEW (5.1.5-0-10_14)) date 2020-05-09 22:30:08*
%MOMM*%
%LPD*%
G04 APERTURE LIST*
%ADD10R,0.800000X0.500000*%
%ADD11R,0.800000X0.400000*%
%ADD12C,0.100000*%
%ADD13R,1.700000X1.700000*%
%ADD14R,1.000000X0.900000*%
%ADD15R,1.060000X0.650000*%
%ADD16O,1.700000X1.700000*%
%ADD17R,1.200000X1.200000*%
%ADD18C,0.800000*%
%ADD19C,0.756400*%
%ADD20C,0.250000*%
%ADD21C,0.400000*%
%ADD22C,0.304800*%
%ADD23C,0.406400*%
%ADD24C,0.254000*%
G04 APERTURE END LIST*
D10*
X147458000Y-126930000D03*
D11*
X147458000Y-126130000D03*
D10*
X147458000Y-124530000D03*
D11*
X147458000Y-125330000D03*
D10*
X145658000Y-126930000D03*
D11*
X145658000Y-125330000D03*
X145658000Y-126130000D03*
D10*
X145658000Y-124530000D03*
X147458000Y-119310000D03*
D11*
X147458000Y-118510000D03*
D10*
X147458000Y-116910000D03*
D11*
X147458000Y-117710000D03*
D10*
X145658000Y-119310000D03*
D11*
X145658000Y-117710000D03*
X145658000Y-118510000D03*
D10*
X145658000Y-116910000D03*
G04 #@! TA.AperFunction,SMDPad,CuDef*
D12*
G36*
X107230665Y-123390829D02*
G01*
X106170004Y-122330168D01*
X111473305Y-117026867D01*
X112533966Y-118087528D01*
X107230665Y-123390829D01*
G37*
G04 #@! TD.AperFunction*
G04 #@! TA.AperFunction,SMDPad,CuDef*
G36*
X109528761Y-124274711D02*
G01*
X108821655Y-123567605D01*
X113417849Y-118971411D01*
X114124955Y-119678517D01*
X109528761Y-124274711D01*
G37*
G04 #@! TD.AperFunction*
G04 #@! TA.AperFunction,SMDPad,CuDef*
G36*
X110942975Y-125688925D02*
G01*
X110235869Y-124981819D01*
X114832063Y-120385625D01*
X115539169Y-121092731D01*
X110942975Y-125688925D01*
G37*
G04 #@! TD.AperFunction*
G04 #@! TA.AperFunction,SMDPad,CuDef*
G36*
X112180412Y-128340576D02*
G01*
X111119751Y-127279915D01*
X116423052Y-121976614D01*
X117483713Y-123037275D01*
X112180412Y-128340576D01*
G37*
G04 #@! TD.AperFunction*
D13*
X122504200Y-116522500D03*
D14*
X142405000Y-114155000D03*
X140805000Y-114155000D03*
X142405000Y-118255000D03*
X140805000Y-118255000D03*
G04 #@! TA.AperFunction,SMDPad,CuDef*
D12*
G36*
X136167691Y-116251053D02*
G01*
X136188926Y-116254203D01*
X136209750Y-116259419D01*
X136229962Y-116266651D01*
X136249368Y-116275830D01*
X136267781Y-116286866D01*
X136285024Y-116299654D01*
X136300930Y-116314070D01*
X136315346Y-116329976D01*
X136328134Y-116347219D01*
X136339170Y-116365632D01*
X136348349Y-116385038D01*
X136355581Y-116405250D01*
X136360797Y-116426074D01*
X136363947Y-116447309D01*
X136365000Y-116468750D01*
X136365000Y-116906250D01*
X136363947Y-116927691D01*
X136360797Y-116948926D01*
X136355581Y-116969750D01*
X136348349Y-116989962D01*
X136339170Y-117009368D01*
X136328134Y-117027781D01*
X136315346Y-117045024D01*
X136300930Y-117060930D01*
X136285024Y-117075346D01*
X136267781Y-117088134D01*
X136249368Y-117099170D01*
X136229962Y-117108349D01*
X136209750Y-117115581D01*
X136188926Y-117120797D01*
X136167691Y-117123947D01*
X136146250Y-117125000D01*
X135633750Y-117125000D01*
X135612309Y-117123947D01*
X135591074Y-117120797D01*
X135570250Y-117115581D01*
X135550038Y-117108349D01*
X135530632Y-117099170D01*
X135512219Y-117088134D01*
X135494976Y-117075346D01*
X135479070Y-117060930D01*
X135464654Y-117045024D01*
X135451866Y-117027781D01*
X135440830Y-117009368D01*
X135431651Y-116989962D01*
X135424419Y-116969750D01*
X135419203Y-116948926D01*
X135416053Y-116927691D01*
X135415000Y-116906250D01*
X135415000Y-116468750D01*
X135416053Y-116447309D01*
X135419203Y-116426074D01*
X135424419Y-116405250D01*
X135431651Y-116385038D01*
X135440830Y-116365632D01*
X135451866Y-116347219D01*
X135464654Y-116329976D01*
X135479070Y-116314070D01*
X135494976Y-116299654D01*
X135512219Y-116286866D01*
X135530632Y-116275830D01*
X135550038Y-116266651D01*
X135570250Y-116259419D01*
X135591074Y-116254203D01*
X135612309Y-116251053D01*
X135633750Y-116250000D01*
X136146250Y-116250000D01*
X136167691Y-116251053D01*
G37*
G04 #@! TD.AperFunction*
G04 #@! TA.AperFunction,SMDPad,CuDef*
G36*
X136167691Y-117826053D02*
G01*
X136188926Y-117829203D01*
X136209750Y-117834419D01*
X136229962Y-117841651D01*
X136249368Y-117850830D01*
X136267781Y-117861866D01*
X136285024Y-117874654D01*
X136300930Y-117889070D01*
X136315346Y-117904976D01*
X136328134Y-117922219D01*
X136339170Y-117940632D01*
X136348349Y-117960038D01*
X136355581Y-117980250D01*
X136360797Y-118001074D01*
X136363947Y-118022309D01*
X136365000Y-118043750D01*
X136365000Y-118481250D01*
X136363947Y-118502691D01*
X136360797Y-118523926D01*
X136355581Y-118544750D01*
X136348349Y-118564962D01*
X136339170Y-118584368D01*
X136328134Y-118602781D01*
X136315346Y-118620024D01*
X136300930Y-118635930D01*
X136285024Y-118650346D01*
X136267781Y-118663134D01*
X136249368Y-118674170D01*
X136229962Y-118683349D01*
X136209750Y-118690581D01*
X136188926Y-118695797D01*
X136167691Y-118698947D01*
X136146250Y-118700000D01*
X135633750Y-118700000D01*
X135612309Y-118698947D01*
X135591074Y-118695797D01*
X135570250Y-118690581D01*
X135550038Y-118683349D01*
X135530632Y-118674170D01*
X135512219Y-118663134D01*
X135494976Y-118650346D01*
X135479070Y-118635930D01*
X135464654Y-118620024D01*
X135451866Y-118602781D01*
X135440830Y-118584368D01*
X135431651Y-118564962D01*
X135424419Y-118544750D01*
X135419203Y-118523926D01*
X135416053Y-118502691D01*
X135415000Y-118481250D01*
X135415000Y-118043750D01*
X135416053Y-118022309D01*
X135419203Y-118001074D01*
X135424419Y-117980250D01*
X135431651Y-117960038D01*
X135440830Y-117940632D01*
X135451866Y-117922219D01*
X135464654Y-117904976D01*
X135479070Y-117889070D01*
X135494976Y-117874654D01*
X135512219Y-117861866D01*
X135530632Y-117850830D01*
X135550038Y-117841651D01*
X135570250Y-117834419D01*
X135591074Y-117829203D01*
X135612309Y-117826053D01*
X135633750Y-117825000D01*
X136146250Y-117825000D01*
X136167691Y-117826053D01*
G37*
G04 #@! TD.AperFunction*
G04 #@! TA.AperFunction,SMDPad,CuDef*
G36*
X138072691Y-116251053D02*
G01*
X138093926Y-116254203D01*
X138114750Y-116259419D01*
X138134962Y-116266651D01*
X138154368Y-116275830D01*
X138172781Y-116286866D01*
X138190024Y-116299654D01*
X138205930Y-116314070D01*
X138220346Y-116329976D01*
X138233134Y-116347219D01*
X138244170Y-116365632D01*
X138253349Y-116385038D01*
X138260581Y-116405250D01*
X138265797Y-116426074D01*
X138268947Y-116447309D01*
X138270000Y-116468750D01*
X138270000Y-116906250D01*
X138268947Y-116927691D01*
X138265797Y-116948926D01*
X138260581Y-116969750D01*
X138253349Y-116989962D01*
X138244170Y-117009368D01*
X138233134Y-117027781D01*
X138220346Y-117045024D01*
X138205930Y-117060930D01*
X138190024Y-117075346D01*
X138172781Y-117088134D01*
X138154368Y-117099170D01*
X138134962Y-117108349D01*
X138114750Y-117115581D01*
X138093926Y-117120797D01*
X138072691Y-117123947D01*
X138051250Y-117125000D01*
X137538750Y-117125000D01*
X137517309Y-117123947D01*
X137496074Y-117120797D01*
X137475250Y-117115581D01*
X137455038Y-117108349D01*
X137435632Y-117099170D01*
X137417219Y-117088134D01*
X137399976Y-117075346D01*
X137384070Y-117060930D01*
X137369654Y-117045024D01*
X137356866Y-117027781D01*
X137345830Y-117009368D01*
X137336651Y-116989962D01*
X137329419Y-116969750D01*
X137324203Y-116948926D01*
X137321053Y-116927691D01*
X137320000Y-116906250D01*
X137320000Y-116468750D01*
X137321053Y-116447309D01*
X137324203Y-116426074D01*
X137329419Y-116405250D01*
X137336651Y-116385038D01*
X137345830Y-116365632D01*
X137356866Y-116347219D01*
X137369654Y-116329976D01*
X137384070Y-116314070D01*
X137399976Y-116299654D01*
X137417219Y-116286866D01*
X137435632Y-116275830D01*
X137455038Y-116266651D01*
X137475250Y-116259419D01*
X137496074Y-116254203D01*
X137517309Y-116251053D01*
X137538750Y-116250000D01*
X138051250Y-116250000D01*
X138072691Y-116251053D01*
G37*
G04 #@! TD.AperFunction*
G04 #@! TA.AperFunction,SMDPad,CuDef*
G36*
X138072691Y-117826053D02*
G01*
X138093926Y-117829203D01*
X138114750Y-117834419D01*
X138134962Y-117841651D01*
X138154368Y-117850830D01*
X138172781Y-117861866D01*
X138190024Y-117874654D01*
X138205930Y-117889070D01*
X138220346Y-117904976D01*
X138233134Y-117922219D01*
X138244170Y-117940632D01*
X138253349Y-117960038D01*
X138260581Y-117980250D01*
X138265797Y-118001074D01*
X138268947Y-118022309D01*
X138270000Y-118043750D01*
X138270000Y-118481250D01*
X138268947Y-118502691D01*
X138265797Y-118523926D01*
X138260581Y-118544750D01*
X138253349Y-118564962D01*
X138244170Y-118584368D01*
X138233134Y-118602781D01*
X138220346Y-118620024D01*
X138205930Y-118635930D01*
X138190024Y-118650346D01*
X138172781Y-118663134D01*
X138154368Y-118674170D01*
X138134962Y-118683349D01*
X138114750Y-118690581D01*
X138093926Y-118695797D01*
X138072691Y-118698947D01*
X138051250Y-118700000D01*
X137538750Y-118700000D01*
X137517309Y-118698947D01*
X137496074Y-118695797D01*
X137475250Y-118690581D01*
X137455038Y-118683349D01*
X137435632Y-118674170D01*
X137417219Y-118663134D01*
X137399976Y-118650346D01*
X137384070Y-118635930D01*
X137369654Y-118620024D01*
X137356866Y-118602781D01*
X137345830Y-118584368D01*
X137336651Y-118564962D01*
X137329419Y-118544750D01*
X137324203Y-118523926D01*
X137321053Y-118502691D01*
X137320000Y-118481250D01*
X137320000Y-118043750D01*
X137321053Y-118022309D01*
X137324203Y-118001074D01*
X137329419Y-117980250D01*
X137336651Y-117960038D01*
X137345830Y-117940632D01*
X137356866Y-117922219D01*
X137369654Y-117904976D01*
X137384070Y-117889070D01*
X137399976Y-117874654D01*
X137417219Y-117861866D01*
X137435632Y-117850830D01*
X137455038Y-117841651D01*
X137475250Y-117834419D01*
X137496074Y-117829203D01*
X137517309Y-117826053D01*
X137538750Y-117825000D01*
X138051250Y-117825000D01*
X138072691Y-117826053D01*
G37*
G04 #@! TD.AperFunction*
G04 #@! TA.AperFunction,SMDPad,CuDef*
G36*
X128547691Y-114346053D02*
G01*
X128568926Y-114349203D01*
X128589750Y-114354419D01*
X128609962Y-114361651D01*
X128629368Y-114370830D01*
X128647781Y-114381866D01*
X128665024Y-114394654D01*
X128680930Y-114409070D01*
X128695346Y-114424976D01*
X128708134Y-114442219D01*
X128719170Y-114460632D01*
X128728349Y-114480038D01*
X128735581Y-114500250D01*
X128740797Y-114521074D01*
X128743947Y-114542309D01*
X128745000Y-114563750D01*
X128745000Y-115001250D01*
X128743947Y-115022691D01*
X128740797Y-115043926D01*
X128735581Y-115064750D01*
X128728349Y-115084962D01*
X128719170Y-115104368D01*
X128708134Y-115122781D01*
X128695346Y-115140024D01*
X128680930Y-115155930D01*
X128665024Y-115170346D01*
X128647781Y-115183134D01*
X128629368Y-115194170D01*
X128609962Y-115203349D01*
X128589750Y-115210581D01*
X128568926Y-115215797D01*
X128547691Y-115218947D01*
X128526250Y-115220000D01*
X128013750Y-115220000D01*
X127992309Y-115218947D01*
X127971074Y-115215797D01*
X127950250Y-115210581D01*
X127930038Y-115203349D01*
X127910632Y-115194170D01*
X127892219Y-115183134D01*
X127874976Y-115170346D01*
X127859070Y-115155930D01*
X127844654Y-115140024D01*
X127831866Y-115122781D01*
X127820830Y-115104368D01*
X127811651Y-115084962D01*
X127804419Y-115064750D01*
X127799203Y-115043926D01*
X127796053Y-115022691D01*
X127795000Y-115001250D01*
X127795000Y-114563750D01*
X127796053Y-114542309D01*
X127799203Y-114521074D01*
X127804419Y-114500250D01*
X127811651Y-114480038D01*
X127820830Y-114460632D01*
X127831866Y-114442219D01*
X127844654Y-114424976D01*
X127859070Y-114409070D01*
X127874976Y-114394654D01*
X127892219Y-114381866D01*
X127910632Y-114370830D01*
X127930038Y-114361651D01*
X127950250Y-114354419D01*
X127971074Y-114349203D01*
X127992309Y-114346053D01*
X128013750Y-114345000D01*
X128526250Y-114345000D01*
X128547691Y-114346053D01*
G37*
G04 #@! TD.AperFunction*
G04 #@! TA.AperFunction,SMDPad,CuDef*
G36*
X128547691Y-115921053D02*
G01*
X128568926Y-115924203D01*
X128589750Y-115929419D01*
X128609962Y-115936651D01*
X128629368Y-115945830D01*
X128647781Y-115956866D01*
X128665024Y-115969654D01*
X128680930Y-115984070D01*
X128695346Y-115999976D01*
X128708134Y-116017219D01*
X128719170Y-116035632D01*
X128728349Y-116055038D01*
X128735581Y-116075250D01*
X128740797Y-116096074D01*
X128743947Y-116117309D01*
X128745000Y-116138750D01*
X128745000Y-116576250D01*
X128743947Y-116597691D01*
X128740797Y-116618926D01*
X128735581Y-116639750D01*
X128728349Y-116659962D01*
X128719170Y-116679368D01*
X128708134Y-116697781D01*
X128695346Y-116715024D01*
X128680930Y-116730930D01*
X128665024Y-116745346D01*
X128647781Y-116758134D01*
X128629368Y-116769170D01*
X128609962Y-116778349D01*
X128589750Y-116785581D01*
X128568926Y-116790797D01*
X128547691Y-116793947D01*
X128526250Y-116795000D01*
X128013750Y-116795000D01*
X127992309Y-116793947D01*
X127971074Y-116790797D01*
X127950250Y-116785581D01*
X127930038Y-116778349D01*
X127910632Y-116769170D01*
X127892219Y-116758134D01*
X127874976Y-116745346D01*
X127859070Y-116730930D01*
X127844654Y-116715024D01*
X127831866Y-116697781D01*
X127820830Y-116679368D01*
X127811651Y-116659962D01*
X127804419Y-116639750D01*
X127799203Y-116618926D01*
X127796053Y-116597691D01*
X127795000Y-116576250D01*
X127795000Y-116138750D01*
X127796053Y-116117309D01*
X127799203Y-116096074D01*
X127804419Y-116075250D01*
X127811651Y-116055038D01*
X127820830Y-116035632D01*
X127831866Y-116017219D01*
X127844654Y-115999976D01*
X127859070Y-115984070D01*
X127874976Y-115969654D01*
X127892219Y-115956866D01*
X127910632Y-115945830D01*
X127930038Y-115936651D01*
X127950250Y-115929419D01*
X127971074Y-115924203D01*
X127992309Y-115921053D01*
X128013750Y-115920000D01*
X128526250Y-115920000D01*
X128547691Y-115921053D01*
G37*
G04 #@! TD.AperFunction*
G04 #@! TA.AperFunction,SMDPad,CuDef*
G36*
X126642691Y-115921053D02*
G01*
X126663926Y-115924203D01*
X126684750Y-115929419D01*
X126704962Y-115936651D01*
X126724368Y-115945830D01*
X126742781Y-115956866D01*
X126760024Y-115969654D01*
X126775930Y-115984070D01*
X126790346Y-115999976D01*
X126803134Y-116017219D01*
X126814170Y-116035632D01*
X126823349Y-116055038D01*
X126830581Y-116075250D01*
X126835797Y-116096074D01*
X126838947Y-116117309D01*
X126840000Y-116138750D01*
X126840000Y-116576250D01*
X126838947Y-116597691D01*
X126835797Y-116618926D01*
X126830581Y-116639750D01*
X126823349Y-116659962D01*
X126814170Y-116679368D01*
X126803134Y-116697781D01*
X126790346Y-116715024D01*
X126775930Y-116730930D01*
X126760024Y-116745346D01*
X126742781Y-116758134D01*
X126724368Y-116769170D01*
X126704962Y-116778349D01*
X126684750Y-116785581D01*
X126663926Y-116790797D01*
X126642691Y-116793947D01*
X126621250Y-116795000D01*
X126108750Y-116795000D01*
X126087309Y-116793947D01*
X126066074Y-116790797D01*
X126045250Y-116785581D01*
X126025038Y-116778349D01*
X126005632Y-116769170D01*
X125987219Y-116758134D01*
X125969976Y-116745346D01*
X125954070Y-116730930D01*
X125939654Y-116715024D01*
X125926866Y-116697781D01*
X125915830Y-116679368D01*
X125906651Y-116659962D01*
X125899419Y-116639750D01*
X125894203Y-116618926D01*
X125891053Y-116597691D01*
X125890000Y-116576250D01*
X125890000Y-116138750D01*
X125891053Y-116117309D01*
X125894203Y-116096074D01*
X125899419Y-116075250D01*
X125906651Y-116055038D01*
X125915830Y-116035632D01*
X125926866Y-116017219D01*
X125939654Y-115999976D01*
X125954070Y-115984070D01*
X125969976Y-115969654D01*
X125987219Y-115956866D01*
X126005632Y-115945830D01*
X126025038Y-115936651D01*
X126045250Y-115929419D01*
X126066074Y-115924203D01*
X126087309Y-115921053D01*
X126108750Y-115920000D01*
X126621250Y-115920000D01*
X126642691Y-115921053D01*
G37*
G04 #@! TD.AperFunction*
G04 #@! TA.AperFunction,SMDPad,CuDef*
G36*
X126642691Y-114346053D02*
G01*
X126663926Y-114349203D01*
X126684750Y-114354419D01*
X126704962Y-114361651D01*
X126724368Y-114370830D01*
X126742781Y-114381866D01*
X126760024Y-114394654D01*
X126775930Y-114409070D01*
X126790346Y-114424976D01*
X126803134Y-114442219D01*
X126814170Y-114460632D01*
X126823349Y-114480038D01*
X126830581Y-114500250D01*
X126835797Y-114521074D01*
X126838947Y-114542309D01*
X126840000Y-114563750D01*
X126840000Y-115001250D01*
X126838947Y-115022691D01*
X126835797Y-115043926D01*
X126830581Y-115064750D01*
X126823349Y-115084962D01*
X126814170Y-115104368D01*
X126803134Y-115122781D01*
X126790346Y-115140024D01*
X126775930Y-115155930D01*
X126760024Y-115170346D01*
X126742781Y-115183134D01*
X126724368Y-115194170D01*
X126704962Y-115203349D01*
X126684750Y-115210581D01*
X126663926Y-115215797D01*
X126642691Y-115218947D01*
X126621250Y-115220000D01*
X126108750Y-115220000D01*
X126087309Y-115218947D01*
X126066074Y-115215797D01*
X126045250Y-115210581D01*
X126025038Y-115203349D01*
X126005632Y-115194170D01*
X125987219Y-115183134D01*
X125969976Y-115170346D01*
X125954070Y-115155930D01*
X125939654Y-115140024D01*
X125926866Y-115122781D01*
X125915830Y-115104368D01*
X125906651Y-115084962D01*
X125899419Y-115064750D01*
X125894203Y-115043926D01*
X125891053Y-115022691D01*
X125890000Y-115001250D01*
X125890000Y-114563750D01*
X125891053Y-114542309D01*
X125894203Y-114521074D01*
X125899419Y-114500250D01*
X125906651Y-114480038D01*
X125915830Y-114460632D01*
X125926866Y-114442219D01*
X125939654Y-114424976D01*
X125954070Y-114409070D01*
X125969976Y-114394654D01*
X125987219Y-114381866D01*
X126005632Y-114370830D01*
X126025038Y-114361651D01*
X126045250Y-114354419D01*
X126066074Y-114349203D01*
X126087309Y-114346053D01*
X126108750Y-114345000D01*
X126621250Y-114345000D01*
X126642691Y-114346053D01*
G37*
G04 #@! TD.AperFunction*
G04 #@! TA.AperFunction,SMDPad,CuDef*
G36*
X141782302Y-126775982D02*
G01*
X141792009Y-126777421D01*
X141801528Y-126779806D01*
X141810768Y-126783112D01*
X141819640Y-126787308D01*
X141828057Y-126792353D01*
X141835939Y-126798199D01*
X141843211Y-126804789D01*
X141849801Y-126812061D01*
X141855647Y-126819943D01*
X141860692Y-126828360D01*
X141864888Y-126837232D01*
X141868194Y-126846472D01*
X141870579Y-126855991D01*
X141872018Y-126865698D01*
X141872500Y-126875500D01*
X141872500Y-128150500D01*
X141872018Y-128160302D01*
X141870579Y-128170009D01*
X141868194Y-128179528D01*
X141864888Y-128188768D01*
X141860692Y-128197640D01*
X141855647Y-128206057D01*
X141849801Y-128213939D01*
X141843211Y-128221211D01*
X141835939Y-128227801D01*
X141828057Y-128233647D01*
X141819640Y-128238692D01*
X141810768Y-128242888D01*
X141801528Y-128246194D01*
X141792009Y-128248579D01*
X141782302Y-128250018D01*
X141772500Y-128250500D01*
X141572500Y-128250500D01*
X141562698Y-128250018D01*
X141552991Y-128248579D01*
X141543472Y-128246194D01*
X141534232Y-128242888D01*
X141525360Y-128238692D01*
X141516943Y-128233647D01*
X141509061Y-128227801D01*
X141501789Y-128221211D01*
X141495199Y-128213939D01*
X141489353Y-128206057D01*
X141484308Y-128197640D01*
X141480112Y-128188768D01*
X141476806Y-128179528D01*
X141474421Y-128170009D01*
X141472982Y-128160302D01*
X141472500Y-128150500D01*
X141472500Y-126875500D01*
X141472982Y-126865698D01*
X141474421Y-126855991D01*
X141476806Y-126846472D01*
X141480112Y-126837232D01*
X141484308Y-126828360D01*
X141489353Y-126819943D01*
X141495199Y-126812061D01*
X141501789Y-126804789D01*
X141509061Y-126798199D01*
X141516943Y-126792353D01*
X141525360Y-126787308D01*
X141534232Y-126783112D01*
X141543472Y-126779806D01*
X141552991Y-126777421D01*
X141562698Y-126775982D01*
X141572500Y-126775500D01*
X141772500Y-126775500D01*
X141782302Y-126775982D01*
G37*
G04 #@! TD.AperFunction*
G04 #@! TA.AperFunction,SMDPad,CuDef*
G36*
X141132302Y-126775982D02*
G01*
X141142009Y-126777421D01*
X141151528Y-126779806D01*
X141160768Y-126783112D01*
X141169640Y-126787308D01*
X141178057Y-126792353D01*
X141185939Y-126798199D01*
X141193211Y-126804789D01*
X141199801Y-126812061D01*
X141205647Y-126819943D01*
X141210692Y-126828360D01*
X141214888Y-126837232D01*
X141218194Y-126846472D01*
X141220579Y-126855991D01*
X141222018Y-126865698D01*
X141222500Y-126875500D01*
X141222500Y-128150500D01*
X141222018Y-128160302D01*
X141220579Y-128170009D01*
X141218194Y-128179528D01*
X141214888Y-128188768D01*
X141210692Y-128197640D01*
X141205647Y-128206057D01*
X141199801Y-128213939D01*
X141193211Y-128221211D01*
X141185939Y-128227801D01*
X141178057Y-128233647D01*
X141169640Y-128238692D01*
X141160768Y-128242888D01*
X141151528Y-128246194D01*
X141142009Y-128248579D01*
X141132302Y-128250018D01*
X141122500Y-128250500D01*
X140922500Y-128250500D01*
X140912698Y-128250018D01*
X140902991Y-128248579D01*
X140893472Y-128246194D01*
X140884232Y-128242888D01*
X140875360Y-128238692D01*
X140866943Y-128233647D01*
X140859061Y-128227801D01*
X140851789Y-128221211D01*
X140845199Y-128213939D01*
X140839353Y-128206057D01*
X140834308Y-128197640D01*
X140830112Y-128188768D01*
X140826806Y-128179528D01*
X140824421Y-128170009D01*
X140822982Y-128160302D01*
X140822500Y-128150500D01*
X140822500Y-126875500D01*
X140822982Y-126865698D01*
X140824421Y-126855991D01*
X140826806Y-126846472D01*
X140830112Y-126837232D01*
X140834308Y-126828360D01*
X140839353Y-126819943D01*
X140845199Y-126812061D01*
X140851789Y-126804789D01*
X140859061Y-126798199D01*
X140866943Y-126792353D01*
X140875360Y-126787308D01*
X140884232Y-126783112D01*
X140893472Y-126779806D01*
X140902991Y-126777421D01*
X140912698Y-126775982D01*
X140922500Y-126775500D01*
X141122500Y-126775500D01*
X141132302Y-126775982D01*
G37*
G04 #@! TD.AperFunction*
G04 #@! TA.AperFunction,SMDPad,CuDef*
G36*
X140482302Y-126775982D02*
G01*
X140492009Y-126777421D01*
X140501528Y-126779806D01*
X140510768Y-126783112D01*
X140519640Y-126787308D01*
X140528057Y-126792353D01*
X140535939Y-126798199D01*
X140543211Y-126804789D01*
X140549801Y-126812061D01*
X140555647Y-126819943D01*
X140560692Y-126828360D01*
X140564888Y-126837232D01*
X140568194Y-126846472D01*
X140570579Y-126855991D01*
X140572018Y-126865698D01*
X140572500Y-126875500D01*
X140572500Y-128150500D01*
X140572018Y-128160302D01*
X140570579Y-128170009D01*
X140568194Y-128179528D01*
X140564888Y-128188768D01*
X140560692Y-128197640D01*
X140555647Y-128206057D01*
X140549801Y-128213939D01*
X140543211Y-128221211D01*
X140535939Y-128227801D01*
X140528057Y-128233647D01*
X140519640Y-128238692D01*
X140510768Y-128242888D01*
X140501528Y-128246194D01*
X140492009Y-128248579D01*
X140482302Y-128250018D01*
X140472500Y-128250500D01*
X140272500Y-128250500D01*
X140262698Y-128250018D01*
X140252991Y-128248579D01*
X140243472Y-128246194D01*
X140234232Y-128242888D01*
X140225360Y-128238692D01*
X140216943Y-128233647D01*
X140209061Y-128227801D01*
X140201789Y-128221211D01*
X140195199Y-128213939D01*
X140189353Y-128206057D01*
X140184308Y-128197640D01*
X140180112Y-128188768D01*
X140176806Y-128179528D01*
X140174421Y-128170009D01*
X140172982Y-128160302D01*
X140172500Y-128150500D01*
X140172500Y-126875500D01*
X140172982Y-126865698D01*
X140174421Y-126855991D01*
X140176806Y-126846472D01*
X140180112Y-126837232D01*
X140184308Y-126828360D01*
X140189353Y-126819943D01*
X140195199Y-126812061D01*
X140201789Y-126804789D01*
X140209061Y-126798199D01*
X140216943Y-126792353D01*
X140225360Y-126787308D01*
X140234232Y-126783112D01*
X140243472Y-126779806D01*
X140252991Y-126777421D01*
X140262698Y-126775982D01*
X140272500Y-126775500D01*
X140472500Y-126775500D01*
X140482302Y-126775982D01*
G37*
G04 #@! TD.AperFunction*
G04 #@! TA.AperFunction,SMDPad,CuDef*
G36*
X139832302Y-126775982D02*
G01*
X139842009Y-126777421D01*
X139851528Y-126779806D01*
X139860768Y-126783112D01*
X139869640Y-126787308D01*
X139878057Y-126792353D01*
X139885939Y-126798199D01*
X139893211Y-126804789D01*
X139899801Y-126812061D01*
X139905647Y-126819943D01*
X139910692Y-126828360D01*
X139914888Y-126837232D01*
X139918194Y-126846472D01*
X139920579Y-126855991D01*
X139922018Y-126865698D01*
X139922500Y-126875500D01*
X139922500Y-128150500D01*
X139922018Y-128160302D01*
X139920579Y-128170009D01*
X139918194Y-128179528D01*
X139914888Y-128188768D01*
X139910692Y-128197640D01*
X139905647Y-128206057D01*
X139899801Y-128213939D01*
X139893211Y-128221211D01*
X139885939Y-128227801D01*
X139878057Y-128233647D01*
X139869640Y-128238692D01*
X139860768Y-128242888D01*
X139851528Y-128246194D01*
X139842009Y-128248579D01*
X139832302Y-128250018D01*
X139822500Y-128250500D01*
X139622500Y-128250500D01*
X139612698Y-128250018D01*
X139602991Y-128248579D01*
X139593472Y-128246194D01*
X139584232Y-128242888D01*
X139575360Y-128238692D01*
X139566943Y-128233647D01*
X139559061Y-128227801D01*
X139551789Y-128221211D01*
X139545199Y-128213939D01*
X139539353Y-128206057D01*
X139534308Y-128197640D01*
X139530112Y-128188768D01*
X139526806Y-128179528D01*
X139524421Y-128170009D01*
X139522982Y-128160302D01*
X139522500Y-128150500D01*
X139522500Y-126875500D01*
X139522982Y-126865698D01*
X139524421Y-126855991D01*
X139526806Y-126846472D01*
X139530112Y-126837232D01*
X139534308Y-126828360D01*
X139539353Y-126819943D01*
X139545199Y-126812061D01*
X139551789Y-126804789D01*
X139559061Y-126798199D01*
X139566943Y-126792353D01*
X139575360Y-126787308D01*
X139584232Y-126783112D01*
X139593472Y-126779806D01*
X139602991Y-126777421D01*
X139612698Y-126775982D01*
X139622500Y-126775500D01*
X139822500Y-126775500D01*
X139832302Y-126775982D01*
G37*
G04 #@! TD.AperFunction*
G04 #@! TA.AperFunction,SMDPad,CuDef*
G36*
X139182302Y-126775982D02*
G01*
X139192009Y-126777421D01*
X139201528Y-126779806D01*
X139210768Y-126783112D01*
X139219640Y-126787308D01*
X139228057Y-126792353D01*
X139235939Y-126798199D01*
X139243211Y-126804789D01*
X139249801Y-126812061D01*
X139255647Y-126819943D01*
X139260692Y-126828360D01*
X139264888Y-126837232D01*
X139268194Y-126846472D01*
X139270579Y-126855991D01*
X139272018Y-126865698D01*
X139272500Y-126875500D01*
X139272500Y-128150500D01*
X139272018Y-128160302D01*
X139270579Y-128170009D01*
X139268194Y-128179528D01*
X139264888Y-128188768D01*
X139260692Y-128197640D01*
X139255647Y-128206057D01*
X139249801Y-128213939D01*
X139243211Y-128221211D01*
X139235939Y-128227801D01*
X139228057Y-128233647D01*
X139219640Y-128238692D01*
X139210768Y-128242888D01*
X139201528Y-128246194D01*
X139192009Y-128248579D01*
X139182302Y-128250018D01*
X139172500Y-128250500D01*
X138972500Y-128250500D01*
X138962698Y-128250018D01*
X138952991Y-128248579D01*
X138943472Y-128246194D01*
X138934232Y-128242888D01*
X138925360Y-128238692D01*
X138916943Y-128233647D01*
X138909061Y-128227801D01*
X138901789Y-128221211D01*
X138895199Y-128213939D01*
X138889353Y-128206057D01*
X138884308Y-128197640D01*
X138880112Y-128188768D01*
X138876806Y-128179528D01*
X138874421Y-128170009D01*
X138872982Y-128160302D01*
X138872500Y-128150500D01*
X138872500Y-126875500D01*
X138872982Y-126865698D01*
X138874421Y-126855991D01*
X138876806Y-126846472D01*
X138880112Y-126837232D01*
X138884308Y-126828360D01*
X138889353Y-126819943D01*
X138895199Y-126812061D01*
X138901789Y-126804789D01*
X138909061Y-126798199D01*
X138916943Y-126792353D01*
X138925360Y-126787308D01*
X138934232Y-126783112D01*
X138943472Y-126779806D01*
X138952991Y-126777421D01*
X138962698Y-126775982D01*
X138972500Y-126775500D01*
X139172500Y-126775500D01*
X139182302Y-126775982D01*
G37*
G04 #@! TD.AperFunction*
G04 #@! TA.AperFunction,SMDPad,CuDef*
G36*
X138532302Y-126775982D02*
G01*
X138542009Y-126777421D01*
X138551528Y-126779806D01*
X138560768Y-126783112D01*
X138569640Y-126787308D01*
X138578057Y-126792353D01*
X138585939Y-126798199D01*
X138593211Y-126804789D01*
X138599801Y-126812061D01*
X138605647Y-126819943D01*
X138610692Y-126828360D01*
X138614888Y-126837232D01*
X138618194Y-126846472D01*
X138620579Y-126855991D01*
X138622018Y-126865698D01*
X138622500Y-126875500D01*
X138622500Y-128150500D01*
X138622018Y-128160302D01*
X138620579Y-128170009D01*
X138618194Y-128179528D01*
X138614888Y-128188768D01*
X138610692Y-128197640D01*
X138605647Y-128206057D01*
X138599801Y-128213939D01*
X138593211Y-128221211D01*
X138585939Y-128227801D01*
X138578057Y-128233647D01*
X138569640Y-128238692D01*
X138560768Y-128242888D01*
X138551528Y-128246194D01*
X138542009Y-128248579D01*
X138532302Y-128250018D01*
X138522500Y-128250500D01*
X138322500Y-128250500D01*
X138312698Y-128250018D01*
X138302991Y-128248579D01*
X138293472Y-128246194D01*
X138284232Y-128242888D01*
X138275360Y-128238692D01*
X138266943Y-128233647D01*
X138259061Y-128227801D01*
X138251789Y-128221211D01*
X138245199Y-128213939D01*
X138239353Y-128206057D01*
X138234308Y-128197640D01*
X138230112Y-128188768D01*
X138226806Y-128179528D01*
X138224421Y-128170009D01*
X138222982Y-128160302D01*
X138222500Y-128150500D01*
X138222500Y-126875500D01*
X138222982Y-126865698D01*
X138224421Y-126855991D01*
X138226806Y-126846472D01*
X138230112Y-126837232D01*
X138234308Y-126828360D01*
X138239353Y-126819943D01*
X138245199Y-126812061D01*
X138251789Y-126804789D01*
X138259061Y-126798199D01*
X138266943Y-126792353D01*
X138275360Y-126787308D01*
X138284232Y-126783112D01*
X138293472Y-126779806D01*
X138302991Y-126777421D01*
X138312698Y-126775982D01*
X138322500Y-126775500D01*
X138522500Y-126775500D01*
X138532302Y-126775982D01*
G37*
G04 #@! TD.AperFunction*
G04 #@! TA.AperFunction,SMDPad,CuDef*
G36*
X137882302Y-126775982D02*
G01*
X137892009Y-126777421D01*
X137901528Y-126779806D01*
X137910768Y-126783112D01*
X137919640Y-126787308D01*
X137928057Y-126792353D01*
X137935939Y-126798199D01*
X137943211Y-126804789D01*
X137949801Y-126812061D01*
X137955647Y-126819943D01*
X137960692Y-126828360D01*
X137964888Y-126837232D01*
X137968194Y-126846472D01*
X137970579Y-126855991D01*
X137972018Y-126865698D01*
X137972500Y-126875500D01*
X137972500Y-128150500D01*
X137972018Y-128160302D01*
X137970579Y-128170009D01*
X137968194Y-128179528D01*
X137964888Y-128188768D01*
X137960692Y-128197640D01*
X137955647Y-128206057D01*
X137949801Y-128213939D01*
X137943211Y-128221211D01*
X137935939Y-128227801D01*
X137928057Y-128233647D01*
X137919640Y-128238692D01*
X137910768Y-128242888D01*
X137901528Y-128246194D01*
X137892009Y-128248579D01*
X137882302Y-128250018D01*
X137872500Y-128250500D01*
X137672500Y-128250500D01*
X137662698Y-128250018D01*
X137652991Y-128248579D01*
X137643472Y-128246194D01*
X137634232Y-128242888D01*
X137625360Y-128238692D01*
X137616943Y-128233647D01*
X137609061Y-128227801D01*
X137601789Y-128221211D01*
X137595199Y-128213939D01*
X137589353Y-128206057D01*
X137584308Y-128197640D01*
X137580112Y-128188768D01*
X137576806Y-128179528D01*
X137574421Y-128170009D01*
X137572982Y-128160302D01*
X137572500Y-128150500D01*
X137572500Y-126875500D01*
X137572982Y-126865698D01*
X137574421Y-126855991D01*
X137576806Y-126846472D01*
X137580112Y-126837232D01*
X137584308Y-126828360D01*
X137589353Y-126819943D01*
X137595199Y-126812061D01*
X137601789Y-126804789D01*
X137609061Y-126798199D01*
X137616943Y-126792353D01*
X137625360Y-126787308D01*
X137634232Y-126783112D01*
X137643472Y-126779806D01*
X137652991Y-126777421D01*
X137662698Y-126775982D01*
X137672500Y-126775500D01*
X137872500Y-126775500D01*
X137882302Y-126775982D01*
G37*
G04 #@! TD.AperFunction*
G04 #@! TA.AperFunction,SMDPad,CuDef*
G36*
X137232302Y-126775982D02*
G01*
X137242009Y-126777421D01*
X137251528Y-126779806D01*
X137260768Y-126783112D01*
X137269640Y-126787308D01*
X137278057Y-126792353D01*
X137285939Y-126798199D01*
X137293211Y-126804789D01*
X137299801Y-126812061D01*
X137305647Y-126819943D01*
X137310692Y-126828360D01*
X137314888Y-126837232D01*
X137318194Y-126846472D01*
X137320579Y-126855991D01*
X137322018Y-126865698D01*
X137322500Y-126875500D01*
X137322500Y-128150500D01*
X137322018Y-128160302D01*
X137320579Y-128170009D01*
X137318194Y-128179528D01*
X137314888Y-128188768D01*
X137310692Y-128197640D01*
X137305647Y-128206057D01*
X137299801Y-128213939D01*
X137293211Y-128221211D01*
X137285939Y-128227801D01*
X137278057Y-128233647D01*
X137269640Y-128238692D01*
X137260768Y-128242888D01*
X137251528Y-128246194D01*
X137242009Y-128248579D01*
X137232302Y-128250018D01*
X137222500Y-128250500D01*
X137022500Y-128250500D01*
X137012698Y-128250018D01*
X137002991Y-128248579D01*
X136993472Y-128246194D01*
X136984232Y-128242888D01*
X136975360Y-128238692D01*
X136966943Y-128233647D01*
X136959061Y-128227801D01*
X136951789Y-128221211D01*
X136945199Y-128213939D01*
X136939353Y-128206057D01*
X136934308Y-128197640D01*
X136930112Y-128188768D01*
X136926806Y-128179528D01*
X136924421Y-128170009D01*
X136922982Y-128160302D01*
X136922500Y-128150500D01*
X136922500Y-126875500D01*
X136922982Y-126865698D01*
X136924421Y-126855991D01*
X136926806Y-126846472D01*
X136930112Y-126837232D01*
X136934308Y-126828360D01*
X136939353Y-126819943D01*
X136945199Y-126812061D01*
X136951789Y-126804789D01*
X136959061Y-126798199D01*
X136966943Y-126792353D01*
X136975360Y-126787308D01*
X136984232Y-126783112D01*
X136993472Y-126779806D01*
X137002991Y-126777421D01*
X137012698Y-126775982D01*
X137022500Y-126775500D01*
X137222500Y-126775500D01*
X137232302Y-126775982D01*
G37*
G04 #@! TD.AperFunction*
G04 #@! TA.AperFunction,SMDPad,CuDef*
G36*
X136582302Y-126775982D02*
G01*
X136592009Y-126777421D01*
X136601528Y-126779806D01*
X136610768Y-126783112D01*
X136619640Y-126787308D01*
X136628057Y-126792353D01*
X136635939Y-126798199D01*
X136643211Y-126804789D01*
X136649801Y-126812061D01*
X136655647Y-126819943D01*
X136660692Y-126828360D01*
X136664888Y-126837232D01*
X136668194Y-126846472D01*
X136670579Y-126855991D01*
X136672018Y-126865698D01*
X136672500Y-126875500D01*
X136672500Y-128150500D01*
X136672018Y-128160302D01*
X136670579Y-128170009D01*
X136668194Y-128179528D01*
X136664888Y-128188768D01*
X136660692Y-128197640D01*
X136655647Y-128206057D01*
X136649801Y-128213939D01*
X136643211Y-128221211D01*
X136635939Y-128227801D01*
X136628057Y-128233647D01*
X136619640Y-128238692D01*
X136610768Y-128242888D01*
X136601528Y-128246194D01*
X136592009Y-128248579D01*
X136582302Y-128250018D01*
X136572500Y-128250500D01*
X136372500Y-128250500D01*
X136362698Y-128250018D01*
X136352991Y-128248579D01*
X136343472Y-128246194D01*
X136334232Y-128242888D01*
X136325360Y-128238692D01*
X136316943Y-128233647D01*
X136309061Y-128227801D01*
X136301789Y-128221211D01*
X136295199Y-128213939D01*
X136289353Y-128206057D01*
X136284308Y-128197640D01*
X136280112Y-128188768D01*
X136276806Y-128179528D01*
X136274421Y-128170009D01*
X136272982Y-128160302D01*
X136272500Y-128150500D01*
X136272500Y-126875500D01*
X136272982Y-126865698D01*
X136274421Y-126855991D01*
X136276806Y-126846472D01*
X136280112Y-126837232D01*
X136284308Y-126828360D01*
X136289353Y-126819943D01*
X136295199Y-126812061D01*
X136301789Y-126804789D01*
X136309061Y-126798199D01*
X136316943Y-126792353D01*
X136325360Y-126787308D01*
X136334232Y-126783112D01*
X136343472Y-126779806D01*
X136352991Y-126777421D01*
X136362698Y-126775982D01*
X136372500Y-126775500D01*
X136572500Y-126775500D01*
X136582302Y-126775982D01*
G37*
G04 #@! TD.AperFunction*
G04 #@! TA.AperFunction,SMDPad,CuDef*
G36*
X135932302Y-126775982D02*
G01*
X135942009Y-126777421D01*
X135951528Y-126779806D01*
X135960768Y-126783112D01*
X135969640Y-126787308D01*
X135978057Y-126792353D01*
X135985939Y-126798199D01*
X135993211Y-126804789D01*
X135999801Y-126812061D01*
X136005647Y-126819943D01*
X136010692Y-126828360D01*
X136014888Y-126837232D01*
X136018194Y-126846472D01*
X136020579Y-126855991D01*
X136022018Y-126865698D01*
X136022500Y-126875500D01*
X136022500Y-128150500D01*
X136022018Y-128160302D01*
X136020579Y-128170009D01*
X136018194Y-128179528D01*
X136014888Y-128188768D01*
X136010692Y-128197640D01*
X136005647Y-128206057D01*
X135999801Y-128213939D01*
X135993211Y-128221211D01*
X135985939Y-128227801D01*
X135978057Y-128233647D01*
X135969640Y-128238692D01*
X135960768Y-128242888D01*
X135951528Y-128246194D01*
X135942009Y-128248579D01*
X135932302Y-128250018D01*
X135922500Y-128250500D01*
X135722500Y-128250500D01*
X135712698Y-128250018D01*
X135702991Y-128248579D01*
X135693472Y-128246194D01*
X135684232Y-128242888D01*
X135675360Y-128238692D01*
X135666943Y-128233647D01*
X135659061Y-128227801D01*
X135651789Y-128221211D01*
X135645199Y-128213939D01*
X135639353Y-128206057D01*
X135634308Y-128197640D01*
X135630112Y-128188768D01*
X135626806Y-128179528D01*
X135624421Y-128170009D01*
X135622982Y-128160302D01*
X135622500Y-128150500D01*
X135622500Y-126875500D01*
X135622982Y-126865698D01*
X135624421Y-126855991D01*
X135626806Y-126846472D01*
X135630112Y-126837232D01*
X135634308Y-126828360D01*
X135639353Y-126819943D01*
X135645199Y-126812061D01*
X135651789Y-126804789D01*
X135659061Y-126798199D01*
X135666943Y-126792353D01*
X135675360Y-126787308D01*
X135684232Y-126783112D01*
X135693472Y-126779806D01*
X135702991Y-126777421D01*
X135712698Y-126775982D01*
X135722500Y-126775500D01*
X135922500Y-126775500D01*
X135932302Y-126775982D01*
G37*
G04 #@! TD.AperFunction*
G04 #@! TA.AperFunction,SMDPad,CuDef*
G36*
X135932302Y-121050982D02*
G01*
X135942009Y-121052421D01*
X135951528Y-121054806D01*
X135960768Y-121058112D01*
X135969640Y-121062308D01*
X135978057Y-121067353D01*
X135985939Y-121073199D01*
X135993211Y-121079789D01*
X135999801Y-121087061D01*
X136005647Y-121094943D01*
X136010692Y-121103360D01*
X136014888Y-121112232D01*
X136018194Y-121121472D01*
X136020579Y-121130991D01*
X136022018Y-121140698D01*
X136022500Y-121150500D01*
X136022500Y-122425500D01*
X136022018Y-122435302D01*
X136020579Y-122445009D01*
X136018194Y-122454528D01*
X136014888Y-122463768D01*
X136010692Y-122472640D01*
X136005647Y-122481057D01*
X135999801Y-122488939D01*
X135993211Y-122496211D01*
X135985939Y-122502801D01*
X135978057Y-122508647D01*
X135969640Y-122513692D01*
X135960768Y-122517888D01*
X135951528Y-122521194D01*
X135942009Y-122523579D01*
X135932302Y-122525018D01*
X135922500Y-122525500D01*
X135722500Y-122525500D01*
X135712698Y-122525018D01*
X135702991Y-122523579D01*
X135693472Y-122521194D01*
X135684232Y-122517888D01*
X135675360Y-122513692D01*
X135666943Y-122508647D01*
X135659061Y-122502801D01*
X135651789Y-122496211D01*
X135645199Y-122488939D01*
X135639353Y-122481057D01*
X135634308Y-122472640D01*
X135630112Y-122463768D01*
X135626806Y-122454528D01*
X135624421Y-122445009D01*
X135622982Y-122435302D01*
X135622500Y-122425500D01*
X135622500Y-121150500D01*
X135622982Y-121140698D01*
X135624421Y-121130991D01*
X135626806Y-121121472D01*
X135630112Y-121112232D01*
X135634308Y-121103360D01*
X135639353Y-121094943D01*
X135645199Y-121087061D01*
X135651789Y-121079789D01*
X135659061Y-121073199D01*
X135666943Y-121067353D01*
X135675360Y-121062308D01*
X135684232Y-121058112D01*
X135693472Y-121054806D01*
X135702991Y-121052421D01*
X135712698Y-121050982D01*
X135722500Y-121050500D01*
X135922500Y-121050500D01*
X135932302Y-121050982D01*
G37*
G04 #@! TD.AperFunction*
G04 #@! TA.AperFunction,SMDPad,CuDef*
G36*
X136582302Y-121050982D02*
G01*
X136592009Y-121052421D01*
X136601528Y-121054806D01*
X136610768Y-121058112D01*
X136619640Y-121062308D01*
X136628057Y-121067353D01*
X136635939Y-121073199D01*
X136643211Y-121079789D01*
X136649801Y-121087061D01*
X136655647Y-121094943D01*
X136660692Y-121103360D01*
X136664888Y-121112232D01*
X136668194Y-121121472D01*
X136670579Y-121130991D01*
X136672018Y-121140698D01*
X136672500Y-121150500D01*
X136672500Y-122425500D01*
X136672018Y-122435302D01*
X136670579Y-122445009D01*
X136668194Y-122454528D01*
X136664888Y-122463768D01*
X136660692Y-122472640D01*
X136655647Y-122481057D01*
X136649801Y-122488939D01*
X136643211Y-122496211D01*
X136635939Y-122502801D01*
X136628057Y-122508647D01*
X136619640Y-122513692D01*
X136610768Y-122517888D01*
X136601528Y-122521194D01*
X136592009Y-122523579D01*
X136582302Y-122525018D01*
X136572500Y-122525500D01*
X136372500Y-122525500D01*
X136362698Y-122525018D01*
X136352991Y-122523579D01*
X136343472Y-122521194D01*
X136334232Y-122517888D01*
X136325360Y-122513692D01*
X136316943Y-122508647D01*
X136309061Y-122502801D01*
X136301789Y-122496211D01*
X136295199Y-122488939D01*
X136289353Y-122481057D01*
X136284308Y-122472640D01*
X136280112Y-122463768D01*
X136276806Y-122454528D01*
X136274421Y-122445009D01*
X136272982Y-122435302D01*
X136272500Y-122425500D01*
X136272500Y-121150500D01*
X136272982Y-121140698D01*
X136274421Y-121130991D01*
X136276806Y-121121472D01*
X136280112Y-121112232D01*
X136284308Y-121103360D01*
X136289353Y-121094943D01*
X136295199Y-121087061D01*
X136301789Y-121079789D01*
X136309061Y-121073199D01*
X136316943Y-121067353D01*
X136325360Y-121062308D01*
X136334232Y-121058112D01*
X136343472Y-121054806D01*
X136352991Y-121052421D01*
X136362698Y-121050982D01*
X136372500Y-121050500D01*
X136572500Y-121050500D01*
X136582302Y-121050982D01*
G37*
G04 #@! TD.AperFunction*
G04 #@! TA.AperFunction,SMDPad,CuDef*
G36*
X137232302Y-121050982D02*
G01*
X137242009Y-121052421D01*
X137251528Y-121054806D01*
X137260768Y-121058112D01*
X137269640Y-121062308D01*
X137278057Y-121067353D01*
X137285939Y-121073199D01*
X137293211Y-121079789D01*
X137299801Y-121087061D01*
X137305647Y-121094943D01*
X137310692Y-121103360D01*
X137314888Y-121112232D01*
X137318194Y-121121472D01*
X137320579Y-121130991D01*
X137322018Y-121140698D01*
X137322500Y-121150500D01*
X137322500Y-122425500D01*
X137322018Y-122435302D01*
X137320579Y-122445009D01*
X137318194Y-122454528D01*
X137314888Y-122463768D01*
X137310692Y-122472640D01*
X137305647Y-122481057D01*
X137299801Y-122488939D01*
X137293211Y-122496211D01*
X137285939Y-122502801D01*
X137278057Y-122508647D01*
X137269640Y-122513692D01*
X137260768Y-122517888D01*
X137251528Y-122521194D01*
X137242009Y-122523579D01*
X137232302Y-122525018D01*
X137222500Y-122525500D01*
X137022500Y-122525500D01*
X137012698Y-122525018D01*
X137002991Y-122523579D01*
X136993472Y-122521194D01*
X136984232Y-122517888D01*
X136975360Y-122513692D01*
X136966943Y-122508647D01*
X136959061Y-122502801D01*
X136951789Y-122496211D01*
X136945199Y-122488939D01*
X136939353Y-122481057D01*
X136934308Y-122472640D01*
X136930112Y-122463768D01*
X136926806Y-122454528D01*
X136924421Y-122445009D01*
X136922982Y-122435302D01*
X136922500Y-122425500D01*
X136922500Y-121150500D01*
X136922982Y-121140698D01*
X136924421Y-121130991D01*
X136926806Y-121121472D01*
X136930112Y-121112232D01*
X136934308Y-121103360D01*
X136939353Y-121094943D01*
X136945199Y-121087061D01*
X136951789Y-121079789D01*
X136959061Y-121073199D01*
X136966943Y-121067353D01*
X136975360Y-121062308D01*
X136984232Y-121058112D01*
X136993472Y-121054806D01*
X137002991Y-121052421D01*
X137012698Y-121050982D01*
X137022500Y-121050500D01*
X137222500Y-121050500D01*
X137232302Y-121050982D01*
G37*
G04 #@! TD.AperFunction*
G04 #@! TA.AperFunction,SMDPad,CuDef*
G36*
X137882302Y-121050982D02*
G01*
X137892009Y-121052421D01*
X137901528Y-121054806D01*
X137910768Y-121058112D01*
X137919640Y-121062308D01*
X137928057Y-121067353D01*
X137935939Y-121073199D01*
X137943211Y-121079789D01*
X137949801Y-121087061D01*
X137955647Y-121094943D01*
X137960692Y-121103360D01*
X137964888Y-121112232D01*
X137968194Y-121121472D01*
X137970579Y-121130991D01*
X137972018Y-121140698D01*
X137972500Y-121150500D01*
X137972500Y-122425500D01*
X137972018Y-122435302D01*
X137970579Y-122445009D01*
X137968194Y-122454528D01*
X137964888Y-122463768D01*
X137960692Y-122472640D01*
X137955647Y-122481057D01*
X137949801Y-122488939D01*
X137943211Y-122496211D01*
X137935939Y-122502801D01*
X137928057Y-122508647D01*
X137919640Y-122513692D01*
X137910768Y-122517888D01*
X137901528Y-122521194D01*
X137892009Y-122523579D01*
X137882302Y-122525018D01*
X137872500Y-122525500D01*
X137672500Y-122525500D01*
X137662698Y-122525018D01*
X137652991Y-122523579D01*
X137643472Y-122521194D01*
X137634232Y-122517888D01*
X137625360Y-122513692D01*
X137616943Y-122508647D01*
X137609061Y-122502801D01*
X137601789Y-122496211D01*
X137595199Y-122488939D01*
X137589353Y-122481057D01*
X137584308Y-122472640D01*
X137580112Y-122463768D01*
X137576806Y-122454528D01*
X137574421Y-122445009D01*
X137572982Y-122435302D01*
X137572500Y-122425500D01*
X137572500Y-121150500D01*
X137572982Y-121140698D01*
X137574421Y-121130991D01*
X137576806Y-121121472D01*
X137580112Y-121112232D01*
X137584308Y-121103360D01*
X137589353Y-121094943D01*
X137595199Y-121087061D01*
X137601789Y-121079789D01*
X137609061Y-121073199D01*
X137616943Y-121067353D01*
X137625360Y-121062308D01*
X137634232Y-121058112D01*
X137643472Y-121054806D01*
X137652991Y-121052421D01*
X137662698Y-121050982D01*
X137672500Y-121050500D01*
X137872500Y-121050500D01*
X137882302Y-121050982D01*
G37*
G04 #@! TD.AperFunction*
G04 #@! TA.AperFunction,SMDPad,CuDef*
G36*
X138532302Y-121050982D02*
G01*
X138542009Y-121052421D01*
X138551528Y-121054806D01*
X138560768Y-121058112D01*
X138569640Y-121062308D01*
X138578057Y-121067353D01*
X138585939Y-121073199D01*
X138593211Y-121079789D01*
X138599801Y-121087061D01*
X138605647Y-121094943D01*
X138610692Y-121103360D01*
X138614888Y-121112232D01*
X138618194Y-121121472D01*
X138620579Y-121130991D01*
X138622018Y-121140698D01*
X138622500Y-121150500D01*
X138622500Y-122425500D01*
X138622018Y-122435302D01*
X138620579Y-122445009D01*
X138618194Y-122454528D01*
X138614888Y-122463768D01*
X138610692Y-122472640D01*
X138605647Y-122481057D01*
X138599801Y-122488939D01*
X138593211Y-122496211D01*
X138585939Y-122502801D01*
X138578057Y-122508647D01*
X138569640Y-122513692D01*
X138560768Y-122517888D01*
X138551528Y-122521194D01*
X138542009Y-122523579D01*
X138532302Y-122525018D01*
X138522500Y-122525500D01*
X138322500Y-122525500D01*
X138312698Y-122525018D01*
X138302991Y-122523579D01*
X138293472Y-122521194D01*
X138284232Y-122517888D01*
X138275360Y-122513692D01*
X138266943Y-122508647D01*
X138259061Y-122502801D01*
X138251789Y-122496211D01*
X138245199Y-122488939D01*
X138239353Y-122481057D01*
X138234308Y-122472640D01*
X138230112Y-122463768D01*
X138226806Y-122454528D01*
X138224421Y-122445009D01*
X138222982Y-122435302D01*
X138222500Y-122425500D01*
X138222500Y-121150500D01*
X138222982Y-121140698D01*
X138224421Y-121130991D01*
X138226806Y-121121472D01*
X138230112Y-121112232D01*
X138234308Y-121103360D01*
X138239353Y-121094943D01*
X138245199Y-121087061D01*
X138251789Y-121079789D01*
X138259061Y-121073199D01*
X138266943Y-121067353D01*
X138275360Y-121062308D01*
X138284232Y-121058112D01*
X138293472Y-121054806D01*
X138302991Y-121052421D01*
X138312698Y-121050982D01*
X138322500Y-121050500D01*
X138522500Y-121050500D01*
X138532302Y-121050982D01*
G37*
G04 #@! TD.AperFunction*
G04 #@! TA.AperFunction,SMDPad,CuDef*
G36*
X139182302Y-121050982D02*
G01*
X139192009Y-121052421D01*
X139201528Y-121054806D01*
X139210768Y-121058112D01*
X139219640Y-121062308D01*
X139228057Y-121067353D01*
X139235939Y-121073199D01*
X139243211Y-121079789D01*
X139249801Y-121087061D01*
X139255647Y-121094943D01*
X139260692Y-121103360D01*
X139264888Y-121112232D01*
X139268194Y-121121472D01*
X139270579Y-121130991D01*
X139272018Y-121140698D01*
X139272500Y-121150500D01*
X139272500Y-122425500D01*
X139272018Y-122435302D01*
X139270579Y-122445009D01*
X139268194Y-122454528D01*
X139264888Y-122463768D01*
X139260692Y-122472640D01*
X139255647Y-122481057D01*
X139249801Y-122488939D01*
X139243211Y-122496211D01*
X139235939Y-122502801D01*
X139228057Y-122508647D01*
X139219640Y-122513692D01*
X139210768Y-122517888D01*
X139201528Y-122521194D01*
X139192009Y-122523579D01*
X139182302Y-122525018D01*
X139172500Y-122525500D01*
X138972500Y-122525500D01*
X138962698Y-122525018D01*
X138952991Y-122523579D01*
X138943472Y-122521194D01*
X138934232Y-122517888D01*
X138925360Y-122513692D01*
X138916943Y-122508647D01*
X138909061Y-122502801D01*
X138901789Y-122496211D01*
X138895199Y-122488939D01*
X138889353Y-122481057D01*
X138884308Y-122472640D01*
X138880112Y-122463768D01*
X138876806Y-122454528D01*
X138874421Y-122445009D01*
X138872982Y-122435302D01*
X138872500Y-122425500D01*
X138872500Y-121150500D01*
X138872982Y-121140698D01*
X138874421Y-121130991D01*
X138876806Y-121121472D01*
X138880112Y-121112232D01*
X138884308Y-121103360D01*
X138889353Y-121094943D01*
X138895199Y-121087061D01*
X138901789Y-121079789D01*
X138909061Y-121073199D01*
X138916943Y-121067353D01*
X138925360Y-121062308D01*
X138934232Y-121058112D01*
X138943472Y-121054806D01*
X138952991Y-121052421D01*
X138962698Y-121050982D01*
X138972500Y-121050500D01*
X139172500Y-121050500D01*
X139182302Y-121050982D01*
G37*
G04 #@! TD.AperFunction*
G04 #@! TA.AperFunction,SMDPad,CuDef*
G36*
X139832302Y-121050982D02*
G01*
X139842009Y-121052421D01*
X139851528Y-121054806D01*
X139860768Y-121058112D01*
X139869640Y-121062308D01*
X139878057Y-121067353D01*
X139885939Y-121073199D01*
X139893211Y-121079789D01*
X139899801Y-121087061D01*
X139905647Y-121094943D01*
X139910692Y-121103360D01*
X139914888Y-121112232D01*
X139918194Y-121121472D01*
X139920579Y-121130991D01*
X139922018Y-121140698D01*
X139922500Y-121150500D01*
X139922500Y-122425500D01*
X139922018Y-122435302D01*
X139920579Y-122445009D01*
X139918194Y-122454528D01*
X139914888Y-122463768D01*
X139910692Y-122472640D01*
X139905647Y-122481057D01*
X139899801Y-122488939D01*
X139893211Y-122496211D01*
X139885939Y-122502801D01*
X139878057Y-122508647D01*
X139869640Y-122513692D01*
X139860768Y-122517888D01*
X139851528Y-122521194D01*
X139842009Y-122523579D01*
X139832302Y-122525018D01*
X139822500Y-122525500D01*
X139622500Y-122525500D01*
X139612698Y-122525018D01*
X139602991Y-122523579D01*
X139593472Y-122521194D01*
X139584232Y-122517888D01*
X139575360Y-122513692D01*
X139566943Y-122508647D01*
X139559061Y-122502801D01*
X139551789Y-122496211D01*
X139545199Y-122488939D01*
X139539353Y-122481057D01*
X139534308Y-122472640D01*
X139530112Y-122463768D01*
X139526806Y-122454528D01*
X139524421Y-122445009D01*
X139522982Y-122435302D01*
X139522500Y-122425500D01*
X139522500Y-121150500D01*
X139522982Y-121140698D01*
X139524421Y-121130991D01*
X139526806Y-121121472D01*
X139530112Y-121112232D01*
X139534308Y-121103360D01*
X139539353Y-121094943D01*
X139545199Y-121087061D01*
X139551789Y-121079789D01*
X139559061Y-121073199D01*
X139566943Y-121067353D01*
X139575360Y-121062308D01*
X139584232Y-121058112D01*
X139593472Y-121054806D01*
X139602991Y-121052421D01*
X139612698Y-121050982D01*
X139622500Y-121050500D01*
X139822500Y-121050500D01*
X139832302Y-121050982D01*
G37*
G04 #@! TD.AperFunction*
G04 #@! TA.AperFunction,SMDPad,CuDef*
G36*
X140482302Y-121050982D02*
G01*
X140492009Y-121052421D01*
X140501528Y-121054806D01*
X140510768Y-121058112D01*
X140519640Y-121062308D01*
X140528057Y-121067353D01*
X140535939Y-121073199D01*
X140543211Y-121079789D01*
X140549801Y-121087061D01*
X140555647Y-121094943D01*
X140560692Y-121103360D01*
X140564888Y-121112232D01*
X140568194Y-121121472D01*
X140570579Y-121130991D01*
X140572018Y-121140698D01*
X140572500Y-121150500D01*
X140572500Y-122425500D01*
X140572018Y-122435302D01*
X140570579Y-122445009D01*
X140568194Y-122454528D01*
X140564888Y-122463768D01*
X140560692Y-122472640D01*
X140555647Y-122481057D01*
X140549801Y-122488939D01*
X140543211Y-122496211D01*
X140535939Y-122502801D01*
X140528057Y-122508647D01*
X140519640Y-122513692D01*
X140510768Y-122517888D01*
X140501528Y-122521194D01*
X140492009Y-122523579D01*
X140482302Y-122525018D01*
X140472500Y-122525500D01*
X140272500Y-122525500D01*
X140262698Y-122525018D01*
X140252991Y-122523579D01*
X140243472Y-122521194D01*
X140234232Y-122517888D01*
X140225360Y-122513692D01*
X140216943Y-122508647D01*
X140209061Y-122502801D01*
X140201789Y-122496211D01*
X140195199Y-122488939D01*
X140189353Y-122481057D01*
X140184308Y-122472640D01*
X140180112Y-122463768D01*
X140176806Y-122454528D01*
X140174421Y-122445009D01*
X140172982Y-122435302D01*
X140172500Y-122425500D01*
X140172500Y-121150500D01*
X140172982Y-121140698D01*
X140174421Y-121130991D01*
X140176806Y-121121472D01*
X140180112Y-121112232D01*
X140184308Y-121103360D01*
X140189353Y-121094943D01*
X140195199Y-121087061D01*
X140201789Y-121079789D01*
X140209061Y-121073199D01*
X140216943Y-121067353D01*
X140225360Y-121062308D01*
X140234232Y-121058112D01*
X140243472Y-121054806D01*
X140252991Y-121052421D01*
X140262698Y-121050982D01*
X140272500Y-121050500D01*
X140472500Y-121050500D01*
X140482302Y-121050982D01*
G37*
G04 #@! TD.AperFunction*
G04 #@! TA.AperFunction,SMDPad,CuDef*
G36*
X141132302Y-121050982D02*
G01*
X141142009Y-121052421D01*
X141151528Y-121054806D01*
X141160768Y-121058112D01*
X141169640Y-121062308D01*
X141178057Y-121067353D01*
X141185939Y-121073199D01*
X141193211Y-121079789D01*
X141199801Y-121087061D01*
X141205647Y-121094943D01*
X141210692Y-121103360D01*
X141214888Y-121112232D01*
X141218194Y-121121472D01*
X141220579Y-121130991D01*
X141222018Y-121140698D01*
X141222500Y-121150500D01*
X141222500Y-122425500D01*
X141222018Y-122435302D01*
X141220579Y-122445009D01*
X141218194Y-122454528D01*
X141214888Y-122463768D01*
X141210692Y-122472640D01*
X141205647Y-122481057D01*
X141199801Y-122488939D01*
X141193211Y-122496211D01*
X141185939Y-122502801D01*
X141178057Y-122508647D01*
X141169640Y-122513692D01*
X141160768Y-122517888D01*
X141151528Y-122521194D01*
X141142009Y-122523579D01*
X141132302Y-122525018D01*
X141122500Y-122525500D01*
X140922500Y-122525500D01*
X140912698Y-122525018D01*
X140902991Y-122523579D01*
X140893472Y-122521194D01*
X140884232Y-122517888D01*
X140875360Y-122513692D01*
X140866943Y-122508647D01*
X140859061Y-122502801D01*
X140851789Y-122496211D01*
X140845199Y-122488939D01*
X140839353Y-122481057D01*
X140834308Y-122472640D01*
X140830112Y-122463768D01*
X140826806Y-122454528D01*
X140824421Y-122445009D01*
X140822982Y-122435302D01*
X140822500Y-122425500D01*
X140822500Y-121150500D01*
X140822982Y-121140698D01*
X140824421Y-121130991D01*
X140826806Y-121121472D01*
X140830112Y-121112232D01*
X140834308Y-121103360D01*
X140839353Y-121094943D01*
X140845199Y-121087061D01*
X140851789Y-121079789D01*
X140859061Y-121073199D01*
X140866943Y-121067353D01*
X140875360Y-121062308D01*
X140884232Y-121058112D01*
X140893472Y-121054806D01*
X140902991Y-121052421D01*
X140912698Y-121050982D01*
X140922500Y-121050500D01*
X141122500Y-121050500D01*
X141132302Y-121050982D01*
G37*
G04 #@! TD.AperFunction*
G04 #@! TA.AperFunction,SMDPad,CuDef*
G36*
X141782302Y-121050982D02*
G01*
X141792009Y-121052421D01*
X141801528Y-121054806D01*
X141810768Y-121058112D01*
X141819640Y-121062308D01*
X141828057Y-121067353D01*
X141835939Y-121073199D01*
X141843211Y-121079789D01*
X141849801Y-121087061D01*
X141855647Y-121094943D01*
X141860692Y-121103360D01*
X141864888Y-121112232D01*
X141868194Y-121121472D01*
X141870579Y-121130991D01*
X141872018Y-121140698D01*
X141872500Y-121150500D01*
X141872500Y-122425500D01*
X141872018Y-122435302D01*
X141870579Y-122445009D01*
X141868194Y-122454528D01*
X141864888Y-122463768D01*
X141860692Y-122472640D01*
X141855647Y-122481057D01*
X141849801Y-122488939D01*
X141843211Y-122496211D01*
X141835939Y-122502801D01*
X141828057Y-122508647D01*
X141819640Y-122513692D01*
X141810768Y-122517888D01*
X141801528Y-122521194D01*
X141792009Y-122523579D01*
X141782302Y-122525018D01*
X141772500Y-122525500D01*
X141572500Y-122525500D01*
X141562698Y-122525018D01*
X141552991Y-122523579D01*
X141543472Y-122521194D01*
X141534232Y-122517888D01*
X141525360Y-122513692D01*
X141516943Y-122508647D01*
X141509061Y-122502801D01*
X141501789Y-122496211D01*
X141495199Y-122488939D01*
X141489353Y-122481057D01*
X141484308Y-122472640D01*
X141480112Y-122463768D01*
X141476806Y-122454528D01*
X141474421Y-122445009D01*
X141472982Y-122435302D01*
X141472500Y-122425500D01*
X141472500Y-121150500D01*
X141472982Y-121140698D01*
X141474421Y-121130991D01*
X141476806Y-121121472D01*
X141480112Y-121112232D01*
X141484308Y-121103360D01*
X141489353Y-121094943D01*
X141495199Y-121087061D01*
X141501789Y-121079789D01*
X141509061Y-121073199D01*
X141516943Y-121067353D01*
X141525360Y-121062308D01*
X141534232Y-121058112D01*
X141543472Y-121054806D01*
X141552991Y-121052421D01*
X141562698Y-121050982D01*
X141572500Y-121050500D01*
X141772500Y-121050500D01*
X141782302Y-121050982D01*
G37*
G04 #@! TD.AperFunction*
D15*
X128100000Y-119065000D03*
X128100000Y-120965000D03*
X125900000Y-120965000D03*
X125900000Y-120015000D03*
X125900000Y-119065000D03*
D16*
X132080000Y-126682500D03*
X132080000Y-124142500D03*
X132080000Y-121602500D03*
X132080000Y-119062500D03*
D13*
X132080000Y-116522500D03*
D17*
X157561100Y-88593600D03*
X159661100Y-88593600D03*
X162641100Y-88593600D03*
X164741100Y-88593600D03*
X167721100Y-88593600D03*
X169821100Y-88593600D03*
X172801100Y-88593600D03*
X174901100Y-88593600D03*
X177881100Y-88593600D03*
X179981100Y-88593600D03*
X182961100Y-88593600D03*
X185061100Y-88593600D03*
X188041100Y-88593600D03*
X190141100Y-88593600D03*
X152481100Y-93673600D03*
X154581100Y-93673600D03*
X157561100Y-93673600D03*
X159661100Y-93673600D03*
X162641100Y-93673600D03*
X164741100Y-93673600D03*
X157561100Y-83513600D03*
X159661100Y-83513600D03*
X167721100Y-93673600D03*
X169821100Y-93673600D03*
X172801100Y-93673600D03*
X174901100Y-93673600D03*
X177881100Y-93673600D03*
X179981100Y-93673600D03*
X182961100Y-93673600D03*
X185061100Y-93673600D03*
X188041100Y-93673600D03*
X190141100Y-93673600D03*
X152481100Y-98753600D03*
X154581100Y-98753600D03*
X157561100Y-98753600D03*
X159661100Y-98753600D03*
X162641100Y-98753600D03*
X164741100Y-98753600D03*
X167721100Y-98753600D03*
X169821100Y-98753600D03*
X172801100Y-98753600D03*
X174901100Y-98753600D03*
X162641100Y-83513600D03*
X164741100Y-83513600D03*
X177881100Y-98753600D03*
X179981100Y-98753600D03*
X182961100Y-98753600D03*
X185061100Y-98753600D03*
X188041100Y-98753600D03*
X190141100Y-98753600D03*
X152481100Y-103833600D03*
X154581100Y-103833600D03*
X157561100Y-103833600D03*
X159661100Y-103833600D03*
X162641100Y-103833600D03*
X164741100Y-103833600D03*
X167721100Y-103833600D03*
X169821100Y-103833600D03*
X172801100Y-103833600D03*
X174901100Y-103833600D03*
X177881100Y-103833600D03*
X179981100Y-103833600D03*
X182961100Y-103833600D03*
X185061100Y-103833600D03*
X167721100Y-83513600D03*
X169821100Y-83513600D03*
X188041100Y-103833600D03*
X190141100Y-103833600D03*
X152481100Y-108913600D03*
X154581100Y-108913600D03*
X157561100Y-108913600D03*
X159661100Y-108913600D03*
X162641100Y-108913600D03*
X164741100Y-108913600D03*
X167721100Y-108913600D03*
X169821100Y-108913600D03*
X172801100Y-108913600D03*
X174901100Y-108913600D03*
X177881100Y-108913600D03*
X179981100Y-108913600D03*
X182961100Y-108913600D03*
X185061100Y-108913600D03*
X188041100Y-108913600D03*
X190141100Y-108913600D03*
X152481100Y-113993600D03*
X154581100Y-113993600D03*
X172801100Y-83513600D03*
X174901100Y-83513600D03*
X157561100Y-113993600D03*
X159661100Y-113993600D03*
X162641100Y-113993600D03*
X164741100Y-113993600D03*
X167721100Y-113993600D03*
X169821100Y-113993600D03*
X172801100Y-113993600D03*
X174901100Y-113993600D03*
X177881100Y-113993600D03*
X179981100Y-113993600D03*
X182961100Y-113993600D03*
X185061100Y-113993600D03*
X188041100Y-113993600D03*
X190141100Y-113993600D03*
X177881100Y-83513600D03*
X179981100Y-83513600D03*
X182961100Y-83513600D03*
X185061100Y-83513600D03*
X188041100Y-83513600D03*
X190141100Y-83513600D03*
X152481100Y-88593600D03*
X154581100Y-88593600D03*
X152481100Y-83513600D03*
X154581100Y-83513600D03*
D18*
X142405000Y-117246500D03*
X126365000Y-113728500D03*
X128270000Y-113728500D03*
X135890000Y-115633500D03*
X139065000Y-123126500D03*
X124587000Y-120015000D03*
X112585500Y-117030500D03*
D19*
X152261100Y-115263600D03*
X190361100Y-115263600D03*
X161151100Y-115263600D03*
X166231100Y-115263600D03*
X171311100Y-115263600D03*
X176391100Y-115263600D03*
X181471100Y-115263600D03*
X186551100Y-115263600D03*
X190361100Y-111453600D03*
X157561100Y-111453600D03*
X166231100Y-111453600D03*
X171311100Y-111453600D03*
X176391100Y-111453600D03*
X181471100Y-111453600D03*
X186551100Y-111453600D03*
X156071100Y-106373600D03*
X190361100Y-106373600D03*
X171311100Y-106373600D03*
X176391100Y-106373600D03*
X181471100Y-106373600D03*
X186551100Y-106373600D03*
X162641100Y-106373600D03*
X156071100Y-101293600D03*
X190361100Y-101293600D03*
X186551100Y-101293600D03*
X181471100Y-101293600D03*
X176391100Y-101293600D03*
X161151100Y-101293600D03*
X167721100Y-101293600D03*
X156071100Y-96213600D03*
X190361100Y-96213600D03*
X186551100Y-96213600D03*
X181471100Y-96213600D03*
X166231100Y-96213600D03*
X172801100Y-96213600D03*
X161151100Y-96213600D03*
X156071100Y-91133600D03*
X190361100Y-91133600D03*
X186551100Y-91133600D03*
X161151100Y-91133600D03*
X166231100Y-91133600D03*
X171311100Y-91133600D03*
X177881100Y-91133600D03*
X156071100Y-86053600D03*
X190361100Y-86053600D03*
X161151100Y-86053600D03*
X166231100Y-86053600D03*
X171311100Y-86053600D03*
X176391100Y-86053600D03*
X182961100Y-86053600D03*
D18*
X137795000Y-123126500D03*
X138849000Y-118262500D03*
X140017500Y-126238000D03*
X144589500Y-126123700D03*
X145605500Y-128003300D03*
X143141700Y-120332500D03*
X144589500Y-118503700D03*
X135890000Y-119253000D03*
X141351000Y-126238000D03*
D20*
X142405000Y-118255000D02*
X142405000Y-117246500D01*
X142405000Y-117246500D02*
X142405000Y-114155000D01*
X109334205Y-120221548D02*
X109334205Y-120218295D01*
X109334205Y-120218295D02*
X109397705Y-120218295D01*
D21*
X139072500Y-123119000D02*
X139065000Y-123126500D01*
X139072500Y-121788000D02*
X139072500Y-123119000D01*
X128270000Y-114782500D02*
X128270000Y-113728500D01*
X126365000Y-114782500D02*
X126365000Y-113728500D01*
D20*
X135890000Y-116687500D02*
X135890000Y-115633500D01*
D21*
X109334205Y-120221548D02*
X109394452Y-120221548D01*
X125900000Y-120015000D02*
X124587000Y-120015000D01*
X109394452Y-120221548D02*
X112585500Y-117030500D01*
D22*
X152481100Y-113993600D02*
X152481100Y-108913600D01*
X152481100Y-108913600D02*
X152481100Y-98753600D01*
X152481100Y-113993600D02*
X152481100Y-115263600D01*
X152481100Y-115263600D02*
X152261100Y-115263600D01*
X159661100Y-113993600D02*
X161151100Y-113993600D01*
X161151100Y-113993600D02*
X161151100Y-115263600D01*
X164741100Y-113993600D02*
X166231100Y-113993600D01*
X166231100Y-113993600D02*
X166231100Y-115263600D01*
X169821100Y-113993600D02*
X171311100Y-113993600D01*
X171311100Y-113993600D02*
X171311100Y-115263600D01*
X174901100Y-113993600D02*
X176391100Y-113993600D01*
X176391100Y-113993600D02*
X176391100Y-115263600D01*
X179981100Y-113993600D02*
X181471100Y-113993600D01*
X181471100Y-113993600D02*
X181471100Y-115263600D01*
X185061100Y-113993600D02*
X186551100Y-113993600D01*
X186551100Y-113993600D02*
X186551100Y-115263600D01*
X152481100Y-103833600D02*
X152481100Y-108913600D01*
X152481100Y-93673600D02*
X152481100Y-98753600D01*
X152481100Y-98753600D02*
X152481100Y-88593600D01*
X190141100Y-113993600D02*
X190361100Y-114213600D01*
X190361100Y-114213600D02*
X190361100Y-115263600D01*
D23*
X152481100Y-83513600D02*
X152481100Y-88593600D01*
D20*
X152481100Y-114843600D02*
X152481100Y-113993600D01*
X150414700Y-116910000D02*
X152481100Y-114843600D01*
X147458000Y-116910000D02*
X150414700Y-116910000D01*
D22*
X157561100Y-111453600D02*
X157561100Y-113993600D01*
X190361100Y-111453600D02*
X190361100Y-108913600D01*
X190361100Y-108913600D02*
X190141100Y-108913600D01*
X154581100Y-113993600D02*
X157561100Y-113993600D01*
X157561100Y-108913600D02*
X157561100Y-111453600D01*
X164741100Y-108913600D02*
X166231100Y-108913600D01*
X166231100Y-108913600D02*
X166231100Y-111453600D01*
X169821100Y-108913600D02*
X171311100Y-108913600D01*
X171311100Y-108913600D02*
X171311100Y-111453600D01*
X174901100Y-108913600D02*
X176391100Y-108913600D01*
X176391100Y-108913600D02*
X176391100Y-111453600D01*
X179981100Y-108913600D02*
X181471100Y-108913600D01*
X181471100Y-108913600D02*
X181471100Y-111453600D01*
X185061100Y-108913600D02*
X186551100Y-108913600D01*
X186551100Y-108913600D02*
X186551100Y-111453600D01*
X157561100Y-83513600D02*
X157561100Y-88593600D01*
X157561100Y-88593600D02*
X157561100Y-93673600D01*
X157561100Y-93673600D02*
X157561100Y-98753600D01*
X157561100Y-98753600D02*
X157561100Y-108913600D01*
X157561100Y-103833600D02*
X157561100Y-98753600D01*
D20*
X157561100Y-114843600D02*
X157561100Y-113993600D01*
X154694700Y-117710000D02*
X157561100Y-114843600D01*
X147458000Y-117710000D02*
X154694700Y-117710000D01*
D22*
X162641100Y-113993600D02*
X162641100Y-108913600D01*
X162641100Y-106373600D02*
X162641100Y-103833600D01*
X162641100Y-103833600D02*
X162641100Y-93673600D01*
X162641100Y-93673600D02*
X162641100Y-83513600D01*
X154581100Y-108913600D02*
X156071100Y-108913600D01*
X156071100Y-108913600D02*
X156071100Y-106373600D01*
X190361100Y-106373600D02*
X190361100Y-103833600D01*
X190361100Y-103833600D02*
X190141100Y-103833600D01*
X169821100Y-103833600D02*
X171311100Y-103833600D01*
X171311100Y-103833600D02*
X171311100Y-106373600D01*
X174901100Y-103833600D02*
X176391100Y-103833600D01*
X176391100Y-103833600D02*
X176391100Y-106373600D01*
X179981100Y-103833600D02*
X181471100Y-103833600D01*
X181471100Y-103833600D02*
X181471100Y-106373600D01*
X185061100Y-103833600D02*
X186551100Y-103833600D01*
X186551100Y-103833600D02*
X186551100Y-106373600D01*
X159661100Y-108913600D02*
X162641100Y-108913600D01*
X162641100Y-108913600D02*
X162641100Y-106373600D01*
X162641100Y-88593600D02*
X162641100Y-93673600D01*
X162641100Y-103833600D02*
X162641100Y-108913600D01*
X162641100Y-98753600D02*
X162641100Y-103833600D01*
D20*
X162641100Y-114843600D02*
X162641100Y-113993600D01*
X158974700Y-118510000D02*
X162641100Y-114843600D01*
X147458000Y-118510000D02*
X158974700Y-118510000D01*
D22*
X167721100Y-83513600D02*
X167721100Y-93673600D01*
X167721100Y-93673600D02*
X167721100Y-101293600D01*
X167721100Y-103833600D02*
X167721100Y-113993600D01*
X154581100Y-103833600D02*
X156071100Y-103833600D01*
X156071100Y-103833600D02*
X156071100Y-101293600D01*
X190361100Y-101293600D02*
X190361100Y-98753600D01*
X190361100Y-98753600D02*
X190141100Y-98753600D01*
X185061100Y-98753600D02*
X186551100Y-98753600D01*
X186551100Y-98753600D02*
X186551100Y-101293600D01*
X179981100Y-98753600D02*
X181471100Y-98753600D01*
X181471100Y-98753600D02*
X181471100Y-101293600D01*
X174901100Y-98753600D02*
X176391100Y-98753600D01*
X176391100Y-98753600D02*
X176391100Y-101293600D01*
X159661100Y-103833600D02*
X161151100Y-103833600D01*
X161151100Y-103833600D02*
X161151100Y-101293600D01*
X164741100Y-103833600D02*
X167721100Y-103833600D01*
X167721100Y-103833600D02*
X167721100Y-101293600D01*
X167721100Y-98753600D02*
X167721100Y-103833600D01*
X167721100Y-88593600D02*
X167721100Y-93673600D01*
X167721100Y-108913600D02*
X167721100Y-113993600D01*
D20*
X167721100Y-114843600D02*
X167721100Y-113993600D01*
X163254700Y-119310000D02*
X167721100Y-114843600D01*
X147458000Y-119310000D02*
X163254700Y-119310000D01*
D22*
X172801100Y-113993600D02*
X172801100Y-103833600D01*
X172801100Y-96213600D02*
X172801100Y-93673600D01*
X172801100Y-93673600D02*
X172801100Y-83513600D01*
X154581100Y-98753600D02*
X156071100Y-98753600D01*
X156071100Y-98753600D02*
X156071100Y-96213600D01*
X190361100Y-96213600D02*
X190361100Y-93673600D01*
X190361100Y-93673600D02*
X190141100Y-93673600D01*
X185061100Y-93673600D02*
X186551100Y-93673600D01*
X186551100Y-93673600D02*
X186551100Y-96213600D01*
X179981100Y-93673600D02*
X181471100Y-93673600D01*
X181471100Y-93673600D02*
X181471100Y-96213600D01*
X164741100Y-98753600D02*
X166231100Y-98753600D01*
X166231100Y-98753600D02*
X166231100Y-96213600D01*
X169821100Y-98753600D02*
X172801100Y-98753600D01*
X172801100Y-98753600D02*
X172801100Y-96213600D01*
X159661100Y-98753600D02*
X161151100Y-98753600D01*
X161151100Y-98753600D02*
X161151100Y-96213600D01*
X172801100Y-93673600D02*
X172801100Y-98753600D01*
X172801100Y-98753600D02*
X172801100Y-103833600D01*
X172801100Y-108913600D02*
X172801100Y-113993600D01*
X172801100Y-88593600D02*
X172801100Y-93673600D01*
D20*
X172801100Y-114843600D02*
X172801100Y-113993600D01*
X163114700Y-124530000D02*
X172801100Y-114843600D01*
X147458000Y-124530000D02*
X163114700Y-124530000D01*
D22*
X177881100Y-103833600D02*
X177881100Y-113993600D01*
X154581100Y-93673600D02*
X156071100Y-93673600D01*
X156071100Y-93673600D02*
X156071100Y-91133600D01*
X190361100Y-91133600D02*
X190361100Y-88593600D01*
X190361100Y-88593600D02*
X190141100Y-88593600D01*
X185061100Y-88593600D02*
X186551100Y-88593600D01*
X186551100Y-88593600D02*
X186551100Y-91133600D01*
X159661100Y-93673600D02*
X161151100Y-93673600D01*
X161151100Y-93673600D02*
X161151100Y-91133600D01*
X164741100Y-93673600D02*
X166231100Y-93673600D01*
X166231100Y-93673600D02*
X166231100Y-91133600D01*
X169821100Y-93673600D02*
X171311100Y-93673600D01*
X171311100Y-93673600D02*
X171311100Y-91133600D01*
X174901100Y-93673600D02*
X177881100Y-93673600D01*
X177881100Y-91133600D02*
X177881100Y-83513600D01*
X177881100Y-93673600D02*
X177881100Y-91133600D01*
X177881100Y-88593600D02*
X177881100Y-93673600D01*
X177881100Y-93673600D02*
X177881100Y-98753600D01*
X177881100Y-98753600D02*
X177881100Y-103833600D01*
X177881100Y-108913600D02*
X177881100Y-113993600D01*
D20*
X167394700Y-125330000D02*
X177881100Y-114843600D01*
X177881100Y-114843600D02*
X177881100Y-113993600D01*
X147458000Y-125330000D02*
X167394700Y-125330000D01*
D22*
X182961100Y-113993600D02*
X182961100Y-108913600D01*
X182961100Y-98753600D02*
X182961100Y-88593600D01*
X182961100Y-86053600D02*
X182961100Y-83513600D01*
X154581100Y-88593600D02*
X156071100Y-88593600D01*
X156071100Y-88593600D02*
X156071100Y-86053600D01*
X190361100Y-86053600D02*
X190361100Y-83513600D01*
X190361100Y-83513600D02*
X190141100Y-83513600D01*
X159661100Y-88593600D02*
X161151100Y-88593600D01*
X161151100Y-88593600D02*
X161151100Y-86053600D01*
X164741100Y-88593600D02*
X166231100Y-88593600D01*
X166231100Y-88593600D02*
X166231100Y-86053600D01*
X169821100Y-88593600D02*
X171311100Y-88593600D01*
X171311100Y-88593600D02*
X171311100Y-86053600D01*
X174901100Y-88593600D02*
X176391100Y-88593600D01*
X176391100Y-88593600D02*
X176391100Y-86053600D01*
X179981100Y-88593600D02*
X182961100Y-88593600D01*
X182961100Y-88593600D02*
X182961100Y-86053600D01*
X182961100Y-103833600D02*
X182961100Y-108913600D01*
X182961100Y-98753600D02*
X182961100Y-103833600D01*
X182961100Y-93673600D02*
X182961100Y-98753600D01*
D20*
X182961100Y-114843600D02*
X182961100Y-113993600D01*
X171674700Y-126130000D02*
X182961100Y-114843600D01*
X147458000Y-126130000D02*
X171674700Y-126130000D01*
D22*
X188041100Y-103833600D02*
X188041100Y-113993600D01*
X188041100Y-83513600D02*
X188041100Y-82243600D01*
X188041100Y-82243600D02*
X186551100Y-82243600D01*
X186551100Y-82243600D02*
X181471100Y-82243600D01*
X181471100Y-82243600D02*
X176391100Y-82243600D01*
X176391100Y-82243600D02*
X171311100Y-82243600D01*
X171311100Y-82243600D02*
X166231100Y-82243600D01*
X166231100Y-82243600D02*
X161151100Y-82243600D01*
X159661100Y-83513600D02*
X161151100Y-83513600D01*
X161151100Y-83513600D02*
X161151100Y-82243600D01*
X164741100Y-83513600D02*
X166231100Y-83513600D01*
X166231100Y-83513600D02*
X166231100Y-82243600D01*
X169821100Y-83513600D02*
X171311100Y-83513600D01*
X171311100Y-83513600D02*
X171311100Y-82243600D01*
X174901100Y-83513600D02*
X176391100Y-83513600D01*
X176391100Y-83513600D02*
X176391100Y-82243600D01*
X179981100Y-83513600D02*
X181471100Y-83513600D01*
X181471100Y-83513600D02*
X181471100Y-82243600D01*
X185061100Y-83513600D02*
X186551100Y-83513600D01*
X186551100Y-83513600D02*
X186551100Y-82243600D01*
X188041100Y-83513600D02*
X188041100Y-88593600D01*
X188041100Y-88593600D02*
X188041100Y-93673600D01*
X188041100Y-93673600D02*
X188041100Y-98753600D01*
X188041100Y-98753600D02*
X188041100Y-103833600D01*
X188041100Y-108913600D02*
X188041100Y-113993600D01*
D23*
X154581100Y-83513600D02*
X156071100Y-83513600D01*
X156071100Y-82243600D02*
X161151100Y-82243600D01*
X156071100Y-83513600D02*
X156071100Y-82243600D01*
D20*
X188041100Y-114843600D02*
X188041100Y-113993600D01*
X175954700Y-126930000D02*
X188041100Y-114843600D01*
X147458000Y-126930000D02*
X175954700Y-126930000D01*
X114283952Y-125171295D02*
X114283952Y-125111048D01*
D21*
X125900000Y-119065000D02*
X125900000Y-118257500D01*
X126365000Y-117792500D02*
X126365000Y-116357500D01*
X125900000Y-118257500D02*
X126365000Y-117792500D01*
X114283952Y-125171295D02*
X114287205Y-125171295D01*
X126830000Y-120965000D02*
X127000000Y-120795000D01*
X125900000Y-120965000D02*
X126830000Y-120965000D01*
X127000000Y-119235000D02*
X126830000Y-119065000D01*
X126830000Y-119065000D02*
X125900000Y-119065000D01*
X127000000Y-120795000D02*
X127000000Y-119235000D01*
X121663500Y-119065000D02*
X120330000Y-119065000D01*
X120330000Y-119065000D02*
X116840000Y-122555000D01*
X122506740Y-117637740D02*
X122506740Y-119067580D01*
X122504200Y-116535200D02*
X122504200Y-117635200D01*
X122506740Y-119067580D02*
X125900000Y-119065000D01*
D20*
X122504200Y-117635200D02*
X122506740Y-117637740D01*
D21*
X121663500Y-119065000D02*
X122506740Y-119067580D01*
X139722500Y-122525500D02*
X140208000Y-123011000D01*
X139722500Y-121788000D02*
X139722500Y-122525500D01*
X140208000Y-123011000D02*
X140208000Y-123380500D01*
D20*
X140805000Y-117555000D02*
X140805000Y-114155000D01*
X140805000Y-118255000D02*
X140805000Y-117555000D01*
X140797500Y-118262500D02*
X140805000Y-118255000D01*
X137795000Y-118262500D02*
X138849000Y-118262500D01*
X138849000Y-118262500D02*
X140797500Y-118262500D01*
X132080000Y-121666000D02*
X134673258Y-121666000D01*
X138076758Y-118262500D02*
X138849000Y-118262500D01*
X134673258Y-121666000D02*
X138076758Y-118262500D01*
X138422500Y-122499000D02*
X137795000Y-123126500D01*
X138422500Y-121788000D02*
X138422500Y-122499000D01*
X140372500Y-126593000D02*
X140372500Y-127513000D01*
X140017500Y-126238000D02*
X140372500Y-126593000D01*
X145384002Y-128930320D02*
X145605500Y-128708823D01*
X137802320Y-128930320D02*
X145384002Y-128930320D01*
X137122500Y-128250500D02*
X137802320Y-128930320D01*
X137122500Y-127513000D02*
X137122500Y-128250500D01*
X145605500Y-128447800D02*
X145605500Y-128003300D01*
X145605500Y-128708823D02*
X145605500Y-128447800D01*
X145605500Y-128447800D02*
X145605500Y-128270000D01*
X145651700Y-126123700D02*
X145658000Y-126130000D01*
X144589500Y-126123700D02*
X145651700Y-126123700D01*
X137554730Y-129332730D02*
X145550685Y-129332730D01*
X136472500Y-128250500D02*
X137554730Y-129332730D01*
X136472500Y-127513000D02*
X136472500Y-128250500D01*
X146308000Y-125330000D02*
X145658000Y-125330000D01*
X146335401Y-125357401D02*
X146308000Y-125330000D01*
X146335401Y-128548014D02*
X146335401Y-125357401D01*
X145550685Y-129332730D02*
X146335401Y-128548014D01*
X137388047Y-129735140D02*
X145717368Y-129735140D01*
X135822500Y-128169592D02*
X137388047Y-129735140D01*
X135822500Y-127513000D02*
X135822500Y-128169592D01*
X146308000Y-124530000D02*
X145658000Y-124530000D01*
X146737811Y-124959811D02*
X146308000Y-124530000D01*
X146737811Y-128714697D02*
X146737811Y-124959811D01*
X145717368Y-129735140D02*
X146737811Y-128714697D01*
X145501120Y-119310000D02*
X145658000Y-119310000D01*
X145245260Y-119565860D02*
X145501120Y-119310000D01*
X137423398Y-119565860D02*
X145245260Y-119565860D01*
X135822500Y-121166758D02*
X137423398Y-119565860D01*
X135822500Y-121788000D02*
X135822500Y-121166758D01*
X142262199Y-119968270D02*
X142262200Y-119968272D01*
X137670988Y-119968270D02*
X142262199Y-119968270D01*
X136472500Y-121166758D02*
X137670988Y-119968270D01*
X136472500Y-121788000D02*
X136472500Y-121166758D01*
X145651700Y-118503700D02*
X145658000Y-118510000D01*
X144589500Y-118503700D02*
X145651700Y-118503700D01*
X142777470Y-119968270D02*
X143141700Y-120332500D01*
X142262199Y-119968270D02*
X142777470Y-119968270D01*
X142095515Y-120370680D02*
X142964645Y-121239811D01*
X137918578Y-120370680D02*
X142095515Y-120370680D01*
X137122500Y-121166758D02*
X137918578Y-120370680D01*
X137122500Y-121788000D02*
X137122500Y-121166758D01*
X142964645Y-121239811D02*
X146023604Y-121239811D01*
X146308000Y-117710000D02*
X145658000Y-117710000D01*
X146023604Y-121239811D02*
X146335401Y-120928014D01*
X146335401Y-117737401D02*
X146308000Y-117710000D01*
X146335401Y-120928014D02*
X146335401Y-117737401D01*
X138166168Y-128527910D02*
X144907000Y-128527910D01*
X137772500Y-128134242D02*
X138166168Y-128527910D01*
X137772500Y-127513000D02*
X137772500Y-128134242D01*
X145008000Y-126930000D02*
X145658000Y-126930000D01*
X144907000Y-127031000D02*
X145008000Y-126930000D01*
X144907000Y-128527910D02*
X144907000Y-127031000D01*
X141928832Y-120773090D02*
X142797962Y-121642221D01*
X138166168Y-120773090D02*
X141928832Y-120773090D01*
X137772500Y-121166758D02*
X138166168Y-120773090D01*
X137772500Y-121788000D02*
X137772500Y-121166758D01*
X142797962Y-121642221D02*
X146190287Y-121642221D01*
X146308000Y-116910000D02*
X145658000Y-116910000D01*
X146737809Y-117339809D02*
X146308000Y-116910000D01*
X146737809Y-121094698D02*
X146737809Y-117339809D01*
X146190287Y-121642221D02*
X146737809Y-121094698D01*
X135890000Y-118262500D02*
X135890000Y-119253000D01*
X141022500Y-126566500D02*
X141022500Y-127513000D01*
X141351000Y-126238000D02*
X141022500Y-126566500D01*
X132207000Y-119253000D02*
X132080000Y-119126000D01*
X135890000Y-119253000D02*
X132207000Y-119253000D01*
D24*
G36*
X148463000Y-116150000D02*
G01*
X148237518Y-116150000D01*
X148212494Y-116129463D01*
X148102180Y-116070498D01*
X147982482Y-116034188D01*
X147858000Y-116021928D01*
X147058000Y-116021928D01*
X146933518Y-116034188D01*
X146813820Y-116070498D01*
X146703506Y-116129463D01*
X146607442Y-116208300D01*
X146600247Y-116204454D01*
X146456986Y-116160997D01*
X146450091Y-116160318D01*
X146412494Y-116129463D01*
X146302180Y-116070498D01*
X146182482Y-116034188D01*
X146058000Y-116021928D01*
X145258000Y-116021928D01*
X145133518Y-116034188D01*
X145013820Y-116070498D01*
X144903506Y-116129463D01*
X144806815Y-116208815D01*
X144727463Y-116305506D01*
X144668498Y-116415820D01*
X144632188Y-116535518D01*
X144619928Y-116660000D01*
X144619928Y-117160000D01*
X144632188Y-117284482D01*
X144647512Y-117335000D01*
X144632188Y-117385518D01*
X144623996Y-117468700D01*
X144487561Y-117468700D01*
X144287602Y-117508474D01*
X144099244Y-117586495D01*
X143929726Y-117699763D01*
X143785563Y-117843926D01*
X143672295Y-118013444D01*
X143594274Y-118201802D01*
X143554500Y-118401761D01*
X143554500Y-118605639D01*
X143594274Y-118805598D01*
X143594383Y-118805860D01*
X143533138Y-118805860D01*
X143543072Y-118705000D01*
X143543072Y-117805000D01*
X143530812Y-117680518D01*
X143494502Y-117560820D01*
X143435537Y-117450506D01*
X143422788Y-117434971D01*
X143440000Y-117348439D01*
X143440000Y-117144561D01*
X143400226Y-116944602D01*
X143322205Y-116756244D01*
X143208937Y-116586726D01*
X143165000Y-116542789D01*
X143165000Y-115186046D01*
X143259494Y-115135537D01*
X143356185Y-115056185D01*
X143435537Y-114959494D01*
X143494502Y-114849180D01*
X143530812Y-114729482D01*
X143543072Y-114605000D01*
X143543072Y-113705000D01*
X143530812Y-113580518D01*
X143494502Y-113460820D01*
X143435537Y-113350506D01*
X143356185Y-113253815D01*
X143259494Y-113174463D01*
X143149180Y-113115498D01*
X143029482Y-113079188D01*
X142905000Y-113066928D01*
X141905000Y-113066928D01*
X141780518Y-113079188D01*
X141660820Y-113115498D01*
X141605000Y-113145335D01*
X141549180Y-113115498D01*
X141429482Y-113079188D01*
X141305000Y-113066928D01*
X140305000Y-113066928D01*
X140180518Y-113079188D01*
X140060820Y-113115498D01*
X139950506Y-113174463D01*
X139853815Y-113253815D01*
X139774463Y-113350506D01*
X139715498Y-113460820D01*
X139679188Y-113580518D01*
X139666928Y-113705000D01*
X139666928Y-114605000D01*
X139679188Y-114729482D01*
X139715498Y-114849180D01*
X139774463Y-114959494D01*
X139853815Y-115056185D01*
X139950506Y-115135537D01*
X140045001Y-115186046D01*
X140045000Y-117223954D01*
X139950506Y-117274463D01*
X139853815Y-117353815D01*
X139774463Y-117450506D01*
X139746671Y-117502500D01*
X139552711Y-117502500D01*
X139508774Y-117458563D01*
X139339256Y-117345295D01*
X139150898Y-117267274D01*
X138950939Y-117227500D01*
X138897977Y-117227500D01*
X138908072Y-117125000D01*
X138905000Y-116973250D01*
X138746250Y-116814500D01*
X137922000Y-116814500D01*
X137922000Y-116834500D01*
X137668000Y-116834500D01*
X137668000Y-116814500D01*
X137648000Y-116814500D01*
X137648000Y-116560500D01*
X137668000Y-116560500D01*
X137668000Y-115773750D01*
X137922000Y-115773750D01*
X137922000Y-116560500D01*
X138746250Y-116560500D01*
X138905000Y-116401750D01*
X138908072Y-116250000D01*
X138895812Y-116125518D01*
X138859502Y-116005820D01*
X138800537Y-115895506D01*
X138721185Y-115798815D01*
X138624494Y-115719463D01*
X138514180Y-115660498D01*
X138394482Y-115624188D01*
X138270000Y-115611928D01*
X138080750Y-115615000D01*
X137922000Y-115773750D01*
X137668000Y-115773750D01*
X137509250Y-115615000D01*
X137320000Y-115611928D01*
X137195518Y-115624188D01*
X137075820Y-115660498D01*
X136965506Y-115719463D01*
X136920896Y-115756074D01*
X136925000Y-115735439D01*
X136925000Y-115531561D01*
X136885226Y-115331602D01*
X136807205Y-115143244D01*
X136693937Y-114973726D01*
X136549774Y-114829563D01*
X136380256Y-114716295D01*
X136191898Y-114638274D01*
X135991939Y-114598500D01*
X135788061Y-114598500D01*
X135588102Y-114638274D01*
X135399744Y-114716295D01*
X135230226Y-114829563D01*
X135086063Y-114973726D01*
X134972795Y-115143244D01*
X134894774Y-115331602D01*
X134855000Y-115531561D01*
X134855000Y-115735439D01*
X134894774Y-115935398D01*
X134919746Y-115995686D01*
X134842150Y-116140858D01*
X134793392Y-116301592D01*
X134776928Y-116468750D01*
X134776928Y-116906250D01*
X134793392Y-117073408D01*
X134842150Y-117234142D01*
X134921329Y-117382275D01*
X134997426Y-117475000D01*
X134921329Y-117567725D01*
X134842150Y-117715858D01*
X134793392Y-117876592D01*
X134776928Y-118043750D01*
X134776928Y-118481250D01*
X134778085Y-118493000D01*
X133451458Y-118493000D01*
X133395990Y-118359089D01*
X133233475Y-118115868D01*
X133101620Y-117984013D01*
X133174180Y-117962002D01*
X133284494Y-117903037D01*
X133381185Y-117823685D01*
X133460537Y-117726994D01*
X133519502Y-117616680D01*
X133555812Y-117496982D01*
X133568072Y-117372500D01*
X133568072Y-115672500D01*
X133555812Y-115548018D01*
X133519502Y-115428320D01*
X133460537Y-115318006D01*
X133381185Y-115221315D01*
X133284494Y-115141963D01*
X133174180Y-115082998D01*
X133054482Y-115046688D01*
X132930000Y-115034428D01*
X131230000Y-115034428D01*
X131105518Y-115046688D01*
X130985820Y-115082998D01*
X130875506Y-115141963D01*
X130778815Y-115221315D01*
X130699463Y-115318006D01*
X130640498Y-115428320D01*
X130604188Y-115548018D01*
X130591928Y-115672500D01*
X130591928Y-117372500D01*
X130604188Y-117496982D01*
X130640498Y-117616680D01*
X130699463Y-117726994D01*
X130778815Y-117823685D01*
X130875506Y-117903037D01*
X130985820Y-117962002D01*
X131058380Y-117984013D01*
X130926525Y-118115868D01*
X130764010Y-118359089D01*
X130652068Y-118629342D01*
X130595000Y-118916240D01*
X130595000Y-119208760D01*
X130652068Y-119495658D01*
X130764010Y-119765911D01*
X130926525Y-120009132D01*
X131133368Y-120215975D01*
X131307760Y-120332500D01*
X131133368Y-120449025D01*
X130926525Y-120655868D01*
X130764010Y-120899089D01*
X130652068Y-121169342D01*
X130595000Y-121456240D01*
X130595000Y-121748760D01*
X130652068Y-122035658D01*
X130764010Y-122305911D01*
X130926525Y-122549132D01*
X131133368Y-122755975D01*
X131307760Y-122872500D01*
X131133368Y-122989025D01*
X130926525Y-123195868D01*
X130764010Y-123439089D01*
X130652068Y-123709342D01*
X130595000Y-123996240D01*
X130595000Y-124288760D01*
X130652068Y-124575658D01*
X130764010Y-124845911D01*
X130926525Y-125089132D01*
X131133368Y-125295975D01*
X131315534Y-125417695D01*
X131198645Y-125487322D01*
X130982412Y-125682231D01*
X130808359Y-125915580D01*
X130683175Y-126178401D01*
X130638524Y-126325610D01*
X130759845Y-126555500D01*
X131953000Y-126555500D01*
X131953000Y-126535500D01*
X132207000Y-126535500D01*
X132207000Y-126555500D01*
X133400155Y-126555500D01*
X133521476Y-126325610D01*
X133476825Y-126178401D01*
X133351641Y-125915580D01*
X133177588Y-125682231D01*
X132961355Y-125487322D01*
X132844466Y-125417695D01*
X133026632Y-125295975D01*
X133233475Y-125089132D01*
X133395990Y-124845911D01*
X133507932Y-124575658D01*
X133565000Y-124288760D01*
X133565000Y-123996240D01*
X133507932Y-123709342D01*
X133395990Y-123439089D01*
X133233475Y-123195868D01*
X133026632Y-122989025D01*
X132852240Y-122872500D01*
X133026632Y-122755975D01*
X133233475Y-122549132D01*
X133315749Y-122426000D01*
X134635936Y-122426000D01*
X134673258Y-122429676D01*
X134710580Y-122426000D01*
X134710591Y-122426000D01*
X134822244Y-122415003D01*
X134965505Y-122371546D01*
X134984428Y-122361431D01*
X134984428Y-122425500D01*
X134998610Y-122569491D01*
X135040610Y-122707948D01*
X135108816Y-122835551D01*
X135200604Y-122947396D01*
X135312449Y-123039184D01*
X135440052Y-123107390D01*
X135578509Y-123149390D01*
X135722500Y-123163572D01*
X135922500Y-123163572D01*
X136066491Y-123149390D01*
X136147500Y-123124816D01*
X136228509Y-123149390D01*
X136372500Y-123163572D01*
X136572500Y-123163572D01*
X136716491Y-123149390D01*
X136760000Y-123136192D01*
X136760000Y-123228439D01*
X136799774Y-123428398D01*
X136877795Y-123616756D01*
X136991063Y-123786274D01*
X137135226Y-123930437D01*
X137304744Y-124043705D01*
X137493102Y-124121726D01*
X137693061Y-124161500D01*
X137896939Y-124161500D01*
X138096898Y-124121726D01*
X138285256Y-124043705D01*
X138430000Y-123946990D01*
X138574744Y-124043705D01*
X138763102Y-124121726D01*
X138963061Y-124161500D01*
X139166939Y-124161500D01*
X139366898Y-124121726D01*
X139555256Y-124043705D01*
X139724774Y-123930437D01*
X139868937Y-123786274D01*
X139982205Y-123616756D01*
X140060226Y-123428398D01*
X140100000Y-123228439D01*
X140100000Y-123140742D01*
X140128509Y-123149390D01*
X140272500Y-123163572D01*
X140472500Y-123163572D01*
X140616491Y-123149390D01*
X140697500Y-123124816D01*
X140778509Y-123149390D01*
X140922500Y-123163572D01*
X141122500Y-123163572D01*
X141266491Y-123149390D01*
X141347500Y-123124816D01*
X141428509Y-123149390D01*
X141572500Y-123163572D01*
X141772500Y-123163572D01*
X141916491Y-123149390D01*
X142054948Y-123107390D01*
X142182551Y-123039184D01*
X142294396Y-122947396D01*
X142386184Y-122835551D01*
X142454390Y-122707948D01*
X142496390Y-122569491D01*
X142510572Y-122425500D01*
X142510572Y-122349240D01*
X142648976Y-122391224D01*
X142760629Y-122402221D01*
X142760638Y-122402221D01*
X142797961Y-122405897D01*
X142835284Y-122402221D01*
X146152965Y-122402221D01*
X146190287Y-122405897D01*
X146227610Y-122402221D01*
X146227620Y-122402221D01*
X146339273Y-122391224D01*
X146482534Y-122347767D01*
X146614563Y-122277195D01*
X146730288Y-122182222D01*
X146754086Y-122153224D01*
X147248819Y-121658491D01*
X147277810Y-121634699D01*
X147301604Y-121605706D01*
X147301609Y-121605701D01*
X147372783Y-121518974D01*
X147381722Y-121502250D01*
X147443355Y-121386945D01*
X147486812Y-121243684D01*
X147497809Y-121132031D01*
X147497809Y-121132023D01*
X147501485Y-121094698D01*
X147497809Y-121057375D01*
X147497809Y-120198072D01*
X147858000Y-120198072D01*
X147982482Y-120185812D01*
X148102180Y-120149502D01*
X148212494Y-120090537D01*
X148237518Y-120070000D01*
X148463000Y-120070000D01*
X148463000Y-123770000D01*
X148237518Y-123770000D01*
X148212494Y-123749463D01*
X148102180Y-123690498D01*
X147982482Y-123654188D01*
X147858000Y-123641928D01*
X147058000Y-123641928D01*
X146933518Y-123654188D01*
X146813820Y-123690498D01*
X146703506Y-123749463D01*
X146607442Y-123828300D01*
X146600247Y-123824454D01*
X146456986Y-123780997D01*
X146450091Y-123780318D01*
X146412494Y-123749463D01*
X146302180Y-123690498D01*
X146182482Y-123654188D01*
X146058000Y-123641928D01*
X145258000Y-123641928D01*
X145133518Y-123654188D01*
X145013820Y-123690498D01*
X144903506Y-123749463D01*
X144806815Y-123828815D01*
X144727463Y-123925506D01*
X144668498Y-124035820D01*
X144632188Y-124155518D01*
X144619928Y-124280000D01*
X144619928Y-124780000D01*
X144632188Y-124904482D01*
X144647512Y-124955000D01*
X144632188Y-125005518D01*
X144623996Y-125088700D01*
X144487561Y-125088700D01*
X144287602Y-125128474D01*
X144099244Y-125206495D01*
X143929726Y-125319763D01*
X143785563Y-125463926D01*
X143672295Y-125633444D01*
X143594274Y-125821802D01*
X143554500Y-126021761D01*
X143554500Y-126225639D01*
X143594274Y-126425598D01*
X143672295Y-126613956D01*
X143785563Y-126783474D01*
X143929726Y-126927637D01*
X144099244Y-127040905D01*
X144146216Y-127060362D01*
X144147001Y-127068332D01*
X144147001Y-127767910D01*
X142510572Y-127767910D01*
X142510572Y-126875500D01*
X142496390Y-126731509D01*
X142454390Y-126593052D01*
X142386184Y-126465449D01*
X142365941Y-126440783D01*
X142386000Y-126339939D01*
X142386000Y-126136061D01*
X142346226Y-125936102D01*
X142268205Y-125747744D01*
X142154937Y-125578226D01*
X142010774Y-125434063D01*
X141841256Y-125320795D01*
X141652898Y-125242774D01*
X141452939Y-125203000D01*
X141249061Y-125203000D01*
X141049102Y-125242774D01*
X140860744Y-125320795D01*
X140691226Y-125434063D01*
X140684250Y-125441039D01*
X140677274Y-125434063D01*
X140507756Y-125320795D01*
X140319398Y-125242774D01*
X140119439Y-125203000D01*
X139915561Y-125203000D01*
X139715602Y-125242774D01*
X139527244Y-125320795D01*
X139357726Y-125434063D01*
X139213563Y-125578226D01*
X139100295Y-125747744D01*
X139022274Y-125936102D01*
X138982500Y-126136061D01*
X138982500Y-126137428D01*
X138972500Y-126137428D01*
X138828509Y-126151610D01*
X138747500Y-126176184D01*
X138666491Y-126151610D01*
X138522500Y-126137428D01*
X138322500Y-126137428D01*
X138178509Y-126151610D01*
X138097500Y-126176184D01*
X138016491Y-126151610D01*
X137872500Y-126137428D01*
X137672500Y-126137428D01*
X137528509Y-126151610D01*
X137447500Y-126176184D01*
X137366491Y-126151610D01*
X137222500Y-126137428D01*
X137022500Y-126137428D01*
X136878509Y-126151610D01*
X136797500Y-126176184D01*
X136716491Y-126151610D01*
X136572500Y-126137428D01*
X136372500Y-126137428D01*
X136228509Y-126151610D01*
X136147500Y-126176184D01*
X136066491Y-126151610D01*
X135922500Y-126137428D01*
X135722500Y-126137428D01*
X135578509Y-126151610D01*
X135440052Y-126193610D01*
X135312449Y-126261816D01*
X135200604Y-126353604D01*
X135108816Y-126465449D01*
X135040610Y-126593052D01*
X134998610Y-126731509D01*
X134984428Y-126875500D01*
X134984428Y-128150500D01*
X134998610Y-128294491D01*
X135040610Y-128432948D01*
X135108816Y-128560551D01*
X135200604Y-128672396D01*
X135312449Y-128764184D01*
X135376558Y-128798452D01*
X136421706Y-129843600D01*
X130366721Y-129843600D01*
X127562511Y-127039390D01*
X130638524Y-127039390D01*
X130683175Y-127186599D01*
X130808359Y-127449420D01*
X130982412Y-127682769D01*
X131198645Y-127877678D01*
X131448748Y-128026657D01*
X131723109Y-128123981D01*
X131953000Y-128003314D01*
X131953000Y-126809500D01*
X132207000Y-126809500D01*
X132207000Y-128003314D01*
X132436891Y-128123981D01*
X132711252Y-128026657D01*
X132961355Y-127877678D01*
X133177588Y-127682769D01*
X133351641Y-127449420D01*
X133476825Y-127186599D01*
X133521476Y-127039390D01*
X133400155Y-126809500D01*
X132207000Y-126809500D01*
X131953000Y-126809500D01*
X130759845Y-126809500D01*
X130638524Y-127039390D01*
X127562511Y-127039390D01*
X121885543Y-121362423D01*
X121864876Y-121337240D01*
X121764378Y-121254763D01*
X121649720Y-121193478D01*
X121525311Y-121155739D01*
X121395928Y-121142996D01*
X121266545Y-121155739D01*
X121142135Y-121193478D01*
X121027478Y-121254763D01*
X120991741Y-121284092D01*
X120926980Y-121337240D01*
X120906316Y-121362419D01*
X112698513Y-129570220D01*
X112098914Y-128970621D01*
X112180412Y-128978648D01*
X112304894Y-128966388D01*
X112424592Y-128930078D01*
X112534906Y-128871113D01*
X112631597Y-128791761D01*
X117934898Y-123488460D01*
X118014250Y-123391769D01*
X118073215Y-123281455D01*
X118109525Y-123161757D01*
X118121785Y-123037275D01*
X118109525Y-122912793D01*
X118073215Y-122793095D01*
X118014250Y-122682781D01*
X117959635Y-122616232D01*
X120675868Y-119900000D01*
X121662416Y-119900000D01*
X122464441Y-119902454D01*
X122506740Y-119906620D01*
X122548085Y-119902548D01*
X123554243Y-119901783D01*
X123552000Y-119913061D01*
X123552000Y-120116939D01*
X123591774Y-120316898D01*
X123669795Y-120505256D01*
X123783063Y-120674774D01*
X123927226Y-120818937D01*
X124096744Y-120932205D01*
X124285102Y-121010226D01*
X124485061Y-121050000D01*
X124688939Y-121050000D01*
X124731928Y-121041449D01*
X124731928Y-121290000D01*
X124744188Y-121414482D01*
X124780498Y-121534180D01*
X124839463Y-121644494D01*
X124918815Y-121741185D01*
X125015506Y-121820537D01*
X125125820Y-121879502D01*
X125245518Y-121915812D01*
X125370000Y-121928072D01*
X126430000Y-121928072D01*
X126554482Y-121915812D01*
X126674180Y-121879502D01*
X126784494Y-121820537D01*
X126807318Y-121801806D01*
X126830000Y-121804040D01*
X126871018Y-121800000D01*
X126871019Y-121800000D01*
X126993689Y-121787918D01*
X127126623Y-121747593D01*
X127215506Y-121820537D01*
X127325820Y-121879502D01*
X127445518Y-121915812D01*
X127570000Y-121928072D01*
X128630000Y-121928072D01*
X128754482Y-121915812D01*
X128874180Y-121879502D01*
X128984494Y-121820537D01*
X129081185Y-121741185D01*
X129160537Y-121644494D01*
X129219502Y-121534180D01*
X129255812Y-121414482D01*
X129268072Y-121290000D01*
X129268072Y-120640000D01*
X129255812Y-120515518D01*
X129219502Y-120395820D01*
X129160537Y-120285506D01*
X129081185Y-120188815D01*
X128984494Y-120109463D01*
X128874180Y-120050498D01*
X128757159Y-120015000D01*
X128874180Y-119979502D01*
X128984494Y-119920537D01*
X129081185Y-119841185D01*
X129160537Y-119744494D01*
X129219502Y-119634180D01*
X129255812Y-119514482D01*
X129268072Y-119390000D01*
X129265000Y-119350750D01*
X129106250Y-119192000D01*
X128227000Y-119192000D01*
X128227000Y-119212000D01*
X127973000Y-119212000D01*
X127973000Y-119192000D01*
X127953000Y-119192000D01*
X127953000Y-118938000D01*
X127973000Y-118938000D01*
X127973000Y-118263750D01*
X128227000Y-118263750D01*
X128227000Y-118938000D01*
X129106250Y-118938000D01*
X129265000Y-118779250D01*
X129268072Y-118740000D01*
X129255812Y-118615518D01*
X129219502Y-118495820D01*
X129160537Y-118385506D01*
X129081185Y-118288815D01*
X128984494Y-118209463D01*
X128874180Y-118150498D01*
X128754482Y-118114188D01*
X128630000Y-118101928D01*
X128385750Y-118105000D01*
X128227000Y-118263750D01*
X127973000Y-118263750D01*
X127814250Y-118105000D01*
X127570000Y-118101928D01*
X127445518Y-118114188D01*
X127325820Y-118150498D01*
X127215506Y-118209463D01*
X127126623Y-118282407D01*
X127059777Y-118262130D01*
X127062636Y-118258646D01*
X127140172Y-118113587D01*
X127187918Y-117956189D01*
X127200000Y-117833519D01*
X127200000Y-117833509D01*
X127204039Y-117792501D01*
X127200000Y-117751493D01*
X127200000Y-117204368D01*
X127227115Y-117182115D01*
X127260291Y-117141689D01*
X127264463Y-117149494D01*
X127343815Y-117246185D01*
X127440506Y-117325537D01*
X127550820Y-117384502D01*
X127670518Y-117420812D01*
X127795000Y-117433072D01*
X127984250Y-117430000D01*
X128143000Y-117271250D01*
X128143000Y-116484500D01*
X128397000Y-116484500D01*
X128397000Y-117271250D01*
X128555750Y-117430000D01*
X128745000Y-117433072D01*
X128869482Y-117420812D01*
X128989180Y-117384502D01*
X129099494Y-117325537D01*
X129196185Y-117246185D01*
X129275537Y-117149494D01*
X129334502Y-117039180D01*
X129370812Y-116919482D01*
X129383072Y-116795000D01*
X129380000Y-116643250D01*
X129221250Y-116484500D01*
X128397000Y-116484500D01*
X128143000Y-116484500D01*
X128123000Y-116484500D01*
X128123000Y-116230500D01*
X128143000Y-116230500D01*
X128143000Y-116210500D01*
X128397000Y-116210500D01*
X128397000Y-116230500D01*
X129221250Y-116230500D01*
X129380000Y-116071750D01*
X129383072Y-115920000D01*
X129370812Y-115795518D01*
X129334502Y-115675820D01*
X129275537Y-115565506D01*
X129220900Y-115498930D01*
X129238671Y-115477275D01*
X129317850Y-115329142D01*
X129366608Y-115168408D01*
X129383072Y-115001250D01*
X129383072Y-114563750D01*
X129366608Y-114396592D01*
X129317850Y-114235858D01*
X129240254Y-114090686D01*
X129265226Y-114030398D01*
X129305000Y-113830439D01*
X129305000Y-113626561D01*
X129265226Y-113426602D01*
X129187205Y-113238244D01*
X129073937Y-113068726D01*
X128929774Y-112924563D01*
X128760256Y-112811295D01*
X128571898Y-112733274D01*
X128371939Y-112693500D01*
X128168061Y-112693500D01*
X127968102Y-112733274D01*
X127779744Y-112811295D01*
X127610226Y-112924563D01*
X127466063Y-113068726D01*
X127352795Y-113238244D01*
X127317500Y-113323453D01*
X127282205Y-113238244D01*
X127168937Y-113068726D01*
X127024774Y-112924563D01*
X126855256Y-112811295D01*
X126666898Y-112733274D01*
X126466939Y-112693500D01*
X126263061Y-112693500D01*
X126063102Y-112733274D01*
X125874744Y-112811295D01*
X125705226Y-112924563D01*
X125561063Y-113068726D01*
X125447795Y-113238244D01*
X125369774Y-113426602D01*
X125330000Y-113626561D01*
X125330000Y-113830439D01*
X125369774Y-114030398D01*
X125394746Y-114090686D01*
X125317150Y-114235858D01*
X125268392Y-114396592D01*
X125251928Y-114563750D01*
X125251928Y-115001250D01*
X125268392Y-115168408D01*
X125317150Y-115329142D01*
X125396329Y-115477275D01*
X125472426Y-115570000D01*
X125396329Y-115662725D01*
X125317150Y-115810858D01*
X125268392Y-115971592D01*
X125251928Y-116138750D01*
X125251928Y-116576250D01*
X125268392Y-116743408D01*
X125317150Y-116904142D01*
X125396329Y-117052275D01*
X125502885Y-117182115D01*
X125530000Y-117204368D01*
X125530000Y-117446633D01*
X125338574Y-117638059D01*
X125306710Y-117664209D01*
X125239087Y-117746608D01*
X125202364Y-117791355D01*
X125124828Y-117936414D01*
X125077082Y-118093812D01*
X125068480Y-118181147D01*
X125015506Y-118209463D01*
X124989637Y-118230693D01*
X123341740Y-118231946D01*
X123341740Y-118010572D01*
X123354200Y-118010572D01*
X123478682Y-117998312D01*
X123598380Y-117962002D01*
X123708694Y-117903037D01*
X123805385Y-117823685D01*
X123884737Y-117726994D01*
X123943702Y-117616680D01*
X123980012Y-117496982D01*
X123992272Y-117372500D01*
X123992272Y-115672500D01*
X123980012Y-115548018D01*
X123943702Y-115428320D01*
X123884737Y-115318006D01*
X123805385Y-115221315D01*
X123708694Y-115141963D01*
X123598380Y-115082998D01*
X123478682Y-115046688D01*
X123354200Y-115034428D01*
X121654200Y-115034428D01*
X121529718Y-115046688D01*
X121410020Y-115082998D01*
X121299706Y-115141963D01*
X121203015Y-115221315D01*
X121123663Y-115318006D01*
X121064698Y-115428320D01*
X121028388Y-115548018D01*
X121016128Y-115672500D01*
X121016128Y-117372500D01*
X121028388Y-117496982D01*
X121064698Y-117616680D01*
X121123663Y-117726994D01*
X121203015Y-117823685D01*
X121299706Y-117903037D01*
X121410020Y-117962002D01*
X121529718Y-117998312D01*
X121654200Y-118010572D01*
X121671740Y-118010572D01*
X121671740Y-118230000D01*
X121664583Y-118230000D01*
X121625036Y-118229879D01*
X121623768Y-118230000D01*
X120371007Y-118230000D01*
X120329999Y-118225961D01*
X120288991Y-118230000D01*
X120288981Y-118230000D01*
X120166311Y-118242082D01*
X120008913Y-118289828D01*
X119863854Y-118367364D01*
X119736709Y-118471709D01*
X119710559Y-118503573D01*
X116771362Y-121442771D01*
X116667232Y-121387112D01*
X116547534Y-121350802D01*
X116423052Y-121338542D01*
X116298570Y-121350802D01*
X116178872Y-121387112D01*
X116071024Y-121444759D01*
X116128671Y-121336911D01*
X116164981Y-121217213D01*
X116177241Y-121092731D01*
X116164981Y-120968249D01*
X116128671Y-120848551D01*
X116069706Y-120738237D01*
X115990354Y-120641546D01*
X115283248Y-119934440D01*
X115186557Y-119855088D01*
X115076243Y-119796123D01*
X114956545Y-119759813D01*
X114832063Y-119747553D01*
X114755485Y-119755095D01*
X114763027Y-119678517D01*
X114750767Y-119554035D01*
X114714457Y-119434337D01*
X114655492Y-119324023D01*
X114576140Y-119227332D01*
X113869034Y-118520226D01*
X113772343Y-118440874D01*
X113662029Y-118381909D01*
X113542331Y-118345599D01*
X113417849Y-118333339D01*
X113293367Y-118345599D01*
X113173669Y-118381909D01*
X113065821Y-118439556D01*
X113123468Y-118331708D01*
X113159778Y-118212010D01*
X113172038Y-118087528D01*
X113159778Y-117963046D01*
X113141748Y-117903610D01*
X113245274Y-117834437D01*
X113389437Y-117690274D01*
X113502705Y-117520756D01*
X113580726Y-117332398D01*
X113620500Y-117132439D01*
X113620500Y-116928561D01*
X113580726Y-116728602D01*
X113502705Y-116540244D01*
X113389437Y-116370726D01*
X113245274Y-116226563D01*
X113075756Y-116113295D01*
X112887398Y-116035274D01*
X112687439Y-115995500D01*
X112483561Y-115995500D01*
X112283602Y-116035274D01*
X112095244Y-116113295D01*
X111925726Y-116226563D01*
X111781563Y-116370726D01*
X111731891Y-116445065D01*
X111717485Y-116437365D01*
X111597787Y-116401055D01*
X111473305Y-116388795D01*
X111348823Y-116401055D01*
X111229125Y-116437365D01*
X111118811Y-116496330D01*
X111022120Y-116575682D01*
X105718819Y-121878983D01*
X105639467Y-121975674D01*
X105580502Y-122085988D01*
X105544192Y-122205686D01*
X105531932Y-122330168D01*
X105539959Y-122411667D01*
X104936526Y-121808234D01*
X113218641Y-113598274D01*
X113245948Y-113575663D01*
X113285067Y-113527569D01*
X113324760Y-113479631D01*
X113326147Y-113477064D01*
X113327984Y-113474805D01*
X113357012Y-113419921D01*
X113386546Y-113365243D01*
X113387404Y-113362457D01*
X113388767Y-113359881D01*
X113406530Y-113300390D01*
X113424830Y-113241000D01*
X113425129Y-113238098D01*
X113425962Y-113235307D01*
X113431778Y-113173484D01*
X113438139Y-113111674D01*
X113437866Y-113108772D01*
X113438139Y-113105870D01*
X113431778Y-113044060D01*
X113425962Y-112982237D01*
X113425129Y-112979446D01*
X113424830Y-112976544D01*
X113406525Y-112917138D01*
X113388767Y-112857663D01*
X113387405Y-112855088D01*
X113386546Y-112852300D01*
X113357000Y-112797600D01*
X113327984Y-112742738D01*
X113326147Y-112740479D01*
X113324760Y-112737912D01*
X113285132Y-112690054D01*
X113245948Y-112641880D01*
X113218630Y-112619260D01*
X104792963Y-104267000D01*
X148463000Y-104267000D01*
X148463000Y-116150000D01*
G37*
X148463000Y-116150000D02*
X148237518Y-116150000D01*
X148212494Y-116129463D01*
X148102180Y-116070498D01*
X147982482Y-116034188D01*
X147858000Y-116021928D01*
X147058000Y-116021928D01*
X146933518Y-116034188D01*
X146813820Y-116070498D01*
X146703506Y-116129463D01*
X146607442Y-116208300D01*
X146600247Y-116204454D01*
X146456986Y-116160997D01*
X146450091Y-116160318D01*
X146412494Y-116129463D01*
X146302180Y-116070498D01*
X146182482Y-116034188D01*
X146058000Y-116021928D01*
X145258000Y-116021928D01*
X145133518Y-116034188D01*
X145013820Y-116070498D01*
X144903506Y-116129463D01*
X144806815Y-116208815D01*
X144727463Y-116305506D01*
X144668498Y-116415820D01*
X144632188Y-116535518D01*
X144619928Y-116660000D01*
X144619928Y-117160000D01*
X144632188Y-117284482D01*
X144647512Y-117335000D01*
X144632188Y-117385518D01*
X144623996Y-117468700D01*
X144487561Y-117468700D01*
X144287602Y-117508474D01*
X144099244Y-117586495D01*
X143929726Y-117699763D01*
X143785563Y-117843926D01*
X143672295Y-118013444D01*
X143594274Y-118201802D01*
X143554500Y-118401761D01*
X143554500Y-118605639D01*
X143594274Y-118805598D01*
X143594383Y-118805860D01*
X143533138Y-118805860D01*
X143543072Y-118705000D01*
X143543072Y-117805000D01*
X143530812Y-117680518D01*
X143494502Y-117560820D01*
X143435537Y-117450506D01*
X143422788Y-117434971D01*
X143440000Y-117348439D01*
X143440000Y-117144561D01*
X143400226Y-116944602D01*
X143322205Y-116756244D01*
X143208937Y-116586726D01*
X143165000Y-116542789D01*
X143165000Y-115186046D01*
X143259494Y-115135537D01*
X143356185Y-115056185D01*
X143435537Y-114959494D01*
X143494502Y-114849180D01*
X143530812Y-114729482D01*
X143543072Y-114605000D01*
X143543072Y-113705000D01*
X143530812Y-113580518D01*
X143494502Y-113460820D01*
X143435537Y-113350506D01*
X143356185Y-113253815D01*
X143259494Y-113174463D01*
X143149180Y-113115498D01*
X143029482Y-113079188D01*
X142905000Y-113066928D01*
X141905000Y-113066928D01*
X141780518Y-113079188D01*
X141660820Y-113115498D01*
X141605000Y-113145335D01*
X141549180Y-113115498D01*
X141429482Y-113079188D01*
X141305000Y-113066928D01*
X140305000Y-113066928D01*
X140180518Y-113079188D01*
X140060820Y-113115498D01*
X139950506Y-113174463D01*
X139853815Y-113253815D01*
X139774463Y-113350506D01*
X139715498Y-113460820D01*
X139679188Y-113580518D01*
X139666928Y-113705000D01*
X139666928Y-114605000D01*
X139679188Y-114729482D01*
X139715498Y-114849180D01*
X139774463Y-114959494D01*
X139853815Y-115056185D01*
X139950506Y-115135537D01*
X140045001Y-115186046D01*
X140045000Y-117223954D01*
X139950506Y-117274463D01*
X139853815Y-117353815D01*
X139774463Y-117450506D01*
X139746671Y-117502500D01*
X139552711Y-117502500D01*
X139508774Y-117458563D01*
X139339256Y-117345295D01*
X139150898Y-117267274D01*
X138950939Y-117227500D01*
X138897977Y-117227500D01*
X138908072Y-117125000D01*
X138905000Y-116973250D01*
X138746250Y-116814500D01*
X137922000Y-116814500D01*
X137922000Y-116834500D01*
X137668000Y-116834500D01*
X137668000Y-116814500D01*
X137648000Y-116814500D01*
X137648000Y-116560500D01*
X137668000Y-116560500D01*
X137668000Y-115773750D01*
X137922000Y-115773750D01*
X137922000Y-116560500D01*
X138746250Y-116560500D01*
X138905000Y-116401750D01*
X138908072Y-116250000D01*
X138895812Y-116125518D01*
X138859502Y-116005820D01*
X138800537Y-115895506D01*
X138721185Y-115798815D01*
X138624494Y-115719463D01*
X138514180Y-115660498D01*
X138394482Y-115624188D01*
X138270000Y-115611928D01*
X138080750Y-115615000D01*
X137922000Y-115773750D01*
X137668000Y-115773750D01*
X137509250Y-115615000D01*
X137320000Y-115611928D01*
X137195518Y-115624188D01*
X137075820Y-115660498D01*
X136965506Y-115719463D01*
X136920896Y-115756074D01*
X136925000Y-115735439D01*
X136925000Y-115531561D01*
X136885226Y-115331602D01*
X136807205Y-115143244D01*
X136693937Y-114973726D01*
X136549774Y-114829563D01*
X136380256Y-114716295D01*
X136191898Y-114638274D01*
X135991939Y-114598500D01*
X135788061Y-114598500D01*
X135588102Y-114638274D01*
X135399744Y-114716295D01*
X135230226Y-114829563D01*
X135086063Y-114973726D01*
X134972795Y-115143244D01*
X134894774Y-115331602D01*
X134855000Y-115531561D01*
X134855000Y-115735439D01*
X134894774Y-115935398D01*
X134919746Y-115995686D01*
X134842150Y-116140858D01*
X134793392Y-116301592D01*
X134776928Y-116468750D01*
X134776928Y-116906250D01*
X134793392Y-117073408D01*
X134842150Y-117234142D01*
X134921329Y-117382275D01*
X134997426Y-117475000D01*
X134921329Y-117567725D01*
X134842150Y-117715858D01*
X134793392Y-117876592D01*
X134776928Y-118043750D01*
X134776928Y-118481250D01*
X134778085Y-118493000D01*
X133451458Y-118493000D01*
X133395990Y-118359089D01*
X133233475Y-118115868D01*
X133101620Y-117984013D01*
X133174180Y-117962002D01*
X133284494Y-117903037D01*
X133381185Y-117823685D01*
X133460537Y-117726994D01*
X133519502Y-117616680D01*
X133555812Y-117496982D01*
X133568072Y-117372500D01*
X133568072Y-115672500D01*
X133555812Y-115548018D01*
X133519502Y-115428320D01*
X133460537Y-115318006D01*
X133381185Y-115221315D01*
X133284494Y-115141963D01*
X133174180Y-115082998D01*
X133054482Y-115046688D01*
X132930000Y-115034428D01*
X131230000Y-115034428D01*
X131105518Y-115046688D01*
X130985820Y-115082998D01*
X130875506Y-115141963D01*
X130778815Y-115221315D01*
X130699463Y-115318006D01*
X130640498Y-115428320D01*
X130604188Y-115548018D01*
X130591928Y-115672500D01*
X130591928Y-117372500D01*
X130604188Y-117496982D01*
X130640498Y-117616680D01*
X130699463Y-117726994D01*
X130778815Y-117823685D01*
X130875506Y-117903037D01*
X130985820Y-117962002D01*
X131058380Y-117984013D01*
X130926525Y-118115868D01*
X130764010Y-118359089D01*
X130652068Y-118629342D01*
X130595000Y-118916240D01*
X130595000Y-119208760D01*
X130652068Y-119495658D01*
X130764010Y-119765911D01*
X130926525Y-120009132D01*
X131133368Y-120215975D01*
X131307760Y-120332500D01*
X131133368Y-120449025D01*
X130926525Y-120655868D01*
X130764010Y-120899089D01*
X130652068Y-121169342D01*
X130595000Y-121456240D01*
X130595000Y-121748760D01*
X130652068Y-122035658D01*
X130764010Y-122305911D01*
X130926525Y-122549132D01*
X131133368Y-122755975D01*
X131307760Y-122872500D01*
X131133368Y-122989025D01*
X130926525Y-123195868D01*
X130764010Y-123439089D01*
X130652068Y-123709342D01*
X130595000Y-123996240D01*
X130595000Y-124288760D01*
X130652068Y-124575658D01*
X130764010Y-124845911D01*
X130926525Y-125089132D01*
X131133368Y-125295975D01*
X131315534Y-125417695D01*
X131198645Y-125487322D01*
X130982412Y-125682231D01*
X130808359Y-125915580D01*
X130683175Y-126178401D01*
X130638524Y-126325610D01*
X130759845Y-126555500D01*
X131953000Y-126555500D01*
X131953000Y-126535500D01*
X132207000Y-126535500D01*
X132207000Y-126555500D01*
X133400155Y-126555500D01*
X133521476Y-126325610D01*
X133476825Y-126178401D01*
X133351641Y-125915580D01*
X133177588Y-125682231D01*
X132961355Y-125487322D01*
X132844466Y-125417695D01*
X133026632Y-125295975D01*
X133233475Y-125089132D01*
X133395990Y-124845911D01*
X133507932Y-124575658D01*
X133565000Y-124288760D01*
X133565000Y-123996240D01*
X133507932Y-123709342D01*
X133395990Y-123439089D01*
X133233475Y-123195868D01*
X133026632Y-122989025D01*
X132852240Y-122872500D01*
X133026632Y-122755975D01*
X133233475Y-122549132D01*
X133315749Y-122426000D01*
X134635936Y-122426000D01*
X134673258Y-122429676D01*
X134710580Y-122426000D01*
X134710591Y-122426000D01*
X134822244Y-122415003D01*
X134965505Y-122371546D01*
X134984428Y-122361431D01*
X134984428Y-122425500D01*
X134998610Y-122569491D01*
X135040610Y-122707948D01*
X135108816Y-122835551D01*
X135200604Y-122947396D01*
X135312449Y-123039184D01*
X135440052Y-123107390D01*
X135578509Y-123149390D01*
X135722500Y-123163572D01*
X135922500Y-123163572D01*
X136066491Y-123149390D01*
X136147500Y-123124816D01*
X136228509Y-123149390D01*
X136372500Y-123163572D01*
X136572500Y-123163572D01*
X136716491Y-123149390D01*
X136760000Y-123136192D01*
X136760000Y-123228439D01*
X136799774Y-123428398D01*
X136877795Y-123616756D01*
X136991063Y-123786274D01*
X137135226Y-123930437D01*
X137304744Y-124043705D01*
X137493102Y-124121726D01*
X137693061Y-124161500D01*
X137896939Y-124161500D01*
X138096898Y-124121726D01*
X138285256Y-124043705D01*
X138430000Y-123946990D01*
X138574744Y-124043705D01*
X138763102Y-124121726D01*
X138963061Y-124161500D01*
X139166939Y-124161500D01*
X139366898Y-124121726D01*
X139555256Y-124043705D01*
X139724774Y-123930437D01*
X139868937Y-123786274D01*
X139982205Y-123616756D01*
X140060226Y-123428398D01*
X140100000Y-123228439D01*
X140100000Y-123140742D01*
X140128509Y-123149390D01*
X140272500Y-123163572D01*
X140472500Y-123163572D01*
X140616491Y-123149390D01*
X140697500Y-123124816D01*
X140778509Y-123149390D01*
X140922500Y-123163572D01*
X141122500Y-123163572D01*
X141266491Y-123149390D01*
X141347500Y-123124816D01*
X141428509Y-123149390D01*
X141572500Y-123163572D01*
X141772500Y-123163572D01*
X141916491Y-123149390D01*
X142054948Y-123107390D01*
X142182551Y-123039184D01*
X142294396Y-122947396D01*
X142386184Y-122835551D01*
X142454390Y-122707948D01*
X142496390Y-122569491D01*
X142510572Y-122425500D01*
X142510572Y-122349240D01*
X142648976Y-122391224D01*
X142760629Y-122402221D01*
X142760638Y-122402221D01*
X142797961Y-122405897D01*
X142835284Y-122402221D01*
X146152965Y-122402221D01*
X146190287Y-122405897D01*
X146227610Y-122402221D01*
X146227620Y-122402221D01*
X146339273Y-122391224D01*
X146482534Y-122347767D01*
X146614563Y-122277195D01*
X146730288Y-122182222D01*
X146754086Y-122153224D01*
X147248819Y-121658491D01*
X147277810Y-121634699D01*
X147301604Y-121605706D01*
X147301609Y-121605701D01*
X147372783Y-121518974D01*
X147381722Y-121502250D01*
X147443355Y-121386945D01*
X147486812Y-121243684D01*
X147497809Y-121132031D01*
X147497809Y-121132023D01*
X147501485Y-121094698D01*
X147497809Y-121057375D01*
X147497809Y-120198072D01*
X147858000Y-120198072D01*
X147982482Y-120185812D01*
X148102180Y-120149502D01*
X148212494Y-120090537D01*
X148237518Y-120070000D01*
X148463000Y-120070000D01*
X148463000Y-123770000D01*
X148237518Y-123770000D01*
X148212494Y-123749463D01*
X148102180Y-123690498D01*
X147982482Y-123654188D01*
X147858000Y-123641928D01*
X147058000Y-123641928D01*
X146933518Y-123654188D01*
X146813820Y-123690498D01*
X146703506Y-123749463D01*
X146607442Y-123828300D01*
X146600247Y-123824454D01*
X146456986Y-123780997D01*
X146450091Y-123780318D01*
X146412494Y-123749463D01*
X146302180Y-123690498D01*
X146182482Y-123654188D01*
X146058000Y-123641928D01*
X145258000Y-123641928D01*
X145133518Y-123654188D01*
X145013820Y-123690498D01*
X144903506Y-123749463D01*
X144806815Y-123828815D01*
X144727463Y-123925506D01*
X144668498Y-124035820D01*
X144632188Y-124155518D01*
X144619928Y-124280000D01*
X144619928Y-124780000D01*
X144632188Y-124904482D01*
X144647512Y-124955000D01*
X144632188Y-125005518D01*
X144623996Y-125088700D01*
X144487561Y-125088700D01*
X144287602Y-125128474D01*
X144099244Y-125206495D01*
X143929726Y-125319763D01*
X143785563Y-125463926D01*
X143672295Y-125633444D01*
X143594274Y-125821802D01*
X143554500Y-126021761D01*
X143554500Y-126225639D01*
X143594274Y-126425598D01*
X143672295Y-126613956D01*
X143785563Y-126783474D01*
X143929726Y-126927637D01*
X144099244Y-127040905D01*
X144146216Y-127060362D01*
X144147001Y-127068332D01*
X144147001Y-127767910D01*
X142510572Y-127767910D01*
X142510572Y-126875500D01*
X142496390Y-126731509D01*
X142454390Y-126593052D01*
X142386184Y-126465449D01*
X142365941Y-126440783D01*
X142386000Y-126339939D01*
X142386000Y-126136061D01*
X142346226Y-125936102D01*
X142268205Y-125747744D01*
X142154937Y-125578226D01*
X142010774Y-125434063D01*
X141841256Y-125320795D01*
X141652898Y-125242774D01*
X141452939Y-125203000D01*
X141249061Y-125203000D01*
X141049102Y-125242774D01*
X140860744Y-125320795D01*
X140691226Y-125434063D01*
X140684250Y-125441039D01*
X140677274Y-125434063D01*
X140507756Y-125320795D01*
X140319398Y-125242774D01*
X140119439Y-125203000D01*
X139915561Y-125203000D01*
X139715602Y-125242774D01*
X139527244Y-125320795D01*
X139357726Y-125434063D01*
X139213563Y-125578226D01*
X139100295Y-125747744D01*
X139022274Y-125936102D01*
X138982500Y-126136061D01*
X138982500Y-126137428D01*
X138972500Y-126137428D01*
X138828509Y-126151610D01*
X138747500Y-126176184D01*
X138666491Y-126151610D01*
X138522500Y-126137428D01*
X138322500Y-126137428D01*
X138178509Y-126151610D01*
X138097500Y-126176184D01*
X138016491Y-126151610D01*
X137872500Y-126137428D01*
X137672500Y-126137428D01*
X137528509Y-126151610D01*
X137447500Y-126176184D01*
X137366491Y-126151610D01*
X137222500Y-126137428D01*
X137022500Y-126137428D01*
X136878509Y-126151610D01*
X136797500Y-126176184D01*
X136716491Y-126151610D01*
X136572500Y-126137428D01*
X136372500Y-126137428D01*
X136228509Y-126151610D01*
X136147500Y-126176184D01*
X136066491Y-126151610D01*
X135922500Y-126137428D01*
X135722500Y-126137428D01*
X135578509Y-126151610D01*
X135440052Y-126193610D01*
X135312449Y-126261816D01*
X135200604Y-126353604D01*
X135108816Y-126465449D01*
X135040610Y-126593052D01*
X134998610Y-126731509D01*
X134984428Y-126875500D01*
X134984428Y-128150500D01*
X134998610Y-128294491D01*
X135040610Y-128432948D01*
X135108816Y-128560551D01*
X135200604Y-128672396D01*
X135312449Y-128764184D01*
X135376558Y-128798452D01*
X136421706Y-129843600D01*
X130366721Y-129843600D01*
X127562511Y-127039390D01*
X130638524Y-127039390D01*
X130683175Y-127186599D01*
X130808359Y-127449420D01*
X130982412Y-127682769D01*
X131198645Y-127877678D01*
X131448748Y-128026657D01*
X131723109Y-128123981D01*
X131953000Y-128003314D01*
X131953000Y-126809500D01*
X132207000Y-126809500D01*
X132207000Y-128003314D01*
X132436891Y-128123981D01*
X132711252Y-128026657D01*
X132961355Y-127877678D01*
X133177588Y-127682769D01*
X133351641Y-127449420D01*
X133476825Y-127186599D01*
X133521476Y-127039390D01*
X133400155Y-126809500D01*
X132207000Y-126809500D01*
X131953000Y-126809500D01*
X130759845Y-126809500D01*
X130638524Y-127039390D01*
X127562511Y-127039390D01*
X121885543Y-121362423D01*
X121864876Y-121337240D01*
X121764378Y-121254763D01*
X121649720Y-121193478D01*
X121525311Y-121155739D01*
X121395928Y-121142996D01*
X121266545Y-121155739D01*
X121142135Y-121193478D01*
X121027478Y-121254763D01*
X120991741Y-121284092D01*
X120926980Y-121337240D01*
X120906316Y-121362419D01*
X112698513Y-129570220D01*
X112098914Y-128970621D01*
X112180412Y-128978648D01*
X112304894Y-128966388D01*
X112424592Y-128930078D01*
X112534906Y-128871113D01*
X112631597Y-128791761D01*
X117934898Y-123488460D01*
X118014250Y-123391769D01*
X118073215Y-123281455D01*
X118109525Y-123161757D01*
X118121785Y-123037275D01*
X118109525Y-122912793D01*
X118073215Y-122793095D01*
X118014250Y-122682781D01*
X117959635Y-122616232D01*
X120675868Y-119900000D01*
X121662416Y-119900000D01*
X122464441Y-119902454D01*
X122506740Y-119906620D01*
X122548085Y-119902548D01*
X123554243Y-119901783D01*
X123552000Y-119913061D01*
X123552000Y-120116939D01*
X123591774Y-120316898D01*
X123669795Y-120505256D01*
X123783063Y-120674774D01*
X123927226Y-120818937D01*
X124096744Y-120932205D01*
X124285102Y-121010226D01*
X124485061Y-121050000D01*
X124688939Y-121050000D01*
X124731928Y-121041449D01*
X124731928Y-121290000D01*
X124744188Y-121414482D01*
X124780498Y-121534180D01*
X124839463Y-121644494D01*
X124918815Y-121741185D01*
X125015506Y-121820537D01*
X125125820Y-121879502D01*
X125245518Y-121915812D01*
X125370000Y-121928072D01*
X126430000Y-121928072D01*
X126554482Y-121915812D01*
X126674180Y-121879502D01*
X126784494Y-121820537D01*
X126807318Y-121801806D01*
X126830000Y-121804040D01*
X126871018Y-121800000D01*
X126871019Y-121800000D01*
X126993689Y-121787918D01*
X127126623Y-121747593D01*
X127215506Y-121820537D01*
X127325820Y-121879502D01*
X127445518Y-121915812D01*
X127570000Y-121928072D01*
X128630000Y-121928072D01*
X128754482Y-121915812D01*
X128874180Y-121879502D01*
X128984494Y-121820537D01*
X129081185Y-121741185D01*
X129160537Y-121644494D01*
X129219502Y-121534180D01*
X129255812Y-121414482D01*
X129268072Y-121290000D01*
X129268072Y-120640000D01*
X129255812Y-120515518D01*
X129219502Y-120395820D01*
X129160537Y-120285506D01*
X129081185Y-120188815D01*
X128984494Y-120109463D01*
X128874180Y-120050498D01*
X128757159Y-120015000D01*
X128874180Y-119979502D01*
X128984494Y-119920537D01*
X129081185Y-119841185D01*
X129160537Y-119744494D01*
X129219502Y-119634180D01*
X129255812Y-119514482D01*
X129268072Y-119390000D01*
X129265000Y-119350750D01*
X129106250Y-119192000D01*
X128227000Y-119192000D01*
X128227000Y-119212000D01*
X127973000Y-119212000D01*
X127973000Y-119192000D01*
X127953000Y-119192000D01*
X127953000Y-118938000D01*
X127973000Y-118938000D01*
X127973000Y-118263750D01*
X128227000Y-118263750D01*
X128227000Y-118938000D01*
X129106250Y-118938000D01*
X129265000Y-118779250D01*
X129268072Y-118740000D01*
X129255812Y-118615518D01*
X129219502Y-118495820D01*
X129160537Y-118385506D01*
X129081185Y-118288815D01*
X128984494Y-118209463D01*
X128874180Y-118150498D01*
X128754482Y-118114188D01*
X128630000Y-118101928D01*
X128385750Y-118105000D01*
X128227000Y-118263750D01*
X127973000Y-118263750D01*
X127814250Y-118105000D01*
X127570000Y-118101928D01*
X127445518Y-118114188D01*
X127325820Y-118150498D01*
X127215506Y-118209463D01*
X127126623Y-118282407D01*
X127059777Y-118262130D01*
X127062636Y-118258646D01*
X127140172Y-118113587D01*
X127187918Y-117956189D01*
X127200000Y-117833519D01*
X127200000Y-117833509D01*
X127204039Y-117792501D01*
X127200000Y-117751493D01*
X127200000Y-117204368D01*
X127227115Y-117182115D01*
X127260291Y-117141689D01*
X127264463Y-117149494D01*
X127343815Y-117246185D01*
X127440506Y-117325537D01*
X127550820Y-117384502D01*
X127670518Y-117420812D01*
X127795000Y-117433072D01*
X127984250Y-117430000D01*
X128143000Y-117271250D01*
X128143000Y-116484500D01*
X128397000Y-116484500D01*
X128397000Y-117271250D01*
X128555750Y-117430000D01*
X128745000Y-117433072D01*
X128869482Y-117420812D01*
X128989180Y-117384502D01*
X129099494Y-117325537D01*
X129196185Y-117246185D01*
X129275537Y-117149494D01*
X129334502Y-117039180D01*
X129370812Y-116919482D01*
X129383072Y-116795000D01*
X129380000Y-116643250D01*
X129221250Y-116484500D01*
X128397000Y-116484500D01*
X128143000Y-116484500D01*
X128123000Y-116484500D01*
X128123000Y-116230500D01*
X128143000Y-116230500D01*
X128143000Y-116210500D01*
X128397000Y-116210500D01*
X128397000Y-116230500D01*
X129221250Y-116230500D01*
X129380000Y-116071750D01*
X129383072Y-115920000D01*
X129370812Y-115795518D01*
X129334502Y-115675820D01*
X129275537Y-115565506D01*
X129220900Y-115498930D01*
X129238671Y-115477275D01*
X129317850Y-115329142D01*
X129366608Y-115168408D01*
X129383072Y-115001250D01*
X129383072Y-114563750D01*
X129366608Y-114396592D01*
X129317850Y-114235858D01*
X129240254Y-114090686D01*
X129265226Y-114030398D01*
X129305000Y-113830439D01*
X129305000Y-113626561D01*
X129265226Y-113426602D01*
X129187205Y-113238244D01*
X129073937Y-113068726D01*
X128929774Y-112924563D01*
X128760256Y-112811295D01*
X128571898Y-112733274D01*
X128371939Y-112693500D01*
X128168061Y-112693500D01*
X127968102Y-112733274D01*
X127779744Y-112811295D01*
X127610226Y-112924563D01*
X127466063Y-113068726D01*
X127352795Y-113238244D01*
X127317500Y-113323453D01*
X127282205Y-113238244D01*
X127168937Y-113068726D01*
X127024774Y-112924563D01*
X126855256Y-112811295D01*
X126666898Y-112733274D01*
X126466939Y-112693500D01*
X126263061Y-112693500D01*
X126063102Y-112733274D01*
X125874744Y-112811295D01*
X125705226Y-112924563D01*
X125561063Y-113068726D01*
X125447795Y-113238244D01*
X125369774Y-113426602D01*
X125330000Y-113626561D01*
X125330000Y-113830439D01*
X125369774Y-114030398D01*
X125394746Y-114090686D01*
X125317150Y-114235858D01*
X125268392Y-114396592D01*
X125251928Y-114563750D01*
X125251928Y-115001250D01*
X125268392Y-115168408D01*
X125317150Y-115329142D01*
X125396329Y-115477275D01*
X125472426Y-115570000D01*
X125396329Y-115662725D01*
X125317150Y-115810858D01*
X125268392Y-115971592D01*
X125251928Y-116138750D01*
X125251928Y-116576250D01*
X125268392Y-116743408D01*
X125317150Y-116904142D01*
X125396329Y-117052275D01*
X125502885Y-117182115D01*
X125530000Y-117204368D01*
X125530000Y-117446633D01*
X125338574Y-117638059D01*
X125306710Y-117664209D01*
X125239087Y-117746608D01*
X125202364Y-117791355D01*
X125124828Y-117936414D01*
X125077082Y-118093812D01*
X125068480Y-118181147D01*
X125015506Y-118209463D01*
X124989637Y-118230693D01*
X123341740Y-118231946D01*
X123341740Y-118010572D01*
X123354200Y-118010572D01*
X123478682Y-117998312D01*
X123598380Y-117962002D01*
X123708694Y-117903037D01*
X123805385Y-117823685D01*
X123884737Y-117726994D01*
X123943702Y-117616680D01*
X123980012Y-117496982D01*
X123992272Y-117372500D01*
X123992272Y-115672500D01*
X123980012Y-115548018D01*
X123943702Y-115428320D01*
X123884737Y-115318006D01*
X123805385Y-115221315D01*
X123708694Y-115141963D01*
X123598380Y-115082998D01*
X123478682Y-115046688D01*
X123354200Y-115034428D01*
X121654200Y-115034428D01*
X121529718Y-115046688D01*
X121410020Y-115082998D01*
X121299706Y-115141963D01*
X121203015Y-115221315D01*
X121123663Y-115318006D01*
X121064698Y-115428320D01*
X121028388Y-115548018D01*
X121016128Y-115672500D01*
X121016128Y-117372500D01*
X121028388Y-117496982D01*
X121064698Y-117616680D01*
X121123663Y-117726994D01*
X121203015Y-117823685D01*
X121299706Y-117903037D01*
X121410020Y-117962002D01*
X121529718Y-117998312D01*
X121654200Y-118010572D01*
X121671740Y-118010572D01*
X121671740Y-118230000D01*
X121664583Y-118230000D01*
X121625036Y-118229879D01*
X121623768Y-118230000D01*
X120371007Y-118230000D01*
X120329999Y-118225961D01*
X120288991Y-118230000D01*
X120288981Y-118230000D01*
X120166311Y-118242082D01*
X120008913Y-118289828D01*
X119863854Y-118367364D01*
X119736709Y-118471709D01*
X119710559Y-118503573D01*
X116771362Y-121442771D01*
X116667232Y-121387112D01*
X116547534Y-121350802D01*
X116423052Y-121338542D01*
X116298570Y-121350802D01*
X116178872Y-121387112D01*
X116071024Y-121444759D01*
X116128671Y-121336911D01*
X116164981Y-121217213D01*
X116177241Y-121092731D01*
X116164981Y-120968249D01*
X116128671Y-120848551D01*
X116069706Y-120738237D01*
X115990354Y-120641546D01*
X115283248Y-119934440D01*
X115186557Y-119855088D01*
X115076243Y-119796123D01*
X114956545Y-119759813D01*
X114832063Y-119747553D01*
X114755485Y-119755095D01*
X114763027Y-119678517D01*
X114750767Y-119554035D01*
X114714457Y-119434337D01*
X114655492Y-119324023D01*
X114576140Y-119227332D01*
X113869034Y-118520226D01*
X113772343Y-118440874D01*
X113662029Y-118381909D01*
X113542331Y-118345599D01*
X113417849Y-118333339D01*
X113293367Y-118345599D01*
X113173669Y-118381909D01*
X113065821Y-118439556D01*
X113123468Y-118331708D01*
X113159778Y-118212010D01*
X113172038Y-118087528D01*
X113159778Y-117963046D01*
X113141748Y-117903610D01*
X113245274Y-117834437D01*
X113389437Y-117690274D01*
X113502705Y-117520756D01*
X113580726Y-117332398D01*
X113620500Y-117132439D01*
X113620500Y-116928561D01*
X113580726Y-116728602D01*
X113502705Y-116540244D01*
X113389437Y-116370726D01*
X113245274Y-116226563D01*
X113075756Y-116113295D01*
X112887398Y-116035274D01*
X112687439Y-115995500D01*
X112483561Y-115995500D01*
X112283602Y-116035274D01*
X112095244Y-116113295D01*
X111925726Y-116226563D01*
X111781563Y-116370726D01*
X111731891Y-116445065D01*
X111717485Y-116437365D01*
X111597787Y-116401055D01*
X111473305Y-116388795D01*
X111348823Y-116401055D01*
X111229125Y-116437365D01*
X111118811Y-116496330D01*
X111022120Y-116575682D01*
X105718819Y-121878983D01*
X105639467Y-121975674D01*
X105580502Y-122085988D01*
X105544192Y-122205686D01*
X105531932Y-122330168D01*
X105539959Y-122411667D01*
X104936526Y-121808234D01*
X113218641Y-113598274D01*
X113245948Y-113575663D01*
X113285067Y-113527569D01*
X113324760Y-113479631D01*
X113326147Y-113477064D01*
X113327984Y-113474805D01*
X113357012Y-113419921D01*
X113386546Y-113365243D01*
X113387404Y-113362457D01*
X113388767Y-113359881D01*
X113406530Y-113300390D01*
X113424830Y-113241000D01*
X113425129Y-113238098D01*
X113425962Y-113235307D01*
X113431778Y-113173484D01*
X113438139Y-113111674D01*
X113437866Y-113108772D01*
X113438139Y-113105870D01*
X113431778Y-113044060D01*
X113425962Y-112982237D01*
X113425129Y-112979446D01*
X113424830Y-112976544D01*
X113406525Y-112917138D01*
X113388767Y-112857663D01*
X113387405Y-112855088D01*
X113386546Y-112852300D01*
X113357000Y-112797600D01*
X113327984Y-112742738D01*
X113326147Y-112740479D01*
X113324760Y-112737912D01*
X113285132Y-112690054D01*
X113245948Y-112641880D01*
X113218630Y-112619260D01*
X104792963Y-104267000D01*
X148463000Y-104267000D01*
X148463000Y-116150000D01*
M02*
