G75*
%MOIN*%
%OFA0B0*%
%FSLAX25Y25*%
%IPPOS*%
%LPD*%
%AMOC8*
5,1,8,0,0,1.08239X$1,22.5*
%
%ADD10C,0.00000*%
%ADD11R,0.04134X0.04252*%
%ADD12R,0.04724X0.01378*%
%ADD13R,0.03937X0.03937*%
%ADD14R,0.03937X0.04331*%
%ADD15R,0.29528X0.05906*%
%ADD16R,0.25591X0.03937*%
%ADD17R,0.04724X0.04724*%
%ADD18R,0.04331X0.03937*%
D10*
X0007833Y0042085D02*
X0041297Y0075549D01*
X0007833Y0109014D01*
X0007833Y0204683D01*
X0204683Y0204683D01*
X0204683Y0007833D01*
X0109014Y0007833D01*
X0075549Y0041297D01*
X0042085Y0007833D01*
X0007833Y0042085D01*
D11*
X0067380Y0118069D03*
X0074270Y0118069D03*
D12*
X0082341Y0110097D03*
X0082341Y0107538D03*
X0082341Y0104979D03*
X0082341Y0102420D03*
X0059309Y0102420D03*
X0059309Y0104979D03*
X0059309Y0107538D03*
X0059309Y0110097D03*
D13*
X0095234Y0102321D03*
X0101534Y0102321D03*
X0101534Y0086573D03*
X0095234Y0086573D03*
D14*
X0095038Y0078699D03*
X0101731Y0078699D03*
D15*
G36*
X0061043Y0037380D02*
X0040165Y0016502D01*
X0035989Y0020678D01*
X0056867Y0041556D01*
X0061043Y0037380D01*
G37*
G36*
X0041556Y0056867D02*
X0020678Y0035989D01*
X0016502Y0040165D01*
X0037380Y0061043D01*
X0041556Y0056867D01*
G37*
D16*
G36*
X0047819Y0050603D02*
X0029725Y0032509D01*
X0026941Y0035293D01*
X0045035Y0053387D01*
X0047819Y0050603D01*
G37*
G36*
X0053387Y0045035D02*
X0035293Y0026941D01*
X0032509Y0029725D01*
X0050603Y0047819D01*
X0053387Y0045035D01*
G37*
D17*
X0051337Y0141691D03*
X0043069Y0141691D03*
X0027715Y0141691D03*
X0019447Y0141691D03*
X0019447Y0157439D03*
X0027715Y0157439D03*
X0043069Y0157439D03*
X0051337Y0157439D03*
X0066691Y0157439D03*
X0074959Y0157439D03*
X0090313Y0157439D03*
X0098581Y0157439D03*
X0113935Y0157439D03*
X0122203Y0157439D03*
X0122203Y0141691D03*
X0113935Y0141691D03*
X0098581Y0141691D03*
X0090313Y0141691D03*
X0074959Y0141691D03*
X0066691Y0141691D03*
X0066691Y0173187D03*
X0074959Y0173187D03*
X0090313Y0173187D03*
X0098581Y0173187D03*
X0098581Y0188935D03*
X0090313Y0188935D03*
X0074959Y0188935D03*
X0066691Y0188935D03*
X0051337Y0188935D03*
X0043069Y0188935D03*
X0027715Y0188935D03*
X0019447Y0188935D03*
X0019447Y0173187D03*
X0027715Y0173187D03*
X0043069Y0173187D03*
X0051337Y0173187D03*
X0113935Y0173187D03*
X0122203Y0173187D03*
X0122203Y0188935D03*
X0113935Y0188935D03*
D18*
X0094447Y0125353D03*
X0094447Y0118660D03*
X0086573Y0118660D03*
X0086573Y0125353D03*
X0055077Y0125353D03*
X0055077Y0118660D03*
X0047203Y0118660D03*
X0047203Y0125353D03*
X0039329Y0125353D03*
X0039329Y0118660D03*
M02*
