%
M48
M72
T01C0.02362
T02C0.03543
T03C0.04331
%
T01
X59014Y98384
X66101Y110195
X73975Y107046
X78699Y114132
X59014Y114132
X59014Y133817
X43266Y149565
X35392Y165313
X35392Y181061
X59014Y181061
X59014Y165313
X82636Y149565
X82636Y133817
X106258Y133817
X106258Y149565
X106258Y165313
X82636Y181061
X129880Y181061
X129880Y165313
X129880Y149565
X129880Y133817
X108227Y86573
X19644Y133817
T02
X60825Y77636
X70825Y77636
X80825Y77636
X80825Y87636
X70825Y87636
X60825Y87636
T03
X51140Y70825
M30
