M48
;GenerationSoftware,Autodesk,EAGLE,9.5.2*%
;CreationDate,2020-02-10T23:32:35Z*%
FMAT,2
ICI,OFF
METRIC,TZ,000.000
T2C0.350
T1C1.016
%
G90
M71
T1
X29210Y10795
X29210Y5715
X29210Y13335
X29210Y3175
X29210Y8255
T2
X48260Y15240
X86360Y15240
X57150Y15240
X62230Y15240
X67310Y15240
X72390Y15240
X77470Y15240
X82550Y15240
X86360Y19050
X53560Y19050
X62230Y19050
X67310Y19050
X72390Y19050
X77470Y19050
X82550Y19050
X52070Y24130
X86360Y24130
X67310Y24130
X72390Y24130
X77470Y24130
X82550Y24130
X58640Y24130
X52070Y29210
X86360Y29210
X82550Y29210
X77470Y29210
X31750Y8890
X57150Y29210
X63720Y29210
X52070Y44450
X86360Y44450
X57150Y44450
X62230Y44450
X67310Y44450
X72390Y44450
X78960Y44450
X52070Y39370
X86360Y39370
X82550Y39370
X57150Y39370
X62230Y39370
X67310Y39370
X73880Y39370
X52070Y34290
X86360Y34290
X82550Y34290
X77470Y34290
X62230Y34290
X68800Y34290
X57150Y34290
X45720Y5080
X37402Y3810
X35560Y8890
X8890Y13970
X44450Y12700
X42545Y15240
X72390Y29210
M30