G04 #@! TF.GenerationSoftware,KiCad,Pcbnew,7.0.7*
G04 #@! TF.CreationDate,2023-10-07T16:32:54-04:00*
G04 #@! TF.ProjectId,business_card,62757369-6e65-4737-935f-636172642e6b,rev?*
G04 #@! TF.SameCoordinates,Original*
G04 #@! TF.FileFunction,Soldermask,Bot*
G04 #@! TF.FilePolarity,Negative*
%FSLAX46Y46*%
G04 Gerber Fmt 4.6, Leading zero omitted, Abs format (unit mm)*
G04 Created by KiCad (PCBNEW 7.0.7) date 2023-10-07 16:32:54*
%MOMM*%
%LPD*%
G01*
G04 APERTURE LIST*
G04 APERTURE END LIST*
G36*
X128127189Y-123758611D02*
G01*
X128258946Y-123813186D01*
X128372088Y-123900004D01*
X128458906Y-124013146D01*
X128513481Y-124144903D01*
X128532096Y-124286296D01*
X128513481Y-124427689D01*
X128458906Y-124559446D01*
X128372088Y-124672588D01*
X128258946Y-124759406D01*
X128127189Y-124813981D01*
X127985796Y-124832596D01*
X127844403Y-124813981D01*
X127712646Y-124759406D01*
X127599504Y-124672588D01*
X127512686Y-124559446D01*
X127458111Y-124427689D01*
X127439496Y-124286296D01*
X127458111Y-124144903D01*
X127512686Y-124013146D01*
X127599504Y-123900004D01*
X127712646Y-123813186D01*
X127844403Y-123758611D01*
X127985796Y-123739996D01*
X128127189Y-123758611D01*
G37*
G36*
X127111189Y-118678611D02*
G01*
X127242946Y-118733186D01*
X127356088Y-118820004D01*
X127442906Y-118933146D01*
X127497481Y-119064903D01*
X127516096Y-119206296D01*
X127497481Y-119347689D01*
X127442906Y-119479446D01*
X127356088Y-119592588D01*
X127242946Y-119679406D01*
X127111189Y-119733981D01*
X126969796Y-119752596D01*
X126828403Y-119733981D01*
X126696646Y-119679406D01*
X126583504Y-119592588D01*
X126496686Y-119479446D01*
X126442111Y-119347689D01*
X126423496Y-119206296D01*
X126442111Y-119064903D01*
X126496686Y-118933146D01*
X126583504Y-118820004D01*
X126696646Y-118733186D01*
X126828403Y-118678611D01*
X126969796Y-118659996D01*
X127111189Y-118678611D01*
G37*
G36*
X129143189Y-118678611D02*
G01*
X129274946Y-118733186D01*
X129388088Y-118820004D01*
X129474906Y-118933146D01*
X129529481Y-119064903D01*
X129548096Y-119206296D01*
X129529481Y-119347689D01*
X129474906Y-119479446D01*
X129388088Y-119592588D01*
X129274946Y-119679406D01*
X129143189Y-119733981D01*
X129001796Y-119752596D01*
X128860403Y-119733981D01*
X128728646Y-119679406D01*
X128615504Y-119592588D01*
X128528686Y-119479446D01*
X128474111Y-119347689D01*
X128455496Y-119206296D01*
X128474111Y-119064903D01*
X128528686Y-118933146D01*
X128615504Y-118820004D01*
X128728646Y-118733186D01*
X128860403Y-118678611D01*
X129001796Y-118659996D01*
X129143189Y-118678611D01*
G37*
M02*
