M48
; DRILL file {KiCad 7.0.7} date 2023 October 07, Saturday 16:32:56
; FORMAT={-:-/ absolute / inch / decimal}
; #@! TF.CreationDate,2023-10-07T16:32:56-04:00
; #@! TF.GenerationSoftware,Kicad,Pcbnew,7.0.7
; #@! TF.FileFunction,Plated,1,2,PTH
FMAT,2
INCH
; #@! TA.AperFunction,Plated,PTH,ViaDrill
T1C0.0138
; #@! TA.AperFunction,Plated,PTH,ViaDrill
T2C0.0157
; #@! TA.AperFunction,Plated,PTH,ViaDrill
T3C0.0236
%
G90
G05
T1
X5.9888Y-3.3032
X5.9888Y-3.5032
X5.9888Y-3.7032
X5.9888Y-3.9032
X5.9888Y-4.1032
X6.1888Y-3.3032
X6.1888Y-3.5032
X6.1888Y-3.7032
X6.1888Y-3.9032
X6.1888Y-4.4532
X6.2475Y-4.1032
X6.3888Y-3.3032
X6.3888Y-3.5032
X6.3888Y-3.7032
X6.3888Y-4.3032
X6.3888Y-4.4532
X6.4519Y-3.9032
X6.5888Y-3.3032
X6.5888Y-3.5032
X6.5888Y-4.1032
X6.5888Y-4.3032
X6.5888Y-4.4532
X6.6519Y-3.7032
X6.7888Y-3.3032
X6.7888Y-3.9032
X6.7888Y-4.1032
X6.7888Y-4.3032
X6.7888Y-4.4532
X6.8519Y-3.5032
X6.9888Y-3.7032
X6.9888Y-3.9032
X6.9888Y-4.1032
X6.9888Y-4.3032
X6.9888Y-4.4532
X7.0519Y-3.3032
X7.1888Y-3.5032
X7.1888Y-3.7032
X7.1888Y-3.9032
X7.1888Y-4.1032
X7.1888Y-4.3032
X7.1888Y-4.4532
X7.3388Y-3.3032
X7.3388Y-3.5032
X7.3388Y-3.7032
X7.3388Y-3.9032
X7.3388Y-4.1032
X7.3388Y-4.3032
X7.3388Y-4.4532
T2
X4.47Y-4.56
X4.6152Y-4.4981
X4.9789Y-4.7932
X4.9789Y-4.8432
X5.1104Y-4.7416
X5.1757Y-4.5216
X5.1757Y-4.6665
X5.2524Y-4.8208
X5.28Y-4.6259
X5.2898Y-4.8212
X5.3181Y-4.9404
X5.3706Y-4.9404
X5.3721Y-4.5547
X5.4394Y-4.9192
X5.4411Y-4.7079
X5.4719Y-4.6505
X5.8388Y-4.4532
X6.0519Y-4.3032
T3
X4.239Y-4.565
T0
M30
