G04 #@! TF.GenerationSoftware,KiCad,Pcbnew,7.0.7*
G04 #@! TF.CreationDate,2023-10-07T16:32:54-04:00*
G04 #@! TF.ProjectId,business_card,62757369-6e65-4737-935f-636172642e6b,rev?*
G04 #@! TF.SameCoordinates,Original*
G04 #@! TF.FileFunction,Paste,Top*
G04 #@! TF.FilePolarity,Positive*
%FSLAX46Y46*%
G04 Gerber Fmt 4.6, Leading zero omitted, Abs format (unit mm)*
G04 Created by KiCad (PCBNEW 7.0.7) date 2023-10-07 16:32:54*
%MOMM*%
%LPD*%
G01*
G04 APERTURE LIST*
G04 Aperture macros list*
%AMRoundRect*
0 Rectangle with rounded corners*
0 $1 Rounding radius*
0 $2 $3 $4 $5 $6 $7 $8 $9 X,Y pos of 4 corners*
0 Add a 4 corners polygon primitive as box body*
4,1,4,$2,$3,$4,$5,$6,$7,$8,$9,$2,$3,0*
0 Add four circle primitives for the rounded corners*
1,1,$1+$1,$2,$3*
1,1,$1+$1,$4,$5*
1,1,$1+$1,$6,$7*
1,1,$1+$1,$8,$9*
0 Add four rect primitives between the rounded corners*
20,1,$1+$1,$2,$3,$4,$5,0*
20,1,$1+$1,$4,$5,$6,$7,0*
20,1,$1+$1,$6,$7,$8,$9,0*
20,1,$1+$1,$8,$9,$2,$3,0*%
%AMRotRect*
0 Rectangle, with rotation*
0 The origin of the aperture is its center*
0 $1 length*
0 $2 width*
0 $3 Rotation angle, in degrees counterclockwise*
0 Add horizontal line*
21,1,$1,$2,0,0,$3*%
G04 Aperture macros list end*
%ADD10RoundRect,0.243750X0.243750X0.456250X-0.243750X0.456250X-0.243750X-0.456250X0.243750X-0.456250X0*%
%ADD11R,0.900000X0.900000*%
%ADD12RoundRect,0.225000X0.335876X0.017678X0.017678X0.335876X-0.335876X-0.017678X-0.017678X-0.335876X0*%
%ADD13RoundRect,0.150000X-0.468458X0.256326X0.256326X-0.468458X0.468458X-0.256326X-0.256326X0.468458X0*%
%ADD14RoundRect,0.225000X-0.250000X0.225000X-0.250000X-0.225000X0.250000X-0.225000X0.250000X0.225000X0*%
%ADD15RoundRect,0.200000X0.275000X-0.200000X0.275000X0.200000X-0.275000X0.200000X-0.275000X-0.200000X0*%
%ADD16R,1.000000X0.900000*%
%ADD17RotRect,6.500000X1.000000X45.000000*%
%ADD18RotRect,7.500000X1.500000X45.000000*%
%ADD19RoundRect,0.225000X-0.017678X0.335876X-0.335876X0.017678X0.017678X-0.335876X0.335876X-0.017678X0*%
%ADD20RoundRect,0.200000X-0.275000X0.200000X-0.275000X-0.200000X0.275000X-0.200000X0.275000X0.200000X0*%
%ADD21RoundRect,0.100000X-0.100000X0.637500X-0.100000X-0.637500X0.100000X-0.637500X0.100000X0.637500X0*%
G04 APERTURE END LIST*
D10*
X155593296Y-86440296D03*
X153718296Y-86440296D03*
X160673296Y-86440296D03*
X158798296Y-86440296D03*
X165753296Y-86440296D03*
X163878296Y-86440296D03*
X170833296Y-86440296D03*
X168958296Y-86440296D03*
X175913296Y-86440296D03*
X174038296Y-86440296D03*
X180993296Y-86440296D03*
X179118296Y-86440296D03*
X186073296Y-86440296D03*
X184198296Y-86440296D03*
X150513296Y-91520296D03*
X148638296Y-91520296D03*
X155593296Y-91520296D03*
X153718296Y-91520296D03*
X160673296Y-91520296D03*
X158798296Y-91520296D03*
X155593296Y-81360296D03*
X153718296Y-81360296D03*
X165753296Y-91520296D03*
X163878296Y-91520296D03*
X170833296Y-91520296D03*
X168958296Y-91520296D03*
X175913296Y-91520296D03*
X174038296Y-91520296D03*
X180993296Y-91520296D03*
X179118296Y-91520296D03*
X186073296Y-91520296D03*
X184198296Y-91520296D03*
X150513296Y-96600296D03*
X148638296Y-96600296D03*
X155593296Y-96600296D03*
X153718296Y-96600296D03*
X160673296Y-96600296D03*
X158798296Y-96600296D03*
X165753296Y-96600296D03*
X163878296Y-96600296D03*
X170833296Y-96600296D03*
X168958296Y-96600296D03*
X175913296Y-96600296D03*
X174038296Y-96600296D03*
X180993296Y-96600296D03*
X179118296Y-96600296D03*
X186073296Y-96600296D03*
X184198296Y-96600296D03*
X150513296Y-101680296D03*
X148638296Y-101680296D03*
X155593296Y-101680296D03*
X153718296Y-101680296D03*
X160673296Y-101680296D03*
X158798296Y-101680296D03*
X165753296Y-101680296D03*
X163878296Y-101680296D03*
X170833296Y-101680296D03*
X168958296Y-101680296D03*
X175913296Y-101680296D03*
X174038296Y-101680296D03*
X180993296Y-101680296D03*
X179118296Y-101680296D03*
X165753296Y-81360296D03*
X163878296Y-81360296D03*
X186073296Y-101680296D03*
X184198296Y-101680296D03*
X150513296Y-106760296D03*
X148638296Y-106760296D03*
X155593296Y-106760296D03*
X153718296Y-106760296D03*
X160673296Y-106760296D03*
X158798296Y-106760296D03*
X165753296Y-106760296D03*
X163878296Y-106760296D03*
X170833296Y-106760296D03*
X168958296Y-106760296D03*
X175913296Y-106760296D03*
X174038296Y-106760296D03*
X180993296Y-106760296D03*
X179118296Y-106760296D03*
X186073296Y-106760296D03*
X184198296Y-106760296D03*
X150513296Y-111840296D03*
X148638296Y-111840296D03*
X170833296Y-81360296D03*
X168958296Y-81360296D03*
X155593296Y-111840296D03*
X153718296Y-111840296D03*
X160673296Y-111840296D03*
X158798296Y-111840296D03*
X165753296Y-111840296D03*
X163878296Y-111840296D03*
X170833296Y-111840296D03*
X168958296Y-111840296D03*
X175913296Y-111840296D03*
X174038296Y-111840296D03*
X180993296Y-111840296D03*
X179118296Y-111840296D03*
X186073296Y-111840296D03*
X184198296Y-111840296D03*
X175913296Y-81360296D03*
X174038296Y-81360296D03*
X180993296Y-81360296D03*
X179118296Y-81360296D03*
X186073296Y-81360296D03*
X184198296Y-81360296D03*
X150513296Y-86440296D03*
X148638296Y-86440296D03*
X150513296Y-81360296D03*
X148638296Y-81360296D03*
D11*
X139947796Y-122794296D03*
X139947796Y-124134296D03*
X139947796Y-125454296D03*
X139947796Y-126794296D03*
X142947796Y-126794296D03*
X142947796Y-125454296D03*
X142947796Y-124134296D03*
X142947796Y-122794296D03*
X139947796Y-115174296D03*
X139947796Y-116514296D03*
X139947796Y-117834296D03*
X139947796Y-119174296D03*
X142947796Y-119174296D03*
X142947796Y-117834296D03*
X142947796Y-116514296D03*
X142947796Y-115174296D03*
D12*
X119166008Y-116118008D03*
X118069992Y-115021992D03*
D13*
X116332000Y-115570000D03*
X115660249Y-116241751D03*
X114988498Y-116913502D03*
X116597166Y-118522170D03*
X117940668Y-117178668D03*
D14*
X138151796Y-122273296D03*
X138151796Y-123823296D03*
D15*
X131451796Y-117473296D03*
X131451796Y-115823296D03*
D16*
X134851796Y-116798296D03*
X134851796Y-112698296D03*
X136451796Y-116798296D03*
X136451796Y-112698296D03*
D10*
X160673296Y-81360296D03*
X158798296Y-81360296D03*
D17*
X107857839Y-122156375D03*
X106443625Y-120742161D03*
D18*
X104322305Y-119327948D03*
X109272052Y-124277695D03*
D19*
X115488591Y-113958077D03*
X114392575Y-115054093D03*
D20*
X133051796Y-115823296D03*
X133051796Y-117473296D03*
D21*
X136752796Y-121035796D03*
X136102796Y-121035796D03*
X135452796Y-121035796D03*
X134802796Y-121035796D03*
X134152796Y-121035796D03*
X133502796Y-121035796D03*
X132852796Y-121035796D03*
X132202796Y-121035796D03*
X131552796Y-121035796D03*
X130902796Y-121035796D03*
X130902796Y-126760796D03*
X131552796Y-126760796D03*
X132202796Y-126760796D03*
X132852796Y-126760796D03*
X133502796Y-126760796D03*
X134152796Y-126760796D03*
X134802796Y-126760796D03*
X135452796Y-126760796D03*
X136102796Y-126760796D03*
X136752796Y-126760796D03*
M02*
