G04 #@! TF.GenerationSoftware,KiCad,Pcbnew,7.0.7*
G04 #@! TF.CreationDate,2023-10-07T16:32:54-04:00*
G04 #@! TF.ProjectId,business_card,62757369-6e65-4737-935f-636172642e6b,rev?*
G04 #@! TF.SameCoordinates,Original*
G04 #@! TF.FileFunction,Copper,L2,Bot*
G04 #@! TF.FilePolarity,Positive*
%FSLAX46Y46*%
G04 Gerber Fmt 4.6, Leading zero omitted, Abs format (unit mm)*
G04 Created by KiCad (PCBNEW 7.0.7) date 2023-10-07 16:32:54*
%MOMM*%
%LPD*%
G01*
G04 APERTURE LIST*
G04 #@! TA.AperFunction,ViaPad*
%ADD10C,0.800000*%
G04 #@! TD*
G04 #@! TA.AperFunction,ViaPad*
%ADD11C,1.200000*%
G04 #@! TD*
G04 #@! TA.AperFunction,ViaPad*
%ADD12C,0.756400*%
G04 #@! TD*
G04 #@! TA.AperFunction,Conductor*
%ADD13C,0.250000*%
G04 #@! TD*
G04 #@! TA.AperFunction,Conductor*
%ADD14C,0.304800*%
G04 #@! TD*
G04 APERTURE END LIST*
D10*
X129804797Y-120437796D03*
X113538000Y-115824000D03*
X134361797Y-122458296D03*
X138161797Y-124948296D03*
X131461797Y-114848296D03*
D11*
X107670600Y-115951000D03*
D10*
X136451797Y-115688296D03*
X117226583Y-114252085D03*
X133409956Y-122447449D03*
X134111797Y-117498296D03*
X136412797Y-125486296D03*
X131461797Y-118528296D03*
X126464797Y-121746296D03*
X126464797Y-123016296D03*
X135079297Y-125486296D03*
X138203497Y-119580796D03*
X138986797Y-118123296D03*
D12*
X167355796Y-83900296D03*
X172435796Y-83900296D03*
X186405796Y-83900296D03*
X179118296Y-83900296D03*
X162275796Y-83900296D03*
X157195796Y-83900296D03*
X152115796Y-83900296D03*
X167355796Y-113110296D03*
X157195796Y-113110296D03*
X182595796Y-113110296D03*
X162275796Y-113110296D03*
X186405796Y-113110296D03*
X172435796Y-113110296D03*
X177515796Y-113110296D03*
D10*
X148305796Y-113110296D03*
D12*
X152115796Y-88980296D03*
X186405796Y-88980296D03*
X174038296Y-88980296D03*
X182595796Y-88980296D03*
X162275796Y-88980296D03*
X157195796Y-88980296D03*
X167355796Y-88980296D03*
X186405796Y-94060296D03*
X182595796Y-94060296D03*
X162275796Y-94060296D03*
X152115796Y-94060296D03*
X177515796Y-94060296D03*
X168958296Y-94060296D03*
X157195796Y-94060296D03*
X162275796Y-109300296D03*
X186405796Y-109300296D03*
X177515796Y-109300296D03*
X172435796Y-109300296D03*
X167355796Y-109300296D03*
X182595796Y-109300296D03*
D10*
X153718296Y-109300296D03*
D12*
X172435796Y-104220296D03*
X158685796Y-104220296D03*
X177515796Y-104220296D03*
X186405796Y-104220296D03*
X182595796Y-104220296D03*
X167355796Y-104220296D03*
X152115796Y-104220296D03*
X172435796Y-99140296D03*
X177515796Y-99140296D03*
X186405796Y-99140296D03*
X157195796Y-99140296D03*
X182595796Y-99140296D03*
X163878296Y-99140296D03*
X152115796Y-99140296D03*
D13*
X133409956Y-118200137D02*
X134111797Y-117498296D01*
X133409956Y-122447449D02*
X133409956Y-118200137D01*
X131572000Y-118638499D02*
X131461797Y-118528296D01*
X131572000Y-122248296D02*
X131900296Y-122248296D01*
X133096000Y-123444000D02*
X134370501Y-123444000D01*
X134370501Y-123444000D02*
X136412797Y-125486296D01*
X126464797Y-121746296D02*
X126966797Y-122248296D01*
X126966797Y-122248296D02*
X131572000Y-122248296D01*
X131900296Y-122248296D02*
X133096000Y-123444000D01*
X131572000Y-122248296D02*
X131572000Y-118638499D01*
D14*
X131652296Y-123016296D02*
X126464797Y-123016296D01*
X132588000Y-123952000D02*
X131652296Y-123016296D01*
X134112000Y-123952000D02*
X132588000Y-123952000D01*
X135079297Y-124919297D02*
X134112000Y-123952000D01*
X135079297Y-125486296D02*
X135079297Y-124919297D01*
D13*
X138203497Y-119580796D02*
X138203497Y-118906596D01*
X138203497Y-118906596D02*
X138986797Y-118123296D01*
D14*
X152115796Y-83900296D02*
X157195796Y-83900296D01*
X179005796Y-83900296D02*
X186405796Y-83900296D01*
X157195796Y-83900296D02*
X162275796Y-83900296D01*
X172435796Y-83900296D02*
X179005796Y-83900296D01*
X162275796Y-83900296D02*
X167355796Y-83900296D01*
X167355796Y-83900296D02*
X172435796Y-83900296D01*
X172435796Y-113110296D02*
X167355796Y-113110296D01*
X157195796Y-113110296D02*
X148305796Y-113110296D01*
X157195796Y-113110296D02*
X162275796Y-113110296D01*
X177515796Y-113110296D02*
X172435796Y-113110296D01*
X186405796Y-113110296D02*
X182595796Y-113110296D01*
X182595796Y-113110296D02*
X177515796Y-113110296D01*
X167355796Y-113110296D02*
X162275796Y-113110296D01*
X152115796Y-88980296D02*
X157195796Y-88980296D01*
X173925796Y-88980296D02*
X182595796Y-88980296D01*
X157195796Y-88980296D02*
X162275796Y-88980296D01*
X162275796Y-88980296D02*
X167355796Y-88980296D01*
X182595796Y-88980296D02*
X186405796Y-88980296D01*
X167355796Y-88980296D02*
X173925796Y-88980296D01*
X162275796Y-94060296D02*
X168845796Y-94060296D01*
X182595796Y-94060296D02*
X186405796Y-94060296D01*
X152115796Y-94060296D02*
X157195796Y-94060296D01*
X168845796Y-94060296D02*
X177515796Y-94060296D01*
X177515796Y-94060296D02*
X182595796Y-94060296D01*
X157195796Y-94060296D02*
X162275796Y-94060296D01*
X162275796Y-109300296D02*
X167355796Y-109300296D01*
X172435796Y-109300296D02*
X177515796Y-109300296D01*
X167355796Y-109300296D02*
X172435796Y-109300296D01*
X153718296Y-109300296D02*
X162275796Y-109300296D01*
X177515796Y-109300296D02*
X182595796Y-109300296D01*
X182595796Y-109300296D02*
X186405796Y-109300296D01*
X152115796Y-104220296D02*
X186405796Y-104220296D01*
X158685796Y-104220296D02*
X167355796Y-104220296D01*
X182595796Y-104220296D02*
X186405796Y-104220296D01*
X177515796Y-104220296D02*
X182595796Y-104220296D01*
X152115796Y-104220296D02*
X158685796Y-104220296D01*
X167355796Y-104220296D02*
X172435796Y-104220296D01*
X152115796Y-99140296D02*
X186405796Y-99140296D01*
X182595796Y-99140296D02*
X186405796Y-99140296D01*
X157195796Y-99140296D02*
X163765796Y-99140296D01*
X152115796Y-99140296D02*
X157195796Y-99140296D01*
X163765796Y-99140296D02*
X172435796Y-99140296D01*
X172435796Y-99140296D02*
X177515796Y-99140296D01*
G04 #@! TA.AperFunction,Conductor*
G36*
X144722121Y-103652002D02*
G01*
X144768614Y-103705658D01*
X144780000Y-103758000D01*
X144780000Y-129413500D01*
X144759998Y-129481621D01*
X144706342Y-129528114D01*
X144654000Y-129539500D01*
X125204598Y-129539500D01*
X125136477Y-129519498D01*
X125115503Y-129502595D01*
X118629207Y-123016299D01*
X125805490Y-123016299D01*
X125824646Y-123174075D01*
X125873244Y-123302214D01*
X125881010Y-123322691D01*
X125971299Y-123453497D01*
X126090268Y-123558895D01*
X126090269Y-123558895D01*
X126090271Y-123558897D01*
X126164997Y-123598116D01*
X126231004Y-123632759D01*
X126385326Y-123670796D01*
X126385327Y-123670796D01*
X126544267Y-123670796D01*
X126544268Y-123670796D01*
X126698590Y-123632759D01*
X126839326Y-123558895D01*
X126873174Y-123528908D01*
X126956731Y-123454884D01*
X127020984Y-123424683D01*
X127040284Y-123423196D01*
X127519996Y-123423196D01*
X127588117Y-123443198D01*
X127634610Y-123496854D01*
X127644714Y-123567128D01*
X127615220Y-123631708D01*
X127589234Y-123654467D01*
X127503142Y-123711090D01*
X127383499Y-123837903D01*
X127296331Y-123988883D01*
X127296329Y-123988889D01*
X127246327Y-124155909D01*
X127236240Y-124329089D01*
X127236189Y-124329956D01*
X127266464Y-124501650D01*
X127266465Y-124501652D01*
X127335515Y-124661731D01*
X127335517Y-124661735D01*
X127439627Y-124801578D01*
X127573180Y-124913644D01*
X127573182Y-124913645D01*
X127728981Y-124991890D01*
X127898625Y-125032096D01*
X127898627Y-125032096D01*
X128029235Y-125032096D01*
X128062913Y-125028159D01*
X128158960Y-125016933D01*
X128322789Y-124957304D01*
X128468450Y-124861501D01*
X128588092Y-124734689D01*
X128675263Y-124583703D01*
X128725265Y-124416684D01*
X128735403Y-124242636D01*
X128705128Y-124070942D01*
X128636075Y-123910858D01*
X128531964Y-123771013D01*
X128398408Y-123658945D01*
X128392282Y-123654916D01*
X128393966Y-123652354D01*
X128352179Y-123613344D01*
X128334713Y-123544529D01*
X128357225Y-123477196D01*
X128412565Y-123432722D01*
X128460627Y-123423196D01*
X131431562Y-123423196D01*
X131499683Y-123443198D01*
X131520658Y-123460101D01*
X132324848Y-124264292D01*
X132324858Y-124264301D01*
X132345849Y-124285292D01*
X132365903Y-124295510D01*
X132382755Y-124305837D01*
X132400968Y-124319070D01*
X132422378Y-124326026D01*
X132440635Y-124333588D01*
X132460694Y-124343809D01*
X132474356Y-124345972D01*
X132482926Y-124347330D01*
X132502153Y-124351946D01*
X132523553Y-124358899D01*
X132553378Y-124358899D01*
X132553402Y-124358900D01*
X132555976Y-124358900D01*
X133891267Y-124358900D01*
X133959388Y-124378902D01*
X133980362Y-124395805D01*
X134531088Y-124946531D01*
X134565114Y-125008843D01*
X134560049Y-125079658D01*
X134545690Y-125107201D01*
X134495511Y-125179898D01*
X134495509Y-125179903D01*
X134439146Y-125328516D01*
X134419990Y-125486292D01*
X134419990Y-125486299D01*
X134439146Y-125644075D01*
X134486997Y-125770244D01*
X134495510Y-125792691D01*
X134585799Y-125923497D01*
X134704768Y-126028895D01*
X134704769Y-126028895D01*
X134704771Y-126028897D01*
X134779497Y-126068116D01*
X134845504Y-126102759D01*
X134999826Y-126140796D01*
X134999827Y-126140796D01*
X135158767Y-126140796D01*
X135158768Y-126140796D01*
X135313090Y-126102759D01*
X135453826Y-126028895D01*
X135572795Y-125923497D01*
X135642352Y-125822725D01*
X135697509Y-125778027D01*
X135768078Y-125770244D01*
X135831652Y-125801849D01*
X135849739Y-125822723D01*
X135919299Y-125923497D01*
X136038268Y-126028895D01*
X136038269Y-126028895D01*
X136038271Y-126028897D01*
X136112997Y-126068116D01*
X136179004Y-126102759D01*
X136333326Y-126140796D01*
X136333327Y-126140796D01*
X136492267Y-126140796D01*
X136492268Y-126140796D01*
X136646590Y-126102759D01*
X136787326Y-126028895D01*
X136906295Y-125923497D01*
X136996584Y-125792691D01*
X137052946Y-125644078D01*
X137052946Y-125644077D01*
X137052947Y-125644075D01*
X137072104Y-125486299D01*
X137072104Y-125486292D01*
X137052947Y-125328516D01*
X137039335Y-125292626D01*
X136996584Y-125179901D01*
X136906295Y-125049095D01*
X136787326Y-124943697D01*
X136787325Y-124943696D01*
X136787322Y-124943694D01*
X136646594Y-124869835D01*
X136646592Y-124869834D01*
X136646590Y-124869833D01*
X136646588Y-124869832D01*
X136646587Y-124869832D01*
X136492269Y-124831796D01*
X136492268Y-124831796D01*
X136347181Y-124831796D01*
X136279060Y-124811794D01*
X136258086Y-124794891D01*
X134675920Y-123212725D01*
X134659530Y-123192542D01*
X134653569Y-123183418D01*
X134653568Y-123183417D01*
X134625271Y-123161393D01*
X134619424Y-123156229D01*
X134616614Y-123153419D01*
X134616613Y-123153418D01*
X134616612Y-123153417D01*
X134616610Y-123153416D01*
X134597407Y-123139705D01*
X134553621Y-123105625D01*
X134546641Y-123101848D01*
X134539478Y-123098346D01*
X134486319Y-123082520D01*
X134433827Y-123064499D01*
X134426005Y-123063194D01*
X134418090Y-123062207D01*
X134362676Y-123064500D01*
X134019385Y-123064500D01*
X133951264Y-123044498D01*
X133904771Y-122990842D01*
X133894667Y-122920568D01*
X133915689Y-122866924D01*
X133921494Y-122858514D01*
X133993743Y-122753844D01*
X134050105Y-122605231D01*
X134050105Y-122605230D01*
X134050106Y-122605228D01*
X134069263Y-122447452D01*
X134069263Y-122447445D01*
X134050106Y-122289669D01*
X134036494Y-122253779D01*
X133993743Y-122141054D01*
X133954418Y-122084082D01*
X133903455Y-122010249D01*
X133903452Y-122010246D01*
X133831902Y-121946857D01*
X133794177Y-121886712D01*
X133789456Y-121852545D01*
X133789456Y-119580799D01*
X137544190Y-119580799D01*
X137563346Y-119738575D01*
X137599402Y-119833644D01*
X137619710Y-119887191D01*
X137709999Y-120017997D01*
X137828968Y-120123395D01*
X137828969Y-120123395D01*
X137828971Y-120123397D01*
X137903697Y-120162616D01*
X137969704Y-120197259D01*
X138124026Y-120235296D01*
X138124027Y-120235296D01*
X138282967Y-120235296D01*
X138282968Y-120235296D01*
X138437290Y-120197259D01*
X138578026Y-120123395D01*
X138696995Y-120017997D01*
X138787284Y-119887191D01*
X138843646Y-119738578D01*
X138843646Y-119738577D01*
X138843647Y-119738575D01*
X138862804Y-119580799D01*
X138862804Y-119580792D01*
X138843647Y-119423016D01*
X138810904Y-119336682D01*
X138787284Y-119274401D01*
X138696995Y-119143595D01*
X138696993Y-119143592D01*
X138694417Y-119141310D01*
X138693072Y-119139166D01*
X138691940Y-119137888D01*
X138692152Y-119137699D01*
X138656694Y-119081165D01*
X138657477Y-119010172D01*
X138688875Y-118957910D01*
X138832087Y-118814698D01*
X138894397Y-118780675D01*
X138921180Y-118777796D01*
X139066267Y-118777796D01*
X139066268Y-118777796D01*
X139220590Y-118739759D01*
X139361326Y-118665895D01*
X139480295Y-118560497D01*
X139570584Y-118429691D01*
X139626946Y-118281078D01*
X139626946Y-118281077D01*
X139626947Y-118281075D01*
X139646104Y-118123299D01*
X139646104Y-118123292D01*
X139626947Y-117965516D01*
X139600096Y-117894717D01*
X139570584Y-117816901D01*
X139480295Y-117686095D01*
X139361326Y-117580697D01*
X139361325Y-117580696D01*
X139361322Y-117580694D01*
X139220594Y-117506835D01*
X139220592Y-117506834D01*
X139220590Y-117506833D01*
X139220588Y-117506832D01*
X139220587Y-117506832D01*
X139066269Y-117468796D01*
X139066268Y-117468796D01*
X138907326Y-117468796D01*
X138907324Y-117468796D01*
X138753006Y-117506832D01*
X138752999Y-117506835D01*
X138612271Y-117580694D01*
X138612266Y-117580698D01*
X138493298Y-117686096D01*
X138403012Y-117816897D01*
X138403009Y-117816903D01*
X138346646Y-117965516D01*
X138327490Y-118123292D01*
X138327490Y-118123296D01*
X138333371Y-118171732D01*
X138321724Y-118241767D01*
X138297384Y-118276013D01*
X137972221Y-118601176D01*
X137952048Y-118617560D01*
X137942916Y-118623526D01*
X137942913Y-118623529D01*
X137920891Y-118651823D01*
X137915728Y-118657669D01*
X137914782Y-118658615D01*
X137912912Y-118660486D01*
X137899202Y-118679689D01*
X137865125Y-118723472D01*
X137861332Y-118730480D01*
X137857843Y-118737618D01*
X137842017Y-118790778D01*
X137823996Y-118843269D01*
X137822691Y-118851091D01*
X137821704Y-118859006D01*
X137823997Y-118914421D01*
X137823997Y-118985892D01*
X137803995Y-119054013D01*
X137781551Y-119080204D01*
X137710000Y-119143593D01*
X137709997Y-119143596D01*
X137619712Y-119274397D01*
X137619709Y-119274403D01*
X137563346Y-119423016D01*
X137544190Y-119580792D01*
X137544190Y-119580799D01*
X133789456Y-119580799D01*
X133789456Y-118409521D01*
X133809458Y-118341400D01*
X133826361Y-118320426D01*
X133957086Y-118189701D01*
X134019398Y-118155675D01*
X134046181Y-118152796D01*
X134191267Y-118152796D01*
X134191268Y-118152796D01*
X134345590Y-118114759D01*
X134486326Y-118040895D01*
X134605295Y-117935497D01*
X134695584Y-117804691D01*
X134751946Y-117656078D01*
X134751946Y-117656077D01*
X134751947Y-117656075D01*
X134771104Y-117498299D01*
X134771104Y-117498292D01*
X134751947Y-117340516D01*
X134738335Y-117304626D01*
X134695584Y-117191901D01*
X134605295Y-117061095D01*
X134486326Y-116955697D01*
X134486325Y-116955696D01*
X134486322Y-116955694D01*
X134345594Y-116881835D01*
X134345592Y-116881834D01*
X134345590Y-116881833D01*
X134345588Y-116881832D01*
X134345587Y-116881832D01*
X134191269Y-116843796D01*
X134191268Y-116843796D01*
X134032326Y-116843796D01*
X134032324Y-116843796D01*
X133878006Y-116881832D01*
X133877999Y-116881835D01*
X133737271Y-116955694D01*
X133737266Y-116955698D01*
X133618298Y-117061096D01*
X133528012Y-117191897D01*
X133528009Y-117191903D01*
X133471646Y-117340516D01*
X133452490Y-117498292D01*
X133452490Y-117498296D01*
X133453527Y-117506833D01*
X133458371Y-117546732D01*
X133446724Y-117616767D01*
X133422384Y-117651013D01*
X133178680Y-117894717D01*
X133158507Y-117911101D01*
X133149375Y-117917067D01*
X133149372Y-117917070D01*
X133127350Y-117945364D01*
X133122187Y-117951210D01*
X133121241Y-117952156D01*
X133119371Y-117954027D01*
X133105661Y-117973230D01*
X133071584Y-118017013D01*
X133067791Y-118024021D01*
X133064302Y-118031159D01*
X133048476Y-118084319D01*
X133030455Y-118136810D01*
X133029150Y-118144632D01*
X133028163Y-118152547D01*
X133030456Y-118207962D01*
X133030456Y-121852545D01*
X133010454Y-121920666D01*
X132988010Y-121946857D01*
X132916459Y-122010246D01*
X132916456Y-122010249D01*
X132826171Y-122141050D01*
X132826168Y-122141056D01*
X132769806Y-122289668D01*
X132769442Y-122292668D01*
X132768563Y-122294709D01*
X132767982Y-122297068D01*
X132767589Y-122296971D01*
X132741373Y-122357880D01*
X132682503Y-122397565D01*
X132611524Y-122399123D01*
X132555266Y-122366572D01*
X132205715Y-122017021D01*
X132189325Y-121996838D01*
X132183364Y-121987714D01*
X132183363Y-121987713D01*
X132155066Y-121965689D01*
X132149219Y-121960525D01*
X132146409Y-121957715D01*
X132146408Y-121957714D01*
X132146407Y-121957713D01*
X132146405Y-121957712D01*
X132127202Y-121944001D01*
X132083416Y-121909921D01*
X132076436Y-121906144D01*
X132069274Y-121902642D01*
X132041547Y-121894388D01*
X131981966Y-121855780D01*
X131952716Y-121791089D01*
X131951500Y-121773626D01*
X131951500Y-120753504D01*
X131951500Y-119010253D01*
X131971501Y-118942136D01*
X131973763Y-118938741D01*
X132045584Y-118834691D01*
X132101946Y-118686078D01*
X132101946Y-118686077D01*
X132101947Y-118686075D01*
X132121104Y-118528299D01*
X132121104Y-118528292D01*
X132101947Y-118370516D01*
X132053118Y-118241767D01*
X132045584Y-118221901D01*
X131955295Y-118091095D01*
X131836326Y-117985697D01*
X131836325Y-117985696D01*
X131836322Y-117985694D01*
X131695594Y-117911835D01*
X131695592Y-117911834D01*
X131695590Y-117911833D01*
X131695588Y-117911832D01*
X131695587Y-117911832D01*
X131541269Y-117873796D01*
X131541268Y-117873796D01*
X131382326Y-117873796D01*
X131382324Y-117873796D01*
X131228006Y-117911832D01*
X131227999Y-117911835D01*
X131087271Y-117985694D01*
X131087266Y-117985698D01*
X131024960Y-118040897D01*
X130975948Y-118084319D01*
X130968298Y-118091096D01*
X130878012Y-118221897D01*
X130878009Y-118221903D01*
X130821646Y-118370516D01*
X130802490Y-118528292D01*
X130802490Y-118528299D01*
X130821646Y-118686075D01*
X130848888Y-118757903D01*
X130878010Y-118834691D01*
X130968299Y-118965497D01*
X131087268Y-119070895D01*
X131125057Y-119090728D01*
X131176077Y-119140094D01*
X131192500Y-119202294D01*
X131192500Y-121742796D01*
X131172498Y-121810917D01*
X131118842Y-121857410D01*
X131066500Y-121868796D01*
X127250104Y-121868796D01*
X127181983Y-121848794D01*
X127135490Y-121795138D01*
X127126472Y-121753685D01*
X127125023Y-121753862D01*
X127104947Y-121588516D01*
X127091335Y-121552626D01*
X127048584Y-121439901D01*
X126958295Y-121309095D01*
X126839326Y-121203697D01*
X126839325Y-121203696D01*
X126839322Y-121203694D01*
X126698594Y-121129835D01*
X126698592Y-121129834D01*
X126698590Y-121129833D01*
X126698588Y-121129832D01*
X126698587Y-121129832D01*
X126544269Y-121091796D01*
X126544268Y-121091796D01*
X126385326Y-121091796D01*
X126385324Y-121091796D01*
X126231006Y-121129832D01*
X126230999Y-121129835D01*
X126090271Y-121203694D01*
X126090266Y-121203698D01*
X125971298Y-121309096D01*
X125881012Y-121439897D01*
X125881009Y-121439903D01*
X125824646Y-121588516D01*
X125805490Y-121746292D01*
X125805490Y-121746299D01*
X125824646Y-121904075D01*
X125864913Y-122010248D01*
X125881010Y-122052691D01*
X125971299Y-122183497D01*
X126088111Y-122286984D01*
X126125836Y-122347129D01*
X126125056Y-122418121D01*
X126088111Y-122475607D01*
X125972785Y-122577779D01*
X125971298Y-122579096D01*
X125881012Y-122709897D01*
X125881009Y-122709903D01*
X125824646Y-122858516D01*
X125805490Y-123016292D01*
X125805490Y-123016299D01*
X118629207Y-123016299D01*
X116472950Y-120860042D01*
X116472863Y-120859912D01*
X116455182Y-120842216D01*
X116454801Y-120842058D01*
X116454799Y-120842058D01*
X116454418Y-120842216D01*
X116437434Y-120859069D01*
X116437046Y-120859644D01*
X107846495Y-129450196D01*
X107784183Y-129484222D01*
X107713368Y-129479157D01*
X107668305Y-129450196D01*
X103409053Y-125190945D01*
X99149800Y-120931691D01*
X99115776Y-120869382D01*
X99120841Y-120798567D01*
X99149800Y-120753506D01*
X100653350Y-119249956D01*
X126220189Y-119249956D01*
X126250464Y-119421650D01*
X126250465Y-119421652D01*
X126319515Y-119581731D01*
X126319517Y-119581735D01*
X126423627Y-119721578D01*
X126557180Y-119833644D01*
X126557182Y-119833645D01*
X126712981Y-119911890D01*
X126882625Y-119952096D01*
X126882627Y-119952096D01*
X127013235Y-119952096D01*
X127046913Y-119948159D01*
X127142960Y-119936933D01*
X127306789Y-119877304D01*
X127452450Y-119781501D01*
X127572092Y-119654689D01*
X127659263Y-119503703D01*
X127709265Y-119336684D01*
X127714317Y-119249956D01*
X128252189Y-119249956D01*
X128282464Y-119421650D01*
X128282465Y-119421652D01*
X128351515Y-119581731D01*
X128351517Y-119581735D01*
X128455627Y-119721578D01*
X128589180Y-119833644D01*
X128589182Y-119833645D01*
X128744981Y-119911890D01*
X128914625Y-119952096D01*
X128914627Y-119952096D01*
X129045235Y-119952096D01*
X129078913Y-119948159D01*
X129174960Y-119936933D01*
X129338789Y-119877304D01*
X129484450Y-119781501D01*
X129604092Y-119654689D01*
X129691263Y-119503703D01*
X129741265Y-119336684D01*
X129751403Y-119162636D01*
X129721128Y-118990942D01*
X129653730Y-118834694D01*
X129652076Y-118830860D01*
X129652074Y-118830856D01*
X129547964Y-118691013D01*
X129414411Y-118578947D01*
X129336165Y-118539651D01*
X129258611Y-118500702D01*
X129088967Y-118460496D01*
X128958360Y-118460496D01*
X128958357Y-118460496D01*
X128828631Y-118475659D01*
X128664802Y-118535288D01*
X128664799Y-118535289D01*
X128519142Y-118631090D01*
X128399499Y-118757903D01*
X128312331Y-118908883D01*
X128312329Y-118908889D01*
X128263829Y-119070893D01*
X128262327Y-119075909D01*
X128258385Y-119143592D01*
X128252189Y-119249956D01*
X127714317Y-119249956D01*
X127719403Y-119162636D01*
X127689128Y-118990942D01*
X127621730Y-118834694D01*
X127620076Y-118830860D01*
X127620074Y-118830856D01*
X127515964Y-118691013D01*
X127382411Y-118578947D01*
X127304166Y-118539651D01*
X127226611Y-118500702D01*
X127056967Y-118460496D01*
X126926360Y-118460496D01*
X126926357Y-118460496D01*
X126796631Y-118475659D01*
X126632802Y-118535288D01*
X126632799Y-118535289D01*
X126487142Y-118631090D01*
X126367499Y-118757903D01*
X126280331Y-118908883D01*
X126280329Y-118908889D01*
X126231829Y-119070893D01*
X126230327Y-119075909D01*
X126226385Y-119143592D01*
X126220189Y-119249956D01*
X100653350Y-119249956D01*
X107744404Y-112158902D01*
X107757781Y-112145583D01*
X107757783Y-112145583D01*
X107757942Y-112145200D01*
X107757824Y-112144916D01*
X107757783Y-112144817D01*
X107757781Y-112144816D01*
X107740624Y-112127573D01*
X107740188Y-112127280D01*
X99460003Y-103847095D01*
X99425977Y-103784783D01*
X99431042Y-103713968D01*
X99473589Y-103657132D01*
X99540109Y-103632321D01*
X99549098Y-103632000D01*
X144654000Y-103632000D01*
X144722121Y-103652002D01*
G37*
G04 #@! TD.AperFunction*
M02*
