G04 #@! TF.GenerationSoftware,KiCad,Pcbnew,(5.1.5-0-10_14)*
G04 #@! TF.CreationDate,2020-08-05T22:15:24-06:00*
G04 #@! TF.ProjectId,business_card_v4,62757369-6e65-4737-935f-636172645f76,rev?*
G04 #@! TF.SameCoordinates,Original*
G04 #@! TF.FileFunction,Legend,Top*
G04 #@! TF.FilePolarity,Positive*
%FSLAX46Y46*%
G04 Gerber Fmt 4.6, Leading zero omitted, Abs format (unit mm)*
G04 Created by KiCad (PCBNEW (5.1.5-0-10_14)) date 2020-08-05 22:15:24*
%MOMM*%
%LPD*%
G04 APERTURE LIST*
%ADD10C,0.142240*%
%ADD11C,0.203200*%
%ADD12C,0.120000*%
G04 APERTURE END LIST*
D10*
X145652380Y-124452380D02*
X145319047Y-123976190D01*
X145080952Y-124452380D02*
X145080952Y-123452380D01*
X145461904Y-123452380D01*
X145557142Y-123500000D01*
X145604761Y-123547619D01*
X145652380Y-123642857D01*
X145652380Y-123785714D01*
X145604761Y-123880952D01*
X145557142Y-123928571D01*
X145461904Y-123976190D01*
X145080952Y-123976190D01*
X146033333Y-124404761D02*
X146176190Y-124452380D01*
X146414285Y-124452380D01*
X146509523Y-124404761D01*
X146557142Y-124357142D01*
X146604761Y-124261904D01*
X146604761Y-124166666D01*
X146557142Y-124071428D01*
X146509523Y-124023809D01*
X146414285Y-123976190D01*
X146223809Y-123928571D01*
X146128571Y-123880952D01*
X146080952Y-123833333D01*
X146033333Y-123738095D01*
X146033333Y-123642857D01*
X146080952Y-123547619D01*
X146128571Y-123500000D01*
X146223809Y-123452380D01*
X146461904Y-123452380D01*
X146604761Y-123500000D01*
X146890476Y-123452380D02*
X147461904Y-123452380D01*
X147176190Y-124452380D02*
X147176190Y-123452380D01*
D11*
X107018365Y-85201142D02*
X107018365Y-82201142D01*
X108732651Y-85201142D02*
X107446937Y-83486857D01*
X108732651Y-82201142D02*
X107018365Y-83915428D01*
X111161222Y-85058285D02*
X110875508Y-85201142D01*
X110304080Y-85201142D01*
X110018365Y-85058285D01*
X109875508Y-84772571D01*
X109875508Y-83629714D01*
X110018365Y-83344000D01*
X110304080Y-83201142D01*
X110875508Y-83201142D01*
X111161222Y-83344000D01*
X111304080Y-83629714D01*
X111304080Y-83915428D01*
X109875508Y-84201142D01*
X112304080Y-83201142D02*
X113018365Y-85201142D01*
X113732651Y-83201142D01*
X114875508Y-85201142D02*
X114875508Y-83201142D01*
X114875508Y-82201142D02*
X114732651Y-82344000D01*
X114875508Y-82486857D01*
X115018365Y-82344000D01*
X114875508Y-82201142D01*
X114875508Y-82486857D01*
X116304080Y-83201142D02*
X116304080Y-85201142D01*
X116304080Y-83486857D02*
X116446937Y-83344000D01*
X116732651Y-83201142D01*
X117161222Y-83201142D01*
X117446937Y-83344000D01*
X117589794Y-83629714D01*
X117589794Y-85201142D01*
X122732651Y-85201142D02*
X121304080Y-85201142D01*
X121304080Y-82201142D01*
X125018365Y-83201142D02*
X125018365Y-85201142D01*
X123732651Y-83201142D02*
X123732651Y-84772571D01*
X123875508Y-85058285D01*
X124161222Y-85201142D01*
X124589794Y-85201142D01*
X124875508Y-85058285D01*
X125018365Y-84915428D01*
X126018365Y-83201142D02*
X127161222Y-83201142D01*
X126446937Y-82201142D02*
X126446937Y-84772571D01*
X126589794Y-85058285D01*
X126875508Y-85201142D01*
X127161222Y-85201142D01*
X127875508Y-83201142D02*
X129446937Y-83201142D01*
X127875508Y-85201142D01*
X129446937Y-85201142D01*
X131732651Y-85058285D02*
X131446937Y-85201142D01*
X130875508Y-85201142D01*
X130589794Y-85058285D01*
X130446937Y-84772571D01*
X130446937Y-83629714D01*
X130589794Y-83344000D01*
X130875508Y-83201142D01*
X131446937Y-83201142D01*
X131732651Y-83344000D01*
X131875508Y-83629714D01*
X131875508Y-83915428D01*
X130446937Y-84201142D01*
X133161222Y-85201142D02*
X133161222Y-83201142D01*
X133161222Y-83772571D02*
X133304080Y-83486857D01*
X133446937Y-83344000D01*
X133732651Y-83201142D01*
X134018365Y-83201142D01*
D10*
X107490698Y-86897417D02*
X107704984Y-86968845D01*
X107776413Y-87040274D01*
X107847841Y-87183131D01*
X107847841Y-87397417D01*
X107776413Y-87540274D01*
X107704984Y-87611702D01*
X107562127Y-87683131D01*
X106990698Y-87683131D01*
X106990698Y-86183131D01*
X107490698Y-86183131D01*
X107633556Y-86254560D01*
X107704984Y-86325988D01*
X107776413Y-86468845D01*
X107776413Y-86611702D01*
X107704984Y-86754560D01*
X107633556Y-86825988D01*
X107490698Y-86897417D01*
X106990698Y-86897417D01*
X108490698Y-87540274D02*
X108562127Y-87611702D01*
X108490698Y-87683131D01*
X108419270Y-87611702D01*
X108490698Y-87540274D01*
X108490698Y-87683131D01*
X109204984Y-86897417D02*
X109704984Y-86897417D01*
X109919270Y-87683131D02*
X109204984Y-87683131D01*
X109204984Y-86183131D01*
X109919270Y-86183131D01*
X110562127Y-87540274D02*
X110633556Y-87611702D01*
X110562127Y-87683131D01*
X110490698Y-87611702D01*
X110562127Y-87540274D01*
X110562127Y-87683131D01*
X112419270Y-86897417D02*
X112919270Y-86897417D01*
X113133556Y-87683131D02*
X112419270Y-87683131D01*
X112419270Y-86183131D01*
X113133556Y-86183131D01*
X113990698Y-87683131D02*
X113847841Y-87611702D01*
X113776413Y-87468845D01*
X113776413Y-86183131D01*
X115133556Y-87611702D02*
X114990698Y-87683131D01*
X114704984Y-87683131D01*
X114562127Y-87611702D01*
X114490698Y-87468845D01*
X114490698Y-86897417D01*
X114562127Y-86754560D01*
X114704984Y-86683131D01*
X114990698Y-86683131D01*
X115133556Y-86754560D01*
X115204984Y-86897417D01*
X115204984Y-87040274D01*
X114490698Y-87183131D01*
X116490698Y-87611702D02*
X116347841Y-87683131D01*
X116062127Y-87683131D01*
X115919270Y-87611702D01*
X115847841Y-87540274D01*
X115776413Y-87397417D01*
X115776413Y-86968845D01*
X115847841Y-86825988D01*
X115919270Y-86754560D01*
X116062127Y-86683131D01*
X116347841Y-86683131D01*
X116490698Y-86754560D01*
X116919270Y-86683131D02*
X117490698Y-86683131D01*
X117133556Y-86183131D02*
X117133556Y-87468845D01*
X117204984Y-87611702D01*
X117347841Y-87683131D01*
X117490698Y-87683131D01*
X117990698Y-87683131D02*
X117990698Y-86683131D01*
X117990698Y-86968845D02*
X118062127Y-86825988D01*
X118133556Y-86754560D01*
X118276413Y-86683131D01*
X118419270Y-86683131D01*
X118919270Y-87683131D02*
X118919270Y-86683131D01*
X118919270Y-86183131D02*
X118847841Y-86254560D01*
X118919270Y-86325988D01*
X118990698Y-86254560D01*
X118919270Y-86183131D01*
X118919270Y-86325988D01*
X120276413Y-87611702D02*
X120133556Y-87683131D01*
X119847841Y-87683131D01*
X119704984Y-87611702D01*
X119633556Y-87540274D01*
X119562127Y-87397417D01*
X119562127Y-86968845D01*
X119633556Y-86825988D01*
X119704984Y-86754560D01*
X119847841Y-86683131D01*
X120133556Y-86683131D01*
X120276413Y-86754560D01*
X121562127Y-87683131D02*
X121562127Y-86897417D01*
X121490698Y-86754560D01*
X121347841Y-86683131D01*
X121062127Y-86683131D01*
X120919270Y-86754560D01*
X121562127Y-87611702D02*
X121419270Y-87683131D01*
X121062127Y-87683131D01*
X120919270Y-87611702D01*
X120847841Y-87468845D01*
X120847841Y-87325988D01*
X120919270Y-87183131D01*
X121062127Y-87111702D01*
X121419270Y-87111702D01*
X121562127Y-87040274D01*
X122490698Y-87683131D02*
X122347841Y-87611702D01*
X122276413Y-87468845D01*
X122276413Y-86183131D01*
X124204984Y-86897417D02*
X124704984Y-86897417D01*
X124919270Y-87683131D02*
X124204984Y-87683131D01*
X124204984Y-86183131D01*
X124919270Y-86183131D01*
X125562127Y-86683131D02*
X125562127Y-87683131D01*
X125562127Y-86825988D02*
X125633556Y-86754560D01*
X125776413Y-86683131D01*
X125990698Y-86683131D01*
X126133556Y-86754560D01*
X126204984Y-86897417D01*
X126204984Y-87683131D01*
X127562127Y-86683131D02*
X127562127Y-87897417D01*
X127490698Y-88040274D01*
X127419270Y-88111702D01*
X127276413Y-88183131D01*
X127062127Y-88183131D01*
X126919270Y-88111702D01*
X127562127Y-87611702D02*
X127419270Y-87683131D01*
X127133556Y-87683131D01*
X126990698Y-87611702D01*
X126919270Y-87540274D01*
X126847841Y-87397417D01*
X126847841Y-86968845D01*
X126919270Y-86825988D01*
X126990698Y-86754560D01*
X127133556Y-86683131D01*
X127419270Y-86683131D01*
X127562127Y-86754560D01*
X128276413Y-87683131D02*
X128276413Y-86683131D01*
X128276413Y-86183131D02*
X128204984Y-86254560D01*
X128276413Y-86325988D01*
X128347841Y-86254560D01*
X128276413Y-86183131D01*
X128276413Y-86325988D01*
X128990698Y-86683131D02*
X128990698Y-87683131D01*
X128990698Y-86825988D02*
X129062127Y-86754560D01*
X129204984Y-86683131D01*
X129419270Y-86683131D01*
X129562127Y-86754560D01*
X129633556Y-86897417D01*
X129633556Y-87683131D01*
X130919270Y-87611702D02*
X130776413Y-87683131D01*
X130490698Y-87683131D01*
X130347841Y-87611702D01*
X130276413Y-87468845D01*
X130276413Y-86897417D01*
X130347841Y-86754560D01*
X130490698Y-86683131D01*
X130776413Y-86683131D01*
X130919270Y-86754560D01*
X130990698Y-86897417D01*
X130990698Y-87040274D01*
X130276413Y-87183131D01*
X132204984Y-87611702D02*
X132062127Y-87683131D01*
X131776413Y-87683131D01*
X131633556Y-87611702D01*
X131562127Y-87468845D01*
X131562127Y-86897417D01*
X131633556Y-86754560D01*
X131776413Y-86683131D01*
X132062127Y-86683131D01*
X132204984Y-86754560D01*
X132276413Y-86897417D01*
X132276413Y-87040274D01*
X131562127Y-87183131D01*
X132919270Y-87683131D02*
X132919270Y-86683131D01*
X132919270Y-86968845D02*
X132990698Y-86825988D01*
X133062127Y-86754560D01*
X133204984Y-86683131D01*
X133347841Y-86683131D01*
X133847841Y-87683131D02*
X133847841Y-86683131D01*
X133847841Y-86183131D02*
X133776413Y-86254560D01*
X133847841Y-86325988D01*
X133919270Y-86254560D01*
X133847841Y-86183131D01*
X133847841Y-86325988D01*
X134562127Y-86683131D02*
X134562127Y-87683131D01*
X134562127Y-86825988D02*
X134633556Y-86754560D01*
X134776413Y-86683131D01*
X134990698Y-86683131D01*
X135133556Y-86754560D01*
X135204984Y-86897417D01*
X135204984Y-87683131D01*
X136562127Y-86683131D02*
X136562127Y-87897417D01*
X136490698Y-88040274D01*
X136419270Y-88111702D01*
X136276413Y-88183131D01*
X136062127Y-88183131D01*
X135919270Y-88111702D01*
X136562127Y-87611702D02*
X136419270Y-87683131D01*
X136133556Y-87683131D01*
X135990698Y-87611702D01*
X135919270Y-87540274D01*
X135847841Y-87397417D01*
X135847841Y-86968845D01*
X135919270Y-86825988D01*
X135990698Y-86754560D01*
X136133556Y-86683131D01*
X136419270Y-86683131D01*
X136562127Y-86754560D01*
X139633556Y-87683131D02*
X139562127Y-87683131D01*
X139419270Y-87611702D01*
X139204984Y-87397417D01*
X138847841Y-86968845D01*
X138704984Y-86754560D01*
X138633556Y-86540274D01*
X138633556Y-86397417D01*
X138704984Y-86254560D01*
X138847841Y-86183131D01*
X138919270Y-86183131D01*
X139062127Y-86254560D01*
X139133556Y-86397417D01*
X139133556Y-86468845D01*
X139062127Y-86611702D01*
X138990698Y-86683131D01*
X138562127Y-86968845D01*
X138490698Y-87040274D01*
X138419270Y-87183131D01*
X138419270Y-87397417D01*
X138490698Y-87540274D01*
X138562127Y-87611702D01*
X138704984Y-87683131D01*
X138919270Y-87683131D01*
X139062127Y-87611702D01*
X139133556Y-87540274D01*
X139347841Y-87254560D01*
X139419270Y-87040274D01*
X139419270Y-86897417D01*
X107490698Y-89289657D02*
X107704984Y-89361085D01*
X107776413Y-89432514D01*
X107847841Y-89575371D01*
X107847841Y-89789657D01*
X107776413Y-89932514D01*
X107704984Y-90003942D01*
X107562127Y-90075371D01*
X106990698Y-90075371D01*
X106990698Y-88575371D01*
X107490698Y-88575371D01*
X107633556Y-88646800D01*
X107704984Y-88718228D01*
X107776413Y-88861085D01*
X107776413Y-89003942D01*
X107704984Y-89146800D01*
X107633556Y-89218228D01*
X107490698Y-89289657D01*
X106990698Y-89289657D01*
X108490698Y-89932514D02*
X108562127Y-90003942D01*
X108490698Y-90075371D01*
X108419270Y-90003942D01*
X108490698Y-89932514D01*
X108490698Y-90075371D01*
X109133556Y-90003942D02*
X109347841Y-90075371D01*
X109704984Y-90075371D01*
X109847841Y-90003942D01*
X109919270Y-89932514D01*
X109990698Y-89789657D01*
X109990698Y-89646800D01*
X109919270Y-89503942D01*
X109847841Y-89432514D01*
X109704984Y-89361085D01*
X109419270Y-89289657D01*
X109276413Y-89218228D01*
X109204984Y-89146800D01*
X109133556Y-89003942D01*
X109133556Y-88861085D01*
X109204984Y-88718228D01*
X109276413Y-88646800D01*
X109419270Y-88575371D01*
X109776413Y-88575371D01*
X109990698Y-88646800D01*
X111276413Y-90003942D02*
X111133556Y-90075371D01*
X110847841Y-90075371D01*
X110704984Y-90003942D01*
X110633556Y-89932514D01*
X110562127Y-89789657D01*
X110562127Y-89361085D01*
X110633556Y-89218228D01*
X110704984Y-89146800D01*
X110847841Y-89075371D01*
X111133556Y-89075371D01*
X111276413Y-89146800D01*
X111919270Y-89932514D02*
X111990698Y-90003942D01*
X111919270Y-90075371D01*
X111847841Y-90003942D01*
X111919270Y-89932514D01*
X111919270Y-90075371D01*
X114633556Y-89932514D02*
X114562127Y-90003942D01*
X114347841Y-90075371D01*
X114204984Y-90075371D01*
X113990698Y-90003942D01*
X113847841Y-89861085D01*
X113776413Y-89718228D01*
X113704984Y-89432514D01*
X113704984Y-89218228D01*
X113776413Y-88932514D01*
X113847841Y-88789657D01*
X113990698Y-88646800D01*
X114204984Y-88575371D01*
X114347841Y-88575371D01*
X114562127Y-88646800D01*
X114633556Y-88718228D01*
X115490698Y-90075371D02*
X115347841Y-90003942D01*
X115276413Y-89932514D01*
X115204984Y-89789657D01*
X115204984Y-89361085D01*
X115276413Y-89218228D01*
X115347841Y-89146800D01*
X115490698Y-89075371D01*
X115704984Y-89075371D01*
X115847841Y-89146800D01*
X115919270Y-89218228D01*
X115990698Y-89361085D01*
X115990698Y-89789657D01*
X115919270Y-89932514D01*
X115847841Y-90003942D01*
X115704984Y-90075371D01*
X115490698Y-90075371D01*
X116633556Y-90075371D02*
X116633556Y-89075371D01*
X116633556Y-89218228D02*
X116704984Y-89146800D01*
X116847841Y-89075371D01*
X117062127Y-89075371D01*
X117204984Y-89146800D01*
X117276413Y-89289657D01*
X117276413Y-90075371D01*
X117276413Y-89289657D02*
X117347841Y-89146800D01*
X117490698Y-89075371D01*
X117704984Y-89075371D01*
X117847841Y-89146800D01*
X117919270Y-89289657D01*
X117919270Y-90075371D01*
X118633556Y-89075371D02*
X118633556Y-90575371D01*
X118633556Y-89146800D02*
X118776413Y-89075371D01*
X119062127Y-89075371D01*
X119204984Y-89146800D01*
X119276413Y-89218228D01*
X119347841Y-89361085D01*
X119347841Y-89789657D01*
X119276413Y-89932514D01*
X119204984Y-90003942D01*
X119062127Y-90075371D01*
X118776413Y-90075371D01*
X118633556Y-90003942D01*
X120633556Y-89075371D02*
X120633556Y-90075371D01*
X119990698Y-89075371D02*
X119990698Y-89861085D01*
X120062127Y-90003942D01*
X120204984Y-90075371D01*
X120419270Y-90075371D01*
X120562127Y-90003942D01*
X120633556Y-89932514D01*
X121133556Y-89075371D02*
X121704984Y-89075371D01*
X121347841Y-88575371D02*
X121347841Y-89861085D01*
X121419270Y-90003942D01*
X121562127Y-90075371D01*
X121704984Y-90075371D01*
X122776413Y-90003942D02*
X122633556Y-90075371D01*
X122347841Y-90075371D01*
X122204984Y-90003942D01*
X122133556Y-89861085D01*
X122133556Y-89289657D01*
X122204984Y-89146800D01*
X122347841Y-89075371D01*
X122633556Y-89075371D01*
X122776413Y-89146800D01*
X122847841Y-89289657D01*
X122847841Y-89432514D01*
X122133556Y-89575371D01*
X123490698Y-90075371D02*
X123490698Y-89075371D01*
X123490698Y-89361085D02*
X123562127Y-89218228D01*
X123633556Y-89146800D01*
X123776413Y-89075371D01*
X123919270Y-89075371D01*
X125490698Y-90003942D02*
X125704984Y-90075371D01*
X126062127Y-90075371D01*
X126204984Y-90003942D01*
X126276413Y-89932514D01*
X126347841Y-89789657D01*
X126347841Y-89646800D01*
X126276413Y-89503942D01*
X126204984Y-89432514D01*
X126062127Y-89361085D01*
X125776413Y-89289657D01*
X125633556Y-89218228D01*
X125562127Y-89146800D01*
X125490698Y-89003942D01*
X125490698Y-88861085D01*
X125562127Y-88718228D01*
X125633556Y-88646800D01*
X125776413Y-88575371D01*
X126133556Y-88575371D01*
X126347841Y-88646800D01*
X127633556Y-90003942D02*
X127490698Y-90075371D01*
X127204984Y-90075371D01*
X127062127Y-90003942D01*
X126990698Y-89932514D01*
X126919270Y-89789657D01*
X126919270Y-89361085D01*
X126990698Y-89218228D01*
X127062127Y-89146800D01*
X127204984Y-89075371D01*
X127490698Y-89075371D01*
X127633556Y-89146800D01*
X128276413Y-90075371D02*
X128276413Y-89075371D01*
X128276413Y-88575371D02*
X128204984Y-88646800D01*
X128276413Y-88718228D01*
X128347841Y-88646800D01*
X128276413Y-88575371D01*
X128276413Y-88718228D01*
X129562127Y-90003942D02*
X129419270Y-90075371D01*
X129133556Y-90075371D01*
X128990698Y-90003942D01*
X128919270Y-89861085D01*
X128919270Y-89289657D01*
X128990698Y-89146800D01*
X129133556Y-89075371D01*
X129419270Y-89075371D01*
X129562127Y-89146800D01*
X129633556Y-89289657D01*
X129633556Y-89432514D01*
X128919270Y-89575371D01*
X130276413Y-89075371D02*
X130276413Y-90075371D01*
X130276413Y-89218228D02*
X130347841Y-89146800D01*
X130490698Y-89075371D01*
X130704984Y-89075371D01*
X130847841Y-89146800D01*
X130919270Y-89289657D01*
X130919270Y-90075371D01*
X132276413Y-90003942D02*
X132133556Y-90075371D01*
X131847841Y-90075371D01*
X131704984Y-90003942D01*
X131633556Y-89932514D01*
X131562127Y-89789657D01*
X131562127Y-89361085D01*
X131633556Y-89218228D01*
X131704984Y-89146800D01*
X131847841Y-89075371D01*
X132133556Y-89075371D01*
X132276413Y-89146800D01*
X133490698Y-90003942D02*
X133347841Y-90075371D01*
X133062127Y-90075371D01*
X132919270Y-90003942D01*
X132847841Y-89861085D01*
X132847841Y-89289657D01*
X132919270Y-89146800D01*
X133062127Y-89075371D01*
X133347841Y-89075371D01*
X133490698Y-89146800D01*
X133562127Y-89289657D01*
X133562127Y-89432514D01*
X132847841Y-89575371D01*
X106847841Y-93359851D02*
X107204984Y-94859851D01*
X107490698Y-93788422D01*
X107776413Y-94859851D01*
X108133556Y-93359851D01*
X109276413Y-94788422D02*
X109133556Y-94859851D01*
X108847841Y-94859851D01*
X108704984Y-94788422D01*
X108633556Y-94645565D01*
X108633556Y-94074137D01*
X108704984Y-93931280D01*
X108847841Y-93859851D01*
X109133556Y-93859851D01*
X109276413Y-93931280D01*
X109347841Y-94074137D01*
X109347841Y-94216994D01*
X108633556Y-94359851D01*
X109990698Y-94859851D02*
X109990698Y-93359851D01*
X109990698Y-93931280D02*
X110133556Y-93859851D01*
X110419270Y-93859851D01*
X110562127Y-93931280D01*
X110633556Y-94002708D01*
X110704984Y-94145565D01*
X110704984Y-94574137D01*
X110633556Y-94716994D01*
X110562127Y-94788422D01*
X110419270Y-94859851D01*
X110133556Y-94859851D01*
X109990698Y-94788422D01*
X111276413Y-94788422D02*
X111419270Y-94859851D01*
X111704984Y-94859851D01*
X111847841Y-94788422D01*
X111919270Y-94645565D01*
X111919270Y-94574137D01*
X111847841Y-94431280D01*
X111704984Y-94359851D01*
X111490698Y-94359851D01*
X111347841Y-94288422D01*
X111276413Y-94145565D01*
X111276413Y-94074137D01*
X111347841Y-93931280D01*
X111490698Y-93859851D01*
X111704984Y-93859851D01*
X111847841Y-93931280D01*
X112562127Y-94859851D02*
X112562127Y-93859851D01*
X112562127Y-93359851D02*
X112490698Y-93431280D01*
X112562127Y-93502708D01*
X112633556Y-93431280D01*
X112562127Y-93359851D01*
X112562127Y-93502708D01*
X113062127Y-93859851D02*
X113633556Y-93859851D01*
X113276413Y-93359851D02*
X113276413Y-94645565D01*
X113347841Y-94788422D01*
X113490698Y-94859851D01*
X113633556Y-94859851D01*
X114704984Y-94788422D02*
X114562127Y-94859851D01*
X114276413Y-94859851D01*
X114133556Y-94788422D01*
X114062127Y-94645565D01*
X114062127Y-94074137D01*
X114133556Y-93931280D01*
X114276413Y-93859851D01*
X114562127Y-93859851D01*
X114704984Y-93931280D01*
X114776413Y-94074137D01*
X114776413Y-94216994D01*
X114062127Y-94359851D01*
X115419270Y-94716994D02*
X115490698Y-94788422D01*
X115419270Y-94859851D01*
X115347841Y-94788422D01*
X115419270Y-94716994D01*
X115419270Y-94859851D01*
X115419270Y-93931280D02*
X115490698Y-94002708D01*
X115419270Y-94074137D01*
X115347841Y-94002708D01*
X115419270Y-93931280D01*
X115419270Y-94074137D01*
X117276413Y-94859851D02*
X117276413Y-93359851D01*
X117419270Y-94288422D02*
X117847841Y-94859851D01*
X117847841Y-93859851D02*
X117276413Y-94431280D01*
X119062127Y-94788422D02*
X118919270Y-94859851D01*
X118633556Y-94859851D01*
X118490698Y-94788422D01*
X118419270Y-94645565D01*
X118419270Y-94074137D01*
X118490698Y-93931280D01*
X118633556Y-93859851D01*
X118919270Y-93859851D01*
X119062127Y-93931280D01*
X119133556Y-94074137D01*
X119133556Y-94216994D01*
X118419270Y-94359851D01*
X119633556Y-93859851D02*
X119990698Y-94859851D01*
X120347841Y-93859851D01*
X120919270Y-94859851D02*
X120919270Y-93859851D01*
X120919270Y-93359851D02*
X120847841Y-93431280D01*
X120919270Y-93502708D01*
X120990698Y-93431280D01*
X120919270Y-93359851D01*
X120919270Y-93502708D01*
X121633556Y-93859851D02*
X121633556Y-94859851D01*
X121633556Y-94002708D02*
X121704984Y-93931280D01*
X121847841Y-93859851D01*
X122062127Y-93859851D01*
X122204984Y-93931280D01*
X122276413Y-94074137D01*
X122276413Y-94859851D01*
X122990698Y-94716994D02*
X123062127Y-94788422D01*
X122990698Y-94859851D01*
X122919270Y-94788422D01*
X122990698Y-94716994D01*
X122990698Y-94859851D01*
X123919270Y-94859851D02*
X123776413Y-94788422D01*
X123704984Y-94645565D01*
X123704984Y-93359851D01*
X125133556Y-93859851D02*
X125133556Y-94859851D01*
X124490698Y-93859851D02*
X124490698Y-94645565D01*
X124562127Y-94788422D01*
X124704984Y-94859851D01*
X124919270Y-94859851D01*
X125062127Y-94788422D01*
X125133556Y-94716994D01*
X125633556Y-93859851D02*
X126204984Y-93859851D01*
X125847841Y-93359851D02*
X125847841Y-94645565D01*
X125919270Y-94788422D01*
X126062127Y-94859851D01*
X126204984Y-94859851D01*
X126562127Y-93859851D02*
X127347841Y-93859851D01*
X126562127Y-94859851D01*
X127347841Y-94859851D01*
X128490698Y-94788422D02*
X128347841Y-94859851D01*
X128062127Y-94859851D01*
X127919270Y-94788422D01*
X127847841Y-94645565D01*
X127847841Y-94074137D01*
X127919270Y-93931280D01*
X128062127Y-93859851D01*
X128347841Y-93859851D01*
X128490698Y-93931280D01*
X128562127Y-94074137D01*
X128562127Y-94216994D01*
X127847841Y-94359851D01*
X129204984Y-94859851D02*
X129204984Y-93859851D01*
X129204984Y-94145565D02*
X129276413Y-94002708D01*
X129347841Y-93931280D01*
X129490698Y-93859851D01*
X129633556Y-93859851D01*
X130133556Y-94716994D02*
X130204984Y-94788422D01*
X130133556Y-94859851D01*
X130062127Y-94788422D01*
X130133556Y-94716994D01*
X130133556Y-94859851D01*
X131490698Y-94788422D02*
X131347841Y-94859851D01*
X131062127Y-94859851D01*
X130919270Y-94788422D01*
X130847841Y-94716994D01*
X130776413Y-94574137D01*
X130776413Y-94145565D01*
X130847841Y-94002708D01*
X130919270Y-93931280D01*
X131062127Y-93859851D01*
X131347841Y-93859851D01*
X131490698Y-93931280D01*
X132776413Y-94859851D02*
X132776413Y-94074137D01*
X132704984Y-93931280D01*
X132562127Y-93859851D01*
X132276413Y-93859851D01*
X132133556Y-93931280D01*
X132776413Y-94788422D02*
X132633556Y-94859851D01*
X132276413Y-94859851D01*
X132133556Y-94788422D01*
X132062127Y-94645565D01*
X132062127Y-94502708D01*
X132133556Y-94359851D01*
X132276413Y-94288422D01*
X132633556Y-94288422D01*
X132776413Y-94216994D01*
X106990698Y-96466377D02*
X107490698Y-96466377D01*
X107704984Y-97252091D02*
X106990698Y-97252091D01*
X106990698Y-95752091D01*
X107704984Y-95752091D01*
X108347841Y-97252091D02*
X108347841Y-96252091D01*
X108347841Y-96394948D02*
X108419270Y-96323520D01*
X108562127Y-96252091D01*
X108776413Y-96252091D01*
X108919270Y-96323520D01*
X108990698Y-96466377D01*
X108990698Y-97252091D01*
X108990698Y-96466377D02*
X109062127Y-96323520D01*
X109204984Y-96252091D01*
X109419270Y-96252091D01*
X109562127Y-96323520D01*
X109633556Y-96466377D01*
X109633556Y-97252091D01*
X110990698Y-97252091D02*
X110990698Y-96466377D01*
X110919270Y-96323520D01*
X110776413Y-96252091D01*
X110490698Y-96252091D01*
X110347841Y-96323520D01*
X110990698Y-97180662D02*
X110847841Y-97252091D01*
X110490698Y-97252091D01*
X110347841Y-97180662D01*
X110276413Y-97037805D01*
X110276413Y-96894948D01*
X110347841Y-96752091D01*
X110490698Y-96680662D01*
X110847841Y-96680662D01*
X110990698Y-96609234D01*
X111704984Y-97252091D02*
X111704984Y-96252091D01*
X111704984Y-95752091D02*
X111633556Y-95823520D01*
X111704984Y-95894948D01*
X111776413Y-95823520D01*
X111704984Y-95752091D01*
X111704984Y-95894948D01*
X112633556Y-97252091D02*
X112490698Y-97180662D01*
X112419270Y-97037805D01*
X112419270Y-95752091D01*
X113204984Y-97109234D02*
X113276413Y-97180662D01*
X113204984Y-97252091D01*
X113133556Y-97180662D01*
X113204984Y-97109234D01*
X113204984Y-97252091D01*
X113204984Y-96323520D02*
X113276413Y-96394948D01*
X113204984Y-96466377D01*
X113133556Y-96394948D01*
X113204984Y-96323520D01*
X113204984Y-96466377D01*
X115062127Y-97252091D02*
X115062127Y-95752091D01*
X115204984Y-96680662D02*
X115633556Y-97252091D01*
X115633556Y-96252091D02*
X115062127Y-96823520D01*
X116847841Y-97180662D02*
X116704984Y-97252091D01*
X116419270Y-97252091D01*
X116276413Y-97180662D01*
X116204984Y-97037805D01*
X116204984Y-96466377D01*
X116276413Y-96323520D01*
X116419270Y-96252091D01*
X116704984Y-96252091D01*
X116847841Y-96323520D01*
X116919270Y-96466377D01*
X116919270Y-96609234D01*
X116204984Y-96752091D01*
X117419270Y-96252091D02*
X117776413Y-97252091D01*
X118133556Y-96252091D01*
X118704984Y-97252091D02*
X118704984Y-96252091D01*
X118704984Y-95752091D02*
X118633556Y-95823520D01*
X118704984Y-95894948D01*
X118776413Y-95823520D01*
X118704984Y-95752091D01*
X118704984Y-95894948D01*
X119419270Y-96252091D02*
X119419270Y-97252091D01*
X119419270Y-96394948D02*
X119490698Y-96323520D01*
X119633556Y-96252091D01*
X119847841Y-96252091D01*
X119990698Y-96323520D01*
X120062127Y-96466377D01*
X120062127Y-97252091D01*
X121704984Y-96537805D02*
X121633556Y-96466377D01*
X121490698Y-96394948D01*
X121347841Y-96394948D01*
X121204984Y-96466377D01*
X121133556Y-96537805D01*
X121062127Y-96680662D01*
X121062127Y-96823520D01*
X121133556Y-96966377D01*
X121204984Y-97037805D01*
X121347841Y-97109234D01*
X121490698Y-97109234D01*
X121633556Y-97037805D01*
X121704984Y-96966377D01*
X121704984Y-96394948D02*
X121704984Y-96966377D01*
X121776413Y-97037805D01*
X121847841Y-97037805D01*
X121990698Y-96966377D01*
X122062127Y-96823520D01*
X122062127Y-96466377D01*
X121919270Y-96252091D01*
X121704984Y-96109234D01*
X121419270Y-96037805D01*
X121133556Y-96109234D01*
X120919270Y-96252091D01*
X120776413Y-96466377D01*
X120704984Y-96752091D01*
X120776413Y-97037805D01*
X120919270Y-97252091D01*
X121133556Y-97394948D01*
X121419270Y-97466377D01*
X121704984Y-97394948D01*
X121919270Y-97252091D01*
X122919270Y-97252091D02*
X122776413Y-97180662D01*
X122704984Y-97037805D01*
X122704984Y-95752091D01*
X124133556Y-96252091D02*
X124133556Y-97252091D01*
X123490698Y-96252091D02*
X123490698Y-97037805D01*
X123562127Y-97180662D01*
X123704984Y-97252091D01*
X123919270Y-97252091D01*
X124062127Y-97180662D01*
X124133556Y-97109234D01*
X124633556Y-96252091D02*
X125204984Y-96252091D01*
X124847841Y-95752091D02*
X124847841Y-97037805D01*
X124919270Y-97180662D01*
X125062127Y-97252091D01*
X125204984Y-97252091D01*
X125562127Y-96252091D02*
X126347841Y-96252091D01*
X125562127Y-97252091D01*
X126347841Y-97252091D01*
X127490698Y-97180662D02*
X127347841Y-97252091D01*
X127062127Y-97252091D01*
X126919270Y-97180662D01*
X126847841Y-97037805D01*
X126847841Y-96466377D01*
X126919270Y-96323520D01*
X127062127Y-96252091D01*
X127347841Y-96252091D01*
X127490698Y-96323520D01*
X127562127Y-96466377D01*
X127562127Y-96609234D01*
X126847841Y-96752091D01*
X128204984Y-97252091D02*
X128204984Y-96252091D01*
X128204984Y-96537805D02*
X128276413Y-96394948D01*
X128347841Y-96323520D01*
X128490698Y-96252091D01*
X128633556Y-96252091D01*
X129133556Y-97109234D02*
X129204984Y-97180662D01*
X129133556Y-97252091D01*
X129062127Y-97180662D01*
X129133556Y-97109234D01*
X129133556Y-97252091D01*
X130490698Y-97180662D02*
X130347841Y-97252091D01*
X130062127Y-97252091D01*
X129919270Y-97180662D01*
X129847841Y-97109234D01*
X129776413Y-96966377D01*
X129776413Y-96537805D01*
X129847841Y-96394948D01*
X129919270Y-96323520D01*
X130062127Y-96252091D01*
X130347841Y-96252091D01*
X130490698Y-96323520D01*
X131776413Y-97252091D02*
X131776413Y-96466377D01*
X131704984Y-96323520D01*
X131562127Y-96252091D01*
X131276413Y-96252091D01*
X131133556Y-96323520D01*
X131776413Y-97180662D02*
X131633556Y-97252091D01*
X131276413Y-97252091D01*
X131133556Y-97180662D01*
X131062127Y-97037805D01*
X131062127Y-96894948D01*
X131133556Y-96752091D01*
X131276413Y-96680662D01*
X131633556Y-96680662D01*
X131776413Y-96609234D01*
X107776413Y-98215760D02*
X107633556Y-98144331D01*
X107419270Y-98144331D01*
X107204984Y-98215760D01*
X107062127Y-98358617D01*
X106990698Y-98501474D01*
X106919270Y-98787188D01*
X106919270Y-99001474D01*
X106990698Y-99287188D01*
X107062127Y-99430045D01*
X107204984Y-99572902D01*
X107419270Y-99644331D01*
X107562127Y-99644331D01*
X107776413Y-99572902D01*
X107847841Y-99501474D01*
X107847841Y-99001474D01*
X107562127Y-99001474D01*
X108490698Y-99644331D02*
X108490698Y-98644331D01*
X108490698Y-98144331D02*
X108419270Y-98215760D01*
X108490698Y-98287188D01*
X108562127Y-98215760D01*
X108490698Y-98144331D01*
X108490698Y-98287188D01*
X108990698Y-98644331D02*
X109562127Y-98644331D01*
X109204984Y-98144331D02*
X109204984Y-99430045D01*
X109276413Y-99572902D01*
X109419270Y-99644331D01*
X109562127Y-99644331D01*
X110062127Y-99644331D02*
X110062127Y-98144331D01*
X110704984Y-99644331D02*
X110704984Y-98858617D01*
X110633556Y-98715760D01*
X110490698Y-98644331D01*
X110276413Y-98644331D01*
X110133556Y-98715760D01*
X110062127Y-98787188D01*
X112062127Y-98644331D02*
X112062127Y-99644331D01*
X111419270Y-98644331D02*
X111419270Y-99430045D01*
X111490698Y-99572902D01*
X111633556Y-99644331D01*
X111847841Y-99644331D01*
X111990698Y-99572902D01*
X112062127Y-99501474D01*
X112776413Y-99644331D02*
X112776413Y-98144331D01*
X112776413Y-98715760D02*
X112919270Y-98644331D01*
X113204984Y-98644331D01*
X113347841Y-98715760D01*
X113419270Y-98787188D01*
X113490698Y-98930045D01*
X113490698Y-99358617D01*
X113419270Y-99501474D01*
X113347841Y-99572902D01*
X113204984Y-99644331D01*
X112919270Y-99644331D01*
X112776413Y-99572902D01*
X114133556Y-99501474D02*
X114204984Y-99572902D01*
X114133556Y-99644331D01*
X114062127Y-99572902D01*
X114133556Y-99501474D01*
X114133556Y-99644331D01*
X114133556Y-98715760D02*
X114204984Y-98787188D01*
X114133556Y-98858617D01*
X114062127Y-98787188D01*
X114133556Y-98715760D01*
X114133556Y-98858617D01*
X116633556Y-98644331D02*
X116633556Y-99858617D01*
X116562127Y-100001474D01*
X116490698Y-100072902D01*
X116347841Y-100144331D01*
X116133556Y-100144331D01*
X115990698Y-100072902D01*
X116633556Y-99572902D02*
X116490698Y-99644331D01*
X116204984Y-99644331D01*
X116062127Y-99572902D01*
X115990698Y-99501474D01*
X115919270Y-99358617D01*
X115919270Y-98930045D01*
X115990698Y-98787188D01*
X116062127Y-98715760D01*
X116204984Y-98644331D01*
X116490698Y-98644331D01*
X116633556Y-98715760D01*
X117347841Y-99644331D02*
X117347841Y-98644331D01*
X117347841Y-98144331D02*
X117276413Y-98215760D01*
X117347841Y-98287188D01*
X117419270Y-98215760D01*
X117347841Y-98144331D01*
X117347841Y-98287188D01*
X117847841Y-98644331D02*
X118419270Y-98644331D01*
X118062127Y-98144331D02*
X118062127Y-99430045D01*
X118133556Y-99572902D01*
X118276413Y-99644331D01*
X118419270Y-99644331D01*
X118919270Y-99644331D02*
X118919270Y-98144331D01*
X119562127Y-99644331D02*
X119562127Y-98858617D01*
X119490698Y-98715760D01*
X119347841Y-98644331D01*
X119133556Y-98644331D01*
X118990698Y-98715760D01*
X118919270Y-98787188D01*
X120919270Y-98644331D02*
X120919270Y-99644331D01*
X120276413Y-98644331D02*
X120276413Y-99430045D01*
X120347841Y-99572902D01*
X120490698Y-99644331D01*
X120704984Y-99644331D01*
X120847841Y-99572902D01*
X120919270Y-99501474D01*
X121633556Y-99644331D02*
X121633556Y-98144331D01*
X121633556Y-98715760D02*
X121776413Y-98644331D01*
X122062127Y-98644331D01*
X122204984Y-98715760D01*
X122276413Y-98787188D01*
X122347841Y-98930045D01*
X122347841Y-99358617D01*
X122276413Y-99501474D01*
X122204984Y-99572902D01*
X122062127Y-99644331D01*
X121776413Y-99644331D01*
X121633556Y-99572902D01*
X122990698Y-99501474D02*
X123062127Y-99572902D01*
X122990698Y-99644331D01*
X122919270Y-99572902D01*
X122990698Y-99501474D01*
X122990698Y-99644331D01*
X124347841Y-99572902D02*
X124204984Y-99644331D01*
X123919270Y-99644331D01*
X123776413Y-99572902D01*
X123704984Y-99501474D01*
X123633556Y-99358617D01*
X123633556Y-98930045D01*
X123704984Y-98787188D01*
X123776413Y-98715760D01*
X123919270Y-98644331D01*
X124204984Y-98644331D01*
X124347841Y-98715760D01*
X125204984Y-99644331D02*
X125062127Y-99572902D01*
X124990698Y-99501474D01*
X124919270Y-99358617D01*
X124919270Y-98930045D01*
X124990698Y-98787188D01*
X125062127Y-98715760D01*
X125204984Y-98644331D01*
X125419270Y-98644331D01*
X125562127Y-98715760D01*
X125633556Y-98787188D01*
X125704984Y-98930045D01*
X125704984Y-99358617D01*
X125633556Y-99501474D01*
X125562127Y-99572902D01*
X125419270Y-99644331D01*
X125204984Y-99644331D01*
X126347841Y-99644331D02*
X126347841Y-98644331D01*
X126347841Y-98787188D02*
X126419270Y-98715760D01*
X126562127Y-98644331D01*
X126776413Y-98644331D01*
X126919270Y-98715760D01*
X126990698Y-98858617D01*
X126990698Y-99644331D01*
X126990698Y-98858617D02*
X127062127Y-98715760D01*
X127204984Y-98644331D01*
X127419270Y-98644331D01*
X127562127Y-98715760D01*
X127633556Y-98858617D01*
X127633556Y-99644331D01*
X129419270Y-98072902D02*
X128133556Y-100001474D01*
X129919270Y-99644331D02*
X129919270Y-98144331D01*
X130062127Y-99072902D02*
X130490698Y-99644331D01*
X130490698Y-98644331D02*
X129919270Y-99215760D01*
X131704984Y-99572902D02*
X131562127Y-99644331D01*
X131276413Y-99644331D01*
X131133556Y-99572902D01*
X131062127Y-99430045D01*
X131062127Y-98858617D01*
X131133556Y-98715760D01*
X131276413Y-98644331D01*
X131562127Y-98644331D01*
X131704984Y-98715760D01*
X131776413Y-98858617D01*
X131776413Y-99001474D01*
X131062127Y-99144331D01*
X132276413Y-98644331D02*
X132633556Y-99644331D01*
X132990698Y-98644331D01*
X133562127Y-99644331D02*
X133562127Y-98644331D01*
X133562127Y-98144331D02*
X133490698Y-98215760D01*
X133562127Y-98287188D01*
X133633556Y-98215760D01*
X133562127Y-98144331D01*
X133562127Y-98287188D01*
X134276413Y-98644331D02*
X134276413Y-99644331D01*
X134276413Y-98787188D02*
X134347841Y-98715760D01*
X134490698Y-98644331D01*
X134704984Y-98644331D01*
X134847841Y-98715760D01*
X134919270Y-98858617D01*
X134919270Y-99644331D01*
X135847841Y-99644331D02*
X135704984Y-99572902D01*
X135633556Y-99430045D01*
X135633556Y-98144331D01*
X137062127Y-98644331D02*
X137062127Y-99644331D01*
X136419270Y-98644331D02*
X136419270Y-99430045D01*
X136490698Y-99572902D01*
X136633556Y-99644331D01*
X136847841Y-99644331D01*
X136990698Y-99572902D01*
X137062127Y-99501474D01*
X137562127Y-98644331D02*
X138133556Y-98644331D01*
X137776413Y-98144331D02*
X137776413Y-99430045D01*
X137847841Y-99572902D01*
X137990698Y-99644331D01*
X138133556Y-99644331D01*
X138490698Y-98644331D02*
X139276413Y-98644331D01*
X138490698Y-99644331D01*
X139276413Y-99644331D01*
X140419270Y-99572902D02*
X140276413Y-99644331D01*
X139990698Y-99644331D01*
X139847841Y-99572902D01*
X139776413Y-99430045D01*
X139776413Y-98858617D01*
X139847841Y-98715760D01*
X139990698Y-98644331D01*
X140276413Y-98644331D01*
X140419270Y-98715760D01*
X140490698Y-98858617D01*
X140490698Y-99001474D01*
X139776413Y-99144331D01*
X141133556Y-99644331D02*
X141133556Y-98644331D01*
X141133556Y-98930045D02*
X141204984Y-98787188D01*
X141276413Y-98715760D01*
X141419270Y-98644331D01*
X141562127Y-98644331D01*
X107704984Y-102036571D02*
X106990698Y-102036571D01*
X106990698Y-100536571D01*
X108204984Y-102036571D02*
X108204984Y-101036571D01*
X108204984Y-100536571D02*
X108133556Y-100608000D01*
X108204984Y-100679428D01*
X108276413Y-100608000D01*
X108204984Y-100536571D01*
X108204984Y-100679428D01*
X108919270Y-101036571D02*
X108919270Y-102036571D01*
X108919270Y-101179428D02*
X108990698Y-101108000D01*
X109133556Y-101036571D01*
X109347841Y-101036571D01*
X109490698Y-101108000D01*
X109562127Y-101250857D01*
X109562127Y-102036571D01*
X110276413Y-102036571D02*
X110276413Y-100536571D01*
X110419270Y-101465142D02*
X110847841Y-102036571D01*
X110847841Y-101036571D02*
X110276413Y-101608000D01*
X112062127Y-101965142D02*
X111919270Y-102036571D01*
X111633556Y-102036571D01*
X111490698Y-101965142D01*
X111419270Y-101822285D01*
X111419270Y-101250857D01*
X111490698Y-101108000D01*
X111633556Y-101036571D01*
X111919270Y-101036571D01*
X112062127Y-101108000D01*
X112133556Y-101250857D01*
X112133556Y-101393714D01*
X111419270Y-101536571D01*
X113419270Y-102036571D02*
X113419270Y-100536571D01*
X113419270Y-101965142D02*
X113276413Y-102036571D01*
X112990698Y-102036571D01*
X112847841Y-101965142D01*
X112776413Y-101893714D01*
X112704984Y-101750857D01*
X112704984Y-101322285D01*
X112776413Y-101179428D01*
X112847841Y-101108000D01*
X112990698Y-101036571D01*
X113276413Y-101036571D01*
X113419270Y-101108000D01*
X114133556Y-102036571D02*
X114133556Y-100536571D01*
X114847841Y-101036571D02*
X114847841Y-102036571D01*
X114847841Y-101179428D02*
X114919270Y-101108000D01*
X115062127Y-101036571D01*
X115276413Y-101036571D01*
X115419270Y-101108000D01*
X115490698Y-101250857D01*
X115490698Y-102036571D01*
X116204984Y-101893714D02*
X116276413Y-101965142D01*
X116204984Y-102036571D01*
X116133556Y-101965142D01*
X116204984Y-101893714D01*
X116204984Y-102036571D01*
X116204984Y-101108000D02*
X116276413Y-101179428D01*
X116204984Y-101250857D01*
X116133556Y-101179428D01*
X116204984Y-101108000D01*
X116204984Y-101250857D01*
X118276413Y-102036571D02*
X118133556Y-101965142D01*
X118062127Y-101822285D01*
X118062127Y-100536571D01*
X118847841Y-102036571D02*
X118847841Y-101036571D01*
X118847841Y-100536571D02*
X118776413Y-100608000D01*
X118847841Y-100679428D01*
X118919270Y-100608000D01*
X118847841Y-100536571D01*
X118847841Y-100679428D01*
X119562127Y-101036571D02*
X119562127Y-102036571D01*
X119562127Y-101179428D02*
X119633556Y-101108000D01*
X119776413Y-101036571D01*
X119990698Y-101036571D01*
X120133556Y-101108000D01*
X120204984Y-101250857D01*
X120204984Y-102036571D01*
X120919270Y-102036571D02*
X120919270Y-100536571D01*
X121062127Y-101465142D02*
X121490698Y-102036571D01*
X121490698Y-101036571D02*
X120919270Y-101608000D01*
X122704984Y-101965142D02*
X122562127Y-102036571D01*
X122276413Y-102036571D01*
X122133556Y-101965142D01*
X122062127Y-101822285D01*
X122062127Y-101250857D01*
X122133556Y-101108000D01*
X122276413Y-101036571D01*
X122562127Y-101036571D01*
X122704984Y-101108000D01*
X122776413Y-101250857D01*
X122776413Y-101393714D01*
X122062127Y-101536571D01*
X124062127Y-102036571D02*
X124062127Y-100536571D01*
X124062127Y-101965142D02*
X123919270Y-102036571D01*
X123633556Y-102036571D01*
X123490698Y-101965142D01*
X123419270Y-101893714D01*
X123347841Y-101750857D01*
X123347841Y-101322285D01*
X123419270Y-101179428D01*
X123490698Y-101108000D01*
X123633556Y-101036571D01*
X123919270Y-101036571D01*
X124062127Y-101108000D01*
X124776413Y-102036571D02*
X124776413Y-101036571D01*
X124776413Y-100536571D02*
X124704984Y-100608000D01*
X124776413Y-100679428D01*
X124847841Y-100608000D01*
X124776413Y-100536571D01*
X124776413Y-100679428D01*
X125490698Y-101036571D02*
X125490698Y-102036571D01*
X125490698Y-101179428D02*
X125562127Y-101108000D01*
X125704984Y-101036571D01*
X125919270Y-101036571D01*
X126062127Y-101108000D01*
X126133556Y-101250857D01*
X126133556Y-102036571D01*
X126847841Y-101893714D02*
X126919270Y-101965142D01*
X126847841Y-102036571D01*
X126776413Y-101965142D01*
X126847841Y-101893714D01*
X126847841Y-102036571D01*
X128204984Y-101965142D02*
X128062127Y-102036571D01*
X127776413Y-102036571D01*
X127633556Y-101965142D01*
X127562127Y-101893714D01*
X127490698Y-101750857D01*
X127490698Y-101322285D01*
X127562127Y-101179428D01*
X127633556Y-101108000D01*
X127776413Y-101036571D01*
X128062127Y-101036571D01*
X128204984Y-101108000D01*
X129062127Y-102036571D02*
X128919270Y-101965142D01*
X128847841Y-101893714D01*
X128776413Y-101750857D01*
X128776413Y-101322285D01*
X128847841Y-101179428D01*
X128919270Y-101108000D01*
X129062127Y-101036571D01*
X129276413Y-101036571D01*
X129419270Y-101108000D01*
X129490698Y-101179428D01*
X129562127Y-101322285D01*
X129562127Y-101750857D01*
X129490698Y-101893714D01*
X129419270Y-101965142D01*
X129276413Y-102036571D01*
X129062127Y-102036571D01*
X130204984Y-102036571D02*
X130204984Y-101036571D01*
X130204984Y-101179428D02*
X130276413Y-101108000D01*
X130419270Y-101036571D01*
X130633556Y-101036571D01*
X130776413Y-101108000D01*
X130847841Y-101250857D01*
X130847841Y-102036571D01*
X130847841Y-101250857D02*
X130919270Y-101108000D01*
X131062127Y-101036571D01*
X131276413Y-101036571D01*
X131419270Y-101108000D01*
X131490698Y-101250857D01*
X131490698Y-102036571D01*
X133276413Y-100465142D02*
X131990698Y-102393714D01*
X133776413Y-102036571D02*
X133776413Y-101036571D01*
X133776413Y-100536571D02*
X133704984Y-100608000D01*
X133776413Y-100679428D01*
X133847841Y-100608000D01*
X133776413Y-100536571D01*
X133776413Y-100679428D01*
X134490698Y-101036571D02*
X134490698Y-102036571D01*
X134490698Y-101179428D02*
X134562127Y-101108000D01*
X134704984Y-101036571D01*
X134919270Y-101036571D01*
X135062127Y-101108000D01*
X135133556Y-101250857D01*
X135133556Y-102036571D01*
X136919270Y-100465142D02*
X135633556Y-102393714D01*
X137419270Y-102036571D02*
X137419270Y-100536571D01*
X137562127Y-101465142D02*
X137990698Y-102036571D01*
X137990698Y-101036571D02*
X137419270Y-101608000D01*
X139204984Y-101965142D02*
X139062127Y-102036571D01*
X138776413Y-102036571D01*
X138633556Y-101965142D01*
X138562127Y-101822285D01*
X138562127Y-101250857D01*
X138633556Y-101108000D01*
X138776413Y-101036571D01*
X139062127Y-101036571D01*
X139204984Y-101108000D01*
X139276413Y-101250857D01*
X139276413Y-101393714D01*
X138562127Y-101536571D01*
X139776413Y-101036571D02*
X140133556Y-102036571D01*
X140490698Y-101036571D01*
X141062127Y-102036571D02*
X141062127Y-101036571D01*
X141062127Y-100536571D02*
X140990698Y-100608000D01*
X141062127Y-100679428D01*
X141133556Y-100608000D01*
X141062127Y-100536571D01*
X141062127Y-100679428D01*
X141776413Y-101036571D02*
X141776413Y-102036571D01*
X141776413Y-101179428D02*
X141847841Y-101108000D01*
X141990698Y-101036571D01*
X142204984Y-101036571D01*
X142347841Y-101108000D01*
X142419270Y-101250857D01*
X142419270Y-102036571D01*
X143133556Y-101465142D02*
X144276413Y-101465142D01*
X145204984Y-102036571D02*
X145062127Y-101965142D01*
X144990698Y-101822285D01*
X144990698Y-100536571D01*
X146419270Y-101036571D02*
X146419270Y-102036571D01*
X145776413Y-101036571D02*
X145776413Y-101822285D01*
X145847841Y-101965142D01*
X145990698Y-102036571D01*
X146204984Y-102036571D01*
X146347841Y-101965142D01*
X146419270Y-101893714D01*
X146919270Y-101036571D02*
X147490698Y-101036571D01*
X147133556Y-100536571D02*
X147133556Y-101822285D01*
X147204984Y-101965142D01*
X147347841Y-102036571D01*
X147490698Y-102036571D01*
X147847841Y-101036571D02*
X148633556Y-101036571D01*
X147847841Y-102036571D01*
X148633556Y-102036571D01*
X149776413Y-101965142D02*
X149633556Y-102036571D01*
X149347841Y-102036571D01*
X149204984Y-101965142D01*
X149133556Y-101822285D01*
X149133556Y-101250857D01*
X149204984Y-101108000D01*
X149347841Y-101036571D01*
X149633556Y-101036571D01*
X149776413Y-101108000D01*
X149847841Y-101250857D01*
X149847841Y-101393714D01*
X149133556Y-101536571D01*
X150490698Y-102036571D02*
X150490698Y-101036571D01*
X150490698Y-101322285D02*
X150562127Y-101179428D01*
X150633556Y-101108000D01*
X150776413Y-101036571D01*
X150919270Y-101036571D01*
D12*
X190008578Y-101290000D02*
X189491422Y-101290000D01*
X190008578Y-102710000D02*
X189491422Y-102710000D01*
X185008578Y-101290000D02*
X184491422Y-101290000D01*
X185008578Y-102710000D02*
X184491422Y-102710000D01*
X180008578Y-101290000D02*
X179491422Y-101290000D01*
X180008578Y-102710000D02*
X179491422Y-102710000D01*
X175008578Y-101290000D02*
X174491422Y-101290000D01*
X175008578Y-102710000D02*
X174491422Y-102710000D01*
X170008578Y-101290000D02*
X169491422Y-101290000D01*
X170008578Y-102710000D02*
X169491422Y-102710000D01*
X165008578Y-101290000D02*
X164491422Y-101290000D01*
X165008578Y-102710000D02*
X164491422Y-102710000D01*
X160008578Y-101290000D02*
X159491422Y-101290000D01*
X160008578Y-102710000D02*
X159491422Y-102710000D01*
X155008578Y-101290000D02*
X154491422Y-101290000D01*
X155008578Y-102710000D02*
X154491422Y-102710000D01*
X190008578Y-111290000D02*
X189491422Y-111290000D01*
X190008578Y-112710000D02*
X189491422Y-112710000D01*
X185008578Y-111290000D02*
X184491422Y-111290000D01*
X185008578Y-112710000D02*
X184491422Y-112710000D01*
X180008578Y-111290000D02*
X179491422Y-111290000D01*
X180008578Y-112710000D02*
X179491422Y-112710000D01*
X175008578Y-111290000D02*
X174491422Y-111290000D01*
X175008578Y-112710000D02*
X174491422Y-112710000D01*
X170008578Y-111290000D02*
X169491422Y-111290000D01*
X170008578Y-112710000D02*
X169491422Y-112710000D01*
X165008578Y-111290000D02*
X164491422Y-111290000D01*
X165008578Y-112710000D02*
X164491422Y-112710000D01*
X160008578Y-111290000D02*
X159491422Y-111290000D01*
X160008578Y-112710000D02*
X159491422Y-112710000D01*
X155008578Y-111290000D02*
X154491422Y-111290000D01*
X155008578Y-112710000D02*
X154491422Y-112710000D01*
X190008578Y-106290000D02*
X189491422Y-106290000D01*
X190008578Y-107710000D02*
X189491422Y-107710000D01*
X185008578Y-106290000D02*
X184491422Y-106290000D01*
X185008578Y-107710000D02*
X184491422Y-107710000D01*
X180008578Y-106290000D02*
X179491422Y-106290000D01*
X180008578Y-107710000D02*
X179491422Y-107710000D01*
X175008578Y-106290000D02*
X174491422Y-106290000D01*
X175008578Y-107710000D02*
X174491422Y-107710000D01*
X170008578Y-106290000D02*
X169491422Y-106290000D01*
X170008578Y-107710000D02*
X169491422Y-107710000D01*
X165008578Y-106290000D02*
X164491422Y-106290000D01*
X165008578Y-107710000D02*
X164491422Y-107710000D01*
X160008578Y-106290000D02*
X159491422Y-106290000D01*
X160008578Y-107710000D02*
X159491422Y-107710000D01*
X155008578Y-106290000D02*
X154491422Y-106290000D01*
X155008578Y-107710000D02*
X154491422Y-107710000D01*
X190008578Y-96290000D02*
X189491422Y-96290000D01*
X190008578Y-97710000D02*
X189491422Y-97710000D01*
X185008578Y-96290000D02*
X184491422Y-96290000D01*
X185008578Y-97710000D02*
X184491422Y-97710000D01*
X180008578Y-96290000D02*
X179491422Y-96290000D01*
X180008578Y-97710000D02*
X179491422Y-97710000D01*
X175008578Y-96290000D02*
X174491422Y-96290000D01*
X175008578Y-97710000D02*
X174491422Y-97710000D01*
X170008578Y-96290000D02*
X169491422Y-96290000D01*
X170008578Y-97710000D02*
X169491422Y-97710000D01*
X165008578Y-96290000D02*
X164491422Y-96290000D01*
X165008578Y-97710000D02*
X164491422Y-97710000D01*
X160008578Y-96290000D02*
X159491422Y-96290000D01*
X160008578Y-97710000D02*
X159491422Y-97710000D01*
X155008578Y-96290000D02*
X154491422Y-96290000D01*
X155008578Y-97710000D02*
X154491422Y-97710000D01*
X190008578Y-91290000D02*
X189491422Y-91290000D01*
X190008578Y-92710000D02*
X189491422Y-92710000D01*
X185008578Y-91290000D02*
X184491422Y-91290000D01*
X185008578Y-92710000D02*
X184491422Y-92710000D01*
X180008578Y-91290000D02*
X179491422Y-91290000D01*
X180008578Y-92710000D02*
X179491422Y-92710000D01*
X175008578Y-91290000D02*
X174491422Y-91290000D01*
X175008578Y-92710000D02*
X174491422Y-92710000D01*
X170008578Y-91290000D02*
X169491422Y-91290000D01*
X170008578Y-92710000D02*
X169491422Y-92710000D01*
X165008578Y-91290000D02*
X164491422Y-91290000D01*
X165008578Y-92710000D02*
X164491422Y-92710000D01*
X160008578Y-91290000D02*
X159491422Y-91290000D01*
X160008578Y-92710000D02*
X159491422Y-92710000D01*
X155008578Y-91290000D02*
X154491422Y-91290000D01*
X155008578Y-92710000D02*
X154491422Y-92710000D01*
X190008578Y-86290000D02*
X189491422Y-86290000D01*
X190008578Y-87710000D02*
X189491422Y-87710000D01*
X185008578Y-86290000D02*
X184491422Y-86290000D01*
X185008578Y-87710000D02*
X184491422Y-87710000D01*
X180008578Y-86290000D02*
X179491422Y-86290000D01*
X180008578Y-87710000D02*
X179491422Y-87710000D01*
X175008578Y-86290000D02*
X174491422Y-86290000D01*
X175008578Y-87710000D02*
X174491422Y-87710000D01*
X170008578Y-86290000D02*
X169491422Y-86290000D01*
X170008578Y-87710000D02*
X169491422Y-87710000D01*
X165008578Y-86290000D02*
X164491422Y-86290000D01*
X165008578Y-87710000D02*
X164491422Y-87710000D01*
X160008578Y-86290000D02*
X159491422Y-86290000D01*
X160008578Y-87710000D02*
X159491422Y-87710000D01*
X155008578Y-86290000D02*
X154491422Y-86290000D01*
X155008578Y-87710000D02*
X154491422Y-87710000D01*
X190008578Y-81290000D02*
X189491422Y-81290000D01*
X190008578Y-82710000D02*
X189491422Y-82710000D01*
X185008578Y-81290000D02*
X184491422Y-81290000D01*
X185008578Y-82710000D02*
X184491422Y-82710000D01*
X180008578Y-81290000D02*
X179491422Y-81290000D01*
X180008578Y-82710000D02*
X179491422Y-82710000D01*
X175008578Y-81290000D02*
X174491422Y-81290000D01*
X175008578Y-82710000D02*
X174491422Y-82710000D01*
X170008578Y-81290000D02*
X169491422Y-81290000D01*
X170008578Y-82710000D02*
X169491422Y-82710000D01*
X165008578Y-81290000D02*
X164491422Y-81290000D01*
X165008578Y-82710000D02*
X164491422Y-82710000D01*
X160008578Y-81290000D02*
X159491422Y-81290000D01*
X160008578Y-82710000D02*
X159491422Y-82710000D01*
X155008578Y-81290000D02*
X154491422Y-81290000D01*
X155008578Y-82710000D02*
X154491422Y-82710000D01*
X149192779Y-117965000D02*
X148867221Y-117965000D01*
X149192779Y-118985000D02*
X148867221Y-118985000D01*
X149450000Y-112880000D02*
X148450000Y-112880000D01*
X149450000Y-117120000D02*
X148450000Y-117120000D01*
X139762500Y-115000500D02*
X139762500Y-118600500D01*
X139762500Y-115000500D02*
X139762500Y-112800500D01*
X146532500Y-115000500D02*
X146532500Y-117200500D01*
X146532500Y-115000500D02*
X146532500Y-112800500D01*
X144000000Y-121550000D02*
X144000000Y-121450000D01*
X148400000Y-119950000D02*
X144000000Y-119950000D01*
X144000000Y-123050000D02*
X148400000Y-123050000D01*
X148400000Y-121550000D02*
X148400000Y-121450000D01*
X141497221Y-110260000D02*
X141822779Y-110260000D01*
X141497221Y-109240000D02*
X141822779Y-109240000D01*
X133010000Y-112762779D02*
X133010000Y-112437221D01*
X131990000Y-112762779D02*
X131990000Y-112437221D01*
X129790000Y-112762779D02*
X129790000Y-112437221D01*
X130810000Y-112762779D02*
X130810000Y-112437221D01*
X132300000Y-115005000D02*
X129850000Y-115005000D01*
X130500000Y-118225000D02*
X132300000Y-118225000D01*
M02*
