G04 #@! TF.GenerationSoftware,KiCad,Pcbnew,(5.1.5-0-10_14)*
G04 #@! TF.CreationDate,2020-08-05T22:15:24-06:00*
G04 #@! TF.ProjectId,business_card_v4,62757369-6e65-4737-935f-636172645f76,rev?*
G04 #@! TF.SameCoordinates,Original*
G04 #@! TF.FileFunction,Soldermask,Top*
G04 #@! TF.FilePolarity,Negative*
%FSLAX46Y46*%
G04 Gerber Fmt 4.6, Leading zero omitted, Abs format (unit mm)*
G04 Created by KiCad (PCBNEW (5.1.5-0-10_14)) date 2020-08-05 22:15:24*
%MOMM*%
%LPD*%
G04 APERTURE LIST*
%ADD10C,0.100000*%
G04 APERTURE END LIST*
D10*
G36*
X117627397Y-123037275D02*
G01*
X112180412Y-128484260D01*
X110976067Y-127279915D01*
X116423052Y-121832930D01*
X117627397Y-123037275D01*
G37*
G36*
X115682854Y-121092731D02*
G01*
X110942975Y-125832610D01*
X110092184Y-124981819D01*
X114832063Y-120241940D01*
X115682854Y-121092731D01*
G37*
G36*
X114268640Y-119678517D02*
G01*
X109528761Y-124418396D01*
X108677970Y-123567605D01*
X113417849Y-118827726D01*
X114268640Y-119678517D01*
G37*
G36*
X112677650Y-118087528D02*
G01*
X107230665Y-123534513D01*
X106026320Y-122330168D01*
X111473305Y-116883183D01*
X112677650Y-118087528D01*
G37*
G36*
X148751000Y-122851000D02*
G01*
X147749000Y-122851000D01*
X147749000Y-121749000D01*
X148751000Y-121749000D01*
X148751000Y-122851000D01*
G37*
G36*
X144651000Y-122851000D02*
G01*
X143649000Y-122851000D01*
X143649000Y-121749000D01*
X144651000Y-121749000D01*
X144651000Y-122851000D01*
G37*
G36*
X136763512Y-120113927D02*
G01*
X136912812Y-120143624D01*
X137076784Y-120211544D01*
X137224354Y-120310147D01*
X137349853Y-120435646D01*
X137448456Y-120583216D01*
X137516376Y-120747188D01*
X137551000Y-120921259D01*
X137551000Y-121098741D01*
X137516376Y-121272812D01*
X137448456Y-121436784D01*
X137349853Y-121584354D01*
X137224354Y-121709853D01*
X137076784Y-121808456D01*
X136912812Y-121876376D01*
X136763512Y-121906073D01*
X136738742Y-121911000D01*
X136561258Y-121911000D01*
X136536488Y-121906073D01*
X136387188Y-121876376D01*
X136223216Y-121808456D01*
X136075646Y-121709853D01*
X135950147Y-121584354D01*
X135851544Y-121436784D01*
X135783624Y-121272812D01*
X135749000Y-121098741D01*
X135749000Y-120921259D01*
X135783624Y-120747188D01*
X135851544Y-120583216D01*
X135950147Y-120435646D01*
X136075646Y-120310147D01*
X136223216Y-120211544D01*
X136387188Y-120143624D01*
X136536488Y-120113927D01*
X136561258Y-120109000D01*
X136738742Y-120109000D01*
X136763512Y-120113927D01*
G37*
G36*
X148751000Y-121251000D02*
G01*
X147749000Y-121251000D01*
X147749000Y-120149000D01*
X148751000Y-120149000D01*
X148751000Y-121251000D01*
G37*
G36*
X144651000Y-121251000D02*
G01*
X143649000Y-121251000D01*
X143649000Y-120149000D01*
X144651000Y-120149000D01*
X144651000Y-121251000D01*
G37*
G36*
X136763512Y-117573927D02*
G01*
X136912812Y-117603624D01*
X137076784Y-117671544D01*
X137224354Y-117770147D01*
X137349853Y-117895646D01*
X137448456Y-118043216D01*
X137516376Y-118207188D01*
X137551000Y-118381259D01*
X137551000Y-118558741D01*
X137516376Y-118732812D01*
X137448456Y-118896784D01*
X137349853Y-119044354D01*
X137224354Y-119169853D01*
X137076784Y-119268456D01*
X136912812Y-119336376D01*
X136763512Y-119366073D01*
X136738742Y-119371000D01*
X136561258Y-119371000D01*
X136536488Y-119366073D01*
X136387188Y-119336376D01*
X136223216Y-119268456D01*
X136075646Y-119169853D01*
X135950147Y-119044354D01*
X135851544Y-118896784D01*
X135783624Y-118732812D01*
X135749000Y-118558741D01*
X135749000Y-118381259D01*
X135783624Y-118207188D01*
X135851544Y-118043216D01*
X135950147Y-117895646D01*
X136075646Y-117770147D01*
X136223216Y-117671544D01*
X136387188Y-117603624D01*
X136536488Y-117573927D01*
X136561258Y-117569000D01*
X136738742Y-117569000D01*
X136763512Y-117573927D01*
G37*
G36*
X150159591Y-117953085D02*
G01*
X150193569Y-117963393D01*
X150224890Y-117980134D01*
X150252339Y-118002661D01*
X150274866Y-118030110D01*
X150291607Y-118061431D01*
X150301915Y-118095409D01*
X150306000Y-118136890D01*
X150306000Y-118813110D01*
X150301915Y-118854591D01*
X150291607Y-118888569D01*
X150274866Y-118919890D01*
X150252339Y-118947339D01*
X150224890Y-118969866D01*
X150193569Y-118986607D01*
X150159591Y-118996915D01*
X150118110Y-119001000D01*
X149516890Y-119001000D01*
X149475409Y-118996915D01*
X149441431Y-118986607D01*
X149410110Y-118969866D01*
X149382661Y-118947339D01*
X149360134Y-118919890D01*
X149343393Y-118888569D01*
X149333085Y-118854591D01*
X149329000Y-118813110D01*
X149329000Y-118136890D01*
X149333085Y-118095409D01*
X149343393Y-118061431D01*
X149360134Y-118030110D01*
X149382661Y-118002661D01*
X149410110Y-117980134D01*
X149441431Y-117963393D01*
X149475409Y-117953085D01*
X149516890Y-117949000D01*
X150118110Y-117949000D01*
X150159591Y-117953085D01*
G37*
G36*
X148584591Y-117953085D02*
G01*
X148618569Y-117963393D01*
X148649890Y-117980134D01*
X148677339Y-118002661D01*
X148699866Y-118030110D01*
X148716607Y-118061431D01*
X148726915Y-118095409D01*
X148731000Y-118136890D01*
X148731000Y-118813110D01*
X148726915Y-118854591D01*
X148716607Y-118888569D01*
X148699866Y-118919890D01*
X148677339Y-118947339D01*
X148649890Y-118969866D01*
X148618569Y-118986607D01*
X148584591Y-118996915D01*
X148543110Y-119001000D01*
X147941890Y-119001000D01*
X147900409Y-118996915D01*
X147866431Y-118986607D01*
X147835110Y-118969866D01*
X147807661Y-118947339D01*
X147785134Y-118919890D01*
X147768393Y-118888569D01*
X147758085Y-118854591D01*
X147754000Y-118813110D01*
X147754000Y-118136890D01*
X147758085Y-118095409D01*
X147768393Y-118061431D01*
X147785134Y-118030110D01*
X147807661Y-118002661D01*
X147835110Y-117980134D01*
X147866431Y-117963393D01*
X147900409Y-117953085D01*
X147941890Y-117949000D01*
X148543110Y-117949000D01*
X148584591Y-117953085D01*
G37*
G36*
X140422670Y-117076303D02*
G01*
X140434375Y-117079854D01*
X140445165Y-117085621D01*
X140459188Y-117097130D01*
X140468204Y-117106145D01*
X140488578Y-117119759D01*
X140511217Y-117129135D01*
X140535251Y-117133915D01*
X140559755Y-117133915D01*
X140583788Y-117129134D01*
X140606426Y-117119756D01*
X140626801Y-117106142D01*
X140635817Y-117097126D01*
X140649835Y-117085621D01*
X140660625Y-117079854D01*
X140672330Y-117076303D01*
X140690638Y-117074500D01*
X141054362Y-117074500D01*
X141072670Y-117076303D01*
X141084375Y-117079854D01*
X141095165Y-117085621D01*
X141109188Y-117097130D01*
X141118204Y-117106145D01*
X141138578Y-117119759D01*
X141161217Y-117129135D01*
X141185251Y-117133915D01*
X141209755Y-117133915D01*
X141233788Y-117129134D01*
X141256426Y-117119756D01*
X141276801Y-117106142D01*
X141285817Y-117097126D01*
X141299835Y-117085621D01*
X141310625Y-117079854D01*
X141322330Y-117076303D01*
X141340638Y-117074500D01*
X141704362Y-117074500D01*
X141722670Y-117076303D01*
X141734375Y-117079854D01*
X141745165Y-117085621D01*
X141759188Y-117097130D01*
X141768204Y-117106145D01*
X141788578Y-117119759D01*
X141811217Y-117129135D01*
X141835251Y-117133915D01*
X141859755Y-117133915D01*
X141883788Y-117129134D01*
X141906426Y-117119756D01*
X141926801Y-117106142D01*
X141935817Y-117097126D01*
X141949835Y-117085621D01*
X141960625Y-117079854D01*
X141972330Y-117076303D01*
X141990638Y-117074500D01*
X142354362Y-117074500D01*
X142372670Y-117076303D01*
X142384375Y-117079854D01*
X142395165Y-117085621D01*
X142409188Y-117097130D01*
X142418204Y-117106145D01*
X142438578Y-117119759D01*
X142461217Y-117129135D01*
X142485251Y-117133915D01*
X142509755Y-117133915D01*
X142533788Y-117129134D01*
X142556426Y-117119756D01*
X142576801Y-117106142D01*
X142585817Y-117097126D01*
X142599835Y-117085621D01*
X142610625Y-117079854D01*
X142622330Y-117076303D01*
X142640638Y-117074500D01*
X143004362Y-117074500D01*
X143022670Y-117076303D01*
X143034375Y-117079854D01*
X143045165Y-117085621D01*
X143059188Y-117097130D01*
X143068204Y-117106145D01*
X143088578Y-117119759D01*
X143111217Y-117129135D01*
X143135251Y-117133915D01*
X143159755Y-117133915D01*
X143183788Y-117129134D01*
X143206426Y-117119756D01*
X143226801Y-117106142D01*
X143235817Y-117097126D01*
X143249835Y-117085621D01*
X143260625Y-117079854D01*
X143272330Y-117076303D01*
X143290638Y-117074500D01*
X143654362Y-117074500D01*
X143672670Y-117076303D01*
X143684375Y-117079854D01*
X143695165Y-117085621D01*
X143709188Y-117097130D01*
X143718204Y-117106145D01*
X143738578Y-117119759D01*
X143761217Y-117129135D01*
X143785251Y-117133915D01*
X143809755Y-117133915D01*
X143833788Y-117129134D01*
X143856426Y-117119756D01*
X143876801Y-117106142D01*
X143885817Y-117097126D01*
X143899835Y-117085621D01*
X143910625Y-117079854D01*
X143922330Y-117076303D01*
X143940638Y-117074500D01*
X144304362Y-117074500D01*
X144322670Y-117076303D01*
X144334375Y-117079854D01*
X144345165Y-117085621D01*
X144359188Y-117097130D01*
X144368204Y-117106145D01*
X144388578Y-117119759D01*
X144411217Y-117129135D01*
X144435251Y-117133915D01*
X144459755Y-117133915D01*
X144483788Y-117129134D01*
X144506426Y-117119756D01*
X144526801Y-117106142D01*
X144535817Y-117097126D01*
X144549835Y-117085621D01*
X144560625Y-117079854D01*
X144572330Y-117076303D01*
X144590638Y-117074500D01*
X144954362Y-117074500D01*
X144972670Y-117076303D01*
X144984375Y-117079854D01*
X144995165Y-117085621D01*
X145009188Y-117097130D01*
X145018204Y-117106145D01*
X145038578Y-117119759D01*
X145061217Y-117129135D01*
X145085251Y-117133915D01*
X145109755Y-117133915D01*
X145133788Y-117129134D01*
X145156426Y-117119756D01*
X145176801Y-117106142D01*
X145185817Y-117097126D01*
X145199835Y-117085621D01*
X145210625Y-117079854D01*
X145222330Y-117076303D01*
X145240638Y-117074500D01*
X145604362Y-117074500D01*
X145622670Y-117076303D01*
X145634375Y-117079854D01*
X145645165Y-117085621D01*
X145659188Y-117097130D01*
X145668204Y-117106145D01*
X145688578Y-117119759D01*
X145711217Y-117129135D01*
X145735251Y-117133915D01*
X145759755Y-117133915D01*
X145783788Y-117129134D01*
X145806426Y-117119756D01*
X145826801Y-117106142D01*
X145835817Y-117097126D01*
X145849835Y-117085621D01*
X145860625Y-117079854D01*
X145872330Y-117076303D01*
X145890638Y-117074500D01*
X146254362Y-117074500D01*
X146272670Y-117076303D01*
X146284375Y-117079854D01*
X146295165Y-117085621D01*
X146304619Y-117093381D01*
X146312379Y-117102835D01*
X146318146Y-117113625D01*
X146321697Y-117125330D01*
X146323500Y-117143638D01*
X146323500Y-118582362D01*
X146321697Y-118600670D01*
X146318146Y-118612375D01*
X146312379Y-118623165D01*
X146304619Y-118632619D01*
X146295165Y-118640379D01*
X146284375Y-118646146D01*
X146272670Y-118649697D01*
X146254362Y-118651500D01*
X145890638Y-118651500D01*
X145872330Y-118649697D01*
X145860625Y-118646146D01*
X145849835Y-118640379D01*
X145835812Y-118628870D01*
X145826796Y-118619855D01*
X145806422Y-118606241D01*
X145783783Y-118596865D01*
X145759749Y-118592085D01*
X145735245Y-118592085D01*
X145711212Y-118596866D01*
X145688574Y-118606244D01*
X145668199Y-118619858D01*
X145659183Y-118628874D01*
X145645165Y-118640379D01*
X145634375Y-118646146D01*
X145622670Y-118649697D01*
X145604362Y-118651500D01*
X145240638Y-118651500D01*
X145222330Y-118649697D01*
X145210625Y-118646146D01*
X145199835Y-118640379D01*
X145185812Y-118628870D01*
X145176796Y-118619855D01*
X145156422Y-118606241D01*
X145133783Y-118596865D01*
X145109749Y-118592085D01*
X145085245Y-118592085D01*
X145061212Y-118596866D01*
X145038574Y-118606244D01*
X145018199Y-118619858D01*
X145009183Y-118628874D01*
X144995165Y-118640379D01*
X144984375Y-118646146D01*
X144972670Y-118649697D01*
X144954362Y-118651500D01*
X144590638Y-118651500D01*
X144572330Y-118649697D01*
X144560625Y-118646146D01*
X144549835Y-118640379D01*
X144535812Y-118628870D01*
X144526796Y-118619855D01*
X144506422Y-118606241D01*
X144483783Y-118596865D01*
X144459749Y-118592085D01*
X144435245Y-118592085D01*
X144411212Y-118596866D01*
X144388574Y-118606244D01*
X144368199Y-118619858D01*
X144359183Y-118628874D01*
X144345165Y-118640379D01*
X144334375Y-118646146D01*
X144322670Y-118649697D01*
X144304362Y-118651500D01*
X143940638Y-118651500D01*
X143922330Y-118649697D01*
X143910625Y-118646146D01*
X143899835Y-118640379D01*
X143885812Y-118628870D01*
X143876796Y-118619855D01*
X143856422Y-118606241D01*
X143833783Y-118596865D01*
X143809749Y-118592085D01*
X143785245Y-118592085D01*
X143761212Y-118596866D01*
X143738574Y-118606244D01*
X143718199Y-118619858D01*
X143709183Y-118628874D01*
X143695165Y-118640379D01*
X143684375Y-118646146D01*
X143672670Y-118649697D01*
X143654362Y-118651500D01*
X143290638Y-118651500D01*
X143272330Y-118649697D01*
X143260625Y-118646146D01*
X143249835Y-118640379D01*
X143235812Y-118628870D01*
X143226796Y-118619855D01*
X143206422Y-118606241D01*
X143183783Y-118596865D01*
X143159749Y-118592085D01*
X143135245Y-118592085D01*
X143111212Y-118596866D01*
X143088574Y-118606244D01*
X143068199Y-118619858D01*
X143059183Y-118628874D01*
X143045165Y-118640379D01*
X143034375Y-118646146D01*
X143022670Y-118649697D01*
X143004362Y-118651500D01*
X142640638Y-118651500D01*
X142622330Y-118649697D01*
X142610625Y-118646146D01*
X142599835Y-118640379D01*
X142585812Y-118628870D01*
X142576796Y-118619855D01*
X142556422Y-118606241D01*
X142533783Y-118596865D01*
X142509749Y-118592085D01*
X142485245Y-118592085D01*
X142461212Y-118596866D01*
X142438574Y-118606244D01*
X142418199Y-118619858D01*
X142409183Y-118628874D01*
X142395165Y-118640379D01*
X142384375Y-118646146D01*
X142372670Y-118649697D01*
X142354362Y-118651500D01*
X141990638Y-118651500D01*
X141972330Y-118649697D01*
X141960625Y-118646146D01*
X141949835Y-118640379D01*
X141935812Y-118628870D01*
X141926796Y-118619855D01*
X141906422Y-118606241D01*
X141883783Y-118596865D01*
X141859749Y-118592085D01*
X141835245Y-118592085D01*
X141811212Y-118596866D01*
X141788574Y-118606244D01*
X141768199Y-118619858D01*
X141759183Y-118628874D01*
X141745165Y-118640379D01*
X141734375Y-118646146D01*
X141722670Y-118649697D01*
X141704362Y-118651500D01*
X141340638Y-118651500D01*
X141322330Y-118649697D01*
X141310625Y-118646146D01*
X141299835Y-118640379D01*
X141285812Y-118628870D01*
X141276796Y-118619855D01*
X141256422Y-118606241D01*
X141233783Y-118596865D01*
X141209749Y-118592085D01*
X141185245Y-118592085D01*
X141161212Y-118596866D01*
X141138574Y-118606244D01*
X141118199Y-118619858D01*
X141109183Y-118628874D01*
X141095165Y-118640379D01*
X141084375Y-118646146D01*
X141072670Y-118649697D01*
X141054362Y-118651500D01*
X140690638Y-118651500D01*
X140672330Y-118649697D01*
X140660625Y-118646146D01*
X140649835Y-118640379D01*
X140635812Y-118628870D01*
X140626796Y-118619855D01*
X140606422Y-118606241D01*
X140583783Y-118596865D01*
X140559749Y-118592085D01*
X140535245Y-118592085D01*
X140511212Y-118596866D01*
X140488574Y-118606244D01*
X140468199Y-118619858D01*
X140459183Y-118628874D01*
X140445165Y-118640379D01*
X140434375Y-118646146D01*
X140422670Y-118649697D01*
X140404362Y-118651500D01*
X140040638Y-118651500D01*
X140022330Y-118649697D01*
X140010625Y-118646146D01*
X139999835Y-118640379D01*
X139990381Y-118632619D01*
X139982621Y-118623165D01*
X139976854Y-118612375D01*
X139973303Y-118600670D01*
X139971500Y-118582362D01*
X139971500Y-117143638D01*
X139973303Y-117125330D01*
X139976854Y-117113625D01*
X139982621Y-117102835D01*
X139990381Y-117093381D01*
X139999835Y-117085621D01*
X140010625Y-117079854D01*
X140022330Y-117076303D01*
X140040638Y-117074500D01*
X140404362Y-117074500D01*
X140422670Y-117076303D01*
G37*
G36*
X133081000Y-117941000D02*
G01*
X131919000Y-117941000D01*
X131919000Y-117189000D01*
X133081000Y-117189000D01*
X133081000Y-117941000D01*
G37*
G36*
X130881000Y-117941000D02*
G01*
X129719000Y-117941000D01*
X129719000Y-115289000D01*
X130881000Y-115289000D01*
X130881000Y-117941000D01*
G37*
G36*
X150301000Y-116951000D02*
G01*
X149399000Y-116951000D01*
X149399000Y-113049000D01*
X150301000Y-113049000D01*
X150301000Y-116951000D01*
G37*
G36*
X148501000Y-116951000D02*
G01*
X147599000Y-116951000D01*
X147599000Y-113049000D01*
X148501000Y-113049000D01*
X148501000Y-116951000D01*
G37*
G36*
X136763512Y-115033927D02*
G01*
X136912812Y-115063624D01*
X137076784Y-115131544D01*
X137224354Y-115230147D01*
X137349853Y-115355646D01*
X137448456Y-115503216D01*
X137516376Y-115667188D01*
X137551000Y-115841259D01*
X137551000Y-116018741D01*
X137516376Y-116192812D01*
X137448456Y-116356784D01*
X137349853Y-116504354D01*
X137224354Y-116629853D01*
X137076784Y-116728456D01*
X136912812Y-116796376D01*
X136763512Y-116826073D01*
X136738742Y-116831000D01*
X136561258Y-116831000D01*
X136536488Y-116826073D01*
X136387188Y-116796376D01*
X136223216Y-116728456D01*
X136075646Y-116629853D01*
X135950147Y-116504354D01*
X135851544Y-116356784D01*
X135783624Y-116192812D01*
X135749000Y-116018741D01*
X135749000Y-115841259D01*
X135783624Y-115667188D01*
X135851544Y-115503216D01*
X135950147Y-115355646D01*
X136075646Y-115230147D01*
X136223216Y-115131544D01*
X136387188Y-115063624D01*
X136536488Y-115033927D01*
X136561258Y-115029000D01*
X136738742Y-115029000D01*
X136763512Y-115033927D01*
G37*
G36*
X133081000Y-116041000D02*
G01*
X131919000Y-116041000D01*
X131919000Y-115289000D01*
X133081000Y-115289000D01*
X133081000Y-116041000D01*
G37*
G36*
X136763512Y-112493927D02*
G01*
X136912812Y-112523624D01*
X137076784Y-112591544D01*
X137224354Y-112690147D01*
X137349853Y-112815646D01*
X137448456Y-112963216D01*
X137516376Y-113127188D01*
X137551000Y-113301259D01*
X137551000Y-113478741D01*
X137516376Y-113652812D01*
X137448456Y-113816784D01*
X137349853Y-113964354D01*
X137224354Y-114089853D01*
X137076784Y-114188456D01*
X136912812Y-114256376D01*
X136763512Y-114286073D01*
X136738742Y-114291000D01*
X136561258Y-114291000D01*
X136536488Y-114286073D01*
X136387188Y-114256376D01*
X136223216Y-114188456D01*
X136075646Y-114089853D01*
X135950147Y-113964354D01*
X135851544Y-113816784D01*
X135783624Y-113652812D01*
X135749000Y-113478741D01*
X135749000Y-113301259D01*
X135783624Y-113127188D01*
X135851544Y-112963216D01*
X135950147Y-112815646D01*
X136075646Y-112690147D01*
X136223216Y-112591544D01*
X136387188Y-112523624D01*
X136536488Y-112493927D01*
X136561258Y-112489000D01*
X136738742Y-112489000D01*
X136763512Y-112493927D01*
G37*
G36*
X130679591Y-112903085D02*
G01*
X130713569Y-112913393D01*
X130744890Y-112930134D01*
X130772339Y-112952661D01*
X130794866Y-112980110D01*
X130811607Y-113011431D01*
X130821915Y-113045409D01*
X130826000Y-113086890D01*
X130826000Y-113688110D01*
X130821915Y-113729591D01*
X130811607Y-113763569D01*
X130794866Y-113794890D01*
X130772339Y-113822339D01*
X130744890Y-113844866D01*
X130713569Y-113861607D01*
X130679591Y-113871915D01*
X130638110Y-113876000D01*
X129961890Y-113876000D01*
X129920409Y-113871915D01*
X129886431Y-113861607D01*
X129855110Y-113844866D01*
X129827661Y-113822339D01*
X129805134Y-113794890D01*
X129788393Y-113763569D01*
X129778085Y-113729591D01*
X129774000Y-113688110D01*
X129774000Y-113086890D01*
X129778085Y-113045409D01*
X129788393Y-113011431D01*
X129805134Y-112980110D01*
X129827661Y-112952661D01*
X129855110Y-112930134D01*
X129886431Y-112913393D01*
X129920409Y-112903085D01*
X129961890Y-112899000D01*
X130638110Y-112899000D01*
X130679591Y-112903085D01*
G37*
G36*
X132879591Y-112903085D02*
G01*
X132913569Y-112913393D01*
X132944890Y-112930134D01*
X132972339Y-112952661D01*
X132994866Y-112980110D01*
X133011607Y-113011431D01*
X133021915Y-113045409D01*
X133026000Y-113086890D01*
X133026000Y-113688110D01*
X133021915Y-113729591D01*
X133011607Y-113763569D01*
X132994866Y-113794890D01*
X132972339Y-113822339D01*
X132944890Y-113844866D01*
X132913569Y-113861607D01*
X132879591Y-113871915D01*
X132838110Y-113876000D01*
X132161890Y-113876000D01*
X132120409Y-113871915D01*
X132086431Y-113861607D01*
X132055110Y-113844866D01*
X132027661Y-113822339D01*
X132005134Y-113794890D01*
X131988393Y-113763569D01*
X131978085Y-113729591D01*
X131974000Y-113688110D01*
X131974000Y-113086890D01*
X131978085Y-113045409D01*
X131988393Y-113011431D01*
X132005134Y-112980110D01*
X132027661Y-112952661D01*
X132055110Y-112930134D01*
X132086431Y-112913393D01*
X132120409Y-112903085D01*
X132161890Y-112899000D01*
X132838110Y-112899000D01*
X132879591Y-112903085D01*
G37*
G36*
X140422670Y-111351303D02*
G01*
X140434375Y-111354854D01*
X140445165Y-111360621D01*
X140459188Y-111372130D01*
X140468204Y-111381145D01*
X140488578Y-111394759D01*
X140511217Y-111404135D01*
X140535251Y-111408915D01*
X140559755Y-111408915D01*
X140583788Y-111404134D01*
X140606426Y-111394756D01*
X140626801Y-111381142D01*
X140635817Y-111372126D01*
X140649835Y-111360621D01*
X140660625Y-111354854D01*
X140672330Y-111351303D01*
X140690638Y-111349500D01*
X141054362Y-111349500D01*
X141072670Y-111351303D01*
X141084375Y-111354854D01*
X141095165Y-111360621D01*
X141109188Y-111372130D01*
X141118204Y-111381145D01*
X141138578Y-111394759D01*
X141161217Y-111404135D01*
X141185251Y-111408915D01*
X141209755Y-111408915D01*
X141233788Y-111404134D01*
X141256426Y-111394756D01*
X141276801Y-111381142D01*
X141285817Y-111372126D01*
X141299835Y-111360621D01*
X141310625Y-111354854D01*
X141322330Y-111351303D01*
X141340638Y-111349500D01*
X141704362Y-111349500D01*
X141722670Y-111351303D01*
X141734375Y-111354854D01*
X141745165Y-111360621D01*
X141759188Y-111372130D01*
X141768204Y-111381145D01*
X141788578Y-111394759D01*
X141811217Y-111404135D01*
X141835251Y-111408915D01*
X141859755Y-111408915D01*
X141883788Y-111404134D01*
X141906426Y-111394756D01*
X141926801Y-111381142D01*
X141935817Y-111372126D01*
X141949835Y-111360621D01*
X141960625Y-111354854D01*
X141972330Y-111351303D01*
X141990638Y-111349500D01*
X142354362Y-111349500D01*
X142372670Y-111351303D01*
X142384375Y-111354854D01*
X142395165Y-111360621D01*
X142409188Y-111372130D01*
X142418204Y-111381145D01*
X142438578Y-111394759D01*
X142461217Y-111404135D01*
X142485251Y-111408915D01*
X142509755Y-111408915D01*
X142533788Y-111404134D01*
X142556426Y-111394756D01*
X142576801Y-111381142D01*
X142585817Y-111372126D01*
X142599835Y-111360621D01*
X142610625Y-111354854D01*
X142622330Y-111351303D01*
X142640638Y-111349500D01*
X143004362Y-111349500D01*
X143022670Y-111351303D01*
X143034375Y-111354854D01*
X143045165Y-111360621D01*
X143059188Y-111372130D01*
X143068204Y-111381145D01*
X143088578Y-111394759D01*
X143111217Y-111404135D01*
X143135251Y-111408915D01*
X143159755Y-111408915D01*
X143183788Y-111404134D01*
X143206426Y-111394756D01*
X143226801Y-111381142D01*
X143235817Y-111372126D01*
X143249835Y-111360621D01*
X143260625Y-111354854D01*
X143272330Y-111351303D01*
X143290638Y-111349500D01*
X143654362Y-111349500D01*
X143672670Y-111351303D01*
X143684375Y-111354854D01*
X143695165Y-111360621D01*
X143709188Y-111372130D01*
X143718204Y-111381145D01*
X143738578Y-111394759D01*
X143761217Y-111404135D01*
X143785251Y-111408915D01*
X143809755Y-111408915D01*
X143833788Y-111404134D01*
X143856426Y-111394756D01*
X143876801Y-111381142D01*
X143885817Y-111372126D01*
X143899835Y-111360621D01*
X143910625Y-111354854D01*
X143922330Y-111351303D01*
X143940638Y-111349500D01*
X144304362Y-111349500D01*
X144322670Y-111351303D01*
X144334375Y-111354854D01*
X144345165Y-111360621D01*
X144359188Y-111372130D01*
X144368204Y-111381145D01*
X144388578Y-111394759D01*
X144411217Y-111404135D01*
X144435251Y-111408915D01*
X144459755Y-111408915D01*
X144483788Y-111404134D01*
X144506426Y-111394756D01*
X144526801Y-111381142D01*
X144535817Y-111372126D01*
X144549835Y-111360621D01*
X144560625Y-111354854D01*
X144572330Y-111351303D01*
X144590638Y-111349500D01*
X144954362Y-111349500D01*
X144972670Y-111351303D01*
X144984375Y-111354854D01*
X144995165Y-111360621D01*
X145009188Y-111372130D01*
X145018204Y-111381145D01*
X145038578Y-111394759D01*
X145061217Y-111404135D01*
X145085251Y-111408915D01*
X145109755Y-111408915D01*
X145133788Y-111404134D01*
X145156426Y-111394756D01*
X145176801Y-111381142D01*
X145185817Y-111372126D01*
X145199835Y-111360621D01*
X145210625Y-111354854D01*
X145222330Y-111351303D01*
X145240638Y-111349500D01*
X145604362Y-111349500D01*
X145622670Y-111351303D01*
X145634375Y-111354854D01*
X145645165Y-111360621D01*
X145659188Y-111372130D01*
X145668204Y-111381145D01*
X145688578Y-111394759D01*
X145711217Y-111404135D01*
X145735251Y-111408915D01*
X145759755Y-111408915D01*
X145783788Y-111404134D01*
X145806426Y-111394756D01*
X145826801Y-111381142D01*
X145835817Y-111372126D01*
X145849835Y-111360621D01*
X145860625Y-111354854D01*
X145872330Y-111351303D01*
X145890638Y-111349500D01*
X146254362Y-111349500D01*
X146272670Y-111351303D01*
X146284375Y-111354854D01*
X146295165Y-111360621D01*
X146304619Y-111368381D01*
X146312379Y-111377835D01*
X146318146Y-111388625D01*
X146321697Y-111400330D01*
X146323500Y-111418638D01*
X146323500Y-112857362D01*
X146321697Y-112875670D01*
X146318146Y-112887375D01*
X146312379Y-112898165D01*
X146304619Y-112907619D01*
X146295165Y-112915379D01*
X146284375Y-112921146D01*
X146272670Y-112924697D01*
X146254362Y-112926500D01*
X145890638Y-112926500D01*
X145872330Y-112924697D01*
X145860625Y-112921146D01*
X145849835Y-112915379D01*
X145835812Y-112903870D01*
X145826796Y-112894855D01*
X145806422Y-112881241D01*
X145783783Y-112871865D01*
X145759749Y-112867085D01*
X145735245Y-112867085D01*
X145711212Y-112871866D01*
X145688574Y-112881244D01*
X145668199Y-112894858D01*
X145659183Y-112903874D01*
X145645165Y-112915379D01*
X145634375Y-112921146D01*
X145622670Y-112924697D01*
X145604362Y-112926500D01*
X145240638Y-112926500D01*
X145222330Y-112924697D01*
X145210625Y-112921146D01*
X145199835Y-112915379D01*
X145185812Y-112903870D01*
X145176796Y-112894855D01*
X145156422Y-112881241D01*
X145133783Y-112871865D01*
X145109749Y-112867085D01*
X145085245Y-112867085D01*
X145061212Y-112871866D01*
X145038574Y-112881244D01*
X145018199Y-112894858D01*
X145009183Y-112903874D01*
X144995165Y-112915379D01*
X144984375Y-112921146D01*
X144972670Y-112924697D01*
X144954362Y-112926500D01*
X144590638Y-112926500D01*
X144572330Y-112924697D01*
X144560625Y-112921146D01*
X144549835Y-112915379D01*
X144535812Y-112903870D01*
X144526796Y-112894855D01*
X144506422Y-112881241D01*
X144483783Y-112871865D01*
X144459749Y-112867085D01*
X144435245Y-112867085D01*
X144411212Y-112871866D01*
X144388574Y-112881244D01*
X144368199Y-112894858D01*
X144359183Y-112903874D01*
X144345165Y-112915379D01*
X144334375Y-112921146D01*
X144322670Y-112924697D01*
X144304362Y-112926500D01*
X143940638Y-112926500D01*
X143922330Y-112924697D01*
X143910625Y-112921146D01*
X143899835Y-112915379D01*
X143885812Y-112903870D01*
X143876796Y-112894855D01*
X143856422Y-112881241D01*
X143833783Y-112871865D01*
X143809749Y-112867085D01*
X143785245Y-112867085D01*
X143761212Y-112871866D01*
X143738574Y-112881244D01*
X143718199Y-112894858D01*
X143709183Y-112903874D01*
X143695165Y-112915379D01*
X143684375Y-112921146D01*
X143672670Y-112924697D01*
X143654362Y-112926500D01*
X143290638Y-112926500D01*
X143272330Y-112924697D01*
X143260625Y-112921146D01*
X143249835Y-112915379D01*
X143235812Y-112903870D01*
X143226796Y-112894855D01*
X143206422Y-112881241D01*
X143183783Y-112871865D01*
X143159749Y-112867085D01*
X143135245Y-112867085D01*
X143111212Y-112871866D01*
X143088574Y-112881244D01*
X143068199Y-112894858D01*
X143059183Y-112903874D01*
X143045165Y-112915379D01*
X143034375Y-112921146D01*
X143022670Y-112924697D01*
X143004362Y-112926500D01*
X142640638Y-112926500D01*
X142622330Y-112924697D01*
X142610625Y-112921146D01*
X142599835Y-112915379D01*
X142585812Y-112903870D01*
X142576796Y-112894855D01*
X142556422Y-112881241D01*
X142533783Y-112871865D01*
X142509749Y-112867085D01*
X142485245Y-112867085D01*
X142461212Y-112871866D01*
X142438574Y-112881244D01*
X142418199Y-112894858D01*
X142409183Y-112903874D01*
X142395165Y-112915379D01*
X142384375Y-112921146D01*
X142372670Y-112924697D01*
X142354362Y-112926500D01*
X141990638Y-112926500D01*
X141972330Y-112924697D01*
X141960625Y-112921146D01*
X141949835Y-112915379D01*
X141935812Y-112903870D01*
X141926796Y-112894855D01*
X141906422Y-112881241D01*
X141883783Y-112871865D01*
X141859749Y-112867085D01*
X141835245Y-112867085D01*
X141811212Y-112871866D01*
X141788574Y-112881244D01*
X141768199Y-112894858D01*
X141759183Y-112903874D01*
X141745165Y-112915379D01*
X141734375Y-112921146D01*
X141722670Y-112924697D01*
X141704362Y-112926500D01*
X141340638Y-112926500D01*
X141322330Y-112924697D01*
X141310625Y-112921146D01*
X141299835Y-112915379D01*
X141285812Y-112903870D01*
X141276796Y-112894855D01*
X141256422Y-112881241D01*
X141233783Y-112871865D01*
X141209749Y-112867085D01*
X141185245Y-112867085D01*
X141161212Y-112871866D01*
X141138574Y-112881244D01*
X141118199Y-112894858D01*
X141109183Y-112903874D01*
X141095165Y-112915379D01*
X141084375Y-112921146D01*
X141072670Y-112924697D01*
X141054362Y-112926500D01*
X140690638Y-112926500D01*
X140672330Y-112924697D01*
X140660625Y-112921146D01*
X140649835Y-112915379D01*
X140635812Y-112903870D01*
X140626796Y-112894855D01*
X140606422Y-112881241D01*
X140583783Y-112871865D01*
X140559749Y-112867085D01*
X140535245Y-112867085D01*
X140511212Y-112871866D01*
X140488574Y-112881244D01*
X140468199Y-112894858D01*
X140459183Y-112903874D01*
X140445165Y-112915379D01*
X140434375Y-112921146D01*
X140422670Y-112924697D01*
X140404362Y-112926500D01*
X140040638Y-112926500D01*
X140022330Y-112924697D01*
X140010625Y-112921146D01*
X139999835Y-112915379D01*
X139990381Y-112907619D01*
X139982621Y-112898165D01*
X139976854Y-112887375D01*
X139973303Y-112875670D01*
X139971500Y-112857362D01*
X139971500Y-111418638D01*
X139973303Y-111400330D01*
X139976854Y-111388625D01*
X139982621Y-111377835D01*
X139990381Y-111368381D01*
X139999835Y-111360621D01*
X140010625Y-111354854D01*
X140022330Y-111351303D01*
X140040638Y-111349500D01*
X140404362Y-111349500D01*
X140422670Y-111351303D01*
G37*
G36*
X161059468Y-111253565D02*
G01*
X161098138Y-111265296D01*
X161133777Y-111284346D01*
X161165017Y-111309983D01*
X161190654Y-111341223D01*
X161209704Y-111376862D01*
X161221435Y-111415532D01*
X161226000Y-111461888D01*
X161226000Y-112538112D01*
X161221435Y-112584468D01*
X161209704Y-112623138D01*
X161190654Y-112658777D01*
X161165017Y-112690017D01*
X161133777Y-112715654D01*
X161098138Y-112734704D01*
X161059468Y-112746435D01*
X161013112Y-112751000D01*
X160361888Y-112751000D01*
X160315532Y-112746435D01*
X160276862Y-112734704D01*
X160241223Y-112715654D01*
X160209983Y-112690017D01*
X160184346Y-112658777D01*
X160165296Y-112623138D01*
X160153565Y-112584468D01*
X160149000Y-112538112D01*
X160149000Y-111461888D01*
X160153565Y-111415532D01*
X160165296Y-111376862D01*
X160184346Y-111341223D01*
X160209983Y-111309983D01*
X160241223Y-111284346D01*
X160276862Y-111265296D01*
X160315532Y-111253565D01*
X160361888Y-111249000D01*
X161013112Y-111249000D01*
X161059468Y-111253565D01*
G37*
G36*
X191059468Y-111253565D02*
G01*
X191098138Y-111265296D01*
X191133777Y-111284346D01*
X191165017Y-111309983D01*
X191190654Y-111341223D01*
X191209704Y-111376862D01*
X191221435Y-111415532D01*
X191226000Y-111461888D01*
X191226000Y-112538112D01*
X191221435Y-112584468D01*
X191209704Y-112623138D01*
X191190654Y-112658777D01*
X191165017Y-112690017D01*
X191133777Y-112715654D01*
X191098138Y-112734704D01*
X191059468Y-112746435D01*
X191013112Y-112751000D01*
X190361888Y-112751000D01*
X190315532Y-112746435D01*
X190276862Y-112734704D01*
X190241223Y-112715654D01*
X190209983Y-112690017D01*
X190184346Y-112658777D01*
X190165296Y-112623138D01*
X190153565Y-112584468D01*
X190149000Y-112538112D01*
X190149000Y-111461888D01*
X190153565Y-111415532D01*
X190165296Y-111376862D01*
X190184346Y-111341223D01*
X190209983Y-111309983D01*
X190241223Y-111284346D01*
X190276862Y-111265296D01*
X190315532Y-111253565D01*
X190361888Y-111249000D01*
X191013112Y-111249000D01*
X191059468Y-111253565D01*
G37*
G36*
X189184468Y-111253565D02*
G01*
X189223138Y-111265296D01*
X189258777Y-111284346D01*
X189290017Y-111309983D01*
X189315654Y-111341223D01*
X189334704Y-111376862D01*
X189346435Y-111415532D01*
X189351000Y-111461888D01*
X189351000Y-112538112D01*
X189346435Y-112584468D01*
X189334704Y-112623138D01*
X189315654Y-112658777D01*
X189290017Y-112690017D01*
X189258777Y-112715654D01*
X189223138Y-112734704D01*
X189184468Y-112746435D01*
X189138112Y-112751000D01*
X188486888Y-112751000D01*
X188440532Y-112746435D01*
X188401862Y-112734704D01*
X188366223Y-112715654D01*
X188334983Y-112690017D01*
X188309346Y-112658777D01*
X188290296Y-112623138D01*
X188278565Y-112584468D01*
X188274000Y-112538112D01*
X188274000Y-111461888D01*
X188278565Y-111415532D01*
X188290296Y-111376862D01*
X188309346Y-111341223D01*
X188334983Y-111309983D01*
X188366223Y-111284346D01*
X188401862Y-111265296D01*
X188440532Y-111253565D01*
X188486888Y-111249000D01*
X189138112Y-111249000D01*
X189184468Y-111253565D01*
G37*
G36*
X154184468Y-111253565D02*
G01*
X154223138Y-111265296D01*
X154258777Y-111284346D01*
X154290017Y-111309983D01*
X154315654Y-111341223D01*
X154334704Y-111376862D01*
X154346435Y-111415532D01*
X154351000Y-111461888D01*
X154351000Y-112538112D01*
X154346435Y-112584468D01*
X154334704Y-112623138D01*
X154315654Y-112658777D01*
X154290017Y-112690017D01*
X154258777Y-112715654D01*
X154223138Y-112734704D01*
X154184468Y-112746435D01*
X154138112Y-112751000D01*
X153486888Y-112751000D01*
X153440532Y-112746435D01*
X153401862Y-112734704D01*
X153366223Y-112715654D01*
X153334983Y-112690017D01*
X153309346Y-112658777D01*
X153290296Y-112623138D01*
X153278565Y-112584468D01*
X153274000Y-112538112D01*
X153274000Y-111461888D01*
X153278565Y-111415532D01*
X153290296Y-111376862D01*
X153309346Y-111341223D01*
X153334983Y-111309983D01*
X153366223Y-111284346D01*
X153401862Y-111265296D01*
X153440532Y-111253565D01*
X153486888Y-111249000D01*
X154138112Y-111249000D01*
X154184468Y-111253565D01*
G37*
G36*
X156059468Y-111253565D02*
G01*
X156098138Y-111265296D01*
X156133777Y-111284346D01*
X156165017Y-111309983D01*
X156190654Y-111341223D01*
X156209704Y-111376862D01*
X156221435Y-111415532D01*
X156226000Y-111461888D01*
X156226000Y-112538112D01*
X156221435Y-112584468D01*
X156209704Y-112623138D01*
X156190654Y-112658777D01*
X156165017Y-112690017D01*
X156133777Y-112715654D01*
X156098138Y-112734704D01*
X156059468Y-112746435D01*
X156013112Y-112751000D01*
X155361888Y-112751000D01*
X155315532Y-112746435D01*
X155276862Y-112734704D01*
X155241223Y-112715654D01*
X155209983Y-112690017D01*
X155184346Y-112658777D01*
X155165296Y-112623138D01*
X155153565Y-112584468D01*
X155149000Y-112538112D01*
X155149000Y-111461888D01*
X155153565Y-111415532D01*
X155165296Y-111376862D01*
X155184346Y-111341223D01*
X155209983Y-111309983D01*
X155241223Y-111284346D01*
X155276862Y-111265296D01*
X155315532Y-111253565D01*
X155361888Y-111249000D01*
X156013112Y-111249000D01*
X156059468Y-111253565D01*
G37*
G36*
X159184468Y-111253565D02*
G01*
X159223138Y-111265296D01*
X159258777Y-111284346D01*
X159290017Y-111309983D01*
X159315654Y-111341223D01*
X159334704Y-111376862D01*
X159346435Y-111415532D01*
X159351000Y-111461888D01*
X159351000Y-112538112D01*
X159346435Y-112584468D01*
X159334704Y-112623138D01*
X159315654Y-112658777D01*
X159290017Y-112690017D01*
X159258777Y-112715654D01*
X159223138Y-112734704D01*
X159184468Y-112746435D01*
X159138112Y-112751000D01*
X158486888Y-112751000D01*
X158440532Y-112746435D01*
X158401862Y-112734704D01*
X158366223Y-112715654D01*
X158334983Y-112690017D01*
X158309346Y-112658777D01*
X158290296Y-112623138D01*
X158278565Y-112584468D01*
X158274000Y-112538112D01*
X158274000Y-111461888D01*
X158278565Y-111415532D01*
X158290296Y-111376862D01*
X158309346Y-111341223D01*
X158334983Y-111309983D01*
X158366223Y-111284346D01*
X158401862Y-111265296D01*
X158440532Y-111253565D01*
X158486888Y-111249000D01*
X159138112Y-111249000D01*
X159184468Y-111253565D01*
G37*
G36*
X164184468Y-111253565D02*
G01*
X164223138Y-111265296D01*
X164258777Y-111284346D01*
X164290017Y-111309983D01*
X164315654Y-111341223D01*
X164334704Y-111376862D01*
X164346435Y-111415532D01*
X164351000Y-111461888D01*
X164351000Y-112538112D01*
X164346435Y-112584468D01*
X164334704Y-112623138D01*
X164315654Y-112658777D01*
X164290017Y-112690017D01*
X164258777Y-112715654D01*
X164223138Y-112734704D01*
X164184468Y-112746435D01*
X164138112Y-112751000D01*
X163486888Y-112751000D01*
X163440532Y-112746435D01*
X163401862Y-112734704D01*
X163366223Y-112715654D01*
X163334983Y-112690017D01*
X163309346Y-112658777D01*
X163290296Y-112623138D01*
X163278565Y-112584468D01*
X163274000Y-112538112D01*
X163274000Y-111461888D01*
X163278565Y-111415532D01*
X163290296Y-111376862D01*
X163309346Y-111341223D01*
X163334983Y-111309983D01*
X163366223Y-111284346D01*
X163401862Y-111265296D01*
X163440532Y-111253565D01*
X163486888Y-111249000D01*
X164138112Y-111249000D01*
X164184468Y-111253565D01*
G37*
G36*
X166059468Y-111253565D02*
G01*
X166098138Y-111265296D01*
X166133777Y-111284346D01*
X166165017Y-111309983D01*
X166190654Y-111341223D01*
X166209704Y-111376862D01*
X166221435Y-111415532D01*
X166226000Y-111461888D01*
X166226000Y-112538112D01*
X166221435Y-112584468D01*
X166209704Y-112623138D01*
X166190654Y-112658777D01*
X166165017Y-112690017D01*
X166133777Y-112715654D01*
X166098138Y-112734704D01*
X166059468Y-112746435D01*
X166013112Y-112751000D01*
X165361888Y-112751000D01*
X165315532Y-112746435D01*
X165276862Y-112734704D01*
X165241223Y-112715654D01*
X165209983Y-112690017D01*
X165184346Y-112658777D01*
X165165296Y-112623138D01*
X165153565Y-112584468D01*
X165149000Y-112538112D01*
X165149000Y-111461888D01*
X165153565Y-111415532D01*
X165165296Y-111376862D01*
X165184346Y-111341223D01*
X165209983Y-111309983D01*
X165241223Y-111284346D01*
X165276862Y-111265296D01*
X165315532Y-111253565D01*
X165361888Y-111249000D01*
X166013112Y-111249000D01*
X166059468Y-111253565D01*
G37*
G36*
X169184468Y-111253565D02*
G01*
X169223138Y-111265296D01*
X169258777Y-111284346D01*
X169290017Y-111309983D01*
X169315654Y-111341223D01*
X169334704Y-111376862D01*
X169346435Y-111415532D01*
X169351000Y-111461888D01*
X169351000Y-112538112D01*
X169346435Y-112584468D01*
X169334704Y-112623138D01*
X169315654Y-112658777D01*
X169290017Y-112690017D01*
X169258777Y-112715654D01*
X169223138Y-112734704D01*
X169184468Y-112746435D01*
X169138112Y-112751000D01*
X168486888Y-112751000D01*
X168440532Y-112746435D01*
X168401862Y-112734704D01*
X168366223Y-112715654D01*
X168334983Y-112690017D01*
X168309346Y-112658777D01*
X168290296Y-112623138D01*
X168278565Y-112584468D01*
X168274000Y-112538112D01*
X168274000Y-111461888D01*
X168278565Y-111415532D01*
X168290296Y-111376862D01*
X168309346Y-111341223D01*
X168334983Y-111309983D01*
X168366223Y-111284346D01*
X168401862Y-111265296D01*
X168440532Y-111253565D01*
X168486888Y-111249000D01*
X169138112Y-111249000D01*
X169184468Y-111253565D01*
G37*
G36*
X171059468Y-111253565D02*
G01*
X171098138Y-111265296D01*
X171133777Y-111284346D01*
X171165017Y-111309983D01*
X171190654Y-111341223D01*
X171209704Y-111376862D01*
X171221435Y-111415532D01*
X171226000Y-111461888D01*
X171226000Y-112538112D01*
X171221435Y-112584468D01*
X171209704Y-112623138D01*
X171190654Y-112658777D01*
X171165017Y-112690017D01*
X171133777Y-112715654D01*
X171098138Y-112734704D01*
X171059468Y-112746435D01*
X171013112Y-112751000D01*
X170361888Y-112751000D01*
X170315532Y-112746435D01*
X170276862Y-112734704D01*
X170241223Y-112715654D01*
X170209983Y-112690017D01*
X170184346Y-112658777D01*
X170165296Y-112623138D01*
X170153565Y-112584468D01*
X170149000Y-112538112D01*
X170149000Y-111461888D01*
X170153565Y-111415532D01*
X170165296Y-111376862D01*
X170184346Y-111341223D01*
X170209983Y-111309983D01*
X170241223Y-111284346D01*
X170276862Y-111265296D01*
X170315532Y-111253565D01*
X170361888Y-111249000D01*
X171013112Y-111249000D01*
X171059468Y-111253565D01*
G37*
G36*
X174184468Y-111253565D02*
G01*
X174223138Y-111265296D01*
X174258777Y-111284346D01*
X174290017Y-111309983D01*
X174315654Y-111341223D01*
X174334704Y-111376862D01*
X174346435Y-111415532D01*
X174351000Y-111461888D01*
X174351000Y-112538112D01*
X174346435Y-112584468D01*
X174334704Y-112623138D01*
X174315654Y-112658777D01*
X174290017Y-112690017D01*
X174258777Y-112715654D01*
X174223138Y-112734704D01*
X174184468Y-112746435D01*
X174138112Y-112751000D01*
X173486888Y-112751000D01*
X173440532Y-112746435D01*
X173401862Y-112734704D01*
X173366223Y-112715654D01*
X173334983Y-112690017D01*
X173309346Y-112658777D01*
X173290296Y-112623138D01*
X173278565Y-112584468D01*
X173274000Y-112538112D01*
X173274000Y-111461888D01*
X173278565Y-111415532D01*
X173290296Y-111376862D01*
X173309346Y-111341223D01*
X173334983Y-111309983D01*
X173366223Y-111284346D01*
X173401862Y-111265296D01*
X173440532Y-111253565D01*
X173486888Y-111249000D01*
X174138112Y-111249000D01*
X174184468Y-111253565D01*
G37*
G36*
X176059468Y-111253565D02*
G01*
X176098138Y-111265296D01*
X176133777Y-111284346D01*
X176165017Y-111309983D01*
X176190654Y-111341223D01*
X176209704Y-111376862D01*
X176221435Y-111415532D01*
X176226000Y-111461888D01*
X176226000Y-112538112D01*
X176221435Y-112584468D01*
X176209704Y-112623138D01*
X176190654Y-112658777D01*
X176165017Y-112690017D01*
X176133777Y-112715654D01*
X176098138Y-112734704D01*
X176059468Y-112746435D01*
X176013112Y-112751000D01*
X175361888Y-112751000D01*
X175315532Y-112746435D01*
X175276862Y-112734704D01*
X175241223Y-112715654D01*
X175209983Y-112690017D01*
X175184346Y-112658777D01*
X175165296Y-112623138D01*
X175153565Y-112584468D01*
X175149000Y-112538112D01*
X175149000Y-111461888D01*
X175153565Y-111415532D01*
X175165296Y-111376862D01*
X175184346Y-111341223D01*
X175209983Y-111309983D01*
X175241223Y-111284346D01*
X175276862Y-111265296D01*
X175315532Y-111253565D01*
X175361888Y-111249000D01*
X176013112Y-111249000D01*
X176059468Y-111253565D01*
G37*
G36*
X179184468Y-111253565D02*
G01*
X179223138Y-111265296D01*
X179258777Y-111284346D01*
X179290017Y-111309983D01*
X179315654Y-111341223D01*
X179334704Y-111376862D01*
X179346435Y-111415532D01*
X179351000Y-111461888D01*
X179351000Y-112538112D01*
X179346435Y-112584468D01*
X179334704Y-112623138D01*
X179315654Y-112658777D01*
X179290017Y-112690017D01*
X179258777Y-112715654D01*
X179223138Y-112734704D01*
X179184468Y-112746435D01*
X179138112Y-112751000D01*
X178486888Y-112751000D01*
X178440532Y-112746435D01*
X178401862Y-112734704D01*
X178366223Y-112715654D01*
X178334983Y-112690017D01*
X178309346Y-112658777D01*
X178290296Y-112623138D01*
X178278565Y-112584468D01*
X178274000Y-112538112D01*
X178274000Y-111461888D01*
X178278565Y-111415532D01*
X178290296Y-111376862D01*
X178309346Y-111341223D01*
X178334983Y-111309983D01*
X178366223Y-111284346D01*
X178401862Y-111265296D01*
X178440532Y-111253565D01*
X178486888Y-111249000D01*
X179138112Y-111249000D01*
X179184468Y-111253565D01*
G37*
G36*
X181059468Y-111253565D02*
G01*
X181098138Y-111265296D01*
X181133777Y-111284346D01*
X181165017Y-111309983D01*
X181190654Y-111341223D01*
X181209704Y-111376862D01*
X181221435Y-111415532D01*
X181226000Y-111461888D01*
X181226000Y-112538112D01*
X181221435Y-112584468D01*
X181209704Y-112623138D01*
X181190654Y-112658777D01*
X181165017Y-112690017D01*
X181133777Y-112715654D01*
X181098138Y-112734704D01*
X181059468Y-112746435D01*
X181013112Y-112751000D01*
X180361888Y-112751000D01*
X180315532Y-112746435D01*
X180276862Y-112734704D01*
X180241223Y-112715654D01*
X180209983Y-112690017D01*
X180184346Y-112658777D01*
X180165296Y-112623138D01*
X180153565Y-112584468D01*
X180149000Y-112538112D01*
X180149000Y-111461888D01*
X180153565Y-111415532D01*
X180165296Y-111376862D01*
X180184346Y-111341223D01*
X180209983Y-111309983D01*
X180241223Y-111284346D01*
X180276862Y-111265296D01*
X180315532Y-111253565D01*
X180361888Y-111249000D01*
X181013112Y-111249000D01*
X181059468Y-111253565D01*
G37*
G36*
X184184468Y-111253565D02*
G01*
X184223138Y-111265296D01*
X184258777Y-111284346D01*
X184290017Y-111309983D01*
X184315654Y-111341223D01*
X184334704Y-111376862D01*
X184346435Y-111415532D01*
X184351000Y-111461888D01*
X184351000Y-112538112D01*
X184346435Y-112584468D01*
X184334704Y-112623138D01*
X184315654Y-112658777D01*
X184290017Y-112690017D01*
X184258777Y-112715654D01*
X184223138Y-112734704D01*
X184184468Y-112746435D01*
X184138112Y-112751000D01*
X183486888Y-112751000D01*
X183440532Y-112746435D01*
X183401862Y-112734704D01*
X183366223Y-112715654D01*
X183334983Y-112690017D01*
X183309346Y-112658777D01*
X183290296Y-112623138D01*
X183278565Y-112584468D01*
X183274000Y-112538112D01*
X183274000Y-111461888D01*
X183278565Y-111415532D01*
X183290296Y-111376862D01*
X183309346Y-111341223D01*
X183334983Y-111309983D01*
X183366223Y-111284346D01*
X183401862Y-111265296D01*
X183440532Y-111253565D01*
X183486888Y-111249000D01*
X184138112Y-111249000D01*
X184184468Y-111253565D01*
G37*
G36*
X186059468Y-111253565D02*
G01*
X186098138Y-111265296D01*
X186133777Y-111284346D01*
X186165017Y-111309983D01*
X186190654Y-111341223D01*
X186209704Y-111376862D01*
X186221435Y-111415532D01*
X186226000Y-111461888D01*
X186226000Y-112538112D01*
X186221435Y-112584468D01*
X186209704Y-112623138D01*
X186190654Y-112658777D01*
X186165017Y-112690017D01*
X186133777Y-112715654D01*
X186098138Y-112734704D01*
X186059468Y-112746435D01*
X186013112Y-112751000D01*
X185361888Y-112751000D01*
X185315532Y-112746435D01*
X185276862Y-112734704D01*
X185241223Y-112715654D01*
X185209983Y-112690017D01*
X185184346Y-112658777D01*
X185165296Y-112623138D01*
X185153565Y-112584468D01*
X185149000Y-112538112D01*
X185149000Y-111461888D01*
X185153565Y-111415532D01*
X185165296Y-111376862D01*
X185184346Y-111341223D01*
X185209983Y-111309983D01*
X185241223Y-111284346D01*
X185276862Y-111265296D01*
X185315532Y-111253565D01*
X185361888Y-111249000D01*
X186013112Y-111249000D01*
X186059468Y-111253565D01*
G37*
G36*
X130679591Y-111328085D02*
G01*
X130713569Y-111338393D01*
X130744890Y-111355134D01*
X130772339Y-111377661D01*
X130794866Y-111405110D01*
X130811607Y-111436431D01*
X130821915Y-111470409D01*
X130826000Y-111511890D01*
X130826000Y-112113110D01*
X130821915Y-112154591D01*
X130811607Y-112188569D01*
X130794866Y-112219890D01*
X130772339Y-112247339D01*
X130744890Y-112269866D01*
X130713569Y-112286607D01*
X130679591Y-112296915D01*
X130638110Y-112301000D01*
X129961890Y-112301000D01*
X129920409Y-112296915D01*
X129886431Y-112286607D01*
X129855110Y-112269866D01*
X129827661Y-112247339D01*
X129805134Y-112219890D01*
X129788393Y-112188569D01*
X129778085Y-112154591D01*
X129774000Y-112113110D01*
X129774000Y-111511890D01*
X129778085Y-111470409D01*
X129788393Y-111436431D01*
X129805134Y-111405110D01*
X129827661Y-111377661D01*
X129855110Y-111355134D01*
X129886431Y-111338393D01*
X129920409Y-111328085D01*
X129961890Y-111324000D01*
X130638110Y-111324000D01*
X130679591Y-111328085D01*
G37*
G36*
X132879591Y-111328085D02*
G01*
X132913569Y-111338393D01*
X132944890Y-111355134D01*
X132972339Y-111377661D01*
X132994866Y-111405110D01*
X133011607Y-111436431D01*
X133021915Y-111470409D01*
X133026000Y-111511890D01*
X133026000Y-112113110D01*
X133021915Y-112154591D01*
X133011607Y-112188569D01*
X132994866Y-112219890D01*
X132972339Y-112247339D01*
X132944890Y-112269866D01*
X132913569Y-112286607D01*
X132879591Y-112296915D01*
X132838110Y-112301000D01*
X132161890Y-112301000D01*
X132120409Y-112296915D01*
X132086431Y-112286607D01*
X132055110Y-112269866D01*
X132027661Y-112247339D01*
X132005134Y-112219890D01*
X131988393Y-112188569D01*
X131978085Y-112154591D01*
X131974000Y-112113110D01*
X131974000Y-111511890D01*
X131978085Y-111470409D01*
X131988393Y-111436431D01*
X132005134Y-111405110D01*
X132027661Y-111377661D01*
X132055110Y-111355134D01*
X132086431Y-111338393D01*
X132120409Y-111328085D01*
X132161890Y-111324000D01*
X132838110Y-111324000D01*
X132879591Y-111328085D01*
G37*
G36*
X137551000Y-111751000D02*
G01*
X135749000Y-111751000D01*
X135749000Y-109949000D01*
X137551000Y-109949000D01*
X137551000Y-111751000D01*
G37*
G36*
X127391000Y-111751000D02*
G01*
X125589000Y-111751000D01*
X125589000Y-109949000D01*
X127391000Y-109949000D01*
X127391000Y-111751000D01*
G37*
G36*
X142789591Y-109228085D02*
G01*
X142823569Y-109238393D01*
X142854890Y-109255134D01*
X142882339Y-109277661D01*
X142904866Y-109305110D01*
X142921607Y-109336431D01*
X142931915Y-109370409D01*
X142936000Y-109411890D01*
X142936000Y-110088110D01*
X142931915Y-110129591D01*
X142921607Y-110163569D01*
X142904866Y-110194890D01*
X142882339Y-110222339D01*
X142854890Y-110244866D01*
X142823569Y-110261607D01*
X142789591Y-110271915D01*
X142748110Y-110276000D01*
X142146890Y-110276000D01*
X142105409Y-110271915D01*
X142071431Y-110261607D01*
X142040110Y-110244866D01*
X142012661Y-110222339D01*
X141990134Y-110194890D01*
X141973393Y-110163569D01*
X141963085Y-110129591D01*
X141959000Y-110088110D01*
X141959000Y-109411890D01*
X141963085Y-109370409D01*
X141973393Y-109336431D01*
X141990134Y-109305110D01*
X142012661Y-109277661D01*
X142040110Y-109255134D01*
X142071431Y-109238393D01*
X142105409Y-109228085D01*
X142146890Y-109224000D01*
X142748110Y-109224000D01*
X142789591Y-109228085D01*
G37*
G36*
X141214591Y-109228085D02*
G01*
X141248569Y-109238393D01*
X141279890Y-109255134D01*
X141307339Y-109277661D01*
X141329866Y-109305110D01*
X141346607Y-109336431D01*
X141356915Y-109370409D01*
X141361000Y-109411890D01*
X141361000Y-110088110D01*
X141356915Y-110129591D01*
X141346607Y-110163569D01*
X141329866Y-110194890D01*
X141307339Y-110222339D01*
X141279890Y-110244866D01*
X141248569Y-110261607D01*
X141214591Y-110271915D01*
X141173110Y-110276000D01*
X140571890Y-110276000D01*
X140530409Y-110271915D01*
X140496431Y-110261607D01*
X140465110Y-110244866D01*
X140437661Y-110222339D01*
X140415134Y-110194890D01*
X140398393Y-110163569D01*
X140388085Y-110129591D01*
X140384000Y-110088110D01*
X140384000Y-109411890D01*
X140388085Y-109370409D01*
X140398393Y-109336431D01*
X140415134Y-109305110D01*
X140437661Y-109277661D01*
X140465110Y-109255134D01*
X140496431Y-109238393D01*
X140530409Y-109228085D01*
X140571890Y-109224000D01*
X141173110Y-109224000D01*
X141214591Y-109228085D01*
G37*
G36*
X189184468Y-106253565D02*
G01*
X189223138Y-106265296D01*
X189258777Y-106284346D01*
X189290017Y-106309983D01*
X189315654Y-106341223D01*
X189334704Y-106376862D01*
X189346435Y-106415532D01*
X189351000Y-106461888D01*
X189351000Y-107538112D01*
X189346435Y-107584468D01*
X189334704Y-107623138D01*
X189315654Y-107658777D01*
X189290017Y-107690017D01*
X189258777Y-107715654D01*
X189223138Y-107734704D01*
X189184468Y-107746435D01*
X189138112Y-107751000D01*
X188486888Y-107751000D01*
X188440532Y-107746435D01*
X188401862Y-107734704D01*
X188366223Y-107715654D01*
X188334983Y-107690017D01*
X188309346Y-107658777D01*
X188290296Y-107623138D01*
X188278565Y-107584468D01*
X188274000Y-107538112D01*
X188274000Y-106461888D01*
X188278565Y-106415532D01*
X188290296Y-106376862D01*
X188309346Y-106341223D01*
X188334983Y-106309983D01*
X188366223Y-106284346D01*
X188401862Y-106265296D01*
X188440532Y-106253565D01*
X188486888Y-106249000D01*
X189138112Y-106249000D01*
X189184468Y-106253565D01*
G37*
G36*
X186059468Y-106253565D02*
G01*
X186098138Y-106265296D01*
X186133777Y-106284346D01*
X186165017Y-106309983D01*
X186190654Y-106341223D01*
X186209704Y-106376862D01*
X186221435Y-106415532D01*
X186226000Y-106461888D01*
X186226000Y-107538112D01*
X186221435Y-107584468D01*
X186209704Y-107623138D01*
X186190654Y-107658777D01*
X186165017Y-107690017D01*
X186133777Y-107715654D01*
X186098138Y-107734704D01*
X186059468Y-107746435D01*
X186013112Y-107751000D01*
X185361888Y-107751000D01*
X185315532Y-107746435D01*
X185276862Y-107734704D01*
X185241223Y-107715654D01*
X185209983Y-107690017D01*
X185184346Y-107658777D01*
X185165296Y-107623138D01*
X185153565Y-107584468D01*
X185149000Y-107538112D01*
X185149000Y-106461888D01*
X185153565Y-106415532D01*
X185165296Y-106376862D01*
X185184346Y-106341223D01*
X185209983Y-106309983D01*
X185241223Y-106284346D01*
X185276862Y-106265296D01*
X185315532Y-106253565D01*
X185361888Y-106249000D01*
X186013112Y-106249000D01*
X186059468Y-106253565D01*
G37*
G36*
X184184468Y-106253565D02*
G01*
X184223138Y-106265296D01*
X184258777Y-106284346D01*
X184290017Y-106309983D01*
X184315654Y-106341223D01*
X184334704Y-106376862D01*
X184346435Y-106415532D01*
X184351000Y-106461888D01*
X184351000Y-107538112D01*
X184346435Y-107584468D01*
X184334704Y-107623138D01*
X184315654Y-107658777D01*
X184290017Y-107690017D01*
X184258777Y-107715654D01*
X184223138Y-107734704D01*
X184184468Y-107746435D01*
X184138112Y-107751000D01*
X183486888Y-107751000D01*
X183440532Y-107746435D01*
X183401862Y-107734704D01*
X183366223Y-107715654D01*
X183334983Y-107690017D01*
X183309346Y-107658777D01*
X183290296Y-107623138D01*
X183278565Y-107584468D01*
X183274000Y-107538112D01*
X183274000Y-106461888D01*
X183278565Y-106415532D01*
X183290296Y-106376862D01*
X183309346Y-106341223D01*
X183334983Y-106309983D01*
X183366223Y-106284346D01*
X183401862Y-106265296D01*
X183440532Y-106253565D01*
X183486888Y-106249000D01*
X184138112Y-106249000D01*
X184184468Y-106253565D01*
G37*
G36*
X181059468Y-106253565D02*
G01*
X181098138Y-106265296D01*
X181133777Y-106284346D01*
X181165017Y-106309983D01*
X181190654Y-106341223D01*
X181209704Y-106376862D01*
X181221435Y-106415532D01*
X181226000Y-106461888D01*
X181226000Y-107538112D01*
X181221435Y-107584468D01*
X181209704Y-107623138D01*
X181190654Y-107658777D01*
X181165017Y-107690017D01*
X181133777Y-107715654D01*
X181098138Y-107734704D01*
X181059468Y-107746435D01*
X181013112Y-107751000D01*
X180361888Y-107751000D01*
X180315532Y-107746435D01*
X180276862Y-107734704D01*
X180241223Y-107715654D01*
X180209983Y-107690017D01*
X180184346Y-107658777D01*
X180165296Y-107623138D01*
X180153565Y-107584468D01*
X180149000Y-107538112D01*
X180149000Y-106461888D01*
X180153565Y-106415532D01*
X180165296Y-106376862D01*
X180184346Y-106341223D01*
X180209983Y-106309983D01*
X180241223Y-106284346D01*
X180276862Y-106265296D01*
X180315532Y-106253565D01*
X180361888Y-106249000D01*
X181013112Y-106249000D01*
X181059468Y-106253565D01*
G37*
G36*
X179184468Y-106253565D02*
G01*
X179223138Y-106265296D01*
X179258777Y-106284346D01*
X179290017Y-106309983D01*
X179315654Y-106341223D01*
X179334704Y-106376862D01*
X179346435Y-106415532D01*
X179351000Y-106461888D01*
X179351000Y-107538112D01*
X179346435Y-107584468D01*
X179334704Y-107623138D01*
X179315654Y-107658777D01*
X179290017Y-107690017D01*
X179258777Y-107715654D01*
X179223138Y-107734704D01*
X179184468Y-107746435D01*
X179138112Y-107751000D01*
X178486888Y-107751000D01*
X178440532Y-107746435D01*
X178401862Y-107734704D01*
X178366223Y-107715654D01*
X178334983Y-107690017D01*
X178309346Y-107658777D01*
X178290296Y-107623138D01*
X178278565Y-107584468D01*
X178274000Y-107538112D01*
X178274000Y-106461888D01*
X178278565Y-106415532D01*
X178290296Y-106376862D01*
X178309346Y-106341223D01*
X178334983Y-106309983D01*
X178366223Y-106284346D01*
X178401862Y-106265296D01*
X178440532Y-106253565D01*
X178486888Y-106249000D01*
X179138112Y-106249000D01*
X179184468Y-106253565D01*
G37*
G36*
X176059468Y-106253565D02*
G01*
X176098138Y-106265296D01*
X176133777Y-106284346D01*
X176165017Y-106309983D01*
X176190654Y-106341223D01*
X176209704Y-106376862D01*
X176221435Y-106415532D01*
X176226000Y-106461888D01*
X176226000Y-107538112D01*
X176221435Y-107584468D01*
X176209704Y-107623138D01*
X176190654Y-107658777D01*
X176165017Y-107690017D01*
X176133777Y-107715654D01*
X176098138Y-107734704D01*
X176059468Y-107746435D01*
X176013112Y-107751000D01*
X175361888Y-107751000D01*
X175315532Y-107746435D01*
X175276862Y-107734704D01*
X175241223Y-107715654D01*
X175209983Y-107690017D01*
X175184346Y-107658777D01*
X175165296Y-107623138D01*
X175153565Y-107584468D01*
X175149000Y-107538112D01*
X175149000Y-106461888D01*
X175153565Y-106415532D01*
X175165296Y-106376862D01*
X175184346Y-106341223D01*
X175209983Y-106309983D01*
X175241223Y-106284346D01*
X175276862Y-106265296D01*
X175315532Y-106253565D01*
X175361888Y-106249000D01*
X176013112Y-106249000D01*
X176059468Y-106253565D01*
G37*
G36*
X174184468Y-106253565D02*
G01*
X174223138Y-106265296D01*
X174258777Y-106284346D01*
X174290017Y-106309983D01*
X174315654Y-106341223D01*
X174334704Y-106376862D01*
X174346435Y-106415532D01*
X174351000Y-106461888D01*
X174351000Y-107538112D01*
X174346435Y-107584468D01*
X174334704Y-107623138D01*
X174315654Y-107658777D01*
X174290017Y-107690017D01*
X174258777Y-107715654D01*
X174223138Y-107734704D01*
X174184468Y-107746435D01*
X174138112Y-107751000D01*
X173486888Y-107751000D01*
X173440532Y-107746435D01*
X173401862Y-107734704D01*
X173366223Y-107715654D01*
X173334983Y-107690017D01*
X173309346Y-107658777D01*
X173290296Y-107623138D01*
X173278565Y-107584468D01*
X173274000Y-107538112D01*
X173274000Y-106461888D01*
X173278565Y-106415532D01*
X173290296Y-106376862D01*
X173309346Y-106341223D01*
X173334983Y-106309983D01*
X173366223Y-106284346D01*
X173401862Y-106265296D01*
X173440532Y-106253565D01*
X173486888Y-106249000D01*
X174138112Y-106249000D01*
X174184468Y-106253565D01*
G37*
G36*
X171059468Y-106253565D02*
G01*
X171098138Y-106265296D01*
X171133777Y-106284346D01*
X171165017Y-106309983D01*
X171190654Y-106341223D01*
X171209704Y-106376862D01*
X171221435Y-106415532D01*
X171226000Y-106461888D01*
X171226000Y-107538112D01*
X171221435Y-107584468D01*
X171209704Y-107623138D01*
X171190654Y-107658777D01*
X171165017Y-107690017D01*
X171133777Y-107715654D01*
X171098138Y-107734704D01*
X171059468Y-107746435D01*
X171013112Y-107751000D01*
X170361888Y-107751000D01*
X170315532Y-107746435D01*
X170276862Y-107734704D01*
X170241223Y-107715654D01*
X170209983Y-107690017D01*
X170184346Y-107658777D01*
X170165296Y-107623138D01*
X170153565Y-107584468D01*
X170149000Y-107538112D01*
X170149000Y-106461888D01*
X170153565Y-106415532D01*
X170165296Y-106376862D01*
X170184346Y-106341223D01*
X170209983Y-106309983D01*
X170241223Y-106284346D01*
X170276862Y-106265296D01*
X170315532Y-106253565D01*
X170361888Y-106249000D01*
X171013112Y-106249000D01*
X171059468Y-106253565D01*
G37*
G36*
X169184468Y-106253565D02*
G01*
X169223138Y-106265296D01*
X169258777Y-106284346D01*
X169290017Y-106309983D01*
X169315654Y-106341223D01*
X169334704Y-106376862D01*
X169346435Y-106415532D01*
X169351000Y-106461888D01*
X169351000Y-107538112D01*
X169346435Y-107584468D01*
X169334704Y-107623138D01*
X169315654Y-107658777D01*
X169290017Y-107690017D01*
X169258777Y-107715654D01*
X169223138Y-107734704D01*
X169184468Y-107746435D01*
X169138112Y-107751000D01*
X168486888Y-107751000D01*
X168440532Y-107746435D01*
X168401862Y-107734704D01*
X168366223Y-107715654D01*
X168334983Y-107690017D01*
X168309346Y-107658777D01*
X168290296Y-107623138D01*
X168278565Y-107584468D01*
X168274000Y-107538112D01*
X168274000Y-106461888D01*
X168278565Y-106415532D01*
X168290296Y-106376862D01*
X168309346Y-106341223D01*
X168334983Y-106309983D01*
X168366223Y-106284346D01*
X168401862Y-106265296D01*
X168440532Y-106253565D01*
X168486888Y-106249000D01*
X169138112Y-106249000D01*
X169184468Y-106253565D01*
G37*
G36*
X166059468Y-106253565D02*
G01*
X166098138Y-106265296D01*
X166133777Y-106284346D01*
X166165017Y-106309983D01*
X166190654Y-106341223D01*
X166209704Y-106376862D01*
X166221435Y-106415532D01*
X166226000Y-106461888D01*
X166226000Y-107538112D01*
X166221435Y-107584468D01*
X166209704Y-107623138D01*
X166190654Y-107658777D01*
X166165017Y-107690017D01*
X166133777Y-107715654D01*
X166098138Y-107734704D01*
X166059468Y-107746435D01*
X166013112Y-107751000D01*
X165361888Y-107751000D01*
X165315532Y-107746435D01*
X165276862Y-107734704D01*
X165241223Y-107715654D01*
X165209983Y-107690017D01*
X165184346Y-107658777D01*
X165165296Y-107623138D01*
X165153565Y-107584468D01*
X165149000Y-107538112D01*
X165149000Y-106461888D01*
X165153565Y-106415532D01*
X165165296Y-106376862D01*
X165184346Y-106341223D01*
X165209983Y-106309983D01*
X165241223Y-106284346D01*
X165276862Y-106265296D01*
X165315532Y-106253565D01*
X165361888Y-106249000D01*
X166013112Y-106249000D01*
X166059468Y-106253565D01*
G37*
G36*
X164184468Y-106253565D02*
G01*
X164223138Y-106265296D01*
X164258777Y-106284346D01*
X164290017Y-106309983D01*
X164315654Y-106341223D01*
X164334704Y-106376862D01*
X164346435Y-106415532D01*
X164351000Y-106461888D01*
X164351000Y-107538112D01*
X164346435Y-107584468D01*
X164334704Y-107623138D01*
X164315654Y-107658777D01*
X164290017Y-107690017D01*
X164258777Y-107715654D01*
X164223138Y-107734704D01*
X164184468Y-107746435D01*
X164138112Y-107751000D01*
X163486888Y-107751000D01*
X163440532Y-107746435D01*
X163401862Y-107734704D01*
X163366223Y-107715654D01*
X163334983Y-107690017D01*
X163309346Y-107658777D01*
X163290296Y-107623138D01*
X163278565Y-107584468D01*
X163274000Y-107538112D01*
X163274000Y-106461888D01*
X163278565Y-106415532D01*
X163290296Y-106376862D01*
X163309346Y-106341223D01*
X163334983Y-106309983D01*
X163366223Y-106284346D01*
X163401862Y-106265296D01*
X163440532Y-106253565D01*
X163486888Y-106249000D01*
X164138112Y-106249000D01*
X164184468Y-106253565D01*
G37*
G36*
X161059468Y-106253565D02*
G01*
X161098138Y-106265296D01*
X161133777Y-106284346D01*
X161165017Y-106309983D01*
X161190654Y-106341223D01*
X161209704Y-106376862D01*
X161221435Y-106415532D01*
X161226000Y-106461888D01*
X161226000Y-107538112D01*
X161221435Y-107584468D01*
X161209704Y-107623138D01*
X161190654Y-107658777D01*
X161165017Y-107690017D01*
X161133777Y-107715654D01*
X161098138Y-107734704D01*
X161059468Y-107746435D01*
X161013112Y-107751000D01*
X160361888Y-107751000D01*
X160315532Y-107746435D01*
X160276862Y-107734704D01*
X160241223Y-107715654D01*
X160209983Y-107690017D01*
X160184346Y-107658777D01*
X160165296Y-107623138D01*
X160153565Y-107584468D01*
X160149000Y-107538112D01*
X160149000Y-106461888D01*
X160153565Y-106415532D01*
X160165296Y-106376862D01*
X160184346Y-106341223D01*
X160209983Y-106309983D01*
X160241223Y-106284346D01*
X160276862Y-106265296D01*
X160315532Y-106253565D01*
X160361888Y-106249000D01*
X161013112Y-106249000D01*
X161059468Y-106253565D01*
G37*
G36*
X159184468Y-106253565D02*
G01*
X159223138Y-106265296D01*
X159258777Y-106284346D01*
X159290017Y-106309983D01*
X159315654Y-106341223D01*
X159334704Y-106376862D01*
X159346435Y-106415532D01*
X159351000Y-106461888D01*
X159351000Y-107538112D01*
X159346435Y-107584468D01*
X159334704Y-107623138D01*
X159315654Y-107658777D01*
X159290017Y-107690017D01*
X159258777Y-107715654D01*
X159223138Y-107734704D01*
X159184468Y-107746435D01*
X159138112Y-107751000D01*
X158486888Y-107751000D01*
X158440532Y-107746435D01*
X158401862Y-107734704D01*
X158366223Y-107715654D01*
X158334983Y-107690017D01*
X158309346Y-107658777D01*
X158290296Y-107623138D01*
X158278565Y-107584468D01*
X158274000Y-107538112D01*
X158274000Y-106461888D01*
X158278565Y-106415532D01*
X158290296Y-106376862D01*
X158309346Y-106341223D01*
X158334983Y-106309983D01*
X158366223Y-106284346D01*
X158401862Y-106265296D01*
X158440532Y-106253565D01*
X158486888Y-106249000D01*
X159138112Y-106249000D01*
X159184468Y-106253565D01*
G37*
G36*
X156059468Y-106253565D02*
G01*
X156098138Y-106265296D01*
X156133777Y-106284346D01*
X156165017Y-106309983D01*
X156190654Y-106341223D01*
X156209704Y-106376862D01*
X156221435Y-106415532D01*
X156226000Y-106461888D01*
X156226000Y-107538112D01*
X156221435Y-107584468D01*
X156209704Y-107623138D01*
X156190654Y-107658777D01*
X156165017Y-107690017D01*
X156133777Y-107715654D01*
X156098138Y-107734704D01*
X156059468Y-107746435D01*
X156013112Y-107751000D01*
X155361888Y-107751000D01*
X155315532Y-107746435D01*
X155276862Y-107734704D01*
X155241223Y-107715654D01*
X155209983Y-107690017D01*
X155184346Y-107658777D01*
X155165296Y-107623138D01*
X155153565Y-107584468D01*
X155149000Y-107538112D01*
X155149000Y-106461888D01*
X155153565Y-106415532D01*
X155165296Y-106376862D01*
X155184346Y-106341223D01*
X155209983Y-106309983D01*
X155241223Y-106284346D01*
X155276862Y-106265296D01*
X155315532Y-106253565D01*
X155361888Y-106249000D01*
X156013112Y-106249000D01*
X156059468Y-106253565D01*
G37*
G36*
X154184468Y-106253565D02*
G01*
X154223138Y-106265296D01*
X154258777Y-106284346D01*
X154290017Y-106309983D01*
X154315654Y-106341223D01*
X154334704Y-106376862D01*
X154346435Y-106415532D01*
X154351000Y-106461888D01*
X154351000Y-107538112D01*
X154346435Y-107584468D01*
X154334704Y-107623138D01*
X154315654Y-107658777D01*
X154290017Y-107690017D01*
X154258777Y-107715654D01*
X154223138Y-107734704D01*
X154184468Y-107746435D01*
X154138112Y-107751000D01*
X153486888Y-107751000D01*
X153440532Y-107746435D01*
X153401862Y-107734704D01*
X153366223Y-107715654D01*
X153334983Y-107690017D01*
X153309346Y-107658777D01*
X153290296Y-107623138D01*
X153278565Y-107584468D01*
X153274000Y-107538112D01*
X153274000Y-106461888D01*
X153278565Y-106415532D01*
X153290296Y-106376862D01*
X153309346Y-106341223D01*
X153334983Y-106309983D01*
X153366223Y-106284346D01*
X153401862Y-106265296D01*
X153440532Y-106253565D01*
X153486888Y-106249000D01*
X154138112Y-106249000D01*
X154184468Y-106253565D01*
G37*
G36*
X191059468Y-106253565D02*
G01*
X191098138Y-106265296D01*
X191133777Y-106284346D01*
X191165017Y-106309983D01*
X191190654Y-106341223D01*
X191209704Y-106376862D01*
X191221435Y-106415532D01*
X191226000Y-106461888D01*
X191226000Y-107538112D01*
X191221435Y-107584468D01*
X191209704Y-107623138D01*
X191190654Y-107658777D01*
X191165017Y-107690017D01*
X191133777Y-107715654D01*
X191098138Y-107734704D01*
X191059468Y-107746435D01*
X191013112Y-107751000D01*
X190361888Y-107751000D01*
X190315532Y-107746435D01*
X190276862Y-107734704D01*
X190241223Y-107715654D01*
X190209983Y-107690017D01*
X190184346Y-107658777D01*
X190165296Y-107623138D01*
X190153565Y-107584468D01*
X190149000Y-107538112D01*
X190149000Y-106461888D01*
X190153565Y-106415532D01*
X190165296Y-106376862D01*
X190184346Y-106341223D01*
X190209983Y-106309983D01*
X190241223Y-106284346D01*
X190276862Y-106265296D01*
X190315532Y-106253565D01*
X190361888Y-106249000D01*
X191013112Y-106249000D01*
X191059468Y-106253565D01*
G37*
G36*
X166059468Y-101253565D02*
G01*
X166098138Y-101265296D01*
X166133777Y-101284346D01*
X166165017Y-101309983D01*
X166190654Y-101341223D01*
X166209704Y-101376862D01*
X166221435Y-101415532D01*
X166226000Y-101461888D01*
X166226000Y-102538112D01*
X166221435Y-102584468D01*
X166209704Y-102623138D01*
X166190654Y-102658777D01*
X166165017Y-102690017D01*
X166133777Y-102715654D01*
X166098138Y-102734704D01*
X166059468Y-102746435D01*
X166013112Y-102751000D01*
X165361888Y-102751000D01*
X165315532Y-102746435D01*
X165276862Y-102734704D01*
X165241223Y-102715654D01*
X165209983Y-102690017D01*
X165184346Y-102658777D01*
X165165296Y-102623138D01*
X165153565Y-102584468D01*
X165149000Y-102538112D01*
X165149000Y-101461888D01*
X165153565Y-101415532D01*
X165165296Y-101376862D01*
X165184346Y-101341223D01*
X165209983Y-101309983D01*
X165241223Y-101284346D01*
X165276862Y-101265296D01*
X165315532Y-101253565D01*
X165361888Y-101249000D01*
X166013112Y-101249000D01*
X166059468Y-101253565D01*
G37*
G36*
X159184468Y-101253565D02*
G01*
X159223138Y-101265296D01*
X159258777Y-101284346D01*
X159290017Y-101309983D01*
X159315654Y-101341223D01*
X159334704Y-101376862D01*
X159346435Y-101415532D01*
X159351000Y-101461888D01*
X159351000Y-102538112D01*
X159346435Y-102584468D01*
X159334704Y-102623138D01*
X159315654Y-102658777D01*
X159290017Y-102690017D01*
X159258777Y-102715654D01*
X159223138Y-102734704D01*
X159184468Y-102746435D01*
X159138112Y-102751000D01*
X158486888Y-102751000D01*
X158440532Y-102746435D01*
X158401862Y-102734704D01*
X158366223Y-102715654D01*
X158334983Y-102690017D01*
X158309346Y-102658777D01*
X158290296Y-102623138D01*
X158278565Y-102584468D01*
X158274000Y-102538112D01*
X158274000Y-101461888D01*
X158278565Y-101415532D01*
X158290296Y-101376862D01*
X158309346Y-101341223D01*
X158334983Y-101309983D01*
X158366223Y-101284346D01*
X158401862Y-101265296D01*
X158440532Y-101253565D01*
X158486888Y-101249000D01*
X159138112Y-101249000D01*
X159184468Y-101253565D01*
G37*
G36*
X161059468Y-101253565D02*
G01*
X161098138Y-101265296D01*
X161133777Y-101284346D01*
X161165017Y-101309983D01*
X161190654Y-101341223D01*
X161209704Y-101376862D01*
X161221435Y-101415532D01*
X161226000Y-101461888D01*
X161226000Y-102538112D01*
X161221435Y-102584468D01*
X161209704Y-102623138D01*
X161190654Y-102658777D01*
X161165017Y-102690017D01*
X161133777Y-102715654D01*
X161098138Y-102734704D01*
X161059468Y-102746435D01*
X161013112Y-102751000D01*
X160361888Y-102751000D01*
X160315532Y-102746435D01*
X160276862Y-102734704D01*
X160241223Y-102715654D01*
X160209983Y-102690017D01*
X160184346Y-102658777D01*
X160165296Y-102623138D01*
X160153565Y-102584468D01*
X160149000Y-102538112D01*
X160149000Y-101461888D01*
X160153565Y-101415532D01*
X160165296Y-101376862D01*
X160184346Y-101341223D01*
X160209983Y-101309983D01*
X160241223Y-101284346D01*
X160276862Y-101265296D01*
X160315532Y-101253565D01*
X160361888Y-101249000D01*
X161013112Y-101249000D01*
X161059468Y-101253565D01*
G37*
G36*
X154184468Y-101253565D02*
G01*
X154223138Y-101265296D01*
X154258777Y-101284346D01*
X154290017Y-101309983D01*
X154315654Y-101341223D01*
X154334704Y-101376862D01*
X154346435Y-101415532D01*
X154351000Y-101461888D01*
X154351000Y-102538112D01*
X154346435Y-102584468D01*
X154334704Y-102623138D01*
X154315654Y-102658777D01*
X154290017Y-102690017D01*
X154258777Y-102715654D01*
X154223138Y-102734704D01*
X154184468Y-102746435D01*
X154138112Y-102751000D01*
X153486888Y-102751000D01*
X153440532Y-102746435D01*
X153401862Y-102734704D01*
X153366223Y-102715654D01*
X153334983Y-102690017D01*
X153309346Y-102658777D01*
X153290296Y-102623138D01*
X153278565Y-102584468D01*
X153274000Y-102538112D01*
X153274000Y-101461888D01*
X153278565Y-101415532D01*
X153290296Y-101376862D01*
X153309346Y-101341223D01*
X153334983Y-101309983D01*
X153366223Y-101284346D01*
X153401862Y-101265296D01*
X153440532Y-101253565D01*
X153486888Y-101249000D01*
X154138112Y-101249000D01*
X154184468Y-101253565D01*
G37*
G36*
X156059468Y-101253565D02*
G01*
X156098138Y-101265296D01*
X156133777Y-101284346D01*
X156165017Y-101309983D01*
X156190654Y-101341223D01*
X156209704Y-101376862D01*
X156221435Y-101415532D01*
X156226000Y-101461888D01*
X156226000Y-102538112D01*
X156221435Y-102584468D01*
X156209704Y-102623138D01*
X156190654Y-102658777D01*
X156165017Y-102690017D01*
X156133777Y-102715654D01*
X156098138Y-102734704D01*
X156059468Y-102746435D01*
X156013112Y-102751000D01*
X155361888Y-102751000D01*
X155315532Y-102746435D01*
X155276862Y-102734704D01*
X155241223Y-102715654D01*
X155209983Y-102690017D01*
X155184346Y-102658777D01*
X155165296Y-102623138D01*
X155153565Y-102584468D01*
X155149000Y-102538112D01*
X155149000Y-101461888D01*
X155153565Y-101415532D01*
X155165296Y-101376862D01*
X155184346Y-101341223D01*
X155209983Y-101309983D01*
X155241223Y-101284346D01*
X155276862Y-101265296D01*
X155315532Y-101253565D01*
X155361888Y-101249000D01*
X156013112Y-101249000D01*
X156059468Y-101253565D01*
G37*
G36*
X176059468Y-101253565D02*
G01*
X176098138Y-101265296D01*
X176133777Y-101284346D01*
X176165017Y-101309983D01*
X176190654Y-101341223D01*
X176209704Y-101376862D01*
X176221435Y-101415532D01*
X176226000Y-101461888D01*
X176226000Y-102538112D01*
X176221435Y-102584468D01*
X176209704Y-102623138D01*
X176190654Y-102658777D01*
X176165017Y-102690017D01*
X176133777Y-102715654D01*
X176098138Y-102734704D01*
X176059468Y-102746435D01*
X176013112Y-102751000D01*
X175361888Y-102751000D01*
X175315532Y-102746435D01*
X175276862Y-102734704D01*
X175241223Y-102715654D01*
X175209983Y-102690017D01*
X175184346Y-102658777D01*
X175165296Y-102623138D01*
X175153565Y-102584468D01*
X175149000Y-102538112D01*
X175149000Y-101461888D01*
X175153565Y-101415532D01*
X175165296Y-101376862D01*
X175184346Y-101341223D01*
X175209983Y-101309983D01*
X175241223Y-101284346D01*
X175276862Y-101265296D01*
X175315532Y-101253565D01*
X175361888Y-101249000D01*
X176013112Y-101249000D01*
X176059468Y-101253565D01*
G37*
G36*
X174184468Y-101253565D02*
G01*
X174223138Y-101265296D01*
X174258777Y-101284346D01*
X174290017Y-101309983D01*
X174315654Y-101341223D01*
X174334704Y-101376862D01*
X174346435Y-101415532D01*
X174351000Y-101461888D01*
X174351000Y-102538112D01*
X174346435Y-102584468D01*
X174334704Y-102623138D01*
X174315654Y-102658777D01*
X174290017Y-102690017D01*
X174258777Y-102715654D01*
X174223138Y-102734704D01*
X174184468Y-102746435D01*
X174138112Y-102751000D01*
X173486888Y-102751000D01*
X173440532Y-102746435D01*
X173401862Y-102734704D01*
X173366223Y-102715654D01*
X173334983Y-102690017D01*
X173309346Y-102658777D01*
X173290296Y-102623138D01*
X173278565Y-102584468D01*
X173274000Y-102538112D01*
X173274000Y-101461888D01*
X173278565Y-101415532D01*
X173290296Y-101376862D01*
X173309346Y-101341223D01*
X173334983Y-101309983D01*
X173366223Y-101284346D01*
X173401862Y-101265296D01*
X173440532Y-101253565D01*
X173486888Y-101249000D01*
X174138112Y-101249000D01*
X174184468Y-101253565D01*
G37*
G36*
X171059468Y-101253565D02*
G01*
X171098138Y-101265296D01*
X171133777Y-101284346D01*
X171165017Y-101309983D01*
X171190654Y-101341223D01*
X171209704Y-101376862D01*
X171221435Y-101415532D01*
X171226000Y-101461888D01*
X171226000Y-102538112D01*
X171221435Y-102584468D01*
X171209704Y-102623138D01*
X171190654Y-102658777D01*
X171165017Y-102690017D01*
X171133777Y-102715654D01*
X171098138Y-102734704D01*
X171059468Y-102746435D01*
X171013112Y-102751000D01*
X170361888Y-102751000D01*
X170315532Y-102746435D01*
X170276862Y-102734704D01*
X170241223Y-102715654D01*
X170209983Y-102690017D01*
X170184346Y-102658777D01*
X170165296Y-102623138D01*
X170153565Y-102584468D01*
X170149000Y-102538112D01*
X170149000Y-101461888D01*
X170153565Y-101415532D01*
X170165296Y-101376862D01*
X170184346Y-101341223D01*
X170209983Y-101309983D01*
X170241223Y-101284346D01*
X170276862Y-101265296D01*
X170315532Y-101253565D01*
X170361888Y-101249000D01*
X171013112Y-101249000D01*
X171059468Y-101253565D01*
G37*
G36*
X169184468Y-101253565D02*
G01*
X169223138Y-101265296D01*
X169258777Y-101284346D01*
X169290017Y-101309983D01*
X169315654Y-101341223D01*
X169334704Y-101376862D01*
X169346435Y-101415532D01*
X169351000Y-101461888D01*
X169351000Y-102538112D01*
X169346435Y-102584468D01*
X169334704Y-102623138D01*
X169315654Y-102658777D01*
X169290017Y-102690017D01*
X169258777Y-102715654D01*
X169223138Y-102734704D01*
X169184468Y-102746435D01*
X169138112Y-102751000D01*
X168486888Y-102751000D01*
X168440532Y-102746435D01*
X168401862Y-102734704D01*
X168366223Y-102715654D01*
X168334983Y-102690017D01*
X168309346Y-102658777D01*
X168290296Y-102623138D01*
X168278565Y-102584468D01*
X168274000Y-102538112D01*
X168274000Y-101461888D01*
X168278565Y-101415532D01*
X168290296Y-101376862D01*
X168309346Y-101341223D01*
X168334983Y-101309983D01*
X168366223Y-101284346D01*
X168401862Y-101265296D01*
X168440532Y-101253565D01*
X168486888Y-101249000D01*
X169138112Y-101249000D01*
X169184468Y-101253565D01*
G37*
G36*
X164184468Y-101253565D02*
G01*
X164223138Y-101265296D01*
X164258777Y-101284346D01*
X164290017Y-101309983D01*
X164315654Y-101341223D01*
X164334704Y-101376862D01*
X164346435Y-101415532D01*
X164351000Y-101461888D01*
X164351000Y-102538112D01*
X164346435Y-102584468D01*
X164334704Y-102623138D01*
X164315654Y-102658777D01*
X164290017Y-102690017D01*
X164258777Y-102715654D01*
X164223138Y-102734704D01*
X164184468Y-102746435D01*
X164138112Y-102751000D01*
X163486888Y-102751000D01*
X163440532Y-102746435D01*
X163401862Y-102734704D01*
X163366223Y-102715654D01*
X163334983Y-102690017D01*
X163309346Y-102658777D01*
X163290296Y-102623138D01*
X163278565Y-102584468D01*
X163274000Y-102538112D01*
X163274000Y-101461888D01*
X163278565Y-101415532D01*
X163290296Y-101376862D01*
X163309346Y-101341223D01*
X163334983Y-101309983D01*
X163366223Y-101284346D01*
X163401862Y-101265296D01*
X163440532Y-101253565D01*
X163486888Y-101249000D01*
X164138112Y-101249000D01*
X164184468Y-101253565D01*
G37*
G36*
X191059468Y-101253565D02*
G01*
X191098138Y-101265296D01*
X191133777Y-101284346D01*
X191165017Y-101309983D01*
X191190654Y-101341223D01*
X191209704Y-101376862D01*
X191221435Y-101415532D01*
X191226000Y-101461888D01*
X191226000Y-102538112D01*
X191221435Y-102584468D01*
X191209704Y-102623138D01*
X191190654Y-102658777D01*
X191165017Y-102690017D01*
X191133777Y-102715654D01*
X191098138Y-102734704D01*
X191059468Y-102746435D01*
X191013112Y-102751000D01*
X190361888Y-102751000D01*
X190315532Y-102746435D01*
X190276862Y-102734704D01*
X190241223Y-102715654D01*
X190209983Y-102690017D01*
X190184346Y-102658777D01*
X190165296Y-102623138D01*
X190153565Y-102584468D01*
X190149000Y-102538112D01*
X190149000Y-101461888D01*
X190153565Y-101415532D01*
X190165296Y-101376862D01*
X190184346Y-101341223D01*
X190209983Y-101309983D01*
X190241223Y-101284346D01*
X190276862Y-101265296D01*
X190315532Y-101253565D01*
X190361888Y-101249000D01*
X191013112Y-101249000D01*
X191059468Y-101253565D01*
G37*
G36*
X189184468Y-101253565D02*
G01*
X189223138Y-101265296D01*
X189258777Y-101284346D01*
X189290017Y-101309983D01*
X189315654Y-101341223D01*
X189334704Y-101376862D01*
X189346435Y-101415532D01*
X189351000Y-101461888D01*
X189351000Y-102538112D01*
X189346435Y-102584468D01*
X189334704Y-102623138D01*
X189315654Y-102658777D01*
X189290017Y-102690017D01*
X189258777Y-102715654D01*
X189223138Y-102734704D01*
X189184468Y-102746435D01*
X189138112Y-102751000D01*
X188486888Y-102751000D01*
X188440532Y-102746435D01*
X188401862Y-102734704D01*
X188366223Y-102715654D01*
X188334983Y-102690017D01*
X188309346Y-102658777D01*
X188290296Y-102623138D01*
X188278565Y-102584468D01*
X188274000Y-102538112D01*
X188274000Y-101461888D01*
X188278565Y-101415532D01*
X188290296Y-101376862D01*
X188309346Y-101341223D01*
X188334983Y-101309983D01*
X188366223Y-101284346D01*
X188401862Y-101265296D01*
X188440532Y-101253565D01*
X188486888Y-101249000D01*
X189138112Y-101249000D01*
X189184468Y-101253565D01*
G37*
G36*
X186059468Y-101253565D02*
G01*
X186098138Y-101265296D01*
X186133777Y-101284346D01*
X186165017Y-101309983D01*
X186190654Y-101341223D01*
X186209704Y-101376862D01*
X186221435Y-101415532D01*
X186226000Y-101461888D01*
X186226000Y-102538112D01*
X186221435Y-102584468D01*
X186209704Y-102623138D01*
X186190654Y-102658777D01*
X186165017Y-102690017D01*
X186133777Y-102715654D01*
X186098138Y-102734704D01*
X186059468Y-102746435D01*
X186013112Y-102751000D01*
X185361888Y-102751000D01*
X185315532Y-102746435D01*
X185276862Y-102734704D01*
X185241223Y-102715654D01*
X185209983Y-102690017D01*
X185184346Y-102658777D01*
X185165296Y-102623138D01*
X185153565Y-102584468D01*
X185149000Y-102538112D01*
X185149000Y-101461888D01*
X185153565Y-101415532D01*
X185165296Y-101376862D01*
X185184346Y-101341223D01*
X185209983Y-101309983D01*
X185241223Y-101284346D01*
X185276862Y-101265296D01*
X185315532Y-101253565D01*
X185361888Y-101249000D01*
X186013112Y-101249000D01*
X186059468Y-101253565D01*
G37*
G36*
X184184468Y-101253565D02*
G01*
X184223138Y-101265296D01*
X184258777Y-101284346D01*
X184290017Y-101309983D01*
X184315654Y-101341223D01*
X184334704Y-101376862D01*
X184346435Y-101415532D01*
X184351000Y-101461888D01*
X184351000Y-102538112D01*
X184346435Y-102584468D01*
X184334704Y-102623138D01*
X184315654Y-102658777D01*
X184290017Y-102690017D01*
X184258777Y-102715654D01*
X184223138Y-102734704D01*
X184184468Y-102746435D01*
X184138112Y-102751000D01*
X183486888Y-102751000D01*
X183440532Y-102746435D01*
X183401862Y-102734704D01*
X183366223Y-102715654D01*
X183334983Y-102690017D01*
X183309346Y-102658777D01*
X183290296Y-102623138D01*
X183278565Y-102584468D01*
X183274000Y-102538112D01*
X183274000Y-101461888D01*
X183278565Y-101415532D01*
X183290296Y-101376862D01*
X183309346Y-101341223D01*
X183334983Y-101309983D01*
X183366223Y-101284346D01*
X183401862Y-101265296D01*
X183440532Y-101253565D01*
X183486888Y-101249000D01*
X184138112Y-101249000D01*
X184184468Y-101253565D01*
G37*
G36*
X181059468Y-101253565D02*
G01*
X181098138Y-101265296D01*
X181133777Y-101284346D01*
X181165017Y-101309983D01*
X181190654Y-101341223D01*
X181209704Y-101376862D01*
X181221435Y-101415532D01*
X181226000Y-101461888D01*
X181226000Y-102538112D01*
X181221435Y-102584468D01*
X181209704Y-102623138D01*
X181190654Y-102658777D01*
X181165017Y-102690017D01*
X181133777Y-102715654D01*
X181098138Y-102734704D01*
X181059468Y-102746435D01*
X181013112Y-102751000D01*
X180361888Y-102751000D01*
X180315532Y-102746435D01*
X180276862Y-102734704D01*
X180241223Y-102715654D01*
X180209983Y-102690017D01*
X180184346Y-102658777D01*
X180165296Y-102623138D01*
X180153565Y-102584468D01*
X180149000Y-102538112D01*
X180149000Y-101461888D01*
X180153565Y-101415532D01*
X180165296Y-101376862D01*
X180184346Y-101341223D01*
X180209983Y-101309983D01*
X180241223Y-101284346D01*
X180276862Y-101265296D01*
X180315532Y-101253565D01*
X180361888Y-101249000D01*
X181013112Y-101249000D01*
X181059468Y-101253565D01*
G37*
G36*
X179184468Y-101253565D02*
G01*
X179223138Y-101265296D01*
X179258777Y-101284346D01*
X179290017Y-101309983D01*
X179315654Y-101341223D01*
X179334704Y-101376862D01*
X179346435Y-101415532D01*
X179351000Y-101461888D01*
X179351000Y-102538112D01*
X179346435Y-102584468D01*
X179334704Y-102623138D01*
X179315654Y-102658777D01*
X179290017Y-102690017D01*
X179258777Y-102715654D01*
X179223138Y-102734704D01*
X179184468Y-102746435D01*
X179138112Y-102751000D01*
X178486888Y-102751000D01*
X178440532Y-102746435D01*
X178401862Y-102734704D01*
X178366223Y-102715654D01*
X178334983Y-102690017D01*
X178309346Y-102658777D01*
X178290296Y-102623138D01*
X178278565Y-102584468D01*
X178274000Y-102538112D01*
X178274000Y-101461888D01*
X178278565Y-101415532D01*
X178290296Y-101376862D01*
X178309346Y-101341223D01*
X178334983Y-101309983D01*
X178366223Y-101284346D01*
X178401862Y-101265296D01*
X178440532Y-101253565D01*
X178486888Y-101249000D01*
X179138112Y-101249000D01*
X179184468Y-101253565D01*
G37*
G36*
X166059468Y-96253565D02*
G01*
X166098138Y-96265296D01*
X166133777Y-96284346D01*
X166165017Y-96309983D01*
X166190654Y-96341223D01*
X166209704Y-96376862D01*
X166221435Y-96415532D01*
X166226000Y-96461888D01*
X166226000Y-97538112D01*
X166221435Y-97584468D01*
X166209704Y-97623138D01*
X166190654Y-97658777D01*
X166165017Y-97690017D01*
X166133777Y-97715654D01*
X166098138Y-97734704D01*
X166059468Y-97746435D01*
X166013112Y-97751000D01*
X165361888Y-97751000D01*
X165315532Y-97746435D01*
X165276862Y-97734704D01*
X165241223Y-97715654D01*
X165209983Y-97690017D01*
X165184346Y-97658777D01*
X165165296Y-97623138D01*
X165153565Y-97584468D01*
X165149000Y-97538112D01*
X165149000Y-96461888D01*
X165153565Y-96415532D01*
X165165296Y-96376862D01*
X165184346Y-96341223D01*
X165209983Y-96309983D01*
X165241223Y-96284346D01*
X165276862Y-96265296D01*
X165315532Y-96253565D01*
X165361888Y-96249000D01*
X166013112Y-96249000D01*
X166059468Y-96253565D01*
G37*
G36*
X164184468Y-96253565D02*
G01*
X164223138Y-96265296D01*
X164258777Y-96284346D01*
X164290017Y-96309983D01*
X164315654Y-96341223D01*
X164334704Y-96376862D01*
X164346435Y-96415532D01*
X164351000Y-96461888D01*
X164351000Y-97538112D01*
X164346435Y-97584468D01*
X164334704Y-97623138D01*
X164315654Y-97658777D01*
X164290017Y-97690017D01*
X164258777Y-97715654D01*
X164223138Y-97734704D01*
X164184468Y-97746435D01*
X164138112Y-97751000D01*
X163486888Y-97751000D01*
X163440532Y-97746435D01*
X163401862Y-97734704D01*
X163366223Y-97715654D01*
X163334983Y-97690017D01*
X163309346Y-97658777D01*
X163290296Y-97623138D01*
X163278565Y-97584468D01*
X163274000Y-97538112D01*
X163274000Y-96461888D01*
X163278565Y-96415532D01*
X163290296Y-96376862D01*
X163309346Y-96341223D01*
X163334983Y-96309983D01*
X163366223Y-96284346D01*
X163401862Y-96265296D01*
X163440532Y-96253565D01*
X163486888Y-96249000D01*
X164138112Y-96249000D01*
X164184468Y-96253565D01*
G37*
G36*
X161059468Y-96253565D02*
G01*
X161098138Y-96265296D01*
X161133777Y-96284346D01*
X161165017Y-96309983D01*
X161190654Y-96341223D01*
X161209704Y-96376862D01*
X161221435Y-96415532D01*
X161226000Y-96461888D01*
X161226000Y-97538112D01*
X161221435Y-97584468D01*
X161209704Y-97623138D01*
X161190654Y-97658777D01*
X161165017Y-97690017D01*
X161133777Y-97715654D01*
X161098138Y-97734704D01*
X161059468Y-97746435D01*
X161013112Y-97751000D01*
X160361888Y-97751000D01*
X160315532Y-97746435D01*
X160276862Y-97734704D01*
X160241223Y-97715654D01*
X160209983Y-97690017D01*
X160184346Y-97658777D01*
X160165296Y-97623138D01*
X160153565Y-97584468D01*
X160149000Y-97538112D01*
X160149000Y-96461888D01*
X160153565Y-96415532D01*
X160165296Y-96376862D01*
X160184346Y-96341223D01*
X160209983Y-96309983D01*
X160241223Y-96284346D01*
X160276862Y-96265296D01*
X160315532Y-96253565D01*
X160361888Y-96249000D01*
X161013112Y-96249000D01*
X161059468Y-96253565D01*
G37*
G36*
X159184468Y-96253565D02*
G01*
X159223138Y-96265296D01*
X159258777Y-96284346D01*
X159290017Y-96309983D01*
X159315654Y-96341223D01*
X159334704Y-96376862D01*
X159346435Y-96415532D01*
X159351000Y-96461888D01*
X159351000Y-97538112D01*
X159346435Y-97584468D01*
X159334704Y-97623138D01*
X159315654Y-97658777D01*
X159290017Y-97690017D01*
X159258777Y-97715654D01*
X159223138Y-97734704D01*
X159184468Y-97746435D01*
X159138112Y-97751000D01*
X158486888Y-97751000D01*
X158440532Y-97746435D01*
X158401862Y-97734704D01*
X158366223Y-97715654D01*
X158334983Y-97690017D01*
X158309346Y-97658777D01*
X158290296Y-97623138D01*
X158278565Y-97584468D01*
X158274000Y-97538112D01*
X158274000Y-96461888D01*
X158278565Y-96415532D01*
X158290296Y-96376862D01*
X158309346Y-96341223D01*
X158334983Y-96309983D01*
X158366223Y-96284346D01*
X158401862Y-96265296D01*
X158440532Y-96253565D01*
X158486888Y-96249000D01*
X159138112Y-96249000D01*
X159184468Y-96253565D01*
G37*
G36*
X156059468Y-96253565D02*
G01*
X156098138Y-96265296D01*
X156133777Y-96284346D01*
X156165017Y-96309983D01*
X156190654Y-96341223D01*
X156209704Y-96376862D01*
X156221435Y-96415532D01*
X156226000Y-96461888D01*
X156226000Y-97538112D01*
X156221435Y-97584468D01*
X156209704Y-97623138D01*
X156190654Y-97658777D01*
X156165017Y-97690017D01*
X156133777Y-97715654D01*
X156098138Y-97734704D01*
X156059468Y-97746435D01*
X156013112Y-97751000D01*
X155361888Y-97751000D01*
X155315532Y-97746435D01*
X155276862Y-97734704D01*
X155241223Y-97715654D01*
X155209983Y-97690017D01*
X155184346Y-97658777D01*
X155165296Y-97623138D01*
X155153565Y-97584468D01*
X155149000Y-97538112D01*
X155149000Y-96461888D01*
X155153565Y-96415532D01*
X155165296Y-96376862D01*
X155184346Y-96341223D01*
X155209983Y-96309983D01*
X155241223Y-96284346D01*
X155276862Y-96265296D01*
X155315532Y-96253565D01*
X155361888Y-96249000D01*
X156013112Y-96249000D01*
X156059468Y-96253565D01*
G37*
G36*
X189184468Y-96253565D02*
G01*
X189223138Y-96265296D01*
X189258777Y-96284346D01*
X189290017Y-96309983D01*
X189315654Y-96341223D01*
X189334704Y-96376862D01*
X189346435Y-96415532D01*
X189351000Y-96461888D01*
X189351000Y-97538112D01*
X189346435Y-97584468D01*
X189334704Y-97623138D01*
X189315654Y-97658777D01*
X189290017Y-97690017D01*
X189258777Y-97715654D01*
X189223138Y-97734704D01*
X189184468Y-97746435D01*
X189138112Y-97751000D01*
X188486888Y-97751000D01*
X188440532Y-97746435D01*
X188401862Y-97734704D01*
X188366223Y-97715654D01*
X188334983Y-97690017D01*
X188309346Y-97658777D01*
X188290296Y-97623138D01*
X188278565Y-97584468D01*
X188274000Y-97538112D01*
X188274000Y-96461888D01*
X188278565Y-96415532D01*
X188290296Y-96376862D01*
X188309346Y-96341223D01*
X188334983Y-96309983D01*
X188366223Y-96284346D01*
X188401862Y-96265296D01*
X188440532Y-96253565D01*
X188486888Y-96249000D01*
X189138112Y-96249000D01*
X189184468Y-96253565D01*
G37*
G36*
X191059468Y-96253565D02*
G01*
X191098138Y-96265296D01*
X191133777Y-96284346D01*
X191165017Y-96309983D01*
X191190654Y-96341223D01*
X191209704Y-96376862D01*
X191221435Y-96415532D01*
X191226000Y-96461888D01*
X191226000Y-97538112D01*
X191221435Y-97584468D01*
X191209704Y-97623138D01*
X191190654Y-97658777D01*
X191165017Y-97690017D01*
X191133777Y-97715654D01*
X191098138Y-97734704D01*
X191059468Y-97746435D01*
X191013112Y-97751000D01*
X190361888Y-97751000D01*
X190315532Y-97746435D01*
X190276862Y-97734704D01*
X190241223Y-97715654D01*
X190209983Y-97690017D01*
X190184346Y-97658777D01*
X190165296Y-97623138D01*
X190153565Y-97584468D01*
X190149000Y-97538112D01*
X190149000Y-96461888D01*
X190153565Y-96415532D01*
X190165296Y-96376862D01*
X190184346Y-96341223D01*
X190209983Y-96309983D01*
X190241223Y-96284346D01*
X190276862Y-96265296D01*
X190315532Y-96253565D01*
X190361888Y-96249000D01*
X191013112Y-96249000D01*
X191059468Y-96253565D01*
G37*
G36*
X184184468Y-96253565D02*
G01*
X184223138Y-96265296D01*
X184258777Y-96284346D01*
X184290017Y-96309983D01*
X184315654Y-96341223D01*
X184334704Y-96376862D01*
X184346435Y-96415532D01*
X184351000Y-96461888D01*
X184351000Y-97538112D01*
X184346435Y-97584468D01*
X184334704Y-97623138D01*
X184315654Y-97658777D01*
X184290017Y-97690017D01*
X184258777Y-97715654D01*
X184223138Y-97734704D01*
X184184468Y-97746435D01*
X184138112Y-97751000D01*
X183486888Y-97751000D01*
X183440532Y-97746435D01*
X183401862Y-97734704D01*
X183366223Y-97715654D01*
X183334983Y-97690017D01*
X183309346Y-97658777D01*
X183290296Y-97623138D01*
X183278565Y-97584468D01*
X183274000Y-97538112D01*
X183274000Y-96461888D01*
X183278565Y-96415532D01*
X183290296Y-96376862D01*
X183309346Y-96341223D01*
X183334983Y-96309983D01*
X183366223Y-96284346D01*
X183401862Y-96265296D01*
X183440532Y-96253565D01*
X183486888Y-96249000D01*
X184138112Y-96249000D01*
X184184468Y-96253565D01*
G37*
G36*
X186059468Y-96253565D02*
G01*
X186098138Y-96265296D01*
X186133777Y-96284346D01*
X186165017Y-96309983D01*
X186190654Y-96341223D01*
X186209704Y-96376862D01*
X186221435Y-96415532D01*
X186226000Y-96461888D01*
X186226000Y-97538112D01*
X186221435Y-97584468D01*
X186209704Y-97623138D01*
X186190654Y-97658777D01*
X186165017Y-97690017D01*
X186133777Y-97715654D01*
X186098138Y-97734704D01*
X186059468Y-97746435D01*
X186013112Y-97751000D01*
X185361888Y-97751000D01*
X185315532Y-97746435D01*
X185276862Y-97734704D01*
X185241223Y-97715654D01*
X185209983Y-97690017D01*
X185184346Y-97658777D01*
X185165296Y-97623138D01*
X185153565Y-97584468D01*
X185149000Y-97538112D01*
X185149000Y-96461888D01*
X185153565Y-96415532D01*
X185165296Y-96376862D01*
X185184346Y-96341223D01*
X185209983Y-96309983D01*
X185241223Y-96284346D01*
X185276862Y-96265296D01*
X185315532Y-96253565D01*
X185361888Y-96249000D01*
X186013112Y-96249000D01*
X186059468Y-96253565D01*
G37*
G36*
X179184468Y-96253565D02*
G01*
X179223138Y-96265296D01*
X179258777Y-96284346D01*
X179290017Y-96309983D01*
X179315654Y-96341223D01*
X179334704Y-96376862D01*
X179346435Y-96415532D01*
X179351000Y-96461888D01*
X179351000Y-97538112D01*
X179346435Y-97584468D01*
X179334704Y-97623138D01*
X179315654Y-97658777D01*
X179290017Y-97690017D01*
X179258777Y-97715654D01*
X179223138Y-97734704D01*
X179184468Y-97746435D01*
X179138112Y-97751000D01*
X178486888Y-97751000D01*
X178440532Y-97746435D01*
X178401862Y-97734704D01*
X178366223Y-97715654D01*
X178334983Y-97690017D01*
X178309346Y-97658777D01*
X178290296Y-97623138D01*
X178278565Y-97584468D01*
X178274000Y-97538112D01*
X178274000Y-96461888D01*
X178278565Y-96415532D01*
X178290296Y-96376862D01*
X178309346Y-96341223D01*
X178334983Y-96309983D01*
X178366223Y-96284346D01*
X178401862Y-96265296D01*
X178440532Y-96253565D01*
X178486888Y-96249000D01*
X179138112Y-96249000D01*
X179184468Y-96253565D01*
G37*
G36*
X181059468Y-96253565D02*
G01*
X181098138Y-96265296D01*
X181133777Y-96284346D01*
X181165017Y-96309983D01*
X181190654Y-96341223D01*
X181209704Y-96376862D01*
X181221435Y-96415532D01*
X181226000Y-96461888D01*
X181226000Y-97538112D01*
X181221435Y-97584468D01*
X181209704Y-97623138D01*
X181190654Y-97658777D01*
X181165017Y-97690017D01*
X181133777Y-97715654D01*
X181098138Y-97734704D01*
X181059468Y-97746435D01*
X181013112Y-97751000D01*
X180361888Y-97751000D01*
X180315532Y-97746435D01*
X180276862Y-97734704D01*
X180241223Y-97715654D01*
X180209983Y-97690017D01*
X180184346Y-97658777D01*
X180165296Y-97623138D01*
X180153565Y-97584468D01*
X180149000Y-97538112D01*
X180149000Y-96461888D01*
X180153565Y-96415532D01*
X180165296Y-96376862D01*
X180184346Y-96341223D01*
X180209983Y-96309983D01*
X180241223Y-96284346D01*
X180276862Y-96265296D01*
X180315532Y-96253565D01*
X180361888Y-96249000D01*
X181013112Y-96249000D01*
X181059468Y-96253565D01*
G37*
G36*
X174184468Y-96253565D02*
G01*
X174223138Y-96265296D01*
X174258777Y-96284346D01*
X174290017Y-96309983D01*
X174315654Y-96341223D01*
X174334704Y-96376862D01*
X174346435Y-96415532D01*
X174351000Y-96461888D01*
X174351000Y-97538112D01*
X174346435Y-97584468D01*
X174334704Y-97623138D01*
X174315654Y-97658777D01*
X174290017Y-97690017D01*
X174258777Y-97715654D01*
X174223138Y-97734704D01*
X174184468Y-97746435D01*
X174138112Y-97751000D01*
X173486888Y-97751000D01*
X173440532Y-97746435D01*
X173401862Y-97734704D01*
X173366223Y-97715654D01*
X173334983Y-97690017D01*
X173309346Y-97658777D01*
X173290296Y-97623138D01*
X173278565Y-97584468D01*
X173274000Y-97538112D01*
X173274000Y-96461888D01*
X173278565Y-96415532D01*
X173290296Y-96376862D01*
X173309346Y-96341223D01*
X173334983Y-96309983D01*
X173366223Y-96284346D01*
X173401862Y-96265296D01*
X173440532Y-96253565D01*
X173486888Y-96249000D01*
X174138112Y-96249000D01*
X174184468Y-96253565D01*
G37*
G36*
X176059468Y-96253565D02*
G01*
X176098138Y-96265296D01*
X176133777Y-96284346D01*
X176165017Y-96309983D01*
X176190654Y-96341223D01*
X176209704Y-96376862D01*
X176221435Y-96415532D01*
X176226000Y-96461888D01*
X176226000Y-97538112D01*
X176221435Y-97584468D01*
X176209704Y-97623138D01*
X176190654Y-97658777D01*
X176165017Y-97690017D01*
X176133777Y-97715654D01*
X176098138Y-97734704D01*
X176059468Y-97746435D01*
X176013112Y-97751000D01*
X175361888Y-97751000D01*
X175315532Y-97746435D01*
X175276862Y-97734704D01*
X175241223Y-97715654D01*
X175209983Y-97690017D01*
X175184346Y-97658777D01*
X175165296Y-97623138D01*
X175153565Y-97584468D01*
X175149000Y-97538112D01*
X175149000Y-96461888D01*
X175153565Y-96415532D01*
X175165296Y-96376862D01*
X175184346Y-96341223D01*
X175209983Y-96309983D01*
X175241223Y-96284346D01*
X175276862Y-96265296D01*
X175315532Y-96253565D01*
X175361888Y-96249000D01*
X176013112Y-96249000D01*
X176059468Y-96253565D01*
G37*
G36*
X169184468Y-96253565D02*
G01*
X169223138Y-96265296D01*
X169258777Y-96284346D01*
X169290017Y-96309983D01*
X169315654Y-96341223D01*
X169334704Y-96376862D01*
X169346435Y-96415532D01*
X169351000Y-96461888D01*
X169351000Y-97538112D01*
X169346435Y-97584468D01*
X169334704Y-97623138D01*
X169315654Y-97658777D01*
X169290017Y-97690017D01*
X169258777Y-97715654D01*
X169223138Y-97734704D01*
X169184468Y-97746435D01*
X169138112Y-97751000D01*
X168486888Y-97751000D01*
X168440532Y-97746435D01*
X168401862Y-97734704D01*
X168366223Y-97715654D01*
X168334983Y-97690017D01*
X168309346Y-97658777D01*
X168290296Y-97623138D01*
X168278565Y-97584468D01*
X168274000Y-97538112D01*
X168274000Y-96461888D01*
X168278565Y-96415532D01*
X168290296Y-96376862D01*
X168309346Y-96341223D01*
X168334983Y-96309983D01*
X168366223Y-96284346D01*
X168401862Y-96265296D01*
X168440532Y-96253565D01*
X168486888Y-96249000D01*
X169138112Y-96249000D01*
X169184468Y-96253565D01*
G37*
G36*
X171059468Y-96253565D02*
G01*
X171098138Y-96265296D01*
X171133777Y-96284346D01*
X171165017Y-96309983D01*
X171190654Y-96341223D01*
X171209704Y-96376862D01*
X171221435Y-96415532D01*
X171226000Y-96461888D01*
X171226000Y-97538112D01*
X171221435Y-97584468D01*
X171209704Y-97623138D01*
X171190654Y-97658777D01*
X171165017Y-97690017D01*
X171133777Y-97715654D01*
X171098138Y-97734704D01*
X171059468Y-97746435D01*
X171013112Y-97751000D01*
X170361888Y-97751000D01*
X170315532Y-97746435D01*
X170276862Y-97734704D01*
X170241223Y-97715654D01*
X170209983Y-97690017D01*
X170184346Y-97658777D01*
X170165296Y-97623138D01*
X170153565Y-97584468D01*
X170149000Y-97538112D01*
X170149000Y-96461888D01*
X170153565Y-96415532D01*
X170165296Y-96376862D01*
X170184346Y-96341223D01*
X170209983Y-96309983D01*
X170241223Y-96284346D01*
X170276862Y-96265296D01*
X170315532Y-96253565D01*
X170361888Y-96249000D01*
X171013112Y-96249000D01*
X171059468Y-96253565D01*
G37*
G36*
X154184468Y-96253565D02*
G01*
X154223138Y-96265296D01*
X154258777Y-96284346D01*
X154290017Y-96309983D01*
X154315654Y-96341223D01*
X154334704Y-96376862D01*
X154346435Y-96415532D01*
X154351000Y-96461888D01*
X154351000Y-97538112D01*
X154346435Y-97584468D01*
X154334704Y-97623138D01*
X154315654Y-97658777D01*
X154290017Y-97690017D01*
X154258777Y-97715654D01*
X154223138Y-97734704D01*
X154184468Y-97746435D01*
X154138112Y-97751000D01*
X153486888Y-97751000D01*
X153440532Y-97746435D01*
X153401862Y-97734704D01*
X153366223Y-97715654D01*
X153334983Y-97690017D01*
X153309346Y-97658777D01*
X153290296Y-97623138D01*
X153278565Y-97584468D01*
X153274000Y-97538112D01*
X153274000Y-96461888D01*
X153278565Y-96415532D01*
X153290296Y-96376862D01*
X153309346Y-96341223D01*
X153334983Y-96309983D01*
X153366223Y-96284346D01*
X153401862Y-96265296D01*
X153440532Y-96253565D01*
X153486888Y-96249000D01*
X154138112Y-96249000D01*
X154184468Y-96253565D01*
G37*
G36*
X166059468Y-91253565D02*
G01*
X166098138Y-91265296D01*
X166133777Y-91284346D01*
X166165017Y-91309983D01*
X166190654Y-91341223D01*
X166209704Y-91376862D01*
X166221435Y-91415532D01*
X166226000Y-91461888D01*
X166226000Y-92538112D01*
X166221435Y-92584468D01*
X166209704Y-92623138D01*
X166190654Y-92658777D01*
X166165017Y-92690017D01*
X166133777Y-92715654D01*
X166098138Y-92734704D01*
X166059468Y-92746435D01*
X166013112Y-92751000D01*
X165361888Y-92751000D01*
X165315532Y-92746435D01*
X165276862Y-92734704D01*
X165241223Y-92715654D01*
X165209983Y-92690017D01*
X165184346Y-92658777D01*
X165165296Y-92623138D01*
X165153565Y-92584468D01*
X165149000Y-92538112D01*
X165149000Y-91461888D01*
X165153565Y-91415532D01*
X165165296Y-91376862D01*
X165184346Y-91341223D01*
X165209983Y-91309983D01*
X165241223Y-91284346D01*
X165276862Y-91265296D01*
X165315532Y-91253565D01*
X165361888Y-91249000D01*
X166013112Y-91249000D01*
X166059468Y-91253565D01*
G37*
G36*
X159184468Y-91253565D02*
G01*
X159223138Y-91265296D01*
X159258777Y-91284346D01*
X159290017Y-91309983D01*
X159315654Y-91341223D01*
X159334704Y-91376862D01*
X159346435Y-91415532D01*
X159351000Y-91461888D01*
X159351000Y-92538112D01*
X159346435Y-92584468D01*
X159334704Y-92623138D01*
X159315654Y-92658777D01*
X159290017Y-92690017D01*
X159258777Y-92715654D01*
X159223138Y-92734704D01*
X159184468Y-92746435D01*
X159138112Y-92751000D01*
X158486888Y-92751000D01*
X158440532Y-92746435D01*
X158401862Y-92734704D01*
X158366223Y-92715654D01*
X158334983Y-92690017D01*
X158309346Y-92658777D01*
X158290296Y-92623138D01*
X158278565Y-92584468D01*
X158274000Y-92538112D01*
X158274000Y-91461888D01*
X158278565Y-91415532D01*
X158290296Y-91376862D01*
X158309346Y-91341223D01*
X158334983Y-91309983D01*
X158366223Y-91284346D01*
X158401862Y-91265296D01*
X158440532Y-91253565D01*
X158486888Y-91249000D01*
X159138112Y-91249000D01*
X159184468Y-91253565D01*
G37*
G36*
X161059468Y-91253565D02*
G01*
X161098138Y-91265296D01*
X161133777Y-91284346D01*
X161165017Y-91309983D01*
X161190654Y-91341223D01*
X161209704Y-91376862D01*
X161221435Y-91415532D01*
X161226000Y-91461888D01*
X161226000Y-92538112D01*
X161221435Y-92584468D01*
X161209704Y-92623138D01*
X161190654Y-92658777D01*
X161165017Y-92690017D01*
X161133777Y-92715654D01*
X161098138Y-92734704D01*
X161059468Y-92746435D01*
X161013112Y-92751000D01*
X160361888Y-92751000D01*
X160315532Y-92746435D01*
X160276862Y-92734704D01*
X160241223Y-92715654D01*
X160209983Y-92690017D01*
X160184346Y-92658777D01*
X160165296Y-92623138D01*
X160153565Y-92584468D01*
X160149000Y-92538112D01*
X160149000Y-91461888D01*
X160153565Y-91415532D01*
X160165296Y-91376862D01*
X160184346Y-91341223D01*
X160209983Y-91309983D01*
X160241223Y-91284346D01*
X160276862Y-91265296D01*
X160315532Y-91253565D01*
X160361888Y-91249000D01*
X161013112Y-91249000D01*
X161059468Y-91253565D01*
G37*
G36*
X154184468Y-91253565D02*
G01*
X154223138Y-91265296D01*
X154258777Y-91284346D01*
X154290017Y-91309983D01*
X154315654Y-91341223D01*
X154334704Y-91376862D01*
X154346435Y-91415532D01*
X154351000Y-91461888D01*
X154351000Y-92538112D01*
X154346435Y-92584468D01*
X154334704Y-92623138D01*
X154315654Y-92658777D01*
X154290017Y-92690017D01*
X154258777Y-92715654D01*
X154223138Y-92734704D01*
X154184468Y-92746435D01*
X154138112Y-92751000D01*
X153486888Y-92751000D01*
X153440532Y-92746435D01*
X153401862Y-92734704D01*
X153366223Y-92715654D01*
X153334983Y-92690017D01*
X153309346Y-92658777D01*
X153290296Y-92623138D01*
X153278565Y-92584468D01*
X153274000Y-92538112D01*
X153274000Y-91461888D01*
X153278565Y-91415532D01*
X153290296Y-91376862D01*
X153309346Y-91341223D01*
X153334983Y-91309983D01*
X153366223Y-91284346D01*
X153401862Y-91265296D01*
X153440532Y-91253565D01*
X153486888Y-91249000D01*
X154138112Y-91249000D01*
X154184468Y-91253565D01*
G37*
G36*
X156059468Y-91253565D02*
G01*
X156098138Y-91265296D01*
X156133777Y-91284346D01*
X156165017Y-91309983D01*
X156190654Y-91341223D01*
X156209704Y-91376862D01*
X156221435Y-91415532D01*
X156226000Y-91461888D01*
X156226000Y-92538112D01*
X156221435Y-92584468D01*
X156209704Y-92623138D01*
X156190654Y-92658777D01*
X156165017Y-92690017D01*
X156133777Y-92715654D01*
X156098138Y-92734704D01*
X156059468Y-92746435D01*
X156013112Y-92751000D01*
X155361888Y-92751000D01*
X155315532Y-92746435D01*
X155276862Y-92734704D01*
X155241223Y-92715654D01*
X155209983Y-92690017D01*
X155184346Y-92658777D01*
X155165296Y-92623138D01*
X155153565Y-92584468D01*
X155149000Y-92538112D01*
X155149000Y-91461888D01*
X155153565Y-91415532D01*
X155165296Y-91376862D01*
X155184346Y-91341223D01*
X155209983Y-91309983D01*
X155241223Y-91284346D01*
X155276862Y-91265296D01*
X155315532Y-91253565D01*
X155361888Y-91249000D01*
X156013112Y-91249000D01*
X156059468Y-91253565D01*
G37*
G36*
X164184468Y-91253565D02*
G01*
X164223138Y-91265296D01*
X164258777Y-91284346D01*
X164290017Y-91309983D01*
X164315654Y-91341223D01*
X164334704Y-91376862D01*
X164346435Y-91415532D01*
X164351000Y-91461888D01*
X164351000Y-92538112D01*
X164346435Y-92584468D01*
X164334704Y-92623138D01*
X164315654Y-92658777D01*
X164290017Y-92690017D01*
X164258777Y-92715654D01*
X164223138Y-92734704D01*
X164184468Y-92746435D01*
X164138112Y-92751000D01*
X163486888Y-92751000D01*
X163440532Y-92746435D01*
X163401862Y-92734704D01*
X163366223Y-92715654D01*
X163334983Y-92690017D01*
X163309346Y-92658777D01*
X163290296Y-92623138D01*
X163278565Y-92584468D01*
X163274000Y-92538112D01*
X163274000Y-91461888D01*
X163278565Y-91415532D01*
X163290296Y-91376862D01*
X163309346Y-91341223D01*
X163334983Y-91309983D01*
X163366223Y-91284346D01*
X163401862Y-91265296D01*
X163440532Y-91253565D01*
X163486888Y-91249000D01*
X164138112Y-91249000D01*
X164184468Y-91253565D01*
G37*
G36*
X169184468Y-91253565D02*
G01*
X169223138Y-91265296D01*
X169258777Y-91284346D01*
X169290017Y-91309983D01*
X169315654Y-91341223D01*
X169334704Y-91376862D01*
X169346435Y-91415532D01*
X169351000Y-91461888D01*
X169351000Y-92538112D01*
X169346435Y-92584468D01*
X169334704Y-92623138D01*
X169315654Y-92658777D01*
X169290017Y-92690017D01*
X169258777Y-92715654D01*
X169223138Y-92734704D01*
X169184468Y-92746435D01*
X169138112Y-92751000D01*
X168486888Y-92751000D01*
X168440532Y-92746435D01*
X168401862Y-92734704D01*
X168366223Y-92715654D01*
X168334983Y-92690017D01*
X168309346Y-92658777D01*
X168290296Y-92623138D01*
X168278565Y-92584468D01*
X168274000Y-92538112D01*
X168274000Y-91461888D01*
X168278565Y-91415532D01*
X168290296Y-91376862D01*
X168309346Y-91341223D01*
X168334983Y-91309983D01*
X168366223Y-91284346D01*
X168401862Y-91265296D01*
X168440532Y-91253565D01*
X168486888Y-91249000D01*
X169138112Y-91249000D01*
X169184468Y-91253565D01*
G37*
G36*
X171059468Y-91253565D02*
G01*
X171098138Y-91265296D01*
X171133777Y-91284346D01*
X171165017Y-91309983D01*
X171190654Y-91341223D01*
X171209704Y-91376862D01*
X171221435Y-91415532D01*
X171226000Y-91461888D01*
X171226000Y-92538112D01*
X171221435Y-92584468D01*
X171209704Y-92623138D01*
X171190654Y-92658777D01*
X171165017Y-92690017D01*
X171133777Y-92715654D01*
X171098138Y-92734704D01*
X171059468Y-92746435D01*
X171013112Y-92751000D01*
X170361888Y-92751000D01*
X170315532Y-92746435D01*
X170276862Y-92734704D01*
X170241223Y-92715654D01*
X170209983Y-92690017D01*
X170184346Y-92658777D01*
X170165296Y-92623138D01*
X170153565Y-92584468D01*
X170149000Y-92538112D01*
X170149000Y-91461888D01*
X170153565Y-91415532D01*
X170165296Y-91376862D01*
X170184346Y-91341223D01*
X170209983Y-91309983D01*
X170241223Y-91284346D01*
X170276862Y-91265296D01*
X170315532Y-91253565D01*
X170361888Y-91249000D01*
X171013112Y-91249000D01*
X171059468Y-91253565D01*
G37*
G36*
X174184468Y-91253565D02*
G01*
X174223138Y-91265296D01*
X174258777Y-91284346D01*
X174290017Y-91309983D01*
X174315654Y-91341223D01*
X174334704Y-91376862D01*
X174346435Y-91415532D01*
X174351000Y-91461888D01*
X174351000Y-92538112D01*
X174346435Y-92584468D01*
X174334704Y-92623138D01*
X174315654Y-92658777D01*
X174290017Y-92690017D01*
X174258777Y-92715654D01*
X174223138Y-92734704D01*
X174184468Y-92746435D01*
X174138112Y-92751000D01*
X173486888Y-92751000D01*
X173440532Y-92746435D01*
X173401862Y-92734704D01*
X173366223Y-92715654D01*
X173334983Y-92690017D01*
X173309346Y-92658777D01*
X173290296Y-92623138D01*
X173278565Y-92584468D01*
X173274000Y-92538112D01*
X173274000Y-91461888D01*
X173278565Y-91415532D01*
X173290296Y-91376862D01*
X173309346Y-91341223D01*
X173334983Y-91309983D01*
X173366223Y-91284346D01*
X173401862Y-91265296D01*
X173440532Y-91253565D01*
X173486888Y-91249000D01*
X174138112Y-91249000D01*
X174184468Y-91253565D01*
G37*
G36*
X176059468Y-91253565D02*
G01*
X176098138Y-91265296D01*
X176133777Y-91284346D01*
X176165017Y-91309983D01*
X176190654Y-91341223D01*
X176209704Y-91376862D01*
X176221435Y-91415532D01*
X176226000Y-91461888D01*
X176226000Y-92538112D01*
X176221435Y-92584468D01*
X176209704Y-92623138D01*
X176190654Y-92658777D01*
X176165017Y-92690017D01*
X176133777Y-92715654D01*
X176098138Y-92734704D01*
X176059468Y-92746435D01*
X176013112Y-92751000D01*
X175361888Y-92751000D01*
X175315532Y-92746435D01*
X175276862Y-92734704D01*
X175241223Y-92715654D01*
X175209983Y-92690017D01*
X175184346Y-92658777D01*
X175165296Y-92623138D01*
X175153565Y-92584468D01*
X175149000Y-92538112D01*
X175149000Y-91461888D01*
X175153565Y-91415532D01*
X175165296Y-91376862D01*
X175184346Y-91341223D01*
X175209983Y-91309983D01*
X175241223Y-91284346D01*
X175276862Y-91265296D01*
X175315532Y-91253565D01*
X175361888Y-91249000D01*
X176013112Y-91249000D01*
X176059468Y-91253565D01*
G37*
G36*
X179184468Y-91253565D02*
G01*
X179223138Y-91265296D01*
X179258777Y-91284346D01*
X179290017Y-91309983D01*
X179315654Y-91341223D01*
X179334704Y-91376862D01*
X179346435Y-91415532D01*
X179351000Y-91461888D01*
X179351000Y-92538112D01*
X179346435Y-92584468D01*
X179334704Y-92623138D01*
X179315654Y-92658777D01*
X179290017Y-92690017D01*
X179258777Y-92715654D01*
X179223138Y-92734704D01*
X179184468Y-92746435D01*
X179138112Y-92751000D01*
X178486888Y-92751000D01*
X178440532Y-92746435D01*
X178401862Y-92734704D01*
X178366223Y-92715654D01*
X178334983Y-92690017D01*
X178309346Y-92658777D01*
X178290296Y-92623138D01*
X178278565Y-92584468D01*
X178274000Y-92538112D01*
X178274000Y-91461888D01*
X178278565Y-91415532D01*
X178290296Y-91376862D01*
X178309346Y-91341223D01*
X178334983Y-91309983D01*
X178366223Y-91284346D01*
X178401862Y-91265296D01*
X178440532Y-91253565D01*
X178486888Y-91249000D01*
X179138112Y-91249000D01*
X179184468Y-91253565D01*
G37*
G36*
X181059468Y-91253565D02*
G01*
X181098138Y-91265296D01*
X181133777Y-91284346D01*
X181165017Y-91309983D01*
X181190654Y-91341223D01*
X181209704Y-91376862D01*
X181221435Y-91415532D01*
X181226000Y-91461888D01*
X181226000Y-92538112D01*
X181221435Y-92584468D01*
X181209704Y-92623138D01*
X181190654Y-92658777D01*
X181165017Y-92690017D01*
X181133777Y-92715654D01*
X181098138Y-92734704D01*
X181059468Y-92746435D01*
X181013112Y-92751000D01*
X180361888Y-92751000D01*
X180315532Y-92746435D01*
X180276862Y-92734704D01*
X180241223Y-92715654D01*
X180209983Y-92690017D01*
X180184346Y-92658777D01*
X180165296Y-92623138D01*
X180153565Y-92584468D01*
X180149000Y-92538112D01*
X180149000Y-91461888D01*
X180153565Y-91415532D01*
X180165296Y-91376862D01*
X180184346Y-91341223D01*
X180209983Y-91309983D01*
X180241223Y-91284346D01*
X180276862Y-91265296D01*
X180315532Y-91253565D01*
X180361888Y-91249000D01*
X181013112Y-91249000D01*
X181059468Y-91253565D01*
G37*
G36*
X184184468Y-91253565D02*
G01*
X184223138Y-91265296D01*
X184258777Y-91284346D01*
X184290017Y-91309983D01*
X184315654Y-91341223D01*
X184334704Y-91376862D01*
X184346435Y-91415532D01*
X184351000Y-91461888D01*
X184351000Y-92538112D01*
X184346435Y-92584468D01*
X184334704Y-92623138D01*
X184315654Y-92658777D01*
X184290017Y-92690017D01*
X184258777Y-92715654D01*
X184223138Y-92734704D01*
X184184468Y-92746435D01*
X184138112Y-92751000D01*
X183486888Y-92751000D01*
X183440532Y-92746435D01*
X183401862Y-92734704D01*
X183366223Y-92715654D01*
X183334983Y-92690017D01*
X183309346Y-92658777D01*
X183290296Y-92623138D01*
X183278565Y-92584468D01*
X183274000Y-92538112D01*
X183274000Y-91461888D01*
X183278565Y-91415532D01*
X183290296Y-91376862D01*
X183309346Y-91341223D01*
X183334983Y-91309983D01*
X183366223Y-91284346D01*
X183401862Y-91265296D01*
X183440532Y-91253565D01*
X183486888Y-91249000D01*
X184138112Y-91249000D01*
X184184468Y-91253565D01*
G37*
G36*
X186059468Y-91253565D02*
G01*
X186098138Y-91265296D01*
X186133777Y-91284346D01*
X186165017Y-91309983D01*
X186190654Y-91341223D01*
X186209704Y-91376862D01*
X186221435Y-91415532D01*
X186226000Y-91461888D01*
X186226000Y-92538112D01*
X186221435Y-92584468D01*
X186209704Y-92623138D01*
X186190654Y-92658777D01*
X186165017Y-92690017D01*
X186133777Y-92715654D01*
X186098138Y-92734704D01*
X186059468Y-92746435D01*
X186013112Y-92751000D01*
X185361888Y-92751000D01*
X185315532Y-92746435D01*
X185276862Y-92734704D01*
X185241223Y-92715654D01*
X185209983Y-92690017D01*
X185184346Y-92658777D01*
X185165296Y-92623138D01*
X185153565Y-92584468D01*
X185149000Y-92538112D01*
X185149000Y-91461888D01*
X185153565Y-91415532D01*
X185165296Y-91376862D01*
X185184346Y-91341223D01*
X185209983Y-91309983D01*
X185241223Y-91284346D01*
X185276862Y-91265296D01*
X185315532Y-91253565D01*
X185361888Y-91249000D01*
X186013112Y-91249000D01*
X186059468Y-91253565D01*
G37*
G36*
X189184468Y-91253565D02*
G01*
X189223138Y-91265296D01*
X189258777Y-91284346D01*
X189290017Y-91309983D01*
X189315654Y-91341223D01*
X189334704Y-91376862D01*
X189346435Y-91415532D01*
X189351000Y-91461888D01*
X189351000Y-92538112D01*
X189346435Y-92584468D01*
X189334704Y-92623138D01*
X189315654Y-92658777D01*
X189290017Y-92690017D01*
X189258777Y-92715654D01*
X189223138Y-92734704D01*
X189184468Y-92746435D01*
X189138112Y-92751000D01*
X188486888Y-92751000D01*
X188440532Y-92746435D01*
X188401862Y-92734704D01*
X188366223Y-92715654D01*
X188334983Y-92690017D01*
X188309346Y-92658777D01*
X188290296Y-92623138D01*
X188278565Y-92584468D01*
X188274000Y-92538112D01*
X188274000Y-91461888D01*
X188278565Y-91415532D01*
X188290296Y-91376862D01*
X188309346Y-91341223D01*
X188334983Y-91309983D01*
X188366223Y-91284346D01*
X188401862Y-91265296D01*
X188440532Y-91253565D01*
X188486888Y-91249000D01*
X189138112Y-91249000D01*
X189184468Y-91253565D01*
G37*
G36*
X191059468Y-91253565D02*
G01*
X191098138Y-91265296D01*
X191133777Y-91284346D01*
X191165017Y-91309983D01*
X191190654Y-91341223D01*
X191209704Y-91376862D01*
X191221435Y-91415532D01*
X191226000Y-91461888D01*
X191226000Y-92538112D01*
X191221435Y-92584468D01*
X191209704Y-92623138D01*
X191190654Y-92658777D01*
X191165017Y-92690017D01*
X191133777Y-92715654D01*
X191098138Y-92734704D01*
X191059468Y-92746435D01*
X191013112Y-92751000D01*
X190361888Y-92751000D01*
X190315532Y-92746435D01*
X190276862Y-92734704D01*
X190241223Y-92715654D01*
X190209983Y-92690017D01*
X190184346Y-92658777D01*
X190165296Y-92623138D01*
X190153565Y-92584468D01*
X190149000Y-92538112D01*
X190149000Y-91461888D01*
X190153565Y-91415532D01*
X190165296Y-91376862D01*
X190184346Y-91341223D01*
X190209983Y-91309983D01*
X190241223Y-91284346D01*
X190276862Y-91265296D01*
X190315532Y-91253565D01*
X190361888Y-91249000D01*
X191013112Y-91249000D01*
X191059468Y-91253565D01*
G37*
G36*
X189184468Y-86253565D02*
G01*
X189223138Y-86265296D01*
X189258777Y-86284346D01*
X189290017Y-86309983D01*
X189315654Y-86341223D01*
X189334704Y-86376862D01*
X189346435Y-86415532D01*
X189351000Y-86461888D01*
X189351000Y-87538112D01*
X189346435Y-87584468D01*
X189334704Y-87623138D01*
X189315654Y-87658777D01*
X189290017Y-87690017D01*
X189258777Y-87715654D01*
X189223138Y-87734704D01*
X189184468Y-87746435D01*
X189138112Y-87751000D01*
X188486888Y-87751000D01*
X188440532Y-87746435D01*
X188401862Y-87734704D01*
X188366223Y-87715654D01*
X188334983Y-87690017D01*
X188309346Y-87658777D01*
X188290296Y-87623138D01*
X188278565Y-87584468D01*
X188274000Y-87538112D01*
X188274000Y-86461888D01*
X188278565Y-86415532D01*
X188290296Y-86376862D01*
X188309346Y-86341223D01*
X188334983Y-86309983D01*
X188366223Y-86284346D01*
X188401862Y-86265296D01*
X188440532Y-86253565D01*
X188486888Y-86249000D01*
X189138112Y-86249000D01*
X189184468Y-86253565D01*
G37*
G36*
X191059468Y-86253565D02*
G01*
X191098138Y-86265296D01*
X191133777Y-86284346D01*
X191165017Y-86309983D01*
X191190654Y-86341223D01*
X191209704Y-86376862D01*
X191221435Y-86415532D01*
X191226000Y-86461888D01*
X191226000Y-87538112D01*
X191221435Y-87584468D01*
X191209704Y-87623138D01*
X191190654Y-87658777D01*
X191165017Y-87690017D01*
X191133777Y-87715654D01*
X191098138Y-87734704D01*
X191059468Y-87746435D01*
X191013112Y-87751000D01*
X190361888Y-87751000D01*
X190315532Y-87746435D01*
X190276862Y-87734704D01*
X190241223Y-87715654D01*
X190209983Y-87690017D01*
X190184346Y-87658777D01*
X190165296Y-87623138D01*
X190153565Y-87584468D01*
X190149000Y-87538112D01*
X190149000Y-86461888D01*
X190153565Y-86415532D01*
X190165296Y-86376862D01*
X190184346Y-86341223D01*
X190209983Y-86309983D01*
X190241223Y-86284346D01*
X190276862Y-86265296D01*
X190315532Y-86253565D01*
X190361888Y-86249000D01*
X191013112Y-86249000D01*
X191059468Y-86253565D01*
G37*
G36*
X186059468Y-86253565D02*
G01*
X186098138Y-86265296D01*
X186133777Y-86284346D01*
X186165017Y-86309983D01*
X186190654Y-86341223D01*
X186209704Y-86376862D01*
X186221435Y-86415532D01*
X186226000Y-86461888D01*
X186226000Y-87538112D01*
X186221435Y-87584468D01*
X186209704Y-87623138D01*
X186190654Y-87658777D01*
X186165017Y-87690017D01*
X186133777Y-87715654D01*
X186098138Y-87734704D01*
X186059468Y-87746435D01*
X186013112Y-87751000D01*
X185361888Y-87751000D01*
X185315532Y-87746435D01*
X185276862Y-87734704D01*
X185241223Y-87715654D01*
X185209983Y-87690017D01*
X185184346Y-87658777D01*
X185165296Y-87623138D01*
X185153565Y-87584468D01*
X185149000Y-87538112D01*
X185149000Y-86461888D01*
X185153565Y-86415532D01*
X185165296Y-86376862D01*
X185184346Y-86341223D01*
X185209983Y-86309983D01*
X185241223Y-86284346D01*
X185276862Y-86265296D01*
X185315532Y-86253565D01*
X185361888Y-86249000D01*
X186013112Y-86249000D01*
X186059468Y-86253565D01*
G37*
G36*
X184184468Y-86253565D02*
G01*
X184223138Y-86265296D01*
X184258777Y-86284346D01*
X184290017Y-86309983D01*
X184315654Y-86341223D01*
X184334704Y-86376862D01*
X184346435Y-86415532D01*
X184351000Y-86461888D01*
X184351000Y-87538112D01*
X184346435Y-87584468D01*
X184334704Y-87623138D01*
X184315654Y-87658777D01*
X184290017Y-87690017D01*
X184258777Y-87715654D01*
X184223138Y-87734704D01*
X184184468Y-87746435D01*
X184138112Y-87751000D01*
X183486888Y-87751000D01*
X183440532Y-87746435D01*
X183401862Y-87734704D01*
X183366223Y-87715654D01*
X183334983Y-87690017D01*
X183309346Y-87658777D01*
X183290296Y-87623138D01*
X183278565Y-87584468D01*
X183274000Y-87538112D01*
X183274000Y-86461888D01*
X183278565Y-86415532D01*
X183290296Y-86376862D01*
X183309346Y-86341223D01*
X183334983Y-86309983D01*
X183366223Y-86284346D01*
X183401862Y-86265296D01*
X183440532Y-86253565D01*
X183486888Y-86249000D01*
X184138112Y-86249000D01*
X184184468Y-86253565D01*
G37*
G36*
X181059468Y-86253565D02*
G01*
X181098138Y-86265296D01*
X181133777Y-86284346D01*
X181165017Y-86309983D01*
X181190654Y-86341223D01*
X181209704Y-86376862D01*
X181221435Y-86415532D01*
X181226000Y-86461888D01*
X181226000Y-87538112D01*
X181221435Y-87584468D01*
X181209704Y-87623138D01*
X181190654Y-87658777D01*
X181165017Y-87690017D01*
X181133777Y-87715654D01*
X181098138Y-87734704D01*
X181059468Y-87746435D01*
X181013112Y-87751000D01*
X180361888Y-87751000D01*
X180315532Y-87746435D01*
X180276862Y-87734704D01*
X180241223Y-87715654D01*
X180209983Y-87690017D01*
X180184346Y-87658777D01*
X180165296Y-87623138D01*
X180153565Y-87584468D01*
X180149000Y-87538112D01*
X180149000Y-86461888D01*
X180153565Y-86415532D01*
X180165296Y-86376862D01*
X180184346Y-86341223D01*
X180209983Y-86309983D01*
X180241223Y-86284346D01*
X180276862Y-86265296D01*
X180315532Y-86253565D01*
X180361888Y-86249000D01*
X181013112Y-86249000D01*
X181059468Y-86253565D01*
G37*
G36*
X179184468Y-86253565D02*
G01*
X179223138Y-86265296D01*
X179258777Y-86284346D01*
X179290017Y-86309983D01*
X179315654Y-86341223D01*
X179334704Y-86376862D01*
X179346435Y-86415532D01*
X179351000Y-86461888D01*
X179351000Y-87538112D01*
X179346435Y-87584468D01*
X179334704Y-87623138D01*
X179315654Y-87658777D01*
X179290017Y-87690017D01*
X179258777Y-87715654D01*
X179223138Y-87734704D01*
X179184468Y-87746435D01*
X179138112Y-87751000D01*
X178486888Y-87751000D01*
X178440532Y-87746435D01*
X178401862Y-87734704D01*
X178366223Y-87715654D01*
X178334983Y-87690017D01*
X178309346Y-87658777D01*
X178290296Y-87623138D01*
X178278565Y-87584468D01*
X178274000Y-87538112D01*
X178274000Y-86461888D01*
X178278565Y-86415532D01*
X178290296Y-86376862D01*
X178309346Y-86341223D01*
X178334983Y-86309983D01*
X178366223Y-86284346D01*
X178401862Y-86265296D01*
X178440532Y-86253565D01*
X178486888Y-86249000D01*
X179138112Y-86249000D01*
X179184468Y-86253565D01*
G37*
G36*
X176059468Y-86253565D02*
G01*
X176098138Y-86265296D01*
X176133777Y-86284346D01*
X176165017Y-86309983D01*
X176190654Y-86341223D01*
X176209704Y-86376862D01*
X176221435Y-86415532D01*
X176226000Y-86461888D01*
X176226000Y-87538112D01*
X176221435Y-87584468D01*
X176209704Y-87623138D01*
X176190654Y-87658777D01*
X176165017Y-87690017D01*
X176133777Y-87715654D01*
X176098138Y-87734704D01*
X176059468Y-87746435D01*
X176013112Y-87751000D01*
X175361888Y-87751000D01*
X175315532Y-87746435D01*
X175276862Y-87734704D01*
X175241223Y-87715654D01*
X175209983Y-87690017D01*
X175184346Y-87658777D01*
X175165296Y-87623138D01*
X175153565Y-87584468D01*
X175149000Y-87538112D01*
X175149000Y-86461888D01*
X175153565Y-86415532D01*
X175165296Y-86376862D01*
X175184346Y-86341223D01*
X175209983Y-86309983D01*
X175241223Y-86284346D01*
X175276862Y-86265296D01*
X175315532Y-86253565D01*
X175361888Y-86249000D01*
X176013112Y-86249000D01*
X176059468Y-86253565D01*
G37*
G36*
X174184468Y-86253565D02*
G01*
X174223138Y-86265296D01*
X174258777Y-86284346D01*
X174290017Y-86309983D01*
X174315654Y-86341223D01*
X174334704Y-86376862D01*
X174346435Y-86415532D01*
X174351000Y-86461888D01*
X174351000Y-87538112D01*
X174346435Y-87584468D01*
X174334704Y-87623138D01*
X174315654Y-87658777D01*
X174290017Y-87690017D01*
X174258777Y-87715654D01*
X174223138Y-87734704D01*
X174184468Y-87746435D01*
X174138112Y-87751000D01*
X173486888Y-87751000D01*
X173440532Y-87746435D01*
X173401862Y-87734704D01*
X173366223Y-87715654D01*
X173334983Y-87690017D01*
X173309346Y-87658777D01*
X173290296Y-87623138D01*
X173278565Y-87584468D01*
X173274000Y-87538112D01*
X173274000Y-86461888D01*
X173278565Y-86415532D01*
X173290296Y-86376862D01*
X173309346Y-86341223D01*
X173334983Y-86309983D01*
X173366223Y-86284346D01*
X173401862Y-86265296D01*
X173440532Y-86253565D01*
X173486888Y-86249000D01*
X174138112Y-86249000D01*
X174184468Y-86253565D01*
G37*
G36*
X171059468Y-86253565D02*
G01*
X171098138Y-86265296D01*
X171133777Y-86284346D01*
X171165017Y-86309983D01*
X171190654Y-86341223D01*
X171209704Y-86376862D01*
X171221435Y-86415532D01*
X171226000Y-86461888D01*
X171226000Y-87538112D01*
X171221435Y-87584468D01*
X171209704Y-87623138D01*
X171190654Y-87658777D01*
X171165017Y-87690017D01*
X171133777Y-87715654D01*
X171098138Y-87734704D01*
X171059468Y-87746435D01*
X171013112Y-87751000D01*
X170361888Y-87751000D01*
X170315532Y-87746435D01*
X170276862Y-87734704D01*
X170241223Y-87715654D01*
X170209983Y-87690017D01*
X170184346Y-87658777D01*
X170165296Y-87623138D01*
X170153565Y-87584468D01*
X170149000Y-87538112D01*
X170149000Y-86461888D01*
X170153565Y-86415532D01*
X170165296Y-86376862D01*
X170184346Y-86341223D01*
X170209983Y-86309983D01*
X170241223Y-86284346D01*
X170276862Y-86265296D01*
X170315532Y-86253565D01*
X170361888Y-86249000D01*
X171013112Y-86249000D01*
X171059468Y-86253565D01*
G37*
G36*
X169184468Y-86253565D02*
G01*
X169223138Y-86265296D01*
X169258777Y-86284346D01*
X169290017Y-86309983D01*
X169315654Y-86341223D01*
X169334704Y-86376862D01*
X169346435Y-86415532D01*
X169351000Y-86461888D01*
X169351000Y-87538112D01*
X169346435Y-87584468D01*
X169334704Y-87623138D01*
X169315654Y-87658777D01*
X169290017Y-87690017D01*
X169258777Y-87715654D01*
X169223138Y-87734704D01*
X169184468Y-87746435D01*
X169138112Y-87751000D01*
X168486888Y-87751000D01*
X168440532Y-87746435D01*
X168401862Y-87734704D01*
X168366223Y-87715654D01*
X168334983Y-87690017D01*
X168309346Y-87658777D01*
X168290296Y-87623138D01*
X168278565Y-87584468D01*
X168274000Y-87538112D01*
X168274000Y-86461888D01*
X168278565Y-86415532D01*
X168290296Y-86376862D01*
X168309346Y-86341223D01*
X168334983Y-86309983D01*
X168366223Y-86284346D01*
X168401862Y-86265296D01*
X168440532Y-86253565D01*
X168486888Y-86249000D01*
X169138112Y-86249000D01*
X169184468Y-86253565D01*
G37*
G36*
X166059468Y-86253565D02*
G01*
X166098138Y-86265296D01*
X166133777Y-86284346D01*
X166165017Y-86309983D01*
X166190654Y-86341223D01*
X166209704Y-86376862D01*
X166221435Y-86415532D01*
X166226000Y-86461888D01*
X166226000Y-87538112D01*
X166221435Y-87584468D01*
X166209704Y-87623138D01*
X166190654Y-87658777D01*
X166165017Y-87690017D01*
X166133777Y-87715654D01*
X166098138Y-87734704D01*
X166059468Y-87746435D01*
X166013112Y-87751000D01*
X165361888Y-87751000D01*
X165315532Y-87746435D01*
X165276862Y-87734704D01*
X165241223Y-87715654D01*
X165209983Y-87690017D01*
X165184346Y-87658777D01*
X165165296Y-87623138D01*
X165153565Y-87584468D01*
X165149000Y-87538112D01*
X165149000Y-86461888D01*
X165153565Y-86415532D01*
X165165296Y-86376862D01*
X165184346Y-86341223D01*
X165209983Y-86309983D01*
X165241223Y-86284346D01*
X165276862Y-86265296D01*
X165315532Y-86253565D01*
X165361888Y-86249000D01*
X166013112Y-86249000D01*
X166059468Y-86253565D01*
G37*
G36*
X164184468Y-86253565D02*
G01*
X164223138Y-86265296D01*
X164258777Y-86284346D01*
X164290017Y-86309983D01*
X164315654Y-86341223D01*
X164334704Y-86376862D01*
X164346435Y-86415532D01*
X164351000Y-86461888D01*
X164351000Y-87538112D01*
X164346435Y-87584468D01*
X164334704Y-87623138D01*
X164315654Y-87658777D01*
X164290017Y-87690017D01*
X164258777Y-87715654D01*
X164223138Y-87734704D01*
X164184468Y-87746435D01*
X164138112Y-87751000D01*
X163486888Y-87751000D01*
X163440532Y-87746435D01*
X163401862Y-87734704D01*
X163366223Y-87715654D01*
X163334983Y-87690017D01*
X163309346Y-87658777D01*
X163290296Y-87623138D01*
X163278565Y-87584468D01*
X163274000Y-87538112D01*
X163274000Y-86461888D01*
X163278565Y-86415532D01*
X163290296Y-86376862D01*
X163309346Y-86341223D01*
X163334983Y-86309983D01*
X163366223Y-86284346D01*
X163401862Y-86265296D01*
X163440532Y-86253565D01*
X163486888Y-86249000D01*
X164138112Y-86249000D01*
X164184468Y-86253565D01*
G37*
G36*
X161059468Y-86253565D02*
G01*
X161098138Y-86265296D01*
X161133777Y-86284346D01*
X161165017Y-86309983D01*
X161190654Y-86341223D01*
X161209704Y-86376862D01*
X161221435Y-86415532D01*
X161226000Y-86461888D01*
X161226000Y-87538112D01*
X161221435Y-87584468D01*
X161209704Y-87623138D01*
X161190654Y-87658777D01*
X161165017Y-87690017D01*
X161133777Y-87715654D01*
X161098138Y-87734704D01*
X161059468Y-87746435D01*
X161013112Y-87751000D01*
X160361888Y-87751000D01*
X160315532Y-87746435D01*
X160276862Y-87734704D01*
X160241223Y-87715654D01*
X160209983Y-87690017D01*
X160184346Y-87658777D01*
X160165296Y-87623138D01*
X160153565Y-87584468D01*
X160149000Y-87538112D01*
X160149000Y-86461888D01*
X160153565Y-86415532D01*
X160165296Y-86376862D01*
X160184346Y-86341223D01*
X160209983Y-86309983D01*
X160241223Y-86284346D01*
X160276862Y-86265296D01*
X160315532Y-86253565D01*
X160361888Y-86249000D01*
X161013112Y-86249000D01*
X161059468Y-86253565D01*
G37*
G36*
X159184468Y-86253565D02*
G01*
X159223138Y-86265296D01*
X159258777Y-86284346D01*
X159290017Y-86309983D01*
X159315654Y-86341223D01*
X159334704Y-86376862D01*
X159346435Y-86415532D01*
X159351000Y-86461888D01*
X159351000Y-87538112D01*
X159346435Y-87584468D01*
X159334704Y-87623138D01*
X159315654Y-87658777D01*
X159290017Y-87690017D01*
X159258777Y-87715654D01*
X159223138Y-87734704D01*
X159184468Y-87746435D01*
X159138112Y-87751000D01*
X158486888Y-87751000D01*
X158440532Y-87746435D01*
X158401862Y-87734704D01*
X158366223Y-87715654D01*
X158334983Y-87690017D01*
X158309346Y-87658777D01*
X158290296Y-87623138D01*
X158278565Y-87584468D01*
X158274000Y-87538112D01*
X158274000Y-86461888D01*
X158278565Y-86415532D01*
X158290296Y-86376862D01*
X158309346Y-86341223D01*
X158334983Y-86309983D01*
X158366223Y-86284346D01*
X158401862Y-86265296D01*
X158440532Y-86253565D01*
X158486888Y-86249000D01*
X159138112Y-86249000D01*
X159184468Y-86253565D01*
G37*
G36*
X156059468Y-86253565D02*
G01*
X156098138Y-86265296D01*
X156133777Y-86284346D01*
X156165017Y-86309983D01*
X156190654Y-86341223D01*
X156209704Y-86376862D01*
X156221435Y-86415532D01*
X156226000Y-86461888D01*
X156226000Y-87538112D01*
X156221435Y-87584468D01*
X156209704Y-87623138D01*
X156190654Y-87658777D01*
X156165017Y-87690017D01*
X156133777Y-87715654D01*
X156098138Y-87734704D01*
X156059468Y-87746435D01*
X156013112Y-87751000D01*
X155361888Y-87751000D01*
X155315532Y-87746435D01*
X155276862Y-87734704D01*
X155241223Y-87715654D01*
X155209983Y-87690017D01*
X155184346Y-87658777D01*
X155165296Y-87623138D01*
X155153565Y-87584468D01*
X155149000Y-87538112D01*
X155149000Y-86461888D01*
X155153565Y-86415532D01*
X155165296Y-86376862D01*
X155184346Y-86341223D01*
X155209983Y-86309983D01*
X155241223Y-86284346D01*
X155276862Y-86265296D01*
X155315532Y-86253565D01*
X155361888Y-86249000D01*
X156013112Y-86249000D01*
X156059468Y-86253565D01*
G37*
G36*
X154184468Y-86253565D02*
G01*
X154223138Y-86265296D01*
X154258777Y-86284346D01*
X154290017Y-86309983D01*
X154315654Y-86341223D01*
X154334704Y-86376862D01*
X154346435Y-86415532D01*
X154351000Y-86461888D01*
X154351000Y-87538112D01*
X154346435Y-87584468D01*
X154334704Y-87623138D01*
X154315654Y-87658777D01*
X154290017Y-87690017D01*
X154258777Y-87715654D01*
X154223138Y-87734704D01*
X154184468Y-87746435D01*
X154138112Y-87751000D01*
X153486888Y-87751000D01*
X153440532Y-87746435D01*
X153401862Y-87734704D01*
X153366223Y-87715654D01*
X153334983Y-87690017D01*
X153309346Y-87658777D01*
X153290296Y-87623138D01*
X153278565Y-87584468D01*
X153274000Y-87538112D01*
X153274000Y-86461888D01*
X153278565Y-86415532D01*
X153290296Y-86376862D01*
X153309346Y-86341223D01*
X153334983Y-86309983D01*
X153366223Y-86284346D01*
X153401862Y-86265296D01*
X153440532Y-86253565D01*
X153486888Y-86249000D01*
X154138112Y-86249000D01*
X154184468Y-86253565D01*
G37*
G36*
X159184468Y-81253565D02*
G01*
X159223138Y-81265296D01*
X159258777Y-81284346D01*
X159290017Y-81309983D01*
X159315654Y-81341223D01*
X159334704Y-81376862D01*
X159346435Y-81415532D01*
X159351000Y-81461888D01*
X159351000Y-82538112D01*
X159346435Y-82584468D01*
X159334704Y-82623138D01*
X159315654Y-82658777D01*
X159290017Y-82690017D01*
X159258777Y-82715654D01*
X159223138Y-82734704D01*
X159184468Y-82746435D01*
X159138112Y-82751000D01*
X158486888Y-82751000D01*
X158440532Y-82746435D01*
X158401862Y-82734704D01*
X158366223Y-82715654D01*
X158334983Y-82690017D01*
X158309346Y-82658777D01*
X158290296Y-82623138D01*
X158278565Y-82584468D01*
X158274000Y-82538112D01*
X158274000Y-81461888D01*
X158278565Y-81415532D01*
X158290296Y-81376862D01*
X158309346Y-81341223D01*
X158334983Y-81309983D01*
X158366223Y-81284346D01*
X158401862Y-81265296D01*
X158440532Y-81253565D01*
X158486888Y-81249000D01*
X159138112Y-81249000D01*
X159184468Y-81253565D01*
G37*
G36*
X161059468Y-81253565D02*
G01*
X161098138Y-81265296D01*
X161133777Y-81284346D01*
X161165017Y-81309983D01*
X161190654Y-81341223D01*
X161209704Y-81376862D01*
X161221435Y-81415532D01*
X161226000Y-81461888D01*
X161226000Y-82538112D01*
X161221435Y-82584468D01*
X161209704Y-82623138D01*
X161190654Y-82658777D01*
X161165017Y-82690017D01*
X161133777Y-82715654D01*
X161098138Y-82734704D01*
X161059468Y-82746435D01*
X161013112Y-82751000D01*
X160361888Y-82751000D01*
X160315532Y-82746435D01*
X160276862Y-82734704D01*
X160241223Y-82715654D01*
X160209983Y-82690017D01*
X160184346Y-82658777D01*
X160165296Y-82623138D01*
X160153565Y-82584468D01*
X160149000Y-82538112D01*
X160149000Y-81461888D01*
X160153565Y-81415532D01*
X160165296Y-81376862D01*
X160184346Y-81341223D01*
X160209983Y-81309983D01*
X160241223Y-81284346D01*
X160276862Y-81265296D01*
X160315532Y-81253565D01*
X160361888Y-81249000D01*
X161013112Y-81249000D01*
X161059468Y-81253565D01*
G37*
G36*
X164184468Y-81253565D02*
G01*
X164223138Y-81265296D01*
X164258777Y-81284346D01*
X164290017Y-81309983D01*
X164315654Y-81341223D01*
X164334704Y-81376862D01*
X164346435Y-81415532D01*
X164351000Y-81461888D01*
X164351000Y-82538112D01*
X164346435Y-82584468D01*
X164334704Y-82623138D01*
X164315654Y-82658777D01*
X164290017Y-82690017D01*
X164258777Y-82715654D01*
X164223138Y-82734704D01*
X164184468Y-82746435D01*
X164138112Y-82751000D01*
X163486888Y-82751000D01*
X163440532Y-82746435D01*
X163401862Y-82734704D01*
X163366223Y-82715654D01*
X163334983Y-82690017D01*
X163309346Y-82658777D01*
X163290296Y-82623138D01*
X163278565Y-82584468D01*
X163274000Y-82538112D01*
X163274000Y-81461888D01*
X163278565Y-81415532D01*
X163290296Y-81376862D01*
X163309346Y-81341223D01*
X163334983Y-81309983D01*
X163366223Y-81284346D01*
X163401862Y-81265296D01*
X163440532Y-81253565D01*
X163486888Y-81249000D01*
X164138112Y-81249000D01*
X164184468Y-81253565D01*
G37*
G36*
X166059468Y-81253565D02*
G01*
X166098138Y-81265296D01*
X166133777Y-81284346D01*
X166165017Y-81309983D01*
X166190654Y-81341223D01*
X166209704Y-81376862D01*
X166221435Y-81415532D01*
X166226000Y-81461888D01*
X166226000Y-82538112D01*
X166221435Y-82584468D01*
X166209704Y-82623138D01*
X166190654Y-82658777D01*
X166165017Y-82690017D01*
X166133777Y-82715654D01*
X166098138Y-82734704D01*
X166059468Y-82746435D01*
X166013112Y-82751000D01*
X165361888Y-82751000D01*
X165315532Y-82746435D01*
X165276862Y-82734704D01*
X165241223Y-82715654D01*
X165209983Y-82690017D01*
X165184346Y-82658777D01*
X165165296Y-82623138D01*
X165153565Y-82584468D01*
X165149000Y-82538112D01*
X165149000Y-81461888D01*
X165153565Y-81415532D01*
X165165296Y-81376862D01*
X165184346Y-81341223D01*
X165209983Y-81309983D01*
X165241223Y-81284346D01*
X165276862Y-81265296D01*
X165315532Y-81253565D01*
X165361888Y-81249000D01*
X166013112Y-81249000D01*
X166059468Y-81253565D01*
G37*
G36*
X169184468Y-81253565D02*
G01*
X169223138Y-81265296D01*
X169258777Y-81284346D01*
X169290017Y-81309983D01*
X169315654Y-81341223D01*
X169334704Y-81376862D01*
X169346435Y-81415532D01*
X169351000Y-81461888D01*
X169351000Y-82538112D01*
X169346435Y-82584468D01*
X169334704Y-82623138D01*
X169315654Y-82658777D01*
X169290017Y-82690017D01*
X169258777Y-82715654D01*
X169223138Y-82734704D01*
X169184468Y-82746435D01*
X169138112Y-82751000D01*
X168486888Y-82751000D01*
X168440532Y-82746435D01*
X168401862Y-82734704D01*
X168366223Y-82715654D01*
X168334983Y-82690017D01*
X168309346Y-82658777D01*
X168290296Y-82623138D01*
X168278565Y-82584468D01*
X168274000Y-82538112D01*
X168274000Y-81461888D01*
X168278565Y-81415532D01*
X168290296Y-81376862D01*
X168309346Y-81341223D01*
X168334983Y-81309983D01*
X168366223Y-81284346D01*
X168401862Y-81265296D01*
X168440532Y-81253565D01*
X168486888Y-81249000D01*
X169138112Y-81249000D01*
X169184468Y-81253565D01*
G37*
G36*
X171059468Y-81253565D02*
G01*
X171098138Y-81265296D01*
X171133777Y-81284346D01*
X171165017Y-81309983D01*
X171190654Y-81341223D01*
X171209704Y-81376862D01*
X171221435Y-81415532D01*
X171226000Y-81461888D01*
X171226000Y-82538112D01*
X171221435Y-82584468D01*
X171209704Y-82623138D01*
X171190654Y-82658777D01*
X171165017Y-82690017D01*
X171133777Y-82715654D01*
X171098138Y-82734704D01*
X171059468Y-82746435D01*
X171013112Y-82751000D01*
X170361888Y-82751000D01*
X170315532Y-82746435D01*
X170276862Y-82734704D01*
X170241223Y-82715654D01*
X170209983Y-82690017D01*
X170184346Y-82658777D01*
X170165296Y-82623138D01*
X170153565Y-82584468D01*
X170149000Y-82538112D01*
X170149000Y-81461888D01*
X170153565Y-81415532D01*
X170165296Y-81376862D01*
X170184346Y-81341223D01*
X170209983Y-81309983D01*
X170241223Y-81284346D01*
X170276862Y-81265296D01*
X170315532Y-81253565D01*
X170361888Y-81249000D01*
X171013112Y-81249000D01*
X171059468Y-81253565D01*
G37*
G36*
X174184468Y-81253565D02*
G01*
X174223138Y-81265296D01*
X174258777Y-81284346D01*
X174290017Y-81309983D01*
X174315654Y-81341223D01*
X174334704Y-81376862D01*
X174346435Y-81415532D01*
X174351000Y-81461888D01*
X174351000Y-82538112D01*
X174346435Y-82584468D01*
X174334704Y-82623138D01*
X174315654Y-82658777D01*
X174290017Y-82690017D01*
X174258777Y-82715654D01*
X174223138Y-82734704D01*
X174184468Y-82746435D01*
X174138112Y-82751000D01*
X173486888Y-82751000D01*
X173440532Y-82746435D01*
X173401862Y-82734704D01*
X173366223Y-82715654D01*
X173334983Y-82690017D01*
X173309346Y-82658777D01*
X173290296Y-82623138D01*
X173278565Y-82584468D01*
X173274000Y-82538112D01*
X173274000Y-81461888D01*
X173278565Y-81415532D01*
X173290296Y-81376862D01*
X173309346Y-81341223D01*
X173334983Y-81309983D01*
X173366223Y-81284346D01*
X173401862Y-81265296D01*
X173440532Y-81253565D01*
X173486888Y-81249000D01*
X174138112Y-81249000D01*
X174184468Y-81253565D01*
G37*
G36*
X176059468Y-81253565D02*
G01*
X176098138Y-81265296D01*
X176133777Y-81284346D01*
X176165017Y-81309983D01*
X176190654Y-81341223D01*
X176209704Y-81376862D01*
X176221435Y-81415532D01*
X176226000Y-81461888D01*
X176226000Y-82538112D01*
X176221435Y-82584468D01*
X176209704Y-82623138D01*
X176190654Y-82658777D01*
X176165017Y-82690017D01*
X176133777Y-82715654D01*
X176098138Y-82734704D01*
X176059468Y-82746435D01*
X176013112Y-82751000D01*
X175361888Y-82751000D01*
X175315532Y-82746435D01*
X175276862Y-82734704D01*
X175241223Y-82715654D01*
X175209983Y-82690017D01*
X175184346Y-82658777D01*
X175165296Y-82623138D01*
X175153565Y-82584468D01*
X175149000Y-82538112D01*
X175149000Y-81461888D01*
X175153565Y-81415532D01*
X175165296Y-81376862D01*
X175184346Y-81341223D01*
X175209983Y-81309983D01*
X175241223Y-81284346D01*
X175276862Y-81265296D01*
X175315532Y-81253565D01*
X175361888Y-81249000D01*
X176013112Y-81249000D01*
X176059468Y-81253565D01*
G37*
G36*
X179184468Y-81253565D02*
G01*
X179223138Y-81265296D01*
X179258777Y-81284346D01*
X179290017Y-81309983D01*
X179315654Y-81341223D01*
X179334704Y-81376862D01*
X179346435Y-81415532D01*
X179351000Y-81461888D01*
X179351000Y-82538112D01*
X179346435Y-82584468D01*
X179334704Y-82623138D01*
X179315654Y-82658777D01*
X179290017Y-82690017D01*
X179258777Y-82715654D01*
X179223138Y-82734704D01*
X179184468Y-82746435D01*
X179138112Y-82751000D01*
X178486888Y-82751000D01*
X178440532Y-82746435D01*
X178401862Y-82734704D01*
X178366223Y-82715654D01*
X178334983Y-82690017D01*
X178309346Y-82658777D01*
X178290296Y-82623138D01*
X178278565Y-82584468D01*
X178274000Y-82538112D01*
X178274000Y-81461888D01*
X178278565Y-81415532D01*
X178290296Y-81376862D01*
X178309346Y-81341223D01*
X178334983Y-81309983D01*
X178366223Y-81284346D01*
X178401862Y-81265296D01*
X178440532Y-81253565D01*
X178486888Y-81249000D01*
X179138112Y-81249000D01*
X179184468Y-81253565D01*
G37*
G36*
X181059468Y-81253565D02*
G01*
X181098138Y-81265296D01*
X181133777Y-81284346D01*
X181165017Y-81309983D01*
X181190654Y-81341223D01*
X181209704Y-81376862D01*
X181221435Y-81415532D01*
X181226000Y-81461888D01*
X181226000Y-82538112D01*
X181221435Y-82584468D01*
X181209704Y-82623138D01*
X181190654Y-82658777D01*
X181165017Y-82690017D01*
X181133777Y-82715654D01*
X181098138Y-82734704D01*
X181059468Y-82746435D01*
X181013112Y-82751000D01*
X180361888Y-82751000D01*
X180315532Y-82746435D01*
X180276862Y-82734704D01*
X180241223Y-82715654D01*
X180209983Y-82690017D01*
X180184346Y-82658777D01*
X180165296Y-82623138D01*
X180153565Y-82584468D01*
X180149000Y-82538112D01*
X180149000Y-81461888D01*
X180153565Y-81415532D01*
X180165296Y-81376862D01*
X180184346Y-81341223D01*
X180209983Y-81309983D01*
X180241223Y-81284346D01*
X180276862Y-81265296D01*
X180315532Y-81253565D01*
X180361888Y-81249000D01*
X181013112Y-81249000D01*
X181059468Y-81253565D01*
G37*
G36*
X184184468Y-81253565D02*
G01*
X184223138Y-81265296D01*
X184258777Y-81284346D01*
X184290017Y-81309983D01*
X184315654Y-81341223D01*
X184334704Y-81376862D01*
X184346435Y-81415532D01*
X184351000Y-81461888D01*
X184351000Y-82538112D01*
X184346435Y-82584468D01*
X184334704Y-82623138D01*
X184315654Y-82658777D01*
X184290017Y-82690017D01*
X184258777Y-82715654D01*
X184223138Y-82734704D01*
X184184468Y-82746435D01*
X184138112Y-82751000D01*
X183486888Y-82751000D01*
X183440532Y-82746435D01*
X183401862Y-82734704D01*
X183366223Y-82715654D01*
X183334983Y-82690017D01*
X183309346Y-82658777D01*
X183290296Y-82623138D01*
X183278565Y-82584468D01*
X183274000Y-82538112D01*
X183274000Y-81461888D01*
X183278565Y-81415532D01*
X183290296Y-81376862D01*
X183309346Y-81341223D01*
X183334983Y-81309983D01*
X183366223Y-81284346D01*
X183401862Y-81265296D01*
X183440532Y-81253565D01*
X183486888Y-81249000D01*
X184138112Y-81249000D01*
X184184468Y-81253565D01*
G37*
G36*
X186059468Y-81253565D02*
G01*
X186098138Y-81265296D01*
X186133777Y-81284346D01*
X186165017Y-81309983D01*
X186190654Y-81341223D01*
X186209704Y-81376862D01*
X186221435Y-81415532D01*
X186226000Y-81461888D01*
X186226000Y-82538112D01*
X186221435Y-82584468D01*
X186209704Y-82623138D01*
X186190654Y-82658777D01*
X186165017Y-82690017D01*
X186133777Y-82715654D01*
X186098138Y-82734704D01*
X186059468Y-82746435D01*
X186013112Y-82751000D01*
X185361888Y-82751000D01*
X185315532Y-82746435D01*
X185276862Y-82734704D01*
X185241223Y-82715654D01*
X185209983Y-82690017D01*
X185184346Y-82658777D01*
X185165296Y-82623138D01*
X185153565Y-82584468D01*
X185149000Y-82538112D01*
X185149000Y-81461888D01*
X185153565Y-81415532D01*
X185165296Y-81376862D01*
X185184346Y-81341223D01*
X185209983Y-81309983D01*
X185241223Y-81284346D01*
X185276862Y-81265296D01*
X185315532Y-81253565D01*
X185361888Y-81249000D01*
X186013112Y-81249000D01*
X186059468Y-81253565D01*
G37*
G36*
X189184468Y-81253565D02*
G01*
X189223138Y-81265296D01*
X189258777Y-81284346D01*
X189290017Y-81309983D01*
X189315654Y-81341223D01*
X189334704Y-81376862D01*
X189346435Y-81415532D01*
X189351000Y-81461888D01*
X189351000Y-82538112D01*
X189346435Y-82584468D01*
X189334704Y-82623138D01*
X189315654Y-82658777D01*
X189290017Y-82690017D01*
X189258777Y-82715654D01*
X189223138Y-82734704D01*
X189184468Y-82746435D01*
X189138112Y-82751000D01*
X188486888Y-82751000D01*
X188440532Y-82746435D01*
X188401862Y-82734704D01*
X188366223Y-82715654D01*
X188334983Y-82690017D01*
X188309346Y-82658777D01*
X188290296Y-82623138D01*
X188278565Y-82584468D01*
X188274000Y-82538112D01*
X188274000Y-81461888D01*
X188278565Y-81415532D01*
X188290296Y-81376862D01*
X188309346Y-81341223D01*
X188334983Y-81309983D01*
X188366223Y-81284346D01*
X188401862Y-81265296D01*
X188440532Y-81253565D01*
X188486888Y-81249000D01*
X189138112Y-81249000D01*
X189184468Y-81253565D01*
G37*
G36*
X191059468Y-81253565D02*
G01*
X191098138Y-81265296D01*
X191133777Y-81284346D01*
X191165017Y-81309983D01*
X191190654Y-81341223D01*
X191209704Y-81376862D01*
X191221435Y-81415532D01*
X191226000Y-81461888D01*
X191226000Y-82538112D01*
X191221435Y-82584468D01*
X191209704Y-82623138D01*
X191190654Y-82658777D01*
X191165017Y-82690017D01*
X191133777Y-82715654D01*
X191098138Y-82734704D01*
X191059468Y-82746435D01*
X191013112Y-82751000D01*
X190361888Y-82751000D01*
X190315532Y-82746435D01*
X190276862Y-82734704D01*
X190241223Y-82715654D01*
X190209983Y-82690017D01*
X190184346Y-82658777D01*
X190165296Y-82623138D01*
X190153565Y-82584468D01*
X190149000Y-82538112D01*
X190149000Y-81461888D01*
X190153565Y-81415532D01*
X190165296Y-81376862D01*
X190184346Y-81341223D01*
X190209983Y-81309983D01*
X190241223Y-81284346D01*
X190276862Y-81265296D01*
X190315532Y-81253565D01*
X190361888Y-81249000D01*
X191013112Y-81249000D01*
X191059468Y-81253565D01*
G37*
G36*
X156059468Y-81253565D02*
G01*
X156098138Y-81265296D01*
X156133777Y-81284346D01*
X156165017Y-81309983D01*
X156190654Y-81341223D01*
X156209704Y-81376862D01*
X156221435Y-81415532D01*
X156226000Y-81461888D01*
X156226000Y-82538112D01*
X156221435Y-82584468D01*
X156209704Y-82623138D01*
X156190654Y-82658777D01*
X156165017Y-82690017D01*
X156133777Y-82715654D01*
X156098138Y-82734704D01*
X156059468Y-82746435D01*
X156013112Y-82751000D01*
X155361888Y-82751000D01*
X155315532Y-82746435D01*
X155276862Y-82734704D01*
X155241223Y-82715654D01*
X155209983Y-82690017D01*
X155184346Y-82658777D01*
X155165296Y-82623138D01*
X155153565Y-82584468D01*
X155149000Y-82538112D01*
X155149000Y-81461888D01*
X155153565Y-81415532D01*
X155165296Y-81376862D01*
X155184346Y-81341223D01*
X155209983Y-81309983D01*
X155241223Y-81284346D01*
X155276862Y-81265296D01*
X155315532Y-81253565D01*
X155361888Y-81249000D01*
X156013112Y-81249000D01*
X156059468Y-81253565D01*
G37*
G36*
X154184468Y-81253565D02*
G01*
X154223138Y-81265296D01*
X154258777Y-81284346D01*
X154290017Y-81309983D01*
X154315654Y-81341223D01*
X154334704Y-81376862D01*
X154346435Y-81415532D01*
X154351000Y-81461888D01*
X154351000Y-82538112D01*
X154346435Y-82584468D01*
X154334704Y-82623138D01*
X154315654Y-82658777D01*
X154290017Y-82690017D01*
X154258777Y-82715654D01*
X154223138Y-82734704D01*
X154184468Y-82746435D01*
X154138112Y-82751000D01*
X153486888Y-82751000D01*
X153440532Y-82746435D01*
X153401862Y-82734704D01*
X153366223Y-82715654D01*
X153334983Y-82690017D01*
X153309346Y-82658777D01*
X153290296Y-82623138D01*
X153278565Y-82584468D01*
X153274000Y-82538112D01*
X153274000Y-81461888D01*
X153278565Y-81415532D01*
X153290296Y-81376862D01*
X153309346Y-81341223D01*
X153334983Y-81309983D01*
X153366223Y-81284346D01*
X153401862Y-81265296D01*
X153440532Y-81253565D01*
X153486888Y-81249000D01*
X154138112Y-81249000D01*
X154184468Y-81253565D01*
G37*
M02*
