G04 #@! TF.GenerationSoftware,KiCad,Pcbnew,7.0.5-0*
G04 #@! TF.CreationDate,2023-07-23T22:29:31-04:00*
G04 #@! TF.ProjectId,business_card,62757369-6e65-4737-935f-636172642e6b,rev?*
G04 #@! TF.SameCoordinates,Original*
G04 #@! TF.FileFunction,Copper,L1,Top*
G04 #@! TF.FilePolarity,Positive*
%FSLAX46Y46*%
G04 Gerber Fmt 4.6, Leading zero omitted, Abs format (unit mm)*
G04 Created by KiCad (PCBNEW 7.0.5-0) date 2023-07-23 22:29:31*
%MOMM*%
%LPD*%
G01*
G04 APERTURE LIST*
G04 Aperture macros list*
%AMRoundRect*
0 Rectangle with rounded corners*
0 $1 Rounding radius*
0 $2 $3 $4 $5 $6 $7 $8 $9 X,Y pos of 4 corners*
0 Add a 4 corners polygon primitive as box body*
4,1,4,$2,$3,$4,$5,$6,$7,$8,$9,$2,$3,0*
0 Add four circle primitives for the rounded corners*
1,1,$1+$1,$2,$3*
1,1,$1+$1,$4,$5*
1,1,$1+$1,$6,$7*
1,1,$1+$1,$8,$9*
0 Add four rect primitives between the rounded corners*
20,1,$1+$1,$2,$3,$4,$5,0*
20,1,$1+$1,$4,$5,$6,$7,0*
20,1,$1+$1,$6,$7,$8,$9,0*
20,1,$1+$1,$8,$9,$2,$3,0*%
%AMRotRect*
0 Rectangle, with rotation*
0 The origin of the aperture is its center*
0 $1 length*
0 $2 width*
0 $3 Rotation angle, in degrees counterclockwise*
0 Add horizontal line*
21,1,$1,$2,0,0,$3*%
G04 Aperture macros list end*
G04 #@! TA.AperFunction,SMDPad,CuDef*
%ADD10RoundRect,0.243750X0.243750X0.456250X-0.243750X0.456250X-0.243750X-0.456250X0.243750X-0.456250X0*%
G04 #@! TD*
G04 #@! TA.AperFunction,SMDPad,CuDef*
%ADD11R,0.900000X0.900000*%
G04 #@! TD*
G04 #@! TA.AperFunction,SMDPad,CuDef*
%ADD12RoundRect,0.225000X0.335876X0.017678X0.017678X0.335876X-0.335876X-0.017678X-0.017678X-0.335876X0*%
G04 #@! TD*
G04 #@! TA.AperFunction,SMDPad,CuDef*
%ADD13RoundRect,0.150000X-0.468458X0.256326X0.256326X-0.468458X0.468458X-0.256326X-0.256326X0.468458X0*%
G04 #@! TD*
G04 #@! TA.AperFunction,SMDPad,CuDef*
%ADD14RoundRect,0.225000X-0.250000X0.225000X-0.250000X-0.225000X0.250000X-0.225000X0.250000X0.225000X0*%
G04 #@! TD*
G04 #@! TA.AperFunction,SMDPad,CuDef*
%ADD15RoundRect,0.200000X0.275000X-0.200000X0.275000X0.200000X-0.275000X0.200000X-0.275000X-0.200000X0*%
G04 #@! TD*
G04 #@! TA.AperFunction,ConnectorPad*
%ADD16C,0.787400*%
G04 #@! TD*
G04 #@! TA.AperFunction,SMDPad,CuDef*
%ADD17R,1.000000X0.900000*%
G04 #@! TD*
G04 #@! TA.AperFunction,SMDPad,CuDef*
%ADD18RotRect,6.500000X1.000000X45.000000*%
G04 #@! TD*
G04 #@! TA.AperFunction,SMDPad,CuDef*
%ADD19RotRect,7.500000X1.500000X45.000000*%
G04 #@! TD*
G04 #@! TA.AperFunction,SMDPad,CuDef*
%ADD20RoundRect,0.225000X-0.017678X0.335876X-0.335876X0.017678X0.017678X-0.335876X0.335876X-0.017678X0*%
G04 #@! TD*
G04 #@! TA.AperFunction,SMDPad,CuDef*
%ADD21C,1.500000*%
G04 #@! TD*
G04 #@! TA.AperFunction,SMDPad,CuDef*
%ADD22RoundRect,0.200000X-0.275000X0.200000X-0.275000X-0.200000X0.275000X-0.200000X0.275000X0.200000X0*%
G04 #@! TD*
G04 #@! TA.AperFunction,SMDPad,CuDef*
%ADD23RoundRect,0.100000X-0.100000X0.637500X-0.100000X-0.637500X0.100000X-0.637500X0.100000X0.637500X0*%
G04 #@! TD*
G04 #@! TA.AperFunction,ViaPad*
%ADD24C,0.800000*%
G04 #@! TD*
G04 #@! TA.AperFunction,ViaPad*
%ADD25C,1.200000*%
G04 #@! TD*
G04 #@! TA.AperFunction,ViaPad*
%ADD26C,0.756400*%
G04 #@! TD*
G04 #@! TA.AperFunction,Conductor*
%ADD27C,0.250000*%
G04 #@! TD*
G04 #@! TA.AperFunction,Conductor*
%ADD28C,0.650000*%
G04 #@! TD*
G04 #@! TA.AperFunction,Conductor*
%ADD29C,0.400000*%
G04 #@! TD*
G04 #@! TA.AperFunction,Conductor*
%ADD30C,0.304800*%
G04 #@! TD*
G04 APERTURE END LIST*
D10*
X155593296Y-86440296D03*
X153718296Y-86440296D03*
X160673296Y-86440296D03*
X158798296Y-86440296D03*
X165753296Y-86440296D03*
X163878296Y-86440296D03*
X170833296Y-86440296D03*
X168958296Y-86440296D03*
X175913296Y-86440296D03*
X174038296Y-86440296D03*
X180993296Y-86440296D03*
X179118296Y-86440296D03*
X186073296Y-86440296D03*
X184198296Y-86440296D03*
X150513296Y-91520296D03*
X148638296Y-91520296D03*
X155593296Y-91520296D03*
X153718296Y-91520296D03*
X160673296Y-91520296D03*
X158798296Y-91520296D03*
X155593296Y-81360296D03*
X153718296Y-81360296D03*
X165753296Y-91520296D03*
X163878296Y-91520296D03*
X170833296Y-91520296D03*
X168958296Y-91520296D03*
X175913296Y-91520296D03*
X174038296Y-91520296D03*
X180993296Y-91520296D03*
X179118296Y-91520296D03*
X186073296Y-91520296D03*
X184198296Y-91520296D03*
X150513296Y-96600296D03*
X148638296Y-96600296D03*
X155593296Y-96600296D03*
X153718296Y-96600296D03*
X160673296Y-96600296D03*
X158798296Y-96600296D03*
X165753296Y-96600296D03*
X163878296Y-96600296D03*
X170833296Y-96600296D03*
X168958296Y-96600296D03*
X175913296Y-96600296D03*
X174038296Y-96600296D03*
X180993296Y-96600296D03*
X179118296Y-96600296D03*
X186073296Y-96600296D03*
X184198296Y-96600296D03*
X150513296Y-101680296D03*
X148638296Y-101680296D03*
X155593296Y-101680296D03*
X153718296Y-101680296D03*
X160673296Y-101680296D03*
X158798296Y-101680296D03*
X165753296Y-101680296D03*
X163878296Y-101680296D03*
X170833296Y-101680296D03*
X168958296Y-101680296D03*
X175913296Y-101680296D03*
X174038296Y-101680296D03*
X180993296Y-101680296D03*
X179118296Y-101680296D03*
X165753296Y-81360296D03*
X163878296Y-81360296D03*
X186073296Y-101680296D03*
X184198296Y-101680296D03*
X150513296Y-106760296D03*
X148638296Y-106760296D03*
X155593296Y-106760296D03*
X153718296Y-106760296D03*
X160673296Y-106760296D03*
X158798296Y-106760296D03*
X165753296Y-106760296D03*
X163878296Y-106760296D03*
X170833296Y-106760296D03*
X168958296Y-106760296D03*
X175913296Y-106760296D03*
X174038296Y-106760296D03*
X180993296Y-106760296D03*
X179118296Y-106760296D03*
X186073296Y-106760296D03*
X184198296Y-106760296D03*
X150513296Y-111840296D03*
X148638296Y-111840296D03*
X170833296Y-81360296D03*
X168958296Y-81360296D03*
X155593296Y-111840296D03*
X153718296Y-111840296D03*
X160673296Y-111840296D03*
X158798296Y-111840296D03*
X165753296Y-111840296D03*
X163878296Y-111840296D03*
X170833296Y-111840296D03*
X168958296Y-111840296D03*
X175913296Y-111840296D03*
X174038296Y-111840296D03*
X180993296Y-111840296D03*
X179118296Y-111840296D03*
X186073296Y-111840296D03*
X184198296Y-111840296D03*
X175913296Y-81360296D03*
X174038296Y-81360296D03*
X180993296Y-81360296D03*
X179118296Y-81360296D03*
X186073296Y-81360296D03*
X184198296Y-81360296D03*
X150513296Y-86440296D03*
X148638296Y-86440296D03*
X150513296Y-81360296D03*
X148638296Y-81360296D03*
D11*
X139947796Y-122794296D03*
X139947796Y-124134296D03*
X139947796Y-125454296D03*
X139947796Y-126794296D03*
X142947796Y-126794296D03*
X142947796Y-125454296D03*
X142947796Y-124134296D03*
X142947796Y-122794296D03*
X139947796Y-115174296D03*
X139947796Y-116514296D03*
X139947796Y-117834296D03*
X139947796Y-119174296D03*
X142947796Y-119174296D03*
X142947796Y-117834296D03*
X142947796Y-116514296D03*
X142947796Y-115174296D03*
D12*
X119166008Y-116118008D03*
X118069992Y-115021992D03*
D13*
X116332000Y-115570000D03*
X115660249Y-116241751D03*
X114988498Y-116913502D03*
X116597166Y-118522170D03*
X117940668Y-117178668D03*
D14*
X138151796Y-122273296D03*
X138151796Y-123823296D03*
D15*
X131451796Y-117473296D03*
X131451796Y-115823296D03*
D16*
X128620796Y-123016296D03*
X127350796Y-123016296D03*
X128620796Y-121746296D03*
X127350796Y-121746296D03*
X128620796Y-120476296D03*
X127350796Y-120476296D03*
D17*
X134851796Y-116798296D03*
X134851796Y-112698296D03*
X136451796Y-116798296D03*
X136451796Y-112698296D03*
D10*
X160673296Y-81360296D03*
X158798296Y-81360296D03*
D18*
X107857839Y-122156375D03*
X106443625Y-120742161D03*
D19*
X104322305Y-119327948D03*
X109272052Y-124277695D03*
D20*
X115488591Y-113958077D03*
X114392575Y-115054093D03*
D21*
X185420000Y-127000000D03*
D22*
X133051796Y-115823296D03*
X133051796Y-117473296D03*
D23*
X136752796Y-121035796D03*
X136102796Y-121035796D03*
X135452796Y-121035796D03*
X134802796Y-121035796D03*
X134152796Y-121035796D03*
X133502796Y-121035796D03*
X132852796Y-121035796D03*
X132202796Y-121035796D03*
X131552796Y-121035796D03*
X130902796Y-121035796D03*
X130902796Y-126760796D03*
X131552796Y-126760796D03*
X132202796Y-126760796D03*
X132852796Y-126760796D03*
X133502796Y-126760796D03*
X134152796Y-126760796D03*
X134802796Y-126760796D03*
X135452796Y-126760796D03*
X136102796Y-126760796D03*
X136752796Y-126760796D03*
D24*
X129804797Y-120437796D03*
X113538000Y-115824000D03*
X134361797Y-122458296D03*
X138161797Y-124948296D03*
X131461797Y-114848296D03*
D25*
X107670600Y-115951000D03*
D24*
X136451797Y-115688296D03*
X117226583Y-114252085D03*
X133409956Y-122447449D03*
X134111797Y-117498296D03*
X136412797Y-125486296D03*
X131461797Y-118528296D03*
X126464797Y-121746296D03*
X126464797Y-123016296D03*
X135079297Y-125486296D03*
X138203497Y-119580796D03*
X138986797Y-118123296D03*
D26*
X167355796Y-83900296D03*
X172435796Y-83900296D03*
X186405796Y-83900296D03*
X179118296Y-83900296D03*
X162275796Y-83900296D03*
X157195796Y-83900296D03*
X152115796Y-83900296D03*
X167355796Y-113110296D03*
X157195796Y-113110296D03*
X182595796Y-113110296D03*
X162275796Y-113110296D03*
X186405796Y-113110296D03*
X172435796Y-113110296D03*
X177515796Y-113110296D03*
D24*
X148305796Y-113110296D03*
D26*
X152115796Y-88980296D03*
X186405796Y-88980296D03*
X174038296Y-88980296D03*
X182595796Y-88980296D03*
X162275796Y-88980296D03*
X157195796Y-88980296D03*
X167355796Y-88980296D03*
X186405796Y-94060296D03*
X182595796Y-94060296D03*
X162275796Y-94060296D03*
X152115796Y-94060296D03*
X177515796Y-94060296D03*
X168958296Y-94060296D03*
X157195796Y-94060296D03*
X162275796Y-109300296D03*
X186405796Y-109300296D03*
X177515796Y-109300296D03*
X172435796Y-109300296D03*
X167355796Y-109300296D03*
X182595796Y-109300296D03*
D24*
X153718296Y-109300296D03*
D26*
X172435796Y-104220296D03*
X158685796Y-104220296D03*
X177515796Y-104220296D03*
X186405796Y-104220296D03*
X182595796Y-104220296D03*
X167355796Y-104220296D03*
X152115796Y-104220296D03*
X172435796Y-99140296D03*
X177515796Y-99140296D03*
X186405796Y-99140296D03*
X157195796Y-99140296D03*
X182595796Y-99140296D03*
X163878296Y-99140296D03*
X152115796Y-99140296D03*
D27*
X136461797Y-112648296D02*
X136461797Y-115528296D01*
D28*
X114307907Y-115054093D02*
X113538000Y-115824000D01*
D27*
X129804297Y-120438296D02*
X129804797Y-120437796D01*
D28*
X114472591Y-115054093D02*
X115660249Y-116241751D01*
X114392575Y-115054093D02*
X114472591Y-115054093D01*
X117300085Y-114252085D02*
X118069992Y-115021992D01*
X104322305Y-119324695D02*
X107670600Y-115976400D01*
D29*
X134134297Y-122230796D02*
X134361797Y-122458296D01*
D27*
X128696797Y-120438296D02*
X129804297Y-120438296D01*
D28*
X117226583Y-114252085D02*
X117300085Y-114252085D01*
X107670600Y-115951000D02*
X107696000Y-115951000D01*
X107670600Y-115976400D02*
X107670600Y-115951000D01*
D27*
X131461797Y-115848296D02*
X131461797Y-114848296D01*
X138161797Y-123823296D02*
X138161797Y-124948296D01*
D28*
X107696000Y-115951000D02*
X107670600Y-115976400D01*
D27*
X136461797Y-115528296D02*
X136461797Y-116748296D01*
D29*
X134134297Y-121036296D02*
X134134297Y-122230796D01*
D28*
X104322305Y-119327948D02*
X104322305Y-119324695D01*
X114392575Y-115054093D02*
X114307907Y-115054093D01*
D30*
X128620796Y-121746296D02*
X129321949Y-122447449D01*
X129321949Y-122447449D02*
X133409956Y-122447449D01*
D27*
X133061797Y-117498296D02*
X134111797Y-117498296D01*
D30*
X133502796Y-121035796D02*
X133502796Y-122354609D01*
D27*
X134861797Y-116748296D02*
X134861797Y-112648296D01*
X133484297Y-122373108D02*
X133409956Y-122447449D01*
X134111797Y-117498296D02*
X134861797Y-116748296D01*
D30*
X133502796Y-122354609D02*
X133409956Y-122447449D01*
D27*
X131461797Y-117498296D02*
X131461797Y-118528296D01*
D30*
X136102796Y-125796297D02*
X136412797Y-125486296D01*
X136102796Y-126760796D02*
X136102796Y-125796297D01*
X127350796Y-121746296D02*
X126464797Y-121746296D01*
D28*
X116332000Y-114801486D02*
X115488591Y-113958077D01*
X116844810Y-116082810D02*
X116332000Y-115570000D01*
X114988498Y-116913502D02*
X115412605Y-117337609D01*
X116342391Y-117337609D02*
X116844810Y-116835190D01*
X116844810Y-116835190D02*
X116844810Y-116082810D01*
X116332000Y-115570000D02*
X116332000Y-114801486D01*
X115412605Y-117337609D02*
X116342391Y-117337609D01*
X117940668Y-117178668D02*
X118105348Y-117178668D01*
X118105348Y-117178668D02*
X119166008Y-116118008D01*
D29*
X134784297Y-121773796D02*
X135269797Y-122259296D01*
X135269797Y-122259296D02*
X138147797Y-122259296D01*
X138147797Y-122259296D02*
X138161797Y-122273296D01*
X135269797Y-122259296D02*
X135269797Y-122628796D01*
X134784297Y-121036296D02*
X134784297Y-121773796D01*
D30*
X135452796Y-125859795D02*
X135452796Y-126760796D01*
X135079297Y-125486296D02*
X135452796Y-125859795D01*
X127350796Y-123016296D02*
X126464797Y-123016296D01*
X132202796Y-127630796D02*
X132767496Y-128195496D01*
X132202796Y-126760796D02*
X132202796Y-127630796D01*
X140670196Y-126176696D02*
X139947796Y-125454296D01*
X140670196Y-127553804D02*
X140670196Y-126176696D01*
X140028504Y-128195496D02*
X140670196Y-127553804D01*
X132767496Y-128195496D02*
X140028504Y-128195496D01*
X131552796Y-127581554D02*
X132591538Y-128620296D01*
X131552796Y-126760796D02*
X131552796Y-127581554D01*
X132591538Y-128620296D02*
X140204462Y-128620296D01*
X140204462Y-128620296D02*
X141094996Y-127729762D01*
X141094996Y-125281496D02*
X139947796Y-124134296D01*
X141094996Y-127729762D02*
X141094996Y-125281496D01*
X130902796Y-127532312D02*
X132415580Y-129045096D01*
X130902796Y-126760796D02*
X130902796Y-127532312D01*
X141519796Y-124366296D02*
X139947796Y-122794296D01*
X140380420Y-129045096D02*
X141519796Y-127905720D01*
X141519796Y-127905720D02*
X141519796Y-124366296D01*
X132415580Y-129045096D02*
X140380420Y-129045096D01*
X138104019Y-118530400D02*
X138747915Y-119174296D01*
X130902796Y-121035796D02*
X130902796Y-120403496D01*
X132775892Y-118530400D02*
X138104019Y-118530400D01*
X130902796Y-120403496D02*
X132775892Y-118530400D01*
X138747915Y-119174296D02*
X139947796Y-119174296D01*
X131552796Y-120421643D02*
X133019239Y-118955200D01*
D27*
X138986797Y-118123296D02*
X140014797Y-118123296D01*
X140014797Y-118123296D02*
X140119797Y-118018296D01*
D30*
X133019239Y-118955200D02*
X137577901Y-118955200D01*
X137577901Y-118955200D02*
X138203497Y-119580796D01*
X131552796Y-121035796D02*
X131552796Y-120421643D01*
X133244439Y-119380000D02*
X136961911Y-119380000D01*
X140670196Y-119896696D02*
X140670196Y-117236696D01*
X137843958Y-120262047D02*
X140304845Y-120262047D01*
X140304845Y-120262047D02*
X140670196Y-119896696D01*
X132202796Y-120421643D02*
X133244439Y-119380000D01*
X136961911Y-119380000D02*
X137843958Y-120262047D01*
X132202796Y-121035796D02*
X132202796Y-120421643D01*
X140670196Y-117236696D02*
X139947796Y-116514296D01*
X132852796Y-127374949D02*
X133248543Y-127770696D01*
X138971396Y-127770696D02*
X139947796Y-126794296D01*
X132852796Y-126760796D02*
X132852796Y-127374949D01*
X133248543Y-127770696D02*
X138971396Y-127770696D01*
X132852796Y-121035796D02*
X132852796Y-120421643D01*
X132852796Y-120421643D02*
X133386439Y-119888000D01*
X137668000Y-120686847D02*
X140933153Y-120686847D01*
X141224000Y-120396000D02*
X141224000Y-116450500D01*
X136869153Y-119888000D02*
X137668000Y-120686847D01*
X134112000Y-119888000D02*
X136869153Y-119888000D01*
X141224000Y-116450500D02*
X139947796Y-115174296D01*
X140933153Y-120686847D02*
X141224000Y-120396000D01*
X133386439Y-119888000D02*
X134112000Y-119888000D01*
X160785796Y-86440296D02*
X162275796Y-86440296D01*
X150625796Y-86440296D02*
X152115796Y-86440296D01*
X175913296Y-86440296D02*
X179118296Y-86440296D01*
X165865796Y-86440296D02*
X167355796Y-86440296D01*
X170945796Y-86440296D02*
X172435796Y-86440296D01*
X167355796Y-86440296D02*
X167355796Y-83900296D01*
X179118296Y-81360296D02*
X179118296Y-111840296D01*
X157195796Y-86440296D02*
X157195796Y-83900296D01*
X179118296Y-112473704D02*
X179118296Y-111840296D01*
X155705796Y-86440296D02*
X157195796Y-86440296D01*
X166137704Y-125454296D02*
X179118296Y-112473704D01*
X186405796Y-83900296D02*
X186405796Y-81360296D01*
X152115796Y-86440296D02*
X152115796Y-83900296D01*
X142947796Y-125454296D02*
X166137704Y-125454296D01*
X172435796Y-86440296D02*
X172435796Y-83900296D01*
X162275796Y-86440296D02*
X162275796Y-83900296D01*
X148638296Y-112777796D02*
X148305796Y-113110296D01*
X182595796Y-111840296D02*
X182595796Y-113110296D01*
X172435796Y-111840296D02*
X172435796Y-113110296D01*
X142947796Y-115174296D02*
X146241796Y-115174296D01*
X176025796Y-111840296D02*
X177515796Y-111840296D01*
X148638296Y-111840296D02*
X148638296Y-112777796D01*
X167355796Y-111840296D02*
X167355796Y-113110296D01*
X148638296Y-111840296D02*
X148638296Y-81360296D01*
X162275796Y-111840296D02*
X162275796Y-113110296D01*
X170945796Y-111840296D02*
X172435796Y-111840296D01*
X160785796Y-111840296D02*
X162275796Y-111840296D01*
X186405796Y-112060296D02*
X186405796Y-113110296D01*
X165865796Y-111840296D02*
X167355796Y-111840296D01*
X157195796Y-111840296D02*
X157195796Y-113110296D01*
X177515796Y-111840296D02*
X177515796Y-113110296D01*
X146241796Y-115174296D02*
X148305796Y-113110296D01*
X181105796Y-111840296D02*
X182595796Y-111840296D01*
X155705796Y-111840296D02*
X157195796Y-111840296D01*
X157195796Y-91520296D02*
X157195796Y-88980296D01*
X174038296Y-112473704D02*
X174038296Y-111840296D01*
X174038296Y-111840296D02*
X174038296Y-81360296D01*
X162377704Y-124134296D02*
X174038296Y-112473704D01*
X142947796Y-124134296D02*
X162377704Y-124134296D01*
X167355796Y-91520296D02*
X167355796Y-88980296D01*
X160785796Y-91520296D02*
X162275796Y-91520296D01*
X186405796Y-88980296D02*
X186405796Y-86440296D01*
X181105796Y-86440296D02*
X182595796Y-86440296D01*
X155705796Y-91520296D02*
X157195796Y-91520296D01*
X150625796Y-91520296D02*
X152115796Y-91520296D01*
X182595796Y-86440296D02*
X182595796Y-88980296D01*
X162275796Y-91520296D02*
X162275796Y-88980296D01*
X152115796Y-91520296D02*
X152115796Y-88980296D01*
X170945796Y-91520296D02*
X173925796Y-91520296D01*
X165865796Y-91520296D02*
X167355796Y-91520296D01*
X162275796Y-96600296D02*
X162275796Y-94060296D01*
X142947796Y-122794296D02*
X158637704Y-122794296D01*
X168958296Y-112473704D02*
X168958296Y-111840296D01*
X182595796Y-91520296D02*
X182595796Y-94060296D01*
X155705796Y-96600296D02*
X157195796Y-96600296D01*
X158637704Y-122794296D02*
X168958296Y-112473704D01*
X181105796Y-91520296D02*
X182595796Y-91520296D01*
X165865796Y-96600296D02*
X168845796Y-96600296D01*
X186405796Y-94060296D02*
X186405796Y-91520296D01*
X168958296Y-111840296D02*
X168958296Y-101680296D01*
X150625796Y-96600296D02*
X152115796Y-96600296D01*
X157195796Y-96600296D02*
X157195796Y-94060296D01*
X177515796Y-91520296D02*
X177515796Y-94060296D01*
X168958296Y-101680296D02*
X168958296Y-81360296D01*
X152115796Y-96600296D02*
X152115796Y-94060296D01*
X176025796Y-91520296D02*
X177515796Y-91520296D01*
X160785796Y-96600296D02*
X162275796Y-96600296D01*
X170945796Y-106760296D02*
X172435796Y-106760296D01*
X153718296Y-111840296D02*
X153718296Y-81360296D01*
X176025796Y-106760296D02*
X177515796Y-106760296D01*
X142947796Y-116514296D02*
X149044296Y-116514296D01*
X186405796Y-109300296D02*
X186405796Y-106760296D01*
X181105796Y-106760296D02*
X182595796Y-106760296D01*
X177515796Y-106760296D02*
X177515796Y-109300296D01*
X182595796Y-106760296D02*
X182595796Y-109300296D01*
X149044296Y-116514296D02*
X153718296Y-111840296D01*
X167355796Y-106760296D02*
X167355796Y-109300296D01*
X165865796Y-106760296D02*
X167355796Y-106760296D01*
X160785796Y-106760296D02*
X162275796Y-106760296D01*
X162275796Y-106760296D02*
X162275796Y-109300296D01*
X150625796Y-111840296D02*
X153605796Y-111840296D01*
X172435796Y-106760296D02*
X172435796Y-109300296D01*
X157195796Y-81360296D02*
X157195796Y-80090296D01*
X162275796Y-80090296D02*
X157195796Y-80090296D01*
X184198296Y-80090296D02*
X184198296Y-81360296D01*
X184194696Y-80086696D02*
X184198296Y-80090296D01*
X182595796Y-81360296D02*
X182595796Y-80090296D01*
X181105796Y-81360296D02*
X182595796Y-81360296D01*
X167355796Y-81360296D02*
X167355796Y-80149196D01*
X167414696Y-80090296D02*
X167355796Y-80090296D01*
X157195796Y-80090296D02*
X152115796Y-80090296D01*
X182595796Y-80090296D02*
X157195796Y-80090296D01*
X142947796Y-126794296D02*
X169877704Y-126794296D01*
X182595796Y-80090296D02*
X184191096Y-80090296D01*
X155705796Y-81360296D02*
X157195796Y-81360296D01*
X184198296Y-81360296D02*
X184198296Y-111840296D01*
X169877704Y-126794296D02*
X184198296Y-112473704D01*
X150625796Y-81360296D02*
X152115796Y-81360296D01*
X184198296Y-112473704D02*
X184198296Y-111840296D01*
X170833296Y-81360296D02*
X172435796Y-81360296D01*
X160785796Y-81360296D02*
X162275796Y-81360296D01*
X167355796Y-80149196D02*
X167414696Y-80090296D01*
X167355796Y-80090296D02*
X162275796Y-80090296D01*
X152115796Y-80090296D02*
X152115796Y-81360296D01*
X177515796Y-81360296D02*
X177515796Y-80090296D01*
X172435796Y-80090296D02*
X167414696Y-80090296D01*
X177515796Y-80090296D02*
X172435796Y-80090296D01*
X162275796Y-81360296D02*
X162275796Y-80090296D01*
X172435796Y-81360296D02*
X172435796Y-80090296D01*
X184191096Y-80090296D02*
X184194696Y-80086696D01*
X165753296Y-81360296D02*
X167355796Y-81360296D01*
X176025796Y-81360296D02*
X177515796Y-81360296D01*
X172435796Y-101680296D02*
X172435796Y-104220296D01*
X158798296Y-111840296D02*
X158798296Y-81560296D01*
X142947796Y-117834296D02*
X153437704Y-117834296D01*
X150625796Y-106760296D02*
X152115796Y-106760296D01*
X158798296Y-81560296D02*
X158669696Y-81431696D01*
X186405796Y-104220296D02*
X186405796Y-101680296D01*
X177515796Y-101680296D02*
X177515796Y-104220296D01*
X167355796Y-101680296D02*
X167355796Y-104220296D01*
X165865796Y-101680296D02*
X167355796Y-101680296D01*
X170945796Y-101680296D02*
X172435796Y-101680296D01*
X182595796Y-101680296D02*
X182595796Y-104220296D01*
X176025796Y-101680296D02*
X177515796Y-101680296D01*
X155705796Y-106760296D02*
X158685796Y-106760296D01*
X158798296Y-112473704D02*
X158798296Y-111840296D01*
X152115796Y-106760296D02*
X152115796Y-104220296D01*
X153437704Y-117834296D02*
X158798296Y-112473704D01*
X158669696Y-81431696D02*
X158669696Y-81360296D01*
X181105796Y-101680296D02*
X182595796Y-101680296D01*
X172435796Y-96600296D02*
X172435796Y-99140296D01*
X163878296Y-112473704D02*
X163878296Y-111840296D01*
X181105796Y-96600296D02*
X182595796Y-96600296D01*
X182595796Y-96600296D02*
X182595796Y-99140296D01*
X176025796Y-96600296D02*
X177515796Y-96600296D01*
X186405796Y-99140296D02*
X186405796Y-96600296D01*
X142947796Y-119174296D02*
X157177704Y-119174296D01*
X152115796Y-101680296D02*
X152115796Y-99140296D01*
X150625796Y-101680296D02*
X152115796Y-101680296D01*
X163878296Y-81360296D02*
X163878296Y-111840296D01*
X170945796Y-96600296D02*
X172435796Y-96600296D01*
X177515796Y-96600296D02*
X177515796Y-99140296D01*
X160785796Y-101680296D02*
X163765796Y-101680296D01*
X157177704Y-119174296D02*
X163878296Y-112473704D01*
X155705796Y-101680296D02*
X157195796Y-101680296D01*
X157195796Y-101680296D02*
X157195796Y-99140296D01*
G04 #@! TA.AperFunction,Conductor*
G36*
X144722121Y-103652002D02*
G01*
X144768614Y-103705658D01*
X144780000Y-103758000D01*
X144780000Y-114641396D01*
X144759998Y-114709517D01*
X144706342Y-114756010D01*
X144654000Y-114767396D01*
X143769260Y-114767396D01*
X143701139Y-114747394D01*
X143654646Y-114693738D01*
X143645681Y-114665976D01*
X143640792Y-114641396D01*
X143637530Y-114624995D01*
X143581280Y-114540812D01*
X143581279Y-114540811D01*
X143497098Y-114484562D01*
X143422863Y-114469796D01*
X142472732Y-114469796D01*
X142472722Y-114469797D01*
X142398495Y-114484561D01*
X142314311Y-114540812D01*
X142258062Y-114624993D01*
X142243296Y-114699226D01*
X142243296Y-115649359D01*
X142243297Y-115649369D01*
X142258061Y-115723597D01*
X142291936Y-115774293D01*
X142313151Y-115842046D01*
X142294368Y-115910513D01*
X142291937Y-115914296D01*
X142258062Y-115964993D01*
X142243296Y-116039226D01*
X142243296Y-116989359D01*
X142243297Y-116989369D01*
X142258062Y-117063597D01*
X142258061Y-117063597D01*
X142285254Y-117104292D01*
X142306470Y-117172045D01*
X142287688Y-117240512D01*
X142285255Y-117244297D01*
X142258062Y-117284993D01*
X142243296Y-117359226D01*
X142243296Y-118309359D01*
X142243297Y-118309369D01*
X142258061Y-118383597D01*
X142291936Y-118434293D01*
X142313151Y-118502046D01*
X142294368Y-118570513D01*
X142291937Y-118574296D01*
X142258062Y-118624993D01*
X142243296Y-118699226D01*
X142243296Y-119649359D01*
X142243297Y-119649369D01*
X142258061Y-119723596D01*
X142314312Y-119807780D01*
X142398493Y-119864029D01*
X142398495Y-119864030D01*
X142472729Y-119878796D01*
X143422862Y-119878795D01*
X143422865Y-119878794D01*
X143422869Y-119878794D01*
X143477564Y-119867915D01*
X143497097Y-119864030D01*
X143581280Y-119807780D01*
X143637530Y-119723597D01*
X143645681Y-119682615D01*
X143678589Y-119619705D01*
X143740284Y-119584573D01*
X143769261Y-119581196D01*
X144654000Y-119581196D01*
X144722121Y-119601198D01*
X144768614Y-119654854D01*
X144780000Y-119707196D01*
X144780000Y-122261396D01*
X144759998Y-122329517D01*
X144706342Y-122376010D01*
X144654000Y-122387396D01*
X143769260Y-122387396D01*
X143701139Y-122367394D01*
X143654646Y-122313738D01*
X143645681Y-122285976D01*
X143639654Y-122255676D01*
X143637530Y-122244995D01*
X143581280Y-122160812D01*
X143559556Y-122146296D01*
X143497098Y-122104562D01*
X143422863Y-122089796D01*
X142472732Y-122089796D01*
X142472722Y-122089797D01*
X142398495Y-122104561D01*
X142314311Y-122160812D01*
X142258062Y-122244993D01*
X142243296Y-122319226D01*
X142243296Y-123269359D01*
X142243297Y-123269369D01*
X142258061Y-123343597D01*
X142291936Y-123394293D01*
X142313151Y-123462046D01*
X142294368Y-123530513D01*
X142291937Y-123534296D01*
X142258062Y-123584993D01*
X142243296Y-123659226D01*
X142243296Y-124609359D01*
X142243297Y-124609369D01*
X142258062Y-124683597D01*
X142258061Y-124683597D01*
X142285254Y-124724292D01*
X142306470Y-124792045D01*
X142287688Y-124860512D01*
X142285255Y-124864297D01*
X142258062Y-124904993D01*
X142243296Y-124979226D01*
X142243296Y-125929359D01*
X142243297Y-125929369D01*
X142258061Y-126003597D01*
X142291936Y-126054293D01*
X142313151Y-126122046D01*
X142294368Y-126190513D01*
X142291937Y-126194296D01*
X142258062Y-126244993D01*
X142243296Y-126319226D01*
X142243296Y-127269359D01*
X142243297Y-127269369D01*
X142258061Y-127343596D01*
X142314312Y-127427780D01*
X142398493Y-127484029D01*
X142398495Y-127484030D01*
X142472729Y-127498796D01*
X143422862Y-127498795D01*
X143422865Y-127498794D01*
X143422869Y-127498794D01*
X143472122Y-127488997D01*
X143497097Y-127484030D01*
X143581280Y-127427780D01*
X143637530Y-127343597D01*
X143645681Y-127302615D01*
X143678589Y-127239705D01*
X143740284Y-127204573D01*
X143769261Y-127201196D01*
X144654000Y-127201196D01*
X144722121Y-127221198D01*
X144768614Y-127274854D01*
X144780000Y-127327196D01*
X144780000Y-129413500D01*
X144759998Y-129481621D01*
X144706342Y-129528114D01*
X144654000Y-129539500D01*
X140765650Y-129539500D01*
X140697529Y-129519498D01*
X140651036Y-129465842D01*
X140640932Y-129395568D01*
X140670426Y-129330988D01*
X140676555Y-129324405D01*
X140731430Y-129269529D01*
X140731431Y-129269526D01*
X141830162Y-128170797D01*
X141853088Y-128147871D01*
X141863305Y-128127818D01*
X141873638Y-128110957D01*
X141886866Y-128092752D01*
X141893821Y-128071343D01*
X141901386Y-128053079D01*
X141911605Y-128033026D01*
X141915127Y-128010784D01*
X141919739Y-127991576D01*
X141926696Y-127970166D01*
X141926696Y-127841274D01*
X141926696Y-124334272D01*
X141926696Y-124301850D01*
X141919738Y-124280436D01*
X141915127Y-124261229D01*
X141911605Y-124238990D01*
X141901385Y-124218933D01*
X141893821Y-124200671D01*
X141886866Y-124179264D01*
X141873633Y-124161051D01*
X141863303Y-124144193D01*
X141853088Y-124124145D01*
X141823098Y-124094155D01*
X141761947Y-124033004D01*
X140689200Y-122960257D01*
X140655174Y-122897945D01*
X140652295Y-122871162D01*
X140652295Y-122319232D01*
X140652294Y-122319223D01*
X140637530Y-122244995D01*
X140581279Y-122160811D01*
X140497098Y-122104562D01*
X140422863Y-122089796D01*
X139472732Y-122089796D01*
X139472722Y-122089797D01*
X139398495Y-122104561D01*
X139314311Y-122160812D01*
X139258062Y-122244993D01*
X139243296Y-122319226D01*
X139243296Y-123269359D01*
X139243297Y-123269369D01*
X139258061Y-123343597D01*
X139291936Y-123394293D01*
X139313151Y-123462046D01*
X139294368Y-123530513D01*
X139291937Y-123534296D01*
X139258062Y-123584993D01*
X139243296Y-123659226D01*
X139243296Y-124609359D01*
X139243297Y-124609369D01*
X139258062Y-124683597D01*
X139258061Y-124683597D01*
X139285254Y-124724292D01*
X139306470Y-124792045D01*
X139287688Y-124860512D01*
X139285255Y-124864297D01*
X139258062Y-124904993D01*
X139243296Y-124979226D01*
X139243296Y-125929359D01*
X139243297Y-125929369D01*
X139258061Y-126003597D01*
X139291936Y-126054293D01*
X139313151Y-126122046D01*
X139294368Y-126190513D01*
X139291937Y-126194296D01*
X139258062Y-126244993D01*
X139243296Y-126319226D01*
X139243296Y-126871161D01*
X139223294Y-126939282D01*
X139206392Y-126960256D01*
X138839758Y-127326891D01*
X138777445Y-127360916D01*
X138750662Y-127363796D01*
X137333296Y-127363796D01*
X137265175Y-127343794D01*
X137218682Y-127290138D01*
X137207296Y-127237796D01*
X137207296Y-126089656D01*
X137207296Y-126089650D01*
X137197257Y-126020746D01*
X137145295Y-125914456D01*
X137145294Y-125914454D01*
X137061598Y-125830758D01*
X137027572Y-125768446D01*
X137032637Y-125697631D01*
X137032882Y-125696981D01*
X137052946Y-125644077D01*
X137072104Y-125486299D01*
X137072104Y-125486292D01*
X137052947Y-125328516D01*
X137039335Y-125292626D01*
X136996584Y-125179901D01*
X136906295Y-125049095D01*
X136787326Y-124943697D01*
X136787325Y-124943696D01*
X136787322Y-124943694D01*
X136646594Y-124869835D01*
X136646592Y-124869834D01*
X136646590Y-124869833D01*
X136646588Y-124869832D01*
X136646587Y-124869832D01*
X136492269Y-124831796D01*
X136492268Y-124831796D01*
X136333326Y-124831796D01*
X136333324Y-124831796D01*
X136179006Y-124869832D01*
X136178999Y-124869835D01*
X136038271Y-124943694D01*
X136038266Y-124943698D01*
X135919297Y-125049096D01*
X135849743Y-125149864D01*
X135794584Y-125194564D01*
X135724016Y-125202347D01*
X135660442Y-125170742D01*
X135642351Y-125149864D01*
X135572796Y-125049096D01*
X135523822Y-125005708D01*
X135453826Y-124943697D01*
X135453825Y-124943696D01*
X135453822Y-124943694D01*
X135313094Y-124869835D01*
X135313092Y-124869834D01*
X135313090Y-124869833D01*
X135313088Y-124869832D01*
X135313087Y-124869832D01*
X135158769Y-124831796D01*
X135158768Y-124831796D01*
X134999826Y-124831796D01*
X134999824Y-124831796D01*
X134845506Y-124869832D01*
X134845499Y-124869835D01*
X134704771Y-124943694D01*
X134704766Y-124943698D01*
X134585798Y-125049096D01*
X134495512Y-125179897D01*
X134495509Y-125179903D01*
X134439146Y-125328516D01*
X134419990Y-125486292D01*
X134419990Y-125486300D01*
X134437444Y-125630055D01*
X134425799Y-125700090D01*
X134378138Y-125752711D01*
X134309594Y-125771212D01*
X134294200Y-125769926D01*
X134286450Y-125768797D01*
X134286447Y-125768796D01*
X134286442Y-125768796D01*
X134019150Y-125768796D01*
X134019148Y-125768796D01*
X133950245Y-125778835D01*
X133950240Y-125778836D01*
X133883134Y-125811643D01*
X133813151Y-125823592D01*
X133772458Y-125811643D01*
X133705351Y-125778836D01*
X133705346Y-125778835D01*
X133636443Y-125768796D01*
X133636442Y-125768796D01*
X133369150Y-125768796D01*
X133369148Y-125768796D01*
X133300245Y-125778835D01*
X133300240Y-125778836D01*
X133233134Y-125811643D01*
X133163151Y-125823592D01*
X133122458Y-125811643D01*
X133055351Y-125778836D01*
X133055346Y-125778835D01*
X132986443Y-125768796D01*
X132986442Y-125768796D01*
X132719150Y-125768796D01*
X132719148Y-125768796D01*
X132650245Y-125778835D01*
X132650240Y-125778836D01*
X132583134Y-125811643D01*
X132513151Y-125823592D01*
X132472458Y-125811643D01*
X132405351Y-125778836D01*
X132405346Y-125778835D01*
X132336443Y-125768796D01*
X132336442Y-125768796D01*
X132069150Y-125768796D01*
X132069148Y-125768796D01*
X132000245Y-125778835D01*
X131933133Y-125811644D01*
X131863149Y-125823592D01*
X131822456Y-125811643D01*
X131755347Y-125778835D01*
X131686443Y-125768796D01*
X131686442Y-125768796D01*
X131419150Y-125768796D01*
X131419148Y-125768796D01*
X131350245Y-125778835D01*
X131283133Y-125811644D01*
X131213149Y-125823592D01*
X131172456Y-125811643D01*
X131105347Y-125778835D01*
X131036443Y-125768796D01*
X131036442Y-125768796D01*
X130769150Y-125768796D01*
X130769148Y-125768796D01*
X130700245Y-125778835D01*
X130700243Y-125778836D01*
X130593956Y-125830796D01*
X130593954Y-125830797D01*
X130510297Y-125914454D01*
X130510296Y-125914456D01*
X130458336Y-126020743D01*
X130458335Y-126020745D01*
X130448296Y-126089648D01*
X130448296Y-127431943D01*
X130458335Y-127500848D01*
X130483130Y-127551569D01*
X130494380Y-127587187D01*
X130495897Y-127596762D01*
X130502851Y-127618168D01*
X130507464Y-127637381D01*
X130510986Y-127659618D01*
X130521204Y-127679671D01*
X130528770Y-127697936D01*
X130535725Y-127719343D01*
X130535727Y-127719346D01*
X130548958Y-127737557D01*
X130559288Y-127754414D01*
X130569502Y-127774461D01*
X130569506Y-127774466D01*
X130574707Y-127779667D01*
X132082288Y-129287247D01*
X132119446Y-129324405D01*
X132153472Y-129386717D01*
X132148407Y-129457532D01*
X132105860Y-129514368D01*
X132039340Y-129539179D01*
X132030351Y-129539500D01*
X125204598Y-129539500D01*
X125136477Y-129519498D01*
X125115503Y-129502595D01*
X118629207Y-123016299D01*
X125805490Y-123016299D01*
X125824646Y-123174075D01*
X125873244Y-123302214D01*
X125881010Y-123322691D01*
X125971299Y-123453497D01*
X126090268Y-123558895D01*
X126090269Y-123558895D01*
X126090271Y-123558897D01*
X126139995Y-123584994D01*
X126231004Y-123632759D01*
X126385326Y-123670796D01*
X126385327Y-123670796D01*
X126544267Y-123670796D01*
X126544268Y-123670796D01*
X126698590Y-123632759D01*
X126839326Y-123558895D01*
X126839335Y-123558886D01*
X126841798Y-123557187D01*
X126843904Y-123556492D01*
X126846075Y-123555353D01*
X126846264Y-123555713D01*
X126909222Y-123534947D01*
X126972517Y-123551282D01*
X126973123Y-123550130D01*
X126989827Y-123558897D01*
X127119253Y-123626825D01*
X127272090Y-123664496D01*
X127272096Y-123664496D01*
X127279653Y-123665414D01*
X127279269Y-123668574D01*
X127333499Y-123684498D01*
X127379992Y-123738154D01*
X127390096Y-123808428D01*
X127374497Y-123853496D01*
X127296331Y-123988883D01*
X127296329Y-123988889D01*
X127247189Y-124153031D01*
X127246327Y-124155909D01*
X127239073Y-124280451D01*
X127236189Y-124329956D01*
X127266464Y-124501650D01*
X127266465Y-124501652D01*
X127335515Y-124661731D01*
X127335517Y-124661735D01*
X127439627Y-124801578D01*
X127573180Y-124913644D01*
X127573182Y-124913645D01*
X127728981Y-124991890D01*
X127898625Y-125032096D01*
X127898627Y-125032096D01*
X128029235Y-125032096D01*
X128069460Y-125027394D01*
X128158960Y-125016933D01*
X128322789Y-124957304D01*
X128468450Y-124861501D01*
X128588092Y-124734689D01*
X128675263Y-124583703D01*
X128725265Y-124416684D01*
X128735403Y-124242636D01*
X128709223Y-124094167D01*
X137422296Y-124094167D01*
X137426611Y-124134296D01*
X137428436Y-124151269D01*
X137453675Y-124218938D01*
X137476622Y-124280462D01*
X137476623Y-124280463D01*
X137513674Y-124329956D01*
X137559252Y-124390840D01*
X137588814Y-124412970D01*
X137631360Y-124469806D01*
X137636424Y-124540621D01*
X137617001Y-124585412D01*
X137578011Y-124641898D01*
X137578009Y-124641903D01*
X137521646Y-124790516D01*
X137502490Y-124948292D01*
X137502490Y-124948299D01*
X137521646Y-125106075D01*
X137558158Y-125202347D01*
X137578010Y-125254691D01*
X137668299Y-125385497D01*
X137787268Y-125490895D01*
X137787269Y-125490895D01*
X137787271Y-125490897D01*
X137861997Y-125530116D01*
X137928004Y-125564759D01*
X138082326Y-125602796D01*
X138082327Y-125602796D01*
X138241267Y-125602796D01*
X138241268Y-125602796D01*
X138395590Y-125564759D01*
X138536326Y-125490895D01*
X138655295Y-125385497D01*
X138745584Y-125254691D01*
X138801946Y-125106078D01*
X138801946Y-125106077D01*
X138801947Y-125106075D01*
X138821104Y-124948299D01*
X138821104Y-124948292D01*
X138801947Y-124790516D01*
X138776831Y-124724292D01*
X138745584Y-124641901D01*
X138699779Y-124575541D01*
X138677543Y-124508116D01*
X138695290Y-124439373D01*
X138727961Y-124403100D01*
X138744340Y-124390840D01*
X138826971Y-124280459D01*
X138875156Y-124151269D01*
X138881296Y-124094160D01*
X138881296Y-123552432D01*
X138875156Y-123495323D01*
X138826971Y-123366133D01*
X138826969Y-123366131D01*
X138826969Y-123366129D01*
X138826968Y-123366128D01*
X138791745Y-123319077D01*
X138744340Y-123255752D01*
X138675974Y-123204573D01*
X138633963Y-123173123D01*
X138633959Y-123173121D01*
X138615092Y-123166084D01*
X138558257Y-123123537D01*
X138533447Y-123057017D01*
X138548539Y-122987643D01*
X138598742Y-122937441D01*
X138615095Y-122929973D01*
X138633714Y-122923028D01*
X138743982Y-122840482D01*
X138826527Y-122730216D01*
X138874664Y-122601156D01*
X138880795Y-122544128D01*
X138880796Y-122544111D01*
X138880796Y-122400296D01*
X137422796Y-122400296D01*
X137422796Y-122544128D01*
X137428927Y-122601156D01*
X137477064Y-122730216D01*
X137559609Y-122840482D01*
X137669876Y-122923027D01*
X137688497Y-122929973D01*
X137745333Y-122972520D01*
X137770144Y-123039040D01*
X137755053Y-123108414D01*
X137704851Y-123158616D01*
X137688500Y-123166084D01*
X137669630Y-123173122D01*
X137669628Y-123173123D01*
X137559252Y-123255752D01*
X137476623Y-123366128D01*
X137476622Y-123366129D01*
X137428436Y-123495323D01*
X137422296Y-123552424D01*
X137422296Y-124094167D01*
X128709223Y-124094167D01*
X128705128Y-124070942D01*
X128636075Y-123910858D01*
X128602111Y-123865236D01*
X128577477Y-123798653D01*
X128592751Y-123729319D01*
X128643086Y-123679249D01*
X128692107Y-123666806D01*
X128691878Y-123664914D01*
X128699442Y-123663995D01*
X128852158Y-123626354D01*
X128982723Y-123557829D01*
X128982723Y-123557828D01*
X128620089Y-123195194D01*
X128586063Y-123132882D01*
X128591128Y-123062067D01*
X128620057Y-123017035D01*
X128620795Y-123016296D01*
X128620796Y-123016296D01*
X128620796Y-123016295D01*
X128621471Y-123015620D01*
X128683771Y-122981573D01*
X128754589Y-122986613D01*
X128799693Y-123015589D01*
X129159760Y-123375656D01*
X129159761Y-123375655D01*
X129198516Y-123319511D01*
X129254295Y-123172436D01*
X129273253Y-123016299D01*
X129273253Y-123016290D01*
X129270733Y-122995535D01*
X129282378Y-122925500D01*
X129330039Y-122872880D01*
X129395814Y-122854349D01*
X132834469Y-122854349D01*
X132902590Y-122874351D01*
X132918022Y-122886037D01*
X133035421Y-122990043D01*
X133035430Y-122990050D01*
X133085438Y-123016296D01*
X133176163Y-123063912D01*
X133330485Y-123101949D01*
X133330486Y-123101949D01*
X133489426Y-123101949D01*
X133489427Y-123101949D01*
X133643749Y-123063912D01*
X133784485Y-122990048D01*
X133796197Y-122979671D01*
X133860445Y-122949468D01*
X133930826Y-122958795D01*
X133963307Y-122979667D01*
X133987268Y-123000895D01*
X133987269Y-123000895D01*
X133987271Y-123000897D01*
X134018020Y-123017035D01*
X134128004Y-123074759D01*
X134282326Y-123112796D01*
X134282327Y-123112796D01*
X134441267Y-123112796D01*
X134441268Y-123112796D01*
X134595590Y-123074759D01*
X134736326Y-123000895D01*
X134855295Y-122895497D01*
X134945584Y-122764691D01*
X135001946Y-122616078D01*
X135001946Y-122616077D01*
X135001947Y-122616075D01*
X135021104Y-122458299D01*
X135021104Y-122458292D01*
X135001947Y-122300516D01*
X134952575Y-122170335D01*
X134950723Y-122146296D01*
X137422796Y-122146296D01*
X138024796Y-122146296D01*
X138024796Y-121569296D01*
X138278796Y-121569296D01*
X138278796Y-122146296D01*
X138880796Y-122146296D01*
X138880796Y-122002480D01*
X138880795Y-122002463D01*
X138874664Y-121945435D01*
X138826527Y-121816375D01*
X138743982Y-121706109D01*
X138633716Y-121623564D01*
X138504656Y-121575427D01*
X138447628Y-121569296D01*
X138278796Y-121569296D01*
X138024796Y-121569296D01*
X137855963Y-121569296D01*
X137798935Y-121575427D01*
X137669875Y-121623564D01*
X137559609Y-121706109D01*
X137477064Y-121816375D01*
X137428927Y-121945435D01*
X137422796Y-122002463D01*
X137422796Y-122146296D01*
X134950723Y-122146296D01*
X134947121Y-122099548D01*
X134980803Y-122037050D01*
X135015048Y-122012457D01*
X135071887Y-121984670D01*
X135141871Y-121972721D01*
X135182565Y-121984670D01*
X135218996Y-122002480D01*
X135250246Y-122017757D01*
X135319150Y-122027796D01*
X135319156Y-122027796D01*
X135586436Y-122027796D01*
X135586442Y-122027796D01*
X135655346Y-122017757D01*
X135722459Y-121984947D01*
X135792438Y-121972999D01*
X135833134Y-121984948D01*
X135900246Y-122017757D01*
X135969150Y-122027796D01*
X135969156Y-122027796D01*
X136236436Y-122027796D01*
X136236442Y-122027796D01*
X136305346Y-122017757D01*
X136372458Y-121984947D01*
X136442440Y-121972999D01*
X136483131Y-121984946D01*
X136550246Y-122017757D01*
X136619150Y-122027796D01*
X136619156Y-122027796D01*
X136886436Y-122027796D01*
X136886442Y-122027796D01*
X136955346Y-122017757D01*
X137061636Y-121965795D01*
X137145295Y-121882136D01*
X137197257Y-121775846D01*
X137207296Y-121706942D01*
X137207296Y-121105775D01*
X137227298Y-121037655D01*
X137280954Y-120991162D01*
X137351228Y-120981058D01*
X137415808Y-121010552D01*
X137422381Y-121016671D01*
X137425849Y-121020139D01*
X137445903Y-121030357D01*
X137462755Y-121040684D01*
X137480968Y-121053917D01*
X137502378Y-121060873D01*
X137520635Y-121068435D01*
X137540694Y-121078656D01*
X137554356Y-121080819D01*
X137562926Y-121082177D01*
X137582153Y-121086793D01*
X137603553Y-121093746D01*
X137633378Y-121093746D01*
X137633402Y-121093747D01*
X137635976Y-121093747D01*
X140997597Y-121093747D01*
X140997599Y-121093747D01*
X141019009Y-121086790D01*
X141038217Y-121082178D01*
X141060459Y-121078656D01*
X141080512Y-121068437D01*
X141098776Y-121060872D01*
X141120185Y-121053917D01*
X141138393Y-121040687D01*
X141155251Y-121030356D01*
X141175304Y-121020139D01*
X141266445Y-120928998D01*
X141325970Y-120869473D01*
X141325972Y-120869469D01*
X141534366Y-120661077D01*
X141557292Y-120638151D01*
X141567509Y-120618098D01*
X141577842Y-120601237D01*
X141581954Y-120595578D01*
X141591070Y-120583032D01*
X141598025Y-120561623D01*
X141605590Y-120543359D01*
X141615809Y-120523306D01*
X141619331Y-120501064D01*
X141623943Y-120481856D01*
X141630900Y-120460446D01*
X141630900Y-120331553D01*
X141630900Y-116418476D01*
X141630900Y-116386054D01*
X141623942Y-116364640D01*
X141619331Y-116345433D01*
X141615809Y-116323194D01*
X141605589Y-116303137D01*
X141598025Y-116284875D01*
X141591070Y-116263468D01*
X141577837Y-116245255D01*
X141567507Y-116228397D01*
X141557292Y-116208349D01*
X141513754Y-116164811D01*
X141466151Y-116117208D01*
X140689200Y-115340256D01*
X140655174Y-115277945D01*
X140652295Y-115251162D01*
X140652295Y-114699232D01*
X140652294Y-114699223D01*
X140637530Y-114624995D01*
X140582009Y-114541903D01*
X140581280Y-114540812D01*
X140581279Y-114540811D01*
X140497098Y-114484562D01*
X140422863Y-114469796D01*
X139472732Y-114469796D01*
X139472722Y-114469797D01*
X139398495Y-114484561D01*
X139314311Y-114540812D01*
X139258062Y-114624993D01*
X139243296Y-114699226D01*
X139243296Y-115649359D01*
X139243297Y-115649369D01*
X139258061Y-115723597D01*
X139291936Y-115774293D01*
X139313151Y-115842046D01*
X139294368Y-115910513D01*
X139291937Y-115914296D01*
X139258062Y-115964993D01*
X139243296Y-116039226D01*
X139243296Y-116989359D01*
X139243297Y-116989369D01*
X139258062Y-117063597D01*
X139258061Y-117063597D01*
X139285254Y-117104292D01*
X139306470Y-117172045D01*
X139287688Y-117240512D01*
X139285255Y-117244297D01*
X139258062Y-117284993D01*
X139243294Y-117359234D01*
X139242827Y-117363984D01*
X139216245Y-117429816D01*
X139158292Y-117470827D01*
X139087366Y-117473995D01*
X139087284Y-117473975D01*
X139066271Y-117468796D01*
X139066268Y-117468796D01*
X138907326Y-117468796D01*
X138907324Y-117468796D01*
X138753006Y-117506832D01*
X138752999Y-117506835D01*
X138612271Y-117580694D01*
X138612266Y-117580698D01*
X138493298Y-117686096D01*
X138403012Y-117816897D01*
X138403009Y-117816903D01*
X138346647Y-117965516D01*
X138339878Y-118021259D01*
X138311810Y-118086472D01*
X138252941Y-118126158D01*
X138181962Y-118127716D01*
X138175861Y-118125903D01*
X138168465Y-118123500D01*
X138136043Y-118123500D01*
X134715599Y-118123500D01*
X134647478Y-118103498D01*
X134600985Y-118049842D01*
X134590881Y-117979568D01*
X134611903Y-117925924D01*
X134634748Y-117892827D01*
X134695584Y-117804691D01*
X134751946Y-117656078D01*
X134756243Y-117620691D01*
X134757103Y-117613609D01*
X134785169Y-117548395D01*
X134844037Y-117508708D01*
X134882184Y-117502795D01*
X135376860Y-117502795D01*
X135376862Y-117502795D01*
X135376865Y-117502794D01*
X135376868Y-117502794D01*
X135413459Y-117495515D01*
X135451097Y-117488030D01*
X135535280Y-117431780D01*
X135547031Y-117414192D01*
X135601507Y-117368666D01*
X135671950Y-117359817D01*
X135735995Y-117390458D01*
X135756558Y-117414190D01*
X135768312Y-117431780D01*
X135768313Y-117431781D01*
X135852493Y-117488029D01*
X135852495Y-117488030D01*
X135926729Y-117502796D01*
X136976862Y-117502795D01*
X136976865Y-117502794D01*
X136976869Y-117502794D01*
X137026122Y-117492997D01*
X137051097Y-117488030D01*
X137135280Y-117431780D01*
X137191530Y-117347597D01*
X137206296Y-117273363D01*
X137206295Y-116323230D01*
X137206294Y-116323226D01*
X137206294Y-116323222D01*
X137191530Y-116248995D01*
X137170797Y-116217967D01*
X137135280Y-116164812D01*
X137135279Y-116164811D01*
X137087627Y-116132970D01*
X137042100Y-116078493D01*
X137033253Y-116008050D01*
X137039816Y-115983531D01*
X137091946Y-115846078D01*
X137091946Y-115846077D01*
X137091947Y-115846075D01*
X137111104Y-115688299D01*
X137111104Y-115688292D01*
X137091947Y-115530516D01*
X137067527Y-115466127D01*
X137035584Y-115381901D01*
X136945295Y-115251095D01*
X136940611Y-115246945D01*
X136883743Y-115196564D01*
X136846018Y-115136420D01*
X136841297Y-115102252D01*
X136841297Y-113528795D01*
X136861299Y-113460674D01*
X136914955Y-113414181D01*
X136967297Y-113402795D01*
X136976860Y-113402795D01*
X136976862Y-113402795D01*
X136976865Y-113402794D01*
X136976868Y-113402794D01*
X137013459Y-113395515D01*
X137051097Y-113388030D01*
X137135280Y-113331780D01*
X137191530Y-113247597D01*
X137206296Y-113173363D01*
X137206295Y-112223230D01*
X137206294Y-112223226D01*
X137206294Y-112223222D01*
X137191530Y-112148995D01*
X137135279Y-112064811D01*
X137051098Y-112008562D01*
X136976863Y-111993796D01*
X135926732Y-111993796D01*
X135926722Y-111993797D01*
X135852495Y-112008561D01*
X135768312Y-112064811D01*
X135756558Y-112082402D01*
X135702079Y-112127927D01*
X135631636Y-112136773D01*
X135567593Y-112106129D01*
X135547029Y-112082396D01*
X135535279Y-112064811D01*
X135451098Y-112008562D01*
X135376863Y-111993796D01*
X134326732Y-111993796D01*
X134326722Y-111993797D01*
X134252495Y-112008561D01*
X134168311Y-112064812D01*
X134112062Y-112148993D01*
X134097296Y-112223226D01*
X134097296Y-113173359D01*
X134097297Y-113173369D01*
X134112061Y-113247596D01*
X134168312Y-113331780D01*
X134252493Y-113388029D01*
X134252495Y-113388030D01*
X134326729Y-113402796D01*
X134356295Y-113402795D01*
X134424415Y-113422795D01*
X134470909Y-113476450D01*
X134482297Y-113528795D01*
X134482297Y-115967796D01*
X134462295Y-116035917D01*
X134408639Y-116082410D01*
X134356301Y-116093796D01*
X134326734Y-116093796D01*
X134326722Y-116093797D01*
X134252495Y-116108561D01*
X134168311Y-116164812D01*
X134112062Y-116248993D01*
X134097296Y-116323226D01*
X134097296Y-116729067D01*
X134077294Y-116797188D01*
X134023638Y-116843681D01*
X134001450Y-116851406D01*
X133878006Y-116881832D01*
X133878005Y-116881832D01*
X133763070Y-116942155D01*
X133693456Y-116956101D01*
X133629694Y-116931966D01*
X133541570Y-116866927D01*
X133541563Y-116866924D01*
X133412249Y-116821675D01*
X133412251Y-116821675D01*
X133387685Y-116819371D01*
X133381545Y-116818796D01*
X133381544Y-116818796D01*
X132722055Y-116818796D01*
X132722040Y-116818797D01*
X132691343Y-116821675D01*
X132691340Y-116821676D01*
X132562028Y-116866924D01*
X132562021Y-116866927D01*
X132451785Y-116948285D01*
X132370427Y-117058521D01*
X132366012Y-117066876D01*
X132364643Y-117066152D01*
X132329334Y-117115370D01*
X132263331Y-117141525D01*
X132193665Y-117127844D01*
X132142455Y-117078670D01*
X132133839Y-117059800D01*
X132133164Y-117058521D01*
X132051806Y-116948285D01*
X131941570Y-116866927D01*
X131941563Y-116866924D01*
X131812249Y-116821675D01*
X131812251Y-116821675D01*
X131787685Y-116819371D01*
X131781545Y-116818796D01*
X131781544Y-116818796D01*
X131122055Y-116818796D01*
X131122040Y-116818797D01*
X131091343Y-116821675D01*
X131091340Y-116821676D01*
X130962028Y-116866924D01*
X130962021Y-116866927D01*
X130851785Y-116948285D01*
X130770427Y-117058521D01*
X130770424Y-117058528D01*
X130725175Y-117187841D01*
X130722296Y-117218544D01*
X130722296Y-117728036D01*
X130722297Y-117728051D01*
X130725175Y-117758748D01*
X130725176Y-117758751D01*
X130770424Y-117888063D01*
X130770427Y-117888070D01*
X130851786Y-117998307D01*
X130873187Y-118014102D01*
X130916119Y-118070647D01*
X130921664Y-118141427D01*
X130902062Y-118187054D01*
X130878014Y-118221894D01*
X130878009Y-118221903D01*
X130821646Y-118370516D01*
X130802490Y-118528292D01*
X130802490Y-118528299D01*
X130821646Y-118686075D01*
X130870244Y-118814214D01*
X130878010Y-118834691D01*
X130968299Y-118965497D01*
X131087268Y-119070895D01*
X131087269Y-119070895D01*
X131087271Y-119070897D01*
X131096819Y-119075908D01*
X131228004Y-119144759D01*
X131298370Y-119162102D01*
X131359724Y-119197825D01*
X131392025Y-119261048D01*
X131385018Y-119331698D01*
X131357311Y-119373537D01*
X130669659Y-120061188D01*
X130635906Y-120085288D01*
X130593954Y-120105798D01*
X130568900Y-120130852D01*
X130506587Y-120164876D01*
X130435772Y-120159810D01*
X130378937Y-120117262D01*
X130376138Y-120113371D01*
X130298295Y-120000595D01*
X130179326Y-119895197D01*
X130179325Y-119895196D01*
X130179322Y-119895194D01*
X130038594Y-119821335D01*
X130038592Y-119821334D01*
X130038590Y-119821333D01*
X130038588Y-119821332D01*
X130038587Y-119821332D01*
X129884269Y-119783296D01*
X129884268Y-119783296D01*
X129748079Y-119783296D01*
X129679958Y-119763294D01*
X129633465Y-119709638D01*
X129623361Y-119639364D01*
X129638960Y-119594296D01*
X129691260Y-119503708D01*
X129691259Y-119503708D01*
X129691263Y-119503703D01*
X129741265Y-119336684D01*
X129751403Y-119162636D01*
X129721128Y-118990942D01*
X129663318Y-118856923D01*
X129652076Y-118830860D01*
X129652074Y-118830856D01*
X129547964Y-118691013D01*
X129414411Y-118578947D01*
X129336165Y-118539651D01*
X129258611Y-118500702D01*
X129088967Y-118460496D01*
X128958360Y-118460496D01*
X128958357Y-118460496D01*
X128828631Y-118475659D01*
X128664802Y-118535288D01*
X128664799Y-118535289D01*
X128519142Y-118631090D01*
X128399499Y-118757903D01*
X128312331Y-118908883D01*
X128312329Y-118908889D01*
X128263829Y-119070893D01*
X128262327Y-119075909D01*
X128255226Y-119197825D01*
X128252189Y-119249956D01*
X128282464Y-119421650D01*
X128282465Y-119421652D01*
X128351515Y-119581731D01*
X128351517Y-119581735D01*
X128426107Y-119681926D01*
X128450742Y-119748512D01*
X128435468Y-119817846D01*
X128385133Y-119867915D01*
X128383596Y-119868735D01*
X128249873Y-119938919D01*
X128249870Y-119938921D01*
X128132046Y-120043304D01*
X128089492Y-120104956D01*
X128034334Y-120149656D01*
X127963765Y-120157439D01*
X127900191Y-120125834D01*
X127882100Y-120104956D01*
X127839545Y-120043304D01*
X127736593Y-119952096D01*
X127721720Y-119938920D01*
X127721719Y-119938919D01*
X127589387Y-119869466D01*
X127538365Y-119820098D01*
X127522133Y-119750982D01*
X127545845Y-119684062D01*
X127556286Y-119671441D01*
X127572092Y-119654689D01*
X127659263Y-119503703D01*
X127709265Y-119336684D01*
X127719403Y-119162636D01*
X127689128Y-118990942D01*
X127631318Y-118856923D01*
X127620076Y-118830860D01*
X127620074Y-118830856D01*
X127515964Y-118691013D01*
X127382411Y-118578947D01*
X127304166Y-118539651D01*
X127226611Y-118500702D01*
X127056967Y-118460496D01*
X126926360Y-118460496D01*
X126926357Y-118460496D01*
X126796631Y-118475659D01*
X126632802Y-118535288D01*
X126632799Y-118535289D01*
X126487142Y-118631090D01*
X126367499Y-118757903D01*
X126280331Y-118908883D01*
X126280329Y-118908889D01*
X126231829Y-119070893D01*
X126230327Y-119075909D01*
X126223226Y-119197825D01*
X126220189Y-119249956D01*
X126250464Y-119421650D01*
X126250465Y-119421652D01*
X126319515Y-119581731D01*
X126319517Y-119581735D01*
X126423627Y-119721578D01*
X126557180Y-119833644D01*
X126557182Y-119833645D01*
X126712981Y-119911890D01*
X126739712Y-119918225D01*
X126801382Y-119953396D01*
X126834249Y-120016326D01*
X126827875Y-120087036D01*
X126814351Y-120112403D01*
X126772629Y-120172847D01*
X126772627Y-120172852D01*
X126716807Y-120320034D01*
X126697835Y-120476292D01*
X126697835Y-120476299D01*
X126716807Y-120632557D01*
X126759145Y-120744191D01*
X126772628Y-120779742D01*
X126862048Y-120909289D01*
X126911145Y-120952785D01*
X126933693Y-120972761D01*
X126971418Y-121032905D01*
X126970638Y-121103898D01*
X126931600Y-121163199D01*
X126866699Y-121191980D01*
X126796540Y-121181104D01*
X126791584Y-121178640D01*
X126698594Y-121129835D01*
X126698592Y-121129834D01*
X126698590Y-121129833D01*
X126698588Y-121129832D01*
X126698587Y-121129832D01*
X126544269Y-121091796D01*
X126544268Y-121091796D01*
X126385326Y-121091796D01*
X126385324Y-121091796D01*
X126231006Y-121129832D01*
X126230999Y-121129835D01*
X126090271Y-121203694D01*
X126090266Y-121203698D01*
X125971298Y-121309096D01*
X125881012Y-121439897D01*
X125881009Y-121439903D01*
X125824646Y-121588516D01*
X125805490Y-121746292D01*
X125805490Y-121746299D01*
X125824646Y-121904075D01*
X125858951Y-121994528D01*
X125881010Y-122052691D01*
X125971299Y-122183497D01*
X126086973Y-122285976D01*
X126088111Y-122286984D01*
X126125836Y-122347129D01*
X126125056Y-122418121D01*
X126088111Y-122475607D01*
X126084373Y-122478920D01*
X125971298Y-122579096D01*
X125881012Y-122709897D01*
X125881009Y-122709903D01*
X125824646Y-122858516D01*
X125805490Y-123016292D01*
X125805490Y-123016299D01*
X118629207Y-123016299D01*
X116472950Y-120860042D01*
X116472863Y-120859912D01*
X116455182Y-120842216D01*
X116454801Y-120842058D01*
X116454799Y-120842058D01*
X116454416Y-120842217D01*
X116451050Y-120845557D01*
X116388605Y-120879338D01*
X116317810Y-120873997D01*
X116273210Y-120845210D01*
X112776000Y-117348000D01*
X111252003Y-115824003D01*
X112878692Y-115824003D01*
X112897849Y-115981779D01*
X112937905Y-116087394D01*
X112949060Y-116116809D01*
X112954212Y-116130392D01*
X112954215Y-116130398D01*
X112958433Y-116136509D01*
X113044502Y-116261201D01*
X113163471Y-116366599D01*
X113163472Y-116366599D01*
X113163474Y-116366601D01*
X113231029Y-116402056D01*
X113304207Y-116440463D01*
X113458529Y-116478500D01*
X113458530Y-116478500D01*
X113617470Y-116478500D01*
X113617471Y-116478500D01*
X113771793Y-116440463D01*
X113912529Y-116366599D01*
X113954553Y-116329368D01*
X114018802Y-116299168D01*
X114089183Y-116308498D01*
X114143347Y-116354398D01*
X114164097Y-116422295D01*
X114157938Y-116462616D01*
X114115540Y-116593106D01*
X114115539Y-116721244D01*
X114149249Y-116824990D01*
X114155135Y-116843105D01*
X114161166Y-116851406D01*
X114211503Y-116920689D01*
X114454497Y-117163683D01*
X114477923Y-117198739D01*
X114478173Y-117198595D01*
X114480371Y-117202402D01*
X114481806Y-117204549D01*
X114482301Y-117205744D01*
X114482305Y-117205751D01*
X114551866Y-117296405D01*
X114551872Y-117296412D01*
X114551874Y-117296414D01*
X114973060Y-117717600D01*
X114978489Y-117723790D01*
X114999301Y-117750913D01*
X115120355Y-117843801D01*
X115261325Y-117902193D01*
X115366011Y-117915975D01*
X115412605Y-117922109D01*
X115412606Y-117922109D01*
X115446487Y-117917649D01*
X115454718Y-117917109D01*
X115643278Y-117917109D01*
X115711399Y-117937111D01*
X115757892Y-117990767D01*
X115767996Y-118061041D01*
X115763111Y-118082045D01*
X115724208Y-118201775D01*
X115724208Y-118329912D01*
X115763802Y-118451771D01*
X115820171Y-118529357D01*
X116589978Y-119299164D01*
X116634758Y-119331698D01*
X116667563Y-119355533D01*
X116708184Y-119368731D01*
X116789424Y-119395128D01*
X116789426Y-119395128D01*
X116917560Y-119395128D01*
X116984009Y-119373537D01*
X117039421Y-119355533D01*
X117117007Y-119299163D01*
X117374159Y-119042011D01*
X117430529Y-118964425D01*
X117452463Y-118896918D01*
X117470124Y-118842564D01*
X117470124Y-118714427D01*
X117430529Y-118592568D01*
X117430529Y-118592567D01*
X117388913Y-118535289D01*
X117374161Y-118514984D01*
X117079210Y-118220033D01*
X116770609Y-117911432D01*
X116736586Y-117849122D01*
X116741650Y-117778307D01*
X116759740Y-117745640D01*
X116776511Y-117723782D01*
X116781928Y-117717606D01*
X116839327Y-117660207D01*
X117638734Y-117660207D01*
X117933798Y-117955271D01*
X117933808Y-117955279D01*
X118011295Y-118011580D01*
X118133005Y-118051126D01*
X118260981Y-118051126D01*
X118382691Y-118011580D01*
X118460179Y-117955282D01*
X118460186Y-117955276D01*
X118498927Y-117916532D01*
X118498927Y-117916531D01*
X117940669Y-117358273D01*
X117940668Y-117358273D01*
X117638734Y-117660206D01*
X117638734Y-117660207D01*
X116839327Y-117660207D01*
X117149937Y-117349597D01*
X117212247Y-117315573D01*
X117283062Y-117320638D01*
X117328126Y-117349599D01*
X117459128Y-117480602D01*
X117459129Y-117480602D01*
X117761062Y-117178669D01*
X118120273Y-117178669D01*
X118678532Y-117736928D01*
X118678534Y-117736928D01*
X118717275Y-117698186D01*
X118717279Y-117698182D01*
X118773579Y-117620691D01*
X118773583Y-117620685D01*
X118813126Y-117498982D01*
X118813126Y-117371004D01*
X118773580Y-117249297D01*
X118717278Y-117171803D01*
X118504547Y-116959072D01*
X118485346Y-116959073D01*
X118465331Y-116970004D01*
X118438543Y-116972884D01*
X118326055Y-116972884D01*
X118120273Y-117178666D01*
X118120273Y-117178669D01*
X117761062Y-117178669D01*
X118216439Y-116723292D01*
X118740329Y-116723292D01*
X118842010Y-116824973D01*
X118842029Y-116824990D01*
X118886701Y-116860988D01*
X119011990Y-116918207D01*
X119148330Y-116937808D01*
X119284670Y-116918207D01*
X119409959Y-116860988D01*
X119454631Y-116824990D01*
X119454650Y-116824973D01*
X119574009Y-116705614D01*
X119574009Y-116705613D01*
X119166009Y-116297613D01*
X119166008Y-116297613D01*
X118740329Y-116723291D01*
X118740329Y-116723292D01*
X118216439Y-116723292D01*
X118242601Y-116697130D01*
X118242601Y-116697128D01*
X117947537Y-116402064D01*
X117947527Y-116402056D01*
X117870040Y-116345755D01*
X117748331Y-116306210D01*
X117620355Y-116306210D01*
X117589244Y-116316318D01*
X117518276Y-116318344D01*
X117457479Y-116281680D01*
X117426155Y-116217967D01*
X117424310Y-116196484D01*
X117424310Y-116124921D01*
X117424850Y-116116689D01*
X117427864Y-116093796D01*
X117429310Y-116082810D01*
X117428683Y-116078051D01*
X117413799Y-115964993D01*
X117409394Y-115931530D01*
X117351002Y-115790560D01*
X117331091Y-115764612D01*
X117258114Y-115669506D01*
X117230991Y-115648694D01*
X117224801Y-115643265D01*
X116948405Y-115366869D01*
X116914379Y-115304557D01*
X116911500Y-115277774D01*
X116911500Y-115009339D01*
X116931502Y-114941218D01*
X116985158Y-114894725D01*
X117055432Y-114884621D01*
X117067652Y-114886999D01*
X117096999Y-114894233D01*
X117155941Y-114927477D01*
X117216933Y-114988469D01*
X117250959Y-115050781D01*
X117252555Y-115059631D01*
X117269308Y-115176150D01*
X117326587Y-115301573D01*
X117362628Y-115346297D01*
X117362636Y-115346305D01*
X117362643Y-115346313D01*
X117745670Y-115729340D01*
X117745677Y-115729346D01*
X117745687Y-115729356D01*
X117790411Y-115765397D01*
X117915834Y-115822676D01*
X118052314Y-115842298D01*
X118188794Y-115822676D01*
X118207107Y-115814312D01*
X118277377Y-115804206D01*
X118341959Y-115833696D01*
X118380346Y-115893421D01*
X118380349Y-115964417D01*
X118374067Y-115981262D01*
X118365808Y-115999346D01*
X118346207Y-116135686D01*
X118365808Y-116272025D01*
X118423027Y-116397314D01*
X118459025Y-116441986D01*
X118459042Y-116442005D01*
X118478383Y-116461346D01*
X118478384Y-116461346D01*
X118636617Y-116303114D01*
X118698929Y-116269089D01*
X118725712Y-116266210D01*
X118838201Y-116266210D01*
X118986405Y-116118006D01*
X119345612Y-116118006D01*
X119345613Y-116118007D01*
X119753614Y-116526009D01*
X119753615Y-116526009D01*
X119872973Y-116406650D01*
X119872990Y-116406631D01*
X119908988Y-116361959D01*
X119966207Y-116236670D01*
X119985808Y-116100330D01*
X119982603Y-116078036D01*
X130722296Y-116078036D01*
X130722297Y-116078051D01*
X130725175Y-116108748D01*
X130725176Y-116108751D01*
X130770424Y-116238063D01*
X130770427Y-116238070D01*
X130851785Y-116348306D01*
X130962021Y-116429664D01*
X130962028Y-116429667D01*
X131091342Y-116474916D01*
X131091345Y-116474917D01*
X131122047Y-116477796D01*
X131781544Y-116477795D01*
X131812247Y-116474917D01*
X131941569Y-116429665D01*
X132051806Y-116348306D01*
X132133165Y-116238069D01*
X132133165Y-116238066D01*
X132137580Y-116229716D01*
X132138750Y-116230334D01*
X132174497Y-116180482D01*
X132240494Y-116154312D01*
X132310163Y-116167977D01*
X132361385Y-116217138D01*
X132370612Y-116237337D01*
X132370872Y-116237830D01*
X132452143Y-116347948D01*
X132562261Y-116429219D01*
X132691436Y-116474419D01*
X132691434Y-116474419D01*
X132722107Y-116477295D01*
X132722113Y-116477296D01*
X132924796Y-116477296D01*
X132924796Y-115950296D01*
X133178796Y-115950296D01*
X133178796Y-116477296D01*
X133381479Y-116477296D01*
X133381484Y-116477295D01*
X133412156Y-116474419D01*
X133541330Y-116429219D01*
X133651448Y-116347948D01*
X133732719Y-116237830D01*
X133777919Y-116108656D01*
X133780795Y-116077984D01*
X133780796Y-116077978D01*
X133780796Y-115950296D01*
X133178796Y-115950296D01*
X132924796Y-115950296D01*
X132924796Y-115169296D01*
X133178796Y-115169296D01*
X133178796Y-115696296D01*
X133780796Y-115696296D01*
X133780796Y-115568613D01*
X133780795Y-115568607D01*
X133777919Y-115537935D01*
X133732719Y-115408761D01*
X133651448Y-115298643D01*
X133541330Y-115217372D01*
X133412155Y-115172172D01*
X133412157Y-115172172D01*
X133381484Y-115169296D01*
X133178796Y-115169296D01*
X132924796Y-115169296D01*
X132722107Y-115169296D01*
X132691435Y-115172172D01*
X132562261Y-115217372D01*
X132452143Y-115298643D01*
X132370872Y-115408761D01*
X132366462Y-115417107D01*
X132365232Y-115416457D01*
X132329600Y-115466127D01*
X132263596Y-115492282D01*
X132193931Y-115478601D01*
X132142720Y-115429427D01*
X132133245Y-115408675D01*
X132133166Y-115408525D01*
X132133165Y-115408523D01*
X132051806Y-115298286D01*
X132051804Y-115298285D01*
X132050787Y-115296906D01*
X132026429Y-115230218D01*
X132041992Y-115160948D01*
X132043980Y-115157744D01*
X132045577Y-115154700D01*
X132045584Y-115154691D01*
X132101946Y-115006078D01*
X132101946Y-115006077D01*
X132101947Y-115006075D01*
X132121104Y-114848299D01*
X132121104Y-114848292D01*
X132101947Y-114690516D01*
X132083318Y-114641396D01*
X132045584Y-114541901D01*
X131955295Y-114411095D01*
X131836326Y-114305697D01*
X131836325Y-114305696D01*
X131836322Y-114305694D01*
X131695594Y-114231835D01*
X131695592Y-114231834D01*
X131695590Y-114231833D01*
X131695588Y-114231832D01*
X131695587Y-114231832D01*
X131541269Y-114193796D01*
X131541268Y-114193796D01*
X131382326Y-114193796D01*
X131382324Y-114193796D01*
X131228006Y-114231832D01*
X131227999Y-114231835D01*
X131087271Y-114305694D01*
X131087266Y-114305698D01*
X130968298Y-114411096D01*
X130878012Y-114541897D01*
X130878009Y-114541903D01*
X130821646Y-114690516D01*
X130802490Y-114848292D01*
X130802490Y-114848299D01*
X130821646Y-115006075D01*
X130855941Y-115096500D01*
X130870104Y-115133846D01*
X130880713Y-115161817D01*
X130877982Y-115162852D01*
X130889269Y-115219178D01*
X130863369Y-115285282D01*
X130852856Y-115297215D01*
X130851786Y-115298284D01*
X130770427Y-115408521D01*
X130770424Y-115408528D01*
X130725175Y-115537841D01*
X130722296Y-115568544D01*
X130722296Y-116078036D01*
X119982603Y-116078036D01*
X119966207Y-115963990D01*
X119908988Y-115838701D01*
X119872990Y-115794029D01*
X119872973Y-115794010D01*
X119771292Y-115692329D01*
X119771290Y-115692329D01*
X119345612Y-116118006D01*
X118986405Y-116118006D01*
X119166008Y-115938403D01*
X119591686Y-115512724D01*
X119591686Y-115512723D01*
X119490005Y-115411042D01*
X119489986Y-115411025D01*
X119445314Y-115375027D01*
X119320025Y-115317808D01*
X119183686Y-115298207D01*
X119047346Y-115317808D01*
X119029262Y-115326067D01*
X118958988Y-115336168D01*
X118894408Y-115306672D01*
X118856027Y-115246945D01*
X118856029Y-115175948D01*
X118862308Y-115159116D01*
X118870676Y-115140794D01*
X118890298Y-115004314D01*
X118870676Y-114867834D01*
X118813397Y-114742411D01*
X118777356Y-114697687D01*
X118777346Y-114697677D01*
X118777340Y-114697670D01*
X118394313Y-114314643D01*
X118394305Y-114314636D01*
X118394297Y-114314628D01*
X118349573Y-114278587D01*
X118224150Y-114221308D01*
X118107631Y-114204555D01*
X118043052Y-114175063D01*
X118036469Y-114168933D01*
X117812103Y-113944567D01*
X117797502Y-113927048D01*
X117788837Y-113914494D01*
X117720081Y-113814884D01*
X117601112Y-113709486D01*
X117601111Y-113709485D01*
X117601108Y-113709483D01*
X117460380Y-113635624D01*
X117460378Y-113635623D01*
X117460376Y-113635622D01*
X117460374Y-113635621D01*
X117460373Y-113635621D01*
X117306055Y-113597585D01*
X117306054Y-113597585D01*
X117147112Y-113597585D01*
X117147110Y-113597585D01*
X116992792Y-113635621D01*
X116992785Y-113635624D01*
X116852057Y-113709483D01*
X116852052Y-113709487D01*
X116733084Y-113814885D01*
X116642798Y-113945686D01*
X116642793Y-113945697D01*
X116616471Y-114015100D01*
X116573613Y-114071700D01*
X116506957Y-114096145D01*
X116437667Y-114080671D01*
X116409565Y-114059514D01*
X116335711Y-113985661D01*
X116301686Y-113923349D01*
X116300092Y-113914517D01*
X116289275Y-113839275D01*
X116231996Y-113713852D01*
X116195955Y-113669128D01*
X116195945Y-113669118D01*
X116195939Y-113669111D01*
X115777556Y-113250728D01*
X115777548Y-113250721D01*
X115777540Y-113250713D01*
X115732816Y-113214672D01*
X115607393Y-113157393D01*
X115470913Y-113137771D01*
X115470912Y-113137771D01*
X115402673Y-113147582D01*
X115334433Y-113157393D01*
X115299451Y-113173369D01*
X115209010Y-113214672D01*
X115209006Y-113214675D01*
X115164291Y-113250709D01*
X115164269Y-113250728D01*
X114781242Y-113633755D01*
X114781229Y-113633769D01*
X114781227Y-113633772D01*
X114745186Y-113678496D01*
X114687907Y-113803919D01*
X114668285Y-113940399D01*
X114687907Y-114076879D01*
X114695864Y-114094303D01*
X114695955Y-114094501D01*
X114706058Y-114164775D01*
X114676565Y-114229356D01*
X114616839Y-114267739D01*
X114545842Y-114267739D01*
X114529002Y-114261458D01*
X114511377Y-114253409D01*
X114374897Y-114233787D01*
X114238417Y-114253409D01*
X114183279Y-114278590D01*
X114112994Y-114310688D01*
X114112990Y-114310691D01*
X114068275Y-114346725D01*
X114068253Y-114346744D01*
X113685226Y-114729771D01*
X113685207Y-114729793D01*
X113649173Y-114774508D01*
X113649170Y-114774512D01*
X113591890Y-114899937D01*
X113591889Y-114899940D01*
X113589355Y-114917568D01*
X113559861Y-114982148D01*
X113553733Y-114988729D01*
X113369811Y-115172651D01*
X113310875Y-115205893D01*
X113304207Y-115207537D01*
X113304203Y-115207538D01*
X113163474Y-115281398D01*
X113163469Y-115281402D01*
X113044501Y-115386800D01*
X112954215Y-115517601D01*
X112954212Y-115517607D01*
X112897849Y-115666220D01*
X112878692Y-115823996D01*
X112878692Y-115824003D01*
X111252003Y-115824003D01*
X107754772Y-112326772D01*
X107720746Y-112264460D01*
X107725811Y-112193645D01*
X107754969Y-112148385D01*
X107757781Y-112145583D01*
X107757783Y-112145583D01*
X107757942Y-112145200D01*
X107757824Y-112144916D01*
X107757783Y-112144817D01*
X107757781Y-112144816D01*
X107740624Y-112127573D01*
X107740188Y-112127280D01*
X99460003Y-103847095D01*
X99425977Y-103784783D01*
X99431042Y-103713968D01*
X99473589Y-103657132D01*
X99540109Y-103632321D01*
X99549098Y-103632000D01*
X144654000Y-103632000D01*
X144722121Y-103652002D01*
G37*
G04 #@! TD.AperFunction*
M02*
