M48
; DRILL file {KiCad (5.1.5-0-10_14)} date Tuesday, August 04, 2020 at 10:07:40 pm
; FORMAT={-:-/ absolute / inch / decimal}
; #@! TF.CreationDate,2020-08-04T22:07:40-06:00
; #@! TF.GenerationSoftware,Kicad,Pcbnew,(5.1.5-0-10_14)
; #@! TF.FileFunction,Plated,1,16,PTH
FMAT,2
INCH
T1C0.0157
T2C0.0236
T3C0.0394
%
G90
G05
T1
X5.0782Y-4.5911
X5.1299Y-4.3602
X5.2165Y-4.3602
X5.626Y-4.6929
X5.6496Y-4.3209
X5.7559Y-4.813
X6.0138Y-4.4094
X6.1909Y-3.3268
X6.1909Y-3.5236
X6.1909Y-3.7205
X6.1909Y-3.9173
X6.1909Y-4.1142
X6.2584Y-4.311
X6.3209Y-4.4567
X6.3878Y-3.3268
X6.3878Y-3.5236
X6.3878Y-3.7205
X6.3878Y-3.9173
X6.3878Y-4.1142
X6.5177Y-4.4567
X6.5846Y-3.3268
X6.5846Y-3.5236
X6.5846Y-3.7205
X6.5846Y-3.9173
X6.5846Y-4.311
X6.7146Y-4.4567
X6.7815Y-3.3268
X6.7815Y-3.5236
X6.7815Y-3.7205
X6.7815Y-4.1142
X6.7815Y-4.311
X6.9114Y-4.4567
X6.9783Y-3.3268
X6.9783Y-3.5236
X6.9783Y-3.9173
X6.9783Y-4.1142
X6.9783Y-4.311
X7.1083Y-4.4567
X7.1752Y-3.7205
X7.1752Y-3.9173
X7.1752Y-4.1142
X7.1752Y-4.311
X7.2366Y-3.3268
X7.3051Y-4.4567
X7.372Y-3.5236
X7.372Y-3.7205
X7.372Y-3.9173
X7.372Y-4.1142
X7.372Y-4.311
X7.502Y-4.4567
X7.5098Y-3.3268
X7.5098Y-3.5236
X7.5098Y-3.7205
X7.5098Y-3.9173
X7.5098Y-4.1142
X7.5098Y-4.311
T2
X4.4325Y-4.6075
T3
X4.9799Y-4.3642
X5.3799Y-4.3642
X5.3799Y-4.4642
X5.3799Y-4.5642
X5.3799Y-4.6642
X5.3799Y-4.7642
T0
M30
