G04 #@! TF.GenerationSoftware,KiCad,Pcbnew,(5.1.5-0-10_14)*
G04 #@! TF.CreationDate,2020-08-05T22:15:24-06:00*
G04 #@! TF.ProjectId,business_card_v4,62757369-6e65-4737-935f-636172645f76,rev?*
G04 #@! TF.SameCoordinates,Original*
G04 #@! TF.FileFunction,Legend,Bot*
G04 #@! TF.FilePolarity,Positive*
%FSLAX46Y46*%
G04 Gerber Fmt 4.6, Leading zero omitted, Abs format (unit mm)*
G04 Created by KiCad (PCBNEW (5.1.5-0-10_14)) date 2020-08-05 22:15:24*
%MOMM*%
%LPD*%
G04 APERTURE LIST*
%ADD10C,0.142240*%
%ADD11C,0.150000*%
%ADD12C,0.010000*%
%ADD13C,0.120000*%
G04 APERTURE END LIST*
D10*
X124161904Y-110302380D02*
X124638095Y-110302380D01*
X124685714Y-110778571D01*
X124638095Y-110730952D01*
X124542857Y-110683333D01*
X124304761Y-110683333D01*
X124209523Y-110730952D01*
X124161904Y-110778571D01*
X124114285Y-110873809D01*
X124114285Y-111111904D01*
X124161904Y-111207142D01*
X124209523Y-111254761D01*
X124304761Y-111302380D01*
X124542857Y-111302380D01*
X124638095Y-111254761D01*
X124685714Y-111207142D01*
X123780952Y-110635714D02*
X123542857Y-111302380D01*
X123304761Y-110635714D01*
X122923809Y-110921428D02*
X122161904Y-110921428D01*
X121733333Y-111254761D02*
X121590476Y-111302380D01*
X121352380Y-111302380D01*
X121257142Y-111254761D01*
X121209523Y-111207142D01*
X121161904Y-111111904D01*
X121161904Y-111016666D01*
X121209523Y-110921428D01*
X121257142Y-110873809D01*
X121352380Y-110826190D01*
X121542857Y-110778571D01*
X121638095Y-110730952D01*
X121685714Y-110683333D01*
X121733333Y-110588095D01*
X121733333Y-110492857D01*
X121685714Y-110397619D01*
X121638095Y-110350000D01*
X121542857Y-110302380D01*
X121304761Y-110302380D01*
X121161904Y-110350000D01*
X120733333Y-110302380D02*
X120733333Y-111111904D01*
X120685714Y-111207142D01*
X120638095Y-111254761D01*
X120542857Y-111302380D01*
X120352380Y-111302380D01*
X120257142Y-111254761D01*
X120209523Y-111207142D01*
X120161904Y-111111904D01*
X120161904Y-110302380D01*
X119685714Y-111302380D02*
X119685714Y-110302380D01*
X119304761Y-110302380D01*
X119209523Y-110350000D01*
X119161904Y-110397619D01*
X119114285Y-110492857D01*
X119114285Y-110635714D01*
X119161904Y-110730952D01*
X119209523Y-110778571D01*
X119304761Y-110826190D01*
X119685714Y-110826190D01*
D11*
X145476190Y-120462380D02*
X144857142Y-120462380D01*
X145190476Y-120843333D01*
X145047619Y-120843333D01*
X144952380Y-120890952D01*
X144904761Y-120938571D01*
X144857142Y-121033809D01*
X144857142Y-121271904D01*
X144904761Y-121367142D01*
X144952380Y-121414761D01*
X145047619Y-121462380D01*
X145333333Y-121462380D01*
X145428571Y-121414761D01*
X145476190Y-121367142D01*
X144428571Y-121367142D02*
X144380952Y-121414761D01*
X144428571Y-121462380D01*
X144476190Y-121414761D01*
X144428571Y-121367142D01*
X144428571Y-121462380D01*
X144047619Y-120462380D02*
X143428571Y-120462380D01*
X143761904Y-120843333D01*
X143619047Y-120843333D01*
X143523809Y-120890952D01*
X143476190Y-120938571D01*
X143428571Y-121033809D01*
X143428571Y-121271904D01*
X143476190Y-121367142D01*
X143523809Y-121414761D01*
X143619047Y-121462380D01*
X143904761Y-121462380D01*
X144000000Y-121414761D01*
X144047619Y-121367142D01*
X143142857Y-120462380D02*
X142809523Y-121462380D01*
X142476190Y-120462380D01*
X142142857Y-121081428D02*
X141380952Y-121081428D01*
X140333333Y-121462380D02*
X140666666Y-120986190D01*
X140904761Y-121462380D02*
X140904761Y-120462380D01*
X140523809Y-120462380D01*
X140428571Y-120510000D01*
X140380952Y-120557619D01*
X140333333Y-120652857D01*
X140333333Y-120795714D01*
X140380952Y-120890952D01*
X140428571Y-120938571D01*
X140523809Y-120986190D01*
X140904761Y-120986190D01*
X139904761Y-120938571D02*
X139571428Y-120938571D01*
X139428571Y-121462380D02*
X139904761Y-121462380D01*
X139904761Y-120462380D01*
X139428571Y-120462380D01*
X138666666Y-120938571D02*
X139000000Y-120938571D01*
X139000000Y-121462380D02*
X139000000Y-120462380D01*
X138523809Y-120462380D01*
D10*
X142719047Y-113794761D02*
X142576190Y-113842380D01*
X142338095Y-113842380D01*
X142242857Y-113794761D01*
X142195238Y-113747142D01*
X142147619Y-113651904D01*
X142147619Y-113556666D01*
X142195238Y-113461428D01*
X142242857Y-113413809D01*
X142338095Y-113366190D01*
X142528571Y-113318571D01*
X142623809Y-113270952D01*
X142671428Y-113223333D01*
X142719047Y-113128095D01*
X142719047Y-113032857D01*
X142671428Y-112937619D01*
X142623809Y-112890000D01*
X142528571Y-112842380D01*
X142290476Y-112842380D01*
X142147619Y-112890000D01*
X141814285Y-112842380D02*
X141576190Y-113842380D01*
X141385714Y-113128095D01*
X141195238Y-113842380D01*
X140957142Y-112842380D01*
X140576190Y-113842380D02*
X140576190Y-112842380D01*
X140338095Y-112842380D01*
X140195238Y-112890000D01*
X140100000Y-112985238D01*
X140052380Y-113080476D01*
X140004761Y-113270952D01*
X140004761Y-113413809D01*
X140052380Y-113604285D01*
X140100000Y-113699523D01*
X140195238Y-113794761D01*
X140338095Y-113842380D01*
X140576190Y-113842380D01*
X139576190Y-113842380D02*
X139576190Y-112842380D01*
X138909523Y-112842380D02*
X138719047Y-112842380D01*
X138623809Y-112890000D01*
X138528571Y-112985238D01*
X138480952Y-113175714D01*
X138480952Y-113509047D01*
X138528571Y-113699523D01*
X138623809Y-113794761D01*
X138719047Y-113842380D01*
X138909523Y-113842380D01*
X139004761Y-113794761D01*
X139100000Y-113699523D01*
X139147619Y-113509047D01*
X139147619Y-113175714D01*
X139100000Y-112985238D01*
X139004761Y-112890000D01*
X138909523Y-112842380D01*
X140347619Y-116382380D02*
X140680952Y-115906190D01*
X140919047Y-116382380D02*
X140919047Y-115382380D01*
X140538095Y-115382380D01*
X140442857Y-115430000D01*
X140395238Y-115477619D01*
X140347619Y-115572857D01*
X140347619Y-115715714D01*
X140395238Y-115810952D01*
X140442857Y-115858571D01*
X140538095Y-115906190D01*
X140919047Y-115906190D01*
X139966666Y-116334761D02*
X139823809Y-116382380D01*
X139585714Y-116382380D01*
X139490476Y-116334761D01*
X139442857Y-116287142D01*
X139395238Y-116191904D01*
X139395238Y-116096666D01*
X139442857Y-116001428D01*
X139490476Y-115953809D01*
X139585714Y-115906190D01*
X139776190Y-115858571D01*
X139871428Y-115810952D01*
X139919047Y-115763333D01*
X139966666Y-115668095D01*
X139966666Y-115572857D01*
X139919047Y-115477619D01*
X139871428Y-115430000D01*
X139776190Y-115382380D01*
X139538095Y-115382380D01*
X139395238Y-115430000D01*
X139109523Y-115382380D02*
X138538095Y-115382380D01*
X138823809Y-116382380D02*
X138823809Y-115382380D01*
X143985904Y-118874761D02*
X143843047Y-118922380D01*
X143604952Y-118922380D01*
X143509714Y-118874761D01*
X143462095Y-118827142D01*
X143414476Y-118731904D01*
X143414476Y-118636666D01*
X143462095Y-118541428D01*
X143509714Y-118493809D01*
X143604952Y-118446190D01*
X143795428Y-118398571D01*
X143890666Y-118350952D01*
X143938285Y-118303333D01*
X143985904Y-118208095D01*
X143985904Y-118112857D01*
X143938285Y-118017619D01*
X143890666Y-117970000D01*
X143795428Y-117922380D01*
X143557333Y-117922380D01*
X143414476Y-117970000D01*
X143081142Y-117922380D02*
X142843047Y-118922380D01*
X142652571Y-118208095D01*
X142462095Y-118922380D01*
X142224000Y-117922380D01*
X141843047Y-118922380D02*
X141843047Y-117922380D01*
X141604952Y-117922380D01*
X141462095Y-117970000D01*
X141366857Y-118065238D01*
X141319238Y-118160476D01*
X141271619Y-118350952D01*
X141271619Y-118493809D01*
X141319238Y-118684285D01*
X141366857Y-118779523D01*
X141462095Y-118874761D01*
X141604952Y-118922380D01*
X141843047Y-118922380D01*
X140271619Y-118827142D02*
X140319238Y-118874761D01*
X140462095Y-118922380D01*
X140557333Y-118922380D01*
X140700190Y-118874761D01*
X140795428Y-118779523D01*
X140843047Y-118684285D01*
X140890666Y-118493809D01*
X140890666Y-118350952D01*
X140843047Y-118160476D01*
X140795428Y-118065238D01*
X140700190Y-117970000D01*
X140557333Y-117922380D01*
X140462095Y-117922380D01*
X140319238Y-117970000D01*
X140271619Y-118017619D01*
X139366857Y-118922380D02*
X139843047Y-118922380D01*
X139843047Y-117922380D01*
X139033523Y-118922380D02*
X139033523Y-117922380D01*
X138462095Y-118922380D02*
X138890666Y-118350952D01*
X138462095Y-117922380D02*
X139033523Y-118493809D01*
X140561904Y-110350000D02*
X140657142Y-110302380D01*
X140800000Y-110302380D01*
X140942857Y-110350000D01*
X141038095Y-110445238D01*
X141085714Y-110540476D01*
X141133333Y-110730952D01*
X141133333Y-110873809D01*
X141085714Y-111064285D01*
X141038095Y-111159523D01*
X140942857Y-111254761D01*
X140800000Y-111302380D01*
X140704761Y-111302380D01*
X140561904Y-111254761D01*
X140514285Y-111207142D01*
X140514285Y-110873809D01*
X140704761Y-110873809D01*
X140085714Y-111302380D02*
X140085714Y-110302380D01*
X139514285Y-111302380D01*
X139514285Y-110302380D01*
X139038095Y-111302380D02*
X139038095Y-110302380D01*
X138800000Y-110302380D01*
X138657142Y-110350000D01*
X138561904Y-110445238D01*
X138514285Y-110540476D01*
X138466666Y-110730952D01*
X138466666Y-110873809D01*
X138514285Y-111064285D01*
X138561904Y-111159523D01*
X138657142Y-111254761D01*
X138800000Y-111302380D01*
X139038095Y-111302380D01*
X143392857Y-82678571D02*
X143535714Y-82607142D01*
X143607142Y-82535714D01*
X143678571Y-82392857D01*
X143678571Y-81964285D01*
X143607142Y-81821428D01*
X143535714Y-81750000D01*
X143392857Y-81678571D01*
X143178571Y-81678571D01*
X143035714Y-81750000D01*
X142964285Y-81821428D01*
X142892857Y-81964285D01*
X142892857Y-82392857D01*
X142964285Y-82535714D01*
X143035714Y-82607142D01*
X143178571Y-82678571D01*
X143392857Y-82678571D01*
X142250000Y-81678571D02*
X142250000Y-83178571D01*
X142250000Y-81750000D02*
X142107142Y-81678571D01*
X141821428Y-81678571D01*
X141678571Y-81750000D01*
X141607142Y-81821428D01*
X141535714Y-81964285D01*
X141535714Y-82392857D01*
X141607142Y-82535714D01*
X141678571Y-82607142D01*
X141821428Y-82678571D01*
X142107142Y-82678571D01*
X142250000Y-82607142D01*
X140321428Y-82607142D02*
X140464285Y-82678571D01*
X140750000Y-82678571D01*
X140892857Y-82607142D01*
X140964285Y-82464285D01*
X140964285Y-81892857D01*
X140892857Y-81750000D01*
X140750000Y-81678571D01*
X140464285Y-81678571D01*
X140321428Y-81750000D01*
X140250000Y-81892857D01*
X140250000Y-82035714D01*
X140964285Y-82178571D01*
X139607142Y-81678571D02*
X139607142Y-82678571D01*
X139607142Y-81821428D02*
X139535714Y-81750000D01*
X139392857Y-81678571D01*
X139178571Y-81678571D01*
X139035714Y-81750000D01*
X138964285Y-81892857D01*
X138964285Y-82678571D01*
X137178571Y-82607142D02*
X137035714Y-82678571D01*
X136750000Y-82678571D01*
X136607142Y-82607142D01*
X136535714Y-82464285D01*
X136535714Y-82392857D01*
X136607142Y-82250000D01*
X136750000Y-82178571D01*
X136964285Y-82178571D01*
X137107142Y-82107142D01*
X137178571Y-81964285D01*
X137178571Y-81892857D01*
X137107142Y-81750000D01*
X136964285Y-81678571D01*
X136750000Y-81678571D01*
X136607142Y-81750000D01*
X135678571Y-82678571D02*
X135821428Y-82607142D01*
X135892857Y-82535714D01*
X135964285Y-82392857D01*
X135964285Y-81964285D01*
X135892857Y-81821428D01*
X135821428Y-81750000D01*
X135678571Y-81678571D01*
X135464285Y-81678571D01*
X135321428Y-81750000D01*
X135250000Y-81821428D01*
X135178571Y-81964285D01*
X135178571Y-82392857D01*
X135250000Y-82535714D01*
X135321428Y-82607142D01*
X135464285Y-82678571D01*
X135678571Y-82678571D01*
X133892857Y-81678571D02*
X133892857Y-82678571D01*
X134535714Y-81678571D02*
X134535714Y-82464285D01*
X134464285Y-82607142D01*
X134321428Y-82678571D01*
X134107142Y-82678571D01*
X133964285Y-82607142D01*
X133892857Y-82535714D01*
X133178571Y-82678571D02*
X133178571Y-81678571D01*
X133178571Y-81964285D02*
X133107142Y-81821428D01*
X133035714Y-81750000D01*
X132892857Y-81678571D01*
X132750000Y-81678571D01*
X131607142Y-82607142D02*
X131750000Y-82678571D01*
X132035714Y-82678571D01*
X132178571Y-82607142D01*
X132250000Y-82535714D01*
X132321428Y-82392857D01*
X132321428Y-81964285D01*
X132250000Y-81821428D01*
X132178571Y-81750000D01*
X132035714Y-81678571D01*
X131750000Y-81678571D01*
X131607142Y-81750000D01*
X130392857Y-82607142D02*
X130535714Y-82678571D01*
X130821428Y-82678571D01*
X130964285Y-82607142D01*
X131035714Y-82464285D01*
X131035714Y-81892857D01*
X130964285Y-81750000D01*
X130821428Y-81678571D01*
X130535714Y-81678571D01*
X130392857Y-81750000D01*
X130321428Y-81892857D01*
X130321428Y-82035714D01*
X131035714Y-82178571D01*
X121593714Y-82678571D02*
X121593714Y-81178571D01*
X121593714Y-82607142D02*
X121736571Y-82678571D01*
X122022285Y-82678571D01*
X122165142Y-82607142D01*
X122236571Y-82535714D01*
X122308000Y-82392857D01*
X122308000Y-81964285D01*
X122236571Y-81821428D01*
X122165142Y-81750000D01*
X122022285Y-81678571D01*
X121736571Y-81678571D01*
X121593714Y-81750000D01*
X120308000Y-82607142D02*
X120450857Y-82678571D01*
X120736571Y-82678571D01*
X120879428Y-82607142D01*
X120950857Y-82464285D01*
X120950857Y-81892857D01*
X120879428Y-81750000D01*
X120736571Y-81678571D01*
X120450857Y-81678571D01*
X120308000Y-81750000D01*
X120236571Y-81892857D01*
X120236571Y-82035714D01*
X120950857Y-82178571D01*
X119665142Y-82607142D02*
X119522285Y-82678571D01*
X119236571Y-82678571D01*
X119093714Y-82607142D01*
X119022285Y-82464285D01*
X119022285Y-82392857D01*
X119093714Y-82250000D01*
X119236571Y-82178571D01*
X119450857Y-82178571D01*
X119593714Y-82107142D01*
X119665142Y-81964285D01*
X119665142Y-81892857D01*
X119593714Y-81750000D01*
X119450857Y-81678571D01*
X119236571Y-81678571D01*
X119093714Y-81750000D01*
X118379428Y-82678571D02*
X118379428Y-81678571D01*
X118379428Y-81178571D02*
X118450857Y-81250000D01*
X118379428Y-81321428D01*
X118308000Y-81250000D01*
X118379428Y-81178571D01*
X118379428Y-81321428D01*
X117022285Y-81678571D02*
X117022285Y-82892857D01*
X117093714Y-83035714D01*
X117165142Y-83107142D01*
X117308000Y-83178571D01*
X117522285Y-83178571D01*
X117665142Y-83107142D01*
X117022285Y-82607142D02*
X117165142Y-82678571D01*
X117450857Y-82678571D01*
X117593714Y-82607142D01*
X117665142Y-82535714D01*
X117736571Y-82392857D01*
X117736571Y-81964285D01*
X117665142Y-81821428D01*
X117593714Y-81750000D01*
X117450857Y-81678571D01*
X117165142Y-81678571D01*
X117022285Y-81750000D01*
X116308000Y-81678571D02*
X116308000Y-82678571D01*
X116308000Y-81821428D02*
X116236571Y-81750000D01*
X116093714Y-81678571D01*
X115879428Y-81678571D01*
X115736571Y-81750000D01*
X115665142Y-81892857D01*
X115665142Y-82678571D01*
X114379428Y-82607142D02*
X114522285Y-82678571D01*
X114808000Y-82678571D01*
X114950857Y-82607142D01*
X115022285Y-82464285D01*
X115022285Y-81892857D01*
X114950857Y-81750000D01*
X114808000Y-81678571D01*
X114522285Y-81678571D01*
X114379428Y-81750000D01*
X114308000Y-81892857D01*
X114308000Y-82035714D01*
X115022285Y-82178571D01*
X113022285Y-82678571D02*
X113022285Y-81178571D01*
X113022285Y-82607142D02*
X113165142Y-82678571D01*
X113450857Y-82678571D01*
X113593714Y-82607142D01*
X113665142Y-82535714D01*
X113736571Y-82392857D01*
X113736571Y-81964285D01*
X113665142Y-81821428D01*
X113593714Y-81750000D01*
X113450857Y-81678571D01*
X113165142Y-81678571D01*
X113022285Y-81750000D01*
X111308000Y-81678571D02*
X111022285Y-82678571D01*
X110736571Y-81964285D01*
X110450857Y-82678571D01*
X110165142Y-81678571D01*
X109593714Y-82678571D02*
X109593714Y-81678571D01*
X109593714Y-81178571D02*
X109665142Y-81250000D01*
X109593714Y-81321428D01*
X109522285Y-81250000D01*
X109593714Y-81178571D01*
X109593714Y-81321428D01*
X109093714Y-81678571D02*
X108522285Y-81678571D01*
X108879428Y-81178571D02*
X108879428Y-82464285D01*
X108808000Y-82607142D01*
X108665142Y-82678571D01*
X108522285Y-82678571D01*
X108022285Y-82678571D02*
X108022285Y-81178571D01*
X107379428Y-82678571D02*
X107379428Y-81892857D01*
X107450857Y-81750000D01*
X107593714Y-81678571D01*
X107808000Y-81678571D01*
X107950857Y-81750000D01*
X108022285Y-81821428D01*
X143571428Y-84178571D02*
X143214285Y-85178571D01*
X142857142Y-84178571D01*
X142428571Y-83678571D02*
X141500000Y-83678571D01*
X142000000Y-84250000D01*
X141785714Y-84250000D01*
X141642857Y-84321428D01*
X141571428Y-84392857D01*
X141500000Y-84535714D01*
X141500000Y-84892857D01*
X141571428Y-85035714D01*
X141642857Y-85107142D01*
X141785714Y-85178571D01*
X142214285Y-85178571D01*
X142357142Y-85107142D01*
X142428571Y-85035714D01*
X149918401Y-94859851D02*
X149918401Y-93359851D01*
X149346972Y-93359851D01*
X149204115Y-93431280D01*
X149132686Y-93502708D01*
X149061258Y-93645565D01*
X149061258Y-93859851D01*
X149132686Y-94002708D01*
X149204115Y-94074137D01*
X149346972Y-94145565D01*
X149918401Y-94145565D01*
X148204115Y-94859851D02*
X148346972Y-94788422D01*
X148418401Y-94645565D01*
X148418401Y-93359851D01*
X146989829Y-93859851D02*
X146989829Y-94859851D01*
X147632686Y-93859851D02*
X147632686Y-94645565D01*
X147561258Y-94788422D01*
X147418401Y-94859851D01*
X147204115Y-94859851D01*
X147061258Y-94788422D01*
X146989829Y-94716994D01*
X145632686Y-93859851D02*
X145632686Y-95074137D01*
X145704115Y-95216994D01*
X145775544Y-95288422D01*
X145918401Y-95359851D01*
X146132686Y-95359851D01*
X146275544Y-95288422D01*
X145632686Y-94788422D02*
X145775544Y-94859851D01*
X146061258Y-94859851D01*
X146204115Y-94788422D01*
X146275544Y-94716994D01*
X146346972Y-94574137D01*
X146346972Y-94145565D01*
X146275544Y-94002708D01*
X146204115Y-93931280D01*
X146061258Y-93859851D01*
X145775544Y-93859851D01*
X145632686Y-93931280D01*
X143989829Y-93859851D02*
X143418401Y-93859851D01*
X143775544Y-93359851D02*
X143775544Y-94645565D01*
X143704115Y-94788422D01*
X143561258Y-94859851D01*
X143418401Y-94859851D01*
X142918401Y-94859851D02*
X142918401Y-93359851D01*
X142275544Y-94859851D02*
X142275544Y-94074137D01*
X142346972Y-93931280D01*
X142489829Y-93859851D01*
X142704115Y-93859851D01*
X142846972Y-93931280D01*
X142918401Y-94002708D01*
X140989829Y-94788422D02*
X141132686Y-94859851D01*
X141418401Y-94859851D01*
X141561258Y-94788422D01*
X141632686Y-94645565D01*
X141632686Y-94074137D01*
X141561258Y-93931280D01*
X141418401Y-93859851D01*
X141132686Y-93859851D01*
X140989829Y-93931280D01*
X140918401Y-94074137D01*
X140918401Y-94216994D01*
X141632686Y-94359851D01*
X139132686Y-93359851D02*
X139132686Y-94574137D01*
X139061258Y-94716994D01*
X138989829Y-94788422D01*
X138846972Y-94859851D01*
X138561258Y-94859851D01*
X138418401Y-94788422D01*
X138346972Y-94716994D01*
X138275544Y-94574137D01*
X138275544Y-93359851D01*
X137632686Y-94788422D02*
X137418401Y-94859851D01*
X137061258Y-94859851D01*
X136918401Y-94788422D01*
X136846972Y-94716994D01*
X136775544Y-94574137D01*
X136775544Y-94431280D01*
X136846972Y-94288422D01*
X136918401Y-94216994D01*
X137061258Y-94145565D01*
X137346972Y-94074137D01*
X137489829Y-94002708D01*
X137561258Y-93931280D01*
X137632686Y-93788422D01*
X137632686Y-93645565D01*
X137561258Y-93502708D01*
X137489829Y-93431280D01*
X137346972Y-93359851D01*
X136989829Y-93359851D01*
X136775544Y-93431280D01*
X135632686Y-94074137D02*
X135418401Y-94145565D01*
X135346972Y-94216994D01*
X135275544Y-94359851D01*
X135275544Y-94574137D01*
X135346972Y-94716994D01*
X135418401Y-94788422D01*
X135561258Y-94859851D01*
X136132686Y-94859851D01*
X136132686Y-93359851D01*
X135632686Y-93359851D01*
X135489829Y-93431280D01*
X135418401Y-93502708D01*
X135346972Y-93645565D01*
X135346972Y-93788422D01*
X135418401Y-93931280D01*
X135489829Y-94002708D01*
X135632686Y-94074137D01*
X136132686Y-94074137D01*
X132846972Y-94788422D02*
X132989829Y-94859851D01*
X133275544Y-94859851D01*
X133418401Y-94788422D01*
X133489829Y-94716994D01*
X133561258Y-94574137D01*
X133561258Y-94145565D01*
X133489829Y-94002708D01*
X133418401Y-93931280D01*
X133275544Y-93859851D01*
X132989829Y-93859851D01*
X132846972Y-93931280D01*
X131989829Y-94859851D02*
X132132686Y-94788422D01*
X132204115Y-94716994D01*
X132275544Y-94574137D01*
X132275544Y-94145565D01*
X132204115Y-94002708D01*
X132132686Y-93931280D01*
X131989829Y-93859851D01*
X131775544Y-93859851D01*
X131632686Y-93931280D01*
X131561258Y-94002708D01*
X131489829Y-94145565D01*
X131489829Y-94574137D01*
X131561258Y-94716994D01*
X131632686Y-94788422D01*
X131775544Y-94859851D01*
X131989829Y-94859851D01*
X130846972Y-93859851D02*
X130846972Y-94859851D01*
X130846972Y-94002708D02*
X130775544Y-93931280D01*
X130632686Y-93859851D01*
X130418401Y-93859851D01*
X130275544Y-93931280D01*
X130204115Y-94074137D01*
X130204115Y-94859851D01*
X129489829Y-93859851D02*
X129489829Y-94859851D01*
X129489829Y-94002708D02*
X129418401Y-93931280D01*
X129275544Y-93859851D01*
X129061258Y-93859851D01*
X128918401Y-93931280D01*
X128846972Y-94074137D01*
X128846972Y-94859851D01*
X127561258Y-94788422D02*
X127704115Y-94859851D01*
X127989829Y-94859851D01*
X128132686Y-94788422D01*
X128204115Y-94645565D01*
X128204115Y-94074137D01*
X128132686Y-93931280D01*
X127989829Y-93859851D01*
X127704115Y-93859851D01*
X127561258Y-93931280D01*
X127489829Y-94074137D01*
X127489829Y-94216994D01*
X128204115Y-94359851D01*
X126204115Y-94788422D02*
X126346972Y-94859851D01*
X126632686Y-94859851D01*
X126775543Y-94788422D01*
X126846972Y-94716994D01*
X126918401Y-94574137D01*
X126918401Y-94145565D01*
X126846972Y-94002708D01*
X126775543Y-93931280D01*
X126632686Y-93859851D01*
X126346972Y-93859851D01*
X126204115Y-93931280D01*
X125775543Y-93859851D02*
X125204115Y-93859851D01*
X125561258Y-93359851D02*
X125561258Y-94645565D01*
X125489829Y-94788422D01*
X125346972Y-94859851D01*
X125204115Y-94859851D01*
X124489829Y-94859851D02*
X124632686Y-94788422D01*
X124704115Y-94716994D01*
X124775543Y-94574137D01*
X124775543Y-94145565D01*
X124704115Y-94002708D01*
X124632686Y-93931280D01*
X124489829Y-93859851D01*
X124275543Y-93859851D01*
X124132686Y-93931280D01*
X124061258Y-94002708D01*
X123989829Y-94145565D01*
X123989829Y-94574137D01*
X124061258Y-94716994D01*
X124132686Y-94788422D01*
X124275543Y-94859851D01*
X124489829Y-94859851D01*
X123346972Y-94859851D02*
X123346972Y-93859851D01*
X123346972Y-94145565D02*
X123275543Y-94002708D01*
X123204115Y-93931280D01*
X123061258Y-93859851D01*
X122918401Y-93859851D01*
X121275543Y-94859851D02*
X121275543Y-93859851D01*
X121275543Y-93359851D02*
X121346972Y-93431280D01*
X121275543Y-93502708D01*
X121204115Y-93431280D01*
X121275543Y-93359851D01*
X121275543Y-93502708D01*
X120561258Y-93859851D02*
X120561258Y-94859851D01*
X120561258Y-94002708D02*
X120489829Y-93931280D01*
X120346972Y-93859851D01*
X120132686Y-93859851D01*
X119989829Y-93931280D01*
X119918401Y-94074137D01*
X119918401Y-94859851D01*
X119418401Y-93859851D02*
X118846972Y-93859851D01*
X119204115Y-93359851D02*
X119204115Y-94645565D01*
X119132686Y-94788422D01*
X118989829Y-94859851D01*
X118846972Y-94859851D01*
X118132686Y-94859851D02*
X118275543Y-94788422D01*
X118346972Y-94716994D01*
X118418401Y-94574137D01*
X118418401Y-94145565D01*
X118346972Y-94002708D01*
X118275543Y-93931280D01*
X118132686Y-93859851D01*
X117918401Y-93859851D01*
X117775543Y-93931280D01*
X117704115Y-94002708D01*
X117632686Y-94145565D01*
X117632686Y-94574137D01*
X117704115Y-94716994D01*
X117775543Y-94788422D01*
X117918401Y-94859851D01*
X118132686Y-94859851D01*
X115204115Y-94859851D02*
X115204115Y-94074137D01*
X115275543Y-93931280D01*
X115418401Y-93859851D01*
X115704115Y-93859851D01*
X115846972Y-93931280D01*
X115204115Y-94788422D02*
X115346972Y-94859851D01*
X115704115Y-94859851D01*
X115846972Y-94788422D01*
X115918401Y-94645565D01*
X115918401Y-94502708D01*
X115846972Y-94359851D01*
X115704115Y-94288422D01*
X115346972Y-94288422D01*
X115204115Y-94216994D01*
X114489829Y-93859851D02*
X114489829Y-94859851D01*
X114489829Y-94002708D02*
X114418401Y-93931280D01*
X114275543Y-93859851D01*
X114061258Y-93859851D01*
X113918401Y-93931280D01*
X113846972Y-94074137D01*
X113846972Y-94859851D01*
X113275543Y-93859851D02*
X112918401Y-94859851D01*
X112561258Y-93859851D02*
X112918401Y-94859851D01*
X113061258Y-95216994D01*
X113132686Y-95288422D01*
X113275543Y-95359851D01*
X110846972Y-93359851D02*
X110846972Y-94574137D01*
X110775543Y-94716994D01*
X110704115Y-94788422D01*
X110561258Y-94859851D01*
X110275543Y-94859851D01*
X110132686Y-94788422D01*
X110061258Y-94716994D01*
X109989829Y-94574137D01*
X109989829Y-93359851D01*
X109346972Y-94788422D02*
X109132686Y-94859851D01*
X108775543Y-94859851D01*
X108632686Y-94788422D01*
X108561258Y-94716994D01*
X108489829Y-94574137D01*
X108489829Y-94431280D01*
X108561258Y-94288422D01*
X108632686Y-94216994D01*
X108775543Y-94145565D01*
X109061258Y-94074137D01*
X109204115Y-94002708D01*
X109275543Y-93931280D01*
X109346972Y-93788422D01*
X109346972Y-93645565D01*
X109275543Y-93502708D01*
X109204115Y-93431280D01*
X109061258Y-93359851D01*
X108704115Y-93359851D01*
X108489829Y-93431280D01*
X107346972Y-94074137D02*
X107132686Y-94145565D01*
X107061258Y-94216994D01*
X106989829Y-94359851D01*
X106989829Y-94574137D01*
X107061258Y-94716994D01*
X107132686Y-94788422D01*
X107275543Y-94859851D01*
X107846972Y-94859851D01*
X107846972Y-93359851D01*
X107346972Y-93359851D01*
X107204115Y-93431280D01*
X107132686Y-93502708D01*
X107061258Y-93645565D01*
X107061258Y-93788422D01*
X107132686Y-93931280D01*
X107204115Y-94002708D01*
X107346972Y-94074137D01*
X107846972Y-94074137D01*
X149918401Y-96252091D02*
X149918401Y-97752091D01*
X149918401Y-96323520D02*
X149775544Y-96252091D01*
X149489829Y-96252091D01*
X149346972Y-96323520D01*
X149275544Y-96394948D01*
X149204115Y-96537805D01*
X149204115Y-96966377D01*
X149275544Y-97109234D01*
X149346972Y-97180662D01*
X149489829Y-97252091D01*
X149775544Y-97252091D01*
X149918401Y-97180662D01*
X148346972Y-97252091D02*
X148489829Y-97180662D01*
X148561258Y-97109234D01*
X148632686Y-96966377D01*
X148632686Y-96537805D01*
X148561258Y-96394948D01*
X148489829Y-96323520D01*
X148346972Y-96252091D01*
X148132686Y-96252091D01*
X147989829Y-96323520D01*
X147918401Y-96394948D01*
X147846972Y-96537805D01*
X147846972Y-96966377D01*
X147918401Y-97109234D01*
X147989829Y-97180662D01*
X148132686Y-97252091D01*
X148346972Y-97252091D01*
X147204115Y-97252091D02*
X147204115Y-96252091D01*
X147204115Y-96537805D02*
X147132686Y-96394948D01*
X147061258Y-96323520D01*
X146918401Y-96252091D01*
X146775544Y-96252091D01*
X146489829Y-96252091D02*
X145918401Y-96252091D01*
X146275544Y-95752091D02*
X146275544Y-97037805D01*
X146204115Y-97180662D01*
X146061258Y-97252091D01*
X145918401Y-97252091D01*
X145346972Y-97180662D02*
X145346972Y-97252091D01*
X145418401Y-97394948D01*
X145489829Y-97466377D01*
X142918401Y-97252091D02*
X142918401Y-96466377D01*
X142989829Y-96323520D01*
X143132686Y-96252091D01*
X143418401Y-96252091D01*
X143561258Y-96323520D01*
X142918401Y-97180662D02*
X143061258Y-97252091D01*
X143418401Y-97252091D01*
X143561258Y-97180662D01*
X143632686Y-97037805D01*
X143632686Y-96894948D01*
X143561258Y-96752091D01*
X143418401Y-96680662D01*
X143061258Y-96680662D01*
X142918401Y-96609234D01*
X142204115Y-96252091D02*
X142204115Y-97252091D01*
X142204115Y-96394948D02*
X142132686Y-96323520D01*
X141989829Y-96252091D01*
X141775544Y-96252091D01*
X141632686Y-96323520D01*
X141561258Y-96466377D01*
X141561258Y-97252091D01*
X140204115Y-97252091D02*
X140204115Y-95752091D01*
X140204115Y-97180662D02*
X140346972Y-97252091D01*
X140632686Y-97252091D01*
X140775544Y-97180662D01*
X140846972Y-97109234D01*
X140918401Y-96966377D01*
X140918401Y-96537805D01*
X140846972Y-96394948D01*
X140775544Y-96323520D01*
X140632686Y-96252091D01*
X140346972Y-96252091D01*
X140204115Y-96323520D01*
X138489829Y-96252091D02*
X138204115Y-97252091D01*
X137918401Y-96537805D01*
X137632686Y-97252091D01*
X137346972Y-96252091D01*
X136132686Y-97252091D02*
X136132686Y-96466377D01*
X136204115Y-96323520D01*
X136346972Y-96252091D01*
X136632686Y-96252091D01*
X136775544Y-96323520D01*
X136132686Y-97180662D02*
X136275544Y-97252091D01*
X136632686Y-97252091D01*
X136775544Y-97180662D01*
X136846972Y-97037805D01*
X136846972Y-96894948D01*
X136775544Y-96752091D01*
X136632686Y-96680662D01*
X136275544Y-96680662D01*
X136132686Y-96609234D01*
X135632686Y-96252091D02*
X135061258Y-96252091D01*
X135418401Y-95752091D02*
X135418401Y-97037805D01*
X135346972Y-97180662D01*
X135204115Y-97252091D01*
X135061258Y-97252091D01*
X133918401Y-97180662D02*
X134061258Y-97252091D01*
X134346972Y-97252091D01*
X134489829Y-97180662D01*
X134561258Y-97109234D01*
X134632686Y-96966377D01*
X134632686Y-96537805D01*
X134561258Y-96394948D01*
X134489829Y-96323520D01*
X134346972Y-96252091D01*
X134061258Y-96252091D01*
X133918401Y-96323520D01*
X133275544Y-97252091D02*
X133275544Y-95752091D01*
X132632686Y-97252091D02*
X132632686Y-96466377D01*
X132704115Y-96323520D01*
X132846972Y-96252091D01*
X133061258Y-96252091D01*
X133204115Y-96323520D01*
X133275544Y-96394948D01*
X130989829Y-96252091D02*
X130418401Y-96252091D01*
X130775544Y-95752091D02*
X130775544Y-97037805D01*
X130704115Y-97180662D01*
X130561258Y-97252091D01*
X130418401Y-97252091D01*
X129918401Y-97252091D02*
X129918401Y-95752091D01*
X129275544Y-97252091D02*
X129275544Y-96466377D01*
X129346972Y-96323520D01*
X129489829Y-96252091D01*
X129704115Y-96252091D01*
X129846972Y-96323520D01*
X129918401Y-96394948D01*
X127989829Y-97180662D02*
X128132686Y-97252091D01*
X128418401Y-97252091D01*
X128561258Y-97180662D01*
X128632686Y-97037805D01*
X128632686Y-96466377D01*
X128561258Y-96323520D01*
X128418401Y-96252091D01*
X128132686Y-96252091D01*
X127989829Y-96323520D01*
X127918401Y-96466377D01*
X127918401Y-96609234D01*
X128632686Y-96752091D01*
X125418401Y-97252091D02*
X126132686Y-97252091D01*
X126132686Y-95752091D01*
X124918401Y-96466377D02*
X124418401Y-96466377D01*
X124204115Y-97252091D02*
X124918401Y-97252091D01*
X124918401Y-95752091D01*
X124204115Y-95752091D01*
X123561258Y-97252091D02*
X123561258Y-95752091D01*
X123204115Y-95752091D01*
X122989829Y-95823520D01*
X122846972Y-95966377D01*
X122775544Y-96109234D01*
X122704115Y-96394948D01*
X122704115Y-96609234D01*
X122775544Y-96894948D01*
X122846972Y-97037805D01*
X122989829Y-97180662D01*
X123204115Y-97252091D01*
X123561258Y-97252091D01*
X120275544Y-97252091D02*
X120275544Y-95752091D01*
X120275544Y-97180662D02*
X120418401Y-97252091D01*
X120704115Y-97252091D01*
X120846972Y-97180662D01*
X120918401Y-97109234D01*
X120989829Y-96966377D01*
X120989829Y-96537805D01*
X120918401Y-96394948D01*
X120846972Y-96323520D01*
X120704115Y-96252091D01*
X120418401Y-96252091D01*
X120275544Y-96323520D01*
X119561258Y-97252091D02*
X119561258Y-96252091D01*
X119561258Y-95752091D02*
X119632686Y-95823520D01*
X119561258Y-95894948D01*
X119489829Y-95823520D01*
X119561258Y-95752091D01*
X119561258Y-95894948D01*
X118918401Y-97180662D02*
X118775544Y-97252091D01*
X118489829Y-97252091D01*
X118346972Y-97180662D01*
X118275544Y-97037805D01*
X118275544Y-96966377D01*
X118346972Y-96823520D01*
X118489829Y-96752091D01*
X118704115Y-96752091D01*
X118846972Y-96680662D01*
X118918401Y-96537805D01*
X118918401Y-96466377D01*
X118846972Y-96323520D01*
X118704115Y-96252091D01*
X118489829Y-96252091D01*
X118346972Y-96323520D01*
X117632686Y-96252091D02*
X117632686Y-97752091D01*
X117632686Y-96323520D02*
X117489829Y-96252091D01*
X117204115Y-96252091D01*
X117061258Y-96323520D01*
X116989829Y-96394948D01*
X116918401Y-96537805D01*
X116918401Y-96966377D01*
X116989829Y-97109234D01*
X117061258Y-97180662D01*
X117204115Y-97252091D01*
X117489829Y-97252091D01*
X117632686Y-97180662D01*
X116061258Y-97252091D02*
X116204115Y-97180662D01*
X116275544Y-97037805D01*
X116275544Y-95752091D01*
X114846972Y-97252091D02*
X114846972Y-96466377D01*
X114918401Y-96323520D01*
X115061258Y-96252091D01*
X115346972Y-96252091D01*
X115489829Y-96323520D01*
X114846972Y-97180662D02*
X114989829Y-97252091D01*
X115346972Y-97252091D01*
X115489829Y-97180662D01*
X115561258Y-97037805D01*
X115561258Y-96894948D01*
X115489829Y-96752091D01*
X115346972Y-96680662D01*
X114989829Y-96680662D01*
X114846972Y-96609234D01*
X114275544Y-96252091D02*
X113918401Y-97252091D01*
X113561258Y-96252091D02*
X113918401Y-97252091D01*
X114061258Y-97609234D01*
X114132686Y-97680662D01*
X114275544Y-97752091D01*
X112989829Y-97109234D02*
X112918401Y-97180662D01*
X112989829Y-97252091D01*
X113061258Y-97180662D01*
X112989829Y-97109234D01*
X112989829Y-97252091D01*
X149918401Y-99644331D02*
X149918401Y-98144331D01*
X149346972Y-98144331D01*
X149204115Y-98215760D01*
X149132686Y-98287188D01*
X149061258Y-98430045D01*
X149061258Y-98644331D01*
X149132686Y-98787188D01*
X149204115Y-98858617D01*
X149346972Y-98930045D01*
X149918401Y-98930045D01*
X148418401Y-99644331D02*
X148418401Y-98644331D01*
X148418401Y-98930045D02*
X148346972Y-98787188D01*
X148275544Y-98715760D01*
X148132686Y-98644331D01*
X147989829Y-98644331D01*
X147275544Y-99644331D02*
X147418401Y-99572902D01*
X147489829Y-99501474D01*
X147561258Y-99358617D01*
X147561258Y-98930045D01*
X147489829Y-98787188D01*
X147418401Y-98715760D01*
X147275544Y-98644331D01*
X147061258Y-98644331D01*
X146918401Y-98715760D01*
X146846972Y-98787188D01*
X146775544Y-98930045D01*
X146775544Y-99358617D01*
X146846972Y-99501474D01*
X146918401Y-99572902D01*
X147061258Y-99644331D01*
X147275544Y-99644331D01*
X146132686Y-98644331D02*
X146132686Y-99930045D01*
X146204115Y-100072902D01*
X146346972Y-100144331D01*
X146418401Y-100144331D01*
X146132686Y-98144331D02*
X146204115Y-98215760D01*
X146132686Y-98287188D01*
X146061258Y-98215760D01*
X146132686Y-98144331D01*
X146132686Y-98287188D01*
X144846972Y-99572902D02*
X144989829Y-99644331D01*
X145275544Y-99644331D01*
X145418401Y-99572902D01*
X145489829Y-99430045D01*
X145489829Y-98858617D01*
X145418401Y-98715760D01*
X145275544Y-98644331D01*
X144989829Y-98644331D01*
X144846972Y-98715760D01*
X144775544Y-98858617D01*
X144775544Y-99001474D01*
X145489829Y-99144331D01*
X143489829Y-99572902D02*
X143632686Y-99644331D01*
X143918401Y-99644331D01*
X144061258Y-99572902D01*
X144132686Y-99501474D01*
X144204115Y-99358617D01*
X144204115Y-98930045D01*
X144132686Y-98787188D01*
X144061258Y-98715760D01*
X143918401Y-98644331D01*
X143632686Y-98644331D01*
X143489829Y-98715760D01*
X143061258Y-98644331D02*
X142489829Y-98644331D01*
X142846972Y-98144331D02*
X142846972Y-99430045D01*
X142775544Y-99572902D01*
X142632686Y-99644331D01*
X142489829Y-99644331D01*
X140204115Y-99644331D02*
X140204115Y-98144331D01*
X140204115Y-99572902D02*
X140346972Y-99644331D01*
X140632686Y-99644331D01*
X140775544Y-99572902D01*
X140846972Y-99501474D01*
X140918401Y-99358617D01*
X140918401Y-98930045D01*
X140846972Y-98787188D01*
X140775544Y-98715760D01*
X140632686Y-98644331D01*
X140346972Y-98644331D01*
X140204115Y-98715760D01*
X138918401Y-99572902D02*
X139061258Y-99644331D01*
X139346972Y-99644331D01*
X139489829Y-99572902D01*
X139561258Y-99430045D01*
X139561258Y-98858617D01*
X139489829Y-98715760D01*
X139346972Y-98644331D01*
X139061258Y-98644331D01*
X138918401Y-98715760D01*
X138846972Y-98858617D01*
X138846972Y-99001474D01*
X139561258Y-99144331D01*
X138418401Y-98644331D02*
X137846972Y-98644331D01*
X138204115Y-98144331D02*
X138204115Y-99430045D01*
X138132686Y-99572902D01*
X137989829Y-99644331D01*
X137846972Y-99644331D01*
X136704115Y-99644331D02*
X136704115Y-98858617D01*
X136775544Y-98715760D01*
X136918401Y-98644331D01*
X137204115Y-98644331D01*
X137346972Y-98715760D01*
X136704115Y-99572902D02*
X136846972Y-99644331D01*
X137204115Y-99644331D01*
X137346972Y-99572902D01*
X137418401Y-99430045D01*
X137418401Y-99287188D01*
X137346972Y-99144331D01*
X137204115Y-99072902D01*
X136846972Y-99072902D01*
X136704115Y-99001474D01*
X135989829Y-99644331D02*
X135989829Y-98644331D01*
X135989829Y-98144331D02*
X136061258Y-98215760D01*
X135989829Y-98287188D01*
X135918401Y-98215760D01*
X135989829Y-98144331D01*
X135989829Y-98287188D01*
X135061258Y-99644331D02*
X135204115Y-99572902D01*
X135275544Y-99430045D01*
X135275544Y-98144331D01*
X134561258Y-99572902D02*
X134418401Y-99644331D01*
X134132686Y-99644331D01*
X133989829Y-99572902D01*
X133918401Y-99430045D01*
X133918401Y-99358617D01*
X133989829Y-99215760D01*
X134132686Y-99144331D01*
X134346972Y-99144331D01*
X134489829Y-99072902D01*
X134561258Y-98930045D01*
X134561258Y-98858617D01*
X134489829Y-98715760D01*
X134346972Y-98644331D01*
X134132686Y-98644331D01*
X133989829Y-98715760D01*
X131489829Y-99572902D02*
X131632686Y-99644331D01*
X131918401Y-99644331D01*
X132061258Y-99572902D01*
X132132686Y-99501474D01*
X132204115Y-99358617D01*
X132204115Y-98930045D01*
X132132686Y-98787188D01*
X132061258Y-98715760D01*
X131918401Y-98644331D01*
X131632686Y-98644331D01*
X131489829Y-98715760D01*
X130204115Y-99644331D02*
X130204115Y-98858617D01*
X130275544Y-98715760D01*
X130418401Y-98644331D01*
X130704115Y-98644331D01*
X130846972Y-98715760D01*
X130204115Y-99572902D02*
X130346972Y-99644331D01*
X130704115Y-99644331D01*
X130846972Y-99572902D01*
X130918401Y-99430045D01*
X130918401Y-99287188D01*
X130846972Y-99144331D01*
X130704115Y-99072902D01*
X130346972Y-99072902D01*
X130204115Y-99001474D01*
X129489829Y-98644331D02*
X129489829Y-99644331D01*
X129489829Y-98787188D02*
X129418401Y-98715760D01*
X129275544Y-98644331D01*
X129061258Y-98644331D01*
X128918401Y-98715760D01*
X128846972Y-98858617D01*
X128846972Y-99644331D01*
X126989829Y-99644331D02*
X126989829Y-98144331D01*
X126989829Y-98715760D02*
X126846972Y-98644331D01*
X126561258Y-98644331D01*
X126418401Y-98715760D01*
X126346972Y-98787188D01*
X126275544Y-98930045D01*
X126275544Y-99358617D01*
X126346972Y-99501474D01*
X126418401Y-99572902D01*
X126561258Y-99644331D01*
X126846972Y-99644331D01*
X126989829Y-99572902D01*
X125061258Y-99572902D02*
X125204115Y-99644331D01*
X125489829Y-99644331D01*
X125632686Y-99572902D01*
X125704115Y-99430045D01*
X125704115Y-98858617D01*
X125632686Y-98715760D01*
X125489829Y-98644331D01*
X125204115Y-98644331D01*
X125061258Y-98715760D01*
X124989829Y-98858617D01*
X124989829Y-99001474D01*
X125704115Y-99144331D01*
X123418401Y-98644331D02*
X122846972Y-98644331D01*
X123204115Y-99644331D02*
X123204115Y-98358617D01*
X123132686Y-98215760D01*
X122989829Y-98144331D01*
X122846972Y-98144331D01*
X122132686Y-99644331D02*
X122275544Y-99572902D01*
X122346972Y-99501474D01*
X122418401Y-99358617D01*
X122418401Y-98930045D01*
X122346972Y-98787188D01*
X122275544Y-98715760D01*
X122132686Y-98644331D01*
X121918401Y-98644331D01*
X121775544Y-98715760D01*
X121704115Y-98787188D01*
X121632686Y-98930045D01*
X121632686Y-99358617D01*
X121704115Y-99501474D01*
X121775544Y-99572902D01*
X121918401Y-99644331D01*
X122132686Y-99644331D01*
X120346972Y-98644331D02*
X120346972Y-99644331D01*
X120989829Y-98644331D02*
X120989829Y-99430045D01*
X120918401Y-99572902D01*
X120775544Y-99644331D01*
X120561258Y-99644331D01*
X120418401Y-99572902D01*
X120346972Y-99501474D01*
X119632686Y-98644331D02*
X119632686Y-99644331D01*
X119632686Y-98787188D02*
X119561258Y-98715760D01*
X119418401Y-98644331D01*
X119204115Y-98644331D01*
X119061258Y-98715760D01*
X118989829Y-98858617D01*
X118989829Y-99644331D01*
X117632686Y-99644331D02*
X117632686Y-98144331D01*
X117632686Y-99572902D02*
X117775544Y-99644331D01*
X118061258Y-99644331D01*
X118204115Y-99572902D01*
X118275544Y-99501474D01*
X118346972Y-99358617D01*
X118346972Y-98930045D01*
X118275544Y-98787188D01*
X118204115Y-98715760D01*
X118061258Y-98644331D01*
X117775544Y-98644331D01*
X117632686Y-98715760D01*
X115132686Y-99644331D02*
X115132686Y-98858617D01*
X115204115Y-98715760D01*
X115346972Y-98644331D01*
X115632686Y-98644331D01*
X115775544Y-98715760D01*
X115132686Y-99572902D02*
X115275544Y-99644331D01*
X115632686Y-99644331D01*
X115775544Y-99572902D01*
X115846972Y-99430045D01*
X115846972Y-99287188D01*
X115775544Y-99144331D01*
X115632686Y-99072902D01*
X115275544Y-99072902D01*
X115132686Y-99001474D01*
X114632686Y-98644331D02*
X114061258Y-98644331D01*
X114418401Y-98144331D02*
X114418401Y-99430045D01*
X114346972Y-99572902D01*
X114204115Y-99644331D01*
X114061258Y-99644331D01*
X149275544Y-101036571D02*
X149275544Y-102250857D01*
X149346972Y-102393714D01*
X149418401Y-102465142D01*
X149561258Y-102536571D01*
X149775544Y-102536571D01*
X149918401Y-102465142D01*
X149275544Y-101965142D02*
X149418401Y-102036571D01*
X149704115Y-102036571D01*
X149846972Y-101965142D01*
X149918401Y-101893714D01*
X149989829Y-101750857D01*
X149989829Y-101322285D01*
X149918401Y-101179428D01*
X149846972Y-101108000D01*
X149704115Y-101036571D01*
X149418401Y-101036571D01*
X149275544Y-101108000D01*
X148561258Y-102036571D02*
X148561258Y-101036571D01*
X148561258Y-100536571D02*
X148632686Y-100608000D01*
X148561258Y-100679428D01*
X148489829Y-100608000D01*
X148561258Y-100536571D01*
X148561258Y-100679428D01*
X148061258Y-101036571D02*
X147489829Y-101036571D01*
X147846972Y-100536571D02*
X147846972Y-101822285D01*
X147775544Y-101965142D01*
X147632686Y-102036571D01*
X147489829Y-102036571D01*
X146989829Y-102036571D02*
X146989829Y-100536571D01*
X146346972Y-102036571D02*
X146346972Y-101250857D01*
X146418401Y-101108000D01*
X146561258Y-101036571D01*
X146775544Y-101036571D01*
X146918401Y-101108000D01*
X146989829Y-101179428D01*
X144989829Y-101036571D02*
X144989829Y-102036571D01*
X145632686Y-101036571D02*
X145632686Y-101822285D01*
X145561258Y-101965142D01*
X145418401Y-102036571D01*
X145204115Y-102036571D01*
X145061258Y-101965142D01*
X144989829Y-101893714D01*
X144275544Y-102036571D02*
X144275544Y-100536571D01*
X144275544Y-101108000D02*
X144132686Y-101036571D01*
X143846972Y-101036571D01*
X143704115Y-101108000D01*
X143632686Y-101179428D01*
X143561258Y-101322285D01*
X143561258Y-101750857D01*
X143632686Y-101893714D01*
X143704115Y-101965142D01*
X143846972Y-102036571D01*
X144132686Y-102036571D01*
X144275544Y-101965142D01*
X142918401Y-101893714D02*
X142846972Y-101965142D01*
X142918401Y-102036571D01*
X142989829Y-101965142D01*
X142918401Y-101893714D01*
X142918401Y-102036571D01*
X141561258Y-101965142D02*
X141704115Y-102036571D01*
X141989829Y-102036571D01*
X142132686Y-101965142D01*
X142204115Y-101893714D01*
X142275544Y-101750857D01*
X142275544Y-101322285D01*
X142204115Y-101179428D01*
X142132686Y-101108000D01*
X141989829Y-101036571D01*
X141704115Y-101036571D01*
X141561258Y-101108000D01*
X140704115Y-102036571D02*
X140846972Y-101965142D01*
X140918401Y-101893714D01*
X140989829Y-101750857D01*
X140989829Y-101322285D01*
X140918401Y-101179428D01*
X140846972Y-101108000D01*
X140704115Y-101036571D01*
X140489829Y-101036571D01*
X140346972Y-101108000D01*
X140275544Y-101179428D01*
X140204115Y-101322285D01*
X140204115Y-101750857D01*
X140275544Y-101893714D01*
X140346972Y-101965142D01*
X140489829Y-102036571D01*
X140704115Y-102036571D01*
X139561258Y-102036571D02*
X139561258Y-101036571D01*
X139561258Y-101179428D02*
X139489829Y-101108000D01*
X139346972Y-101036571D01*
X139132686Y-101036571D01*
X138989829Y-101108000D01*
X138918401Y-101250857D01*
X138918401Y-102036571D01*
X138918401Y-101250857D02*
X138846972Y-101108000D01*
X138704115Y-101036571D01*
X138489829Y-101036571D01*
X138346972Y-101108000D01*
X138275544Y-101250857D01*
X138275544Y-102036571D01*
X136489829Y-100465142D02*
X137775544Y-102393714D01*
X135989829Y-102036571D02*
X135989829Y-100536571D01*
X135846972Y-101465142D02*
X135418401Y-102036571D01*
X135418401Y-101036571D02*
X135989829Y-101608000D01*
X134204115Y-101965142D02*
X134346972Y-102036571D01*
X134632686Y-102036571D01*
X134775544Y-101965142D01*
X134846972Y-101822285D01*
X134846972Y-101250857D01*
X134775544Y-101108000D01*
X134632686Y-101036571D01*
X134346972Y-101036571D01*
X134204115Y-101108000D01*
X134132686Y-101250857D01*
X134132686Y-101393714D01*
X134846972Y-101536571D01*
X133632686Y-101036571D02*
X133275544Y-102036571D01*
X132918401Y-101036571D01*
X132346972Y-102036571D02*
X132346972Y-101036571D01*
X132346972Y-100536571D02*
X132418401Y-100608000D01*
X132346972Y-100679428D01*
X132275544Y-100608000D01*
X132346972Y-100536571D01*
X132346972Y-100679428D01*
X131632686Y-101036571D02*
X131632686Y-102036571D01*
X131632686Y-101179428D02*
X131561258Y-101108000D01*
X131418401Y-101036571D01*
X131204115Y-101036571D01*
X131061258Y-101108000D01*
X130989829Y-101250857D01*
X130989829Y-102036571D01*
X130061258Y-102036571D02*
X130204115Y-101965142D01*
X130275544Y-101822285D01*
X130275544Y-100536571D01*
X128846972Y-101036571D02*
X128846972Y-102036571D01*
X129489829Y-101036571D02*
X129489829Y-101822285D01*
X129418401Y-101965142D01*
X129275544Y-102036571D01*
X129061258Y-102036571D01*
X128918401Y-101965142D01*
X128846972Y-101893714D01*
X128346972Y-101036571D02*
X127775544Y-101036571D01*
X128132686Y-100536571D02*
X128132686Y-101822285D01*
X128061258Y-101965142D01*
X127918401Y-102036571D01*
X127775544Y-102036571D01*
X127418401Y-101036571D02*
X126632686Y-101036571D01*
X127418401Y-102036571D01*
X126632686Y-102036571D01*
X125489829Y-101965142D02*
X125632686Y-102036571D01*
X125918401Y-102036571D01*
X126061258Y-101965142D01*
X126132686Y-101822285D01*
X126132686Y-101250857D01*
X126061258Y-101108000D01*
X125918401Y-101036571D01*
X125632686Y-101036571D01*
X125489829Y-101108000D01*
X125418401Y-101250857D01*
X125418401Y-101393714D01*
X126132686Y-101536571D01*
X124775543Y-102036571D02*
X124775543Y-101036571D01*
X124775543Y-101322285D02*
X124704115Y-101179428D01*
X124632686Y-101108000D01*
X124489829Y-101036571D01*
X124346972Y-101036571D01*
X122775543Y-100465142D02*
X124061258Y-102393714D01*
X122275543Y-102036571D02*
X122275543Y-100536571D01*
X122275543Y-101108000D02*
X122132686Y-101036571D01*
X121846972Y-101036571D01*
X121704115Y-101108000D01*
X121632686Y-101179428D01*
X121561258Y-101322285D01*
X121561258Y-101750857D01*
X121632686Y-101893714D01*
X121704115Y-101965142D01*
X121846972Y-102036571D01*
X122132686Y-102036571D01*
X122275543Y-101965142D01*
X120275543Y-101036571D02*
X120275543Y-102036571D01*
X120918401Y-101036571D02*
X120918401Y-101822285D01*
X120846972Y-101965142D01*
X120704115Y-102036571D01*
X120489829Y-102036571D01*
X120346972Y-101965142D01*
X120275543Y-101893714D01*
X119632686Y-101965142D02*
X119489829Y-102036571D01*
X119204115Y-102036571D01*
X119061258Y-101965142D01*
X118989829Y-101822285D01*
X118989829Y-101750857D01*
X119061258Y-101608000D01*
X119204115Y-101536571D01*
X119418401Y-101536571D01*
X119561258Y-101465142D01*
X119632686Y-101322285D01*
X119632686Y-101250857D01*
X119561258Y-101108000D01*
X119418401Y-101036571D01*
X119204115Y-101036571D01*
X119061258Y-101108000D01*
X118346972Y-102036571D02*
X118346972Y-101036571D01*
X118346972Y-100536571D02*
X118418401Y-100608000D01*
X118346972Y-100679428D01*
X118275543Y-100608000D01*
X118346972Y-100536571D01*
X118346972Y-100679428D01*
X117632686Y-101036571D02*
X117632686Y-102036571D01*
X117632686Y-101179428D02*
X117561258Y-101108000D01*
X117418401Y-101036571D01*
X117204115Y-101036571D01*
X117061258Y-101108000D01*
X116989829Y-101250857D01*
X116989829Y-102036571D01*
X115704115Y-101965142D02*
X115846972Y-102036571D01*
X116132686Y-102036571D01*
X116275544Y-101965142D01*
X116346972Y-101822285D01*
X116346972Y-101250857D01*
X116275544Y-101108000D01*
X116132686Y-101036571D01*
X115846972Y-101036571D01*
X115704115Y-101108000D01*
X115632686Y-101250857D01*
X115632686Y-101393714D01*
X116346972Y-101536571D01*
X115061258Y-101965142D02*
X114918401Y-102036571D01*
X114632686Y-102036571D01*
X114489829Y-101965142D01*
X114418401Y-101822285D01*
X114418401Y-101750857D01*
X114489829Y-101608000D01*
X114632686Y-101536571D01*
X114846972Y-101536571D01*
X114989829Y-101465142D01*
X115061258Y-101322285D01*
X115061258Y-101250857D01*
X114989829Y-101108000D01*
X114846972Y-101036571D01*
X114632686Y-101036571D01*
X114489829Y-101108000D01*
X113846972Y-101965142D02*
X113704115Y-102036571D01*
X113418401Y-102036571D01*
X113275543Y-101965142D01*
X113204115Y-101822285D01*
X113204115Y-101750857D01*
X113275543Y-101608000D01*
X113418401Y-101536571D01*
X113632686Y-101536571D01*
X113775543Y-101465142D01*
X113846972Y-101322285D01*
X113846972Y-101250857D01*
X113775543Y-101108000D01*
X113632686Y-101036571D01*
X113418401Y-101036571D01*
X113275543Y-101108000D01*
X112561258Y-101465142D02*
X111418401Y-101465142D01*
X110061258Y-101965142D02*
X110204115Y-102036571D01*
X110489829Y-102036571D01*
X110632686Y-101965142D01*
X110704115Y-101893714D01*
X110775543Y-101750857D01*
X110775543Y-101322285D01*
X110704115Y-101179428D01*
X110632686Y-101108000D01*
X110489829Y-101036571D01*
X110204115Y-101036571D01*
X110061258Y-101108000D01*
X108775543Y-102036571D02*
X108775543Y-101250857D01*
X108846972Y-101108000D01*
X108989829Y-101036571D01*
X109275543Y-101036571D01*
X109418401Y-101108000D01*
X108775543Y-101965142D02*
X108918401Y-102036571D01*
X109275543Y-102036571D01*
X109418401Y-101965142D01*
X109489829Y-101822285D01*
X109489829Y-101679428D01*
X109418401Y-101536571D01*
X109275543Y-101465142D01*
X108918401Y-101465142D01*
X108775543Y-101393714D01*
X108061258Y-102036571D02*
X108061258Y-101036571D01*
X108061258Y-101322285D02*
X107989829Y-101179428D01*
X107918401Y-101108000D01*
X107775543Y-101036571D01*
X107632686Y-101036571D01*
X106489829Y-102036571D02*
X106489829Y-100536571D01*
X106489829Y-101965142D02*
X106632686Y-102036571D01*
X106918401Y-102036571D01*
X107061258Y-101965142D01*
X107132686Y-101893714D01*
X107204115Y-101750857D01*
X107204115Y-101322285D01*
X107132686Y-101179428D01*
X107061258Y-101108000D01*
X106918401Y-101036571D01*
X106632686Y-101036571D01*
X106489829Y-101108000D01*
D12*
G36*
X136444186Y-83968931D02*
G01*
X136360365Y-84413555D01*
X136051080Y-84541053D01*
X135741794Y-84668551D01*
X135370754Y-84416246D01*
X135266843Y-84345996D01*
X135172913Y-84283272D01*
X135093348Y-84230938D01*
X135032530Y-84191857D01*
X134994843Y-84168893D01*
X134984579Y-84163942D01*
X134966090Y-84176676D01*
X134926580Y-84211882D01*
X134870478Y-84265062D01*
X134802213Y-84331718D01*
X134726214Y-84407354D01*
X134646908Y-84487472D01*
X134568725Y-84567574D01*
X134496093Y-84643164D01*
X134433441Y-84709745D01*
X134385197Y-84762818D01*
X134355790Y-84797887D01*
X134348759Y-84809623D01*
X134358877Y-84831260D01*
X134387241Y-84878662D01*
X134430871Y-84947193D01*
X134486782Y-85032215D01*
X134551994Y-85129093D01*
X134589781Y-85184350D01*
X134658657Y-85285248D01*
X134719860Y-85376299D01*
X134770422Y-85452970D01*
X134807372Y-85510728D01*
X134827742Y-85545043D01*
X134830803Y-85552254D01*
X134823864Y-85572748D01*
X134804949Y-85620513D01*
X134776913Y-85688832D01*
X134742609Y-85770989D01*
X134704891Y-85860270D01*
X134666613Y-85949958D01*
X134630630Y-86033338D01*
X134599794Y-86103694D01*
X134576961Y-86154310D01*
X134564983Y-86178471D01*
X134564276Y-86179422D01*
X134545469Y-86184036D01*
X134495382Y-86194328D01*
X134419207Y-86209287D01*
X134322135Y-86227901D01*
X134209357Y-86249159D01*
X134143558Y-86261418D01*
X134023050Y-86284362D01*
X133914203Y-86306195D01*
X133822524Y-86325722D01*
X133753519Y-86341748D01*
X133712696Y-86353079D01*
X133704489Y-86356674D01*
X133696452Y-86381006D01*
X133689967Y-86435959D01*
X133685030Y-86515108D01*
X133681636Y-86612026D01*
X133679782Y-86720287D01*
X133679462Y-86833465D01*
X133680673Y-86945135D01*
X133683410Y-87048868D01*
X133687669Y-87138241D01*
X133693445Y-87206826D01*
X133700733Y-87248197D01*
X133705105Y-87256810D01*
X133731236Y-87267133D01*
X133786607Y-87281892D01*
X133863893Y-87299352D01*
X133955770Y-87317780D01*
X133987842Y-87323741D01*
X134142476Y-87352066D01*
X134264625Y-87374876D01*
X134358327Y-87393080D01*
X134427616Y-87407583D01*
X134476529Y-87419292D01*
X134509103Y-87429115D01*
X134529372Y-87437956D01*
X134541374Y-87446724D01*
X134543053Y-87448457D01*
X134559816Y-87476371D01*
X134585386Y-87530695D01*
X134617212Y-87604777D01*
X134652740Y-87691965D01*
X134689417Y-87785608D01*
X134724689Y-87879052D01*
X134756004Y-87965647D01*
X134780807Y-88038740D01*
X134796546Y-88091678D01*
X134800668Y-88117811D01*
X134800324Y-88118726D01*
X134786359Y-88140086D01*
X134754678Y-88187084D01*
X134708609Y-88254827D01*
X134651482Y-88338423D01*
X134586627Y-88432982D01*
X134568157Y-88459854D01*
X134502301Y-88557275D01*
X134444350Y-88646163D01*
X134397462Y-88721412D01*
X134364793Y-88777920D01*
X134349500Y-88810581D01*
X134348759Y-88814593D01*
X134361608Y-88835684D01*
X134397112Y-88877464D01*
X134450707Y-88935445D01*
X134517829Y-89005135D01*
X134593913Y-89082045D01*
X134674396Y-89161683D01*
X134754713Y-89239561D01*
X134830301Y-89311186D01*
X134896595Y-89372070D01*
X134949031Y-89417721D01*
X134983045Y-89443650D01*
X134992455Y-89447883D01*
X135014357Y-89437912D01*
X135059200Y-89411020D01*
X135119679Y-89371736D01*
X135166211Y-89340117D01*
X135250525Y-89282098D01*
X135350374Y-89213784D01*
X135450527Y-89145579D01*
X135504373Y-89109075D01*
X135686629Y-88985800D01*
X135839619Y-89068520D01*
X135909318Y-89104759D01*
X135968586Y-89132926D01*
X136008689Y-89148991D01*
X136018897Y-89151226D01*
X136031171Y-89134722D01*
X136055387Y-89088082D01*
X136089737Y-89015609D01*
X136132412Y-88921606D01*
X136181606Y-88810374D01*
X136235510Y-88686215D01*
X136292316Y-88553432D01*
X136350218Y-88416327D01*
X136407407Y-88279202D01*
X136462076Y-88146358D01*
X136512416Y-88022098D01*
X136556620Y-87910725D01*
X136592881Y-87816539D01*
X136619391Y-87743844D01*
X136634342Y-87696941D01*
X136636746Y-87680833D01*
X136617689Y-87660286D01*
X136575964Y-87626933D01*
X136520294Y-87587702D01*
X136515622Y-87584599D01*
X136371736Y-87469423D01*
X136255717Y-87335053D01*
X136168570Y-87185784D01*
X136111301Y-87025913D01*
X136084914Y-86859737D01*
X136090415Y-86691552D01*
X136128810Y-86525655D01*
X136201105Y-86366342D01*
X136222374Y-86331487D01*
X136333004Y-86190737D01*
X136463698Y-86077714D01*
X136609936Y-85993003D01*
X136767192Y-85937194D01*
X136930943Y-85910874D01*
X137096667Y-85914630D01*
X137259838Y-85949050D01*
X137415935Y-86014723D01*
X137560433Y-86112235D01*
X137605131Y-86151813D01*
X137718888Y-86275703D01*
X137801782Y-86406124D01*
X137858644Y-86552315D01*
X137890313Y-86697088D01*
X137898131Y-86859860D01*
X137872062Y-87023440D01*
X137814755Y-87182298D01*
X137728856Y-87330906D01*
X137617014Y-87463735D01*
X137481877Y-87575256D01*
X137464117Y-87587011D01*
X137407850Y-87625508D01*
X137365077Y-87658863D01*
X137344628Y-87680160D01*
X137344331Y-87680833D01*
X137348721Y-87703871D01*
X137366124Y-87756157D01*
X137394732Y-87833390D01*
X137432735Y-87931268D01*
X137478326Y-88045491D01*
X137529697Y-88171758D01*
X137585038Y-88305767D01*
X137642542Y-88443218D01*
X137700399Y-88579808D01*
X137756802Y-88711237D01*
X137809942Y-88833205D01*
X137858010Y-88941409D01*
X137899199Y-89031549D01*
X137931699Y-89099323D01*
X137953703Y-89140430D01*
X137962564Y-89151226D01*
X137989640Y-89142819D01*
X138040303Y-89120272D01*
X138105817Y-89087613D01*
X138141841Y-89068520D01*
X138294832Y-88985800D01*
X138477088Y-89109075D01*
X138570125Y-89172228D01*
X138671985Y-89241727D01*
X138767438Y-89307165D01*
X138815250Y-89340117D01*
X138882495Y-89385273D01*
X138939436Y-89421057D01*
X138978646Y-89442938D01*
X138991381Y-89447563D01*
X139009917Y-89435085D01*
X139050941Y-89400252D01*
X139110475Y-89346678D01*
X139184542Y-89277983D01*
X139269165Y-89197781D01*
X139322685Y-89146286D01*
X139416319Y-89054286D01*
X139497241Y-88971999D01*
X139562177Y-88902945D01*
X139607858Y-88850644D01*
X139631011Y-88818616D01*
X139633232Y-88812116D01*
X139622924Y-88787394D01*
X139594439Y-88737405D01*
X139550937Y-88667212D01*
X139495577Y-88581875D01*
X139431520Y-88486456D01*
X139413303Y-88459854D01*
X139346927Y-88363167D01*
X139287378Y-88276117D01*
X139237984Y-88203595D01*
X139202075Y-88150493D01*
X139182981Y-88121703D01*
X139181136Y-88118726D01*
X139183895Y-88095782D01*
X139198538Y-88045336D01*
X139222513Y-87974041D01*
X139253266Y-87888547D01*
X139288244Y-87795507D01*
X139324893Y-87701574D01*
X139360661Y-87613399D01*
X139392994Y-87537634D01*
X139419338Y-87480931D01*
X139437142Y-87449943D01*
X139438407Y-87448457D01*
X139449294Y-87439601D01*
X139467682Y-87430843D01*
X139497606Y-87421277D01*
X139543103Y-87409996D01*
X139608209Y-87396093D01*
X139696961Y-87378663D01*
X139813393Y-87356798D01*
X139961542Y-87329591D01*
X139993618Y-87323741D01*
X140088686Y-87305374D01*
X140171565Y-87287405D01*
X140234930Y-87271569D01*
X140271458Y-87259600D01*
X140276356Y-87256810D01*
X140284427Y-87232072D01*
X140290987Y-87176790D01*
X140296033Y-87097389D01*
X140299559Y-87000296D01*
X140301561Y-86891938D01*
X140302036Y-86778740D01*
X140300977Y-86667128D01*
X140298382Y-86563529D01*
X140294246Y-86474368D01*
X140288563Y-86406072D01*
X140281331Y-86365066D01*
X140276971Y-86356674D01*
X140252698Y-86348208D01*
X140197426Y-86334435D01*
X140116662Y-86316550D01*
X140015912Y-86295748D01*
X139900683Y-86273223D01*
X139837902Y-86261418D01*
X139718787Y-86239151D01*
X139612565Y-86218979D01*
X139524427Y-86201915D01*
X139459566Y-86188969D01*
X139423174Y-86181155D01*
X139417184Y-86179422D01*
X139407061Y-86159890D01*
X139385662Y-86112843D01*
X139355839Y-86045003D01*
X139320445Y-85963091D01*
X139282332Y-85873828D01*
X139244353Y-85783935D01*
X139209360Y-85700135D01*
X139180206Y-85629147D01*
X139159743Y-85577694D01*
X139150823Y-85552497D01*
X139150657Y-85551396D01*
X139160769Y-85531519D01*
X139189117Y-85485777D01*
X139232723Y-85418717D01*
X139288606Y-85334884D01*
X139353787Y-85238826D01*
X139391679Y-85183650D01*
X139460725Y-85082481D01*
X139522050Y-84990630D01*
X139572663Y-84912744D01*
X139609571Y-84853469D01*
X139629782Y-84817451D01*
X139632701Y-84809377D01*
X139620153Y-84790584D01*
X139585463Y-84750457D01*
X139533063Y-84693493D01*
X139467384Y-84624185D01*
X139392856Y-84547031D01*
X139313913Y-84466525D01*
X139234983Y-84387163D01*
X139160500Y-84313440D01*
X139094894Y-84249852D01*
X139042596Y-84200894D01*
X139008039Y-84171061D01*
X138996478Y-84163942D01*
X138977654Y-84173953D01*
X138932631Y-84202078D01*
X138865787Y-84245454D01*
X138781499Y-84301218D01*
X138684144Y-84366506D01*
X138610707Y-84416246D01*
X138239667Y-84668551D01*
X137621095Y-84413555D01*
X137537275Y-83968931D01*
X137453454Y-83524307D01*
X136528006Y-83524307D01*
X136444186Y-83968931D01*
G37*
X136444186Y-83968931D02*
X136360365Y-84413555D01*
X136051080Y-84541053D01*
X135741794Y-84668551D01*
X135370754Y-84416246D01*
X135266843Y-84345996D01*
X135172913Y-84283272D01*
X135093348Y-84230938D01*
X135032530Y-84191857D01*
X134994843Y-84168893D01*
X134984579Y-84163942D01*
X134966090Y-84176676D01*
X134926580Y-84211882D01*
X134870478Y-84265062D01*
X134802213Y-84331718D01*
X134726214Y-84407354D01*
X134646908Y-84487472D01*
X134568725Y-84567574D01*
X134496093Y-84643164D01*
X134433441Y-84709745D01*
X134385197Y-84762818D01*
X134355790Y-84797887D01*
X134348759Y-84809623D01*
X134358877Y-84831260D01*
X134387241Y-84878662D01*
X134430871Y-84947193D01*
X134486782Y-85032215D01*
X134551994Y-85129093D01*
X134589781Y-85184350D01*
X134658657Y-85285248D01*
X134719860Y-85376299D01*
X134770422Y-85452970D01*
X134807372Y-85510728D01*
X134827742Y-85545043D01*
X134830803Y-85552254D01*
X134823864Y-85572748D01*
X134804949Y-85620513D01*
X134776913Y-85688832D01*
X134742609Y-85770989D01*
X134704891Y-85860270D01*
X134666613Y-85949958D01*
X134630630Y-86033338D01*
X134599794Y-86103694D01*
X134576961Y-86154310D01*
X134564983Y-86178471D01*
X134564276Y-86179422D01*
X134545469Y-86184036D01*
X134495382Y-86194328D01*
X134419207Y-86209287D01*
X134322135Y-86227901D01*
X134209357Y-86249159D01*
X134143558Y-86261418D01*
X134023050Y-86284362D01*
X133914203Y-86306195D01*
X133822524Y-86325722D01*
X133753519Y-86341748D01*
X133712696Y-86353079D01*
X133704489Y-86356674D01*
X133696452Y-86381006D01*
X133689967Y-86435959D01*
X133685030Y-86515108D01*
X133681636Y-86612026D01*
X133679782Y-86720287D01*
X133679462Y-86833465D01*
X133680673Y-86945135D01*
X133683410Y-87048868D01*
X133687669Y-87138241D01*
X133693445Y-87206826D01*
X133700733Y-87248197D01*
X133705105Y-87256810D01*
X133731236Y-87267133D01*
X133786607Y-87281892D01*
X133863893Y-87299352D01*
X133955770Y-87317780D01*
X133987842Y-87323741D01*
X134142476Y-87352066D01*
X134264625Y-87374876D01*
X134358327Y-87393080D01*
X134427616Y-87407583D01*
X134476529Y-87419292D01*
X134509103Y-87429115D01*
X134529372Y-87437956D01*
X134541374Y-87446724D01*
X134543053Y-87448457D01*
X134559816Y-87476371D01*
X134585386Y-87530695D01*
X134617212Y-87604777D01*
X134652740Y-87691965D01*
X134689417Y-87785608D01*
X134724689Y-87879052D01*
X134756004Y-87965647D01*
X134780807Y-88038740D01*
X134796546Y-88091678D01*
X134800668Y-88117811D01*
X134800324Y-88118726D01*
X134786359Y-88140086D01*
X134754678Y-88187084D01*
X134708609Y-88254827D01*
X134651482Y-88338423D01*
X134586627Y-88432982D01*
X134568157Y-88459854D01*
X134502301Y-88557275D01*
X134444350Y-88646163D01*
X134397462Y-88721412D01*
X134364793Y-88777920D01*
X134349500Y-88810581D01*
X134348759Y-88814593D01*
X134361608Y-88835684D01*
X134397112Y-88877464D01*
X134450707Y-88935445D01*
X134517829Y-89005135D01*
X134593913Y-89082045D01*
X134674396Y-89161683D01*
X134754713Y-89239561D01*
X134830301Y-89311186D01*
X134896595Y-89372070D01*
X134949031Y-89417721D01*
X134983045Y-89443650D01*
X134992455Y-89447883D01*
X135014357Y-89437912D01*
X135059200Y-89411020D01*
X135119679Y-89371736D01*
X135166211Y-89340117D01*
X135250525Y-89282098D01*
X135350374Y-89213784D01*
X135450527Y-89145579D01*
X135504373Y-89109075D01*
X135686629Y-88985800D01*
X135839619Y-89068520D01*
X135909318Y-89104759D01*
X135968586Y-89132926D01*
X136008689Y-89148991D01*
X136018897Y-89151226D01*
X136031171Y-89134722D01*
X136055387Y-89088082D01*
X136089737Y-89015609D01*
X136132412Y-88921606D01*
X136181606Y-88810374D01*
X136235510Y-88686215D01*
X136292316Y-88553432D01*
X136350218Y-88416327D01*
X136407407Y-88279202D01*
X136462076Y-88146358D01*
X136512416Y-88022098D01*
X136556620Y-87910725D01*
X136592881Y-87816539D01*
X136619391Y-87743844D01*
X136634342Y-87696941D01*
X136636746Y-87680833D01*
X136617689Y-87660286D01*
X136575964Y-87626933D01*
X136520294Y-87587702D01*
X136515622Y-87584599D01*
X136371736Y-87469423D01*
X136255717Y-87335053D01*
X136168570Y-87185784D01*
X136111301Y-87025913D01*
X136084914Y-86859737D01*
X136090415Y-86691552D01*
X136128810Y-86525655D01*
X136201105Y-86366342D01*
X136222374Y-86331487D01*
X136333004Y-86190737D01*
X136463698Y-86077714D01*
X136609936Y-85993003D01*
X136767192Y-85937194D01*
X136930943Y-85910874D01*
X137096667Y-85914630D01*
X137259838Y-85949050D01*
X137415935Y-86014723D01*
X137560433Y-86112235D01*
X137605131Y-86151813D01*
X137718888Y-86275703D01*
X137801782Y-86406124D01*
X137858644Y-86552315D01*
X137890313Y-86697088D01*
X137898131Y-86859860D01*
X137872062Y-87023440D01*
X137814755Y-87182298D01*
X137728856Y-87330906D01*
X137617014Y-87463735D01*
X137481877Y-87575256D01*
X137464117Y-87587011D01*
X137407850Y-87625508D01*
X137365077Y-87658863D01*
X137344628Y-87680160D01*
X137344331Y-87680833D01*
X137348721Y-87703871D01*
X137366124Y-87756157D01*
X137394732Y-87833390D01*
X137432735Y-87931268D01*
X137478326Y-88045491D01*
X137529697Y-88171758D01*
X137585038Y-88305767D01*
X137642542Y-88443218D01*
X137700399Y-88579808D01*
X137756802Y-88711237D01*
X137809942Y-88833205D01*
X137858010Y-88941409D01*
X137899199Y-89031549D01*
X137931699Y-89099323D01*
X137953703Y-89140430D01*
X137962564Y-89151226D01*
X137989640Y-89142819D01*
X138040303Y-89120272D01*
X138105817Y-89087613D01*
X138141841Y-89068520D01*
X138294832Y-88985800D01*
X138477088Y-89109075D01*
X138570125Y-89172228D01*
X138671985Y-89241727D01*
X138767438Y-89307165D01*
X138815250Y-89340117D01*
X138882495Y-89385273D01*
X138939436Y-89421057D01*
X138978646Y-89442938D01*
X138991381Y-89447563D01*
X139009917Y-89435085D01*
X139050941Y-89400252D01*
X139110475Y-89346678D01*
X139184542Y-89277983D01*
X139269165Y-89197781D01*
X139322685Y-89146286D01*
X139416319Y-89054286D01*
X139497241Y-88971999D01*
X139562177Y-88902945D01*
X139607858Y-88850644D01*
X139631011Y-88818616D01*
X139633232Y-88812116D01*
X139622924Y-88787394D01*
X139594439Y-88737405D01*
X139550937Y-88667212D01*
X139495577Y-88581875D01*
X139431520Y-88486456D01*
X139413303Y-88459854D01*
X139346927Y-88363167D01*
X139287378Y-88276117D01*
X139237984Y-88203595D01*
X139202075Y-88150493D01*
X139182981Y-88121703D01*
X139181136Y-88118726D01*
X139183895Y-88095782D01*
X139198538Y-88045336D01*
X139222513Y-87974041D01*
X139253266Y-87888547D01*
X139288244Y-87795507D01*
X139324893Y-87701574D01*
X139360661Y-87613399D01*
X139392994Y-87537634D01*
X139419338Y-87480931D01*
X139437142Y-87449943D01*
X139438407Y-87448457D01*
X139449294Y-87439601D01*
X139467682Y-87430843D01*
X139497606Y-87421277D01*
X139543103Y-87409996D01*
X139608209Y-87396093D01*
X139696961Y-87378663D01*
X139813393Y-87356798D01*
X139961542Y-87329591D01*
X139993618Y-87323741D01*
X140088686Y-87305374D01*
X140171565Y-87287405D01*
X140234930Y-87271569D01*
X140271458Y-87259600D01*
X140276356Y-87256810D01*
X140284427Y-87232072D01*
X140290987Y-87176790D01*
X140296033Y-87097389D01*
X140299559Y-87000296D01*
X140301561Y-86891938D01*
X140302036Y-86778740D01*
X140300977Y-86667128D01*
X140298382Y-86563529D01*
X140294246Y-86474368D01*
X140288563Y-86406072D01*
X140281331Y-86365066D01*
X140276971Y-86356674D01*
X140252698Y-86348208D01*
X140197426Y-86334435D01*
X140116662Y-86316550D01*
X140015912Y-86295748D01*
X139900683Y-86273223D01*
X139837902Y-86261418D01*
X139718787Y-86239151D01*
X139612565Y-86218979D01*
X139524427Y-86201915D01*
X139459566Y-86188969D01*
X139423174Y-86181155D01*
X139417184Y-86179422D01*
X139407061Y-86159890D01*
X139385662Y-86112843D01*
X139355839Y-86045003D01*
X139320445Y-85963091D01*
X139282332Y-85873828D01*
X139244353Y-85783935D01*
X139209360Y-85700135D01*
X139180206Y-85629147D01*
X139159743Y-85577694D01*
X139150823Y-85552497D01*
X139150657Y-85551396D01*
X139160769Y-85531519D01*
X139189117Y-85485777D01*
X139232723Y-85418717D01*
X139288606Y-85334884D01*
X139353787Y-85238826D01*
X139391679Y-85183650D01*
X139460725Y-85082481D01*
X139522050Y-84990630D01*
X139572663Y-84912744D01*
X139609571Y-84853469D01*
X139629782Y-84817451D01*
X139632701Y-84809377D01*
X139620153Y-84790584D01*
X139585463Y-84750457D01*
X139533063Y-84693493D01*
X139467384Y-84624185D01*
X139392856Y-84547031D01*
X139313913Y-84466525D01*
X139234983Y-84387163D01*
X139160500Y-84313440D01*
X139094894Y-84249852D01*
X139042596Y-84200894D01*
X139008039Y-84171061D01*
X138996478Y-84163942D01*
X138977654Y-84173953D01*
X138932631Y-84202078D01*
X138865787Y-84245454D01*
X138781499Y-84301218D01*
X138684144Y-84366506D01*
X138610707Y-84416246D01*
X138239667Y-84668551D01*
X137621095Y-84413555D01*
X137537275Y-83968931D01*
X137453454Y-83524307D01*
X136528006Y-83524307D01*
X136444186Y-83968931D01*
G36*
X117466079Y-83406490D02*
G01*
X117362973Y-83442238D01*
X117266978Y-83498507D01*
X117181247Y-83575288D01*
X117108930Y-83672573D01*
X117076445Y-83733892D01*
X117048332Y-83819660D01*
X117034705Y-83918677D01*
X117036214Y-84020471D01*
X117052969Y-84112714D01*
X117098763Y-84225432D01*
X117165168Y-84323207D01*
X117248809Y-84404115D01*
X117346312Y-84466232D01*
X117454300Y-84507634D01*
X117569399Y-84526397D01*
X117688234Y-84520598D01*
X117746811Y-84508206D01*
X117860972Y-84463797D01*
X117962365Y-84396033D01*
X118048545Y-84307001D01*
X118117066Y-84198791D01*
X118122864Y-84186973D01*
X118142904Y-84142628D01*
X118155487Y-84105280D01*
X118162319Y-84065880D01*
X118165105Y-84015381D01*
X118165568Y-83960433D01*
X118164803Y-83894415D01*
X118161352Y-83846689D01*
X118153477Y-83808103D01*
X118139443Y-83769506D01*
X118122120Y-83731426D01*
X118057505Y-83623328D01*
X117977934Y-83535803D01*
X117886560Y-83468841D01*
X117786536Y-83422436D01*
X117681012Y-83396581D01*
X117573142Y-83391268D01*
X117466079Y-83406490D01*
G37*
X117466079Y-83406490D02*
X117362973Y-83442238D01*
X117266978Y-83498507D01*
X117181247Y-83575288D01*
X117108930Y-83672573D01*
X117076445Y-83733892D01*
X117048332Y-83819660D01*
X117034705Y-83918677D01*
X117036214Y-84020471D01*
X117052969Y-84112714D01*
X117098763Y-84225432D01*
X117165168Y-84323207D01*
X117248809Y-84404115D01*
X117346312Y-84466232D01*
X117454300Y-84507634D01*
X117569399Y-84526397D01*
X117688234Y-84520598D01*
X117746811Y-84508206D01*
X117860972Y-84463797D01*
X117962365Y-84396033D01*
X118048545Y-84307001D01*
X118117066Y-84198791D01*
X118122864Y-84186973D01*
X118142904Y-84142628D01*
X118155487Y-84105280D01*
X118162319Y-84065880D01*
X118165105Y-84015381D01*
X118165568Y-83960433D01*
X118164803Y-83894415D01*
X118161352Y-83846689D01*
X118153477Y-83808103D01*
X118139443Y-83769506D01*
X118122120Y-83731426D01*
X118057505Y-83623328D01*
X117977934Y-83535803D01*
X117886560Y-83468841D01*
X117786536Y-83422436D01*
X117681012Y-83396581D01*
X117573142Y-83391268D01*
X117466079Y-83406490D01*
G36*
X107897730Y-84326825D02*
G01*
X107780959Y-84327304D01*
X107741271Y-84327545D01*
X107195514Y-84331135D01*
X107188649Y-86424919D01*
X107187742Y-86708842D01*
X107186938Y-86966640D01*
X107186185Y-87199646D01*
X107185431Y-87409194D01*
X107184625Y-87596618D01*
X107183715Y-87763250D01*
X107182649Y-87910425D01*
X107181376Y-88039477D01*
X107179844Y-88151739D01*
X107178002Y-88248544D01*
X107175797Y-88331226D01*
X107173178Y-88401119D01*
X107170094Y-88459557D01*
X107166492Y-88507872D01*
X107162322Y-88547400D01*
X107157531Y-88579473D01*
X107152069Y-88605424D01*
X107145882Y-88626589D01*
X107138920Y-88644299D01*
X107131131Y-88659889D01*
X107122463Y-88674693D01*
X107112865Y-88690044D01*
X107102285Y-88707276D01*
X107100116Y-88710946D01*
X107063732Y-88773031D01*
X107589569Y-88769434D01*
X108115406Y-88765838D01*
X108122271Y-88650331D01*
X108126008Y-88594899D01*
X108129903Y-88562851D01*
X108135189Y-88550135D01*
X108143097Y-88552696D01*
X108149730Y-88560024D01*
X108178626Y-88586714D01*
X108225721Y-88621021D01*
X108284380Y-88658846D01*
X108347969Y-88696090D01*
X108409851Y-88728653D01*
X108457366Y-88750077D01*
X108568684Y-88785283D01*
X108696404Y-88810222D01*
X108831099Y-88823941D01*
X108963337Y-88825486D01*
X109083692Y-88813906D01*
X109085674Y-88813574D01*
X109250359Y-88772250D01*
X109404521Y-88706412D01*
X109546672Y-88617474D01*
X109675325Y-88506852D01*
X109788993Y-88375961D01*
X109886190Y-88226216D01*
X109965428Y-88059033D01*
X110008570Y-87935190D01*
X110037021Y-87831581D01*
X110058120Y-87731252D01*
X110072512Y-87628109D01*
X110080842Y-87516057D01*
X110083755Y-87389001D01*
X110082465Y-87285252D01*
X109069350Y-87285252D01*
X109064556Y-87459222D01*
X109049432Y-87608895D01*
X109023515Y-87735597D01*
X108986337Y-87840658D01*
X108937435Y-87925406D01*
X108876342Y-87991169D01*
X108805823Y-88037659D01*
X108769129Y-88055014D01*
X108737304Y-88065419D01*
X108701823Y-88070179D01*
X108654159Y-88070601D01*
X108602811Y-88068748D01*
X108501831Y-88059841D01*
X108421965Y-88042398D01*
X108396865Y-88033661D01*
X108339552Y-88007857D01*
X108279103Y-87975453D01*
X108252703Y-87959233D01*
X108184054Y-87914205D01*
X108184054Y-86486982D01*
X108259568Y-86441718D01*
X108364879Y-86390572D01*
X108472475Y-86360324D01*
X108578419Y-86350795D01*
X108678776Y-86361807D01*
X108769613Y-86393181D01*
X108846993Y-86444740D01*
X108871961Y-86469488D01*
X108932144Y-86550577D01*
X108980855Y-86648734D01*
X109018501Y-86765643D01*
X109045488Y-86902985D01*
X109062225Y-87062444D01*
X109069117Y-87245700D01*
X109069350Y-87285252D01*
X110082465Y-87285252D01*
X110081927Y-87242067D01*
X110070353Y-87016053D01*
X110047080Y-86812192D01*
X110011496Y-86627513D01*
X109962987Y-86459048D01*
X109900940Y-86303826D01*
X109878799Y-86257808D01*
X109789615Y-86107739D01*
X109681841Y-85974377D01*
X109558010Y-85859877D01*
X109420658Y-85766389D01*
X109272317Y-85696068D01*
X109183396Y-85667060D01*
X109096067Y-85649840D01*
X108990989Y-85639594D01*
X108876971Y-85636318D01*
X108762823Y-85640009D01*
X108657352Y-85650660D01*
X108572666Y-85667370D01*
X108471872Y-85700140D01*
X108374178Y-85742279D01*
X108288704Y-85789519D01*
X108243211Y-85821581D01*
X108211831Y-85845422D01*
X108189858Y-85859939D01*
X108184859Y-85862000D01*
X108183310Y-85848718D01*
X108181865Y-85810663D01*
X108180557Y-85750519D01*
X108179417Y-85670973D01*
X108178479Y-85574711D01*
X108177774Y-85464419D01*
X108177333Y-85342781D01*
X108177189Y-85218885D01*
X108177270Y-85060196D01*
X108177665Y-84926408D01*
X108178605Y-84814960D01*
X108180320Y-84723295D01*
X108183043Y-84648853D01*
X108187003Y-84589075D01*
X108192431Y-84541402D01*
X108199559Y-84503274D01*
X108208616Y-84472134D01*
X108219833Y-84445421D01*
X108233442Y-84420577D01*
X108249672Y-84395043D01*
X108251760Y-84391881D01*
X108272694Y-84358810D01*
X108285333Y-84336069D01*
X108287027Y-84331272D01*
X108273784Y-84329759D01*
X108235998Y-84328528D01*
X108176584Y-84327599D01*
X108098458Y-84326992D01*
X108004535Y-84326727D01*
X107897730Y-84326825D01*
G37*
X107897730Y-84326825D02*
X107780959Y-84327304D01*
X107741271Y-84327545D01*
X107195514Y-84331135D01*
X107188649Y-86424919D01*
X107187742Y-86708842D01*
X107186938Y-86966640D01*
X107186185Y-87199646D01*
X107185431Y-87409194D01*
X107184625Y-87596618D01*
X107183715Y-87763250D01*
X107182649Y-87910425D01*
X107181376Y-88039477D01*
X107179844Y-88151739D01*
X107178002Y-88248544D01*
X107175797Y-88331226D01*
X107173178Y-88401119D01*
X107170094Y-88459557D01*
X107166492Y-88507872D01*
X107162322Y-88547400D01*
X107157531Y-88579473D01*
X107152069Y-88605424D01*
X107145882Y-88626589D01*
X107138920Y-88644299D01*
X107131131Y-88659889D01*
X107122463Y-88674693D01*
X107112865Y-88690044D01*
X107102285Y-88707276D01*
X107100116Y-88710946D01*
X107063732Y-88773031D01*
X107589569Y-88769434D01*
X108115406Y-88765838D01*
X108122271Y-88650331D01*
X108126008Y-88594899D01*
X108129903Y-88562851D01*
X108135189Y-88550135D01*
X108143097Y-88552696D01*
X108149730Y-88560024D01*
X108178626Y-88586714D01*
X108225721Y-88621021D01*
X108284380Y-88658846D01*
X108347969Y-88696090D01*
X108409851Y-88728653D01*
X108457366Y-88750077D01*
X108568684Y-88785283D01*
X108696404Y-88810222D01*
X108831099Y-88823941D01*
X108963337Y-88825486D01*
X109083692Y-88813906D01*
X109085674Y-88813574D01*
X109250359Y-88772250D01*
X109404521Y-88706412D01*
X109546672Y-88617474D01*
X109675325Y-88506852D01*
X109788993Y-88375961D01*
X109886190Y-88226216D01*
X109965428Y-88059033D01*
X110008570Y-87935190D01*
X110037021Y-87831581D01*
X110058120Y-87731252D01*
X110072512Y-87628109D01*
X110080842Y-87516057D01*
X110083755Y-87389001D01*
X110082465Y-87285252D01*
X109069350Y-87285252D01*
X109064556Y-87459222D01*
X109049432Y-87608895D01*
X109023515Y-87735597D01*
X108986337Y-87840658D01*
X108937435Y-87925406D01*
X108876342Y-87991169D01*
X108805823Y-88037659D01*
X108769129Y-88055014D01*
X108737304Y-88065419D01*
X108701823Y-88070179D01*
X108654159Y-88070601D01*
X108602811Y-88068748D01*
X108501831Y-88059841D01*
X108421965Y-88042398D01*
X108396865Y-88033661D01*
X108339552Y-88007857D01*
X108279103Y-87975453D01*
X108252703Y-87959233D01*
X108184054Y-87914205D01*
X108184054Y-86486982D01*
X108259568Y-86441718D01*
X108364879Y-86390572D01*
X108472475Y-86360324D01*
X108578419Y-86350795D01*
X108678776Y-86361807D01*
X108769613Y-86393181D01*
X108846993Y-86444740D01*
X108871961Y-86469488D01*
X108932144Y-86550577D01*
X108980855Y-86648734D01*
X109018501Y-86765643D01*
X109045488Y-86902985D01*
X109062225Y-87062444D01*
X109069117Y-87245700D01*
X109069350Y-87285252D01*
X110082465Y-87285252D01*
X110081927Y-87242067D01*
X110070353Y-87016053D01*
X110047080Y-86812192D01*
X110011496Y-86627513D01*
X109962987Y-86459048D01*
X109900940Y-86303826D01*
X109878799Y-86257808D01*
X109789615Y-86107739D01*
X109681841Y-85974377D01*
X109558010Y-85859877D01*
X109420658Y-85766389D01*
X109272317Y-85696068D01*
X109183396Y-85667060D01*
X109096067Y-85649840D01*
X108990989Y-85639594D01*
X108876971Y-85636318D01*
X108762823Y-85640009D01*
X108657352Y-85650660D01*
X108572666Y-85667370D01*
X108471872Y-85700140D01*
X108374178Y-85742279D01*
X108288704Y-85789519D01*
X108243211Y-85821581D01*
X108211831Y-85845422D01*
X108189858Y-85859939D01*
X108184859Y-85862000D01*
X108183310Y-85848718D01*
X108181865Y-85810663D01*
X108180557Y-85750519D01*
X108179417Y-85670973D01*
X108178479Y-85574711D01*
X108177774Y-85464419D01*
X108177333Y-85342781D01*
X108177189Y-85218885D01*
X108177270Y-85060196D01*
X108177665Y-84926408D01*
X108178605Y-84814960D01*
X108180320Y-84723295D01*
X108183043Y-84648853D01*
X108187003Y-84589075D01*
X108192431Y-84541402D01*
X108199559Y-84503274D01*
X108208616Y-84472134D01*
X108219833Y-84445421D01*
X108233442Y-84420577D01*
X108249672Y-84395043D01*
X108251760Y-84391881D01*
X108272694Y-84358810D01*
X108285333Y-84336069D01*
X108287027Y-84331272D01*
X108273784Y-84329759D01*
X108235998Y-84328528D01*
X108176584Y-84327599D01*
X108098458Y-84326992D01*
X108004535Y-84326727D01*
X107897730Y-84326825D01*
G36*
X111572495Y-85634229D02*
G01*
X111504469Y-85639378D01*
X111309837Y-85665273D01*
X111137471Y-85706575D01*
X110986530Y-85763853D01*
X110856175Y-85837674D01*
X110745566Y-85928608D01*
X110653865Y-86037222D01*
X110580230Y-86164085D01*
X110526461Y-86301352D01*
X110512813Y-86345137D01*
X110500927Y-86386141D01*
X110490666Y-86426569D01*
X110481887Y-86468630D01*
X110474452Y-86514531D01*
X110468220Y-86566480D01*
X110463050Y-86626685D01*
X110458804Y-86697352D01*
X110455340Y-86780689D01*
X110452519Y-86878905D01*
X110450200Y-86994205D01*
X110448243Y-87128799D01*
X110446509Y-87284893D01*
X110444857Y-87464695D01*
X110443676Y-87605676D01*
X110435730Y-88573622D01*
X110384244Y-88666770D01*
X110359863Y-88711645D01*
X110341720Y-88746501D01*
X110333065Y-88765054D01*
X110332757Y-88766311D01*
X110345986Y-88767749D01*
X110383674Y-88769074D01*
X110442817Y-88770249D01*
X110520414Y-88771237D01*
X110613464Y-88771999D01*
X110718965Y-88772500D01*
X110833916Y-88772701D01*
X110847622Y-88772703D01*
X111362487Y-88772703D01*
X111362487Y-88656000D01*
X111363365Y-88603260D01*
X111365708Y-88562926D01*
X111369079Y-88541300D01*
X111370569Y-88539298D01*
X111384196Y-88547683D01*
X111412243Y-88569692D01*
X111448697Y-88600601D01*
X111449515Y-88601316D01*
X111516038Y-88650843D01*
X111600052Y-88700575D01*
X111692063Y-88745626D01*
X111782579Y-88781110D01*
X111822433Y-88793236D01*
X111901745Y-88808637D01*
X111999065Y-88818465D01*
X112105484Y-88822580D01*
X112212093Y-88820841D01*
X112309983Y-88813108D01*
X112378487Y-88801981D01*
X112546480Y-88752648D01*
X112697719Y-88682342D01*
X112831218Y-88591933D01*
X112945994Y-88482295D01*
X113041063Y-88354299D01*
X113115440Y-88208818D01*
X113147526Y-88120541D01*
X113167635Y-88034739D01*
X113180962Y-87931736D01*
X113187128Y-87821034D01*
X113186926Y-87804925D01*
X112258352Y-87804925D01*
X112250652Y-87887184D01*
X112225011Y-87955546D01*
X112177622Y-88018970D01*
X112159421Y-88037567D01*
X112094718Y-88087846D01*
X112019934Y-88120056D01*
X111930338Y-88135648D01*
X111835988Y-88136796D01*
X111746499Y-88129216D01*
X111677982Y-88114389D01*
X111648225Y-88103253D01*
X111594592Y-88072904D01*
X111537765Y-88030221D01*
X111485918Y-87982317D01*
X111447222Y-87936301D01*
X111436946Y-87919421D01*
X111428958Y-87895782D01*
X111423279Y-87858168D01*
X111419644Y-87802985D01*
X111417789Y-87726640D01*
X111417406Y-87653981D01*
X111417665Y-87569270D01*
X111418713Y-87508018D01*
X111420955Y-87466227D01*
X111424794Y-87439899D01*
X111430635Y-87425035D01*
X111438882Y-87417639D01*
X111441433Y-87416461D01*
X111463600Y-87412833D01*
X111507320Y-87409866D01*
X111566689Y-87407827D01*
X111635804Y-87406983D01*
X111650811Y-87406982D01*
X111743195Y-87408457D01*
X111814568Y-87412842D01*
X111871281Y-87420738D01*
X111918128Y-87432270D01*
X112034331Y-87476215D01*
X112125457Y-87530243D01*
X112192295Y-87595219D01*
X112235635Y-87672005D01*
X112256266Y-87761467D01*
X112258352Y-87804925D01*
X113186926Y-87804925D01*
X113185756Y-87712133D01*
X113176468Y-87614536D01*
X113169223Y-87575105D01*
X113122961Y-87428701D01*
X113052616Y-87293995D01*
X112959516Y-87172280D01*
X112844988Y-87064847D01*
X112710360Y-86972988D01*
X112556960Y-86897996D01*
X112426541Y-86852458D01*
X112339377Y-86828533D01*
X112256004Y-86809943D01*
X112171024Y-86796084D01*
X112079035Y-86786351D01*
X111974638Y-86780141D01*
X111852432Y-86776851D01*
X111741945Y-86775924D01*
X111414323Y-86775027D01*
X111420599Y-86676547D01*
X111438421Y-86569695D01*
X111476333Y-86477852D01*
X111532720Y-86403310D01*
X111605969Y-86348364D01*
X111670465Y-86321552D01*
X111762877Y-86304654D01*
X111872889Y-86302227D01*
X111995344Y-86313378D01*
X112125086Y-86337210D01*
X112256958Y-86372830D01*
X112385802Y-86419343D01*
X112479434Y-86461883D01*
X112524483Y-86483728D01*
X112558844Y-86498984D01*
X112576319Y-86504937D01*
X112577267Y-86504746D01*
X112583297Y-86491412D01*
X112598355Y-86456068D01*
X112621023Y-86402101D01*
X112649885Y-86332896D01*
X112683523Y-86251840D01*
X112717716Y-86169118D01*
X112854414Y-85837803D01*
X112757180Y-85821833D01*
X112715036Y-85813820D01*
X112651681Y-85800361D01*
X112572543Y-85782679D01*
X112483049Y-85761996D01*
X112388627Y-85739532D01*
X112351027Y-85730403D01*
X112188363Y-85692674D01*
X112045950Y-85664388D01*
X111918473Y-85644972D01*
X111800616Y-85633854D01*
X111687062Y-85630464D01*
X111572495Y-85634229D01*
G37*
X111572495Y-85634229D02*
X111504469Y-85639378D01*
X111309837Y-85665273D01*
X111137471Y-85706575D01*
X110986530Y-85763853D01*
X110856175Y-85837674D01*
X110745566Y-85928608D01*
X110653865Y-86037222D01*
X110580230Y-86164085D01*
X110526461Y-86301352D01*
X110512813Y-86345137D01*
X110500927Y-86386141D01*
X110490666Y-86426569D01*
X110481887Y-86468630D01*
X110474452Y-86514531D01*
X110468220Y-86566480D01*
X110463050Y-86626685D01*
X110458804Y-86697352D01*
X110455340Y-86780689D01*
X110452519Y-86878905D01*
X110450200Y-86994205D01*
X110448243Y-87128799D01*
X110446509Y-87284893D01*
X110444857Y-87464695D01*
X110443676Y-87605676D01*
X110435730Y-88573622D01*
X110384244Y-88666770D01*
X110359863Y-88711645D01*
X110341720Y-88746501D01*
X110333065Y-88765054D01*
X110332757Y-88766311D01*
X110345986Y-88767749D01*
X110383674Y-88769074D01*
X110442817Y-88770249D01*
X110520414Y-88771237D01*
X110613464Y-88771999D01*
X110718965Y-88772500D01*
X110833916Y-88772701D01*
X110847622Y-88772703D01*
X111362487Y-88772703D01*
X111362487Y-88656000D01*
X111363365Y-88603260D01*
X111365708Y-88562926D01*
X111369079Y-88541300D01*
X111370569Y-88539298D01*
X111384196Y-88547683D01*
X111412243Y-88569692D01*
X111448697Y-88600601D01*
X111449515Y-88601316D01*
X111516038Y-88650843D01*
X111600052Y-88700575D01*
X111692063Y-88745626D01*
X111782579Y-88781110D01*
X111822433Y-88793236D01*
X111901745Y-88808637D01*
X111999065Y-88818465D01*
X112105484Y-88822580D01*
X112212093Y-88820841D01*
X112309983Y-88813108D01*
X112378487Y-88801981D01*
X112546480Y-88752648D01*
X112697719Y-88682342D01*
X112831218Y-88591933D01*
X112945994Y-88482295D01*
X113041063Y-88354299D01*
X113115440Y-88208818D01*
X113147526Y-88120541D01*
X113167635Y-88034739D01*
X113180962Y-87931736D01*
X113187128Y-87821034D01*
X113186926Y-87804925D01*
X112258352Y-87804925D01*
X112250652Y-87887184D01*
X112225011Y-87955546D01*
X112177622Y-88018970D01*
X112159421Y-88037567D01*
X112094718Y-88087846D01*
X112019934Y-88120056D01*
X111930338Y-88135648D01*
X111835988Y-88136796D01*
X111746499Y-88129216D01*
X111677982Y-88114389D01*
X111648225Y-88103253D01*
X111594592Y-88072904D01*
X111537765Y-88030221D01*
X111485918Y-87982317D01*
X111447222Y-87936301D01*
X111436946Y-87919421D01*
X111428958Y-87895782D01*
X111423279Y-87858168D01*
X111419644Y-87802985D01*
X111417789Y-87726640D01*
X111417406Y-87653981D01*
X111417665Y-87569270D01*
X111418713Y-87508018D01*
X111420955Y-87466227D01*
X111424794Y-87439899D01*
X111430635Y-87425035D01*
X111438882Y-87417639D01*
X111441433Y-87416461D01*
X111463600Y-87412833D01*
X111507320Y-87409866D01*
X111566689Y-87407827D01*
X111635804Y-87406983D01*
X111650811Y-87406982D01*
X111743195Y-87408457D01*
X111814568Y-87412842D01*
X111871281Y-87420738D01*
X111918128Y-87432270D01*
X112034331Y-87476215D01*
X112125457Y-87530243D01*
X112192295Y-87595219D01*
X112235635Y-87672005D01*
X112256266Y-87761467D01*
X112258352Y-87804925D01*
X113186926Y-87804925D01*
X113185756Y-87712133D01*
X113176468Y-87614536D01*
X113169223Y-87575105D01*
X113122961Y-87428701D01*
X113052616Y-87293995D01*
X112959516Y-87172280D01*
X112844988Y-87064847D01*
X112710360Y-86972988D01*
X112556960Y-86897996D01*
X112426541Y-86852458D01*
X112339377Y-86828533D01*
X112256004Y-86809943D01*
X112171024Y-86796084D01*
X112079035Y-86786351D01*
X111974638Y-86780141D01*
X111852432Y-86776851D01*
X111741945Y-86775924D01*
X111414323Y-86775027D01*
X111420599Y-86676547D01*
X111438421Y-86569695D01*
X111476333Y-86477852D01*
X111532720Y-86403310D01*
X111605969Y-86348364D01*
X111670465Y-86321552D01*
X111762877Y-86304654D01*
X111872889Y-86302227D01*
X111995344Y-86313378D01*
X112125086Y-86337210D01*
X112256958Y-86372830D01*
X112385802Y-86419343D01*
X112479434Y-86461883D01*
X112524483Y-86483728D01*
X112558844Y-86498984D01*
X112576319Y-86504937D01*
X112577267Y-86504746D01*
X112583297Y-86491412D01*
X112598355Y-86456068D01*
X112621023Y-86402101D01*
X112649885Y-86332896D01*
X112683523Y-86251840D01*
X112717716Y-86169118D01*
X112854414Y-85837803D01*
X112757180Y-85821833D01*
X112715036Y-85813820D01*
X112651681Y-85800361D01*
X112572543Y-85782679D01*
X112483049Y-85761996D01*
X112388627Y-85739532D01*
X112351027Y-85730403D01*
X112188363Y-85692674D01*
X112045950Y-85664388D01*
X111918473Y-85644972D01*
X111800616Y-85633854D01*
X111687062Y-85630464D01*
X111572495Y-85634229D01*
G36*
X114300038Y-84530499D02*
G01*
X114151986Y-84546707D01*
X114008548Y-84575718D01*
X113863890Y-84619045D01*
X113712176Y-84678201D01*
X113547572Y-84754700D01*
X113517929Y-84769517D01*
X113449902Y-84803031D01*
X113385744Y-84833208D01*
X113331785Y-84857166D01*
X113294360Y-84872024D01*
X113288611Y-84873895D01*
X113233514Y-84890402D01*
X113480149Y-85249201D01*
X113540448Y-85336893D01*
X113595578Y-85417012D01*
X113643664Y-85486836D01*
X113682832Y-85543647D01*
X113711206Y-85584723D01*
X113726913Y-85607346D01*
X113729464Y-85610928D01*
X113739829Y-85603438D01*
X113765340Y-85580918D01*
X113801437Y-85547461D01*
X113821358Y-85528550D01*
X113934227Y-85438778D01*
X114060986Y-85370561D01*
X114170217Y-85333195D01*
X114235786Y-85321460D01*
X114317884Y-85314308D01*
X114406856Y-85311874D01*
X114493044Y-85314288D01*
X114566795Y-85321683D01*
X114596224Y-85327347D01*
X114728867Y-85372982D01*
X114848394Y-85442663D01*
X114954717Y-85536260D01*
X115047747Y-85653649D01*
X115127395Y-85794700D01*
X115193574Y-85959286D01*
X115246194Y-86147280D01*
X115277467Y-86308217D01*
X115285626Y-86379263D01*
X115291185Y-86471046D01*
X115294198Y-86576968D01*
X115294719Y-86690434D01*
X115292800Y-86804849D01*
X115288497Y-86913617D01*
X115281863Y-87010143D01*
X115272951Y-87087831D01*
X115271021Y-87099817D01*
X115228501Y-87292892D01*
X115170567Y-87463773D01*
X115096867Y-87613224D01*
X115007049Y-87742011D01*
X114943293Y-87811639D01*
X114828714Y-87906173D01*
X114703058Y-87976246D01*
X114568443Y-88021477D01*
X114426989Y-88041484D01*
X114280817Y-88035885D01*
X114132045Y-88004300D01*
X114044089Y-87973394D01*
X113922371Y-87911506D01*
X113796920Y-87822729D01*
X113726647Y-87762694D01*
X113687189Y-87727947D01*
X113656188Y-87702454D01*
X113638542Y-87690170D01*
X113636352Y-87689795D01*
X113628476Y-87702347D01*
X113608068Y-87735516D01*
X113576868Y-87786458D01*
X113536614Y-87852331D01*
X113489043Y-87930289D01*
X113435896Y-88017490D01*
X113406313Y-88066067D01*
X113180352Y-88437215D01*
X113462473Y-88576639D01*
X113564478Y-88626719D01*
X113647111Y-88666210D01*
X113715422Y-88697073D01*
X113774463Y-88721268D01*
X113829286Y-88740758D01*
X113884940Y-88757503D01*
X113946477Y-88773465D01*
X114005460Y-88787482D01*
X114057885Y-88798329D01*
X114112712Y-88806526D01*
X114175428Y-88812528D01*
X114251523Y-88816790D01*
X114346484Y-88819767D01*
X114410487Y-88821052D01*
X114501808Y-88821930D01*
X114589373Y-88821487D01*
X114667388Y-88819852D01*
X114730058Y-88817149D01*
X114771587Y-88813505D01*
X114774048Y-88813142D01*
X114989697Y-88766487D01*
X115192207Y-88695729D01*
X115381505Y-88600914D01*
X115557521Y-88482089D01*
X115720184Y-88339300D01*
X115869422Y-88172594D01*
X115977504Y-88024433D01*
X116092566Y-87830502D01*
X116185577Y-87625699D01*
X116256987Y-87408383D01*
X116307244Y-87176912D01*
X116336799Y-86929643D01*
X116346111Y-86678559D01*
X116338452Y-86435670D01*
X116314387Y-86211570D01*
X116273148Y-86002477D01*
X116213973Y-85804613D01*
X116136096Y-85614196D01*
X116126797Y-85594468D01*
X116024352Y-85410059D01*
X115898528Y-85234576D01*
X115752888Y-85071650D01*
X115590999Y-84924914D01*
X115416424Y-84798001D01*
X115253756Y-84704905D01*
X115089427Y-84631991D01*
X114924749Y-84579174D01*
X114753348Y-84545015D01*
X114568847Y-84528078D01*
X114458541Y-84525580D01*
X114300038Y-84530499D01*
G37*
X114300038Y-84530499D02*
X114151986Y-84546707D01*
X114008548Y-84575718D01*
X113863890Y-84619045D01*
X113712176Y-84678201D01*
X113547572Y-84754700D01*
X113517929Y-84769517D01*
X113449902Y-84803031D01*
X113385744Y-84833208D01*
X113331785Y-84857166D01*
X113294360Y-84872024D01*
X113288611Y-84873895D01*
X113233514Y-84890402D01*
X113480149Y-85249201D01*
X113540448Y-85336893D01*
X113595578Y-85417012D01*
X113643664Y-85486836D01*
X113682832Y-85543647D01*
X113711206Y-85584723D01*
X113726913Y-85607346D01*
X113729464Y-85610928D01*
X113739829Y-85603438D01*
X113765340Y-85580918D01*
X113801437Y-85547461D01*
X113821358Y-85528550D01*
X113934227Y-85438778D01*
X114060986Y-85370561D01*
X114170217Y-85333195D01*
X114235786Y-85321460D01*
X114317884Y-85314308D01*
X114406856Y-85311874D01*
X114493044Y-85314288D01*
X114566795Y-85321683D01*
X114596224Y-85327347D01*
X114728867Y-85372982D01*
X114848394Y-85442663D01*
X114954717Y-85536260D01*
X115047747Y-85653649D01*
X115127395Y-85794700D01*
X115193574Y-85959286D01*
X115246194Y-86147280D01*
X115277467Y-86308217D01*
X115285626Y-86379263D01*
X115291185Y-86471046D01*
X115294198Y-86576968D01*
X115294719Y-86690434D01*
X115292800Y-86804849D01*
X115288497Y-86913617D01*
X115281863Y-87010143D01*
X115272951Y-87087831D01*
X115271021Y-87099817D01*
X115228501Y-87292892D01*
X115170567Y-87463773D01*
X115096867Y-87613224D01*
X115007049Y-87742011D01*
X114943293Y-87811639D01*
X114828714Y-87906173D01*
X114703058Y-87976246D01*
X114568443Y-88021477D01*
X114426989Y-88041484D01*
X114280817Y-88035885D01*
X114132045Y-88004300D01*
X114044089Y-87973394D01*
X113922371Y-87911506D01*
X113796920Y-87822729D01*
X113726647Y-87762694D01*
X113687189Y-87727947D01*
X113656188Y-87702454D01*
X113638542Y-87690170D01*
X113636352Y-87689795D01*
X113628476Y-87702347D01*
X113608068Y-87735516D01*
X113576868Y-87786458D01*
X113536614Y-87852331D01*
X113489043Y-87930289D01*
X113435896Y-88017490D01*
X113406313Y-88066067D01*
X113180352Y-88437215D01*
X113462473Y-88576639D01*
X113564478Y-88626719D01*
X113647111Y-88666210D01*
X113715422Y-88697073D01*
X113774463Y-88721268D01*
X113829286Y-88740758D01*
X113884940Y-88757503D01*
X113946477Y-88773465D01*
X114005460Y-88787482D01*
X114057885Y-88798329D01*
X114112712Y-88806526D01*
X114175428Y-88812528D01*
X114251523Y-88816790D01*
X114346484Y-88819767D01*
X114410487Y-88821052D01*
X114501808Y-88821930D01*
X114589373Y-88821487D01*
X114667388Y-88819852D01*
X114730058Y-88817149D01*
X114771587Y-88813505D01*
X114774048Y-88813142D01*
X114989697Y-88766487D01*
X115192207Y-88695729D01*
X115381505Y-88600914D01*
X115557521Y-88482089D01*
X115720184Y-88339300D01*
X115869422Y-88172594D01*
X115977504Y-88024433D01*
X116092566Y-87830502D01*
X116185577Y-87625699D01*
X116256987Y-87408383D01*
X116307244Y-87176912D01*
X116336799Y-86929643D01*
X116346111Y-86678559D01*
X116338452Y-86435670D01*
X116314387Y-86211570D01*
X116273148Y-86002477D01*
X116213973Y-85804613D01*
X116136096Y-85614196D01*
X116126797Y-85594468D01*
X116024352Y-85410059D01*
X115898528Y-85234576D01*
X115752888Y-85071650D01*
X115590999Y-84924914D01*
X115416424Y-84798001D01*
X115253756Y-84704905D01*
X115089427Y-84631991D01*
X114924749Y-84579174D01*
X114753348Y-84545015D01*
X114568847Y-84528078D01*
X114458541Y-84525580D01*
X114300038Y-84530499D01*
G36*
X120695743Y-83843689D02*
G01*
X120431220Y-83843725D01*
X120308088Y-83843730D01*
X118337189Y-83843730D01*
X118337189Y-83959910D01*
X118324789Y-84101291D01*
X118287364Y-84231684D01*
X118224577Y-84351862D01*
X118136094Y-84462602D01*
X118106157Y-84492511D01*
X117998466Y-84577348D01*
X117879725Y-84639221D01*
X117753460Y-84678159D01*
X117623197Y-84694190D01*
X117492465Y-84687342D01*
X117364788Y-84657643D01*
X117243695Y-84605120D01*
X117132712Y-84529803D01*
X117082868Y-84484363D01*
X116989983Y-84372952D01*
X116921873Y-84250435D01*
X116879129Y-84118215D01*
X116862347Y-83977692D01*
X116862124Y-83963867D01*
X116861244Y-83843734D01*
X116808443Y-83843732D01*
X116761604Y-83850089D01*
X116718817Y-83865556D01*
X116715989Y-83867154D01*
X116706325Y-83872168D01*
X116697451Y-83876073D01*
X116689335Y-83880007D01*
X116681943Y-83885106D01*
X116675245Y-83892508D01*
X116669208Y-83903351D01*
X116663801Y-83918772D01*
X116658990Y-83939909D01*
X116654745Y-83967899D01*
X116651032Y-84003879D01*
X116647821Y-84048987D01*
X116645078Y-84104360D01*
X116642772Y-84171137D01*
X116640871Y-84250453D01*
X116639342Y-84343447D01*
X116638154Y-84451257D01*
X116637274Y-84575019D01*
X116636670Y-84715871D01*
X116636311Y-84874950D01*
X116636165Y-85053395D01*
X116636198Y-85252342D01*
X116636380Y-85472929D01*
X116636677Y-85716293D01*
X116637059Y-85983572D01*
X116637492Y-86275903D01*
X116637945Y-86594424D01*
X116637998Y-86633230D01*
X116638404Y-86953782D01*
X116638749Y-87248012D01*
X116639069Y-87517056D01*
X116639400Y-87762052D01*
X116639779Y-87984137D01*
X116640243Y-88184447D01*
X116640828Y-88364119D01*
X116641570Y-88524290D01*
X116642506Y-88666098D01*
X116643673Y-88790679D01*
X116645107Y-88899170D01*
X116646844Y-88992707D01*
X116648922Y-89072429D01*
X116651376Y-89139472D01*
X116654244Y-89194973D01*
X116657561Y-89240068D01*
X116661364Y-89275895D01*
X116665690Y-89303591D01*
X116670575Y-89324293D01*
X116676055Y-89339137D01*
X116682168Y-89349260D01*
X116688950Y-89355800D01*
X116696437Y-89359893D01*
X116704666Y-89362676D01*
X116713673Y-89365287D01*
X116723495Y-89368862D01*
X116725894Y-89369950D01*
X116733435Y-89372396D01*
X116746056Y-89374642D01*
X116764859Y-89376698D01*
X116790947Y-89378572D01*
X116825422Y-89380271D01*
X116869385Y-89381803D01*
X116923939Y-89383177D01*
X116990185Y-89384400D01*
X117069226Y-89385481D01*
X117162163Y-89386427D01*
X117270099Y-89387247D01*
X117394136Y-89387947D01*
X117535376Y-89388538D01*
X117694921Y-89389025D01*
X117873872Y-89389419D01*
X118073332Y-89389725D01*
X118294404Y-89389953D01*
X118538188Y-89390110D01*
X118805787Y-89390205D01*
X119098303Y-89390245D01*
X119416839Y-89390238D01*
X119520021Y-89390228D01*
X119845623Y-89390176D01*
X120144881Y-89390091D01*
X120418909Y-89389963D01*
X120668824Y-89389785D01*
X120895740Y-89389548D01*
X121100773Y-89389242D01*
X121285038Y-89388860D01*
X121449650Y-89388392D01*
X121595725Y-89387830D01*
X121724376Y-89387165D01*
X121836721Y-89386388D01*
X121933874Y-89385491D01*
X122016950Y-89384465D01*
X122087064Y-89383301D01*
X122145332Y-89381991D01*
X122192869Y-89380525D01*
X122230790Y-89378896D01*
X122260210Y-89377093D01*
X122282245Y-89375110D01*
X122298010Y-89372936D01*
X122308620Y-89370563D01*
X122314404Y-89368391D01*
X122324684Y-89364056D01*
X122334122Y-89360859D01*
X122342755Y-89357665D01*
X122350619Y-89353338D01*
X122357748Y-89346744D01*
X122364179Y-89336747D01*
X122369947Y-89322212D01*
X122375089Y-89302003D01*
X122379640Y-89274985D01*
X122383635Y-89240023D01*
X122387111Y-89195981D01*
X122390102Y-89141724D01*
X122392646Y-89076117D01*
X122394777Y-88998024D01*
X122396532Y-88906310D01*
X122397945Y-88799840D01*
X122398315Y-88758973D01*
X122031884Y-88758973D01*
X120736734Y-88758973D01*
X120761655Y-88721217D01*
X120786447Y-88682417D01*
X120807440Y-88645469D01*
X120824935Y-88607788D01*
X120839230Y-88566788D01*
X120850623Y-88519883D01*
X120859413Y-88464487D01*
X120865898Y-88398016D01*
X120870377Y-88317883D01*
X120873150Y-88221502D01*
X120874513Y-88106289D01*
X120874767Y-87969657D01*
X120874209Y-87809020D01*
X120873893Y-87749382D01*
X120870325Y-87110041D01*
X120465298Y-87661449D01*
X120350554Y-87817876D01*
X120251143Y-87954088D01*
X120165990Y-88071890D01*
X120094022Y-88173084D01*
X120034166Y-88259477D01*
X119985348Y-88332874D01*
X119946495Y-88395077D01*
X119916534Y-88447893D01*
X119894391Y-88493125D01*
X119878993Y-88532578D01*
X119869266Y-88568058D01*
X119864137Y-88601368D01*
X119862532Y-88634313D01*
X119863379Y-88668697D01*
X119863595Y-88673019D01*
X119868054Y-88759031D01*
X118448692Y-88758973D01*
X118554265Y-88652522D01*
X118582913Y-88623406D01*
X118610090Y-88595076D01*
X118636989Y-88565968D01*
X118664803Y-88534520D01*
X118694725Y-88499169D01*
X118727946Y-88458354D01*
X118765661Y-88410511D01*
X118809060Y-88354079D01*
X118859338Y-88287494D01*
X118917688Y-88209195D01*
X118985300Y-88117619D01*
X119063369Y-88011204D01*
X119153088Y-87888387D01*
X119255648Y-87747605D01*
X119372242Y-87587297D01*
X119467809Y-87455798D01*
X119587749Y-87290596D01*
X119692380Y-87146152D01*
X119782648Y-87021094D01*
X119859503Y-86914052D01*
X119923891Y-86823654D01*
X119976761Y-86748529D01*
X120019060Y-86687304D01*
X120051736Y-86638610D01*
X120075738Y-86601074D01*
X120092013Y-86573325D01*
X120101508Y-86553992D01*
X120105173Y-86541703D01*
X120104071Y-86535242D01*
X120090724Y-86518048D01*
X120061866Y-86481655D01*
X120019240Y-86428224D01*
X119964585Y-86359919D01*
X119899644Y-86278903D01*
X119826158Y-86187340D01*
X119745868Y-86087392D01*
X119660515Y-85981224D01*
X119571840Y-85870997D01*
X119481586Y-85758876D01*
X119431944Y-85697244D01*
X118199373Y-85697244D01*
X118148146Y-85789919D01*
X118096919Y-85882595D01*
X118096919Y-88573622D01*
X118148146Y-88666298D01*
X118199373Y-88758973D01*
X117593396Y-88758973D01*
X117448734Y-88758931D01*
X117329244Y-88758741D01*
X117232642Y-88758308D01*
X117156642Y-88757536D01*
X117098957Y-88756330D01*
X117057301Y-88754594D01*
X117029389Y-88752232D01*
X117012935Y-88749150D01*
X117005652Y-88745251D01*
X117005255Y-88740440D01*
X117009458Y-88734622D01*
X117009501Y-88734574D01*
X117026813Y-88709532D01*
X117049736Y-88668815D01*
X117069981Y-88628168D01*
X117108379Y-88546162D01*
X117116211Y-85697244D01*
X118199373Y-85697244D01*
X119431944Y-85697244D01*
X119391493Y-85647024D01*
X119303302Y-85537604D01*
X119218754Y-85432778D01*
X119139592Y-85334711D01*
X119067556Y-85245566D01*
X119004387Y-85167505D01*
X118951827Y-85102692D01*
X118911617Y-85053290D01*
X118888000Y-85024487D01*
X118796290Y-84916778D01*
X118708060Y-84819580D01*
X118626403Y-84736076D01*
X118554410Y-84669448D01*
X118503319Y-84628599D01*
X118442907Y-84585135D01*
X119832298Y-84585135D01*
X119831908Y-84666666D01*
X119835791Y-84726606D01*
X119850390Y-84782177D01*
X119872988Y-84834855D01*
X119887678Y-84864615D01*
X119903472Y-84894103D01*
X119921814Y-84925276D01*
X119944145Y-84960093D01*
X119971909Y-85000510D01*
X120006549Y-85048486D01*
X120049507Y-85105978D01*
X120102227Y-85174943D01*
X120166151Y-85257339D01*
X120242721Y-85355124D01*
X120333381Y-85470255D01*
X120439574Y-85604690D01*
X120451568Y-85619859D01*
X120870325Y-86149412D01*
X120874378Y-85562922D01*
X120875195Y-85387251D01*
X120875021Y-85238532D01*
X120873849Y-85116275D01*
X120871669Y-85019989D01*
X120868474Y-84949183D01*
X120864256Y-84903369D01*
X120862838Y-84894679D01*
X120840591Y-84803135D01*
X120811443Y-84720608D01*
X120778182Y-84654253D01*
X120758200Y-84626110D01*
X120723722Y-84585135D01*
X121377914Y-84585135D01*
X121533969Y-84585269D01*
X121664467Y-84585703D01*
X121771310Y-84586489D01*
X121856398Y-84587676D01*
X121921635Y-84589317D01*
X121968921Y-84591461D01*
X122000157Y-84594159D01*
X122017246Y-84597462D01*
X122022088Y-84601421D01*
X122021753Y-84602298D01*
X122007885Y-84623231D01*
X121984732Y-84656412D01*
X121972754Y-84673193D01*
X121960369Y-84689940D01*
X121949237Y-84704915D01*
X121939288Y-84719594D01*
X121930451Y-84735449D01*
X121922657Y-84753955D01*
X121915835Y-84776585D01*
X121909916Y-84804813D01*
X121904829Y-84840113D01*
X121900504Y-84883958D01*
X121896871Y-84937822D01*
X121893860Y-85003180D01*
X121891401Y-85081504D01*
X121889423Y-85174268D01*
X121887858Y-85282947D01*
X121886634Y-85409013D01*
X121885681Y-85553942D01*
X121884930Y-85719206D01*
X121884311Y-85906279D01*
X121883752Y-86116635D01*
X121883185Y-86351748D01*
X121882655Y-86567741D01*
X121882155Y-86808535D01*
X121881895Y-87038274D01*
X121881868Y-87255493D01*
X121882067Y-87458722D01*
X121882486Y-87646496D01*
X121883118Y-87817345D01*
X121883956Y-87969803D01*
X121884992Y-88102403D01*
X121886220Y-88213676D01*
X121887633Y-88302156D01*
X121889225Y-88366375D01*
X121890987Y-88404865D01*
X121891321Y-88408933D01*
X121903466Y-88502248D01*
X121922427Y-88577190D01*
X121951302Y-88642594D01*
X121993190Y-88707293D01*
X121998429Y-88714352D01*
X122031884Y-88758973D01*
X122398315Y-88758973D01*
X122399054Y-88677479D01*
X122399893Y-88538090D01*
X122400498Y-88380539D01*
X122400905Y-88203691D01*
X122401150Y-88006410D01*
X122401267Y-87787560D01*
X122401295Y-87546007D01*
X122401267Y-87280615D01*
X122401220Y-86990249D01*
X122401190Y-86673773D01*
X122401189Y-86610946D01*
X122401172Y-86291137D01*
X122401112Y-85997661D01*
X122401002Y-85729390D01*
X122400833Y-85485198D01*
X122400597Y-85263957D01*
X122400284Y-85064540D01*
X122399885Y-84885820D01*
X122399393Y-84726671D01*
X122398797Y-84585966D01*
X122398090Y-84462576D01*
X122397263Y-84355376D01*
X122396307Y-84263238D01*
X122395213Y-84185035D01*
X122393973Y-84119641D01*
X122392578Y-84065928D01*
X122391018Y-84022769D01*
X122389286Y-83989037D01*
X122387372Y-83963605D01*
X122385268Y-83945347D01*
X122382966Y-83933134D01*
X122380455Y-83925841D01*
X122380363Y-83925659D01*
X122375192Y-83914518D01*
X122370885Y-83904431D01*
X122366121Y-83895346D01*
X122359578Y-83887212D01*
X122349935Y-83879976D01*
X122335871Y-83873586D01*
X122316063Y-83867989D01*
X122289191Y-83863133D01*
X122253933Y-83858966D01*
X122208968Y-83855436D01*
X122152974Y-83852491D01*
X122084629Y-83850077D01*
X122002614Y-83848144D01*
X121905605Y-83846638D01*
X121792282Y-83845508D01*
X121661323Y-83844702D01*
X121511407Y-83844166D01*
X121341213Y-83843849D01*
X121149418Y-83843699D01*
X120934702Y-83843663D01*
X120695743Y-83843689D01*
G37*
X120695743Y-83843689D02*
X120431220Y-83843725D01*
X120308088Y-83843730D01*
X118337189Y-83843730D01*
X118337189Y-83959910D01*
X118324789Y-84101291D01*
X118287364Y-84231684D01*
X118224577Y-84351862D01*
X118136094Y-84462602D01*
X118106157Y-84492511D01*
X117998466Y-84577348D01*
X117879725Y-84639221D01*
X117753460Y-84678159D01*
X117623197Y-84694190D01*
X117492465Y-84687342D01*
X117364788Y-84657643D01*
X117243695Y-84605120D01*
X117132712Y-84529803D01*
X117082868Y-84484363D01*
X116989983Y-84372952D01*
X116921873Y-84250435D01*
X116879129Y-84118215D01*
X116862347Y-83977692D01*
X116862124Y-83963867D01*
X116861244Y-83843734D01*
X116808443Y-83843732D01*
X116761604Y-83850089D01*
X116718817Y-83865556D01*
X116715989Y-83867154D01*
X116706325Y-83872168D01*
X116697451Y-83876073D01*
X116689335Y-83880007D01*
X116681943Y-83885106D01*
X116675245Y-83892508D01*
X116669208Y-83903351D01*
X116663801Y-83918772D01*
X116658990Y-83939909D01*
X116654745Y-83967899D01*
X116651032Y-84003879D01*
X116647821Y-84048987D01*
X116645078Y-84104360D01*
X116642772Y-84171137D01*
X116640871Y-84250453D01*
X116639342Y-84343447D01*
X116638154Y-84451257D01*
X116637274Y-84575019D01*
X116636670Y-84715871D01*
X116636311Y-84874950D01*
X116636165Y-85053395D01*
X116636198Y-85252342D01*
X116636380Y-85472929D01*
X116636677Y-85716293D01*
X116637059Y-85983572D01*
X116637492Y-86275903D01*
X116637945Y-86594424D01*
X116637998Y-86633230D01*
X116638404Y-86953782D01*
X116638749Y-87248012D01*
X116639069Y-87517056D01*
X116639400Y-87762052D01*
X116639779Y-87984137D01*
X116640243Y-88184447D01*
X116640828Y-88364119D01*
X116641570Y-88524290D01*
X116642506Y-88666098D01*
X116643673Y-88790679D01*
X116645107Y-88899170D01*
X116646844Y-88992707D01*
X116648922Y-89072429D01*
X116651376Y-89139472D01*
X116654244Y-89194973D01*
X116657561Y-89240068D01*
X116661364Y-89275895D01*
X116665690Y-89303591D01*
X116670575Y-89324293D01*
X116676055Y-89339137D01*
X116682168Y-89349260D01*
X116688950Y-89355800D01*
X116696437Y-89359893D01*
X116704666Y-89362676D01*
X116713673Y-89365287D01*
X116723495Y-89368862D01*
X116725894Y-89369950D01*
X116733435Y-89372396D01*
X116746056Y-89374642D01*
X116764859Y-89376698D01*
X116790947Y-89378572D01*
X116825422Y-89380271D01*
X116869385Y-89381803D01*
X116923939Y-89383177D01*
X116990185Y-89384400D01*
X117069226Y-89385481D01*
X117162163Y-89386427D01*
X117270099Y-89387247D01*
X117394136Y-89387947D01*
X117535376Y-89388538D01*
X117694921Y-89389025D01*
X117873872Y-89389419D01*
X118073332Y-89389725D01*
X118294404Y-89389953D01*
X118538188Y-89390110D01*
X118805787Y-89390205D01*
X119098303Y-89390245D01*
X119416839Y-89390238D01*
X119520021Y-89390228D01*
X119845623Y-89390176D01*
X120144881Y-89390091D01*
X120418909Y-89389963D01*
X120668824Y-89389785D01*
X120895740Y-89389548D01*
X121100773Y-89389242D01*
X121285038Y-89388860D01*
X121449650Y-89388392D01*
X121595725Y-89387830D01*
X121724376Y-89387165D01*
X121836721Y-89386388D01*
X121933874Y-89385491D01*
X122016950Y-89384465D01*
X122087064Y-89383301D01*
X122145332Y-89381991D01*
X122192869Y-89380525D01*
X122230790Y-89378896D01*
X122260210Y-89377093D01*
X122282245Y-89375110D01*
X122298010Y-89372936D01*
X122308620Y-89370563D01*
X122314404Y-89368391D01*
X122324684Y-89364056D01*
X122334122Y-89360859D01*
X122342755Y-89357665D01*
X122350619Y-89353338D01*
X122357748Y-89346744D01*
X122364179Y-89336747D01*
X122369947Y-89322212D01*
X122375089Y-89302003D01*
X122379640Y-89274985D01*
X122383635Y-89240023D01*
X122387111Y-89195981D01*
X122390102Y-89141724D01*
X122392646Y-89076117D01*
X122394777Y-88998024D01*
X122396532Y-88906310D01*
X122397945Y-88799840D01*
X122398315Y-88758973D01*
X122031884Y-88758973D01*
X120736734Y-88758973D01*
X120761655Y-88721217D01*
X120786447Y-88682417D01*
X120807440Y-88645469D01*
X120824935Y-88607788D01*
X120839230Y-88566788D01*
X120850623Y-88519883D01*
X120859413Y-88464487D01*
X120865898Y-88398016D01*
X120870377Y-88317883D01*
X120873150Y-88221502D01*
X120874513Y-88106289D01*
X120874767Y-87969657D01*
X120874209Y-87809020D01*
X120873893Y-87749382D01*
X120870325Y-87110041D01*
X120465298Y-87661449D01*
X120350554Y-87817876D01*
X120251143Y-87954088D01*
X120165990Y-88071890D01*
X120094022Y-88173084D01*
X120034166Y-88259477D01*
X119985348Y-88332874D01*
X119946495Y-88395077D01*
X119916534Y-88447893D01*
X119894391Y-88493125D01*
X119878993Y-88532578D01*
X119869266Y-88568058D01*
X119864137Y-88601368D01*
X119862532Y-88634313D01*
X119863379Y-88668697D01*
X119863595Y-88673019D01*
X119868054Y-88759031D01*
X118448692Y-88758973D01*
X118554265Y-88652522D01*
X118582913Y-88623406D01*
X118610090Y-88595076D01*
X118636989Y-88565968D01*
X118664803Y-88534520D01*
X118694725Y-88499169D01*
X118727946Y-88458354D01*
X118765661Y-88410511D01*
X118809060Y-88354079D01*
X118859338Y-88287494D01*
X118917688Y-88209195D01*
X118985300Y-88117619D01*
X119063369Y-88011204D01*
X119153088Y-87888387D01*
X119255648Y-87747605D01*
X119372242Y-87587297D01*
X119467809Y-87455798D01*
X119587749Y-87290596D01*
X119692380Y-87146152D01*
X119782648Y-87021094D01*
X119859503Y-86914052D01*
X119923891Y-86823654D01*
X119976761Y-86748529D01*
X120019060Y-86687304D01*
X120051736Y-86638610D01*
X120075738Y-86601074D01*
X120092013Y-86573325D01*
X120101508Y-86553992D01*
X120105173Y-86541703D01*
X120104071Y-86535242D01*
X120090724Y-86518048D01*
X120061866Y-86481655D01*
X120019240Y-86428224D01*
X119964585Y-86359919D01*
X119899644Y-86278903D01*
X119826158Y-86187340D01*
X119745868Y-86087392D01*
X119660515Y-85981224D01*
X119571840Y-85870997D01*
X119481586Y-85758876D01*
X119431944Y-85697244D01*
X118199373Y-85697244D01*
X118148146Y-85789919D01*
X118096919Y-85882595D01*
X118096919Y-88573622D01*
X118148146Y-88666298D01*
X118199373Y-88758973D01*
X117593396Y-88758973D01*
X117448734Y-88758931D01*
X117329244Y-88758741D01*
X117232642Y-88758308D01*
X117156642Y-88757536D01*
X117098957Y-88756330D01*
X117057301Y-88754594D01*
X117029389Y-88752232D01*
X117012935Y-88749150D01*
X117005652Y-88745251D01*
X117005255Y-88740440D01*
X117009458Y-88734622D01*
X117009501Y-88734574D01*
X117026813Y-88709532D01*
X117049736Y-88668815D01*
X117069981Y-88628168D01*
X117108379Y-88546162D01*
X117116211Y-85697244D01*
X118199373Y-85697244D01*
X119431944Y-85697244D01*
X119391493Y-85647024D01*
X119303302Y-85537604D01*
X119218754Y-85432778D01*
X119139592Y-85334711D01*
X119067556Y-85245566D01*
X119004387Y-85167505D01*
X118951827Y-85102692D01*
X118911617Y-85053290D01*
X118888000Y-85024487D01*
X118796290Y-84916778D01*
X118708060Y-84819580D01*
X118626403Y-84736076D01*
X118554410Y-84669448D01*
X118503319Y-84628599D01*
X118442907Y-84585135D01*
X119832298Y-84585135D01*
X119831908Y-84666666D01*
X119835791Y-84726606D01*
X119850390Y-84782177D01*
X119872988Y-84834855D01*
X119887678Y-84864615D01*
X119903472Y-84894103D01*
X119921814Y-84925276D01*
X119944145Y-84960093D01*
X119971909Y-85000510D01*
X120006549Y-85048486D01*
X120049507Y-85105978D01*
X120102227Y-85174943D01*
X120166151Y-85257339D01*
X120242721Y-85355124D01*
X120333381Y-85470255D01*
X120439574Y-85604690D01*
X120451568Y-85619859D01*
X120870325Y-86149412D01*
X120874378Y-85562922D01*
X120875195Y-85387251D01*
X120875021Y-85238532D01*
X120873849Y-85116275D01*
X120871669Y-85019989D01*
X120868474Y-84949183D01*
X120864256Y-84903369D01*
X120862838Y-84894679D01*
X120840591Y-84803135D01*
X120811443Y-84720608D01*
X120778182Y-84654253D01*
X120758200Y-84626110D01*
X120723722Y-84585135D01*
X121377914Y-84585135D01*
X121533969Y-84585269D01*
X121664467Y-84585703D01*
X121771310Y-84586489D01*
X121856398Y-84587676D01*
X121921635Y-84589317D01*
X121968921Y-84591461D01*
X122000157Y-84594159D01*
X122017246Y-84597462D01*
X122022088Y-84601421D01*
X122021753Y-84602298D01*
X122007885Y-84623231D01*
X121984732Y-84656412D01*
X121972754Y-84673193D01*
X121960369Y-84689940D01*
X121949237Y-84704915D01*
X121939288Y-84719594D01*
X121930451Y-84735449D01*
X121922657Y-84753955D01*
X121915835Y-84776585D01*
X121909916Y-84804813D01*
X121904829Y-84840113D01*
X121900504Y-84883958D01*
X121896871Y-84937822D01*
X121893860Y-85003180D01*
X121891401Y-85081504D01*
X121889423Y-85174268D01*
X121887858Y-85282947D01*
X121886634Y-85409013D01*
X121885681Y-85553942D01*
X121884930Y-85719206D01*
X121884311Y-85906279D01*
X121883752Y-86116635D01*
X121883185Y-86351748D01*
X121882655Y-86567741D01*
X121882155Y-86808535D01*
X121881895Y-87038274D01*
X121881868Y-87255493D01*
X121882067Y-87458722D01*
X121882486Y-87646496D01*
X121883118Y-87817345D01*
X121883956Y-87969803D01*
X121884992Y-88102403D01*
X121886220Y-88213676D01*
X121887633Y-88302156D01*
X121889225Y-88366375D01*
X121890987Y-88404865D01*
X121891321Y-88408933D01*
X121903466Y-88502248D01*
X121922427Y-88577190D01*
X121951302Y-88642594D01*
X121993190Y-88707293D01*
X121998429Y-88714352D01*
X122031884Y-88758973D01*
X122398315Y-88758973D01*
X122399054Y-88677479D01*
X122399893Y-88538090D01*
X122400498Y-88380539D01*
X122400905Y-88203691D01*
X122401150Y-88006410D01*
X122401267Y-87787560D01*
X122401295Y-87546007D01*
X122401267Y-87280615D01*
X122401220Y-86990249D01*
X122401190Y-86673773D01*
X122401189Y-86610946D01*
X122401172Y-86291137D01*
X122401112Y-85997661D01*
X122401002Y-85729390D01*
X122400833Y-85485198D01*
X122400597Y-85263957D01*
X122400284Y-85064540D01*
X122399885Y-84885820D01*
X122399393Y-84726671D01*
X122398797Y-84585966D01*
X122398090Y-84462576D01*
X122397263Y-84355376D01*
X122396307Y-84263238D01*
X122395213Y-84185035D01*
X122393973Y-84119641D01*
X122392578Y-84065928D01*
X122391018Y-84022769D01*
X122389286Y-83989037D01*
X122387372Y-83963605D01*
X122385268Y-83945347D01*
X122382966Y-83933134D01*
X122380455Y-83925841D01*
X122380363Y-83925659D01*
X122375192Y-83914518D01*
X122370885Y-83904431D01*
X122366121Y-83895346D01*
X122359578Y-83887212D01*
X122349935Y-83879976D01*
X122335871Y-83873586D01*
X122316063Y-83867989D01*
X122289191Y-83863133D01*
X122253933Y-83858966D01*
X122208968Y-83855436D01*
X122152974Y-83852491D01*
X122084629Y-83850077D01*
X122002614Y-83848144D01*
X121905605Y-83846638D01*
X121792282Y-83845508D01*
X121661323Y-83844702D01*
X121511407Y-83844166D01*
X121341213Y-83843849D01*
X121149418Y-83843699D01*
X120934702Y-83843663D01*
X120695743Y-83843689D01*
D13*
X127820000Y-109520000D02*
X126490000Y-109520000D01*
X127820000Y-110850000D02*
X127820000Y-109520000D01*
X127820000Y-112120000D02*
X125160000Y-112120000D01*
X125160000Y-112120000D02*
X125160000Y-112180000D01*
X127820000Y-112120000D02*
X127820000Y-112180000D01*
X127820000Y-112180000D02*
X125160000Y-112180000D01*
X137980000Y-109520000D02*
X136650000Y-109520000D01*
X137980000Y-110850000D02*
X137980000Y-109520000D01*
X137980000Y-112120000D02*
X135320000Y-112120000D01*
X135320000Y-112120000D02*
X135320000Y-122340000D01*
X137980000Y-112120000D02*
X137980000Y-122340000D01*
X137980000Y-122340000D02*
X135320000Y-122340000D01*
M02*
