G04 #@! TF.GenerationSoftware,KiCad,Pcbnew,(5.1.5-0-10_14)*
G04 #@! TF.CreationDate,2020-08-04T22:07:34-06:00*
G04 #@! TF.ProjectId,business_card_v1,62757369-6e65-4737-935f-636172645f76,rev?*
G04 #@! TF.SameCoordinates,Original*
G04 #@! TF.FileFunction,Copper,L12,Inr*
G04 #@! TF.FilePolarity,Positive*
%FSLAX46Y46*%
G04 Gerber Fmt 4.6, Leading zero omitted, Abs format (unit mm)*
G04 Created by KiCad (PCBNEW (5.1.5-0-10_14)) date 2020-08-04 22:07:34*
%MOMM*%
%LPD*%
G04 APERTURE LIST*
%ADD10R,1.700000X1.700000*%
%ADD11O,1.700000X1.700000*%
%ADD12C,1.200000*%
%ADD13C,0.800000*%
G04 APERTURE END LIST*
D10*
X126490000Y-110850000D03*
D11*
X136650000Y-121010000D03*
X136650000Y-118470000D03*
X136650000Y-115930000D03*
X136650000Y-113390000D03*
D10*
X136650000Y-110850000D03*
D12*
X112585500Y-117030500D03*
D13*
X142900000Y-119200000D03*
X146200000Y-122250000D03*
X130300000Y-110750000D03*
X132500000Y-110750000D03*
X143500000Y-109750000D03*
X128987000Y-116615000D03*
X190550000Y-113200000D03*
X185550000Y-113200000D03*
X180550000Y-113200000D03*
X175550000Y-113200000D03*
X170550000Y-113200000D03*
X165550000Y-113200000D03*
X160550000Y-113200000D03*
X152750000Y-112000000D03*
X183810000Y-84500000D03*
X167250000Y-84500000D03*
X172250000Y-84500000D03*
X177250000Y-84500000D03*
X157250000Y-84500000D03*
X162250000Y-84500000D03*
X190750000Y-84500000D03*
X190750000Y-109500000D03*
X187250000Y-109500000D03*
X182250000Y-109500000D03*
X177250000Y-109500000D03*
X172250000Y-109500000D03*
X167250000Y-109500000D03*
X158962500Y-109500000D03*
X190750000Y-104500000D03*
X157250000Y-104500000D03*
X162250000Y-104500000D03*
X187250000Y-104500000D03*
X182250000Y-104500000D03*
X177250000Y-104500000D03*
X172250000Y-104500000D03*
X190750000Y-99500000D03*
X157250000Y-99500000D03*
X162250000Y-99500000D03*
X167250000Y-99500000D03*
X187250000Y-99500000D03*
X182250000Y-99500000D03*
X177250000Y-99500000D03*
X187250000Y-94500000D03*
X190750000Y-94500000D03*
X157250000Y-94500000D03*
X162250000Y-94500000D03*
X167250000Y-94500000D03*
X172250000Y-94500000D03*
X182250000Y-94500000D03*
X187250000Y-89500000D03*
X190750000Y-89500000D03*
X157250000Y-89500000D03*
X162250000Y-89500000D03*
X167250000Y-89500000D03*
X172250000Y-89500000D03*
X177250000Y-89500000D03*
M02*
