G04 EAGLE Gerber RS-274X export*
G75*
%MOMM*%
%FSLAX34Y34*%
%LPD*%
%INSilkscreen Bottom*%
%IPPOS*%
%AMOC8*
5,1,8,0,0,1.08239X$1,22.5*%
G01*
%ADD10C,0.152400*%


D10*
X456438Y468122D02*
X456438Y484378D01*
X451922Y484378D01*
X451789Y484376D01*
X451657Y484370D01*
X451525Y484360D01*
X451393Y484347D01*
X451261Y484329D01*
X451131Y484308D01*
X451000Y484283D01*
X450871Y484254D01*
X450743Y484221D01*
X450615Y484185D01*
X450489Y484145D01*
X450364Y484101D01*
X450240Y484053D01*
X450118Y484002D01*
X449997Y483947D01*
X449878Y483889D01*
X449760Y483827D01*
X449645Y483762D01*
X449531Y483693D01*
X449420Y483622D01*
X449311Y483546D01*
X449204Y483468D01*
X449099Y483387D01*
X448997Y483302D01*
X448897Y483215D01*
X448800Y483125D01*
X448705Y483032D01*
X448614Y482936D01*
X448525Y482838D01*
X448439Y482737D01*
X448356Y482633D01*
X448276Y482527D01*
X448200Y482419D01*
X448126Y482309D01*
X448056Y482196D01*
X447989Y482082D01*
X447926Y481965D01*
X447866Y481847D01*
X447809Y481727D01*
X447756Y481605D01*
X447707Y481482D01*
X447661Y481358D01*
X447619Y481232D01*
X447581Y481105D01*
X447546Y480977D01*
X447515Y480848D01*
X447488Y480719D01*
X447465Y480588D01*
X447445Y480457D01*
X447430Y480325D01*
X447418Y480193D01*
X447410Y480061D01*
X447406Y479928D01*
X447406Y479796D01*
X447410Y479663D01*
X447418Y479531D01*
X447430Y479399D01*
X447445Y479267D01*
X447465Y479136D01*
X447488Y479005D01*
X447515Y478876D01*
X447546Y478747D01*
X447581Y478619D01*
X447619Y478492D01*
X447661Y478366D01*
X447707Y478242D01*
X447756Y478119D01*
X447809Y477997D01*
X447866Y477877D01*
X447926Y477759D01*
X447989Y477642D01*
X448056Y477528D01*
X448126Y477415D01*
X448200Y477305D01*
X448276Y477197D01*
X448356Y477091D01*
X448439Y476987D01*
X448525Y476886D01*
X448614Y476788D01*
X448705Y476692D01*
X448800Y476599D01*
X448897Y476509D01*
X448997Y476422D01*
X449099Y476337D01*
X449204Y476256D01*
X449311Y476178D01*
X449420Y476102D01*
X449531Y476031D01*
X449645Y475962D01*
X449760Y475897D01*
X449878Y475835D01*
X449997Y475777D01*
X450118Y475722D01*
X450240Y475671D01*
X450364Y475623D01*
X450489Y475579D01*
X450615Y475539D01*
X450743Y475503D01*
X450871Y475470D01*
X451000Y475441D01*
X451131Y475416D01*
X451261Y475395D01*
X451393Y475377D01*
X451525Y475364D01*
X451657Y475354D01*
X451789Y475348D01*
X451922Y475346D01*
X451922Y475347D02*
X456438Y475347D01*
X441441Y470831D02*
X441441Y484378D01*
X441441Y470831D02*
X441439Y470730D01*
X441433Y470629D01*
X441424Y470528D01*
X441411Y470427D01*
X441394Y470327D01*
X441373Y470228D01*
X441349Y470130D01*
X441321Y470033D01*
X441289Y469936D01*
X441254Y469841D01*
X441215Y469748D01*
X441173Y469656D01*
X441127Y469565D01*
X441078Y469477D01*
X441026Y469390D01*
X440970Y469305D01*
X440912Y469222D01*
X440850Y469142D01*
X440785Y469064D01*
X440718Y468988D01*
X440648Y468915D01*
X440575Y468845D01*
X440499Y468778D01*
X440421Y468713D01*
X440341Y468651D01*
X440258Y468593D01*
X440173Y468537D01*
X440087Y468485D01*
X439998Y468436D01*
X439907Y468390D01*
X439815Y468348D01*
X439722Y468309D01*
X439627Y468274D01*
X439530Y468242D01*
X439433Y468214D01*
X439335Y468190D01*
X439236Y468169D01*
X439136Y468152D01*
X439035Y468139D01*
X438934Y468130D01*
X438833Y468124D01*
X438732Y468122D01*
X432820Y470831D02*
X432820Y478959D01*
X432820Y470831D02*
X432818Y470730D01*
X432812Y470629D01*
X432803Y470528D01*
X432790Y470427D01*
X432773Y470327D01*
X432752Y470228D01*
X432728Y470130D01*
X432700Y470033D01*
X432668Y469936D01*
X432633Y469841D01*
X432594Y469748D01*
X432552Y469656D01*
X432506Y469565D01*
X432457Y469477D01*
X432405Y469390D01*
X432349Y469305D01*
X432291Y469222D01*
X432229Y469142D01*
X432164Y469064D01*
X432097Y468988D01*
X432027Y468915D01*
X431954Y468845D01*
X431878Y468778D01*
X431800Y468713D01*
X431720Y468651D01*
X431637Y468593D01*
X431552Y468537D01*
X431466Y468485D01*
X431377Y468436D01*
X431286Y468390D01*
X431194Y468348D01*
X431101Y468309D01*
X431006Y468274D01*
X430909Y468242D01*
X430812Y468214D01*
X430714Y468190D01*
X430615Y468169D01*
X430515Y468152D01*
X430414Y468139D01*
X430313Y468130D01*
X430212Y468124D01*
X430111Y468122D01*
X425595Y468122D01*
X425595Y478959D01*
X416116Y468122D02*
X411600Y468122D01*
X416116Y468122D02*
X416217Y468124D01*
X416318Y468130D01*
X416419Y468139D01*
X416520Y468152D01*
X416620Y468169D01*
X416719Y468190D01*
X416817Y468214D01*
X416914Y468242D01*
X417011Y468274D01*
X417106Y468309D01*
X417199Y468348D01*
X417291Y468390D01*
X417382Y468436D01*
X417471Y468485D01*
X417557Y468537D01*
X417642Y468593D01*
X417725Y468651D01*
X417805Y468713D01*
X417883Y468778D01*
X417959Y468845D01*
X418032Y468915D01*
X418102Y468988D01*
X418169Y469064D01*
X418234Y469142D01*
X418296Y469222D01*
X418354Y469305D01*
X418410Y469390D01*
X418462Y469477D01*
X418511Y469565D01*
X418557Y469656D01*
X418599Y469748D01*
X418638Y469841D01*
X418673Y469936D01*
X418705Y470033D01*
X418733Y470130D01*
X418757Y470228D01*
X418778Y470327D01*
X418795Y470427D01*
X418808Y470528D01*
X418817Y470629D01*
X418823Y470730D01*
X418825Y470831D01*
X418825Y476250D01*
X418823Y476351D01*
X418817Y476452D01*
X418808Y476553D01*
X418795Y476654D01*
X418778Y476754D01*
X418757Y476853D01*
X418733Y476951D01*
X418705Y477048D01*
X418673Y477145D01*
X418638Y477240D01*
X418599Y477333D01*
X418557Y477425D01*
X418511Y477516D01*
X418462Y477605D01*
X418410Y477691D01*
X418354Y477776D01*
X418296Y477859D01*
X418234Y477939D01*
X418169Y478017D01*
X418102Y478093D01*
X418032Y478166D01*
X417959Y478236D01*
X417883Y478303D01*
X417805Y478368D01*
X417725Y478430D01*
X417642Y478488D01*
X417557Y478544D01*
X417471Y478596D01*
X417382Y478645D01*
X417291Y478691D01*
X417199Y478733D01*
X417106Y478772D01*
X417011Y478807D01*
X416914Y478839D01*
X416817Y478867D01*
X416719Y478891D01*
X416620Y478912D01*
X416520Y478929D01*
X416419Y478942D01*
X416318Y478951D01*
X416217Y478957D01*
X416116Y478959D01*
X411600Y478959D01*
X411600Y465413D01*
X411601Y465413D02*
X411603Y465312D01*
X411609Y465211D01*
X411618Y465110D01*
X411631Y465009D01*
X411648Y464909D01*
X411669Y464810D01*
X411693Y464712D01*
X411721Y464615D01*
X411753Y464518D01*
X411788Y464423D01*
X411827Y464330D01*
X411869Y464238D01*
X411915Y464147D01*
X411964Y464059D01*
X412016Y463972D01*
X412072Y463887D01*
X412130Y463804D01*
X412192Y463724D01*
X412257Y463646D01*
X412324Y463570D01*
X412394Y463497D01*
X412467Y463427D01*
X412543Y463360D01*
X412621Y463295D01*
X412701Y463233D01*
X412784Y463175D01*
X412869Y463119D01*
X412956Y463067D01*
X413044Y463018D01*
X413135Y462972D01*
X413227Y462930D01*
X413320Y462891D01*
X413415Y462856D01*
X413512Y462824D01*
X413609Y462796D01*
X413707Y462772D01*
X413806Y462751D01*
X413906Y462734D01*
X414007Y462721D01*
X414108Y462712D01*
X414209Y462706D01*
X414310Y462704D01*
X414310Y462703D02*
X417922Y462703D01*
X397645Y478959D02*
X392226Y478959D01*
X395838Y484378D02*
X395838Y470831D01*
X395836Y470730D01*
X395830Y470629D01*
X395821Y470528D01*
X395808Y470427D01*
X395791Y470327D01*
X395770Y470228D01*
X395746Y470130D01*
X395718Y470033D01*
X395686Y469936D01*
X395651Y469841D01*
X395612Y469748D01*
X395570Y469656D01*
X395524Y469565D01*
X395475Y469477D01*
X395423Y469390D01*
X395367Y469305D01*
X395309Y469222D01*
X395247Y469142D01*
X395182Y469064D01*
X395115Y468988D01*
X395045Y468915D01*
X394972Y468845D01*
X394896Y468778D01*
X394818Y468713D01*
X394738Y468651D01*
X394655Y468593D01*
X394570Y468537D01*
X394484Y468485D01*
X394395Y468436D01*
X394304Y468390D01*
X394212Y468348D01*
X394119Y468309D01*
X394024Y468274D01*
X393927Y468242D01*
X393830Y468214D01*
X393732Y468190D01*
X393633Y468169D01*
X393533Y468152D01*
X393432Y468139D01*
X393331Y468130D01*
X393230Y468124D01*
X393129Y468122D01*
X392226Y468122D01*
X385926Y468122D02*
X385926Y484378D01*
X385926Y478959D02*
X381411Y478959D01*
X381307Y478957D01*
X381204Y478951D01*
X381100Y478941D01*
X380997Y478927D01*
X380895Y478909D01*
X380794Y478888D01*
X380693Y478862D01*
X380594Y478833D01*
X380495Y478800D01*
X380398Y478763D01*
X380303Y478722D01*
X380209Y478678D01*
X380117Y478630D01*
X380027Y478579D01*
X379938Y478524D01*
X379852Y478466D01*
X379769Y478404D01*
X379687Y478340D01*
X379609Y478272D01*
X379533Y478202D01*
X379459Y478129D01*
X379389Y478052D01*
X379321Y477974D01*
X379257Y477892D01*
X379195Y477809D01*
X379137Y477723D01*
X379082Y477634D01*
X379031Y477544D01*
X378983Y477452D01*
X378939Y477358D01*
X378898Y477263D01*
X378861Y477166D01*
X378828Y477067D01*
X378799Y476968D01*
X378773Y476867D01*
X378752Y476766D01*
X378734Y476664D01*
X378720Y476561D01*
X378710Y476457D01*
X378704Y476354D01*
X378702Y476250D01*
X378702Y468122D01*
X369149Y468122D02*
X364634Y468122D01*
X369149Y468122D02*
X369250Y468124D01*
X369351Y468130D01*
X369452Y468139D01*
X369553Y468152D01*
X369653Y468169D01*
X369752Y468190D01*
X369850Y468214D01*
X369947Y468242D01*
X370044Y468274D01*
X370139Y468309D01*
X370232Y468348D01*
X370324Y468390D01*
X370415Y468436D01*
X370504Y468485D01*
X370590Y468537D01*
X370675Y468593D01*
X370758Y468651D01*
X370838Y468713D01*
X370916Y468778D01*
X370992Y468845D01*
X371065Y468915D01*
X371135Y468988D01*
X371202Y469064D01*
X371267Y469142D01*
X371329Y469222D01*
X371387Y469305D01*
X371443Y469390D01*
X371495Y469477D01*
X371544Y469565D01*
X371590Y469656D01*
X371632Y469748D01*
X371671Y469841D01*
X371706Y469936D01*
X371738Y470033D01*
X371766Y470130D01*
X371790Y470228D01*
X371811Y470327D01*
X371828Y470427D01*
X371841Y470528D01*
X371850Y470629D01*
X371856Y470730D01*
X371858Y470831D01*
X371858Y475347D01*
X371856Y475466D01*
X371850Y475586D01*
X371840Y475705D01*
X371826Y475823D01*
X371809Y475942D01*
X371787Y476059D01*
X371762Y476176D01*
X371732Y476291D01*
X371699Y476406D01*
X371662Y476520D01*
X371622Y476632D01*
X371577Y476743D01*
X371529Y476852D01*
X371478Y476960D01*
X371423Y477066D01*
X371364Y477170D01*
X371302Y477272D01*
X371237Y477372D01*
X371168Y477470D01*
X371096Y477566D01*
X371021Y477659D01*
X370944Y477749D01*
X370863Y477837D01*
X370779Y477922D01*
X370692Y478004D01*
X370603Y478084D01*
X370511Y478160D01*
X370417Y478234D01*
X370320Y478304D01*
X370222Y478371D01*
X370121Y478435D01*
X370017Y478495D01*
X369912Y478552D01*
X369805Y478605D01*
X369697Y478655D01*
X369587Y478701D01*
X369475Y478743D01*
X369362Y478782D01*
X369248Y478817D01*
X369133Y478848D01*
X369016Y478876D01*
X368899Y478899D01*
X368782Y478919D01*
X368663Y478935D01*
X368544Y478947D01*
X368425Y478955D01*
X368306Y478959D01*
X368186Y478959D01*
X368067Y478955D01*
X367948Y478947D01*
X367829Y478935D01*
X367710Y478919D01*
X367593Y478899D01*
X367476Y478876D01*
X367359Y478848D01*
X367244Y478817D01*
X367130Y478782D01*
X367017Y478743D01*
X366905Y478701D01*
X366795Y478655D01*
X366687Y478605D01*
X366580Y478552D01*
X366475Y478495D01*
X366371Y478435D01*
X366270Y478371D01*
X366172Y478304D01*
X366075Y478234D01*
X365981Y478160D01*
X365889Y478084D01*
X365800Y478004D01*
X365713Y477922D01*
X365629Y477837D01*
X365548Y477749D01*
X365471Y477659D01*
X365396Y477566D01*
X365324Y477470D01*
X365255Y477372D01*
X365190Y477272D01*
X365128Y477170D01*
X365069Y477066D01*
X365014Y476960D01*
X364963Y476852D01*
X364915Y476743D01*
X364870Y476632D01*
X364830Y476520D01*
X364793Y476406D01*
X364760Y476291D01*
X364730Y476176D01*
X364705Y476059D01*
X364683Y475942D01*
X364666Y475823D01*
X364652Y475705D01*
X364642Y475586D01*
X364636Y475466D01*
X364634Y475347D01*
X364634Y473541D01*
X371858Y473541D01*
X349315Y472638D02*
X349315Y484378D01*
X349315Y472638D02*
X349313Y472505D01*
X349307Y472373D01*
X349297Y472241D01*
X349284Y472109D01*
X349266Y471977D01*
X349245Y471847D01*
X349220Y471716D01*
X349191Y471587D01*
X349158Y471459D01*
X349122Y471331D01*
X349082Y471205D01*
X349038Y471080D01*
X348990Y470956D01*
X348939Y470834D01*
X348884Y470713D01*
X348826Y470594D01*
X348764Y470476D01*
X348699Y470361D01*
X348630Y470247D01*
X348559Y470136D01*
X348483Y470027D01*
X348405Y469920D01*
X348324Y469815D01*
X348239Y469713D01*
X348152Y469613D01*
X348062Y469516D01*
X347969Y469421D01*
X347873Y469330D01*
X347775Y469241D01*
X347674Y469155D01*
X347570Y469072D01*
X347464Y468992D01*
X347356Y468916D01*
X347246Y468842D01*
X347133Y468772D01*
X347019Y468705D01*
X346902Y468642D01*
X346784Y468582D01*
X346664Y468525D01*
X346542Y468472D01*
X346419Y468423D01*
X346295Y468377D01*
X346169Y468335D01*
X346042Y468297D01*
X345914Y468262D01*
X345785Y468231D01*
X345656Y468204D01*
X345525Y468181D01*
X345394Y468161D01*
X345262Y468146D01*
X345130Y468134D01*
X344998Y468126D01*
X344865Y468122D01*
X344733Y468122D01*
X344600Y468126D01*
X344468Y468134D01*
X344336Y468146D01*
X344204Y468161D01*
X344073Y468181D01*
X343942Y468204D01*
X343813Y468231D01*
X343684Y468262D01*
X343556Y468297D01*
X343429Y468335D01*
X343303Y468377D01*
X343179Y468423D01*
X343056Y468472D01*
X342934Y468525D01*
X342814Y468582D01*
X342696Y468642D01*
X342579Y468705D01*
X342465Y468772D01*
X342352Y468842D01*
X342242Y468916D01*
X342134Y468992D01*
X342028Y469072D01*
X341924Y469155D01*
X341823Y469241D01*
X341725Y469330D01*
X341629Y469421D01*
X341536Y469516D01*
X341446Y469613D01*
X341359Y469713D01*
X341274Y469815D01*
X341193Y469920D01*
X341115Y470027D01*
X341039Y470136D01*
X340968Y470247D01*
X340899Y470361D01*
X340834Y470476D01*
X340772Y470594D01*
X340714Y470713D01*
X340659Y470834D01*
X340608Y470956D01*
X340560Y471080D01*
X340516Y471205D01*
X340476Y471331D01*
X340440Y471459D01*
X340407Y471587D01*
X340378Y471716D01*
X340353Y471847D01*
X340332Y471977D01*
X340314Y472109D01*
X340301Y472241D01*
X340291Y472373D01*
X340285Y472505D01*
X340283Y472638D01*
X340284Y472638D02*
X340284Y484378D01*
X324653Y471734D02*
X324655Y471616D01*
X324661Y471498D01*
X324670Y471380D01*
X324684Y471263D01*
X324701Y471146D01*
X324722Y471029D01*
X324747Y470914D01*
X324776Y470799D01*
X324809Y470685D01*
X324845Y470573D01*
X324885Y470462D01*
X324928Y470352D01*
X324975Y470243D01*
X325025Y470136D01*
X325080Y470031D01*
X325137Y469928D01*
X325198Y469827D01*
X325262Y469727D01*
X325329Y469630D01*
X325399Y469535D01*
X325473Y469443D01*
X325549Y469352D01*
X325629Y469265D01*
X325711Y469180D01*
X325796Y469098D01*
X325883Y469018D01*
X325974Y468942D01*
X326066Y468868D01*
X326161Y468798D01*
X326258Y468731D01*
X326358Y468667D01*
X326459Y468606D01*
X326562Y468549D01*
X326667Y468494D01*
X326774Y468444D01*
X326883Y468397D01*
X326993Y468354D01*
X327104Y468314D01*
X327216Y468278D01*
X327330Y468245D01*
X327445Y468216D01*
X327560Y468191D01*
X327677Y468170D01*
X327794Y468153D01*
X327911Y468139D01*
X328029Y468130D01*
X328147Y468124D01*
X328265Y468122D01*
X328448Y468124D01*
X328630Y468131D01*
X328812Y468142D01*
X328994Y468157D01*
X329176Y468177D01*
X329357Y468201D01*
X329537Y468229D01*
X329717Y468261D01*
X329896Y468298D01*
X330073Y468339D01*
X330250Y468385D01*
X330426Y468434D01*
X330601Y468488D01*
X330774Y468546D01*
X330945Y468608D01*
X331116Y468674D01*
X331284Y468745D01*
X331451Y468819D01*
X331616Y468897D01*
X331779Y468979D01*
X331940Y469065D01*
X332099Y469155D01*
X332256Y469249D01*
X332410Y469346D01*
X332562Y469447D01*
X332712Y469552D01*
X332859Y469660D01*
X333003Y469771D01*
X333145Y469886D01*
X333284Y470005D01*
X333420Y470127D01*
X333553Y470252D01*
X333683Y470380D01*
X333231Y480766D02*
X333229Y480884D01*
X333223Y481002D01*
X333214Y481120D01*
X333200Y481237D01*
X333183Y481354D01*
X333162Y481471D01*
X333137Y481586D01*
X333108Y481701D01*
X333075Y481815D01*
X333039Y481927D01*
X332999Y482038D01*
X332956Y482148D01*
X332909Y482257D01*
X332859Y482364D01*
X332804Y482469D01*
X332747Y482572D01*
X332686Y482673D01*
X332622Y482773D01*
X332555Y482870D01*
X332485Y482965D01*
X332411Y483057D01*
X332335Y483148D01*
X332255Y483235D01*
X332173Y483320D01*
X332088Y483402D01*
X332001Y483482D01*
X331910Y483558D01*
X331818Y483632D01*
X331723Y483702D01*
X331626Y483769D01*
X331526Y483833D01*
X331425Y483894D01*
X331322Y483951D01*
X331217Y484006D01*
X331110Y484056D01*
X331001Y484103D01*
X330891Y484146D01*
X330780Y484186D01*
X330668Y484222D01*
X330554Y484255D01*
X330439Y484284D01*
X330324Y484309D01*
X330207Y484330D01*
X330090Y484347D01*
X329973Y484361D01*
X329855Y484370D01*
X329737Y484376D01*
X329619Y484378D01*
X329458Y484376D01*
X329296Y484370D01*
X329135Y484361D01*
X328974Y484347D01*
X328814Y484330D01*
X328654Y484309D01*
X328494Y484284D01*
X328335Y484255D01*
X328177Y484223D01*
X328020Y484187D01*
X327864Y484147D01*
X327708Y484103D01*
X327554Y484055D01*
X327401Y484004D01*
X327249Y483950D01*
X327098Y483891D01*
X326949Y483830D01*
X326802Y483764D01*
X326656Y483695D01*
X326511Y483623D01*
X326369Y483547D01*
X326228Y483468D01*
X326089Y483386D01*
X325953Y483300D01*
X325818Y483211D01*
X325685Y483119D01*
X325555Y483023D01*
X331426Y477605D02*
X331527Y477667D01*
X331627Y477732D01*
X331724Y477801D01*
X331819Y477873D01*
X331912Y477947D01*
X332002Y478025D01*
X332090Y478106D01*
X332175Y478189D01*
X332257Y478275D01*
X332336Y478364D01*
X332413Y478455D01*
X332486Y478549D01*
X332557Y478645D01*
X332624Y478743D01*
X332688Y478843D01*
X332749Y478946D01*
X332806Y479050D01*
X332860Y479156D01*
X332910Y479264D01*
X332957Y479373D01*
X333001Y479484D01*
X333041Y479596D01*
X333077Y479710D01*
X333109Y479824D01*
X333138Y479940D01*
X333163Y480056D01*
X333184Y480173D01*
X333201Y480291D01*
X333215Y480409D01*
X333224Y480528D01*
X333230Y480647D01*
X333232Y480766D01*
X326458Y474895D02*
X326357Y474833D01*
X326257Y474768D01*
X326160Y474699D01*
X326065Y474627D01*
X325972Y474553D01*
X325882Y474475D01*
X325794Y474394D01*
X325709Y474311D01*
X325627Y474225D01*
X325548Y474136D01*
X325471Y474045D01*
X325398Y473951D01*
X325327Y473855D01*
X325260Y473757D01*
X325196Y473657D01*
X325135Y473554D01*
X325078Y473450D01*
X325024Y473344D01*
X324974Y473236D01*
X324927Y473127D01*
X324883Y473016D01*
X324843Y472904D01*
X324807Y472790D01*
X324775Y472676D01*
X324746Y472560D01*
X324721Y472444D01*
X324700Y472327D01*
X324683Y472209D01*
X324669Y472091D01*
X324660Y471972D01*
X324654Y471853D01*
X324652Y471734D01*
X326459Y474895D02*
X331426Y477605D01*
X317841Y477153D02*
X313326Y477153D01*
X313326Y477154D02*
X313193Y477152D01*
X313061Y477146D01*
X312929Y477136D01*
X312797Y477123D01*
X312665Y477105D01*
X312535Y477084D01*
X312404Y477059D01*
X312275Y477030D01*
X312147Y476997D01*
X312019Y476961D01*
X311893Y476921D01*
X311768Y476877D01*
X311644Y476829D01*
X311522Y476778D01*
X311401Y476723D01*
X311282Y476665D01*
X311164Y476603D01*
X311049Y476538D01*
X310935Y476469D01*
X310824Y476398D01*
X310715Y476322D01*
X310608Y476244D01*
X310503Y476163D01*
X310401Y476078D01*
X310301Y475991D01*
X310204Y475901D01*
X310109Y475808D01*
X310018Y475712D01*
X309929Y475614D01*
X309843Y475513D01*
X309760Y475409D01*
X309680Y475303D01*
X309604Y475195D01*
X309530Y475085D01*
X309460Y474972D01*
X309393Y474858D01*
X309330Y474741D01*
X309270Y474623D01*
X309213Y474503D01*
X309160Y474381D01*
X309111Y474258D01*
X309065Y474134D01*
X309023Y474008D01*
X308985Y473881D01*
X308950Y473753D01*
X308919Y473624D01*
X308892Y473495D01*
X308869Y473364D01*
X308849Y473233D01*
X308834Y473101D01*
X308822Y472969D01*
X308814Y472837D01*
X308810Y472704D01*
X308810Y472572D01*
X308814Y472439D01*
X308822Y472307D01*
X308834Y472175D01*
X308849Y472043D01*
X308869Y471912D01*
X308892Y471781D01*
X308919Y471652D01*
X308950Y471523D01*
X308985Y471395D01*
X309023Y471268D01*
X309065Y471142D01*
X309111Y471018D01*
X309160Y470895D01*
X309213Y470773D01*
X309270Y470653D01*
X309330Y470535D01*
X309393Y470418D01*
X309460Y470304D01*
X309530Y470191D01*
X309604Y470081D01*
X309680Y469973D01*
X309760Y469867D01*
X309843Y469763D01*
X309929Y469662D01*
X310018Y469564D01*
X310109Y469468D01*
X310204Y469375D01*
X310301Y469285D01*
X310401Y469198D01*
X310503Y469113D01*
X310608Y469032D01*
X310715Y468954D01*
X310824Y468878D01*
X310935Y468807D01*
X311049Y468738D01*
X311164Y468673D01*
X311282Y468611D01*
X311401Y468553D01*
X311522Y468498D01*
X311644Y468447D01*
X311768Y468399D01*
X311893Y468355D01*
X312019Y468315D01*
X312147Y468279D01*
X312275Y468246D01*
X312404Y468217D01*
X312535Y468192D01*
X312665Y468171D01*
X312797Y468153D01*
X312929Y468140D01*
X313061Y468130D01*
X313193Y468124D01*
X313326Y468122D01*
X317841Y468122D01*
X317841Y484378D01*
X313326Y484378D01*
X313207Y484376D01*
X313087Y484370D01*
X312968Y484360D01*
X312850Y484346D01*
X312731Y484329D01*
X312614Y484307D01*
X312497Y484282D01*
X312382Y484252D01*
X312267Y484219D01*
X312153Y484182D01*
X312041Y484142D01*
X311930Y484097D01*
X311821Y484049D01*
X311713Y483998D01*
X311607Y483943D01*
X311503Y483884D01*
X311401Y483822D01*
X311301Y483757D01*
X311203Y483688D01*
X311107Y483616D01*
X311014Y483541D01*
X310924Y483464D01*
X310836Y483383D01*
X310751Y483299D01*
X310669Y483212D01*
X310589Y483123D01*
X310513Y483031D01*
X310439Y482937D01*
X310369Y482840D01*
X310302Y482742D01*
X310238Y482641D01*
X310178Y482537D01*
X310121Y482432D01*
X310068Y482325D01*
X310018Y482217D01*
X309972Y482107D01*
X309930Y481995D01*
X309891Y481882D01*
X309856Y481768D01*
X309825Y481653D01*
X309797Y481536D01*
X309774Y481419D01*
X309754Y481302D01*
X309738Y481183D01*
X309726Y481064D01*
X309718Y480945D01*
X309714Y480826D01*
X309714Y480706D01*
X309718Y480587D01*
X309726Y480468D01*
X309738Y480349D01*
X309754Y480230D01*
X309774Y480113D01*
X309797Y479996D01*
X309825Y479879D01*
X309856Y479764D01*
X309891Y479650D01*
X309930Y479537D01*
X309972Y479425D01*
X310018Y479315D01*
X310068Y479207D01*
X310121Y479100D01*
X310178Y478995D01*
X310238Y478891D01*
X310302Y478790D01*
X310369Y478692D01*
X310439Y478595D01*
X310513Y478501D01*
X310589Y478409D01*
X310669Y478320D01*
X310751Y478233D01*
X310836Y478149D01*
X310924Y478068D01*
X311014Y477991D01*
X311107Y477916D01*
X311203Y477844D01*
X311301Y477775D01*
X311401Y477710D01*
X311503Y477648D01*
X311607Y477589D01*
X311713Y477534D01*
X311821Y477483D01*
X311930Y477435D01*
X312041Y477390D01*
X312153Y477350D01*
X312267Y477313D01*
X312382Y477280D01*
X312497Y477250D01*
X312614Y477225D01*
X312731Y477203D01*
X312850Y477186D01*
X312968Y477172D01*
X313087Y477162D01*
X313207Y477156D01*
X313326Y477154D01*
X292017Y468122D02*
X288405Y468122D01*
X292017Y468122D02*
X292118Y468124D01*
X292219Y468130D01*
X292320Y468139D01*
X292421Y468152D01*
X292521Y468169D01*
X292620Y468190D01*
X292718Y468214D01*
X292815Y468242D01*
X292912Y468274D01*
X293007Y468309D01*
X293100Y468348D01*
X293192Y468390D01*
X293283Y468436D01*
X293372Y468485D01*
X293458Y468537D01*
X293543Y468593D01*
X293626Y468651D01*
X293706Y468713D01*
X293784Y468778D01*
X293860Y468845D01*
X293933Y468915D01*
X294003Y468988D01*
X294070Y469064D01*
X294135Y469142D01*
X294197Y469222D01*
X294255Y469305D01*
X294311Y469390D01*
X294363Y469477D01*
X294412Y469565D01*
X294458Y469656D01*
X294500Y469748D01*
X294539Y469841D01*
X294574Y469936D01*
X294606Y470033D01*
X294634Y470130D01*
X294658Y470228D01*
X294679Y470327D01*
X294696Y470427D01*
X294709Y470528D01*
X294718Y470629D01*
X294724Y470730D01*
X294726Y470831D01*
X294727Y470831D02*
X294727Y476250D01*
X294726Y476250D02*
X294724Y476351D01*
X294718Y476452D01*
X294709Y476553D01*
X294696Y476654D01*
X294679Y476754D01*
X294658Y476853D01*
X294634Y476951D01*
X294606Y477048D01*
X294574Y477145D01*
X294539Y477240D01*
X294500Y477333D01*
X294458Y477425D01*
X294412Y477516D01*
X294363Y477605D01*
X294311Y477691D01*
X294255Y477776D01*
X294197Y477859D01*
X294135Y477939D01*
X294070Y478017D01*
X294003Y478093D01*
X293933Y478166D01*
X293860Y478236D01*
X293784Y478303D01*
X293706Y478368D01*
X293626Y478430D01*
X293543Y478488D01*
X293458Y478544D01*
X293372Y478596D01*
X293283Y478645D01*
X293192Y478691D01*
X293100Y478733D01*
X293007Y478772D01*
X292912Y478807D01*
X292815Y478839D01*
X292718Y478867D01*
X292620Y478891D01*
X292521Y478912D01*
X292421Y478929D01*
X292320Y478942D01*
X292219Y478951D01*
X292118Y478957D01*
X292017Y478959D01*
X288405Y478959D01*
X282760Y475347D02*
X282760Y471734D01*
X282760Y475347D02*
X282758Y475466D01*
X282752Y475586D01*
X282742Y475705D01*
X282728Y475823D01*
X282711Y475942D01*
X282689Y476059D01*
X282664Y476176D01*
X282634Y476291D01*
X282601Y476406D01*
X282564Y476520D01*
X282524Y476632D01*
X282479Y476743D01*
X282431Y476852D01*
X282380Y476960D01*
X282325Y477066D01*
X282266Y477170D01*
X282204Y477272D01*
X282139Y477372D01*
X282070Y477470D01*
X281998Y477566D01*
X281923Y477659D01*
X281846Y477749D01*
X281765Y477837D01*
X281681Y477922D01*
X281594Y478004D01*
X281505Y478084D01*
X281413Y478160D01*
X281319Y478234D01*
X281222Y478304D01*
X281124Y478371D01*
X281023Y478435D01*
X280919Y478495D01*
X280814Y478552D01*
X280707Y478605D01*
X280599Y478655D01*
X280489Y478701D01*
X280377Y478743D01*
X280264Y478782D01*
X280150Y478817D01*
X280035Y478848D01*
X279918Y478876D01*
X279801Y478899D01*
X279684Y478919D01*
X279565Y478935D01*
X279446Y478947D01*
X279327Y478955D01*
X279208Y478959D01*
X279088Y478959D01*
X278969Y478955D01*
X278850Y478947D01*
X278731Y478935D01*
X278612Y478919D01*
X278495Y478899D01*
X278378Y478876D01*
X278261Y478848D01*
X278146Y478817D01*
X278032Y478782D01*
X277919Y478743D01*
X277807Y478701D01*
X277697Y478655D01*
X277589Y478605D01*
X277482Y478552D01*
X277377Y478495D01*
X277273Y478435D01*
X277172Y478371D01*
X277074Y478304D01*
X276977Y478234D01*
X276883Y478160D01*
X276791Y478084D01*
X276702Y478004D01*
X276615Y477922D01*
X276531Y477837D01*
X276450Y477749D01*
X276373Y477659D01*
X276298Y477566D01*
X276226Y477470D01*
X276157Y477372D01*
X276092Y477272D01*
X276030Y477170D01*
X275971Y477066D01*
X275916Y476960D01*
X275865Y476852D01*
X275817Y476743D01*
X275772Y476632D01*
X275732Y476520D01*
X275695Y476406D01*
X275662Y476291D01*
X275632Y476176D01*
X275607Y476059D01*
X275585Y475942D01*
X275568Y475823D01*
X275554Y475705D01*
X275544Y475586D01*
X275538Y475466D01*
X275536Y475347D01*
X275535Y475347D02*
X275535Y471734D01*
X275536Y471734D02*
X275538Y471615D01*
X275544Y471495D01*
X275554Y471376D01*
X275568Y471258D01*
X275585Y471139D01*
X275607Y471022D01*
X275632Y470905D01*
X275662Y470790D01*
X275695Y470675D01*
X275732Y470561D01*
X275772Y470449D01*
X275817Y470338D01*
X275865Y470229D01*
X275916Y470121D01*
X275971Y470015D01*
X276030Y469911D01*
X276092Y469809D01*
X276157Y469709D01*
X276226Y469611D01*
X276298Y469515D01*
X276373Y469422D01*
X276450Y469332D01*
X276531Y469244D01*
X276615Y469159D01*
X276702Y469077D01*
X276791Y468997D01*
X276883Y468921D01*
X276977Y468847D01*
X277074Y468777D01*
X277172Y468710D01*
X277273Y468646D01*
X277377Y468586D01*
X277482Y468529D01*
X277589Y468476D01*
X277697Y468426D01*
X277807Y468380D01*
X277919Y468338D01*
X278032Y468299D01*
X278146Y468264D01*
X278261Y468233D01*
X278378Y468205D01*
X278495Y468182D01*
X278612Y468162D01*
X278731Y468146D01*
X278850Y468134D01*
X278969Y468126D01*
X279088Y468122D01*
X279208Y468122D01*
X279327Y468126D01*
X279446Y468134D01*
X279565Y468146D01*
X279684Y468162D01*
X279801Y468182D01*
X279918Y468205D01*
X280035Y468233D01*
X280150Y468264D01*
X280264Y468299D01*
X280377Y468338D01*
X280489Y468380D01*
X280599Y468426D01*
X280707Y468476D01*
X280814Y468529D01*
X280919Y468586D01*
X281023Y468646D01*
X281124Y468710D01*
X281222Y468777D01*
X281319Y468847D01*
X281413Y468921D01*
X281505Y468997D01*
X281594Y469077D01*
X281681Y469159D01*
X281765Y469244D01*
X281846Y469332D01*
X281923Y469422D01*
X281998Y469515D01*
X282070Y469611D01*
X282139Y469709D01*
X282204Y469809D01*
X282266Y469911D01*
X282325Y470015D01*
X282380Y470121D01*
X282431Y470229D01*
X282479Y470338D01*
X282524Y470449D01*
X282564Y470561D01*
X282601Y470675D01*
X282634Y470790D01*
X282664Y470905D01*
X282689Y471022D01*
X282711Y471139D01*
X282728Y471258D01*
X282742Y471376D01*
X282752Y471495D01*
X282758Y471615D01*
X282760Y471734D01*
X268692Y468122D02*
X268692Y478959D01*
X264177Y478959D01*
X264073Y478957D01*
X263970Y478951D01*
X263866Y478941D01*
X263763Y478927D01*
X263661Y478909D01*
X263560Y478888D01*
X263459Y478862D01*
X263360Y478833D01*
X263261Y478800D01*
X263164Y478763D01*
X263069Y478722D01*
X262975Y478678D01*
X262883Y478630D01*
X262793Y478579D01*
X262704Y478524D01*
X262618Y478466D01*
X262535Y478404D01*
X262453Y478340D01*
X262375Y478272D01*
X262299Y478202D01*
X262225Y478129D01*
X262155Y478052D01*
X262087Y477974D01*
X262023Y477892D01*
X261961Y477809D01*
X261903Y477723D01*
X261848Y477634D01*
X261797Y477544D01*
X261749Y477452D01*
X261705Y477358D01*
X261664Y477263D01*
X261627Y477166D01*
X261594Y477067D01*
X261565Y476968D01*
X261539Y476867D01*
X261518Y476766D01*
X261500Y476664D01*
X261486Y476561D01*
X261476Y476457D01*
X261470Y476354D01*
X261468Y476250D01*
X261467Y476250D02*
X261467Y468122D01*
X254103Y468122D02*
X254103Y478959D01*
X249588Y478959D01*
X249484Y478957D01*
X249381Y478951D01*
X249277Y478941D01*
X249174Y478927D01*
X249072Y478909D01*
X248971Y478888D01*
X248870Y478862D01*
X248771Y478833D01*
X248672Y478800D01*
X248575Y478763D01*
X248480Y478722D01*
X248386Y478678D01*
X248294Y478630D01*
X248204Y478579D01*
X248115Y478524D01*
X248029Y478466D01*
X247946Y478404D01*
X247864Y478340D01*
X247786Y478272D01*
X247710Y478202D01*
X247636Y478129D01*
X247566Y478052D01*
X247498Y477974D01*
X247434Y477892D01*
X247372Y477809D01*
X247314Y477723D01*
X247259Y477634D01*
X247208Y477544D01*
X247160Y477452D01*
X247116Y477358D01*
X247075Y477263D01*
X247038Y477166D01*
X247005Y477067D01*
X246976Y476968D01*
X246950Y476867D01*
X246929Y476766D01*
X246911Y476664D01*
X246897Y476561D01*
X246887Y476457D01*
X246881Y476354D01*
X246879Y476250D01*
X246878Y476250D02*
X246878Y468122D01*
X237326Y468122D02*
X232810Y468122D01*
X237326Y468122D02*
X237427Y468124D01*
X237528Y468130D01*
X237629Y468139D01*
X237730Y468152D01*
X237830Y468169D01*
X237929Y468190D01*
X238027Y468214D01*
X238124Y468242D01*
X238221Y468274D01*
X238316Y468309D01*
X238409Y468348D01*
X238501Y468390D01*
X238592Y468436D01*
X238681Y468485D01*
X238767Y468537D01*
X238852Y468593D01*
X238935Y468651D01*
X239015Y468713D01*
X239093Y468778D01*
X239169Y468845D01*
X239242Y468915D01*
X239312Y468988D01*
X239379Y469064D01*
X239444Y469142D01*
X239506Y469222D01*
X239564Y469305D01*
X239620Y469390D01*
X239672Y469477D01*
X239721Y469565D01*
X239767Y469656D01*
X239809Y469748D01*
X239848Y469841D01*
X239883Y469936D01*
X239915Y470033D01*
X239943Y470130D01*
X239967Y470228D01*
X239988Y470327D01*
X240005Y470427D01*
X240018Y470528D01*
X240027Y470629D01*
X240033Y470730D01*
X240035Y470831D01*
X240035Y475347D01*
X240033Y475466D01*
X240027Y475586D01*
X240017Y475705D01*
X240003Y475823D01*
X239986Y475942D01*
X239964Y476059D01*
X239939Y476176D01*
X239909Y476291D01*
X239876Y476406D01*
X239839Y476520D01*
X239799Y476632D01*
X239754Y476743D01*
X239706Y476852D01*
X239655Y476960D01*
X239600Y477066D01*
X239541Y477170D01*
X239479Y477272D01*
X239414Y477372D01*
X239345Y477470D01*
X239273Y477566D01*
X239198Y477659D01*
X239121Y477749D01*
X239040Y477837D01*
X238956Y477922D01*
X238869Y478004D01*
X238780Y478084D01*
X238688Y478160D01*
X238594Y478234D01*
X238497Y478304D01*
X238399Y478371D01*
X238298Y478435D01*
X238194Y478495D01*
X238089Y478552D01*
X237982Y478605D01*
X237874Y478655D01*
X237764Y478701D01*
X237652Y478743D01*
X237539Y478782D01*
X237425Y478817D01*
X237310Y478848D01*
X237193Y478876D01*
X237076Y478899D01*
X236959Y478919D01*
X236840Y478935D01*
X236721Y478947D01*
X236602Y478955D01*
X236483Y478959D01*
X236363Y478959D01*
X236244Y478955D01*
X236125Y478947D01*
X236006Y478935D01*
X235887Y478919D01*
X235770Y478899D01*
X235653Y478876D01*
X235536Y478848D01*
X235421Y478817D01*
X235307Y478782D01*
X235194Y478743D01*
X235082Y478701D01*
X234972Y478655D01*
X234864Y478605D01*
X234757Y478552D01*
X234652Y478495D01*
X234548Y478435D01*
X234447Y478371D01*
X234349Y478304D01*
X234252Y478234D01*
X234158Y478160D01*
X234066Y478084D01*
X233977Y478004D01*
X233890Y477922D01*
X233806Y477837D01*
X233725Y477749D01*
X233648Y477659D01*
X233573Y477566D01*
X233501Y477470D01*
X233432Y477372D01*
X233367Y477272D01*
X233305Y477170D01*
X233246Y477066D01*
X233191Y476960D01*
X233140Y476852D01*
X233092Y476743D01*
X233047Y476632D01*
X233007Y476520D01*
X232970Y476406D01*
X232937Y476291D01*
X232907Y476176D01*
X232882Y476059D01*
X232860Y475942D01*
X232843Y475823D01*
X232829Y475705D01*
X232819Y475586D01*
X232813Y475466D01*
X232811Y475347D01*
X232810Y475347D02*
X232810Y473541D01*
X240035Y473541D01*
X223761Y468122D02*
X220149Y468122D01*
X223761Y468122D02*
X223862Y468124D01*
X223963Y468130D01*
X224064Y468139D01*
X224165Y468152D01*
X224265Y468169D01*
X224364Y468190D01*
X224462Y468214D01*
X224559Y468242D01*
X224656Y468274D01*
X224751Y468309D01*
X224844Y468348D01*
X224936Y468390D01*
X225027Y468436D01*
X225116Y468485D01*
X225202Y468537D01*
X225287Y468593D01*
X225370Y468651D01*
X225450Y468713D01*
X225528Y468778D01*
X225604Y468845D01*
X225677Y468915D01*
X225747Y468988D01*
X225814Y469064D01*
X225879Y469142D01*
X225941Y469222D01*
X225999Y469305D01*
X226055Y469390D01*
X226107Y469477D01*
X226156Y469565D01*
X226202Y469656D01*
X226244Y469748D01*
X226283Y469841D01*
X226318Y469936D01*
X226350Y470033D01*
X226378Y470130D01*
X226402Y470228D01*
X226423Y470327D01*
X226440Y470427D01*
X226453Y470528D01*
X226462Y470629D01*
X226468Y470730D01*
X226470Y470831D01*
X226470Y476250D01*
X226468Y476351D01*
X226462Y476452D01*
X226453Y476553D01*
X226440Y476654D01*
X226423Y476754D01*
X226402Y476853D01*
X226378Y476951D01*
X226350Y477048D01*
X226318Y477145D01*
X226283Y477240D01*
X226244Y477333D01*
X226202Y477425D01*
X226156Y477516D01*
X226107Y477605D01*
X226055Y477691D01*
X225999Y477776D01*
X225941Y477859D01*
X225879Y477939D01*
X225814Y478017D01*
X225747Y478093D01*
X225677Y478166D01*
X225604Y478236D01*
X225528Y478303D01*
X225450Y478368D01*
X225370Y478430D01*
X225287Y478488D01*
X225202Y478544D01*
X225116Y478596D01*
X225027Y478645D01*
X224936Y478691D01*
X224844Y478733D01*
X224751Y478772D01*
X224656Y478807D01*
X224559Y478839D01*
X224462Y478867D01*
X224364Y478891D01*
X224265Y478912D01*
X224165Y478929D01*
X224064Y478942D01*
X223963Y478951D01*
X223862Y478957D01*
X223761Y478959D01*
X220149Y478959D01*
X215801Y478959D02*
X210383Y478959D01*
X213995Y484378D02*
X213995Y470831D01*
X213993Y470730D01*
X213987Y470629D01*
X213978Y470528D01*
X213965Y470427D01*
X213948Y470327D01*
X213927Y470228D01*
X213903Y470130D01*
X213875Y470033D01*
X213843Y469936D01*
X213808Y469841D01*
X213769Y469748D01*
X213727Y469656D01*
X213681Y469565D01*
X213632Y469477D01*
X213580Y469390D01*
X213524Y469305D01*
X213466Y469222D01*
X213404Y469142D01*
X213339Y469064D01*
X213272Y468988D01*
X213202Y468915D01*
X213129Y468845D01*
X213053Y468778D01*
X212975Y468713D01*
X212895Y468651D01*
X212812Y468593D01*
X212727Y468537D01*
X212641Y468485D01*
X212552Y468436D01*
X212461Y468390D01*
X212369Y468348D01*
X212276Y468309D01*
X212181Y468274D01*
X212084Y468242D01*
X211987Y468214D01*
X211889Y468190D01*
X211790Y468169D01*
X211690Y468152D01*
X211589Y468139D01*
X211488Y468130D01*
X211387Y468124D01*
X211286Y468122D01*
X210383Y468122D01*
X204604Y471734D02*
X204604Y475347D01*
X204602Y475466D01*
X204596Y475586D01*
X204586Y475705D01*
X204572Y475823D01*
X204555Y475942D01*
X204533Y476059D01*
X204508Y476176D01*
X204478Y476291D01*
X204445Y476406D01*
X204408Y476520D01*
X204368Y476632D01*
X204323Y476743D01*
X204275Y476852D01*
X204224Y476960D01*
X204169Y477066D01*
X204110Y477170D01*
X204048Y477272D01*
X203983Y477372D01*
X203914Y477470D01*
X203842Y477566D01*
X203767Y477659D01*
X203690Y477749D01*
X203609Y477837D01*
X203525Y477922D01*
X203438Y478004D01*
X203349Y478084D01*
X203257Y478160D01*
X203163Y478234D01*
X203066Y478304D01*
X202968Y478371D01*
X202867Y478435D01*
X202763Y478495D01*
X202658Y478552D01*
X202551Y478605D01*
X202443Y478655D01*
X202333Y478701D01*
X202221Y478743D01*
X202108Y478782D01*
X201994Y478817D01*
X201879Y478848D01*
X201762Y478876D01*
X201645Y478899D01*
X201528Y478919D01*
X201409Y478935D01*
X201290Y478947D01*
X201171Y478955D01*
X201052Y478959D01*
X200932Y478959D01*
X200813Y478955D01*
X200694Y478947D01*
X200575Y478935D01*
X200456Y478919D01*
X200339Y478899D01*
X200222Y478876D01*
X200105Y478848D01*
X199990Y478817D01*
X199876Y478782D01*
X199763Y478743D01*
X199651Y478701D01*
X199541Y478655D01*
X199433Y478605D01*
X199326Y478552D01*
X199221Y478495D01*
X199117Y478435D01*
X199016Y478371D01*
X198918Y478304D01*
X198821Y478234D01*
X198727Y478160D01*
X198635Y478084D01*
X198546Y478004D01*
X198459Y477922D01*
X198375Y477837D01*
X198294Y477749D01*
X198217Y477659D01*
X198142Y477566D01*
X198070Y477470D01*
X198001Y477372D01*
X197936Y477272D01*
X197874Y477170D01*
X197815Y477066D01*
X197760Y476960D01*
X197709Y476852D01*
X197661Y476743D01*
X197616Y476632D01*
X197576Y476520D01*
X197539Y476406D01*
X197506Y476291D01*
X197476Y476176D01*
X197451Y476059D01*
X197429Y475942D01*
X197412Y475823D01*
X197398Y475705D01*
X197388Y475586D01*
X197382Y475466D01*
X197380Y475347D01*
X197379Y475347D02*
X197379Y471734D01*
X197380Y471734D02*
X197382Y471615D01*
X197388Y471495D01*
X197398Y471376D01*
X197412Y471258D01*
X197429Y471139D01*
X197451Y471022D01*
X197476Y470905D01*
X197506Y470790D01*
X197539Y470675D01*
X197576Y470561D01*
X197616Y470449D01*
X197661Y470338D01*
X197709Y470229D01*
X197760Y470121D01*
X197815Y470015D01*
X197874Y469911D01*
X197936Y469809D01*
X198001Y469709D01*
X198070Y469611D01*
X198142Y469515D01*
X198217Y469422D01*
X198294Y469332D01*
X198375Y469244D01*
X198459Y469159D01*
X198546Y469077D01*
X198635Y468997D01*
X198727Y468921D01*
X198821Y468847D01*
X198918Y468777D01*
X199016Y468710D01*
X199117Y468646D01*
X199221Y468586D01*
X199326Y468529D01*
X199433Y468476D01*
X199541Y468426D01*
X199651Y468380D01*
X199763Y468338D01*
X199876Y468299D01*
X199990Y468264D01*
X200105Y468233D01*
X200222Y468205D01*
X200339Y468182D01*
X200456Y468162D01*
X200575Y468146D01*
X200694Y468134D01*
X200813Y468126D01*
X200932Y468122D01*
X201052Y468122D01*
X201171Y468126D01*
X201290Y468134D01*
X201409Y468146D01*
X201528Y468162D01*
X201645Y468182D01*
X201762Y468205D01*
X201879Y468233D01*
X201994Y468264D01*
X202108Y468299D01*
X202221Y468338D01*
X202333Y468380D01*
X202443Y468426D01*
X202551Y468476D01*
X202658Y468529D01*
X202763Y468586D01*
X202867Y468646D01*
X202968Y468710D01*
X203066Y468777D01*
X203163Y468847D01*
X203257Y468921D01*
X203349Y468997D01*
X203438Y469077D01*
X203525Y469159D01*
X203609Y469244D01*
X203690Y469332D01*
X203767Y469422D01*
X203842Y469515D01*
X203914Y469611D01*
X203983Y469709D01*
X204048Y469809D01*
X204110Y469911D01*
X204169Y470015D01*
X204224Y470121D01*
X204275Y470229D01*
X204323Y470338D01*
X204368Y470449D01*
X204408Y470561D01*
X204445Y470675D01*
X204478Y470790D01*
X204508Y470905D01*
X204533Y471022D01*
X204555Y471139D01*
X204572Y471258D01*
X204586Y471376D01*
X204596Y471495D01*
X204602Y471615D01*
X204604Y471734D01*
X190451Y468122D02*
X190451Y478959D01*
X185033Y478959D01*
X185033Y477153D01*
X171814Y478959D02*
X171814Y468122D01*
X172265Y483475D02*
X172265Y484378D01*
X171362Y484378D01*
X171362Y483475D01*
X172265Y483475D01*
X165005Y478959D02*
X165005Y468122D01*
X165005Y478959D02*
X160490Y478959D01*
X160386Y478957D01*
X160283Y478951D01*
X160179Y478941D01*
X160076Y478927D01*
X159974Y478909D01*
X159873Y478888D01*
X159772Y478862D01*
X159673Y478833D01*
X159574Y478800D01*
X159477Y478763D01*
X159382Y478722D01*
X159288Y478678D01*
X159196Y478630D01*
X159106Y478579D01*
X159017Y478524D01*
X158931Y478466D01*
X158848Y478404D01*
X158766Y478340D01*
X158688Y478272D01*
X158612Y478202D01*
X158538Y478129D01*
X158468Y478052D01*
X158400Y477974D01*
X158336Y477892D01*
X158274Y477809D01*
X158216Y477723D01*
X158161Y477634D01*
X158110Y477544D01*
X158062Y477452D01*
X158018Y477358D01*
X157977Y477263D01*
X157940Y477166D01*
X157907Y477067D01*
X157878Y476968D01*
X157852Y476867D01*
X157831Y476766D01*
X157813Y476664D01*
X157799Y476561D01*
X157789Y476457D01*
X157783Y476354D01*
X157781Y476250D01*
X157780Y476250D02*
X157780Y468122D01*
X152234Y478959D02*
X146816Y478959D01*
X150428Y484378D02*
X150428Y470831D01*
X150426Y470730D01*
X150420Y470629D01*
X150411Y470528D01*
X150398Y470427D01*
X150381Y470327D01*
X150360Y470228D01*
X150336Y470130D01*
X150308Y470033D01*
X150276Y469936D01*
X150241Y469841D01*
X150202Y469748D01*
X150160Y469656D01*
X150114Y469565D01*
X150065Y469477D01*
X150013Y469390D01*
X149957Y469305D01*
X149899Y469222D01*
X149837Y469142D01*
X149772Y469064D01*
X149705Y468988D01*
X149635Y468915D01*
X149562Y468845D01*
X149486Y468778D01*
X149408Y468713D01*
X149328Y468651D01*
X149245Y468593D01*
X149160Y468537D01*
X149074Y468485D01*
X148985Y468436D01*
X148894Y468390D01*
X148802Y468348D01*
X148709Y468309D01*
X148614Y468274D01*
X148517Y468242D01*
X148420Y468214D01*
X148322Y468190D01*
X148223Y468169D01*
X148123Y468152D01*
X148022Y468139D01*
X147921Y468130D01*
X147820Y468124D01*
X147719Y468122D01*
X146816Y468122D01*
X141037Y471734D02*
X141037Y475347D01*
X141035Y475466D01*
X141029Y475586D01*
X141019Y475705D01*
X141005Y475823D01*
X140988Y475942D01*
X140966Y476059D01*
X140941Y476176D01*
X140911Y476291D01*
X140878Y476406D01*
X140841Y476520D01*
X140801Y476632D01*
X140756Y476743D01*
X140708Y476852D01*
X140657Y476960D01*
X140602Y477066D01*
X140543Y477170D01*
X140481Y477272D01*
X140416Y477372D01*
X140347Y477470D01*
X140275Y477566D01*
X140200Y477659D01*
X140123Y477749D01*
X140042Y477837D01*
X139958Y477922D01*
X139871Y478004D01*
X139782Y478084D01*
X139690Y478160D01*
X139596Y478234D01*
X139499Y478304D01*
X139401Y478371D01*
X139300Y478435D01*
X139196Y478495D01*
X139091Y478552D01*
X138984Y478605D01*
X138876Y478655D01*
X138766Y478701D01*
X138654Y478743D01*
X138541Y478782D01*
X138427Y478817D01*
X138312Y478848D01*
X138195Y478876D01*
X138078Y478899D01*
X137961Y478919D01*
X137842Y478935D01*
X137723Y478947D01*
X137604Y478955D01*
X137485Y478959D01*
X137365Y478959D01*
X137246Y478955D01*
X137127Y478947D01*
X137008Y478935D01*
X136889Y478919D01*
X136772Y478899D01*
X136655Y478876D01*
X136538Y478848D01*
X136423Y478817D01*
X136309Y478782D01*
X136196Y478743D01*
X136084Y478701D01*
X135974Y478655D01*
X135866Y478605D01*
X135759Y478552D01*
X135654Y478495D01*
X135550Y478435D01*
X135449Y478371D01*
X135351Y478304D01*
X135254Y478234D01*
X135160Y478160D01*
X135068Y478084D01*
X134979Y478004D01*
X134892Y477922D01*
X134808Y477837D01*
X134727Y477749D01*
X134650Y477659D01*
X134575Y477566D01*
X134503Y477470D01*
X134434Y477372D01*
X134369Y477272D01*
X134307Y477170D01*
X134248Y477066D01*
X134193Y476960D01*
X134142Y476852D01*
X134094Y476743D01*
X134049Y476632D01*
X134009Y476520D01*
X133972Y476406D01*
X133939Y476291D01*
X133909Y476176D01*
X133884Y476059D01*
X133862Y475942D01*
X133845Y475823D01*
X133831Y475705D01*
X133821Y475586D01*
X133815Y475466D01*
X133813Y475347D01*
X133813Y471734D01*
X133815Y471615D01*
X133821Y471495D01*
X133831Y471376D01*
X133845Y471258D01*
X133862Y471139D01*
X133884Y471022D01*
X133909Y470905D01*
X133939Y470790D01*
X133972Y470675D01*
X134009Y470561D01*
X134049Y470449D01*
X134094Y470338D01*
X134142Y470229D01*
X134193Y470121D01*
X134248Y470015D01*
X134307Y469911D01*
X134369Y469809D01*
X134434Y469709D01*
X134503Y469611D01*
X134575Y469515D01*
X134650Y469422D01*
X134727Y469332D01*
X134808Y469244D01*
X134892Y469159D01*
X134979Y469077D01*
X135068Y468997D01*
X135160Y468921D01*
X135254Y468847D01*
X135351Y468777D01*
X135449Y468710D01*
X135550Y468646D01*
X135654Y468586D01*
X135759Y468529D01*
X135866Y468476D01*
X135974Y468426D01*
X136084Y468380D01*
X136196Y468338D01*
X136309Y468299D01*
X136423Y468264D01*
X136538Y468233D01*
X136655Y468205D01*
X136772Y468182D01*
X136889Y468162D01*
X137008Y468146D01*
X137127Y468134D01*
X137246Y468126D01*
X137365Y468122D01*
X137485Y468122D01*
X137604Y468126D01*
X137723Y468134D01*
X137842Y468146D01*
X137961Y468162D01*
X138078Y468182D01*
X138195Y468205D01*
X138312Y468233D01*
X138427Y468264D01*
X138541Y468299D01*
X138654Y468338D01*
X138766Y468380D01*
X138876Y468426D01*
X138984Y468476D01*
X139091Y468529D01*
X139196Y468586D01*
X139300Y468646D01*
X139401Y468710D01*
X139499Y468777D01*
X139596Y468847D01*
X139690Y468921D01*
X139782Y468997D01*
X139871Y469077D01*
X139958Y469159D01*
X140042Y469244D01*
X140123Y469332D01*
X140200Y469422D01*
X140275Y469515D01*
X140347Y469611D01*
X140416Y469709D01*
X140481Y469809D01*
X140543Y469911D01*
X140602Y470015D01*
X140657Y470121D01*
X140708Y470229D01*
X140756Y470338D01*
X140801Y470449D01*
X140841Y470561D01*
X140878Y470675D01*
X140911Y470790D01*
X140941Y470905D01*
X140966Y471022D01*
X140988Y471139D01*
X141005Y471258D01*
X141019Y471376D01*
X141029Y471495D01*
X141035Y471615D01*
X141037Y471734D01*
X116066Y474444D02*
X112002Y474444D01*
X116066Y474444D02*
X116178Y474442D01*
X116289Y474436D01*
X116400Y474426D01*
X116511Y474413D01*
X116621Y474395D01*
X116730Y474373D01*
X116839Y474348D01*
X116947Y474319D01*
X117053Y474286D01*
X117159Y474249D01*
X117263Y474209D01*
X117365Y474165D01*
X117466Y474117D01*
X117565Y474066D01*
X117663Y474011D01*
X117758Y473953D01*
X117851Y473892D01*
X117942Y473827D01*
X118031Y473759D01*
X118117Y473688D01*
X118200Y473615D01*
X118281Y473538D01*
X118360Y473458D01*
X118435Y473376D01*
X118507Y473291D01*
X118577Y473204D01*
X118643Y473114D01*
X118706Y473022D01*
X118766Y472927D01*
X118822Y472831D01*
X118875Y472733D01*
X118924Y472633D01*
X118970Y472531D01*
X119012Y472428D01*
X119051Y472323D01*
X119086Y472217D01*
X119117Y472110D01*
X119144Y472002D01*
X119168Y471893D01*
X119187Y471783D01*
X119203Y471673D01*
X119215Y471562D01*
X119223Y471450D01*
X119227Y471339D01*
X119227Y471227D01*
X119223Y471116D01*
X119215Y471004D01*
X119203Y470893D01*
X119187Y470783D01*
X119168Y470673D01*
X119144Y470564D01*
X119117Y470456D01*
X119086Y470349D01*
X119051Y470243D01*
X119012Y470138D01*
X118970Y470035D01*
X118924Y469933D01*
X118875Y469833D01*
X118822Y469735D01*
X118766Y469639D01*
X118706Y469544D01*
X118643Y469452D01*
X118577Y469362D01*
X118507Y469275D01*
X118435Y469190D01*
X118360Y469108D01*
X118281Y469028D01*
X118200Y468951D01*
X118117Y468878D01*
X118031Y468807D01*
X117942Y468739D01*
X117851Y468674D01*
X117758Y468613D01*
X117663Y468555D01*
X117565Y468500D01*
X117466Y468449D01*
X117365Y468401D01*
X117263Y468357D01*
X117159Y468317D01*
X117053Y468280D01*
X116947Y468247D01*
X116839Y468218D01*
X116730Y468193D01*
X116621Y468171D01*
X116511Y468153D01*
X116400Y468140D01*
X116289Y468130D01*
X116178Y468124D01*
X116066Y468122D01*
X112002Y468122D01*
X112002Y476250D01*
X112004Y476351D01*
X112010Y476452D01*
X112019Y476553D01*
X112032Y476654D01*
X112049Y476754D01*
X112070Y476853D01*
X112094Y476951D01*
X112122Y477048D01*
X112154Y477145D01*
X112189Y477240D01*
X112228Y477333D01*
X112270Y477425D01*
X112316Y477516D01*
X112365Y477605D01*
X112417Y477691D01*
X112473Y477776D01*
X112531Y477859D01*
X112593Y477939D01*
X112658Y478017D01*
X112725Y478093D01*
X112795Y478166D01*
X112868Y478236D01*
X112944Y478303D01*
X113022Y478368D01*
X113102Y478430D01*
X113185Y478488D01*
X113270Y478544D01*
X113357Y478596D01*
X113445Y478645D01*
X113536Y478691D01*
X113628Y478733D01*
X113721Y478772D01*
X113816Y478807D01*
X113913Y478839D01*
X114010Y478867D01*
X114108Y478891D01*
X114207Y478912D01*
X114307Y478929D01*
X114408Y478942D01*
X114509Y478951D01*
X114610Y478957D01*
X114711Y478959D01*
X118324Y478959D01*
X104565Y478959D02*
X104565Y468122D01*
X104565Y478959D02*
X100049Y478959D01*
X99945Y478957D01*
X99842Y478951D01*
X99738Y478941D01*
X99635Y478927D01*
X99533Y478909D01*
X99432Y478888D01*
X99331Y478862D01*
X99232Y478833D01*
X99133Y478800D01*
X99036Y478763D01*
X98941Y478722D01*
X98847Y478678D01*
X98755Y478630D01*
X98665Y478579D01*
X98576Y478524D01*
X98490Y478466D01*
X98407Y478404D01*
X98325Y478340D01*
X98247Y478272D01*
X98171Y478202D01*
X98097Y478129D01*
X98027Y478052D01*
X97959Y477974D01*
X97895Y477892D01*
X97833Y477809D01*
X97775Y477723D01*
X97720Y477634D01*
X97669Y477544D01*
X97621Y477452D01*
X97577Y477358D01*
X97536Y477263D01*
X97499Y477166D01*
X97466Y477067D01*
X97437Y476968D01*
X97411Y476867D01*
X97390Y476766D01*
X97372Y476664D01*
X97358Y476561D01*
X97348Y476457D01*
X97342Y476354D01*
X97340Y476250D01*
X97340Y468122D01*
X91018Y462703D02*
X89211Y462703D01*
X83793Y478959D01*
X91018Y478959D02*
X87405Y468122D01*
X68995Y472638D02*
X68995Y484378D01*
X68995Y472638D02*
X68993Y472505D01*
X68987Y472373D01*
X68977Y472241D01*
X68964Y472109D01*
X68946Y471977D01*
X68925Y471847D01*
X68900Y471716D01*
X68871Y471587D01*
X68838Y471459D01*
X68802Y471331D01*
X68762Y471205D01*
X68718Y471080D01*
X68670Y470956D01*
X68619Y470834D01*
X68564Y470713D01*
X68506Y470594D01*
X68444Y470476D01*
X68379Y470361D01*
X68310Y470247D01*
X68239Y470136D01*
X68163Y470027D01*
X68085Y469920D01*
X68004Y469815D01*
X67919Y469713D01*
X67832Y469613D01*
X67742Y469516D01*
X67649Y469421D01*
X67553Y469330D01*
X67455Y469241D01*
X67354Y469155D01*
X67250Y469072D01*
X67144Y468992D01*
X67036Y468916D01*
X66926Y468842D01*
X66813Y468772D01*
X66699Y468705D01*
X66582Y468642D01*
X66464Y468582D01*
X66344Y468525D01*
X66222Y468472D01*
X66099Y468423D01*
X65975Y468377D01*
X65849Y468335D01*
X65722Y468297D01*
X65594Y468262D01*
X65465Y468231D01*
X65336Y468204D01*
X65205Y468181D01*
X65074Y468161D01*
X64942Y468146D01*
X64810Y468134D01*
X64678Y468126D01*
X64545Y468122D01*
X64413Y468122D01*
X64280Y468126D01*
X64148Y468134D01*
X64016Y468146D01*
X63884Y468161D01*
X63753Y468181D01*
X63622Y468204D01*
X63493Y468231D01*
X63364Y468262D01*
X63236Y468297D01*
X63109Y468335D01*
X62983Y468377D01*
X62859Y468423D01*
X62736Y468472D01*
X62614Y468525D01*
X62494Y468582D01*
X62376Y468642D01*
X62259Y468705D01*
X62145Y468772D01*
X62032Y468842D01*
X61922Y468916D01*
X61814Y468992D01*
X61708Y469072D01*
X61604Y469155D01*
X61503Y469241D01*
X61405Y469330D01*
X61309Y469421D01*
X61216Y469516D01*
X61126Y469613D01*
X61039Y469713D01*
X60954Y469815D01*
X60873Y469920D01*
X60795Y470027D01*
X60719Y470136D01*
X60648Y470247D01*
X60579Y470361D01*
X60514Y470476D01*
X60452Y470594D01*
X60394Y470713D01*
X60339Y470834D01*
X60288Y470956D01*
X60240Y471080D01*
X60196Y471205D01*
X60156Y471331D01*
X60120Y471459D01*
X60087Y471587D01*
X60058Y471716D01*
X60033Y471847D01*
X60012Y471977D01*
X59994Y472109D01*
X59981Y472241D01*
X59971Y472373D01*
X59965Y472505D01*
X59963Y472638D01*
X59964Y472638D02*
X59964Y484378D01*
X44333Y471734D02*
X44335Y471616D01*
X44341Y471498D01*
X44350Y471380D01*
X44364Y471263D01*
X44381Y471146D01*
X44402Y471029D01*
X44427Y470914D01*
X44456Y470799D01*
X44489Y470685D01*
X44525Y470573D01*
X44565Y470462D01*
X44608Y470352D01*
X44655Y470243D01*
X44705Y470136D01*
X44760Y470031D01*
X44817Y469928D01*
X44878Y469827D01*
X44942Y469727D01*
X45009Y469630D01*
X45079Y469535D01*
X45153Y469443D01*
X45229Y469352D01*
X45309Y469265D01*
X45391Y469180D01*
X45476Y469098D01*
X45563Y469018D01*
X45654Y468942D01*
X45746Y468868D01*
X45841Y468798D01*
X45938Y468731D01*
X46038Y468667D01*
X46139Y468606D01*
X46242Y468549D01*
X46347Y468494D01*
X46454Y468444D01*
X46563Y468397D01*
X46673Y468354D01*
X46784Y468314D01*
X46896Y468278D01*
X47010Y468245D01*
X47125Y468216D01*
X47240Y468191D01*
X47357Y468170D01*
X47474Y468153D01*
X47591Y468139D01*
X47709Y468130D01*
X47827Y468124D01*
X47945Y468122D01*
X48128Y468124D01*
X48310Y468131D01*
X48492Y468142D01*
X48674Y468157D01*
X48856Y468177D01*
X49037Y468201D01*
X49217Y468229D01*
X49397Y468261D01*
X49576Y468298D01*
X49753Y468339D01*
X49930Y468385D01*
X50106Y468434D01*
X50281Y468488D01*
X50454Y468546D01*
X50625Y468608D01*
X50796Y468674D01*
X50964Y468745D01*
X51131Y468819D01*
X51296Y468897D01*
X51459Y468979D01*
X51620Y469065D01*
X51779Y469155D01*
X51936Y469249D01*
X52090Y469346D01*
X52242Y469447D01*
X52392Y469552D01*
X52539Y469660D01*
X52683Y469771D01*
X52825Y469886D01*
X52964Y470005D01*
X53100Y470127D01*
X53233Y470252D01*
X53363Y470380D01*
X52912Y480766D02*
X52910Y480884D01*
X52904Y481002D01*
X52895Y481120D01*
X52881Y481237D01*
X52864Y481354D01*
X52843Y481471D01*
X52818Y481586D01*
X52789Y481701D01*
X52756Y481815D01*
X52720Y481927D01*
X52680Y482038D01*
X52637Y482148D01*
X52590Y482257D01*
X52540Y482364D01*
X52485Y482469D01*
X52428Y482572D01*
X52367Y482673D01*
X52303Y482773D01*
X52236Y482870D01*
X52166Y482965D01*
X52092Y483057D01*
X52016Y483148D01*
X51936Y483235D01*
X51854Y483320D01*
X51769Y483402D01*
X51682Y483482D01*
X51591Y483558D01*
X51499Y483632D01*
X51404Y483702D01*
X51307Y483769D01*
X51207Y483833D01*
X51106Y483894D01*
X51003Y483951D01*
X50898Y484006D01*
X50791Y484056D01*
X50682Y484103D01*
X50572Y484146D01*
X50461Y484186D01*
X50349Y484222D01*
X50235Y484255D01*
X50120Y484284D01*
X50005Y484309D01*
X49888Y484330D01*
X49771Y484347D01*
X49654Y484361D01*
X49536Y484370D01*
X49418Y484376D01*
X49300Y484378D01*
X49139Y484376D01*
X48977Y484370D01*
X48816Y484361D01*
X48655Y484347D01*
X48495Y484330D01*
X48335Y484309D01*
X48175Y484284D01*
X48016Y484255D01*
X47858Y484223D01*
X47701Y484187D01*
X47545Y484147D01*
X47389Y484103D01*
X47235Y484055D01*
X47082Y484004D01*
X46930Y483950D01*
X46779Y483891D01*
X46630Y483830D01*
X46483Y483764D01*
X46337Y483695D01*
X46192Y483623D01*
X46050Y483547D01*
X45909Y483468D01*
X45770Y483386D01*
X45634Y483300D01*
X45499Y483211D01*
X45366Y483119D01*
X45236Y483023D01*
X51106Y477605D02*
X51207Y477667D01*
X51307Y477732D01*
X51404Y477801D01*
X51499Y477873D01*
X51592Y477947D01*
X51682Y478025D01*
X51770Y478106D01*
X51855Y478189D01*
X51937Y478275D01*
X52016Y478364D01*
X52093Y478455D01*
X52166Y478549D01*
X52237Y478645D01*
X52304Y478743D01*
X52368Y478843D01*
X52429Y478946D01*
X52486Y479050D01*
X52540Y479156D01*
X52590Y479264D01*
X52637Y479373D01*
X52681Y479484D01*
X52721Y479596D01*
X52757Y479710D01*
X52789Y479824D01*
X52818Y479940D01*
X52843Y480056D01*
X52864Y480173D01*
X52881Y480291D01*
X52895Y480409D01*
X52904Y480528D01*
X52910Y480647D01*
X52912Y480766D01*
X46138Y474895D02*
X46037Y474833D01*
X45937Y474768D01*
X45840Y474699D01*
X45745Y474627D01*
X45652Y474553D01*
X45562Y474475D01*
X45474Y474394D01*
X45389Y474311D01*
X45307Y474225D01*
X45228Y474136D01*
X45151Y474045D01*
X45078Y473951D01*
X45007Y473855D01*
X44940Y473757D01*
X44876Y473657D01*
X44815Y473554D01*
X44758Y473450D01*
X44704Y473344D01*
X44654Y473236D01*
X44607Y473127D01*
X44563Y473016D01*
X44523Y472904D01*
X44487Y472790D01*
X44455Y472676D01*
X44426Y472560D01*
X44401Y472444D01*
X44380Y472327D01*
X44363Y472209D01*
X44349Y472091D01*
X44340Y471972D01*
X44334Y471853D01*
X44332Y471734D01*
X46139Y474895D02*
X51106Y477605D01*
X37521Y477153D02*
X33006Y477153D01*
X33006Y477154D02*
X32873Y477152D01*
X32741Y477146D01*
X32609Y477136D01*
X32477Y477123D01*
X32345Y477105D01*
X32215Y477084D01*
X32084Y477059D01*
X31955Y477030D01*
X31827Y476997D01*
X31699Y476961D01*
X31573Y476921D01*
X31448Y476877D01*
X31324Y476829D01*
X31202Y476778D01*
X31081Y476723D01*
X30962Y476665D01*
X30844Y476603D01*
X30729Y476538D01*
X30615Y476469D01*
X30504Y476398D01*
X30395Y476322D01*
X30288Y476244D01*
X30183Y476163D01*
X30081Y476078D01*
X29981Y475991D01*
X29884Y475901D01*
X29789Y475808D01*
X29698Y475712D01*
X29609Y475614D01*
X29523Y475513D01*
X29440Y475409D01*
X29360Y475303D01*
X29284Y475195D01*
X29210Y475085D01*
X29140Y474972D01*
X29073Y474858D01*
X29010Y474741D01*
X28950Y474623D01*
X28893Y474503D01*
X28840Y474381D01*
X28791Y474258D01*
X28745Y474134D01*
X28703Y474008D01*
X28665Y473881D01*
X28630Y473753D01*
X28599Y473624D01*
X28572Y473495D01*
X28549Y473364D01*
X28529Y473233D01*
X28514Y473101D01*
X28502Y472969D01*
X28494Y472837D01*
X28490Y472704D01*
X28490Y472572D01*
X28494Y472439D01*
X28502Y472307D01*
X28514Y472175D01*
X28529Y472043D01*
X28549Y471912D01*
X28572Y471781D01*
X28599Y471652D01*
X28630Y471523D01*
X28665Y471395D01*
X28703Y471268D01*
X28745Y471142D01*
X28791Y471018D01*
X28840Y470895D01*
X28893Y470773D01*
X28950Y470653D01*
X29010Y470535D01*
X29073Y470418D01*
X29140Y470304D01*
X29210Y470191D01*
X29284Y470081D01*
X29360Y469973D01*
X29440Y469867D01*
X29523Y469763D01*
X29609Y469662D01*
X29698Y469564D01*
X29789Y469468D01*
X29884Y469375D01*
X29981Y469285D01*
X30081Y469198D01*
X30183Y469113D01*
X30288Y469032D01*
X30395Y468954D01*
X30504Y468878D01*
X30615Y468807D01*
X30729Y468738D01*
X30844Y468673D01*
X30962Y468611D01*
X31081Y468553D01*
X31202Y468498D01*
X31324Y468447D01*
X31448Y468399D01*
X31573Y468355D01*
X31699Y468315D01*
X31827Y468279D01*
X31955Y468246D01*
X32084Y468217D01*
X32215Y468192D01*
X32345Y468171D01*
X32477Y468153D01*
X32609Y468140D01*
X32741Y468130D01*
X32873Y468124D01*
X33006Y468122D01*
X37521Y468122D01*
X37521Y484378D01*
X33006Y484378D01*
X32887Y484376D01*
X32767Y484370D01*
X32648Y484360D01*
X32530Y484346D01*
X32411Y484329D01*
X32294Y484307D01*
X32177Y484282D01*
X32062Y484252D01*
X31947Y484219D01*
X31833Y484182D01*
X31721Y484142D01*
X31610Y484097D01*
X31501Y484049D01*
X31393Y483998D01*
X31287Y483943D01*
X31183Y483884D01*
X31081Y483822D01*
X30981Y483757D01*
X30883Y483688D01*
X30787Y483616D01*
X30694Y483541D01*
X30604Y483464D01*
X30516Y483383D01*
X30431Y483299D01*
X30349Y483212D01*
X30269Y483123D01*
X30193Y483031D01*
X30119Y482937D01*
X30049Y482840D01*
X29982Y482742D01*
X29918Y482641D01*
X29858Y482537D01*
X29801Y482432D01*
X29748Y482325D01*
X29698Y482217D01*
X29652Y482107D01*
X29610Y481995D01*
X29571Y481882D01*
X29536Y481768D01*
X29505Y481653D01*
X29477Y481536D01*
X29454Y481419D01*
X29434Y481302D01*
X29418Y481183D01*
X29406Y481064D01*
X29398Y480945D01*
X29394Y480826D01*
X29394Y480706D01*
X29398Y480587D01*
X29406Y480468D01*
X29418Y480349D01*
X29434Y480230D01*
X29454Y480113D01*
X29477Y479996D01*
X29505Y479879D01*
X29536Y479764D01*
X29571Y479650D01*
X29610Y479537D01*
X29652Y479425D01*
X29698Y479315D01*
X29748Y479207D01*
X29801Y479100D01*
X29858Y478995D01*
X29918Y478891D01*
X29982Y478790D01*
X30049Y478692D01*
X30119Y478595D01*
X30193Y478501D01*
X30269Y478409D01*
X30349Y478320D01*
X30431Y478233D01*
X30516Y478149D01*
X30604Y478068D01*
X30694Y477991D01*
X30787Y477916D01*
X30883Y477844D01*
X30981Y477775D01*
X31081Y477710D01*
X31183Y477648D01*
X31287Y477589D01*
X31393Y477534D01*
X31501Y477483D01*
X31610Y477435D01*
X31721Y477390D01*
X31833Y477350D01*
X31947Y477313D01*
X32062Y477280D01*
X32177Y477250D01*
X32294Y477225D01*
X32411Y477203D01*
X32530Y477186D01*
X32648Y477172D01*
X32767Y477162D01*
X32887Y477156D01*
X33006Y477154D01*
X456438Y452289D02*
X456438Y436033D01*
X456438Y452289D02*
X451922Y452289D01*
X451818Y452287D01*
X451715Y452281D01*
X451611Y452271D01*
X451508Y452257D01*
X451406Y452239D01*
X451305Y452218D01*
X451204Y452192D01*
X451105Y452163D01*
X451006Y452130D01*
X450909Y452093D01*
X450814Y452052D01*
X450720Y452008D01*
X450628Y451960D01*
X450538Y451909D01*
X450449Y451854D01*
X450363Y451796D01*
X450280Y451734D01*
X450198Y451670D01*
X450120Y451602D01*
X450044Y451532D01*
X449970Y451459D01*
X449900Y451382D01*
X449832Y451304D01*
X449768Y451222D01*
X449706Y451139D01*
X449648Y451053D01*
X449593Y450964D01*
X449542Y450874D01*
X449494Y450782D01*
X449450Y450688D01*
X449409Y450593D01*
X449372Y450496D01*
X449339Y450397D01*
X449310Y450298D01*
X449284Y450197D01*
X449263Y450096D01*
X449245Y449994D01*
X449231Y449891D01*
X449221Y449787D01*
X449215Y449684D01*
X449213Y449580D01*
X449213Y444161D01*
X449215Y444060D01*
X449221Y443959D01*
X449230Y443858D01*
X449243Y443757D01*
X449260Y443657D01*
X449281Y443558D01*
X449305Y443460D01*
X449333Y443363D01*
X449365Y443266D01*
X449400Y443171D01*
X449439Y443078D01*
X449481Y442986D01*
X449527Y442895D01*
X449576Y442806D01*
X449628Y442720D01*
X449684Y442635D01*
X449742Y442552D01*
X449804Y442472D01*
X449869Y442394D01*
X449936Y442318D01*
X450006Y442245D01*
X450079Y442175D01*
X450155Y442108D01*
X450233Y442043D01*
X450313Y441981D01*
X450396Y441923D01*
X450481Y441867D01*
X450568Y441815D01*
X450656Y441766D01*
X450747Y441720D01*
X450839Y441678D01*
X450932Y441639D01*
X451027Y441604D01*
X451124Y441572D01*
X451221Y441544D01*
X451319Y441520D01*
X451418Y441499D01*
X451518Y441482D01*
X451619Y441469D01*
X451720Y441460D01*
X451821Y441454D01*
X451922Y441452D01*
X456438Y441452D01*
X442964Y445064D02*
X442964Y448677D01*
X442962Y448796D01*
X442956Y448916D01*
X442946Y449035D01*
X442932Y449153D01*
X442915Y449272D01*
X442893Y449389D01*
X442868Y449506D01*
X442838Y449621D01*
X442805Y449736D01*
X442768Y449850D01*
X442728Y449962D01*
X442683Y450073D01*
X442635Y450182D01*
X442584Y450290D01*
X442529Y450396D01*
X442470Y450500D01*
X442408Y450602D01*
X442343Y450702D01*
X442274Y450800D01*
X442202Y450896D01*
X442127Y450989D01*
X442050Y451079D01*
X441969Y451167D01*
X441885Y451252D01*
X441798Y451334D01*
X441709Y451414D01*
X441617Y451490D01*
X441523Y451564D01*
X441426Y451634D01*
X441328Y451701D01*
X441227Y451765D01*
X441123Y451825D01*
X441018Y451882D01*
X440911Y451935D01*
X440803Y451985D01*
X440693Y452031D01*
X440581Y452073D01*
X440468Y452112D01*
X440354Y452147D01*
X440239Y452178D01*
X440122Y452206D01*
X440005Y452229D01*
X439888Y452249D01*
X439769Y452265D01*
X439650Y452277D01*
X439531Y452285D01*
X439412Y452289D01*
X439292Y452289D01*
X439173Y452285D01*
X439054Y452277D01*
X438935Y452265D01*
X438816Y452249D01*
X438699Y452229D01*
X438582Y452206D01*
X438465Y452178D01*
X438350Y452147D01*
X438236Y452112D01*
X438123Y452073D01*
X438011Y452031D01*
X437901Y451985D01*
X437793Y451935D01*
X437686Y451882D01*
X437581Y451825D01*
X437477Y451765D01*
X437376Y451701D01*
X437278Y451634D01*
X437181Y451564D01*
X437087Y451490D01*
X436995Y451414D01*
X436906Y451334D01*
X436819Y451252D01*
X436735Y451167D01*
X436654Y451079D01*
X436577Y450989D01*
X436502Y450896D01*
X436430Y450800D01*
X436361Y450702D01*
X436296Y450602D01*
X436234Y450500D01*
X436175Y450396D01*
X436120Y450290D01*
X436069Y450182D01*
X436021Y450073D01*
X435976Y449962D01*
X435936Y449850D01*
X435899Y449736D01*
X435866Y449621D01*
X435836Y449506D01*
X435811Y449389D01*
X435789Y449272D01*
X435772Y449153D01*
X435758Y449035D01*
X435748Y448916D01*
X435742Y448796D01*
X435740Y448677D01*
X435739Y448677D02*
X435739Y445064D01*
X435740Y445064D02*
X435742Y444945D01*
X435748Y444825D01*
X435758Y444706D01*
X435772Y444588D01*
X435789Y444469D01*
X435811Y444352D01*
X435836Y444235D01*
X435866Y444120D01*
X435899Y444005D01*
X435936Y443891D01*
X435976Y443779D01*
X436021Y443668D01*
X436069Y443559D01*
X436120Y443451D01*
X436175Y443345D01*
X436234Y443241D01*
X436296Y443139D01*
X436361Y443039D01*
X436430Y442941D01*
X436502Y442845D01*
X436577Y442752D01*
X436654Y442662D01*
X436735Y442574D01*
X436819Y442489D01*
X436906Y442407D01*
X436995Y442327D01*
X437087Y442251D01*
X437181Y442177D01*
X437278Y442107D01*
X437376Y442040D01*
X437477Y441976D01*
X437581Y441916D01*
X437686Y441859D01*
X437793Y441806D01*
X437901Y441756D01*
X438011Y441710D01*
X438123Y441668D01*
X438236Y441629D01*
X438350Y441594D01*
X438465Y441563D01*
X438582Y441535D01*
X438699Y441512D01*
X438816Y441492D01*
X438935Y441476D01*
X439054Y441464D01*
X439173Y441456D01*
X439292Y441452D01*
X439412Y441452D01*
X439531Y441456D01*
X439650Y441464D01*
X439769Y441476D01*
X439888Y441492D01*
X440005Y441512D01*
X440122Y441535D01*
X440239Y441563D01*
X440354Y441594D01*
X440468Y441629D01*
X440581Y441668D01*
X440693Y441710D01*
X440803Y441756D01*
X440911Y441806D01*
X441018Y441859D01*
X441123Y441916D01*
X441227Y441976D01*
X441328Y442040D01*
X441426Y442107D01*
X441523Y442177D01*
X441617Y442251D01*
X441709Y442327D01*
X441798Y442407D01*
X441885Y442489D01*
X441969Y442574D01*
X442050Y442662D01*
X442127Y442752D01*
X442202Y442845D01*
X442274Y442941D01*
X442343Y443039D01*
X442408Y443139D01*
X442470Y443241D01*
X442529Y443345D01*
X442584Y443451D01*
X442635Y443559D01*
X442683Y443668D01*
X442728Y443779D01*
X442768Y443891D01*
X442805Y444005D01*
X442838Y444120D01*
X442868Y444235D01*
X442893Y444352D01*
X442915Y444469D01*
X442932Y444588D01*
X442946Y444706D01*
X442956Y444825D01*
X442962Y444945D01*
X442964Y445064D01*
X428811Y441452D02*
X428811Y452289D01*
X423393Y452289D01*
X423393Y450483D01*
X419773Y452289D02*
X414354Y452289D01*
X417966Y457708D02*
X417966Y444161D01*
X417964Y444060D01*
X417958Y443959D01*
X417949Y443858D01*
X417936Y443757D01*
X417919Y443657D01*
X417898Y443558D01*
X417874Y443460D01*
X417846Y443363D01*
X417814Y443266D01*
X417779Y443171D01*
X417740Y443078D01*
X417698Y442986D01*
X417652Y442895D01*
X417603Y442807D01*
X417551Y442720D01*
X417495Y442635D01*
X417437Y442552D01*
X417375Y442472D01*
X417310Y442394D01*
X417243Y442318D01*
X417173Y442245D01*
X417100Y442175D01*
X417024Y442108D01*
X416946Y442043D01*
X416866Y441981D01*
X416783Y441923D01*
X416698Y441867D01*
X416612Y441815D01*
X416523Y441766D01*
X416432Y441720D01*
X416340Y441678D01*
X416247Y441639D01*
X416152Y441604D01*
X416055Y441572D01*
X415958Y441544D01*
X415860Y441520D01*
X415761Y441499D01*
X415661Y441482D01*
X415560Y441469D01*
X415459Y441460D01*
X415358Y441454D01*
X415257Y441452D01*
X414354Y441452D01*
X409115Y441452D02*
X408212Y441452D01*
X409115Y441452D02*
X409115Y442355D01*
X408212Y442355D01*
X408212Y441452D01*
X409567Y437840D01*
X390899Y447774D02*
X386835Y447774D01*
X390899Y447774D02*
X391011Y447772D01*
X391122Y447766D01*
X391233Y447756D01*
X391344Y447743D01*
X391454Y447725D01*
X391563Y447703D01*
X391672Y447678D01*
X391780Y447649D01*
X391886Y447616D01*
X391992Y447579D01*
X392096Y447539D01*
X392198Y447495D01*
X392299Y447447D01*
X392398Y447396D01*
X392496Y447341D01*
X392591Y447283D01*
X392684Y447222D01*
X392775Y447157D01*
X392864Y447089D01*
X392950Y447018D01*
X393033Y446945D01*
X393114Y446868D01*
X393193Y446788D01*
X393268Y446706D01*
X393340Y446621D01*
X393410Y446534D01*
X393476Y446444D01*
X393539Y446352D01*
X393599Y446257D01*
X393655Y446161D01*
X393708Y446063D01*
X393757Y445963D01*
X393803Y445861D01*
X393845Y445758D01*
X393884Y445653D01*
X393919Y445547D01*
X393950Y445440D01*
X393977Y445332D01*
X394001Y445223D01*
X394020Y445113D01*
X394036Y445003D01*
X394048Y444892D01*
X394056Y444780D01*
X394060Y444669D01*
X394060Y444557D01*
X394056Y444446D01*
X394048Y444334D01*
X394036Y444223D01*
X394020Y444113D01*
X394001Y444003D01*
X393977Y443894D01*
X393950Y443786D01*
X393919Y443679D01*
X393884Y443573D01*
X393845Y443468D01*
X393803Y443365D01*
X393757Y443263D01*
X393708Y443163D01*
X393655Y443065D01*
X393599Y442969D01*
X393539Y442874D01*
X393476Y442782D01*
X393410Y442692D01*
X393340Y442605D01*
X393268Y442520D01*
X393193Y442438D01*
X393114Y442358D01*
X393033Y442281D01*
X392950Y442208D01*
X392864Y442137D01*
X392775Y442069D01*
X392684Y442004D01*
X392591Y441943D01*
X392496Y441885D01*
X392398Y441830D01*
X392299Y441779D01*
X392198Y441731D01*
X392096Y441687D01*
X391992Y441647D01*
X391886Y441610D01*
X391780Y441577D01*
X391672Y441548D01*
X391563Y441523D01*
X391454Y441501D01*
X391344Y441483D01*
X391233Y441470D01*
X391122Y441460D01*
X391011Y441454D01*
X390899Y441452D01*
X386835Y441452D01*
X386835Y449580D01*
X386837Y449681D01*
X386843Y449782D01*
X386852Y449883D01*
X386865Y449984D01*
X386882Y450084D01*
X386903Y450183D01*
X386927Y450281D01*
X386955Y450378D01*
X386987Y450475D01*
X387022Y450570D01*
X387061Y450663D01*
X387103Y450755D01*
X387149Y450846D01*
X387198Y450935D01*
X387250Y451021D01*
X387306Y451106D01*
X387364Y451189D01*
X387426Y451269D01*
X387491Y451347D01*
X387558Y451423D01*
X387628Y451496D01*
X387701Y451566D01*
X387777Y451633D01*
X387855Y451698D01*
X387935Y451760D01*
X388018Y451818D01*
X388103Y451874D01*
X388190Y451926D01*
X388278Y451975D01*
X388369Y452021D01*
X388461Y452063D01*
X388554Y452102D01*
X388649Y452137D01*
X388746Y452169D01*
X388843Y452197D01*
X388941Y452221D01*
X389040Y452242D01*
X389140Y452259D01*
X389241Y452272D01*
X389342Y452281D01*
X389443Y452287D01*
X389544Y452289D01*
X393157Y452289D01*
X379397Y452289D02*
X379397Y441452D01*
X379397Y452289D02*
X374882Y452289D01*
X374778Y452287D01*
X374675Y452281D01*
X374571Y452271D01*
X374468Y452257D01*
X374366Y452239D01*
X374265Y452218D01*
X374164Y452192D01*
X374065Y452163D01*
X373966Y452130D01*
X373869Y452093D01*
X373774Y452052D01*
X373680Y452008D01*
X373588Y451960D01*
X373498Y451909D01*
X373409Y451854D01*
X373323Y451796D01*
X373240Y451734D01*
X373158Y451670D01*
X373080Y451602D01*
X373004Y451532D01*
X372930Y451459D01*
X372860Y451382D01*
X372792Y451304D01*
X372728Y451222D01*
X372666Y451139D01*
X372608Y451053D01*
X372553Y450964D01*
X372502Y450874D01*
X372454Y450782D01*
X372410Y450688D01*
X372369Y450593D01*
X372332Y450496D01*
X372299Y450397D01*
X372270Y450298D01*
X372244Y450197D01*
X372223Y450096D01*
X372205Y449994D01*
X372191Y449891D01*
X372181Y449787D01*
X372175Y449684D01*
X372173Y449580D01*
X372172Y449580D02*
X372172Y441452D01*
X358178Y441452D02*
X358178Y457708D01*
X358178Y441452D02*
X362693Y441452D01*
X362794Y441454D01*
X362895Y441460D01*
X362996Y441469D01*
X363097Y441482D01*
X363197Y441499D01*
X363296Y441520D01*
X363394Y441544D01*
X363491Y441572D01*
X363588Y441604D01*
X363683Y441639D01*
X363776Y441678D01*
X363868Y441720D01*
X363959Y441766D01*
X364048Y441815D01*
X364134Y441867D01*
X364219Y441923D01*
X364302Y441981D01*
X364382Y442043D01*
X364460Y442108D01*
X364536Y442175D01*
X364609Y442245D01*
X364679Y442318D01*
X364746Y442394D01*
X364811Y442472D01*
X364873Y442552D01*
X364931Y442635D01*
X364987Y442720D01*
X365039Y442807D01*
X365088Y442895D01*
X365134Y442986D01*
X365176Y443078D01*
X365215Y443171D01*
X365250Y443266D01*
X365282Y443363D01*
X365310Y443460D01*
X365334Y443558D01*
X365355Y443657D01*
X365372Y443757D01*
X365385Y443858D01*
X365394Y443959D01*
X365400Y444060D01*
X365402Y444161D01*
X365403Y444161D02*
X365403Y449580D01*
X365402Y449580D02*
X365400Y449681D01*
X365394Y449782D01*
X365385Y449883D01*
X365372Y449984D01*
X365355Y450084D01*
X365334Y450183D01*
X365310Y450281D01*
X365282Y450378D01*
X365250Y450475D01*
X365215Y450570D01*
X365176Y450663D01*
X365134Y450755D01*
X365088Y450846D01*
X365039Y450935D01*
X364987Y451021D01*
X364931Y451106D01*
X364873Y451189D01*
X364811Y451269D01*
X364746Y451347D01*
X364679Y451423D01*
X364609Y451496D01*
X364536Y451566D01*
X364460Y451633D01*
X364382Y451698D01*
X364302Y451760D01*
X364219Y451818D01*
X364134Y451874D01*
X364048Y451926D01*
X363959Y451975D01*
X363868Y452021D01*
X363776Y452063D01*
X363683Y452102D01*
X363588Y452137D01*
X363491Y452169D01*
X363394Y452197D01*
X363296Y452221D01*
X363197Y452242D01*
X363097Y452259D01*
X362996Y452272D01*
X362895Y452281D01*
X362794Y452287D01*
X362693Y452289D01*
X358178Y452289D01*
X343168Y452289D02*
X340458Y441452D01*
X337749Y448677D01*
X335040Y441452D01*
X332330Y452289D01*
X323164Y447774D02*
X319100Y447774D01*
X323164Y447774D02*
X323276Y447772D01*
X323387Y447766D01*
X323498Y447756D01*
X323609Y447743D01*
X323719Y447725D01*
X323828Y447703D01*
X323937Y447678D01*
X324045Y447649D01*
X324151Y447616D01*
X324257Y447579D01*
X324361Y447539D01*
X324463Y447495D01*
X324564Y447447D01*
X324663Y447396D01*
X324761Y447341D01*
X324856Y447283D01*
X324949Y447222D01*
X325040Y447157D01*
X325129Y447089D01*
X325215Y447018D01*
X325298Y446945D01*
X325379Y446868D01*
X325458Y446788D01*
X325533Y446706D01*
X325605Y446621D01*
X325675Y446534D01*
X325741Y446444D01*
X325804Y446352D01*
X325864Y446257D01*
X325920Y446161D01*
X325973Y446063D01*
X326022Y445963D01*
X326068Y445861D01*
X326110Y445758D01*
X326149Y445653D01*
X326184Y445547D01*
X326215Y445440D01*
X326242Y445332D01*
X326266Y445223D01*
X326285Y445113D01*
X326301Y445003D01*
X326313Y444892D01*
X326321Y444780D01*
X326325Y444669D01*
X326325Y444557D01*
X326321Y444446D01*
X326313Y444334D01*
X326301Y444223D01*
X326285Y444113D01*
X326266Y444003D01*
X326242Y443894D01*
X326215Y443786D01*
X326184Y443679D01*
X326149Y443573D01*
X326110Y443468D01*
X326068Y443365D01*
X326022Y443263D01*
X325973Y443163D01*
X325920Y443065D01*
X325864Y442969D01*
X325804Y442874D01*
X325741Y442782D01*
X325675Y442692D01*
X325605Y442605D01*
X325533Y442520D01*
X325458Y442438D01*
X325379Y442358D01*
X325298Y442281D01*
X325215Y442208D01*
X325129Y442137D01*
X325040Y442069D01*
X324949Y442004D01*
X324856Y441943D01*
X324761Y441885D01*
X324663Y441830D01*
X324564Y441779D01*
X324463Y441731D01*
X324361Y441687D01*
X324257Y441647D01*
X324151Y441610D01*
X324045Y441577D01*
X323937Y441548D01*
X323828Y441523D01*
X323719Y441501D01*
X323609Y441483D01*
X323498Y441470D01*
X323387Y441460D01*
X323276Y441454D01*
X323164Y441452D01*
X319100Y441452D01*
X319100Y449580D01*
X319102Y449681D01*
X319108Y449782D01*
X319117Y449883D01*
X319130Y449984D01*
X319147Y450084D01*
X319168Y450183D01*
X319192Y450281D01*
X319220Y450378D01*
X319252Y450475D01*
X319287Y450570D01*
X319326Y450663D01*
X319368Y450755D01*
X319414Y450846D01*
X319463Y450935D01*
X319515Y451021D01*
X319571Y451106D01*
X319629Y451189D01*
X319691Y451269D01*
X319756Y451347D01*
X319823Y451423D01*
X319893Y451496D01*
X319966Y451566D01*
X320042Y451633D01*
X320120Y451698D01*
X320200Y451760D01*
X320283Y451818D01*
X320368Y451874D01*
X320455Y451926D01*
X320543Y451975D01*
X320634Y452021D01*
X320726Y452063D01*
X320819Y452102D01*
X320914Y452137D01*
X321011Y452169D01*
X321108Y452197D01*
X321206Y452221D01*
X321305Y452242D01*
X321405Y452259D01*
X321506Y452272D01*
X321607Y452281D01*
X321708Y452287D01*
X321809Y452289D01*
X325421Y452289D01*
X313480Y452289D02*
X308062Y452289D01*
X311674Y457708D02*
X311674Y444161D01*
X311672Y444060D01*
X311666Y443959D01*
X311657Y443858D01*
X311644Y443757D01*
X311627Y443657D01*
X311606Y443558D01*
X311582Y443460D01*
X311554Y443363D01*
X311522Y443266D01*
X311487Y443171D01*
X311448Y443078D01*
X311406Y442986D01*
X311360Y442895D01*
X311311Y442807D01*
X311259Y442720D01*
X311203Y442635D01*
X311145Y442552D01*
X311083Y442472D01*
X311018Y442394D01*
X310951Y442318D01*
X310881Y442245D01*
X310808Y442175D01*
X310732Y442108D01*
X310654Y442043D01*
X310574Y441981D01*
X310491Y441923D01*
X310406Y441867D01*
X310320Y441815D01*
X310231Y441766D01*
X310140Y441720D01*
X310048Y441678D01*
X309955Y441639D01*
X309860Y441604D01*
X309763Y441572D01*
X309666Y441544D01*
X309568Y441520D01*
X309469Y441499D01*
X309369Y441482D01*
X309268Y441469D01*
X309167Y441460D01*
X309066Y441454D01*
X308965Y441452D01*
X308062Y441452D01*
X299556Y441452D02*
X295944Y441452D01*
X299556Y441452D02*
X299657Y441454D01*
X299758Y441460D01*
X299859Y441469D01*
X299960Y441482D01*
X300060Y441499D01*
X300159Y441520D01*
X300257Y441544D01*
X300354Y441572D01*
X300451Y441604D01*
X300546Y441639D01*
X300639Y441678D01*
X300731Y441720D01*
X300822Y441766D01*
X300911Y441815D01*
X300997Y441867D01*
X301082Y441923D01*
X301165Y441981D01*
X301245Y442043D01*
X301323Y442108D01*
X301399Y442175D01*
X301472Y442245D01*
X301542Y442318D01*
X301609Y442394D01*
X301674Y442472D01*
X301736Y442552D01*
X301794Y442635D01*
X301850Y442720D01*
X301902Y442807D01*
X301951Y442895D01*
X301997Y442986D01*
X302039Y443078D01*
X302078Y443171D01*
X302113Y443266D01*
X302145Y443363D01*
X302173Y443460D01*
X302197Y443558D01*
X302218Y443657D01*
X302235Y443757D01*
X302248Y443858D01*
X302257Y443959D01*
X302263Y444060D01*
X302265Y444161D01*
X302266Y444161D02*
X302266Y449580D01*
X302265Y449580D02*
X302263Y449681D01*
X302257Y449782D01*
X302248Y449883D01*
X302235Y449984D01*
X302218Y450084D01*
X302197Y450183D01*
X302173Y450281D01*
X302145Y450378D01*
X302113Y450475D01*
X302078Y450570D01*
X302039Y450663D01*
X301997Y450755D01*
X301951Y450846D01*
X301902Y450935D01*
X301850Y451021D01*
X301794Y451106D01*
X301736Y451189D01*
X301674Y451269D01*
X301609Y451347D01*
X301542Y451423D01*
X301472Y451496D01*
X301399Y451566D01*
X301323Y451633D01*
X301245Y451698D01*
X301165Y451760D01*
X301082Y451818D01*
X300997Y451874D01*
X300911Y451926D01*
X300822Y451975D01*
X300731Y452021D01*
X300639Y452063D01*
X300546Y452102D01*
X300451Y452137D01*
X300354Y452169D01*
X300257Y452197D01*
X300159Y452221D01*
X300060Y452242D01*
X299960Y452259D01*
X299859Y452272D01*
X299758Y452281D01*
X299657Y452287D01*
X299556Y452289D01*
X295944Y452289D01*
X289778Y457708D02*
X289778Y441452D01*
X289778Y452289D02*
X285263Y452289D01*
X285159Y452287D01*
X285056Y452281D01*
X284952Y452271D01*
X284849Y452257D01*
X284747Y452239D01*
X284646Y452218D01*
X284545Y452192D01*
X284446Y452163D01*
X284347Y452130D01*
X284250Y452093D01*
X284155Y452052D01*
X284061Y452008D01*
X283969Y451960D01*
X283879Y451909D01*
X283790Y451854D01*
X283704Y451796D01*
X283621Y451734D01*
X283539Y451670D01*
X283461Y451602D01*
X283385Y451532D01*
X283311Y451459D01*
X283241Y451382D01*
X283173Y451304D01*
X283109Y451222D01*
X283047Y451139D01*
X282989Y451053D01*
X282934Y450964D01*
X282883Y450874D01*
X282835Y450782D01*
X282791Y450688D01*
X282750Y450593D01*
X282713Y450496D01*
X282680Y450397D01*
X282651Y450298D01*
X282625Y450197D01*
X282604Y450096D01*
X282586Y449994D01*
X282572Y449891D01*
X282562Y449787D01*
X282556Y449684D01*
X282554Y449580D01*
X282553Y449580D02*
X282553Y441452D01*
X268671Y452289D02*
X263252Y452289D01*
X266865Y457708D02*
X266865Y444161D01*
X266864Y444161D02*
X266862Y444060D01*
X266856Y443959D01*
X266847Y443858D01*
X266834Y443757D01*
X266817Y443657D01*
X266796Y443558D01*
X266772Y443460D01*
X266744Y443363D01*
X266712Y443266D01*
X266677Y443171D01*
X266638Y443078D01*
X266596Y442986D01*
X266550Y442895D01*
X266501Y442807D01*
X266449Y442720D01*
X266393Y442635D01*
X266335Y442552D01*
X266273Y442472D01*
X266208Y442394D01*
X266141Y442318D01*
X266071Y442245D01*
X265998Y442175D01*
X265922Y442108D01*
X265844Y442043D01*
X265764Y441981D01*
X265681Y441923D01*
X265596Y441867D01*
X265510Y441815D01*
X265421Y441766D01*
X265330Y441720D01*
X265238Y441678D01*
X265145Y441639D01*
X265050Y441604D01*
X264953Y441572D01*
X264856Y441544D01*
X264758Y441520D01*
X264659Y441499D01*
X264559Y441482D01*
X264458Y441469D01*
X264357Y441460D01*
X264256Y441454D01*
X264155Y441452D01*
X263252Y441452D01*
X256953Y441452D02*
X256953Y457708D01*
X256953Y452289D02*
X252437Y452289D01*
X252333Y452287D01*
X252230Y452281D01*
X252126Y452271D01*
X252023Y452257D01*
X251921Y452239D01*
X251820Y452218D01*
X251719Y452192D01*
X251620Y452163D01*
X251521Y452130D01*
X251424Y452093D01*
X251329Y452052D01*
X251235Y452008D01*
X251143Y451960D01*
X251053Y451909D01*
X250964Y451854D01*
X250878Y451796D01*
X250795Y451734D01*
X250713Y451670D01*
X250635Y451602D01*
X250559Y451532D01*
X250485Y451459D01*
X250415Y451382D01*
X250347Y451304D01*
X250283Y451222D01*
X250221Y451139D01*
X250163Y451053D01*
X250108Y450964D01*
X250057Y450874D01*
X250009Y450782D01*
X249965Y450688D01*
X249924Y450593D01*
X249887Y450496D01*
X249854Y450397D01*
X249825Y450298D01*
X249799Y450197D01*
X249778Y450096D01*
X249760Y449994D01*
X249746Y449891D01*
X249736Y449787D01*
X249730Y449684D01*
X249728Y449580D01*
X249728Y441452D01*
X240175Y441452D02*
X235660Y441452D01*
X240175Y441452D02*
X240276Y441454D01*
X240377Y441460D01*
X240478Y441469D01*
X240579Y441482D01*
X240679Y441499D01*
X240778Y441520D01*
X240876Y441544D01*
X240973Y441572D01*
X241070Y441604D01*
X241165Y441639D01*
X241258Y441678D01*
X241350Y441720D01*
X241441Y441766D01*
X241530Y441815D01*
X241616Y441867D01*
X241701Y441923D01*
X241784Y441981D01*
X241864Y442043D01*
X241942Y442108D01*
X242018Y442175D01*
X242091Y442245D01*
X242161Y442318D01*
X242228Y442394D01*
X242293Y442472D01*
X242355Y442552D01*
X242413Y442635D01*
X242469Y442720D01*
X242521Y442807D01*
X242570Y442895D01*
X242616Y442986D01*
X242658Y443078D01*
X242697Y443171D01*
X242732Y443266D01*
X242764Y443363D01*
X242792Y443460D01*
X242816Y443558D01*
X242837Y443657D01*
X242854Y443757D01*
X242867Y443858D01*
X242876Y443959D01*
X242882Y444060D01*
X242884Y444161D01*
X242885Y444161D02*
X242885Y448677D01*
X242884Y448677D02*
X242882Y448796D01*
X242876Y448916D01*
X242866Y449035D01*
X242852Y449153D01*
X242835Y449272D01*
X242813Y449389D01*
X242788Y449506D01*
X242758Y449621D01*
X242725Y449736D01*
X242688Y449850D01*
X242648Y449962D01*
X242603Y450073D01*
X242555Y450182D01*
X242504Y450290D01*
X242449Y450396D01*
X242390Y450500D01*
X242328Y450602D01*
X242263Y450702D01*
X242194Y450800D01*
X242122Y450896D01*
X242047Y450989D01*
X241970Y451079D01*
X241889Y451167D01*
X241805Y451252D01*
X241718Y451334D01*
X241629Y451414D01*
X241537Y451490D01*
X241443Y451564D01*
X241346Y451634D01*
X241248Y451701D01*
X241147Y451765D01*
X241043Y451825D01*
X240938Y451882D01*
X240831Y451935D01*
X240723Y451985D01*
X240613Y452031D01*
X240501Y452073D01*
X240388Y452112D01*
X240274Y452147D01*
X240159Y452178D01*
X240042Y452206D01*
X239925Y452229D01*
X239808Y452249D01*
X239689Y452265D01*
X239570Y452277D01*
X239451Y452285D01*
X239332Y452289D01*
X239212Y452289D01*
X239093Y452285D01*
X238974Y452277D01*
X238855Y452265D01*
X238736Y452249D01*
X238619Y452229D01*
X238502Y452206D01*
X238385Y452178D01*
X238270Y452147D01*
X238156Y452112D01*
X238043Y452073D01*
X237931Y452031D01*
X237821Y451985D01*
X237713Y451935D01*
X237606Y451882D01*
X237501Y451825D01*
X237397Y451765D01*
X237296Y451701D01*
X237198Y451634D01*
X237101Y451564D01*
X237007Y451490D01*
X236915Y451414D01*
X236826Y451334D01*
X236739Y451252D01*
X236655Y451167D01*
X236574Y451079D01*
X236497Y450989D01*
X236422Y450896D01*
X236350Y450800D01*
X236281Y450702D01*
X236216Y450602D01*
X236154Y450500D01*
X236095Y450396D01*
X236040Y450290D01*
X235989Y450182D01*
X235941Y450073D01*
X235896Y449962D01*
X235856Y449850D01*
X235819Y449736D01*
X235786Y449621D01*
X235756Y449506D01*
X235731Y449389D01*
X235709Y449272D01*
X235692Y449153D01*
X235678Y449035D01*
X235668Y448916D01*
X235662Y448796D01*
X235660Y448677D01*
X235660Y446871D01*
X242885Y446871D01*
X220311Y441452D02*
X220311Y457708D01*
X220311Y441452D02*
X213086Y441452D01*
X206764Y441452D02*
X199539Y441452D01*
X206764Y441452D02*
X206764Y457708D01*
X199539Y457708D01*
X201346Y450483D02*
X206764Y450483D01*
X193247Y457708D02*
X193247Y441452D01*
X193247Y457708D02*
X188731Y457708D01*
X188600Y457706D01*
X188468Y457700D01*
X188337Y457691D01*
X188207Y457677D01*
X188076Y457660D01*
X187947Y457639D01*
X187818Y457615D01*
X187690Y457586D01*
X187562Y457554D01*
X187436Y457518D01*
X187311Y457479D01*
X187186Y457436D01*
X187064Y457389D01*
X186942Y457339D01*
X186822Y457285D01*
X186704Y457228D01*
X186588Y457167D01*
X186473Y457103D01*
X186360Y457036D01*
X186249Y456965D01*
X186141Y456891D01*
X186034Y456814D01*
X185930Y456734D01*
X185828Y456651D01*
X185729Y456566D01*
X185632Y456477D01*
X185538Y456385D01*
X185446Y456291D01*
X185357Y456194D01*
X185272Y456095D01*
X185189Y455993D01*
X185109Y455889D01*
X185032Y455782D01*
X184958Y455674D01*
X184887Y455563D01*
X184820Y455450D01*
X184756Y455335D01*
X184695Y455219D01*
X184638Y455101D01*
X184584Y454981D01*
X184534Y454859D01*
X184487Y454737D01*
X184444Y454612D01*
X184405Y454487D01*
X184369Y454361D01*
X184337Y454233D01*
X184308Y454105D01*
X184284Y453976D01*
X184263Y453847D01*
X184246Y453716D01*
X184232Y453586D01*
X184223Y453455D01*
X184217Y453323D01*
X184215Y453192D01*
X184216Y453192D02*
X184216Y445968D01*
X184215Y445968D02*
X184217Y445837D01*
X184223Y445705D01*
X184232Y445574D01*
X184246Y445444D01*
X184263Y445313D01*
X184284Y445184D01*
X184308Y445055D01*
X184337Y444927D01*
X184369Y444799D01*
X184405Y444673D01*
X184444Y444548D01*
X184487Y444423D01*
X184534Y444301D01*
X184584Y444179D01*
X184638Y444059D01*
X184695Y443941D01*
X184756Y443825D01*
X184820Y443710D01*
X184887Y443597D01*
X184958Y443486D01*
X185032Y443378D01*
X185109Y443271D01*
X185189Y443167D01*
X185272Y443065D01*
X185357Y442966D01*
X185446Y442869D01*
X185538Y442775D01*
X185632Y442683D01*
X185729Y442594D01*
X185828Y442509D01*
X185930Y442426D01*
X186034Y442346D01*
X186141Y442269D01*
X186249Y442195D01*
X186360Y442124D01*
X186473Y442057D01*
X186588Y441993D01*
X186704Y441932D01*
X186822Y441875D01*
X186942Y441821D01*
X187064Y441771D01*
X187186Y441724D01*
X187311Y441681D01*
X187436Y441642D01*
X187562Y441606D01*
X187690Y441574D01*
X187818Y441545D01*
X187947Y441521D01*
X188076Y441500D01*
X188207Y441483D01*
X188337Y441469D01*
X188468Y441460D01*
X188600Y441454D01*
X188731Y441452D01*
X193247Y441452D01*
X161745Y441452D02*
X161745Y457708D01*
X161745Y441452D02*
X166261Y441452D01*
X166362Y441454D01*
X166463Y441460D01*
X166564Y441469D01*
X166665Y441482D01*
X166765Y441499D01*
X166864Y441520D01*
X166962Y441544D01*
X167059Y441572D01*
X167156Y441604D01*
X167251Y441639D01*
X167344Y441678D01*
X167436Y441720D01*
X167527Y441766D01*
X167616Y441815D01*
X167702Y441867D01*
X167787Y441923D01*
X167870Y441981D01*
X167950Y442043D01*
X168028Y442108D01*
X168104Y442175D01*
X168177Y442245D01*
X168247Y442318D01*
X168314Y442394D01*
X168379Y442472D01*
X168441Y442552D01*
X168499Y442635D01*
X168555Y442720D01*
X168607Y442807D01*
X168656Y442895D01*
X168702Y442986D01*
X168744Y443078D01*
X168783Y443171D01*
X168818Y443266D01*
X168850Y443363D01*
X168878Y443460D01*
X168902Y443558D01*
X168923Y443657D01*
X168940Y443757D01*
X168953Y443858D01*
X168962Y443959D01*
X168968Y444060D01*
X168970Y444161D01*
X168970Y449580D01*
X168968Y449681D01*
X168962Y449782D01*
X168953Y449883D01*
X168940Y449984D01*
X168923Y450084D01*
X168902Y450183D01*
X168878Y450281D01*
X168850Y450378D01*
X168818Y450475D01*
X168783Y450570D01*
X168744Y450663D01*
X168702Y450755D01*
X168656Y450846D01*
X168607Y450935D01*
X168555Y451021D01*
X168499Y451106D01*
X168441Y451189D01*
X168379Y451269D01*
X168314Y451347D01*
X168247Y451423D01*
X168177Y451496D01*
X168104Y451566D01*
X168028Y451633D01*
X167950Y451698D01*
X167870Y451760D01*
X167787Y451818D01*
X167702Y451874D01*
X167616Y451926D01*
X167527Y451975D01*
X167436Y452021D01*
X167344Y452063D01*
X167251Y452102D01*
X167156Y452137D01*
X167059Y452169D01*
X166962Y452197D01*
X166864Y452221D01*
X166765Y452242D01*
X166665Y452259D01*
X166564Y452272D01*
X166463Y452281D01*
X166362Y452287D01*
X166261Y452289D01*
X161745Y452289D01*
X154864Y452289D02*
X154864Y441452D01*
X155315Y456805D02*
X155315Y457708D01*
X154412Y457708D01*
X154412Y456805D01*
X155315Y456805D01*
X147222Y447774D02*
X142706Y445968D01*
X147222Y447774D02*
X147310Y447811D01*
X147396Y447852D01*
X147481Y447896D01*
X147564Y447944D01*
X147644Y447995D01*
X147723Y448049D01*
X147799Y448107D01*
X147873Y448167D01*
X147945Y448231D01*
X148013Y448297D01*
X148079Y448367D01*
X148142Y448438D01*
X148203Y448513D01*
X148260Y448589D01*
X148313Y448668D01*
X148364Y448749D01*
X148411Y448832D01*
X148455Y448917D01*
X148495Y449004D01*
X148532Y449092D01*
X148565Y449182D01*
X148595Y449273D01*
X148620Y449365D01*
X148642Y449458D01*
X148660Y449552D01*
X148675Y449646D01*
X148685Y449741D01*
X148691Y449837D01*
X148694Y449932D01*
X148693Y450028D01*
X148687Y450123D01*
X148678Y450219D01*
X148665Y450313D01*
X148649Y450407D01*
X148628Y450501D01*
X148603Y450593D01*
X148575Y450684D01*
X148543Y450774D01*
X148508Y450863D01*
X148469Y450950D01*
X148426Y451036D01*
X148380Y451120D01*
X148330Y451201D01*
X148278Y451281D01*
X148222Y451359D01*
X148162Y451434D01*
X148100Y451506D01*
X148035Y451576D01*
X147967Y451644D01*
X147897Y451708D01*
X147824Y451770D01*
X147748Y451828D01*
X147670Y451884D01*
X147590Y451936D01*
X147508Y451985D01*
X147424Y452030D01*
X147338Y452072D01*
X147251Y452111D01*
X147162Y452146D01*
X147071Y452177D01*
X146980Y452204D01*
X146887Y452228D01*
X146794Y452248D01*
X146700Y452264D01*
X146605Y452276D01*
X146510Y452285D01*
X146414Y452289D01*
X146319Y452290D01*
X146072Y452283D01*
X145826Y452271D01*
X145580Y452253D01*
X145334Y452228D01*
X145090Y452198D01*
X144846Y452162D01*
X144603Y452121D01*
X144361Y452073D01*
X144120Y452019D01*
X143881Y451960D01*
X143643Y451895D01*
X143407Y451824D01*
X143172Y451748D01*
X142939Y451666D01*
X142709Y451578D01*
X142481Y451485D01*
X142254Y451387D01*
X142706Y445967D02*
X142618Y445930D01*
X142532Y445889D01*
X142447Y445845D01*
X142364Y445797D01*
X142284Y445746D01*
X142205Y445692D01*
X142129Y445634D01*
X142055Y445574D01*
X141983Y445510D01*
X141915Y445444D01*
X141849Y445374D01*
X141786Y445303D01*
X141725Y445228D01*
X141668Y445152D01*
X141615Y445073D01*
X141564Y444992D01*
X141517Y444909D01*
X141473Y444824D01*
X141433Y444737D01*
X141396Y444649D01*
X141363Y444559D01*
X141333Y444468D01*
X141308Y444376D01*
X141286Y444283D01*
X141268Y444189D01*
X141253Y444095D01*
X141243Y444000D01*
X141237Y443904D01*
X141234Y443809D01*
X141235Y443713D01*
X141241Y443618D01*
X141250Y443522D01*
X141263Y443428D01*
X141279Y443334D01*
X141300Y443240D01*
X141325Y443148D01*
X141353Y443057D01*
X141385Y442967D01*
X141420Y442878D01*
X141459Y442791D01*
X141502Y442705D01*
X141548Y442621D01*
X141598Y442540D01*
X141650Y442460D01*
X141706Y442382D01*
X141766Y442307D01*
X141828Y442235D01*
X141893Y442165D01*
X141961Y442097D01*
X142031Y442033D01*
X142104Y441971D01*
X142180Y441913D01*
X142258Y441857D01*
X142338Y441805D01*
X142420Y441756D01*
X142504Y441711D01*
X142590Y441669D01*
X142677Y441630D01*
X142766Y441595D01*
X142857Y441564D01*
X142948Y441537D01*
X143041Y441513D01*
X143134Y441493D01*
X143228Y441477D01*
X143323Y441465D01*
X143418Y441456D01*
X143514Y441452D01*
X143609Y441451D01*
X143610Y441452D02*
X143972Y441461D01*
X144334Y441479D01*
X144695Y441506D01*
X145055Y441541D01*
X145415Y441584D01*
X145774Y441636D01*
X146131Y441697D01*
X146486Y441766D01*
X146840Y441843D01*
X147192Y441929D01*
X147542Y442023D01*
X147890Y442126D01*
X148235Y442236D01*
X148577Y442355D01*
X134435Y436033D02*
X134435Y452289D01*
X129920Y452289D01*
X129816Y452287D01*
X129713Y452281D01*
X129609Y452271D01*
X129506Y452257D01*
X129404Y452239D01*
X129303Y452218D01*
X129202Y452192D01*
X129103Y452163D01*
X129004Y452130D01*
X128907Y452093D01*
X128812Y452052D01*
X128718Y452008D01*
X128626Y451960D01*
X128536Y451909D01*
X128447Y451854D01*
X128361Y451796D01*
X128278Y451734D01*
X128196Y451670D01*
X128118Y451602D01*
X128042Y451532D01*
X127968Y451459D01*
X127898Y451382D01*
X127830Y451304D01*
X127766Y451222D01*
X127704Y451139D01*
X127646Y451053D01*
X127591Y450964D01*
X127540Y450874D01*
X127492Y450782D01*
X127448Y450688D01*
X127407Y450593D01*
X127370Y450496D01*
X127337Y450397D01*
X127308Y450298D01*
X127282Y450197D01*
X127261Y450096D01*
X127243Y449994D01*
X127229Y449891D01*
X127219Y449787D01*
X127213Y449684D01*
X127211Y449580D01*
X127210Y449580D02*
X127210Y444161D01*
X127212Y444060D01*
X127218Y443959D01*
X127227Y443858D01*
X127240Y443757D01*
X127257Y443657D01*
X127278Y443558D01*
X127302Y443460D01*
X127330Y443363D01*
X127362Y443266D01*
X127397Y443171D01*
X127436Y443078D01*
X127478Y442986D01*
X127524Y442895D01*
X127573Y442806D01*
X127625Y442720D01*
X127681Y442635D01*
X127739Y442552D01*
X127801Y442472D01*
X127866Y442394D01*
X127933Y442318D01*
X128003Y442245D01*
X128076Y442175D01*
X128152Y442108D01*
X128230Y442043D01*
X128310Y441981D01*
X128393Y441923D01*
X128478Y441867D01*
X128565Y441815D01*
X128653Y441766D01*
X128744Y441720D01*
X128836Y441678D01*
X128929Y441639D01*
X129024Y441604D01*
X129121Y441572D01*
X129218Y441544D01*
X129316Y441520D01*
X129415Y441499D01*
X129515Y441482D01*
X129616Y441469D01*
X129717Y441460D01*
X129818Y441454D01*
X129919Y441452D01*
X129920Y441452D02*
X134435Y441452D01*
X120724Y444161D02*
X120724Y457708D01*
X120724Y444161D02*
X120722Y444060D01*
X120716Y443959D01*
X120707Y443858D01*
X120694Y443757D01*
X120677Y443657D01*
X120656Y443558D01*
X120632Y443460D01*
X120604Y443363D01*
X120572Y443266D01*
X120537Y443171D01*
X120498Y443078D01*
X120456Y442986D01*
X120410Y442895D01*
X120361Y442807D01*
X120309Y442720D01*
X120253Y442635D01*
X120195Y442552D01*
X120133Y442472D01*
X120068Y442394D01*
X120001Y442318D01*
X119931Y442245D01*
X119858Y442175D01*
X119782Y442108D01*
X119704Y442043D01*
X119624Y441981D01*
X119541Y441923D01*
X119456Y441867D01*
X119369Y441815D01*
X119281Y441766D01*
X119190Y441720D01*
X119098Y441678D01*
X119005Y441639D01*
X118910Y441604D01*
X118813Y441572D01*
X118716Y441544D01*
X118618Y441520D01*
X118519Y441499D01*
X118419Y441482D01*
X118318Y441469D01*
X118217Y441460D01*
X118116Y441454D01*
X118015Y441452D01*
X109537Y447774D02*
X105473Y447774D01*
X109537Y447774D02*
X109649Y447772D01*
X109760Y447766D01*
X109871Y447756D01*
X109982Y447743D01*
X110092Y447725D01*
X110201Y447703D01*
X110310Y447678D01*
X110418Y447649D01*
X110524Y447616D01*
X110630Y447579D01*
X110734Y447539D01*
X110836Y447495D01*
X110937Y447447D01*
X111036Y447396D01*
X111134Y447341D01*
X111229Y447283D01*
X111322Y447222D01*
X111413Y447157D01*
X111502Y447089D01*
X111588Y447018D01*
X111671Y446945D01*
X111752Y446868D01*
X111831Y446788D01*
X111906Y446706D01*
X111978Y446621D01*
X112048Y446534D01*
X112114Y446444D01*
X112177Y446352D01*
X112237Y446257D01*
X112293Y446161D01*
X112346Y446063D01*
X112395Y445963D01*
X112441Y445861D01*
X112483Y445758D01*
X112522Y445653D01*
X112557Y445547D01*
X112588Y445440D01*
X112615Y445332D01*
X112639Y445223D01*
X112658Y445113D01*
X112674Y445003D01*
X112686Y444892D01*
X112694Y444780D01*
X112698Y444669D01*
X112698Y444557D01*
X112694Y444446D01*
X112686Y444334D01*
X112674Y444223D01*
X112658Y444113D01*
X112639Y444003D01*
X112615Y443894D01*
X112588Y443786D01*
X112557Y443679D01*
X112522Y443573D01*
X112483Y443468D01*
X112441Y443365D01*
X112395Y443263D01*
X112346Y443163D01*
X112293Y443065D01*
X112237Y442969D01*
X112177Y442874D01*
X112114Y442782D01*
X112048Y442692D01*
X111978Y442605D01*
X111906Y442520D01*
X111831Y442438D01*
X111752Y442358D01*
X111671Y442281D01*
X111588Y442208D01*
X111502Y442137D01*
X111413Y442069D01*
X111322Y442004D01*
X111229Y441943D01*
X111134Y441885D01*
X111036Y441830D01*
X110937Y441779D01*
X110836Y441731D01*
X110734Y441687D01*
X110630Y441647D01*
X110524Y441610D01*
X110418Y441577D01*
X110310Y441548D01*
X110201Y441523D01*
X110092Y441501D01*
X109982Y441483D01*
X109871Y441470D01*
X109760Y441460D01*
X109649Y441454D01*
X109537Y441452D01*
X105473Y441452D01*
X105473Y449580D01*
X105475Y449681D01*
X105481Y449782D01*
X105490Y449883D01*
X105503Y449984D01*
X105520Y450084D01*
X105541Y450183D01*
X105565Y450281D01*
X105593Y450378D01*
X105625Y450475D01*
X105660Y450570D01*
X105699Y450663D01*
X105741Y450755D01*
X105787Y450846D01*
X105836Y450935D01*
X105888Y451021D01*
X105944Y451106D01*
X106002Y451189D01*
X106064Y451269D01*
X106129Y451347D01*
X106196Y451423D01*
X106266Y451496D01*
X106339Y451566D01*
X106415Y451633D01*
X106493Y451698D01*
X106573Y451760D01*
X106656Y451818D01*
X106741Y451874D01*
X106828Y451926D01*
X106916Y451975D01*
X107007Y452021D01*
X107099Y452063D01*
X107192Y452102D01*
X107287Y452137D01*
X107384Y452169D01*
X107481Y452197D01*
X107579Y452221D01*
X107678Y452242D01*
X107778Y452259D01*
X107879Y452272D01*
X107980Y452281D01*
X108081Y452287D01*
X108182Y452289D01*
X111795Y452289D01*
X99078Y436033D02*
X97271Y436033D01*
X91853Y452289D01*
X99078Y452289D02*
X95465Y441452D01*
X86538Y441452D02*
X86538Y442355D01*
X85635Y442355D01*
X85635Y441452D01*
X86538Y441452D01*
X456438Y431038D02*
X456438Y414782D01*
X456438Y431038D02*
X451922Y431038D01*
X451789Y431036D01*
X451657Y431030D01*
X451525Y431020D01*
X451393Y431007D01*
X451261Y430989D01*
X451131Y430968D01*
X451000Y430943D01*
X450871Y430914D01*
X450743Y430881D01*
X450615Y430845D01*
X450489Y430805D01*
X450364Y430761D01*
X450240Y430713D01*
X450118Y430662D01*
X449997Y430607D01*
X449878Y430549D01*
X449760Y430487D01*
X449645Y430422D01*
X449531Y430353D01*
X449420Y430282D01*
X449311Y430206D01*
X449204Y430128D01*
X449099Y430047D01*
X448997Y429962D01*
X448897Y429875D01*
X448800Y429785D01*
X448705Y429692D01*
X448614Y429596D01*
X448525Y429498D01*
X448439Y429397D01*
X448356Y429293D01*
X448276Y429187D01*
X448200Y429079D01*
X448126Y428969D01*
X448056Y428856D01*
X447989Y428742D01*
X447926Y428625D01*
X447866Y428507D01*
X447809Y428387D01*
X447756Y428265D01*
X447707Y428142D01*
X447661Y428018D01*
X447619Y427892D01*
X447581Y427765D01*
X447546Y427637D01*
X447515Y427508D01*
X447488Y427379D01*
X447465Y427248D01*
X447445Y427117D01*
X447430Y426985D01*
X447418Y426853D01*
X447410Y426721D01*
X447406Y426588D01*
X447406Y426456D01*
X447410Y426323D01*
X447418Y426191D01*
X447430Y426059D01*
X447445Y425927D01*
X447465Y425796D01*
X447488Y425665D01*
X447515Y425536D01*
X447546Y425407D01*
X447581Y425279D01*
X447619Y425152D01*
X447661Y425026D01*
X447707Y424902D01*
X447756Y424779D01*
X447809Y424657D01*
X447866Y424537D01*
X447926Y424419D01*
X447989Y424302D01*
X448056Y424188D01*
X448126Y424075D01*
X448200Y423965D01*
X448276Y423857D01*
X448356Y423751D01*
X448439Y423647D01*
X448525Y423546D01*
X448614Y423448D01*
X448705Y423352D01*
X448800Y423259D01*
X448897Y423169D01*
X448997Y423082D01*
X449099Y422997D01*
X449204Y422916D01*
X449311Y422838D01*
X449420Y422762D01*
X449531Y422691D01*
X449645Y422622D01*
X449760Y422557D01*
X449878Y422495D01*
X449997Y422437D01*
X450118Y422382D01*
X450240Y422331D01*
X450364Y422283D01*
X450489Y422239D01*
X450615Y422199D01*
X450743Y422163D01*
X450871Y422130D01*
X451000Y422101D01*
X451131Y422076D01*
X451261Y422055D01*
X451393Y422037D01*
X451525Y422024D01*
X451657Y422014D01*
X451789Y422008D01*
X451922Y422006D01*
X451922Y422007D02*
X456438Y422007D01*
X441072Y425619D02*
X441072Y414782D01*
X441072Y425619D02*
X435653Y425619D01*
X435653Y423813D01*
X430736Y422007D02*
X430736Y418394D01*
X430735Y422007D02*
X430733Y422126D01*
X430727Y422246D01*
X430717Y422365D01*
X430703Y422483D01*
X430686Y422602D01*
X430664Y422719D01*
X430639Y422836D01*
X430609Y422951D01*
X430576Y423066D01*
X430539Y423180D01*
X430499Y423292D01*
X430454Y423403D01*
X430406Y423512D01*
X430355Y423620D01*
X430300Y423726D01*
X430241Y423830D01*
X430179Y423932D01*
X430114Y424032D01*
X430045Y424130D01*
X429973Y424226D01*
X429898Y424319D01*
X429821Y424409D01*
X429740Y424497D01*
X429656Y424582D01*
X429569Y424664D01*
X429480Y424744D01*
X429388Y424820D01*
X429294Y424894D01*
X429197Y424964D01*
X429099Y425031D01*
X428998Y425095D01*
X428894Y425155D01*
X428789Y425212D01*
X428682Y425265D01*
X428574Y425315D01*
X428464Y425361D01*
X428352Y425403D01*
X428239Y425442D01*
X428125Y425477D01*
X428010Y425508D01*
X427893Y425536D01*
X427776Y425559D01*
X427659Y425579D01*
X427540Y425595D01*
X427421Y425607D01*
X427302Y425615D01*
X427183Y425619D01*
X427063Y425619D01*
X426944Y425615D01*
X426825Y425607D01*
X426706Y425595D01*
X426587Y425579D01*
X426470Y425559D01*
X426353Y425536D01*
X426236Y425508D01*
X426121Y425477D01*
X426007Y425442D01*
X425894Y425403D01*
X425782Y425361D01*
X425672Y425315D01*
X425564Y425265D01*
X425457Y425212D01*
X425352Y425155D01*
X425248Y425095D01*
X425147Y425031D01*
X425049Y424964D01*
X424952Y424894D01*
X424858Y424820D01*
X424766Y424744D01*
X424677Y424664D01*
X424590Y424582D01*
X424506Y424497D01*
X424425Y424409D01*
X424348Y424319D01*
X424273Y424226D01*
X424201Y424130D01*
X424132Y424032D01*
X424067Y423932D01*
X424005Y423830D01*
X423946Y423726D01*
X423891Y423620D01*
X423840Y423512D01*
X423792Y423403D01*
X423747Y423292D01*
X423707Y423180D01*
X423670Y423066D01*
X423637Y422951D01*
X423607Y422836D01*
X423582Y422719D01*
X423560Y422602D01*
X423543Y422483D01*
X423529Y422365D01*
X423519Y422246D01*
X423513Y422126D01*
X423511Y422007D01*
X423511Y418394D01*
X423513Y418275D01*
X423519Y418155D01*
X423529Y418036D01*
X423543Y417918D01*
X423560Y417799D01*
X423582Y417682D01*
X423607Y417565D01*
X423637Y417450D01*
X423670Y417335D01*
X423707Y417221D01*
X423747Y417109D01*
X423792Y416998D01*
X423840Y416889D01*
X423891Y416781D01*
X423946Y416675D01*
X424005Y416571D01*
X424067Y416469D01*
X424132Y416369D01*
X424201Y416271D01*
X424273Y416175D01*
X424348Y416082D01*
X424425Y415992D01*
X424506Y415904D01*
X424590Y415819D01*
X424677Y415737D01*
X424766Y415657D01*
X424858Y415581D01*
X424952Y415507D01*
X425049Y415437D01*
X425147Y415370D01*
X425248Y415306D01*
X425352Y415246D01*
X425457Y415189D01*
X425564Y415136D01*
X425672Y415086D01*
X425782Y415040D01*
X425894Y414998D01*
X426007Y414959D01*
X426121Y414924D01*
X426236Y414893D01*
X426353Y414865D01*
X426470Y414842D01*
X426587Y414822D01*
X426706Y414806D01*
X426825Y414794D01*
X426944Y414786D01*
X427063Y414782D01*
X427183Y414782D01*
X427302Y414786D01*
X427421Y414794D01*
X427540Y414806D01*
X427659Y414822D01*
X427776Y414842D01*
X427893Y414865D01*
X428010Y414893D01*
X428125Y414924D01*
X428239Y414959D01*
X428352Y414998D01*
X428464Y415040D01*
X428574Y415086D01*
X428682Y415136D01*
X428789Y415189D01*
X428894Y415246D01*
X428998Y415306D01*
X429099Y415370D01*
X429197Y415437D01*
X429294Y415507D01*
X429388Y415581D01*
X429480Y415657D01*
X429569Y415737D01*
X429656Y415819D01*
X429740Y415904D01*
X429821Y415992D01*
X429898Y416082D01*
X429973Y416175D01*
X430045Y416271D01*
X430114Y416369D01*
X430179Y416469D01*
X430241Y416571D01*
X430300Y416675D01*
X430355Y416781D01*
X430406Y416889D01*
X430454Y416998D01*
X430499Y417109D01*
X430539Y417221D01*
X430576Y417335D01*
X430609Y417450D01*
X430639Y417565D01*
X430664Y417682D01*
X430686Y417799D01*
X430703Y417918D01*
X430717Y418036D01*
X430727Y418155D01*
X430733Y418275D01*
X430735Y418394D01*
X417467Y412073D02*
X417467Y425619D01*
X417467Y412073D02*
X417469Y411972D01*
X417475Y411871D01*
X417484Y411770D01*
X417497Y411669D01*
X417514Y411569D01*
X417535Y411470D01*
X417559Y411372D01*
X417587Y411275D01*
X417619Y411178D01*
X417654Y411083D01*
X417693Y410990D01*
X417735Y410898D01*
X417781Y410807D01*
X417830Y410719D01*
X417882Y410632D01*
X417938Y410547D01*
X417996Y410464D01*
X418058Y410384D01*
X418123Y410306D01*
X418190Y410230D01*
X418260Y410157D01*
X418333Y410087D01*
X418409Y410020D01*
X418487Y409955D01*
X418567Y409893D01*
X418650Y409835D01*
X418735Y409779D01*
X418822Y409727D01*
X418910Y409678D01*
X419001Y409632D01*
X419093Y409590D01*
X419186Y409551D01*
X419281Y409516D01*
X419378Y409484D01*
X419475Y409456D01*
X419573Y409432D01*
X419672Y409411D01*
X419772Y409394D01*
X419873Y409381D01*
X419974Y409372D01*
X420075Y409366D01*
X420176Y409364D01*
X420176Y409363D02*
X421079Y409363D01*
X417918Y430135D02*
X417918Y431038D01*
X417015Y431038D01*
X417015Y430135D01*
X417918Y430135D01*
X408227Y414782D02*
X403711Y414782D01*
X408227Y414782D02*
X408328Y414784D01*
X408429Y414790D01*
X408530Y414799D01*
X408631Y414812D01*
X408731Y414829D01*
X408830Y414850D01*
X408928Y414874D01*
X409025Y414902D01*
X409122Y414934D01*
X409217Y414969D01*
X409310Y415008D01*
X409402Y415050D01*
X409493Y415096D01*
X409582Y415145D01*
X409668Y415197D01*
X409753Y415253D01*
X409836Y415311D01*
X409916Y415373D01*
X409994Y415438D01*
X410070Y415505D01*
X410143Y415575D01*
X410213Y415648D01*
X410280Y415724D01*
X410345Y415802D01*
X410407Y415882D01*
X410465Y415965D01*
X410521Y416050D01*
X410573Y416137D01*
X410622Y416225D01*
X410668Y416316D01*
X410710Y416408D01*
X410749Y416501D01*
X410784Y416596D01*
X410816Y416693D01*
X410844Y416790D01*
X410868Y416888D01*
X410889Y416987D01*
X410906Y417087D01*
X410919Y417188D01*
X410928Y417289D01*
X410934Y417390D01*
X410936Y417491D01*
X410936Y422007D01*
X410934Y422126D01*
X410928Y422246D01*
X410918Y422365D01*
X410904Y422483D01*
X410887Y422602D01*
X410865Y422719D01*
X410840Y422836D01*
X410810Y422951D01*
X410777Y423066D01*
X410740Y423180D01*
X410700Y423292D01*
X410655Y423403D01*
X410607Y423512D01*
X410556Y423620D01*
X410501Y423726D01*
X410442Y423830D01*
X410380Y423932D01*
X410315Y424032D01*
X410246Y424130D01*
X410174Y424226D01*
X410099Y424319D01*
X410022Y424409D01*
X409941Y424497D01*
X409857Y424582D01*
X409770Y424664D01*
X409681Y424744D01*
X409589Y424820D01*
X409495Y424894D01*
X409398Y424964D01*
X409300Y425031D01*
X409199Y425095D01*
X409095Y425155D01*
X408990Y425212D01*
X408883Y425265D01*
X408775Y425315D01*
X408665Y425361D01*
X408553Y425403D01*
X408440Y425442D01*
X408326Y425477D01*
X408211Y425508D01*
X408094Y425536D01*
X407977Y425559D01*
X407860Y425579D01*
X407741Y425595D01*
X407622Y425607D01*
X407503Y425615D01*
X407384Y425619D01*
X407264Y425619D01*
X407145Y425615D01*
X407026Y425607D01*
X406907Y425595D01*
X406788Y425579D01*
X406671Y425559D01*
X406554Y425536D01*
X406437Y425508D01*
X406322Y425477D01*
X406208Y425442D01*
X406095Y425403D01*
X405983Y425361D01*
X405873Y425315D01*
X405765Y425265D01*
X405658Y425212D01*
X405553Y425155D01*
X405449Y425095D01*
X405348Y425031D01*
X405250Y424964D01*
X405153Y424894D01*
X405059Y424820D01*
X404967Y424744D01*
X404878Y424664D01*
X404791Y424582D01*
X404707Y424497D01*
X404626Y424409D01*
X404549Y424319D01*
X404474Y424226D01*
X404402Y424130D01*
X404333Y424032D01*
X404268Y423932D01*
X404206Y423830D01*
X404147Y423726D01*
X404092Y423620D01*
X404041Y423512D01*
X403993Y423403D01*
X403948Y423292D01*
X403908Y423180D01*
X403871Y423066D01*
X403838Y422951D01*
X403808Y422836D01*
X403783Y422719D01*
X403761Y422602D01*
X403744Y422483D01*
X403730Y422365D01*
X403720Y422246D01*
X403714Y422126D01*
X403712Y422007D01*
X403711Y422007D02*
X403711Y420201D01*
X410936Y420201D01*
X394662Y414782D02*
X391050Y414782D01*
X394662Y414782D02*
X394763Y414784D01*
X394864Y414790D01*
X394965Y414799D01*
X395066Y414812D01*
X395166Y414829D01*
X395265Y414850D01*
X395363Y414874D01*
X395460Y414902D01*
X395557Y414934D01*
X395652Y414969D01*
X395745Y415008D01*
X395837Y415050D01*
X395928Y415096D01*
X396017Y415145D01*
X396103Y415197D01*
X396188Y415253D01*
X396271Y415311D01*
X396351Y415373D01*
X396429Y415438D01*
X396505Y415505D01*
X396578Y415575D01*
X396648Y415648D01*
X396715Y415724D01*
X396780Y415802D01*
X396842Y415882D01*
X396900Y415965D01*
X396956Y416050D01*
X397008Y416137D01*
X397057Y416225D01*
X397103Y416316D01*
X397145Y416408D01*
X397184Y416501D01*
X397219Y416596D01*
X397251Y416693D01*
X397279Y416790D01*
X397303Y416888D01*
X397324Y416987D01*
X397341Y417087D01*
X397354Y417188D01*
X397363Y417289D01*
X397369Y417390D01*
X397371Y417491D01*
X397372Y417491D02*
X397372Y422910D01*
X397371Y422910D02*
X397369Y423011D01*
X397363Y423112D01*
X397354Y423213D01*
X397341Y423314D01*
X397324Y423414D01*
X397303Y423513D01*
X397279Y423611D01*
X397251Y423708D01*
X397219Y423805D01*
X397184Y423900D01*
X397145Y423993D01*
X397103Y424085D01*
X397057Y424176D01*
X397008Y424265D01*
X396956Y424351D01*
X396900Y424436D01*
X396842Y424519D01*
X396780Y424599D01*
X396715Y424677D01*
X396648Y424753D01*
X396578Y424826D01*
X396505Y424896D01*
X396429Y424963D01*
X396351Y425028D01*
X396271Y425090D01*
X396188Y425148D01*
X396103Y425204D01*
X396017Y425256D01*
X395928Y425305D01*
X395837Y425351D01*
X395745Y425393D01*
X395652Y425432D01*
X395557Y425467D01*
X395460Y425499D01*
X395363Y425527D01*
X395265Y425551D01*
X395166Y425572D01*
X395066Y425589D01*
X394965Y425602D01*
X394864Y425611D01*
X394763Y425617D01*
X394662Y425619D01*
X391050Y425619D01*
X386703Y425619D02*
X381284Y425619D01*
X384896Y431038D02*
X384896Y417491D01*
X384894Y417390D01*
X384888Y417289D01*
X384879Y417188D01*
X384866Y417087D01*
X384849Y416987D01*
X384828Y416888D01*
X384804Y416790D01*
X384776Y416693D01*
X384744Y416596D01*
X384709Y416501D01*
X384670Y416408D01*
X384628Y416316D01*
X384582Y416225D01*
X384533Y416137D01*
X384481Y416050D01*
X384425Y415965D01*
X384367Y415882D01*
X384305Y415802D01*
X384240Y415724D01*
X384173Y415648D01*
X384103Y415575D01*
X384030Y415505D01*
X383954Y415438D01*
X383876Y415373D01*
X383796Y415311D01*
X383713Y415253D01*
X383628Y415197D01*
X383542Y415145D01*
X383453Y415096D01*
X383362Y415050D01*
X383270Y415008D01*
X383177Y414969D01*
X383082Y414934D01*
X382985Y414902D01*
X382888Y414874D01*
X382790Y414850D01*
X382691Y414829D01*
X382591Y414812D01*
X382490Y414799D01*
X382389Y414790D01*
X382288Y414784D01*
X382187Y414782D01*
X381284Y414782D01*
X360017Y414782D02*
X360017Y431038D01*
X360017Y414782D02*
X364533Y414782D01*
X364634Y414784D01*
X364735Y414790D01*
X364836Y414799D01*
X364937Y414812D01*
X365037Y414829D01*
X365136Y414850D01*
X365234Y414874D01*
X365331Y414902D01*
X365428Y414934D01*
X365523Y414969D01*
X365616Y415008D01*
X365708Y415050D01*
X365799Y415096D01*
X365888Y415145D01*
X365974Y415197D01*
X366059Y415253D01*
X366142Y415311D01*
X366222Y415373D01*
X366300Y415438D01*
X366376Y415505D01*
X366449Y415575D01*
X366519Y415648D01*
X366586Y415724D01*
X366651Y415802D01*
X366713Y415882D01*
X366771Y415965D01*
X366827Y416050D01*
X366879Y416137D01*
X366928Y416225D01*
X366974Y416316D01*
X367016Y416408D01*
X367055Y416501D01*
X367090Y416596D01*
X367122Y416693D01*
X367150Y416790D01*
X367174Y416888D01*
X367195Y416987D01*
X367212Y417087D01*
X367225Y417188D01*
X367234Y417289D01*
X367240Y417390D01*
X367242Y417491D01*
X367242Y422910D01*
X367240Y423011D01*
X367234Y423112D01*
X367225Y423213D01*
X367212Y423314D01*
X367195Y423414D01*
X367174Y423513D01*
X367150Y423611D01*
X367122Y423708D01*
X367090Y423805D01*
X367055Y423900D01*
X367016Y423993D01*
X366974Y424085D01*
X366928Y424176D01*
X366879Y424265D01*
X366827Y424351D01*
X366771Y424436D01*
X366713Y424519D01*
X366651Y424599D01*
X366586Y424677D01*
X366519Y424753D01*
X366449Y424826D01*
X366376Y424896D01*
X366300Y424963D01*
X366222Y425028D01*
X366142Y425090D01*
X366059Y425148D01*
X365974Y425204D01*
X365888Y425256D01*
X365799Y425305D01*
X365708Y425351D01*
X365616Y425393D01*
X365523Y425432D01*
X365428Y425467D01*
X365331Y425499D01*
X365234Y425527D01*
X365136Y425551D01*
X365037Y425572D01*
X364937Y425589D01*
X364836Y425602D01*
X364735Y425611D01*
X364634Y425617D01*
X364533Y425619D01*
X360017Y425619D01*
X350392Y414782D02*
X345876Y414782D01*
X350392Y414782D02*
X350493Y414784D01*
X350594Y414790D01*
X350695Y414799D01*
X350796Y414812D01*
X350896Y414829D01*
X350995Y414850D01*
X351093Y414874D01*
X351190Y414902D01*
X351287Y414934D01*
X351382Y414969D01*
X351475Y415008D01*
X351567Y415050D01*
X351658Y415096D01*
X351747Y415145D01*
X351833Y415197D01*
X351918Y415253D01*
X352001Y415311D01*
X352081Y415373D01*
X352159Y415438D01*
X352235Y415505D01*
X352308Y415575D01*
X352378Y415648D01*
X352445Y415724D01*
X352510Y415802D01*
X352572Y415882D01*
X352630Y415965D01*
X352686Y416050D01*
X352738Y416137D01*
X352787Y416225D01*
X352833Y416316D01*
X352875Y416408D01*
X352914Y416501D01*
X352949Y416596D01*
X352981Y416693D01*
X353009Y416790D01*
X353033Y416888D01*
X353054Y416987D01*
X353071Y417087D01*
X353084Y417188D01*
X353093Y417289D01*
X353099Y417390D01*
X353101Y417491D01*
X353101Y422007D01*
X353100Y422007D02*
X353098Y422126D01*
X353092Y422246D01*
X353082Y422365D01*
X353068Y422483D01*
X353051Y422602D01*
X353029Y422719D01*
X353004Y422836D01*
X352974Y422951D01*
X352941Y423066D01*
X352904Y423180D01*
X352864Y423292D01*
X352819Y423403D01*
X352771Y423512D01*
X352720Y423620D01*
X352665Y423726D01*
X352606Y423830D01*
X352544Y423932D01*
X352479Y424032D01*
X352410Y424130D01*
X352338Y424226D01*
X352263Y424319D01*
X352186Y424409D01*
X352105Y424497D01*
X352021Y424582D01*
X351934Y424664D01*
X351845Y424744D01*
X351753Y424820D01*
X351659Y424894D01*
X351562Y424964D01*
X351464Y425031D01*
X351363Y425095D01*
X351259Y425155D01*
X351154Y425212D01*
X351047Y425265D01*
X350939Y425315D01*
X350829Y425361D01*
X350717Y425403D01*
X350604Y425442D01*
X350490Y425477D01*
X350375Y425508D01*
X350258Y425536D01*
X350141Y425559D01*
X350024Y425579D01*
X349905Y425595D01*
X349786Y425607D01*
X349667Y425615D01*
X349548Y425619D01*
X349428Y425619D01*
X349309Y425615D01*
X349190Y425607D01*
X349071Y425595D01*
X348952Y425579D01*
X348835Y425559D01*
X348718Y425536D01*
X348601Y425508D01*
X348486Y425477D01*
X348372Y425442D01*
X348259Y425403D01*
X348147Y425361D01*
X348037Y425315D01*
X347929Y425265D01*
X347822Y425212D01*
X347717Y425155D01*
X347613Y425095D01*
X347512Y425031D01*
X347414Y424964D01*
X347317Y424894D01*
X347223Y424820D01*
X347131Y424744D01*
X347042Y424664D01*
X346955Y424582D01*
X346871Y424497D01*
X346790Y424409D01*
X346713Y424319D01*
X346638Y424226D01*
X346566Y424130D01*
X346497Y424032D01*
X346432Y423932D01*
X346370Y423830D01*
X346311Y423726D01*
X346256Y423620D01*
X346205Y423512D01*
X346157Y423403D01*
X346112Y423292D01*
X346072Y423180D01*
X346035Y423066D01*
X346002Y422951D01*
X345972Y422836D01*
X345947Y422719D01*
X345925Y422602D01*
X345908Y422483D01*
X345894Y422365D01*
X345884Y422246D01*
X345878Y422126D01*
X345876Y422007D01*
X345876Y420201D01*
X353101Y420201D01*
X340851Y425619D02*
X335432Y425619D01*
X339045Y431038D02*
X339045Y417491D01*
X339043Y417390D01*
X339037Y417289D01*
X339028Y417188D01*
X339015Y417087D01*
X338998Y416987D01*
X338977Y416888D01*
X338953Y416790D01*
X338925Y416693D01*
X338893Y416596D01*
X338858Y416501D01*
X338819Y416408D01*
X338777Y416316D01*
X338731Y416225D01*
X338682Y416137D01*
X338630Y416050D01*
X338574Y415965D01*
X338516Y415882D01*
X338454Y415802D01*
X338389Y415724D01*
X338322Y415648D01*
X338252Y415575D01*
X338179Y415505D01*
X338103Y415438D01*
X338025Y415373D01*
X337945Y415311D01*
X337862Y415253D01*
X337777Y415197D01*
X337691Y415145D01*
X337602Y415096D01*
X337511Y415050D01*
X337419Y415008D01*
X337326Y414969D01*
X337231Y414934D01*
X337134Y414902D01*
X337037Y414874D01*
X336939Y414850D01*
X336840Y414829D01*
X336740Y414812D01*
X336639Y414799D01*
X336538Y414790D01*
X336437Y414784D01*
X336336Y414782D01*
X335432Y414782D01*
X326566Y421104D02*
X322502Y421104D01*
X326566Y421104D02*
X326678Y421102D01*
X326789Y421096D01*
X326900Y421086D01*
X327011Y421073D01*
X327121Y421055D01*
X327230Y421033D01*
X327339Y421008D01*
X327447Y420979D01*
X327553Y420946D01*
X327659Y420909D01*
X327763Y420869D01*
X327865Y420825D01*
X327966Y420777D01*
X328065Y420726D01*
X328163Y420671D01*
X328258Y420613D01*
X328351Y420552D01*
X328442Y420487D01*
X328531Y420419D01*
X328617Y420348D01*
X328700Y420275D01*
X328781Y420198D01*
X328860Y420118D01*
X328935Y420036D01*
X329007Y419951D01*
X329077Y419864D01*
X329143Y419774D01*
X329206Y419682D01*
X329266Y419587D01*
X329322Y419491D01*
X329375Y419393D01*
X329424Y419293D01*
X329470Y419191D01*
X329512Y419088D01*
X329551Y418983D01*
X329586Y418877D01*
X329617Y418770D01*
X329644Y418662D01*
X329668Y418553D01*
X329687Y418443D01*
X329703Y418333D01*
X329715Y418222D01*
X329723Y418110D01*
X329727Y417999D01*
X329727Y417887D01*
X329723Y417776D01*
X329715Y417664D01*
X329703Y417553D01*
X329687Y417443D01*
X329668Y417333D01*
X329644Y417224D01*
X329617Y417116D01*
X329586Y417009D01*
X329551Y416903D01*
X329512Y416798D01*
X329470Y416695D01*
X329424Y416593D01*
X329375Y416493D01*
X329322Y416395D01*
X329266Y416299D01*
X329206Y416204D01*
X329143Y416112D01*
X329077Y416022D01*
X329007Y415935D01*
X328935Y415850D01*
X328860Y415768D01*
X328781Y415688D01*
X328700Y415611D01*
X328617Y415538D01*
X328531Y415467D01*
X328442Y415399D01*
X328351Y415334D01*
X328258Y415273D01*
X328163Y415215D01*
X328065Y415160D01*
X327966Y415109D01*
X327865Y415061D01*
X327763Y415017D01*
X327659Y414977D01*
X327553Y414940D01*
X327447Y414907D01*
X327339Y414878D01*
X327230Y414853D01*
X327121Y414831D01*
X327011Y414813D01*
X326900Y414800D01*
X326789Y414790D01*
X326678Y414784D01*
X326566Y414782D01*
X322502Y414782D01*
X322502Y422910D01*
X322503Y422910D02*
X322505Y423011D01*
X322511Y423112D01*
X322520Y423213D01*
X322533Y423314D01*
X322550Y423414D01*
X322571Y423513D01*
X322595Y423611D01*
X322623Y423708D01*
X322655Y423805D01*
X322690Y423900D01*
X322729Y423993D01*
X322771Y424085D01*
X322817Y424176D01*
X322866Y424265D01*
X322918Y424351D01*
X322974Y424436D01*
X323032Y424519D01*
X323094Y424599D01*
X323159Y424677D01*
X323226Y424753D01*
X323296Y424826D01*
X323369Y424896D01*
X323445Y424963D01*
X323523Y425028D01*
X323603Y425090D01*
X323686Y425148D01*
X323771Y425204D01*
X323858Y425256D01*
X323946Y425305D01*
X324037Y425351D01*
X324129Y425393D01*
X324222Y425432D01*
X324317Y425467D01*
X324414Y425499D01*
X324511Y425527D01*
X324609Y425551D01*
X324708Y425572D01*
X324808Y425589D01*
X324909Y425602D01*
X325010Y425611D01*
X325111Y425617D01*
X325212Y425619D01*
X328824Y425619D01*
X315621Y425619D02*
X315621Y414782D01*
X316072Y430135D02*
X316072Y431038D01*
X315169Y431038D01*
X315169Y430135D01*
X316072Y430135D01*
X309097Y431038D02*
X309097Y417491D01*
X309096Y417491D02*
X309094Y417390D01*
X309088Y417289D01*
X309079Y417188D01*
X309066Y417087D01*
X309049Y416987D01*
X309028Y416888D01*
X309004Y416790D01*
X308976Y416693D01*
X308944Y416596D01*
X308909Y416501D01*
X308870Y416408D01*
X308828Y416316D01*
X308782Y416225D01*
X308733Y416137D01*
X308681Y416050D01*
X308625Y415965D01*
X308567Y415882D01*
X308505Y415802D01*
X308440Y415724D01*
X308373Y415648D01*
X308303Y415575D01*
X308230Y415505D01*
X308154Y415438D01*
X308076Y415373D01*
X307996Y415311D01*
X307913Y415253D01*
X307828Y415197D01*
X307742Y415145D01*
X307653Y415096D01*
X307562Y415050D01*
X307470Y415008D01*
X307377Y414969D01*
X307282Y414934D01*
X307185Y414902D01*
X307088Y414874D01*
X306990Y414850D01*
X306891Y414829D01*
X306791Y414812D01*
X306690Y414799D01*
X306589Y414790D01*
X306488Y414784D01*
X306387Y414782D01*
X299642Y421104D02*
X295127Y419298D01*
X299643Y421104D02*
X299731Y421141D01*
X299817Y421182D01*
X299902Y421226D01*
X299985Y421274D01*
X300065Y421325D01*
X300144Y421379D01*
X300220Y421437D01*
X300294Y421497D01*
X300366Y421561D01*
X300434Y421627D01*
X300500Y421697D01*
X300563Y421768D01*
X300624Y421843D01*
X300681Y421919D01*
X300734Y421998D01*
X300785Y422079D01*
X300832Y422162D01*
X300876Y422247D01*
X300916Y422334D01*
X300953Y422422D01*
X300986Y422512D01*
X301016Y422603D01*
X301041Y422695D01*
X301063Y422788D01*
X301081Y422882D01*
X301096Y422976D01*
X301106Y423071D01*
X301112Y423167D01*
X301115Y423262D01*
X301114Y423358D01*
X301108Y423453D01*
X301099Y423549D01*
X301086Y423643D01*
X301070Y423737D01*
X301049Y423831D01*
X301024Y423923D01*
X300996Y424014D01*
X300964Y424104D01*
X300929Y424193D01*
X300890Y424280D01*
X300847Y424366D01*
X300801Y424450D01*
X300751Y424531D01*
X300699Y424611D01*
X300643Y424689D01*
X300583Y424764D01*
X300521Y424836D01*
X300456Y424906D01*
X300388Y424974D01*
X300318Y425038D01*
X300245Y425100D01*
X300169Y425158D01*
X300091Y425214D01*
X300011Y425266D01*
X299929Y425315D01*
X299845Y425360D01*
X299759Y425402D01*
X299672Y425441D01*
X299583Y425476D01*
X299492Y425507D01*
X299401Y425534D01*
X299308Y425558D01*
X299215Y425578D01*
X299121Y425594D01*
X299026Y425606D01*
X298931Y425615D01*
X298835Y425619D01*
X298740Y425620D01*
X298493Y425613D01*
X298247Y425601D01*
X298001Y425583D01*
X297755Y425558D01*
X297511Y425528D01*
X297267Y425492D01*
X297024Y425451D01*
X296782Y425403D01*
X296541Y425349D01*
X296302Y425290D01*
X296064Y425225D01*
X295828Y425154D01*
X295593Y425078D01*
X295360Y424996D01*
X295130Y424908D01*
X294902Y424815D01*
X294675Y424717D01*
X295126Y419297D02*
X295038Y419260D01*
X294952Y419219D01*
X294867Y419175D01*
X294784Y419127D01*
X294704Y419076D01*
X294625Y419022D01*
X294549Y418964D01*
X294475Y418904D01*
X294403Y418840D01*
X294335Y418774D01*
X294269Y418704D01*
X294206Y418633D01*
X294145Y418558D01*
X294088Y418482D01*
X294035Y418403D01*
X293984Y418322D01*
X293937Y418239D01*
X293893Y418154D01*
X293853Y418067D01*
X293816Y417979D01*
X293783Y417889D01*
X293753Y417798D01*
X293728Y417706D01*
X293706Y417613D01*
X293688Y417519D01*
X293673Y417425D01*
X293663Y417330D01*
X293657Y417234D01*
X293654Y417139D01*
X293655Y417043D01*
X293661Y416948D01*
X293670Y416852D01*
X293683Y416758D01*
X293699Y416664D01*
X293720Y416570D01*
X293745Y416478D01*
X293773Y416387D01*
X293805Y416297D01*
X293840Y416208D01*
X293879Y416121D01*
X293922Y416035D01*
X293968Y415951D01*
X294018Y415870D01*
X294070Y415790D01*
X294126Y415712D01*
X294186Y415637D01*
X294248Y415565D01*
X294313Y415495D01*
X294381Y415427D01*
X294451Y415363D01*
X294524Y415301D01*
X294600Y415243D01*
X294678Y415187D01*
X294758Y415135D01*
X294840Y415086D01*
X294924Y415041D01*
X295010Y414999D01*
X295097Y414960D01*
X295186Y414925D01*
X295277Y414894D01*
X295368Y414867D01*
X295461Y414843D01*
X295554Y414823D01*
X295648Y414807D01*
X295743Y414795D01*
X295838Y414786D01*
X295934Y414782D01*
X296029Y414781D01*
X296030Y414782D02*
X296392Y414791D01*
X296754Y414809D01*
X297115Y414836D01*
X297475Y414871D01*
X297835Y414914D01*
X298194Y414966D01*
X298551Y415027D01*
X298906Y415096D01*
X299260Y415173D01*
X299612Y415259D01*
X299962Y415353D01*
X300310Y415456D01*
X300655Y415566D01*
X300997Y415685D01*
X276386Y414782D02*
X272774Y414782D01*
X276386Y414782D02*
X276487Y414784D01*
X276588Y414790D01*
X276689Y414799D01*
X276790Y414812D01*
X276890Y414829D01*
X276989Y414850D01*
X277087Y414874D01*
X277184Y414902D01*
X277281Y414934D01*
X277376Y414969D01*
X277469Y415008D01*
X277561Y415050D01*
X277652Y415096D01*
X277741Y415145D01*
X277827Y415197D01*
X277912Y415253D01*
X277995Y415311D01*
X278075Y415373D01*
X278153Y415438D01*
X278229Y415505D01*
X278302Y415575D01*
X278372Y415648D01*
X278439Y415724D01*
X278504Y415802D01*
X278566Y415882D01*
X278624Y415965D01*
X278680Y416050D01*
X278732Y416137D01*
X278781Y416225D01*
X278827Y416316D01*
X278869Y416408D01*
X278908Y416501D01*
X278943Y416596D01*
X278975Y416693D01*
X279003Y416790D01*
X279027Y416888D01*
X279048Y416987D01*
X279065Y417087D01*
X279078Y417188D01*
X279087Y417289D01*
X279093Y417390D01*
X279095Y417491D01*
X279096Y417491D02*
X279096Y422910D01*
X279095Y422910D02*
X279093Y423011D01*
X279087Y423112D01*
X279078Y423213D01*
X279065Y423314D01*
X279048Y423414D01*
X279027Y423513D01*
X279003Y423611D01*
X278975Y423708D01*
X278943Y423805D01*
X278908Y423900D01*
X278869Y423993D01*
X278827Y424085D01*
X278781Y424176D01*
X278732Y424265D01*
X278680Y424351D01*
X278624Y424436D01*
X278566Y424519D01*
X278504Y424599D01*
X278439Y424677D01*
X278372Y424753D01*
X278302Y424826D01*
X278229Y424896D01*
X278153Y424963D01*
X278075Y425028D01*
X277995Y425090D01*
X277912Y425148D01*
X277827Y425204D01*
X277741Y425256D01*
X277652Y425305D01*
X277561Y425351D01*
X277469Y425393D01*
X277376Y425432D01*
X277281Y425467D01*
X277184Y425499D01*
X277087Y425527D01*
X276989Y425551D01*
X276890Y425572D01*
X276790Y425589D01*
X276689Y425602D01*
X276588Y425611D01*
X276487Y425617D01*
X276386Y425619D01*
X272774Y425619D01*
X264042Y421104D02*
X259978Y421104D01*
X264042Y421104D02*
X264154Y421102D01*
X264265Y421096D01*
X264376Y421086D01*
X264487Y421073D01*
X264597Y421055D01*
X264706Y421033D01*
X264815Y421008D01*
X264923Y420979D01*
X265029Y420946D01*
X265135Y420909D01*
X265239Y420869D01*
X265341Y420825D01*
X265442Y420777D01*
X265541Y420726D01*
X265639Y420671D01*
X265734Y420613D01*
X265827Y420552D01*
X265918Y420487D01*
X266007Y420419D01*
X266093Y420348D01*
X266176Y420275D01*
X266257Y420198D01*
X266336Y420118D01*
X266411Y420036D01*
X266483Y419951D01*
X266553Y419864D01*
X266619Y419774D01*
X266682Y419682D01*
X266742Y419587D01*
X266798Y419491D01*
X266851Y419393D01*
X266900Y419293D01*
X266946Y419191D01*
X266988Y419088D01*
X267027Y418983D01*
X267062Y418877D01*
X267093Y418770D01*
X267120Y418662D01*
X267144Y418553D01*
X267163Y418443D01*
X267179Y418333D01*
X267191Y418222D01*
X267199Y418110D01*
X267203Y417999D01*
X267203Y417887D01*
X267199Y417776D01*
X267191Y417664D01*
X267179Y417553D01*
X267163Y417443D01*
X267144Y417333D01*
X267120Y417224D01*
X267093Y417116D01*
X267062Y417009D01*
X267027Y416903D01*
X266988Y416798D01*
X266946Y416695D01*
X266900Y416593D01*
X266851Y416493D01*
X266798Y416395D01*
X266742Y416299D01*
X266682Y416204D01*
X266619Y416112D01*
X266553Y416022D01*
X266483Y415935D01*
X266411Y415850D01*
X266336Y415768D01*
X266257Y415688D01*
X266176Y415611D01*
X266093Y415538D01*
X266007Y415467D01*
X265918Y415399D01*
X265827Y415334D01*
X265734Y415273D01*
X265639Y415215D01*
X265541Y415160D01*
X265442Y415109D01*
X265341Y415061D01*
X265239Y415017D01*
X265135Y414977D01*
X265029Y414940D01*
X264923Y414907D01*
X264815Y414878D01*
X264706Y414853D01*
X264597Y414831D01*
X264487Y414813D01*
X264376Y414800D01*
X264265Y414790D01*
X264154Y414784D01*
X264042Y414782D01*
X259978Y414782D01*
X259978Y422910D01*
X259980Y423011D01*
X259986Y423112D01*
X259995Y423213D01*
X260008Y423314D01*
X260025Y423414D01*
X260046Y423513D01*
X260070Y423611D01*
X260098Y423708D01*
X260130Y423805D01*
X260165Y423900D01*
X260204Y423993D01*
X260246Y424085D01*
X260292Y424176D01*
X260341Y424265D01*
X260393Y424351D01*
X260449Y424436D01*
X260507Y424519D01*
X260569Y424599D01*
X260634Y424677D01*
X260701Y424753D01*
X260771Y424826D01*
X260844Y424896D01*
X260920Y424963D01*
X260998Y425028D01*
X261078Y425090D01*
X261161Y425148D01*
X261246Y425204D01*
X261333Y425256D01*
X261421Y425305D01*
X261512Y425351D01*
X261604Y425393D01*
X261697Y425432D01*
X261792Y425467D01*
X261889Y425499D01*
X261986Y425527D01*
X262084Y425551D01*
X262183Y425572D01*
X262283Y425589D01*
X262384Y425602D01*
X262485Y425611D01*
X262586Y425617D01*
X262687Y425619D01*
X266299Y425619D01*
X252540Y425619D02*
X252540Y414782D01*
X252540Y425619D02*
X248025Y425619D01*
X247921Y425617D01*
X247818Y425611D01*
X247714Y425601D01*
X247611Y425587D01*
X247509Y425569D01*
X247408Y425548D01*
X247307Y425522D01*
X247208Y425493D01*
X247109Y425460D01*
X247012Y425423D01*
X246917Y425382D01*
X246823Y425338D01*
X246731Y425290D01*
X246641Y425239D01*
X246552Y425184D01*
X246466Y425126D01*
X246383Y425064D01*
X246301Y425000D01*
X246223Y424932D01*
X246147Y424862D01*
X246073Y424789D01*
X246003Y424712D01*
X245935Y424634D01*
X245871Y424552D01*
X245809Y424469D01*
X245751Y424383D01*
X245696Y424294D01*
X245645Y424204D01*
X245597Y424112D01*
X245553Y424018D01*
X245512Y423923D01*
X245475Y423826D01*
X245442Y423727D01*
X245413Y423628D01*
X245387Y423527D01*
X245366Y423426D01*
X245348Y423324D01*
X245334Y423221D01*
X245324Y423117D01*
X245318Y423014D01*
X245316Y422910D01*
X245315Y422910D02*
X245315Y414782D01*
X229541Y414782D02*
X229541Y431038D01*
X229541Y414782D02*
X225025Y414782D01*
X224921Y414784D01*
X224818Y414790D01*
X224714Y414800D01*
X224611Y414814D01*
X224509Y414832D01*
X224408Y414853D01*
X224307Y414879D01*
X224208Y414908D01*
X224109Y414941D01*
X224012Y414978D01*
X223917Y415019D01*
X223823Y415063D01*
X223731Y415111D01*
X223641Y415162D01*
X223552Y415217D01*
X223466Y415275D01*
X223383Y415337D01*
X223301Y415401D01*
X223223Y415469D01*
X223147Y415539D01*
X223073Y415612D01*
X223003Y415689D01*
X222935Y415767D01*
X222871Y415849D01*
X222809Y415932D01*
X222751Y416018D01*
X222696Y416107D01*
X222645Y416197D01*
X222597Y416289D01*
X222553Y416383D01*
X222512Y416478D01*
X222475Y416575D01*
X222442Y416674D01*
X222413Y416773D01*
X222387Y416874D01*
X222366Y416975D01*
X222348Y417077D01*
X222334Y417180D01*
X222324Y417284D01*
X222318Y417387D01*
X222316Y417491D01*
X222316Y422910D01*
X222318Y423011D01*
X222324Y423112D01*
X222333Y423213D01*
X222346Y423314D01*
X222363Y423414D01*
X222384Y423513D01*
X222408Y423611D01*
X222436Y423708D01*
X222468Y423805D01*
X222503Y423900D01*
X222542Y423993D01*
X222584Y424085D01*
X222630Y424176D01*
X222679Y424265D01*
X222731Y424351D01*
X222787Y424436D01*
X222845Y424519D01*
X222907Y424599D01*
X222972Y424677D01*
X223039Y424753D01*
X223109Y424826D01*
X223182Y424896D01*
X223258Y424963D01*
X223336Y425028D01*
X223416Y425090D01*
X223499Y425148D01*
X223584Y425204D01*
X223671Y425256D01*
X223759Y425305D01*
X223850Y425351D01*
X223942Y425393D01*
X224035Y425432D01*
X224130Y425467D01*
X224227Y425499D01*
X224324Y425527D01*
X224422Y425551D01*
X224521Y425572D01*
X224621Y425589D01*
X224722Y425602D01*
X224823Y425611D01*
X224924Y425617D01*
X225025Y425619D01*
X229541Y425619D01*
X213358Y414782D02*
X208842Y414782D01*
X213358Y414782D02*
X213459Y414784D01*
X213560Y414790D01*
X213661Y414799D01*
X213762Y414812D01*
X213862Y414829D01*
X213961Y414850D01*
X214059Y414874D01*
X214156Y414902D01*
X214253Y414934D01*
X214348Y414969D01*
X214441Y415008D01*
X214533Y415050D01*
X214624Y415096D01*
X214713Y415145D01*
X214799Y415197D01*
X214884Y415253D01*
X214967Y415311D01*
X215047Y415373D01*
X215125Y415438D01*
X215201Y415505D01*
X215274Y415575D01*
X215344Y415648D01*
X215411Y415724D01*
X215476Y415802D01*
X215538Y415882D01*
X215596Y415965D01*
X215652Y416050D01*
X215704Y416137D01*
X215753Y416225D01*
X215799Y416316D01*
X215841Y416408D01*
X215880Y416501D01*
X215915Y416596D01*
X215947Y416693D01*
X215975Y416790D01*
X215999Y416888D01*
X216020Y416987D01*
X216037Y417087D01*
X216050Y417188D01*
X216059Y417289D01*
X216065Y417390D01*
X216067Y417491D01*
X216067Y422007D01*
X216065Y422126D01*
X216059Y422246D01*
X216049Y422365D01*
X216035Y422483D01*
X216018Y422602D01*
X215996Y422719D01*
X215971Y422836D01*
X215941Y422951D01*
X215908Y423066D01*
X215871Y423180D01*
X215831Y423292D01*
X215786Y423403D01*
X215738Y423512D01*
X215687Y423620D01*
X215632Y423726D01*
X215573Y423830D01*
X215511Y423932D01*
X215446Y424032D01*
X215377Y424130D01*
X215305Y424226D01*
X215230Y424319D01*
X215153Y424409D01*
X215072Y424497D01*
X214988Y424582D01*
X214901Y424664D01*
X214812Y424744D01*
X214720Y424820D01*
X214626Y424894D01*
X214529Y424964D01*
X214431Y425031D01*
X214330Y425095D01*
X214226Y425155D01*
X214121Y425212D01*
X214014Y425265D01*
X213906Y425315D01*
X213796Y425361D01*
X213684Y425403D01*
X213571Y425442D01*
X213457Y425477D01*
X213342Y425508D01*
X213225Y425536D01*
X213108Y425559D01*
X212991Y425579D01*
X212872Y425595D01*
X212753Y425607D01*
X212634Y425615D01*
X212515Y425619D01*
X212395Y425619D01*
X212276Y425615D01*
X212157Y425607D01*
X212038Y425595D01*
X211919Y425579D01*
X211802Y425559D01*
X211685Y425536D01*
X211568Y425508D01*
X211453Y425477D01*
X211339Y425442D01*
X211226Y425403D01*
X211114Y425361D01*
X211004Y425315D01*
X210896Y425265D01*
X210789Y425212D01*
X210684Y425155D01*
X210580Y425095D01*
X210479Y425031D01*
X210381Y424964D01*
X210284Y424894D01*
X210190Y424820D01*
X210098Y424744D01*
X210009Y424664D01*
X209922Y424582D01*
X209838Y424497D01*
X209757Y424409D01*
X209680Y424319D01*
X209605Y424226D01*
X209533Y424130D01*
X209464Y424032D01*
X209399Y423932D01*
X209337Y423830D01*
X209278Y423726D01*
X209223Y423620D01*
X209172Y423512D01*
X209124Y423403D01*
X209079Y423292D01*
X209039Y423180D01*
X209002Y423066D01*
X208969Y422951D01*
X208939Y422836D01*
X208914Y422719D01*
X208892Y422602D01*
X208875Y422483D01*
X208861Y422365D01*
X208851Y422246D01*
X208845Y422126D01*
X208843Y422007D01*
X208842Y422007D02*
X208842Y420201D01*
X216067Y420201D01*
X193296Y414782D02*
X193296Y428329D01*
X193295Y428329D02*
X193293Y428430D01*
X193287Y428531D01*
X193278Y428632D01*
X193265Y428733D01*
X193248Y428833D01*
X193227Y428932D01*
X193203Y429030D01*
X193175Y429127D01*
X193143Y429224D01*
X193108Y429319D01*
X193069Y429412D01*
X193027Y429504D01*
X192981Y429595D01*
X192932Y429684D01*
X192880Y429770D01*
X192824Y429855D01*
X192766Y429938D01*
X192704Y430018D01*
X192639Y430096D01*
X192572Y430172D01*
X192502Y430245D01*
X192429Y430315D01*
X192353Y430382D01*
X192275Y430447D01*
X192195Y430509D01*
X192112Y430567D01*
X192027Y430623D01*
X191941Y430675D01*
X191852Y430724D01*
X191761Y430770D01*
X191669Y430812D01*
X191576Y430851D01*
X191481Y430886D01*
X191384Y430918D01*
X191287Y430946D01*
X191189Y430970D01*
X191090Y430991D01*
X190990Y431008D01*
X190889Y431021D01*
X190788Y431030D01*
X190687Y431036D01*
X190586Y431038D01*
X189683Y431038D01*
X189683Y425619D02*
X195102Y425619D01*
X185326Y422007D02*
X185326Y418394D01*
X185325Y422007D02*
X185323Y422126D01*
X185317Y422246D01*
X185307Y422365D01*
X185293Y422483D01*
X185276Y422602D01*
X185254Y422719D01*
X185229Y422836D01*
X185199Y422951D01*
X185166Y423066D01*
X185129Y423180D01*
X185089Y423292D01*
X185044Y423403D01*
X184996Y423512D01*
X184945Y423620D01*
X184890Y423726D01*
X184831Y423830D01*
X184769Y423932D01*
X184704Y424032D01*
X184635Y424130D01*
X184563Y424226D01*
X184488Y424319D01*
X184411Y424409D01*
X184330Y424497D01*
X184246Y424582D01*
X184159Y424664D01*
X184070Y424744D01*
X183978Y424820D01*
X183884Y424894D01*
X183787Y424964D01*
X183689Y425031D01*
X183588Y425095D01*
X183484Y425155D01*
X183379Y425212D01*
X183272Y425265D01*
X183164Y425315D01*
X183054Y425361D01*
X182942Y425403D01*
X182829Y425442D01*
X182715Y425477D01*
X182600Y425508D01*
X182483Y425536D01*
X182366Y425559D01*
X182249Y425579D01*
X182130Y425595D01*
X182011Y425607D01*
X181892Y425615D01*
X181773Y425619D01*
X181653Y425619D01*
X181534Y425615D01*
X181415Y425607D01*
X181296Y425595D01*
X181177Y425579D01*
X181060Y425559D01*
X180943Y425536D01*
X180826Y425508D01*
X180711Y425477D01*
X180597Y425442D01*
X180484Y425403D01*
X180372Y425361D01*
X180262Y425315D01*
X180154Y425265D01*
X180047Y425212D01*
X179942Y425155D01*
X179838Y425095D01*
X179737Y425031D01*
X179639Y424964D01*
X179542Y424894D01*
X179448Y424820D01*
X179356Y424744D01*
X179267Y424664D01*
X179180Y424582D01*
X179096Y424497D01*
X179015Y424409D01*
X178938Y424319D01*
X178863Y424226D01*
X178791Y424130D01*
X178722Y424032D01*
X178657Y423932D01*
X178595Y423830D01*
X178536Y423726D01*
X178481Y423620D01*
X178430Y423512D01*
X178382Y423403D01*
X178337Y423292D01*
X178297Y423180D01*
X178260Y423066D01*
X178227Y422951D01*
X178197Y422836D01*
X178172Y422719D01*
X178150Y422602D01*
X178133Y422483D01*
X178119Y422365D01*
X178109Y422246D01*
X178103Y422126D01*
X178101Y422007D01*
X178101Y418394D01*
X178103Y418275D01*
X178109Y418155D01*
X178119Y418036D01*
X178133Y417918D01*
X178150Y417799D01*
X178172Y417682D01*
X178197Y417565D01*
X178227Y417450D01*
X178260Y417335D01*
X178297Y417221D01*
X178337Y417109D01*
X178382Y416998D01*
X178430Y416889D01*
X178481Y416781D01*
X178536Y416675D01*
X178595Y416571D01*
X178657Y416469D01*
X178722Y416369D01*
X178791Y416271D01*
X178863Y416175D01*
X178938Y416082D01*
X179015Y415992D01*
X179096Y415904D01*
X179180Y415819D01*
X179267Y415737D01*
X179356Y415657D01*
X179448Y415581D01*
X179542Y415507D01*
X179639Y415437D01*
X179737Y415370D01*
X179838Y415306D01*
X179942Y415246D01*
X180047Y415189D01*
X180154Y415136D01*
X180262Y415086D01*
X180372Y415040D01*
X180484Y414998D01*
X180597Y414959D01*
X180711Y414924D01*
X180826Y414893D01*
X180943Y414865D01*
X181060Y414842D01*
X181177Y414822D01*
X181296Y414806D01*
X181415Y414794D01*
X181534Y414786D01*
X181653Y414782D01*
X181773Y414782D01*
X181892Y414786D01*
X182011Y414794D01*
X182130Y414806D01*
X182249Y414822D01*
X182366Y414842D01*
X182483Y414865D01*
X182600Y414893D01*
X182715Y414924D01*
X182829Y414959D01*
X182942Y414998D01*
X183054Y415040D01*
X183164Y415086D01*
X183272Y415136D01*
X183379Y415189D01*
X183484Y415246D01*
X183588Y415306D01*
X183689Y415370D01*
X183787Y415437D01*
X183884Y415507D01*
X183978Y415581D01*
X184070Y415657D01*
X184159Y415737D01*
X184246Y415819D01*
X184330Y415904D01*
X184411Y415992D01*
X184488Y416082D01*
X184563Y416175D01*
X184635Y416271D01*
X184704Y416369D01*
X184769Y416469D01*
X184831Y416571D01*
X184890Y416675D01*
X184945Y416781D01*
X184996Y416889D01*
X185044Y416998D01*
X185089Y417109D01*
X185129Y417221D01*
X185166Y417335D01*
X185199Y417450D01*
X185229Y417565D01*
X185254Y417682D01*
X185276Y417799D01*
X185293Y417918D01*
X185307Y418036D01*
X185317Y418155D01*
X185323Y418275D01*
X185325Y418394D01*
X171258Y417491D02*
X171258Y425619D01*
X171257Y417491D02*
X171255Y417390D01*
X171249Y417289D01*
X171240Y417188D01*
X171227Y417087D01*
X171210Y416987D01*
X171189Y416888D01*
X171165Y416790D01*
X171137Y416693D01*
X171105Y416596D01*
X171070Y416501D01*
X171031Y416408D01*
X170989Y416316D01*
X170943Y416225D01*
X170894Y416137D01*
X170842Y416050D01*
X170786Y415965D01*
X170728Y415882D01*
X170666Y415802D01*
X170601Y415724D01*
X170534Y415648D01*
X170464Y415575D01*
X170391Y415505D01*
X170315Y415438D01*
X170237Y415373D01*
X170157Y415311D01*
X170074Y415253D01*
X169989Y415197D01*
X169903Y415145D01*
X169814Y415096D01*
X169723Y415050D01*
X169631Y415008D01*
X169538Y414969D01*
X169443Y414934D01*
X169346Y414902D01*
X169249Y414874D01*
X169151Y414850D01*
X169052Y414829D01*
X168952Y414812D01*
X168851Y414799D01*
X168750Y414790D01*
X168649Y414784D01*
X168548Y414782D01*
X164033Y414782D01*
X164033Y425619D01*
X156669Y425619D02*
X156669Y414782D01*
X156669Y425619D02*
X152153Y425619D01*
X152049Y425617D01*
X151946Y425611D01*
X151842Y425601D01*
X151739Y425587D01*
X151637Y425569D01*
X151536Y425548D01*
X151435Y425522D01*
X151336Y425493D01*
X151237Y425460D01*
X151140Y425423D01*
X151045Y425382D01*
X150951Y425338D01*
X150859Y425290D01*
X150769Y425239D01*
X150680Y425184D01*
X150594Y425126D01*
X150511Y425064D01*
X150429Y425000D01*
X150351Y424932D01*
X150275Y424862D01*
X150201Y424789D01*
X150131Y424712D01*
X150063Y424634D01*
X149999Y424552D01*
X149937Y424469D01*
X149879Y424383D01*
X149824Y424294D01*
X149773Y424204D01*
X149725Y424112D01*
X149681Y424018D01*
X149640Y423923D01*
X149603Y423826D01*
X149570Y423727D01*
X149541Y423628D01*
X149515Y423527D01*
X149494Y423426D01*
X149476Y423324D01*
X149462Y423221D01*
X149452Y423117D01*
X149446Y423014D01*
X149444Y422910D01*
X149444Y414782D01*
X135449Y414782D02*
X135449Y431038D01*
X135449Y414782D02*
X139965Y414782D01*
X140066Y414784D01*
X140167Y414790D01*
X140268Y414799D01*
X140369Y414812D01*
X140469Y414829D01*
X140568Y414850D01*
X140666Y414874D01*
X140763Y414902D01*
X140860Y414934D01*
X140955Y414969D01*
X141048Y415008D01*
X141140Y415050D01*
X141231Y415096D01*
X141320Y415145D01*
X141406Y415197D01*
X141491Y415253D01*
X141574Y415311D01*
X141654Y415373D01*
X141732Y415438D01*
X141808Y415505D01*
X141881Y415575D01*
X141951Y415648D01*
X142018Y415724D01*
X142083Y415802D01*
X142145Y415882D01*
X142203Y415965D01*
X142259Y416050D01*
X142311Y416137D01*
X142360Y416225D01*
X142406Y416316D01*
X142448Y416408D01*
X142487Y416501D01*
X142522Y416596D01*
X142554Y416693D01*
X142582Y416790D01*
X142606Y416888D01*
X142627Y416987D01*
X142644Y417087D01*
X142657Y417188D01*
X142666Y417289D01*
X142672Y417390D01*
X142674Y417491D01*
X142674Y422910D01*
X142672Y423011D01*
X142666Y423112D01*
X142657Y423213D01*
X142644Y423314D01*
X142627Y423414D01*
X142606Y423513D01*
X142582Y423611D01*
X142554Y423708D01*
X142522Y423805D01*
X142487Y423900D01*
X142448Y423993D01*
X142406Y424085D01*
X142360Y424176D01*
X142311Y424265D01*
X142259Y424351D01*
X142203Y424436D01*
X142145Y424519D01*
X142083Y424599D01*
X142018Y424677D01*
X141951Y424753D01*
X141881Y424826D01*
X141808Y424896D01*
X141732Y424963D01*
X141654Y425028D01*
X141574Y425090D01*
X141491Y425148D01*
X141406Y425204D01*
X141320Y425256D01*
X141231Y425305D01*
X141140Y425351D01*
X141048Y425393D01*
X140955Y425432D01*
X140860Y425467D01*
X140763Y425499D01*
X140666Y425527D01*
X140568Y425551D01*
X140469Y425572D01*
X140369Y425589D01*
X140268Y425602D01*
X140167Y425611D01*
X140066Y425617D01*
X139965Y425619D01*
X135449Y425619D01*
X117108Y421104D02*
X113044Y421104D01*
X117108Y421104D02*
X117220Y421102D01*
X117331Y421096D01*
X117442Y421086D01*
X117553Y421073D01*
X117663Y421055D01*
X117772Y421033D01*
X117881Y421008D01*
X117989Y420979D01*
X118095Y420946D01*
X118201Y420909D01*
X118305Y420869D01*
X118407Y420825D01*
X118508Y420777D01*
X118607Y420726D01*
X118705Y420671D01*
X118800Y420613D01*
X118893Y420552D01*
X118984Y420487D01*
X119073Y420419D01*
X119159Y420348D01*
X119242Y420275D01*
X119323Y420198D01*
X119402Y420118D01*
X119477Y420036D01*
X119549Y419951D01*
X119619Y419864D01*
X119685Y419774D01*
X119748Y419682D01*
X119808Y419587D01*
X119864Y419491D01*
X119917Y419393D01*
X119966Y419293D01*
X120012Y419191D01*
X120054Y419088D01*
X120093Y418983D01*
X120128Y418877D01*
X120159Y418770D01*
X120186Y418662D01*
X120210Y418553D01*
X120229Y418443D01*
X120245Y418333D01*
X120257Y418222D01*
X120265Y418110D01*
X120269Y417999D01*
X120269Y417887D01*
X120265Y417776D01*
X120257Y417664D01*
X120245Y417553D01*
X120229Y417443D01*
X120210Y417333D01*
X120186Y417224D01*
X120159Y417116D01*
X120128Y417009D01*
X120093Y416903D01*
X120054Y416798D01*
X120012Y416695D01*
X119966Y416593D01*
X119917Y416493D01*
X119864Y416395D01*
X119808Y416299D01*
X119748Y416204D01*
X119685Y416112D01*
X119619Y416022D01*
X119549Y415935D01*
X119477Y415850D01*
X119402Y415768D01*
X119323Y415688D01*
X119242Y415611D01*
X119159Y415538D01*
X119073Y415467D01*
X118984Y415399D01*
X118893Y415334D01*
X118800Y415273D01*
X118705Y415215D01*
X118607Y415160D01*
X118508Y415109D01*
X118407Y415061D01*
X118305Y415017D01*
X118201Y414977D01*
X118095Y414940D01*
X117989Y414907D01*
X117881Y414878D01*
X117772Y414853D01*
X117663Y414831D01*
X117553Y414813D01*
X117442Y414800D01*
X117331Y414790D01*
X117220Y414784D01*
X117108Y414782D01*
X113044Y414782D01*
X113044Y422910D01*
X113045Y422910D02*
X113047Y423011D01*
X113053Y423112D01*
X113062Y423213D01*
X113075Y423314D01*
X113092Y423414D01*
X113113Y423513D01*
X113137Y423611D01*
X113165Y423708D01*
X113197Y423805D01*
X113232Y423900D01*
X113271Y423993D01*
X113313Y424085D01*
X113359Y424176D01*
X113408Y424265D01*
X113460Y424351D01*
X113516Y424436D01*
X113574Y424519D01*
X113636Y424599D01*
X113701Y424677D01*
X113768Y424753D01*
X113838Y424826D01*
X113911Y424896D01*
X113987Y424963D01*
X114065Y425028D01*
X114145Y425090D01*
X114228Y425148D01*
X114313Y425204D01*
X114400Y425256D01*
X114488Y425305D01*
X114579Y425351D01*
X114671Y425393D01*
X114764Y425432D01*
X114859Y425467D01*
X114956Y425499D01*
X115053Y425527D01*
X115151Y425551D01*
X115250Y425572D01*
X115350Y425589D01*
X115451Y425602D01*
X115552Y425611D01*
X115653Y425617D01*
X115754Y425619D01*
X119366Y425619D01*
X107425Y425619D02*
X102006Y425619D01*
X105619Y431038D02*
X105619Y417491D01*
X105618Y417491D02*
X105616Y417390D01*
X105610Y417289D01*
X105601Y417188D01*
X105588Y417087D01*
X105571Y416987D01*
X105550Y416888D01*
X105526Y416790D01*
X105498Y416693D01*
X105466Y416596D01*
X105431Y416501D01*
X105392Y416408D01*
X105350Y416316D01*
X105304Y416225D01*
X105255Y416137D01*
X105203Y416050D01*
X105147Y415965D01*
X105089Y415882D01*
X105027Y415802D01*
X104962Y415724D01*
X104895Y415648D01*
X104825Y415575D01*
X104752Y415505D01*
X104676Y415438D01*
X104598Y415373D01*
X104518Y415311D01*
X104435Y415253D01*
X104350Y415197D01*
X104263Y415145D01*
X104175Y415096D01*
X104084Y415050D01*
X103992Y415008D01*
X103899Y414969D01*
X103804Y414934D01*
X103707Y414902D01*
X103610Y414874D01*
X103512Y414850D01*
X103413Y414829D01*
X103313Y414812D01*
X103212Y414799D01*
X103111Y414790D01*
X103010Y414784D01*
X102909Y414782D01*
X102006Y414782D01*
X449213Y388112D02*
X453729Y388112D01*
X453830Y388114D01*
X453931Y388120D01*
X454032Y388129D01*
X454133Y388142D01*
X454233Y388159D01*
X454332Y388180D01*
X454430Y388204D01*
X454527Y388232D01*
X454624Y388264D01*
X454719Y388299D01*
X454812Y388338D01*
X454904Y388380D01*
X454995Y388426D01*
X455084Y388475D01*
X455170Y388527D01*
X455255Y388583D01*
X455338Y388641D01*
X455418Y388703D01*
X455496Y388768D01*
X455572Y388835D01*
X455645Y388905D01*
X455715Y388978D01*
X455782Y389054D01*
X455847Y389132D01*
X455909Y389212D01*
X455967Y389295D01*
X456023Y389380D01*
X456075Y389467D01*
X456124Y389555D01*
X456170Y389646D01*
X456212Y389738D01*
X456251Y389831D01*
X456286Y389926D01*
X456318Y390023D01*
X456346Y390120D01*
X456370Y390218D01*
X456391Y390317D01*
X456408Y390417D01*
X456421Y390518D01*
X456430Y390619D01*
X456436Y390720D01*
X456438Y390821D01*
X456438Y396240D01*
X456436Y396341D01*
X456430Y396442D01*
X456421Y396543D01*
X456408Y396644D01*
X456391Y396744D01*
X456370Y396843D01*
X456346Y396941D01*
X456318Y397038D01*
X456286Y397135D01*
X456251Y397230D01*
X456212Y397323D01*
X456170Y397415D01*
X456124Y397506D01*
X456075Y397595D01*
X456023Y397681D01*
X455967Y397766D01*
X455909Y397849D01*
X455847Y397929D01*
X455782Y398007D01*
X455715Y398083D01*
X455645Y398156D01*
X455572Y398226D01*
X455496Y398293D01*
X455418Y398358D01*
X455338Y398420D01*
X455255Y398478D01*
X455170Y398534D01*
X455084Y398586D01*
X454995Y398635D01*
X454904Y398681D01*
X454812Y398723D01*
X454719Y398762D01*
X454624Y398797D01*
X454527Y398829D01*
X454430Y398857D01*
X454332Y398881D01*
X454233Y398902D01*
X454133Y398919D01*
X454032Y398932D01*
X453931Y398941D01*
X453830Y398947D01*
X453729Y398949D01*
X449213Y398949D01*
X449213Y385403D01*
X449215Y385302D01*
X449221Y385201D01*
X449230Y385100D01*
X449243Y384999D01*
X449260Y384899D01*
X449281Y384800D01*
X449305Y384702D01*
X449333Y384605D01*
X449365Y384508D01*
X449400Y384413D01*
X449439Y384320D01*
X449481Y384228D01*
X449527Y384137D01*
X449576Y384049D01*
X449628Y383962D01*
X449684Y383877D01*
X449742Y383794D01*
X449804Y383714D01*
X449869Y383636D01*
X449936Y383560D01*
X450006Y383487D01*
X450079Y383417D01*
X450155Y383350D01*
X450233Y383285D01*
X450313Y383223D01*
X450396Y383165D01*
X450481Y383109D01*
X450568Y383057D01*
X450656Y383008D01*
X450747Y382962D01*
X450839Y382920D01*
X450932Y382881D01*
X451027Y382846D01*
X451124Y382814D01*
X451221Y382786D01*
X451319Y382762D01*
X451418Y382741D01*
X451518Y382724D01*
X451619Y382711D01*
X451720Y382702D01*
X451821Y382696D01*
X451922Y382694D01*
X451922Y382693D02*
X455535Y382693D01*
X442332Y388112D02*
X442332Y398949D01*
X442783Y403465D02*
X442783Y404368D01*
X441880Y404368D01*
X441880Y403465D01*
X442783Y403465D01*
X437341Y398949D02*
X431923Y398949D01*
X435535Y404368D02*
X435535Y390821D01*
X435533Y390720D01*
X435527Y390619D01*
X435518Y390518D01*
X435505Y390417D01*
X435488Y390317D01*
X435467Y390218D01*
X435443Y390120D01*
X435415Y390023D01*
X435383Y389926D01*
X435348Y389831D01*
X435309Y389738D01*
X435267Y389646D01*
X435221Y389555D01*
X435172Y389467D01*
X435120Y389380D01*
X435064Y389295D01*
X435006Y389212D01*
X434944Y389132D01*
X434879Y389054D01*
X434812Y388978D01*
X434742Y388905D01*
X434669Y388835D01*
X434593Y388768D01*
X434515Y388703D01*
X434435Y388641D01*
X434352Y388583D01*
X434267Y388527D01*
X434181Y388475D01*
X434092Y388426D01*
X434001Y388380D01*
X433909Y388338D01*
X433816Y388299D01*
X433721Y388264D01*
X433624Y388232D01*
X433527Y388204D01*
X433429Y388180D01*
X433330Y388159D01*
X433230Y388142D01*
X433129Y388129D01*
X433028Y388120D01*
X432927Y388114D01*
X432826Y388112D01*
X431923Y388112D01*
X425623Y388112D02*
X425623Y404368D01*
X425623Y398949D02*
X421108Y398949D01*
X421004Y398947D01*
X420901Y398941D01*
X420797Y398931D01*
X420694Y398917D01*
X420592Y398899D01*
X420491Y398878D01*
X420390Y398852D01*
X420291Y398823D01*
X420192Y398790D01*
X420095Y398753D01*
X420000Y398712D01*
X419906Y398668D01*
X419814Y398620D01*
X419724Y398569D01*
X419635Y398514D01*
X419549Y398456D01*
X419466Y398394D01*
X419384Y398330D01*
X419306Y398262D01*
X419230Y398192D01*
X419156Y398119D01*
X419086Y398042D01*
X419018Y397964D01*
X418954Y397882D01*
X418892Y397799D01*
X418834Y397713D01*
X418779Y397624D01*
X418728Y397534D01*
X418680Y397442D01*
X418636Y397348D01*
X418595Y397253D01*
X418558Y397156D01*
X418525Y397057D01*
X418496Y396958D01*
X418470Y396857D01*
X418449Y396756D01*
X418431Y396654D01*
X418417Y396551D01*
X418407Y396447D01*
X418401Y396344D01*
X418399Y396240D01*
X418399Y388112D01*
X411034Y390821D02*
X411034Y398949D01*
X411034Y390821D02*
X411032Y390720D01*
X411026Y390619D01*
X411017Y390518D01*
X411004Y390417D01*
X410987Y390317D01*
X410966Y390218D01*
X410942Y390120D01*
X410914Y390023D01*
X410882Y389926D01*
X410847Y389831D01*
X410808Y389738D01*
X410766Y389646D01*
X410720Y389555D01*
X410671Y389467D01*
X410619Y389380D01*
X410563Y389295D01*
X410505Y389212D01*
X410443Y389132D01*
X410378Y389054D01*
X410311Y388978D01*
X410241Y388905D01*
X410168Y388835D01*
X410092Y388768D01*
X410014Y388703D01*
X409934Y388641D01*
X409851Y388583D01*
X409766Y388527D01*
X409680Y388475D01*
X409591Y388426D01*
X409500Y388380D01*
X409408Y388338D01*
X409315Y388299D01*
X409220Y388264D01*
X409123Y388232D01*
X409026Y388204D01*
X408928Y388180D01*
X408829Y388159D01*
X408729Y388142D01*
X408628Y388129D01*
X408527Y388120D01*
X408426Y388114D01*
X408325Y388112D01*
X403809Y388112D01*
X403809Y398949D01*
X396372Y404368D02*
X396372Y388112D01*
X391856Y388112D01*
X391752Y388114D01*
X391649Y388120D01*
X391545Y388130D01*
X391442Y388144D01*
X391340Y388162D01*
X391239Y388183D01*
X391138Y388209D01*
X391039Y388238D01*
X390940Y388271D01*
X390843Y388308D01*
X390748Y388349D01*
X390654Y388393D01*
X390562Y388441D01*
X390472Y388492D01*
X390383Y388547D01*
X390297Y388605D01*
X390214Y388667D01*
X390132Y388731D01*
X390054Y388799D01*
X389978Y388869D01*
X389904Y388942D01*
X389834Y389019D01*
X389766Y389097D01*
X389702Y389179D01*
X389640Y389262D01*
X389582Y389348D01*
X389527Y389437D01*
X389476Y389527D01*
X389428Y389619D01*
X389384Y389713D01*
X389343Y389808D01*
X389306Y389905D01*
X389273Y390004D01*
X389244Y390103D01*
X389218Y390204D01*
X389197Y390305D01*
X389179Y390407D01*
X389165Y390510D01*
X389155Y390614D01*
X389149Y390717D01*
X389147Y390821D01*
X389147Y396240D01*
X389149Y396341D01*
X389155Y396442D01*
X389164Y396543D01*
X389177Y396644D01*
X389194Y396744D01*
X389215Y396843D01*
X389239Y396941D01*
X389267Y397038D01*
X389299Y397135D01*
X389334Y397230D01*
X389373Y397323D01*
X389415Y397415D01*
X389461Y397506D01*
X389510Y397595D01*
X389562Y397681D01*
X389618Y397766D01*
X389676Y397849D01*
X389738Y397929D01*
X389803Y398007D01*
X389870Y398083D01*
X389940Y398156D01*
X390013Y398226D01*
X390089Y398293D01*
X390167Y398358D01*
X390247Y398420D01*
X390330Y398478D01*
X390415Y398534D01*
X390502Y398586D01*
X390590Y398635D01*
X390681Y398681D01*
X390773Y398723D01*
X390866Y398762D01*
X390961Y398797D01*
X391058Y398829D01*
X391155Y398857D01*
X391253Y398881D01*
X391352Y398902D01*
X391452Y398919D01*
X391553Y398932D01*
X391654Y398941D01*
X391755Y398947D01*
X391856Y398949D01*
X396372Y398949D01*
X383384Y389015D02*
X383384Y388112D01*
X383384Y389015D02*
X382481Y389015D01*
X382481Y388112D01*
X383384Y388112D01*
X373919Y388112D02*
X370306Y388112D01*
X373919Y388112D02*
X374020Y388114D01*
X374121Y388120D01*
X374222Y388129D01*
X374323Y388142D01*
X374423Y388159D01*
X374522Y388180D01*
X374620Y388204D01*
X374717Y388232D01*
X374814Y388264D01*
X374909Y388299D01*
X375002Y388338D01*
X375094Y388380D01*
X375185Y388426D01*
X375274Y388475D01*
X375360Y388527D01*
X375445Y388583D01*
X375528Y388641D01*
X375608Y388703D01*
X375686Y388768D01*
X375762Y388835D01*
X375835Y388905D01*
X375905Y388978D01*
X375972Y389054D01*
X376037Y389132D01*
X376099Y389212D01*
X376157Y389295D01*
X376213Y389380D01*
X376265Y389467D01*
X376314Y389555D01*
X376360Y389646D01*
X376402Y389738D01*
X376441Y389831D01*
X376476Y389926D01*
X376508Y390023D01*
X376536Y390120D01*
X376560Y390218D01*
X376581Y390317D01*
X376598Y390417D01*
X376611Y390518D01*
X376620Y390619D01*
X376626Y390720D01*
X376628Y390821D01*
X376628Y396240D01*
X376626Y396341D01*
X376620Y396442D01*
X376611Y396543D01*
X376598Y396644D01*
X376581Y396744D01*
X376560Y396843D01*
X376536Y396941D01*
X376508Y397038D01*
X376476Y397135D01*
X376441Y397230D01*
X376402Y397323D01*
X376360Y397415D01*
X376314Y397506D01*
X376265Y397595D01*
X376213Y397681D01*
X376157Y397766D01*
X376099Y397849D01*
X376037Y397929D01*
X375972Y398007D01*
X375905Y398083D01*
X375835Y398156D01*
X375762Y398226D01*
X375686Y398293D01*
X375608Y398358D01*
X375528Y398420D01*
X375445Y398478D01*
X375360Y398534D01*
X375274Y398586D01*
X375185Y398635D01*
X375094Y398681D01*
X375002Y398723D01*
X374909Y398762D01*
X374814Y398797D01*
X374717Y398829D01*
X374620Y398857D01*
X374522Y398881D01*
X374423Y398902D01*
X374323Y398919D01*
X374222Y398932D01*
X374121Y398941D01*
X374020Y398947D01*
X373919Y398949D01*
X370306Y398949D01*
X364662Y395337D02*
X364662Y391724D01*
X364661Y395337D02*
X364659Y395456D01*
X364653Y395576D01*
X364643Y395695D01*
X364629Y395813D01*
X364612Y395932D01*
X364590Y396049D01*
X364565Y396166D01*
X364535Y396281D01*
X364502Y396396D01*
X364465Y396510D01*
X364425Y396622D01*
X364380Y396733D01*
X364332Y396842D01*
X364281Y396950D01*
X364226Y397056D01*
X364167Y397160D01*
X364105Y397262D01*
X364040Y397362D01*
X363971Y397460D01*
X363899Y397556D01*
X363824Y397649D01*
X363747Y397739D01*
X363666Y397827D01*
X363582Y397912D01*
X363495Y397994D01*
X363406Y398074D01*
X363314Y398150D01*
X363220Y398224D01*
X363123Y398294D01*
X363025Y398361D01*
X362924Y398425D01*
X362820Y398485D01*
X362715Y398542D01*
X362608Y398595D01*
X362500Y398645D01*
X362390Y398691D01*
X362278Y398733D01*
X362165Y398772D01*
X362051Y398807D01*
X361936Y398838D01*
X361819Y398866D01*
X361702Y398889D01*
X361585Y398909D01*
X361466Y398925D01*
X361347Y398937D01*
X361228Y398945D01*
X361109Y398949D01*
X360989Y398949D01*
X360870Y398945D01*
X360751Y398937D01*
X360632Y398925D01*
X360513Y398909D01*
X360396Y398889D01*
X360279Y398866D01*
X360162Y398838D01*
X360047Y398807D01*
X359933Y398772D01*
X359820Y398733D01*
X359708Y398691D01*
X359598Y398645D01*
X359490Y398595D01*
X359383Y398542D01*
X359278Y398485D01*
X359174Y398425D01*
X359073Y398361D01*
X358975Y398294D01*
X358878Y398224D01*
X358784Y398150D01*
X358692Y398074D01*
X358603Y397994D01*
X358516Y397912D01*
X358432Y397827D01*
X358351Y397739D01*
X358274Y397649D01*
X358199Y397556D01*
X358127Y397460D01*
X358058Y397362D01*
X357993Y397262D01*
X357931Y397160D01*
X357872Y397056D01*
X357817Y396950D01*
X357766Y396842D01*
X357718Y396733D01*
X357673Y396622D01*
X357633Y396510D01*
X357596Y396396D01*
X357563Y396281D01*
X357533Y396166D01*
X357508Y396049D01*
X357486Y395932D01*
X357469Y395813D01*
X357455Y395695D01*
X357445Y395576D01*
X357439Y395456D01*
X357437Y395337D01*
X357437Y391724D01*
X357439Y391605D01*
X357445Y391485D01*
X357455Y391366D01*
X357469Y391248D01*
X357486Y391129D01*
X357508Y391012D01*
X357533Y390895D01*
X357563Y390780D01*
X357596Y390665D01*
X357633Y390551D01*
X357673Y390439D01*
X357718Y390328D01*
X357766Y390219D01*
X357817Y390111D01*
X357872Y390005D01*
X357931Y389901D01*
X357993Y389799D01*
X358058Y389699D01*
X358127Y389601D01*
X358199Y389505D01*
X358274Y389412D01*
X358351Y389322D01*
X358432Y389234D01*
X358516Y389149D01*
X358603Y389067D01*
X358692Y388987D01*
X358784Y388911D01*
X358878Y388837D01*
X358975Y388767D01*
X359073Y388700D01*
X359174Y388636D01*
X359278Y388576D01*
X359383Y388519D01*
X359490Y388466D01*
X359598Y388416D01*
X359708Y388370D01*
X359820Y388328D01*
X359933Y388289D01*
X360047Y388254D01*
X360162Y388223D01*
X360279Y388195D01*
X360396Y388172D01*
X360513Y388152D01*
X360632Y388136D01*
X360751Y388124D01*
X360870Y388116D01*
X360989Y388112D01*
X361109Y388112D01*
X361228Y388116D01*
X361347Y388124D01*
X361466Y388136D01*
X361585Y388152D01*
X361702Y388172D01*
X361819Y388195D01*
X361936Y388223D01*
X362051Y388254D01*
X362165Y388289D01*
X362278Y388328D01*
X362390Y388370D01*
X362500Y388416D01*
X362608Y388466D01*
X362715Y388519D01*
X362820Y388576D01*
X362924Y388636D01*
X363025Y388700D01*
X363123Y388767D01*
X363220Y388837D01*
X363314Y388911D01*
X363406Y388987D01*
X363495Y389067D01*
X363582Y389149D01*
X363666Y389234D01*
X363747Y389322D01*
X363824Y389412D01*
X363899Y389505D01*
X363971Y389601D01*
X364040Y389699D01*
X364105Y389799D01*
X364167Y389901D01*
X364226Y390005D01*
X364281Y390111D01*
X364332Y390219D01*
X364380Y390328D01*
X364425Y390439D01*
X364465Y390551D01*
X364502Y390665D01*
X364535Y390780D01*
X364565Y390895D01*
X364590Y391012D01*
X364612Y391129D01*
X364629Y391248D01*
X364643Y391366D01*
X364653Y391485D01*
X364659Y391605D01*
X364661Y391724D01*
X350316Y388112D02*
X350316Y398949D01*
X342188Y398949D01*
X342087Y398947D01*
X341986Y398941D01*
X341885Y398932D01*
X341784Y398919D01*
X341684Y398902D01*
X341585Y398881D01*
X341487Y398857D01*
X341390Y398829D01*
X341293Y398797D01*
X341198Y398762D01*
X341105Y398723D01*
X341013Y398681D01*
X340922Y398635D01*
X340834Y398586D01*
X340747Y398534D01*
X340662Y398478D01*
X340579Y398420D01*
X340499Y398358D01*
X340421Y398293D01*
X340345Y398226D01*
X340272Y398156D01*
X340202Y398083D01*
X340135Y398007D01*
X340070Y397929D01*
X340008Y397849D01*
X339950Y397766D01*
X339894Y397681D01*
X339842Y397595D01*
X339793Y397506D01*
X339747Y397415D01*
X339705Y397323D01*
X339666Y397230D01*
X339631Y397135D01*
X339599Y397038D01*
X339571Y396941D01*
X339547Y396843D01*
X339526Y396744D01*
X339509Y396644D01*
X339496Y396543D01*
X339487Y396442D01*
X339481Y396341D01*
X339479Y396240D01*
X339478Y396240D02*
X339478Y388112D01*
X344897Y388112D02*
X344897Y398949D01*
X332878Y386306D02*
X325653Y406174D01*
X319162Y404368D02*
X319162Y388112D01*
X319162Y393531D02*
X311937Y398949D01*
X316001Y395788D02*
X311937Y388112D01*
X303596Y388112D02*
X299080Y388112D01*
X303596Y388112D02*
X303697Y388114D01*
X303798Y388120D01*
X303899Y388129D01*
X304000Y388142D01*
X304100Y388159D01*
X304199Y388180D01*
X304297Y388204D01*
X304394Y388232D01*
X304491Y388264D01*
X304586Y388299D01*
X304679Y388338D01*
X304771Y388380D01*
X304862Y388426D01*
X304951Y388475D01*
X305037Y388527D01*
X305122Y388583D01*
X305205Y388641D01*
X305285Y388703D01*
X305363Y388768D01*
X305439Y388835D01*
X305512Y388905D01*
X305582Y388978D01*
X305649Y389054D01*
X305714Y389132D01*
X305776Y389212D01*
X305834Y389295D01*
X305890Y389380D01*
X305942Y389467D01*
X305991Y389555D01*
X306037Y389646D01*
X306079Y389738D01*
X306118Y389831D01*
X306153Y389926D01*
X306185Y390023D01*
X306213Y390120D01*
X306237Y390218D01*
X306258Y390317D01*
X306275Y390417D01*
X306288Y390518D01*
X306297Y390619D01*
X306303Y390720D01*
X306305Y390821D01*
X306305Y395337D01*
X306303Y395456D01*
X306297Y395576D01*
X306287Y395695D01*
X306273Y395813D01*
X306256Y395932D01*
X306234Y396049D01*
X306209Y396166D01*
X306179Y396281D01*
X306146Y396396D01*
X306109Y396510D01*
X306069Y396622D01*
X306024Y396733D01*
X305976Y396842D01*
X305925Y396950D01*
X305870Y397056D01*
X305811Y397160D01*
X305749Y397262D01*
X305684Y397362D01*
X305615Y397460D01*
X305543Y397556D01*
X305468Y397649D01*
X305391Y397739D01*
X305310Y397827D01*
X305226Y397912D01*
X305139Y397994D01*
X305050Y398074D01*
X304958Y398150D01*
X304864Y398224D01*
X304767Y398294D01*
X304669Y398361D01*
X304568Y398425D01*
X304464Y398485D01*
X304359Y398542D01*
X304252Y398595D01*
X304144Y398645D01*
X304034Y398691D01*
X303922Y398733D01*
X303809Y398772D01*
X303695Y398807D01*
X303580Y398838D01*
X303463Y398866D01*
X303346Y398889D01*
X303229Y398909D01*
X303110Y398925D01*
X302991Y398937D01*
X302872Y398945D01*
X302753Y398949D01*
X302633Y398949D01*
X302514Y398945D01*
X302395Y398937D01*
X302276Y398925D01*
X302157Y398909D01*
X302040Y398889D01*
X301923Y398866D01*
X301806Y398838D01*
X301691Y398807D01*
X301577Y398772D01*
X301464Y398733D01*
X301352Y398691D01*
X301242Y398645D01*
X301134Y398595D01*
X301027Y398542D01*
X300922Y398485D01*
X300818Y398425D01*
X300717Y398361D01*
X300619Y398294D01*
X300522Y398224D01*
X300428Y398150D01*
X300336Y398074D01*
X300247Y397994D01*
X300160Y397912D01*
X300076Y397827D01*
X299995Y397739D01*
X299918Y397649D01*
X299843Y397556D01*
X299771Y397460D01*
X299702Y397362D01*
X299637Y397262D01*
X299575Y397160D01*
X299516Y397056D01*
X299461Y396950D01*
X299410Y396842D01*
X299362Y396733D01*
X299317Y396622D01*
X299277Y396510D01*
X299240Y396396D01*
X299207Y396281D01*
X299177Y396166D01*
X299152Y396049D01*
X299130Y395932D01*
X299113Y395813D01*
X299099Y395695D01*
X299089Y395576D01*
X299083Y395456D01*
X299081Y395337D01*
X299080Y395337D02*
X299080Y393531D01*
X306305Y393531D01*
X293279Y398949D02*
X289667Y388112D01*
X286054Y398949D01*
X280288Y398949D02*
X280288Y388112D01*
X280739Y403465D02*
X280739Y404368D01*
X279836Y404368D01*
X279836Y403465D01*
X280739Y403465D01*
X273480Y398949D02*
X273480Y388112D01*
X273480Y398949D02*
X268964Y398949D01*
X268860Y398947D01*
X268757Y398941D01*
X268653Y398931D01*
X268550Y398917D01*
X268448Y398899D01*
X268347Y398878D01*
X268246Y398852D01*
X268147Y398823D01*
X268048Y398790D01*
X267951Y398753D01*
X267856Y398712D01*
X267762Y398668D01*
X267670Y398620D01*
X267580Y398569D01*
X267491Y398514D01*
X267405Y398456D01*
X267322Y398394D01*
X267240Y398330D01*
X267162Y398262D01*
X267086Y398192D01*
X267012Y398119D01*
X266942Y398042D01*
X266874Y397964D01*
X266810Y397882D01*
X266748Y397799D01*
X266690Y397713D01*
X266635Y397624D01*
X266584Y397534D01*
X266536Y397442D01*
X266492Y397348D01*
X266451Y397253D01*
X266414Y397156D01*
X266381Y397057D01*
X266352Y396958D01*
X266326Y396857D01*
X266305Y396756D01*
X266287Y396654D01*
X266273Y396551D01*
X266263Y396447D01*
X266257Y396344D01*
X266255Y396240D01*
X266255Y388112D01*
X259175Y390821D02*
X259175Y404368D01*
X259174Y390821D02*
X259172Y390720D01*
X259166Y390619D01*
X259157Y390518D01*
X259144Y390417D01*
X259127Y390317D01*
X259106Y390218D01*
X259082Y390120D01*
X259054Y390023D01*
X259022Y389926D01*
X258987Y389831D01*
X258948Y389738D01*
X258906Y389646D01*
X258860Y389555D01*
X258811Y389467D01*
X258759Y389380D01*
X258703Y389295D01*
X258645Y389212D01*
X258583Y389132D01*
X258518Y389054D01*
X258451Y388978D01*
X258381Y388905D01*
X258308Y388835D01*
X258232Y388768D01*
X258154Y388703D01*
X258074Y388641D01*
X257991Y388583D01*
X257906Y388527D01*
X257820Y388475D01*
X257731Y388426D01*
X257640Y388380D01*
X257548Y388338D01*
X257455Y388299D01*
X257360Y388264D01*
X257263Y388232D01*
X257166Y388204D01*
X257068Y388180D01*
X256969Y388159D01*
X256869Y388142D01*
X256768Y388129D01*
X256667Y388120D01*
X256566Y388114D01*
X256465Y388112D01*
X250554Y390821D02*
X250554Y398949D01*
X250553Y390821D02*
X250551Y390720D01*
X250545Y390619D01*
X250536Y390518D01*
X250523Y390417D01*
X250506Y390317D01*
X250485Y390218D01*
X250461Y390120D01*
X250433Y390023D01*
X250401Y389926D01*
X250366Y389831D01*
X250327Y389738D01*
X250285Y389646D01*
X250239Y389555D01*
X250190Y389467D01*
X250138Y389380D01*
X250082Y389295D01*
X250024Y389212D01*
X249962Y389132D01*
X249897Y389054D01*
X249830Y388978D01*
X249760Y388905D01*
X249687Y388835D01*
X249611Y388768D01*
X249533Y388703D01*
X249453Y388641D01*
X249370Y388583D01*
X249285Y388527D01*
X249199Y388475D01*
X249110Y388426D01*
X249019Y388380D01*
X248927Y388338D01*
X248834Y388299D01*
X248739Y388264D01*
X248642Y388232D01*
X248545Y388204D01*
X248447Y388180D01*
X248348Y388159D01*
X248248Y388142D01*
X248147Y388129D01*
X248046Y388120D01*
X247945Y388114D01*
X247844Y388112D01*
X243329Y388112D01*
X243329Y398949D01*
X237783Y398949D02*
X232364Y398949D01*
X235977Y404368D02*
X235977Y390821D01*
X235976Y390821D02*
X235974Y390720D01*
X235968Y390619D01*
X235959Y390518D01*
X235946Y390417D01*
X235929Y390317D01*
X235908Y390218D01*
X235884Y390120D01*
X235856Y390023D01*
X235824Y389926D01*
X235789Y389831D01*
X235750Y389738D01*
X235708Y389646D01*
X235662Y389555D01*
X235613Y389467D01*
X235561Y389380D01*
X235505Y389295D01*
X235447Y389212D01*
X235385Y389132D01*
X235320Y389054D01*
X235253Y388978D01*
X235183Y388905D01*
X235110Y388835D01*
X235034Y388768D01*
X234956Y388703D01*
X234876Y388641D01*
X234793Y388583D01*
X234708Y388527D01*
X234622Y388475D01*
X234533Y388426D01*
X234442Y388380D01*
X234350Y388338D01*
X234257Y388299D01*
X234162Y388264D01*
X234065Y388232D01*
X233968Y388204D01*
X233870Y388180D01*
X233771Y388159D01*
X233671Y388142D01*
X233570Y388129D01*
X233469Y388120D01*
X233368Y388114D01*
X233267Y388112D01*
X232364Y388112D01*
X227107Y398949D02*
X219882Y398949D01*
X227107Y388112D01*
X219882Y388112D01*
X211372Y388112D02*
X206856Y388112D01*
X211372Y388112D02*
X211473Y388114D01*
X211574Y388120D01*
X211675Y388129D01*
X211776Y388142D01*
X211876Y388159D01*
X211975Y388180D01*
X212073Y388204D01*
X212170Y388232D01*
X212267Y388264D01*
X212362Y388299D01*
X212455Y388338D01*
X212547Y388380D01*
X212638Y388426D01*
X212727Y388475D01*
X212813Y388527D01*
X212898Y388583D01*
X212981Y388641D01*
X213061Y388703D01*
X213139Y388768D01*
X213215Y388835D01*
X213288Y388905D01*
X213358Y388978D01*
X213425Y389054D01*
X213490Y389132D01*
X213552Y389212D01*
X213610Y389295D01*
X213666Y389380D01*
X213718Y389467D01*
X213767Y389555D01*
X213813Y389646D01*
X213855Y389738D01*
X213894Y389831D01*
X213929Y389926D01*
X213961Y390023D01*
X213989Y390120D01*
X214013Y390218D01*
X214034Y390317D01*
X214051Y390417D01*
X214064Y390518D01*
X214073Y390619D01*
X214079Y390720D01*
X214081Y390821D01*
X214081Y395337D01*
X214079Y395456D01*
X214073Y395576D01*
X214063Y395695D01*
X214049Y395813D01*
X214032Y395932D01*
X214010Y396049D01*
X213985Y396166D01*
X213955Y396281D01*
X213922Y396396D01*
X213885Y396510D01*
X213845Y396622D01*
X213800Y396733D01*
X213752Y396842D01*
X213701Y396950D01*
X213646Y397056D01*
X213587Y397160D01*
X213525Y397262D01*
X213460Y397362D01*
X213391Y397460D01*
X213319Y397556D01*
X213244Y397649D01*
X213167Y397739D01*
X213086Y397827D01*
X213002Y397912D01*
X212915Y397994D01*
X212826Y398074D01*
X212734Y398150D01*
X212640Y398224D01*
X212543Y398294D01*
X212445Y398361D01*
X212344Y398425D01*
X212240Y398485D01*
X212135Y398542D01*
X212028Y398595D01*
X211920Y398645D01*
X211810Y398691D01*
X211698Y398733D01*
X211585Y398772D01*
X211471Y398807D01*
X211356Y398838D01*
X211239Y398866D01*
X211122Y398889D01*
X211005Y398909D01*
X210886Y398925D01*
X210767Y398937D01*
X210648Y398945D01*
X210529Y398949D01*
X210409Y398949D01*
X210290Y398945D01*
X210171Y398937D01*
X210052Y398925D01*
X209933Y398909D01*
X209816Y398889D01*
X209699Y398866D01*
X209582Y398838D01*
X209467Y398807D01*
X209353Y398772D01*
X209240Y398733D01*
X209128Y398691D01*
X209018Y398645D01*
X208910Y398595D01*
X208803Y398542D01*
X208698Y398485D01*
X208594Y398425D01*
X208493Y398361D01*
X208395Y398294D01*
X208298Y398224D01*
X208204Y398150D01*
X208112Y398074D01*
X208023Y397994D01*
X207936Y397912D01*
X207852Y397827D01*
X207771Y397739D01*
X207694Y397649D01*
X207619Y397556D01*
X207547Y397460D01*
X207478Y397362D01*
X207413Y397262D01*
X207351Y397160D01*
X207292Y397056D01*
X207237Y396950D01*
X207186Y396842D01*
X207138Y396733D01*
X207093Y396622D01*
X207053Y396510D01*
X207016Y396396D01*
X206983Y396281D01*
X206953Y396166D01*
X206928Y396049D01*
X206906Y395932D01*
X206889Y395813D01*
X206875Y395695D01*
X206865Y395576D01*
X206859Y395456D01*
X206857Y395337D01*
X206856Y395337D02*
X206856Y393531D01*
X214081Y393531D01*
X199928Y388112D02*
X199928Y398949D01*
X194509Y398949D01*
X194509Y397143D01*
X190113Y386306D02*
X182888Y406174D01*
X176493Y404368D02*
X176493Y388112D01*
X171977Y388112D01*
X171873Y388114D01*
X171770Y388120D01*
X171666Y388130D01*
X171563Y388144D01*
X171461Y388162D01*
X171360Y388183D01*
X171259Y388209D01*
X171160Y388238D01*
X171061Y388271D01*
X170964Y388308D01*
X170869Y388349D01*
X170775Y388393D01*
X170683Y388441D01*
X170593Y388492D01*
X170504Y388547D01*
X170418Y388605D01*
X170335Y388667D01*
X170253Y388731D01*
X170175Y388799D01*
X170099Y388869D01*
X170025Y388942D01*
X169955Y389019D01*
X169887Y389097D01*
X169823Y389179D01*
X169761Y389262D01*
X169703Y389348D01*
X169648Y389437D01*
X169597Y389527D01*
X169549Y389619D01*
X169505Y389713D01*
X169464Y389808D01*
X169427Y389905D01*
X169394Y390004D01*
X169365Y390103D01*
X169339Y390204D01*
X169318Y390305D01*
X169300Y390407D01*
X169286Y390510D01*
X169276Y390614D01*
X169270Y390717D01*
X169268Y390821D01*
X169268Y396240D01*
X169270Y396341D01*
X169276Y396442D01*
X169285Y396543D01*
X169298Y396644D01*
X169315Y396744D01*
X169336Y396843D01*
X169360Y396941D01*
X169388Y397038D01*
X169420Y397135D01*
X169455Y397230D01*
X169494Y397323D01*
X169536Y397415D01*
X169582Y397506D01*
X169631Y397595D01*
X169683Y397681D01*
X169739Y397766D01*
X169797Y397849D01*
X169859Y397929D01*
X169924Y398007D01*
X169991Y398083D01*
X170061Y398156D01*
X170134Y398226D01*
X170210Y398293D01*
X170288Y398358D01*
X170368Y398420D01*
X170451Y398478D01*
X170536Y398534D01*
X170623Y398586D01*
X170711Y398635D01*
X170802Y398681D01*
X170894Y398723D01*
X170987Y398762D01*
X171082Y398797D01*
X171179Y398829D01*
X171276Y398857D01*
X171374Y398881D01*
X171473Y398902D01*
X171573Y398919D01*
X171674Y398932D01*
X171775Y398941D01*
X171876Y398947D01*
X171977Y398949D01*
X176493Y398949D01*
X162498Y398949D02*
X162498Y390821D01*
X162496Y390720D01*
X162490Y390619D01*
X162481Y390518D01*
X162468Y390417D01*
X162451Y390317D01*
X162430Y390218D01*
X162406Y390120D01*
X162378Y390023D01*
X162346Y389926D01*
X162311Y389831D01*
X162272Y389738D01*
X162230Y389646D01*
X162184Y389555D01*
X162135Y389467D01*
X162083Y389380D01*
X162027Y389295D01*
X161969Y389212D01*
X161907Y389132D01*
X161842Y389054D01*
X161775Y388978D01*
X161705Y388905D01*
X161632Y388835D01*
X161556Y388768D01*
X161478Y388703D01*
X161398Y388641D01*
X161315Y388583D01*
X161230Y388527D01*
X161144Y388475D01*
X161055Y388426D01*
X160964Y388380D01*
X160872Y388338D01*
X160779Y388299D01*
X160684Y388264D01*
X160587Y388232D01*
X160490Y388204D01*
X160392Y388180D01*
X160293Y388159D01*
X160193Y388142D01*
X160092Y388129D01*
X159991Y388120D01*
X159890Y388114D01*
X159789Y388112D01*
X155273Y388112D01*
X155273Y398949D01*
X147075Y394434D02*
X142560Y392628D01*
X147076Y394434D02*
X147164Y394471D01*
X147250Y394512D01*
X147335Y394556D01*
X147418Y394604D01*
X147498Y394655D01*
X147577Y394709D01*
X147653Y394767D01*
X147727Y394827D01*
X147799Y394891D01*
X147867Y394957D01*
X147933Y395027D01*
X147996Y395098D01*
X148057Y395173D01*
X148114Y395249D01*
X148167Y395328D01*
X148218Y395409D01*
X148265Y395492D01*
X148309Y395577D01*
X148349Y395664D01*
X148386Y395752D01*
X148419Y395842D01*
X148449Y395933D01*
X148474Y396025D01*
X148496Y396118D01*
X148514Y396212D01*
X148529Y396306D01*
X148539Y396401D01*
X148545Y396497D01*
X148548Y396592D01*
X148547Y396688D01*
X148541Y396783D01*
X148532Y396879D01*
X148519Y396973D01*
X148503Y397067D01*
X148482Y397161D01*
X148457Y397253D01*
X148429Y397344D01*
X148397Y397434D01*
X148362Y397523D01*
X148323Y397610D01*
X148280Y397696D01*
X148234Y397780D01*
X148184Y397861D01*
X148132Y397941D01*
X148076Y398019D01*
X148016Y398094D01*
X147954Y398166D01*
X147889Y398236D01*
X147821Y398304D01*
X147751Y398368D01*
X147678Y398430D01*
X147602Y398488D01*
X147524Y398544D01*
X147444Y398596D01*
X147362Y398645D01*
X147278Y398690D01*
X147192Y398732D01*
X147105Y398771D01*
X147016Y398806D01*
X146925Y398837D01*
X146834Y398864D01*
X146741Y398888D01*
X146648Y398908D01*
X146554Y398924D01*
X146459Y398936D01*
X146364Y398945D01*
X146268Y398949D01*
X146173Y398950D01*
X145926Y398943D01*
X145680Y398931D01*
X145434Y398913D01*
X145188Y398888D01*
X144944Y398858D01*
X144700Y398822D01*
X144457Y398781D01*
X144215Y398733D01*
X143974Y398679D01*
X143735Y398620D01*
X143497Y398555D01*
X143261Y398484D01*
X143026Y398408D01*
X142793Y398326D01*
X142563Y398238D01*
X142335Y398145D01*
X142108Y398047D01*
X142559Y392627D02*
X142471Y392590D01*
X142385Y392549D01*
X142300Y392505D01*
X142217Y392457D01*
X142137Y392406D01*
X142058Y392352D01*
X141982Y392294D01*
X141908Y392234D01*
X141836Y392170D01*
X141768Y392104D01*
X141702Y392034D01*
X141639Y391963D01*
X141578Y391888D01*
X141521Y391812D01*
X141468Y391733D01*
X141417Y391652D01*
X141370Y391569D01*
X141326Y391484D01*
X141286Y391397D01*
X141249Y391309D01*
X141216Y391219D01*
X141186Y391128D01*
X141161Y391036D01*
X141139Y390943D01*
X141121Y390849D01*
X141106Y390755D01*
X141096Y390660D01*
X141090Y390564D01*
X141087Y390469D01*
X141088Y390373D01*
X141094Y390278D01*
X141103Y390182D01*
X141116Y390088D01*
X141132Y389994D01*
X141153Y389900D01*
X141178Y389808D01*
X141206Y389717D01*
X141238Y389627D01*
X141273Y389538D01*
X141312Y389451D01*
X141355Y389365D01*
X141401Y389281D01*
X141451Y389200D01*
X141503Y389120D01*
X141559Y389042D01*
X141619Y388967D01*
X141681Y388895D01*
X141746Y388825D01*
X141814Y388757D01*
X141884Y388693D01*
X141957Y388631D01*
X142033Y388573D01*
X142111Y388517D01*
X142191Y388465D01*
X142273Y388416D01*
X142357Y388371D01*
X142443Y388329D01*
X142530Y388290D01*
X142619Y388255D01*
X142710Y388224D01*
X142801Y388197D01*
X142894Y388173D01*
X142987Y388153D01*
X143081Y388137D01*
X143176Y388125D01*
X143271Y388116D01*
X143367Y388112D01*
X143462Y388111D01*
X143463Y388112D02*
X143825Y388121D01*
X144187Y388139D01*
X144548Y388166D01*
X144908Y388201D01*
X145268Y388244D01*
X145627Y388296D01*
X145984Y388357D01*
X146339Y388426D01*
X146693Y388503D01*
X147045Y388589D01*
X147395Y388683D01*
X147743Y388786D01*
X148088Y388896D01*
X148430Y389015D01*
X134918Y388112D02*
X134918Y398949D01*
X135369Y403465D02*
X135369Y404368D01*
X134466Y404368D01*
X134466Y403465D01*
X135369Y403465D01*
X128109Y398949D02*
X128109Y388112D01*
X128109Y398949D02*
X123594Y398949D01*
X123490Y398947D01*
X123387Y398941D01*
X123283Y398931D01*
X123180Y398917D01*
X123078Y398899D01*
X122977Y398878D01*
X122876Y398852D01*
X122777Y398823D01*
X122678Y398790D01*
X122581Y398753D01*
X122486Y398712D01*
X122392Y398668D01*
X122300Y398620D01*
X122210Y398569D01*
X122121Y398514D01*
X122035Y398456D01*
X121952Y398394D01*
X121870Y398330D01*
X121792Y398262D01*
X121716Y398192D01*
X121642Y398119D01*
X121572Y398042D01*
X121504Y397964D01*
X121440Y397882D01*
X121378Y397799D01*
X121320Y397713D01*
X121265Y397624D01*
X121214Y397534D01*
X121166Y397442D01*
X121122Y397348D01*
X121081Y397253D01*
X121044Y397156D01*
X121011Y397057D01*
X120982Y396958D01*
X120956Y396857D01*
X120935Y396756D01*
X120917Y396654D01*
X120903Y396551D01*
X120893Y396447D01*
X120887Y396344D01*
X120885Y396240D01*
X120885Y388112D01*
X111332Y388112D02*
X106816Y388112D01*
X111332Y388112D02*
X111433Y388114D01*
X111534Y388120D01*
X111635Y388129D01*
X111736Y388142D01*
X111836Y388159D01*
X111935Y388180D01*
X112033Y388204D01*
X112130Y388232D01*
X112227Y388264D01*
X112322Y388299D01*
X112415Y388338D01*
X112507Y388380D01*
X112598Y388426D01*
X112686Y388475D01*
X112773Y388527D01*
X112858Y388583D01*
X112941Y388641D01*
X113021Y388703D01*
X113099Y388768D01*
X113175Y388835D01*
X113248Y388905D01*
X113318Y388978D01*
X113385Y389054D01*
X113450Y389132D01*
X113512Y389212D01*
X113570Y389295D01*
X113626Y389380D01*
X113678Y389467D01*
X113727Y389555D01*
X113773Y389646D01*
X113815Y389738D01*
X113854Y389831D01*
X113889Y389926D01*
X113921Y390023D01*
X113949Y390120D01*
X113973Y390218D01*
X113994Y390317D01*
X114011Y390417D01*
X114024Y390518D01*
X114033Y390619D01*
X114039Y390720D01*
X114041Y390821D01*
X114041Y395337D01*
X114039Y395456D01*
X114033Y395576D01*
X114023Y395695D01*
X114009Y395813D01*
X113992Y395932D01*
X113970Y396049D01*
X113945Y396166D01*
X113915Y396281D01*
X113882Y396396D01*
X113845Y396510D01*
X113805Y396622D01*
X113760Y396733D01*
X113712Y396842D01*
X113661Y396950D01*
X113606Y397056D01*
X113547Y397160D01*
X113485Y397262D01*
X113420Y397362D01*
X113351Y397460D01*
X113279Y397556D01*
X113204Y397649D01*
X113127Y397739D01*
X113046Y397827D01*
X112962Y397912D01*
X112875Y397994D01*
X112786Y398074D01*
X112694Y398150D01*
X112600Y398224D01*
X112503Y398294D01*
X112405Y398361D01*
X112304Y398425D01*
X112200Y398485D01*
X112095Y398542D01*
X111988Y398595D01*
X111880Y398645D01*
X111770Y398691D01*
X111658Y398733D01*
X111545Y398772D01*
X111431Y398807D01*
X111316Y398838D01*
X111199Y398866D01*
X111082Y398889D01*
X110965Y398909D01*
X110846Y398925D01*
X110727Y398937D01*
X110608Y398945D01*
X110489Y398949D01*
X110369Y398949D01*
X110250Y398945D01*
X110131Y398937D01*
X110012Y398925D01*
X109893Y398909D01*
X109776Y398889D01*
X109659Y398866D01*
X109542Y398838D01*
X109427Y398807D01*
X109313Y398772D01*
X109200Y398733D01*
X109088Y398691D01*
X108978Y398645D01*
X108870Y398595D01*
X108763Y398542D01*
X108658Y398485D01*
X108554Y398425D01*
X108453Y398361D01*
X108355Y398294D01*
X108258Y398224D01*
X108164Y398150D01*
X108072Y398074D01*
X107983Y397994D01*
X107896Y397912D01*
X107812Y397827D01*
X107731Y397739D01*
X107654Y397649D01*
X107579Y397556D01*
X107507Y397460D01*
X107438Y397362D01*
X107373Y397262D01*
X107311Y397160D01*
X107252Y397056D01*
X107197Y396950D01*
X107146Y396842D01*
X107098Y396733D01*
X107053Y396622D01*
X107013Y396510D01*
X106976Y396396D01*
X106943Y396281D01*
X106913Y396166D01*
X106888Y396049D01*
X106866Y395932D01*
X106849Y395813D01*
X106835Y395695D01*
X106825Y395576D01*
X106819Y395456D01*
X106817Y395337D01*
X106816Y395337D02*
X106816Y393531D01*
X114041Y393531D01*
X99140Y394434D02*
X94624Y392628D01*
X99140Y394434D02*
X99228Y394471D01*
X99314Y394512D01*
X99399Y394556D01*
X99482Y394604D01*
X99562Y394655D01*
X99641Y394709D01*
X99717Y394767D01*
X99791Y394827D01*
X99863Y394891D01*
X99931Y394957D01*
X99997Y395027D01*
X100060Y395098D01*
X100121Y395173D01*
X100178Y395249D01*
X100231Y395328D01*
X100282Y395409D01*
X100329Y395492D01*
X100373Y395577D01*
X100413Y395664D01*
X100450Y395752D01*
X100483Y395842D01*
X100513Y395933D01*
X100538Y396025D01*
X100560Y396118D01*
X100578Y396212D01*
X100593Y396306D01*
X100603Y396401D01*
X100609Y396497D01*
X100612Y396592D01*
X100611Y396688D01*
X100605Y396783D01*
X100596Y396879D01*
X100583Y396973D01*
X100567Y397067D01*
X100546Y397161D01*
X100521Y397253D01*
X100493Y397344D01*
X100461Y397434D01*
X100426Y397523D01*
X100387Y397610D01*
X100344Y397696D01*
X100298Y397780D01*
X100248Y397861D01*
X100196Y397941D01*
X100140Y398019D01*
X100080Y398094D01*
X100018Y398166D01*
X99953Y398236D01*
X99885Y398304D01*
X99815Y398368D01*
X99742Y398430D01*
X99666Y398488D01*
X99588Y398544D01*
X99508Y398596D01*
X99426Y398645D01*
X99342Y398690D01*
X99256Y398732D01*
X99169Y398771D01*
X99080Y398806D01*
X98989Y398837D01*
X98898Y398864D01*
X98805Y398888D01*
X98712Y398908D01*
X98618Y398924D01*
X98523Y398936D01*
X98428Y398945D01*
X98332Y398949D01*
X98237Y398950D01*
X97990Y398943D01*
X97744Y398931D01*
X97498Y398913D01*
X97252Y398888D01*
X97008Y398858D01*
X96764Y398822D01*
X96521Y398781D01*
X96279Y398733D01*
X96038Y398679D01*
X95799Y398620D01*
X95561Y398555D01*
X95325Y398484D01*
X95090Y398408D01*
X94857Y398326D01*
X94627Y398238D01*
X94399Y398145D01*
X94172Y398047D01*
X94624Y392627D02*
X94536Y392590D01*
X94450Y392549D01*
X94365Y392505D01*
X94282Y392457D01*
X94202Y392406D01*
X94123Y392352D01*
X94047Y392294D01*
X93973Y392234D01*
X93901Y392170D01*
X93833Y392104D01*
X93767Y392034D01*
X93704Y391963D01*
X93643Y391888D01*
X93586Y391812D01*
X93533Y391733D01*
X93482Y391652D01*
X93435Y391569D01*
X93391Y391484D01*
X93351Y391397D01*
X93314Y391309D01*
X93281Y391219D01*
X93251Y391128D01*
X93226Y391036D01*
X93204Y390943D01*
X93186Y390849D01*
X93171Y390755D01*
X93161Y390660D01*
X93155Y390564D01*
X93152Y390469D01*
X93153Y390373D01*
X93159Y390278D01*
X93168Y390182D01*
X93181Y390088D01*
X93197Y389994D01*
X93218Y389900D01*
X93243Y389808D01*
X93271Y389717D01*
X93303Y389627D01*
X93338Y389538D01*
X93377Y389451D01*
X93420Y389365D01*
X93466Y389281D01*
X93516Y389200D01*
X93568Y389120D01*
X93624Y389042D01*
X93684Y388967D01*
X93746Y388895D01*
X93811Y388825D01*
X93879Y388757D01*
X93949Y388693D01*
X94022Y388631D01*
X94098Y388573D01*
X94176Y388517D01*
X94256Y388465D01*
X94338Y388416D01*
X94422Y388371D01*
X94508Y388329D01*
X94595Y388290D01*
X94684Y388255D01*
X94775Y388224D01*
X94866Y388197D01*
X94959Y388173D01*
X95052Y388153D01*
X95146Y388137D01*
X95241Y388125D01*
X95336Y388116D01*
X95432Y388112D01*
X95527Y388111D01*
X95527Y388112D02*
X95889Y388121D01*
X96251Y388139D01*
X96612Y388166D01*
X96972Y388201D01*
X97332Y388244D01*
X97691Y388296D01*
X98048Y388357D01*
X98403Y388426D01*
X98757Y388503D01*
X99109Y388589D01*
X99459Y388683D01*
X99807Y388786D01*
X100152Y388896D01*
X100494Y389015D01*
X85593Y394434D02*
X81077Y392628D01*
X85593Y394434D02*
X85681Y394471D01*
X85767Y394512D01*
X85852Y394556D01*
X85935Y394604D01*
X86015Y394655D01*
X86094Y394709D01*
X86170Y394767D01*
X86244Y394827D01*
X86316Y394891D01*
X86384Y394957D01*
X86450Y395027D01*
X86513Y395098D01*
X86574Y395173D01*
X86631Y395249D01*
X86684Y395328D01*
X86735Y395409D01*
X86782Y395492D01*
X86826Y395577D01*
X86866Y395664D01*
X86903Y395752D01*
X86936Y395842D01*
X86966Y395933D01*
X86991Y396025D01*
X87013Y396118D01*
X87031Y396212D01*
X87046Y396306D01*
X87056Y396401D01*
X87062Y396497D01*
X87065Y396592D01*
X87064Y396688D01*
X87058Y396783D01*
X87049Y396879D01*
X87036Y396973D01*
X87020Y397067D01*
X86999Y397161D01*
X86974Y397253D01*
X86946Y397344D01*
X86914Y397434D01*
X86879Y397523D01*
X86840Y397610D01*
X86797Y397696D01*
X86751Y397780D01*
X86701Y397861D01*
X86649Y397941D01*
X86593Y398019D01*
X86533Y398094D01*
X86471Y398166D01*
X86406Y398236D01*
X86338Y398304D01*
X86268Y398368D01*
X86195Y398430D01*
X86119Y398488D01*
X86041Y398544D01*
X85961Y398596D01*
X85879Y398645D01*
X85795Y398690D01*
X85709Y398732D01*
X85622Y398771D01*
X85533Y398806D01*
X85442Y398837D01*
X85351Y398864D01*
X85258Y398888D01*
X85165Y398908D01*
X85071Y398924D01*
X84976Y398936D01*
X84881Y398945D01*
X84785Y398949D01*
X84690Y398950D01*
X84443Y398943D01*
X84197Y398931D01*
X83951Y398913D01*
X83705Y398888D01*
X83461Y398858D01*
X83217Y398822D01*
X82974Y398781D01*
X82732Y398733D01*
X82491Y398679D01*
X82252Y398620D01*
X82014Y398555D01*
X81778Y398484D01*
X81543Y398408D01*
X81310Y398326D01*
X81080Y398238D01*
X80852Y398145D01*
X80625Y398047D01*
X81077Y392627D02*
X80989Y392590D01*
X80903Y392549D01*
X80818Y392505D01*
X80735Y392457D01*
X80655Y392406D01*
X80576Y392352D01*
X80500Y392294D01*
X80426Y392234D01*
X80354Y392170D01*
X80286Y392104D01*
X80220Y392034D01*
X80157Y391963D01*
X80096Y391888D01*
X80039Y391812D01*
X79986Y391733D01*
X79935Y391652D01*
X79888Y391569D01*
X79844Y391484D01*
X79804Y391397D01*
X79767Y391309D01*
X79734Y391219D01*
X79704Y391128D01*
X79679Y391036D01*
X79657Y390943D01*
X79639Y390849D01*
X79624Y390755D01*
X79614Y390660D01*
X79608Y390564D01*
X79605Y390469D01*
X79606Y390373D01*
X79612Y390278D01*
X79621Y390182D01*
X79634Y390088D01*
X79650Y389994D01*
X79671Y389900D01*
X79696Y389808D01*
X79724Y389717D01*
X79756Y389627D01*
X79791Y389538D01*
X79830Y389451D01*
X79873Y389365D01*
X79919Y389281D01*
X79969Y389200D01*
X80021Y389120D01*
X80077Y389042D01*
X80137Y388967D01*
X80199Y388895D01*
X80264Y388825D01*
X80332Y388757D01*
X80402Y388693D01*
X80475Y388631D01*
X80551Y388573D01*
X80629Y388517D01*
X80709Y388465D01*
X80791Y388416D01*
X80875Y388371D01*
X80961Y388329D01*
X81048Y388290D01*
X81137Y388255D01*
X81228Y388224D01*
X81319Y388197D01*
X81412Y388173D01*
X81505Y388153D01*
X81599Y388137D01*
X81694Y388125D01*
X81789Y388116D01*
X81885Y388112D01*
X81980Y388111D01*
X81980Y388112D02*
X82342Y388121D01*
X82704Y388139D01*
X83065Y388166D01*
X83425Y388201D01*
X83785Y388244D01*
X84144Y388296D01*
X84501Y388357D01*
X84856Y388426D01*
X85210Y388503D01*
X85562Y388589D01*
X85912Y388683D01*
X86260Y388786D01*
X86605Y388896D01*
X86947Y389015D01*
X73122Y394434D02*
X62285Y394434D01*
X52958Y388112D02*
X49345Y388112D01*
X52958Y388112D02*
X53059Y388114D01*
X53160Y388120D01*
X53261Y388129D01*
X53362Y388142D01*
X53462Y388159D01*
X53561Y388180D01*
X53659Y388204D01*
X53756Y388232D01*
X53853Y388264D01*
X53948Y388299D01*
X54041Y388338D01*
X54133Y388380D01*
X54224Y388426D01*
X54312Y388475D01*
X54399Y388527D01*
X54484Y388583D01*
X54567Y388641D01*
X54647Y388703D01*
X54725Y388768D01*
X54801Y388835D01*
X54874Y388905D01*
X54944Y388978D01*
X55011Y389054D01*
X55076Y389132D01*
X55138Y389212D01*
X55196Y389295D01*
X55252Y389380D01*
X55304Y389467D01*
X55353Y389555D01*
X55399Y389646D01*
X55441Y389738D01*
X55480Y389831D01*
X55515Y389926D01*
X55547Y390023D01*
X55575Y390120D01*
X55599Y390218D01*
X55620Y390317D01*
X55637Y390417D01*
X55650Y390518D01*
X55659Y390619D01*
X55665Y390720D01*
X55667Y390821D01*
X55667Y396240D01*
X55665Y396341D01*
X55659Y396442D01*
X55650Y396543D01*
X55637Y396644D01*
X55620Y396744D01*
X55599Y396843D01*
X55575Y396941D01*
X55547Y397038D01*
X55515Y397135D01*
X55480Y397230D01*
X55441Y397323D01*
X55399Y397415D01*
X55353Y397506D01*
X55304Y397595D01*
X55252Y397681D01*
X55196Y397766D01*
X55138Y397849D01*
X55076Y397929D01*
X55011Y398007D01*
X54944Y398083D01*
X54874Y398156D01*
X54801Y398226D01*
X54725Y398293D01*
X54647Y398358D01*
X54567Y398420D01*
X54484Y398478D01*
X54399Y398534D01*
X54313Y398586D01*
X54224Y398635D01*
X54133Y398681D01*
X54041Y398723D01*
X53948Y398762D01*
X53853Y398797D01*
X53756Y398829D01*
X53659Y398857D01*
X53561Y398881D01*
X53462Y398902D01*
X53362Y398919D01*
X53261Y398932D01*
X53160Y398941D01*
X53059Y398947D01*
X52958Y398949D01*
X49345Y398949D01*
X40613Y394434D02*
X36549Y394434D01*
X40613Y394434D02*
X40725Y394432D01*
X40836Y394426D01*
X40947Y394416D01*
X41058Y394403D01*
X41168Y394385D01*
X41277Y394363D01*
X41386Y394338D01*
X41494Y394309D01*
X41600Y394276D01*
X41706Y394239D01*
X41810Y394199D01*
X41912Y394155D01*
X42013Y394107D01*
X42112Y394056D01*
X42210Y394001D01*
X42305Y393943D01*
X42398Y393882D01*
X42489Y393817D01*
X42578Y393749D01*
X42664Y393678D01*
X42747Y393605D01*
X42828Y393528D01*
X42907Y393448D01*
X42982Y393366D01*
X43054Y393281D01*
X43124Y393194D01*
X43190Y393104D01*
X43253Y393012D01*
X43313Y392917D01*
X43369Y392821D01*
X43422Y392723D01*
X43471Y392623D01*
X43517Y392521D01*
X43559Y392418D01*
X43598Y392313D01*
X43633Y392207D01*
X43664Y392100D01*
X43691Y391992D01*
X43715Y391883D01*
X43734Y391773D01*
X43750Y391663D01*
X43762Y391552D01*
X43770Y391440D01*
X43774Y391329D01*
X43774Y391217D01*
X43770Y391106D01*
X43762Y390994D01*
X43750Y390883D01*
X43734Y390773D01*
X43715Y390663D01*
X43691Y390554D01*
X43664Y390446D01*
X43633Y390339D01*
X43598Y390233D01*
X43559Y390128D01*
X43517Y390025D01*
X43471Y389923D01*
X43422Y389823D01*
X43369Y389725D01*
X43313Y389629D01*
X43253Y389534D01*
X43190Y389442D01*
X43124Y389352D01*
X43054Y389265D01*
X42982Y389180D01*
X42907Y389098D01*
X42828Y389018D01*
X42747Y388941D01*
X42664Y388868D01*
X42578Y388797D01*
X42489Y388729D01*
X42398Y388664D01*
X42305Y388603D01*
X42210Y388545D01*
X42112Y388490D01*
X42013Y388439D01*
X41912Y388391D01*
X41810Y388347D01*
X41706Y388307D01*
X41600Y388270D01*
X41494Y388237D01*
X41386Y388208D01*
X41277Y388183D01*
X41168Y388161D01*
X41058Y388143D01*
X40947Y388130D01*
X40836Y388120D01*
X40725Y388114D01*
X40613Y388112D01*
X36549Y388112D01*
X36549Y396240D01*
X36551Y396341D01*
X36557Y396442D01*
X36566Y396543D01*
X36579Y396644D01*
X36596Y396744D01*
X36617Y396843D01*
X36641Y396941D01*
X36669Y397038D01*
X36701Y397135D01*
X36736Y397230D01*
X36775Y397323D01*
X36817Y397415D01*
X36863Y397506D01*
X36912Y397595D01*
X36964Y397681D01*
X37020Y397766D01*
X37078Y397849D01*
X37140Y397929D01*
X37205Y398007D01*
X37272Y398083D01*
X37342Y398156D01*
X37415Y398226D01*
X37491Y398293D01*
X37569Y398358D01*
X37649Y398420D01*
X37732Y398478D01*
X37817Y398534D01*
X37904Y398586D01*
X37992Y398635D01*
X38083Y398681D01*
X38175Y398723D01*
X38268Y398762D01*
X38363Y398797D01*
X38460Y398829D01*
X38557Y398857D01*
X38655Y398881D01*
X38754Y398902D01*
X38854Y398919D01*
X38955Y398932D01*
X39056Y398941D01*
X39157Y398947D01*
X39258Y398949D01*
X39259Y398949D02*
X42871Y398949D01*
X29027Y398949D02*
X29027Y388112D01*
X29027Y398949D02*
X23608Y398949D01*
X23608Y397143D01*
X11539Y404368D02*
X11539Y388112D01*
X16055Y388112D01*
X16156Y388114D01*
X16257Y388120D01*
X16358Y388129D01*
X16459Y388142D01*
X16559Y388159D01*
X16658Y388180D01*
X16756Y388204D01*
X16853Y388232D01*
X16950Y388264D01*
X17045Y388299D01*
X17138Y388338D01*
X17230Y388380D01*
X17321Y388426D01*
X17409Y388475D01*
X17496Y388527D01*
X17581Y388583D01*
X17664Y388641D01*
X17744Y388703D01*
X17822Y388768D01*
X17898Y388835D01*
X17971Y388905D01*
X18041Y388978D01*
X18108Y389054D01*
X18173Y389132D01*
X18235Y389212D01*
X18293Y389295D01*
X18349Y389380D01*
X18401Y389467D01*
X18450Y389555D01*
X18496Y389646D01*
X18538Y389738D01*
X18577Y389831D01*
X18612Y389926D01*
X18644Y390023D01*
X18672Y390120D01*
X18696Y390218D01*
X18717Y390317D01*
X18734Y390417D01*
X18747Y390518D01*
X18756Y390619D01*
X18762Y390720D01*
X18764Y390821D01*
X18764Y396240D01*
X18762Y396341D01*
X18756Y396442D01*
X18747Y396543D01*
X18734Y396644D01*
X18717Y396744D01*
X18696Y396843D01*
X18672Y396941D01*
X18644Y397038D01*
X18612Y397135D01*
X18577Y397230D01*
X18538Y397323D01*
X18496Y397415D01*
X18450Y397506D01*
X18401Y397595D01*
X18349Y397681D01*
X18293Y397766D01*
X18235Y397849D01*
X18173Y397929D01*
X18108Y398007D01*
X18041Y398083D01*
X17971Y398156D01*
X17898Y398226D01*
X17822Y398293D01*
X17744Y398358D01*
X17664Y398420D01*
X17581Y398478D01*
X17496Y398534D01*
X17410Y398586D01*
X17321Y398635D01*
X17230Y398681D01*
X17138Y398723D01*
X17045Y398762D01*
X16950Y398797D01*
X16853Y398829D01*
X16756Y398857D01*
X16658Y398881D01*
X16559Y398902D01*
X16459Y398919D01*
X16358Y398932D01*
X16257Y398941D01*
X16156Y398947D01*
X16055Y398949D01*
X11539Y398949D01*
M02*
