G04 EAGLE Gerber RS-274X export*
G75*
%MOMM*%
%FSLAX34Y34*%
%LPD*%
%INSoldermask Bottom*%
%IPPOS*%
%AMOC8*
5,1,8,0,0,1.08239X$1,22.5*%
G01*
%ADD10C,2.082800*%
%ADD11C,0.959600*%
%ADD12C,1.109600*%


D10*
X292100Y107950D03*
X292100Y57150D03*
X292100Y158750D03*
X292100Y82550D03*
X292100Y133350D03*
X292100Y31750D03*
D11*
X323850Y76200D03*
D12*
X95250Y146050D03*
X425450Y152400D03*
D11*
X482600Y152400D03*
X863600Y152400D03*
X571500Y152400D03*
X622300Y152400D03*
X673100Y152400D03*
X723900Y152400D03*
X774700Y152400D03*
X825500Y152400D03*
X863600Y190500D03*
X535600Y190500D03*
X622300Y190500D03*
X673100Y190500D03*
X723900Y190500D03*
X774700Y190500D03*
X825500Y190500D03*
X520700Y241300D03*
X863600Y241300D03*
X673100Y241300D03*
X723900Y241300D03*
X774700Y241300D03*
X825500Y241300D03*
X586400Y241300D03*
X520700Y292100D03*
X863600Y292100D03*
X825500Y292100D03*
X774700Y292100D03*
X723900Y292100D03*
X571500Y292100D03*
X637200Y292100D03*
X520700Y444500D03*
X863600Y444500D03*
X571500Y444500D03*
X622300Y444500D03*
X673100Y444500D03*
X723900Y444500D03*
X789600Y444500D03*
X520700Y393700D03*
X863600Y393700D03*
X825500Y393700D03*
X571500Y393700D03*
X622300Y393700D03*
X673100Y393700D03*
X738800Y393700D03*
X520700Y342900D03*
X863600Y342900D03*
X825500Y342900D03*
X774700Y342900D03*
X622300Y342900D03*
X688000Y342900D03*
X571500Y342900D03*
X444500Y50800D03*
X356080Y50800D03*
X457200Y63500D03*
M02*
